%TF.GenerationSoftware,KiCad,Pcbnew,(5.1.10)-1*%
%TF.CreationDate,2021-08-17T19:49:41-04:00*%
%TF.ProjectId,040 055,30343020-3035-4352-9e6b-696361645f70,rev?*%
%TF.SameCoordinates,Original*%
%TF.FileFunction,Copper,L1,Top*%
%TF.FilePolarity,Positive*%
%FSLAX46Y46*%
G04 Gerber Fmt 4.6, Leading zero omitted, Abs format (unit mm)*
G04 Created by KiCad (PCBNEW (5.1.10)-1) date 2021-08-17 19:49:41*
%MOMM*%
%LPD*%
G01*
G04 APERTURE LIST*
%TA.AperFunction,ComponentPad*%
%ADD10O,1.000000X2.100000*%
%TD*%
%TA.AperFunction,ComponentPad*%
%ADD11O,1.000000X1.600000*%
%TD*%
%TA.AperFunction,SMDPad,CuDef*%
%ADD12C,0.100000*%
%TD*%
%TA.AperFunction,SMDPad,CuDef*%
%ADD13R,0.600000X0.850000*%
%TD*%
%TA.AperFunction,ViaPad*%
%ADD14C,0.600000*%
%TD*%
%TA.AperFunction,Conductor*%
%ADD15C,0.250000*%
%TD*%
%TA.AperFunction,Conductor*%
%ADD16C,0.100000*%
%TD*%
G04 APERTURE END LIST*
D10*
%TO.P,J1,S1*%
%TO.N,GND*%
X142920000Y-70180000D03*
X134280000Y-70180000D03*
D11*
X134280000Y-66000000D03*
X142920000Y-66000000D03*
%TD*%
%TA.AperFunction,SMDPad,CuDef*%
D12*
%TO.P,J3,1*%
%TO.N,GND*%
G36*
X145285552Y-72402872D02*
G01*
X144565066Y-72154789D01*
X144680838Y-71818562D01*
X145401324Y-72066645D01*
X145285552Y-72402872D01*
G37*
%TD.AperFunction*%
%TA.AperFunction,SMDPad,CuDef*%
%TO.P,J3,2*%
G36*
X145448336Y-71930114D02*
G01*
X144727850Y-71682031D01*
X144843622Y-71345804D01*
X145564108Y-71593887D01*
X145448336Y-71930114D01*
G37*
%TD.AperFunction*%
%TA.AperFunction,SMDPad,CuDef*%
%TO.P,J3,3*%
%TO.N,Net-(J3-Pad3)*%
G36*
X145611120Y-71457352D02*
G01*
X144890634Y-71209269D01*
X145006406Y-70873042D01*
X145726892Y-71121125D01*
X145611120Y-71457352D01*
G37*
%TD.AperFunction*%
%TA.AperFunction,SMDPad,CuDef*%
%TO.P,J3,4*%
%TO.N,Net-(J3-Pad4)*%
G36*
X145773904Y-70984594D02*
G01*
X145053418Y-70736511D01*
X145169190Y-70400284D01*
X145889676Y-70648367D01*
X145773904Y-70984594D01*
G37*
%TD.AperFunction*%
%TA.AperFunction,SMDPad,CuDef*%
%TO.P,J3,5*%
%TO.N,GND*%
G36*
X145936688Y-70511836D02*
G01*
X145216202Y-70263753D01*
X145331974Y-69927526D01*
X146052460Y-70175609D01*
X145936688Y-70511836D01*
G37*
%TD.AperFunction*%
%TA.AperFunction,SMDPad,CuDef*%
%TO.P,J3,6*%
G36*
X146099472Y-70039075D02*
G01*
X145378986Y-69790992D01*
X145494758Y-69454765D01*
X146215244Y-69702848D01*
X146099472Y-70039075D01*
G37*
%TD.AperFunction*%
%TA.AperFunction,SMDPad,CuDef*%
%TO.P,J3,7*%
%TO.N,Net-(D1-Pad2)*%
G36*
X146262256Y-69566316D02*
G01*
X145541770Y-69318233D01*
X145657542Y-68982006D01*
X146378028Y-69230089D01*
X146262256Y-69566316D01*
G37*
%TD.AperFunction*%
%TA.AperFunction,SMDPad,CuDef*%
%TO.P,J3,8*%
%TO.N,Net-(D1-Pad4)*%
G36*
X146425041Y-69093556D02*
G01*
X145704555Y-68845473D01*
X145820327Y-68509246D01*
X146540813Y-68757329D01*
X146425041Y-69093556D01*
G37*
%TD.AperFunction*%
%TA.AperFunction,SMDPad,CuDef*%
%TO.P,J3,9*%
%TO.N,Net-(D1-Pad3)*%
G36*
X146587825Y-68620798D02*
G01*
X145867339Y-68372715D01*
X145983111Y-68036488D01*
X146703597Y-68284571D01*
X146587825Y-68620798D01*
G37*
%TD.AperFunction*%
%TA.AperFunction,SMDPad,CuDef*%
%TO.P,J3,10*%
%TO.N,Net-(D1-Pad1)*%
G36*
X146750608Y-68148039D02*
G01*
X146030122Y-67899956D01*
X146145894Y-67563729D01*
X146866380Y-67811812D01*
X146750608Y-68148039D01*
G37*
%TD.AperFunction*%
%TA.AperFunction,SMDPad,CuDef*%
%TO.P,J3,11*%
%TO.N,/vcc*%
G36*
X146913393Y-67675278D02*
G01*
X146192907Y-67427195D01*
X146308679Y-67090968D01*
X147029165Y-67339051D01*
X146913393Y-67675278D01*
G37*
%TD.AperFunction*%
%TA.AperFunction,SMDPad,CuDef*%
%TO.P,J3,12*%
G36*
X147076177Y-67202520D02*
G01*
X146355691Y-66954437D01*
X146471463Y-66618210D01*
X147191949Y-66866293D01*
X147076177Y-67202520D01*
G37*
%TD.AperFunction*%
%TA.AperFunction,SMDPad,CuDef*%
%TO.P,J3,13*%
%TO.N,N/C*%
G36*
X147666066Y-74058070D02*
G01*
X146681402Y-73719023D01*
X146797174Y-73382796D01*
X147781838Y-73721843D01*
X147666066Y-74058070D01*
G37*
%TD.AperFunction*%
%TA.AperFunction,SMDPad,CuDef*%
%TO.P,J3,14*%
G36*
X149971089Y-67363797D02*
G01*
X148986425Y-67024750D01*
X149102197Y-66688523D01*
X150086861Y-67027570D01*
X149971089Y-67363797D01*
G37*
%TD.AperFunction*%
%TD*%
%TA.AperFunction,SMDPad,CuDef*%
%TO.P,J2,14*%
%TO.N,N/C*%
G36*
X129268162Y-73721843D02*
G01*
X130252826Y-73382796D01*
X130368598Y-73719023D01*
X129383934Y-74058070D01*
X129268162Y-73721843D01*
G37*
%TD.AperFunction*%
%TA.AperFunction,SMDPad,CuDef*%
%TO.P,J2,13*%
G36*
X126963139Y-67027570D02*
G01*
X127947803Y-66688523D01*
X128063575Y-67024750D01*
X127078911Y-67363797D01*
X126963139Y-67027570D01*
G37*
%TD.AperFunction*%
%TA.AperFunction,SMDPad,CuDef*%
%TO.P,J2,12*%
%TO.N,/vcc*%
G36*
X131648676Y-72066645D02*
G01*
X132369162Y-71818562D01*
X132484934Y-72154789D01*
X131764448Y-72402872D01*
X131648676Y-72066645D01*
G37*
%TD.AperFunction*%
%TA.AperFunction,SMDPad,CuDef*%
%TO.P,J2,11*%
G36*
X131485892Y-71593887D02*
G01*
X132206378Y-71345804D01*
X132322150Y-71682031D01*
X131601664Y-71930114D01*
X131485892Y-71593887D01*
G37*
%TD.AperFunction*%
%TA.AperFunction,SMDPad,CuDef*%
%TO.P,J2,10*%
%TO.N,Net-(D1-Pad1)*%
G36*
X131323108Y-71121125D02*
G01*
X132043594Y-70873042D01*
X132159366Y-71209269D01*
X131438880Y-71457352D01*
X131323108Y-71121125D01*
G37*
%TD.AperFunction*%
%TA.AperFunction,SMDPad,CuDef*%
%TO.P,J2,9*%
%TO.N,Net-(D1-Pad3)*%
G36*
X131160324Y-70648367D02*
G01*
X131880810Y-70400284D01*
X131996582Y-70736511D01*
X131276096Y-70984594D01*
X131160324Y-70648367D01*
G37*
%TD.AperFunction*%
%TA.AperFunction,SMDPad,CuDef*%
%TO.P,J2,8*%
%TO.N,Net-(D1-Pad4)*%
G36*
X130997540Y-70175609D02*
G01*
X131718026Y-69927526D01*
X131833798Y-70263753D01*
X131113312Y-70511836D01*
X130997540Y-70175609D01*
G37*
%TD.AperFunction*%
%TA.AperFunction,SMDPad,CuDef*%
%TO.P,J2,7*%
%TO.N,Net-(D1-Pad2)*%
G36*
X130834756Y-69702848D02*
G01*
X131555242Y-69454765D01*
X131671014Y-69790992D01*
X130950528Y-70039075D01*
X130834756Y-69702848D01*
G37*
%TD.AperFunction*%
%TA.AperFunction,SMDPad,CuDef*%
%TO.P,J2,6*%
%TO.N,GND*%
G36*
X130671972Y-69230089D02*
G01*
X131392458Y-68982006D01*
X131508230Y-69318233D01*
X130787744Y-69566316D01*
X130671972Y-69230089D01*
G37*
%TD.AperFunction*%
%TA.AperFunction,SMDPad,CuDef*%
%TO.P,J2,5*%
G36*
X130509187Y-68757329D02*
G01*
X131229673Y-68509246D01*
X131345445Y-68845473D01*
X130624959Y-69093556D01*
X130509187Y-68757329D01*
G37*
%TD.AperFunction*%
%TA.AperFunction,SMDPad,CuDef*%
%TO.P,J2,4*%
%TO.N,Net-(J2-Pad4)*%
G36*
X130346403Y-68284571D02*
G01*
X131066889Y-68036488D01*
X131182661Y-68372715D01*
X130462175Y-68620798D01*
X130346403Y-68284571D01*
G37*
%TD.AperFunction*%
%TA.AperFunction,SMDPad,CuDef*%
%TO.P,J2,3*%
%TO.N,Net-(J2-Pad3)*%
G36*
X130183620Y-67811812D02*
G01*
X130904106Y-67563729D01*
X131019878Y-67899956D01*
X130299392Y-68148039D01*
X130183620Y-67811812D01*
G37*
%TD.AperFunction*%
%TA.AperFunction,SMDPad,CuDef*%
%TO.P,J2,2*%
%TO.N,GND*%
G36*
X130020835Y-67339051D02*
G01*
X130741321Y-67090968D01*
X130857093Y-67427195D01*
X130136607Y-67675278D01*
X130020835Y-67339051D01*
G37*
%TD.AperFunction*%
%TA.AperFunction,SMDPad,CuDef*%
%TO.P,J2,1*%
G36*
X129858051Y-66866293D02*
G01*
X130578537Y-66618210D01*
X130694309Y-66954437D01*
X129973823Y-67202520D01*
X129858051Y-66866293D01*
G37*
%TD.AperFunction*%
%TD*%
%TO.P,R2,2*%
%TO.N,Net-(J1-PadB5)*%
%TA.AperFunction,SMDPad,CuDef*%
G36*
G01*
X140087500Y-65862500D02*
X140087500Y-66337500D01*
G75*
G02*
X139850000Y-66575000I-237500J0D01*
G01*
X139350000Y-66575000D01*
G75*
G02*
X139112500Y-66337500I0J237500D01*
G01*
X139112500Y-65862500D01*
G75*
G02*
X139350000Y-65625000I237500J0D01*
G01*
X139850000Y-65625000D01*
G75*
G02*
X140087500Y-65862500I0J-237500D01*
G01*
G37*
%TD.AperFunction*%
%TO.P,R2,1*%
%TO.N,GND*%
%TA.AperFunction,SMDPad,CuDef*%
G36*
G01*
X141912500Y-65862500D02*
X141912500Y-66337500D01*
G75*
G02*
X141675000Y-66575000I-237500J0D01*
G01*
X141175000Y-66575000D01*
G75*
G02*
X140937500Y-66337500I0J237500D01*
G01*
X140937500Y-65862500D01*
G75*
G02*
X141175000Y-65625000I237500J0D01*
G01*
X141675000Y-65625000D01*
G75*
G02*
X141912500Y-65862500I0J-237500D01*
G01*
G37*
%TD.AperFunction*%
%TD*%
%TO.P,R1,2*%
%TO.N,GND*%
%TA.AperFunction,SMDPad,CuDef*%
G36*
G01*
X136237500Y-65862500D02*
X136237500Y-66337500D01*
G75*
G02*
X136000000Y-66575000I-237500J0D01*
G01*
X135500000Y-66575000D01*
G75*
G02*
X135262500Y-66337500I0J237500D01*
G01*
X135262500Y-65862500D01*
G75*
G02*
X135500000Y-65625000I237500J0D01*
G01*
X136000000Y-65625000D01*
G75*
G02*
X136237500Y-65862500I0J-237500D01*
G01*
G37*
%TD.AperFunction*%
%TO.P,R1,1*%
%TO.N,Net-(J1-PadA5)*%
%TA.AperFunction,SMDPad,CuDef*%
G36*
G01*
X138062500Y-65862500D02*
X138062500Y-66337500D01*
G75*
G02*
X137825000Y-66575000I-237500J0D01*
G01*
X137325000Y-66575000D01*
G75*
G02*
X137087500Y-66337500I0J237500D01*
G01*
X137087500Y-65862500D01*
G75*
G02*
X137325000Y-65625000I237500J0D01*
G01*
X137825000Y-65625000D01*
G75*
G02*
X138062500Y-65862500I0J-237500D01*
G01*
G37*
%TD.AperFunction*%
%TD*%
D13*
%TO.P,D1,1*%
%TO.N,Net-(D1-Pad1)*%
X137200000Y-84500000D03*
%TO.P,D1,2*%
%TO.N,Net-(D1-Pad2)*%
X138100000Y-84500000D03*
%TO.P,D1,3*%
%TO.N,Net-(D1-Pad3)*%
X139000000Y-84500000D03*
%TO.P,D1,4*%
%TO.N,Net-(D1-Pad4)*%
X139900000Y-84500000D03*
%TD*%
%TO.P,R3,1*%
%TO.N,Net-(J2-Pad3)*%
%TA.AperFunction,SMDPad,CuDef*%
G36*
G01*
X131737500Y-67837500D02*
X131737500Y-67362500D01*
G75*
G02*
X131975000Y-67125000I237500J0D01*
G01*
X132475000Y-67125000D01*
G75*
G02*
X132712500Y-67362500I0J-237500D01*
G01*
X132712500Y-67837500D01*
G75*
G02*
X132475000Y-68075000I-237500J0D01*
G01*
X131975000Y-68075000D01*
G75*
G02*
X131737500Y-67837500I0J237500D01*
G01*
G37*
%TD.AperFunction*%
%TO.P,R3,2*%
%TO.N,/d+*%
%TA.AperFunction,SMDPad,CuDef*%
G36*
G01*
X133562500Y-67837500D02*
X133562500Y-67362500D01*
G75*
G02*
X133800000Y-67125000I237500J0D01*
G01*
X134300000Y-67125000D01*
G75*
G02*
X134537500Y-67362500I0J-237500D01*
G01*
X134537500Y-67837500D01*
G75*
G02*
X134300000Y-68075000I-237500J0D01*
G01*
X133800000Y-68075000D01*
G75*
G02*
X133562500Y-67837500I0J237500D01*
G01*
G37*
%TD.AperFunction*%
%TD*%
%TO.P,R4,2*%
%TO.N,/d-*%
%TA.AperFunction,SMDPad,CuDef*%
G36*
G01*
X136562500Y-68787500D02*
X136562500Y-68312500D01*
G75*
G02*
X136800000Y-68075000I237500J0D01*
G01*
X137300000Y-68075000D01*
G75*
G02*
X137537500Y-68312500I0J-237500D01*
G01*
X137537500Y-68787500D01*
G75*
G02*
X137300000Y-69025000I-237500J0D01*
G01*
X136800000Y-69025000D01*
G75*
G02*
X136562500Y-68787500I0J237500D01*
G01*
G37*
%TD.AperFunction*%
%TO.P,R4,1*%
%TO.N,Net-(J2-Pad4)*%
%TA.AperFunction,SMDPad,CuDef*%
G36*
G01*
X134737500Y-68787500D02*
X134737500Y-68312500D01*
G75*
G02*
X134975000Y-68075000I237500J0D01*
G01*
X135475000Y-68075000D01*
G75*
G02*
X135712500Y-68312500I0J-237500D01*
G01*
X135712500Y-68787500D01*
G75*
G02*
X135475000Y-69025000I-237500J0D01*
G01*
X134975000Y-69025000D01*
G75*
G02*
X134737500Y-68787500I0J237500D01*
G01*
G37*
%TD.AperFunction*%
%TD*%
%TO.P,R5,1*%
%TO.N,Net-(J3-Pad3)*%
%TA.AperFunction,SMDPad,CuDef*%
G36*
G01*
X141687500Y-71112500D02*
X141687500Y-71587500D01*
G75*
G02*
X141450000Y-71825000I-237500J0D01*
G01*
X140950000Y-71825000D01*
G75*
G02*
X140712500Y-71587500I0J237500D01*
G01*
X140712500Y-71112500D01*
G75*
G02*
X140950000Y-70875000I237500J0D01*
G01*
X141450000Y-70875000D01*
G75*
G02*
X141687500Y-71112500I0J-237500D01*
G01*
G37*
%TD.AperFunction*%
%TO.P,R5,2*%
%TO.N,/d+*%
%TA.AperFunction,SMDPad,CuDef*%
G36*
G01*
X139862500Y-71112500D02*
X139862500Y-71587500D01*
G75*
G02*
X139625000Y-71825000I-237500J0D01*
G01*
X139125000Y-71825000D01*
G75*
G02*
X138887500Y-71587500I0J237500D01*
G01*
X138887500Y-71112500D01*
G75*
G02*
X139125000Y-70875000I237500J0D01*
G01*
X139625000Y-70875000D01*
G75*
G02*
X139862500Y-71112500I0J-237500D01*
G01*
G37*
%TD.AperFunction*%
%TD*%
%TO.P,R6,2*%
%TO.N,/d-*%
%TA.AperFunction,SMDPad,CuDef*%
G36*
G01*
X140087500Y-68162500D02*
X140087500Y-68637500D01*
G75*
G02*
X139850000Y-68875000I-237500J0D01*
G01*
X139350000Y-68875000D01*
G75*
G02*
X139112500Y-68637500I0J237500D01*
G01*
X139112500Y-68162500D01*
G75*
G02*
X139350000Y-67925000I237500J0D01*
G01*
X139850000Y-67925000D01*
G75*
G02*
X140087500Y-68162500I0J-237500D01*
G01*
G37*
%TD.AperFunction*%
%TO.P,R6,1*%
%TO.N,Net-(J3-Pad4)*%
%TA.AperFunction,SMDPad,CuDef*%
G36*
G01*
X141912500Y-68162500D02*
X141912500Y-68637500D01*
G75*
G02*
X141675000Y-68875000I-237500J0D01*
G01*
X141175000Y-68875000D01*
G75*
G02*
X140937500Y-68637500I0J237500D01*
G01*
X140937500Y-68162500D01*
G75*
G02*
X141175000Y-67925000I237500J0D01*
G01*
X141675000Y-67925000D01*
G75*
G02*
X141912500Y-68162500I0J-237500D01*
G01*
G37*
%TD.AperFunction*%
%TD*%
D14*
%TO.N,/vcc*%
X145300000Y-66600000D03*
X133243162Y-72806838D03*
%TO.N,Net-(J1-PadA5)*%
X137500000Y-67050000D03*
%TO.N,/d-*%
X137925000Y-69700000D03*
%TO.N,/d+*%
X139384499Y-72176985D03*
X138000000Y-68287700D03*
%TO.N,Net-(J1-PadB5)*%
X139700000Y-67200000D03*
%TO.N,Net-(D1-Pad1)*%
X144650000Y-67900000D03*
X136512550Y-75437450D03*
%TO.N,Net-(D1-Pad2)*%
X146600001Y-70150000D03*
X136062138Y-76237862D03*
%TO.N,Net-(D1-Pad3)*%
X145550000Y-68050000D03*
X137495399Y-75854601D03*
%TD*%
D15*
%TO.N,/vcc*%
X132606747Y-72110717D02*
X132066805Y-72110717D01*
X132133989Y-71637959D02*
X132848015Y-72351985D01*
X131904021Y-71637959D02*
X132133989Y-71637959D01*
X132848015Y-72351985D02*
X132606747Y-72110717D01*
X146463455Y-66600000D02*
X146773820Y-66910365D01*
X145827913Y-66600000D02*
X145700000Y-66600000D01*
X146611036Y-67383123D02*
X145827913Y-66600000D01*
X145700000Y-66600000D02*
X146463455Y-66600000D01*
X145300000Y-66600000D02*
X145300000Y-66600000D01*
X145300000Y-66600000D02*
X145700000Y-66600000D01*
X132848015Y-72411691D02*
X133243162Y-72806838D01*
X132848015Y-72351985D02*
X132848015Y-72411691D01*
%TO.N,Net-(J1-PadA5)*%
X137500000Y-66175000D02*
X137575000Y-66100000D01*
X137500000Y-67050000D02*
X137500000Y-66175000D01*
%TO.N,/d-*%
X138300000Y-69700000D02*
X139600000Y-68400000D01*
X137825000Y-69700000D02*
X138300000Y-69700000D01*
X137050000Y-68925000D02*
X137050000Y-68550000D01*
X137825000Y-69700000D02*
X137050000Y-68925000D01*
%TO.N,/d+*%
X139350000Y-71375000D02*
X139375000Y-71350000D01*
X137312300Y-67600000D02*
X138000000Y-68287700D01*
X134050000Y-67600000D02*
X137312300Y-67600000D01*
X139375000Y-72167486D02*
X139384499Y-72176985D01*
X139375000Y-71350000D02*
X139375000Y-72167486D01*
%TO.N,Net-(J1-PadB5)*%
X139700000Y-66200000D02*
X139600000Y-66100000D01*
X139700000Y-67200000D02*
X139700000Y-67200000D01*
X139700000Y-67200000D02*
X139700000Y-66200000D01*
%TO.N,Net-(D1-Pad1)*%
X136699990Y-83999990D02*
X137200000Y-84500000D01*
X136699990Y-75450492D02*
X136699990Y-83999990D01*
X132320292Y-71070794D02*
X136699990Y-75450492D01*
X132051222Y-71070794D02*
X132320292Y-71070794D01*
X145926789Y-67550000D02*
X146138267Y-67761478D01*
X145075001Y-67474999D02*
X144650000Y-67900000D01*
X145851788Y-67474999D02*
X145075001Y-67474999D01*
X145926789Y-67550000D02*
X145851788Y-67474999D01*
X136525592Y-75450492D02*
X136512550Y-75437450D01*
X136699990Y-75450492D02*
X136525592Y-75450492D01*
%TO.N,Net-(D1-Pad2)*%
X137720001Y-85200001D02*
X138100000Y-84820002D01*
X138100000Y-84820002D02*
X138100000Y-84500000D01*
X136299980Y-84819982D02*
X136679999Y-85200001D01*
X136299980Y-76475703D02*
X136299980Y-84819982D01*
X136679999Y-85200001D02*
X137720001Y-85200001D01*
X136299980Y-76475703D02*
X136224990Y-76475703D01*
X146600001Y-69698682D02*
X146269885Y-69368566D01*
X146600001Y-70150000D02*
X146600001Y-69698682D01*
X136062138Y-76237862D02*
X136299980Y-76475703D01*
X135937549Y-76113273D02*
X136062138Y-76237862D01*
X135937549Y-75253749D02*
X135937549Y-76113273D01*
X132354491Y-73381839D02*
X134065639Y-73381839D01*
X134065639Y-73381839D02*
X135937549Y-75253749D01*
X130722530Y-71749878D02*
X132354491Y-73381839D01*
X130722530Y-70061696D02*
X130722530Y-71749878D01*
X130942900Y-69841326D02*
X130722530Y-70061696D01*
%TO.N,Net-(D1-Pad3)*%
X131986474Y-70500000D02*
X131888442Y-70598032D01*
X132388273Y-70500000D02*
X131986474Y-70500000D01*
X137100000Y-75211727D02*
X132388273Y-70500000D01*
X139000000Y-82030259D02*
X139000000Y-84500000D01*
X137100000Y-80130259D02*
X139000000Y-82030259D01*
X137100000Y-75211727D02*
X137100000Y-75661584D01*
X145891243Y-68150000D02*
X145975479Y-68234236D01*
X145650000Y-68150000D02*
X145891243Y-68150000D01*
X145550000Y-68050000D02*
X145650000Y-68150000D01*
X137100000Y-75661584D02*
X137100000Y-75900000D01*
X137440798Y-75800000D02*
X137495399Y-75854601D01*
X137100000Y-75800000D02*
X137440798Y-75800000D01*
X137100000Y-80130259D02*
X137100000Y-75800000D01*
X137100000Y-75800000D02*
X137100000Y-75211727D01*
%TO.N,Net-(D1-Pad4)*%
X131750929Y-70100000D02*
X131725655Y-70125274D01*
X132553971Y-70100000D02*
X131750929Y-70100000D01*
X140000000Y-84500000D02*
X140100927Y-84399073D01*
X140100927Y-84299073D02*
X139900000Y-84500000D01*
X140100927Y-77646956D02*
X140100927Y-84299073D01*
X132553971Y-70100000D02*
X140100927Y-77646956D01*
X146701739Y-68895808D02*
X146432670Y-68895808D01*
X146725275Y-68872272D02*
X146701739Y-68895808D01*
X147175001Y-69321999D02*
X146725275Y-68872272D01*
X147175001Y-70902347D02*
X147175001Y-69321999D01*
X145399466Y-72677882D02*
X147175001Y-70902347D01*
X144597840Y-72677882D02*
X145399466Y-72677882D01*
X140100927Y-77174795D02*
X144597840Y-72677882D01*
X140100927Y-77646956D02*
X140100927Y-77174795D01*
%TO.N,Net-(J2-Pad4)*%
X131343587Y-68234236D02*
X131074521Y-68234236D01*
X131659351Y-68550000D02*
X131343587Y-68234236D01*
X135225000Y-68550000D02*
X131659351Y-68550000D01*
%TO.N,Net-(J2-Pad3)*%
X131073211Y-67600000D02*
X130911733Y-67761478D01*
X132225000Y-67600000D02*
X131073211Y-67600000D01*
%TO.N,Net-(J3-Pad3)*%
X144295492Y-71505010D02*
X144729708Y-71070794D01*
X142598981Y-71505010D02*
X144295492Y-71505010D01*
X144729708Y-71070794D02*
X144998778Y-71070794D01*
X142443971Y-71350000D02*
X142598981Y-71505010D01*
X141200000Y-71350000D02*
X142443971Y-71350000D01*
%TO.N,Net-(J3-Pad4)*%
X143418516Y-68854990D02*
X145161558Y-70598032D01*
X142963526Y-68400000D02*
X143418516Y-68854990D01*
X141425000Y-68400000D02*
X142963526Y-68400000D01*
%TD*%
%TO.N,GND*%
X150345254Y-66828219D02*
X150303254Y-66782982D01*
X150251379Y-66745466D01*
X150193182Y-66718790D01*
X149208518Y-66379743D01*
X149146235Y-66364934D01*
X149082260Y-66362560D01*
X149019051Y-66372713D01*
X148959037Y-66395002D01*
X148904525Y-66428571D01*
X148857609Y-66472130D01*
X148820092Y-66524005D01*
X148793417Y-66582202D01*
X148677645Y-66918429D01*
X148662836Y-66980711D01*
X148660462Y-67044687D01*
X148670615Y-67107896D01*
X148692904Y-67167910D01*
X148726473Y-67222422D01*
X148770032Y-67269338D01*
X148821907Y-67306854D01*
X148880104Y-67333530D01*
X149864768Y-67672577D01*
X149927051Y-67687386D01*
X149991026Y-67689760D01*
X150049617Y-67680349D01*
X148027508Y-73508788D01*
X147998231Y-73477255D01*
X147946356Y-73439739D01*
X147888159Y-73413063D01*
X146903495Y-73074016D01*
X146841212Y-73059207D01*
X146777237Y-73056833D01*
X146714028Y-73066986D01*
X146654014Y-73089275D01*
X146599502Y-73122844D01*
X146552586Y-73166403D01*
X146515069Y-73218278D01*
X146488394Y-73276475D01*
X146372622Y-73612702D01*
X146357813Y-73674984D01*
X146355439Y-73738960D01*
X146365592Y-73802169D01*
X146387881Y-73862183D01*
X146421450Y-73916695D01*
X146465009Y-73963611D01*
X146516884Y-74001127D01*
X146575081Y-74027803D01*
X147559745Y-74366850D01*
X147622028Y-74381659D01*
X147686003Y-74384033D01*
X147726085Y-74377595D01*
X147700965Y-74450000D01*
X143462118Y-74450000D01*
X144784236Y-73127882D01*
X145377372Y-73127882D01*
X145399466Y-73130058D01*
X145421560Y-73127882D01*
X145421571Y-73127882D01*
X145487681Y-73121371D01*
X145572507Y-73095639D01*
X145650682Y-73053853D01*
X145719203Y-72997619D01*
X145733295Y-72980448D01*
X147477574Y-71236170D01*
X147494738Y-71222084D01*
X147508825Y-71204919D01*
X147508829Y-71204915D01*
X147550972Y-71153564D01*
X147592758Y-71075388D01*
X147594152Y-71070794D01*
X147618490Y-70990562D01*
X147625001Y-70924452D01*
X147625001Y-70924441D01*
X147627177Y-70902347D01*
X147625001Y-70880253D01*
X147625001Y-69344091D01*
X147627177Y-69321999D01*
X147625001Y-69299905D01*
X147625001Y-69299894D01*
X147618490Y-69233784D01*
X147592758Y-69148958D01*
X147575863Y-69117350D01*
X147550972Y-69070782D01*
X147508829Y-69019431D01*
X147508825Y-69019427D01*
X147494738Y-69002262D01*
X147477573Y-68988175D01*
X147059104Y-68569706D01*
X147045012Y-68552535D01*
X147000342Y-68515875D01*
X146976492Y-68496301D01*
X146976146Y-68496116D01*
X147012377Y-68390892D01*
X147027186Y-68328609D01*
X147027515Y-68319744D01*
X147032713Y-68312557D01*
X147059388Y-68254360D01*
X147175160Y-67918133D01*
X147189969Y-67855850D01*
X147190298Y-67846986D01*
X147195498Y-67839796D01*
X147222173Y-67781599D01*
X147337945Y-67445372D01*
X147352754Y-67383089D01*
X147353083Y-67374227D01*
X147358282Y-67367038D01*
X147384957Y-67308841D01*
X147500729Y-66972614D01*
X147515538Y-66910331D01*
X147517912Y-66846356D01*
X147507759Y-66783147D01*
X147485470Y-66723133D01*
X147451901Y-66668621D01*
X147408342Y-66621705D01*
X147356467Y-66584188D01*
X147298270Y-66557513D01*
X146930851Y-66431001D01*
X146797283Y-66297433D01*
X146783192Y-66280263D01*
X146714671Y-66224029D01*
X146636496Y-66182243D01*
X146551670Y-66156511D01*
X146485560Y-66150000D01*
X146485549Y-66150000D01*
X146463455Y-66147824D01*
X146441361Y-66150000D01*
X145850007Y-66150000D01*
X145827913Y-66147824D01*
X145805819Y-66150000D01*
X145733883Y-66150000D01*
X145698414Y-66114531D01*
X145596048Y-66046132D01*
X145482306Y-65999019D01*
X145361557Y-65975000D01*
X145238443Y-65975000D01*
X145117694Y-65999019D01*
X145003952Y-66046132D01*
X144901586Y-66114531D01*
X144814531Y-66201586D01*
X144746132Y-66303952D01*
X144699019Y-66417694D01*
X144675000Y-66538443D01*
X144675000Y-66661557D01*
X144699019Y-66782306D01*
X144746132Y-66896048D01*
X144814531Y-66998414D01*
X144883321Y-67067204D01*
X144823784Y-67099028D01*
X144772433Y-67141171D01*
X144772429Y-67141175D01*
X144755264Y-67155262D01*
X144741177Y-67172427D01*
X144638604Y-67275000D01*
X144588443Y-67275000D01*
X144467694Y-67299019D01*
X144353952Y-67346132D01*
X144251586Y-67414531D01*
X144164531Y-67501586D01*
X144096132Y-67603952D01*
X144049019Y-67717694D01*
X144025000Y-67838443D01*
X144025000Y-67961557D01*
X144049019Y-68082306D01*
X144096132Y-68196048D01*
X144164531Y-68298414D01*
X144251586Y-68385469D01*
X144353952Y-68453868D01*
X144467694Y-68500981D01*
X144588443Y-68525000D01*
X144711557Y-68525000D01*
X144832306Y-68500981D01*
X144946048Y-68453868D01*
X145030479Y-68397452D01*
X145064531Y-68448414D01*
X145151586Y-68535469D01*
X145253952Y-68603868D01*
X145367694Y-68650981D01*
X145422388Y-68661861D01*
X145395775Y-68739152D01*
X145380966Y-68801435D01*
X145380637Y-68810298D01*
X145375437Y-68817488D01*
X145348762Y-68875685D01*
X145232990Y-69211912D01*
X145218181Y-69274195D01*
X145215807Y-69338170D01*
X145225960Y-69401379D01*
X145248249Y-69461393D01*
X145281818Y-69515905D01*
X145325377Y-69562821D01*
X145377252Y-69600338D01*
X145435449Y-69627013D01*
X146055185Y-69840405D01*
X146046133Y-69853952D01*
X145999020Y-69967694D01*
X145975001Y-70088443D01*
X145975001Y-70211557D01*
X145999020Y-70332306D01*
X146003451Y-70343004D01*
X145995997Y-70339587D01*
X145299784Y-70099862D01*
X143752348Y-68552427D01*
X143752344Y-68552422D01*
X143297354Y-68097433D01*
X143283263Y-68080263D01*
X143214742Y-68024029D01*
X143136567Y-67982243D01*
X143051741Y-67956511D01*
X142985631Y-67950000D01*
X142985620Y-67950000D01*
X142963526Y-67947824D01*
X142941432Y-67950000D01*
X142197155Y-67950000D01*
X142196135Y-67946639D01*
X142144009Y-67849118D01*
X142073859Y-67763641D01*
X141988382Y-67693491D01*
X141890861Y-67641365D01*
X141785045Y-67609266D01*
X141675000Y-67598428D01*
X141175000Y-67598428D01*
X141064955Y-67609266D01*
X140959139Y-67641365D01*
X140861618Y-67693491D01*
X140776141Y-67763641D01*
X140705991Y-67849118D01*
X140653865Y-67946639D01*
X140621766Y-68052455D01*
X140610928Y-68162500D01*
X140610928Y-68637500D01*
X140621766Y-68747545D01*
X140653865Y-68853361D01*
X140705991Y-68950882D01*
X140776141Y-69036359D01*
X140861618Y-69106509D01*
X140959139Y-69158635D01*
X141038156Y-69182605D01*
X140985112Y-69235649D01*
X140913978Y-69342110D01*
X140864979Y-69460402D01*
X140840000Y-69585981D01*
X140840000Y-69714019D01*
X140864979Y-69839598D01*
X140913978Y-69957890D01*
X140985112Y-70064351D01*
X141075649Y-70154888D01*
X141182110Y-70226022D01*
X141300402Y-70275021D01*
X141425981Y-70300000D01*
X141554019Y-70300000D01*
X141679598Y-70275021D01*
X141797890Y-70226022D01*
X141904351Y-70154888D01*
X141994888Y-70064351D01*
X142066022Y-69957890D01*
X142115021Y-69839598D01*
X142140000Y-69714019D01*
X142140000Y-69585981D01*
X142115021Y-69460402D01*
X142066022Y-69342110D01*
X141994888Y-69235649D01*
X141908465Y-69149226D01*
X141988382Y-69106509D01*
X142073859Y-69036359D01*
X142144009Y-68950882D01*
X142196135Y-68853361D01*
X142197155Y-68850000D01*
X142777131Y-68850000D01*
X143115948Y-69188818D01*
X143115953Y-69188822D01*
X144574698Y-70647568D01*
X144556667Y-70653037D01*
X144478491Y-70694823D01*
X144427140Y-70736966D01*
X144427136Y-70736970D01*
X144409971Y-70751057D01*
X144395884Y-70768222D01*
X144109097Y-71055010D01*
X142785376Y-71055010D01*
X142777800Y-71047434D01*
X142763708Y-71030263D01*
X142695187Y-70974029D01*
X142617012Y-70932243D01*
X142532186Y-70906511D01*
X142466076Y-70900000D01*
X142466065Y-70900000D01*
X142443971Y-70897824D01*
X142421877Y-70900000D01*
X141972155Y-70900000D01*
X141971135Y-70896639D01*
X141919009Y-70799118D01*
X141848859Y-70713641D01*
X141763382Y-70643491D01*
X141665861Y-70591365D01*
X141560045Y-70559266D01*
X141450000Y-70548428D01*
X140950000Y-70548428D01*
X140839955Y-70559266D01*
X140734139Y-70591365D01*
X140636618Y-70643491D01*
X140551141Y-70713641D01*
X140480991Y-70799118D01*
X140428865Y-70896639D01*
X140396766Y-71002455D01*
X140385928Y-71112500D01*
X140385928Y-71587500D01*
X140396766Y-71697545D01*
X140428865Y-71803361D01*
X140480991Y-71900882D01*
X140551141Y-71986359D01*
X140636618Y-72056509D01*
X140734139Y-72108635D01*
X140839955Y-72140734D01*
X140950000Y-72151572D01*
X141450000Y-72151572D01*
X141560045Y-72140734D01*
X141665861Y-72108635D01*
X141763382Y-72056509D01*
X141848859Y-71986359D01*
X141919009Y-71900882D01*
X141971135Y-71803361D01*
X141972155Y-71800000D01*
X142257576Y-71800000D01*
X142265152Y-71807576D01*
X142279244Y-71824747D01*
X142347765Y-71880981D01*
X142425940Y-71922767D01*
X142510766Y-71948499D01*
X142576876Y-71955010D01*
X142576886Y-71955010D01*
X142598980Y-71957186D01*
X142621074Y-71955010D01*
X144273398Y-71955010D01*
X144295492Y-71957186D01*
X144317586Y-71955010D01*
X144317597Y-71955010D01*
X144383707Y-71948499D01*
X144468533Y-71922767D01*
X144546708Y-71880981D01*
X144615229Y-71824747D01*
X144629320Y-71807577D01*
X144884390Y-71552508D01*
X145504799Y-71766132D01*
X145567082Y-71780941D01*
X145631057Y-71783315D01*
X145662724Y-71778228D01*
X145213071Y-72227882D01*
X144619931Y-72227882D01*
X144597839Y-72225706D01*
X144575747Y-72227882D01*
X144575735Y-72227882D01*
X144509625Y-72234393D01*
X144424799Y-72260125D01*
X144346623Y-72301911D01*
X144295272Y-72344054D01*
X144295268Y-72344058D01*
X144278103Y-72358145D01*
X144264016Y-72375310D01*
X139864847Y-76774480D01*
X134202867Y-71112500D01*
X138560928Y-71112500D01*
X138560928Y-71587500D01*
X138571766Y-71697545D01*
X138603865Y-71803361D01*
X138655991Y-71900882D01*
X138726141Y-71986359D01*
X138776889Y-72028007D01*
X138759499Y-72115428D01*
X138759499Y-72238542D01*
X138783518Y-72359291D01*
X138830631Y-72473033D01*
X138899030Y-72575399D01*
X138986085Y-72662454D01*
X139088451Y-72730853D01*
X139202193Y-72777966D01*
X139322942Y-72801985D01*
X139446056Y-72801985D01*
X139566805Y-72777966D01*
X139680547Y-72730853D01*
X139782913Y-72662454D01*
X139869968Y-72575399D01*
X139938367Y-72473033D01*
X139985480Y-72359291D01*
X140009499Y-72238542D01*
X140009499Y-72115428D01*
X139989443Y-72014604D01*
X140023859Y-71986359D01*
X140094009Y-71900882D01*
X140146135Y-71803361D01*
X140178234Y-71697545D01*
X140189072Y-71587500D01*
X140189072Y-71112500D01*
X140178234Y-71002455D01*
X140146135Y-70896639D01*
X140094009Y-70799118D01*
X140023859Y-70713641D01*
X139938382Y-70643491D01*
X139840861Y-70591365D01*
X139735045Y-70559266D01*
X139625000Y-70548428D01*
X139125000Y-70548428D01*
X139014955Y-70559266D01*
X138909139Y-70591365D01*
X138811618Y-70643491D01*
X138726141Y-70713641D01*
X138655991Y-70799118D01*
X138603865Y-70896639D01*
X138571766Y-71002455D01*
X138560928Y-71112500D01*
X134202867Y-71112500D01*
X132887800Y-69797434D01*
X132873708Y-69780263D01*
X132805187Y-69724029D01*
X132727012Y-69682243D01*
X132642186Y-69656511D01*
X132576076Y-69650000D01*
X132576065Y-69650000D01*
X132553971Y-69647824D01*
X132531877Y-69650000D01*
X131967856Y-69650000D01*
X131864022Y-69348444D01*
X131837347Y-69290247D01*
X131799830Y-69238372D01*
X131752914Y-69194813D01*
X131698402Y-69161244D01*
X131638388Y-69138955D01*
X131575179Y-69128802D01*
X131511204Y-69131176D01*
X131448921Y-69145985D01*
X130728435Y-69394068D01*
X130670238Y-69420743D01*
X130618363Y-69458260D01*
X130574804Y-69505176D01*
X130541235Y-69559688D01*
X130518946Y-69619702D01*
X130517189Y-69630642D01*
X130419964Y-69727867D01*
X130402793Y-69741959D01*
X130388702Y-69759129D01*
X130346559Y-69810480D01*
X130312576Y-69874058D01*
X130304773Y-69888656D01*
X130279041Y-69973482D01*
X130272530Y-70039592D01*
X130272530Y-70039602D01*
X130270354Y-70061696D01*
X130272530Y-70083791D01*
X130272531Y-71727774D01*
X130270354Y-71749878D01*
X130279042Y-71838093D01*
X130304773Y-71922918D01*
X130346559Y-72001094D01*
X130388702Y-72052445D01*
X130388707Y-72052450D01*
X130402794Y-72069615D01*
X130419959Y-72083702D01*
X132020667Y-73684411D01*
X132034754Y-73701576D01*
X132051919Y-73715663D01*
X132051923Y-73715667D01*
X132103274Y-73757810D01*
X132118376Y-73765882D01*
X132181450Y-73799596D01*
X132266276Y-73825328D01*
X132332386Y-73831839D01*
X132332398Y-73831839D01*
X132354490Y-73834015D01*
X132376582Y-73831839D01*
X133879244Y-73831839D01*
X135487549Y-75440145D01*
X135487550Y-75991837D01*
X135461157Y-76055556D01*
X135437138Y-76176305D01*
X135437138Y-76299419D01*
X135461157Y-76420168D01*
X135508270Y-76533910D01*
X135576669Y-76636276D01*
X135663724Y-76723331D01*
X135766090Y-76791730D01*
X135849980Y-76826478D01*
X135849981Y-84797878D01*
X135847804Y-84819982D01*
X135856492Y-84908197D01*
X135882223Y-84993022D01*
X135924009Y-85071198D01*
X135966152Y-85122549D01*
X135966157Y-85122554D01*
X135980244Y-85139719D01*
X135997409Y-85153806D01*
X136346175Y-85502572D01*
X136360262Y-85519738D01*
X136377427Y-85533825D01*
X136377431Y-85533829D01*
X136428782Y-85575972D01*
X136506958Y-85617758D01*
X136591784Y-85643490D01*
X136657894Y-85650001D01*
X136657904Y-85650001D01*
X136679998Y-85652177D01*
X136702093Y-85650001D01*
X137697907Y-85650001D01*
X137720001Y-85652177D01*
X137742095Y-85650001D01*
X137742106Y-85650001D01*
X137808216Y-85643490D01*
X137893042Y-85617758D01*
X137971217Y-85575972D01*
X138039738Y-85519738D01*
X138053829Y-85502568D01*
X138304826Y-85251572D01*
X138400000Y-85251572D01*
X138463711Y-85245297D01*
X138524974Y-85226713D01*
X138550000Y-85213337D01*
X138575026Y-85226713D01*
X138636289Y-85245297D01*
X138700000Y-85251572D01*
X139300000Y-85251572D01*
X139363711Y-85245297D01*
X139424974Y-85226713D01*
X139450000Y-85213337D01*
X139475026Y-85226713D01*
X139536289Y-85245297D01*
X139600000Y-85251572D01*
X140200000Y-85251572D01*
X140263711Y-85245297D01*
X140324974Y-85226713D01*
X140381434Y-85196535D01*
X140430921Y-85155921D01*
X140471535Y-85106434D01*
X140501713Y-85049974D01*
X140520297Y-84988711D01*
X140526572Y-84925000D01*
X140526572Y-84546109D01*
X140544414Y-84487289D01*
X140553103Y-84399074D01*
X140548179Y-84349082D01*
X140550927Y-84321178D01*
X140550927Y-84321167D01*
X140553103Y-84299073D01*
X140550927Y-84276979D01*
X140550927Y-77669050D01*
X140553103Y-77646956D01*
X140550927Y-77624862D01*
X140550927Y-77361190D01*
X142550001Y-75362117D01*
X142550000Y-86150000D01*
X134550000Y-86150000D01*
X134550000Y-74817190D01*
X134551693Y-74800001D01*
X134548565Y-74768238D01*
X134544935Y-74731389D01*
X134524922Y-74665414D01*
X134492422Y-74604611D01*
X134492421Y-74604610D01*
X134448685Y-74551316D01*
X134395390Y-74507579D01*
X134334587Y-74475079D01*
X134268612Y-74455066D01*
X134217189Y-74450001D01*
X134217188Y-74450001D01*
X134200000Y-74448308D01*
X134182811Y-74450001D01*
X129399036Y-74450001D01*
X129375995Y-74383588D01*
X129427973Y-74381659D01*
X129490255Y-74366850D01*
X130474919Y-74027803D01*
X130533116Y-74001128D01*
X130584991Y-73963611D01*
X130628550Y-73916695D01*
X130662119Y-73862183D01*
X130684408Y-73802169D01*
X130694561Y-73738960D01*
X130692187Y-73674985D01*
X130677378Y-73612702D01*
X130561606Y-73276475D01*
X130534930Y-73218278D01*
X130497414Y-73166403D01*
X130450498Y-73122844D01*
X130395986Y-73089275D01*
X130335972Y-73066986D01*
X130272763Y-73056833D01*
X130208787Y-73059207D01*
X130146505Y-73074016D01*
X129161841Y-73413063D01*
X129103644Y-73439738D01*
X129059591Y-73471598D01*
X127053332Y-67688854D01*
X127058974Y-67689760D01*
X127122950Y-67687386D01*
X127185232Y-67672577D01*
X128169896Y-67333530D01*
X128228093Y-67306855D01*
X128279968Y-67269338D01*
X128323527Y-67222422D01*
X128357096Y-67167910D01*
X128379385Y-67107896D01*
X128389538Y-67044687D01*
X128387164Y-66980712D01*
X128372355Y-66918429D01*
X128256583Y-66582202D01*
X128229907Y-66524005D01*
X128192391Y-66472130D01*
X128145475Y-66428571D01*
X128090963Y-66395002D01*
X128030949Y-66372713D01*
X127967740Y-66362560D01*
X127903764Y-66364934D01*
X127841482Y-66379743D01*
X126856818Y-66718790D01*
X126798621Y-66745465D01*
X126746746Y-66782982D01*
X126741144Y-66789016D01*
X126241893Y-65350000D01*
X137092986Y-65349999D01*
X137011618Y-65393491D01*
X136926141Y-65463641D01*
X136855991Y-65549118D01*
X136803865Y-65646639D01*
X136771766Y-65752455D01*
X136760928Y-65862500D01*
X136760928Y-66337500D01*
X136771766Y-66447545D01*
X136803865Y-66553361D01*
X136855991Y-66650882D01*
X136926141Y-66736359D01*
X136946644Y-66753186D01*
X136946132Y-66753952D01*
X136899019Y-66867694D01*
X136875000Y-66988443D01*
X136875000Y-67111557D01*
X136882647Y-67150000D01*
X134822155Y-67150000D01*
X134821135Y-67146639D01*
X134769009Y-67049118D01*
X134698859Y-66963641D01*
X134613382Y-66893491D01*
X134515861Y-66841365D01*
X134410045Y-66809266D01*
X134300000Y-66798428D01*
X133800000Y-66798428D01*
X133689955Y-66809266D01*
X133584139Y-66841365D01*
X133486618Y-66893491D01*
X133401141Y-66963641D01*
X133330991Y-67049118D01*
X133278865Y-67146639D01*
X133246766Y-67252455D01*
X133235928Y-67362500D01*
X133235928Y-67837500D01*
X133246766Y-67947545D01*
X133278865Y-68053361D01*
X133303794Y-68100000D01*
X132971206Y-68100000D01*
X132996135Y-68053361D01*
X133028234Y-67947545D01*
X133039072Y-67837500D01*
X133039072Y-67362500D01*
X133028234Y-67252455D01*
X132996135Y-67146639D01*
X132944009Y-67049118D01*
X132873859Y-66963641D01*
X132788382Y-66893491D01*
X132690861Y-66841365D01*
X132585045Y-66809266D01*
X132475000Y-66798428D01*
X131975000Y-66798428D01*
X131864955Y-66809266D01*
X131759139Y-66841365D01*
X131661618Y-66893491D01*
X131576141Y-66963641D01*
X131505991Y-67049118D01*
X131453865Y-67146639D01*
X131452845Y-67150000D01*
X131095302Y-67150000D01*
X131073210Y-67147824D01*
X131051118Y-67150000D01*
X131051106Y-67150000D01*
X130984996Y-67156511D01*
X130900170Y-67182243D01*
X130821995Y-67224029D01*
X130774585Y-67262937D01*
X130077299Y-67503032D01*
X130019102Y-67529707D01*
X129967227Y-67567224D01*
X129923668Y-67614140D01*
X129890099Y-67668652D01*
X129867810Y-67728666D01*
X129857657Y-67791875D01*
X129860031Y-67855850D01*
X129874840Y-67918133D01*
X129990612Y-68254360D01*
X130017287Y-68312557D01*
X130022485Y-68319744D01*
X130022814Y-68328609D01*
X130037623Y-68390892D01*
X130153395Y-68727119D01*
X130180070Y-68785316D01*
X130217587Y-68837191D01*
X130264503Y-68880750D01*
X130319015Y-68914319D01*
X130379029Y-68936608D01*
X130442238Y-68946761D01*
X130506213Y-68944387D01*
X130568496Y-68929578D01*
X131188909Y-68715953D01*
X131325526Y-68852571D01*
X131339614Y-68869737D01*
X131356779Y-68883824D01*
X131356783Y-68883828D01*
X131408134Y-68925971D01*
X131472707Y-68960486D01*
X131486310Y-68967757D01*
X131571136Y-68993489D01*
X131637246Y-69000000D01*
X131637257Y-69000000D01*
X131659351Y-69002176D01*
X131681445Y-69000000D01*
X134452845Y-69000000D01*
X134453865Y-69003361D01*
X134505991Y-69100882D01*
X134576141Y-69186359D01*
X134661618Y-69256509D01*
X134759139Y-69308635D01*
X134864955Y-69340734D01*
X134975000Y-69351572D01*
X135130059Y-69351572D01*
X135084979Y-69460402D01*
X135060000Y-69585981D01*
X135060000Y-69714019D01*
X135084979Y-69839598D01*
X135133978Y-69957890D01*
X135205112Y-70064351D01*
X135295649Y-70154888D01*
X135402110Y-70226022D01*
X135520402Y-70275021D01*
X135645981Y-70300000D01*
X135774019Y-70300000D01*
X135899598Y-70275021D01*
X136017890Y-70226022D01*
X136124351Y-70154888D01*
X136214888Y-70064351D01*
X136286022Y-69957890D01*
X136335021Y-69839598D01*
X136360000Y-69714019D01*
X136360000Y-69585981D01*
X136335021Y-69460402D01*
X136286022Y-69342110D01*
X136214888Y-69235649D01*
X136124351Y-69145112D01*
X136017890Y-69073978D01*
X135969175Y-69053799D01*
X135996135Y-69003361D01*
X136028234Y-68897545D01*
X136039072Y-68787500D01*
X136039072Y-68312500D01*
X136028234Y-68202455D01*
X135996135Y-68096639D01*
X135971206Y-68050000D01*
X136303794Y-68050000D01*
X136278865Y-68096639D01*
X136246766Y-68202455D01*
X136235928Y-68312500D01*
X136235928Y-68787500D01*
X136246766Y-68897545D01*
X136278865Y-69003361D01*
X136330991Y-69100882D01*
X136401141Y-69186359D01*
X136486618Y-69256509D01*
X136584139Y-69308635D01*
X136689955Y-69340734D01*
X136800000Y-69351572D01*
X136840177Y-69351572D01*
X137312375Y-69823771D01*
X137324019Y-69882306D01*
X137371132Y-69996048D01*
X137439531Y-70098414D01*
X137526586Y-70185469D01*
X137628952Y-70253868D01*
X137742694Y-70300981D01*
X137863443Y-70325000D01*
X137986557Y-70325000D01*
X138107306Y-70300981D01*
X138221048Y-70253868D01*
X138323414Y-70185469D01*
X138362901Y-70145982D01*
X138388215Y-70143489D01*
X138473041Y-70117757D01*
X138551216Y-70075971D01*
X138619737Y-70019737D01*
X138633829Y-70002566D01*
X139434824Y-69201572D01*
X139850000Y-69201572D01*
X139960045Y-69190734D01*
X140065861Y-69158635D01*
X140163382Y-69106509D01*
X140248859Y-69036359D01*
X140319009Y-68950882D01*
X140371135Y-68853361D01*
X140403234Y-68747545D01*
X140414072Y-68637500D01*
X140414072Y-68162500D01*
X140403234Y-68052455D01*
X140371135Y-67946639D01*
X140319009Y-67849118D01*
X140248859Y-67763641D01*
X140163382Y-67693491D01*
X140115816Y-67668067D01*
X140185469Y-67598414D01*
X140253868Y-67496048D01*
X140300981Y-67382306D01*
X140325000Y-67261557D01*
X140325000Y-67138443D01*
X140300981Y-67017694D01*
X140253868Y-66903952D01*
X140185469Y-66801586D01*
X140178217Y-66794334D01*
X140248859Y-66736359D01*
X140319009Y-66650882D01*
X140371135Y-66553361D01*
X140403234Y-66447545D01*
X140414072Y-66337500D01*
X140414072Y-65862500D01*
X140403234Y-65752455D01*
X140371135Y-65646639D01*
X140319009Y-65549118D01*
X140248859Y-65463641D01*
X140163382Y-65393491D01*
X140082014Y-65349999D01*
X150858106Y-65349998D01*
X150345254Y-66828219D01*
%TA.AperFunction,Conductor*%
D16*
G36*
X150345254Y-66828219D02*
G01*
X150303254Y-66782982D01*
X150251379Y-66745466D01*
X150193182Y-66718790D01*
X149208518Y-66379743D01*
X149146235Y-66364934D01*
X149082260Y-66362560D01*
X149019051Y-66372713D01*
X148959037Y-66395002D01*
X148904525Y-66428571D01*
X148857609Y-66472130D01*
X148820092Y-66524005D01*
X148793417Y-66582202D01*
X148677645Y-66918429D01*
X148662836Y-66980711D01*
X148660462Y-67044687D01*
X148670615Y-67107896D01*
X148692904Y-67167910D01*
X148726473Y-67222422D01*
X148770032Y-67269338D01*
X148821907Y-67306854D01*
X148880104Y-67333530D01*
X149864768Y-67672577D01*
X149927051Y-67687386D01*
X149991026Y-67689760D01*
X150049617Y-67680349D01*
X148027508Y-73508788D01*
X147998231Y-73477255D01*
X147946356Y-73439739D01*
X147888159Y-73413063D01*
X146903495Y-73074016D01*
X146841212Y-73059207D01*
X146777237Y-73056833D01*
X146714028Y-73066986D01*
X146654014Y-73089275D01*
X146599502Y-73122844D01*
X146552586Y-73166403D01*
X146515069Y-73218278D01*
X146488394Y-73276475D01*
X146372622Y-73612702D01*
X146357813Y-73674984D01*
X146355439Y-73738960D01*
X146365592Y-73802169D01*
X146387881Y-73862183D01*
X146421450Y-73916695D01*
X146465009Y-73963611D01*
X146516884Y-74001127D01*
X146575081Y-74027803D01*
X147559745Y-74366850D01*
X147622028Y-74381659D01*
X147686003Y-74384033D01*
X147726085Y-74377595D01*
X147700965Y-74450000D01*
X143462118Y-74450000D01*
X144784236Y-73127882D01*
X145377372Y-73127882D01*
X145399466Y-73130058D01*
X145421560Y-73127882D01*
X145421571Y-73127882D01*
X145487681Y-73121371D01*
X145572507Y-73095639D01*
X145650682Y-73053853D01*
X145719203Y-72997619D01*
X145733295Y-72980448D01*
X147477574Y-71236170D01*
X147494738Y-71222084D01*
X147508825Y-71204919D01*
X147508829Y-71204915D01*
X147550972Y-71153564D01*
X147592758Y-71075388D01*
X147594152Y-71070794D01*
X147618490Y-70990562D01*
X147625001Y-70924452D01*
X147625001Y-70924441D01*
X147627177Y-70902347D01*
X147625001Y-70880253D01*
X147625001Y-69344091D01*
X147627177Y-69321999D01*
X147625001Y-69299905D01*
X147625001Y-69299894D01*
X147618490Y-69233784D01*
X147592758Y-69148958D01*
X147575863Y-69117350D01*
X147550972Y-69070782D01*
X147508829Y-69019431D01*
X147508825Y-69019427D01*
X147494738Y-69002262D01*
X147477573Y-68988175D01*
X147059104Y-68569706D01*
X147045012Y-68552535D01*
X147000342Y-68515875D01*
X146976492Y-68496301D01*
X146976146Y-68496116D01*
X147012377Y-68390892D01*
X147027186Y-68328609D01*
X147027515Y-68319744D01*
X147032713Y-68312557D01*
X147059388Y-68254360D01*
X147175160Y-67918133D01*
X147189969Y-67855850D01*
X147190298Y-67846986D01*
X147195498Y-67839796D01*
X147222173Y-67781599D01*
X147337945Y-67445372D01*
X147352754Y-67383089D01*
X147353083Y-67374227D01*
X147358282Y-67367038D01*
X147384957Y-67308841D01*
X147500729Y-66972614D01*
X147515538Y-66910331D01*
X147517912Y-66846356D01*
X147507759Y-66783147D01*
X147485470Y-66723133D01*
X147451901Y-66668621D01*
X147408342Y-66621705D01*
X147356467Y-66584188D01*
X147298270Y-66557513D01*
X146930851Y-66431001D01*
X146797283Y-66297433D01*
X146783192Y-66280263D01*
X146714671Y-66224029D01*
X146636496Y-66182243D01*
X146551670Y-66156511D01*
X146485560Y-66150000D01*
X146485549Y-66150000D01*
X146463455Y-66147824D01*
X146441361Y-66150000D01*
X145850007Y-66150000D01*
X145827913Y-66147824D01*
X145805819Y-66150000D01*
X145733883Y-66150000D01*
X145698414Y-66114531D01*
X145596048Y-66046132D01*
X145482306Y-65999019D01*
X145361557Y-65975000D01*
X145238443Y-65975000D01*
X145117694Y-65999019D01*
X145003952Y-66046132D01*
X144901586Y-66114531D01*
X144814531Y-66201586D01*
X144746132Y-66303952D01*
X144699019Y-66417694D01*
X144675000Y-66538443D01*
X144675000Y-66661557D01*
X144699019Y-66782306D01*
X144746132Y-66896048D01*
X144814531Y-66998414D01*
X144883321Y-67067204D01*
X144823784Y-67099028D01*
X144772433Y-67141171D01*
X144772429Y-67141175D01*
X144755264Y-67155262D01*
X144741177Y-67172427D01*
X144638604Y-67275000D01*
X144588443Y-67275000D01*
X144467694Y-67299019D01*
X144353952Y-67346132D01*
X144251586Y-67414531D01*
X144164531Y-67501586D01*
X144096132Y-67603952D01*
X144049019Y-67717694D01*
X144025000Y-67838443D01*
X144025000Y-67961557D01*
X144049019Y-68082306D01*
X144096132Y-68196048D01*
X144164531Y-68298414D01*
X144251586Y-68385469D01*
X144353952Y-68453868D01*
X144467694Y-68500981D01*
X144588443Y-68525000D01*
X144711557Y-68525000D01*
X144832306Y-68500981D01*
X144946048Y-68453868D01*
X145030479Y-68397452D01*
X145064531Y-68448414D01*
X145151586Y-68535469D01*
X145253952Y-68603868D01*
X145367694Y-68650981D01*
X145422388Y-68661861D01*
X145395775Y-68739152D01*
X145380966Y-68801435D01*
X145380637Y-68810298D01*
X145375437Y-68817488D01*
X145348762Y-68875685D01*
X145232990Y-69211912D01*
X145218181Y-69274195D01*
X145215807Y-69338170D01*
X145225960Y-69401379D01*
X145248249Y-69461393D01*
X145281818Y-69515905D01*
X145325377Y-69562821D01*
X145377252Y-69600338D01*
X145435449Y-69627013D01*
X146055185Y-69840405D01*
X146046133Y-69853952D01*
X145999020Y-69967694D01*
X145975001Y-70088443D01*
X145975001Y-70211557D01*
X145999020Y-70332306D01*
X146003451Y-70343004D01*
X145995997Y-70339587D01*
X145299784Y-70099862D01*
X143752348Y-68552427D01*
X143752344Y-68552422D01*
X143297354Y-68097433D01*
X143283263Y-68080263D01*
X143214742Y-68024029D01*
X143136567Y-67982243D01*
X143051741Y-67956511D01*
X142985631Y-67950000D01*
X142985620Y-67950000D01*
X142963526Y-67947824D01*
X142941432Y-67950000D01*
X142197155Y-67950000D01*
X142196135Y-67946639D01*
X142144009Y-67849118D01*
X142073859Y-67763641D01*
X141988382Y-67693491D01*
X141890861Y-67641365D01*
X141785045Y-67609266D01*
X141675000Y-67598428D01*
X141175000Y-67598428D01*
X141064955Y-67609266D01*
X140959139Y-67641365D01*
X140861618Y-67693491D01*
X140776141Y-67763641D01*
X140705991Y-67849118D01*
X140653865Y-67946639D01*
X140621766Y-68052455D01*
X140610928Y-68162500D01*
X140610928Y-68637500D01*
X140621766Y-68747545D01*
X140653865Y-68853361D01*
X140705991Y-68950882D01*
X140776141Y-69036359D01*
X140861618Y-69106509D01*
X140959139Y-69158635D01*
X141038156Y-69182605D01*
X140985112Y-69235649D01*
X140913978Y-69342110D01*
X140864979Y-69460402D01*
X140840000Y-69585981D01*
X140840000Y-69714019D01*
X140864979Y-69839598D01*
X140913978Y-69957890D01*
X140985112Y-70064351D01*
X141075649Y-70154888D01*
X141182110Y-70226022D01*
X141300402Y-70275021D01*
X141425981Y-70300000D01*
X141554019Y-70300000D01*
X141679598Y-70275021D01*
X141797890Y-70226022D01*
X141904351Y-70154888D01*
X141994888Y-70064351D01*
X142066022Y-69957890D01*
X142115021Y-69839598D01*
X142140000Y-69714019D01*
X142140000Y-69585981D01*
X142115021Y-69460402D01*
X142066022Y-69342110D01*
X141994888Y-69235649D01*
X141908465Y-69149226D01*
X141988382Y-69106509D01*
X142073859Y-69036359D01*
X142144009Y-68950882D01*
X142196135Y-68853361D01*
X142197155Y-68850000D01*
X142777131Y-68850000D01*
X143115948Y-69188818D01*
X143115953Y-69188822D01*
X144574698Y-70647568D01*
X144556667Y-70653037D01*
X144478491Y-70694823D01*
X144427140Y-70736966D01*
X144427136Y-70736970D01*
X144409971Y-70751057D01*
X144395884Y-70768222D01*
X144109097Y-71055010D01*
X142785376Y-71055010D01*
X142777800Y-71047434D01*
X142763708Y-71030263D01*
X142695187Y-70974029D01*
X142617012Y-70932243D01*
X142532186Y-70906511D01*
X142466076Y-70900000D01*
X142466065Y-70900000D01*
X142443971Y-70897824D01*
X142421877Y-70900000D01*
X141972155Y-70900000D01*
X141971135Y-70896639D01*
X141919009Y-70799118D01*
X141848859Y-70713641D01*
X141763382Y-70643491D01*
X141665861Y-70591365D01*
X141560045Y-70559266D01*
X141450000Y-70548428D01*
X140950000Y-70548428D01*
X140839955Y-70559266D01*
X140734139Y-70591365D01*
X140636618Y-70643491D01*
X140551141Y-70713641D01*
X140480991Y-70799118D01*
X140428865Y-70896639D01*
X140396766Y-71002455D01*
X140385928Y-71112500D01*
X140385928Y-71587500D01*
X140396766Y-71697545D01*
X140428865Y-71803361D01*
X140480991Y-71900882D01*
X140551141Y-71986359D01*
X140636618Y-72056509D01*
X140734139Y-72108635D01*
X140839955Y-72140734D01*
X140950000Y-72151572D01*
X141450000Y-72151572D01*
X141560045Y-72140734D01*
X141665861Y-72108635D01*
X141763382Y-72056509D01*
X141848859Y-71986359D01*
X141919009Y-71900882D01*
X141971135Y-71803361D01*
X141972155Y-71800000D01*
X142257576Y-71800000D01*
X142265152Y-71807576D01*
X142279244Y-71824747D01*
X142347765Y-71880981D01*
X142425940Y-71922767D01*
X142510766Y-71948499D01*
X142576876Y-71955010D01*
X142576886Y-71955010D01*
X142598980Y-71957186D01*
X142621074Y-71955010D01*
X144273398Y-71955010D01*
X144295492Y-71957186D01*
X144317586Y-71955010D01*
X144317597Y-71955010D01*
X144383707Y-71948499D01*
X144468533Y-71922767D01*
X144546708Y-71880981D01*
X144615229Y-71824747D01*
X144629320Y-71807577D01*
X144884390Y-71552508D01*
X145504799Y-71766132D01*
X145567082Y-71780941D01*
X145631057Y-71783315D01*
X145662724Y-71778228D01*
X145213071Y-72227882D01*
X144619931Y-72227882D01*
X144597839Y-72225706D01*
X144575747Y-72227882D01*
X144575735Y-72227882D01*
X144509625Y-72234393D01*
X144424799Y-72260125D01*
X144346623Y-72301911D01*
X144295272Y-72344054D01*
X144295268Y-72344058D01*
X144278103Y-72358145D01*
X144264016Y-72375310D01*
X139864847Y-76774480D01*
X134202867Y-71112500D01*
X138560928Y-71112500D01*
X138560928Y-71587500D01*
X138571766Y-71697545D01*
X138603865Y-71803361D01*
X138655991Y-71900882D01*
X138726141Y-71986359D01*
X138776889Y-72028007D01*
X138759499Y-72115428D01*
X138759499Y-72238542D01*
X138783518Y-72359291D01*
X138830631Y-72473033D01*
X138899030Y-72575399D01*
X138986085Y-72662454D01*
X139088451Y-72730853D01*
X139202193Y-72777966D01*
X139322942Y-72801985D01*
X139446056Y-72801985D01*
X139566805Y-72777966D01*
X139680547Y-72730853D01*
X139782913Y-72662454D01*
X139869968Y-72575399D01*
X139938367Y-72473033D01*
X139985480Y-72359291D01*
X140009499Y-72238542D01*
X140009499Y-72115428D01*
X139989443Y-72014604D01*
X140023859Y-71986359D01*
X140094009Y-71900882D01*
X140146135Y-71803361D01*
X140178234Y-71697545D01*
X140189072Y-71587500D01*
X140189072Y-71112500D01*
X140178234Y-71002455D01*
X140146135Y-70896639D01*
X140094009Y-70799118D01*
X140023859Y-70713641D01*
X139938382Y-70643491D01*
X139840861Y-70591365D01*
X139735045Y-70559266D01*
X139625000Y-70548428D01*
X139125000Y-70548428D01*
X139014955Y-70559266D01*
X138909139Y-70591365D01*
X138811618Y-70643491D01*
X138726141Y-70713641D01*
X138655991Y-70799118D01*
X138603865Y-70896639D01*
X138571766Y-71002455D01*
X138560928Y-71112500D01*
X134202867Y-71112500D01*
X132887800Y-69797434D01*
X132873708Y-69780263D01*
X132805187Y-69724029D01*
X132727012Y-69682243D01*
X132642186Y-69656511D01*
X132576076Y-69650000D01*
X132576065Y-69650000D01*
X132553971Y-69647824D01*
X132531877Y-69650000D01*
X131967856Y-69650000D01*
X131864022Y-69348444D01*
X131837347Y-69290247D01*
X131799830Y-69238372D01*
X131752914Y-69194813D01*
X131698402Y-69161244D01*
X131638388Y-69138955D01*
X131575179Y-69128802D01*
X131511204Y-69131176D01*
X131448921Y-69145985D01*
X130728435Y-69394068D01*
X130670238Y-69420743D01*
X130618363Y-69458260D01*
X130574804Y-69505176D01*
X130541235Y-69559688D01*
X130518946Y-69619702D01*
X130517189Y-69630642D01*
X130419964Y-69727867D01*
X130402793Y-69741959D01*
X130388702Y-69759129D01*
X130346559Y-69810480D01*
X130312576Y-69874058D01*
X130304773Y-69888656D01*
X130279041Y-69973482D01*
X130272530Y-70039592D01*
X130272530Y-70039602D01*
X130270354Y-70061696D01*
X130272530Y-70083791D01*
X130272531Y-71727774D01*
X130270354Y-71749878D01*
X130279042Y-71838093D01*
X130304773Y-71922918D01*
X130346559Y-72001094D01*
X130388702Y-72052445D01*
X130388707Y-72052450D01*
X130402794Y-72069615D01*
X130419959Y-72083702D01*
X132020667Y-73684411D01*
X132034754Y-73701576D01*
X132051919Y-73715663D01*
X132051923Y-73715667D01*
X132103274Y-73757810D01*
X132118376Y-73765882D01*
X132181450Y-73799596D01*
X132266276Y-73825328D01*
X132332386Y-73831839D01*
X132332398Y-73831839D01*
X132354490Y-73834015D01*
X132376582Y-73831839D01*
X133879244Y-73831839D01*
X135487549Y-75440145D01*
X135487550Y-75991837D01*
X135461157Y-76055556D01*
X135437138Y-76176305D01*
X135437138Y-76299419D01*
X135461157Y-76420168D01*
X135508270Y-76533910D01*
X135576669Y-76636276D01*
X135663724Y-76723331D01*
X135766090Y-76791730D01*
X135849980Y-76826478D01*
X135849981Y-84797878D01*
X135847804Y-84819982D01*
X135856492Y-84908197D01*
X135882223Y-84993022D01*
X135924009Y-85071198D01*
X135966152Y-85122549D01*
X135966157Y-85122554D01*
X135980244Y-85139719D01*
X135997409Y-85153806D01*
X136346175Y-85502572D01*
X136360262Y-85519738D01*
X136377427Y-85533825D01*
X136377431Y-85533829D01*
X136428782Y-85575972D01*
X136506958Y-85617758D01*
X136591784Y-85643490D01*
X136657894Y-85650001D01*
X136657904Y-85650001D01*
X136679998Y-85652177D01*
X136702093Y-85650001D01*
X137697907Y-85650001D01*
X137720001Y-85652177D01*
X137742095Y-85650001D01*
X137742106Y-85650001D01*
X137808216Y-85643490D01*
X137893042Y-85617758D01*
X137971217Y-85575972D01*
X138039738Y-85519738D01*
X138053829Y-85502568D01*
X138304826Y-85251572D01*
X138400000Y-85251572D01*
X138463711Y-85245297D01*
X138524974Y-85226713D01*
X138550000Y-85213337D01*
X138575026Y-85226713D01*
X138636289Y-85245297D01*
X138700000Y-85251572D01*
X139300000Y-85251572D01*
X139363711Y-85245297D01*
X139424974Y-85226713D01*
X139450000Y-85213337D01*
X139475026Y-85226713D01*
X139536289Y-85245297D01*
X139600000Y-85251572D01*
X140200000Y-85251572D01*
X140263711Y-85245297D01*
X140324974Y-85226713D01*
X140381434Y-85196535D01*
X140430921Y-85155921D01*
X140471535Y-85106434D01*
X140501713Y-85049974D01*
X140520297Y-84988711D01*
X140526572Y-84925000D01*
X140526572Y-84546109D01*
X140544414Y-84487289D01*
X140553103Y-84399074D01*
X140548179Y-84349082D01*
X140550927Y-84321178D01*
X140550927Y-84321167D01*
X140553103Y-84299073D01*
X140550927Y-84276979D01*
X140550927Y-77669050D01*
X140553103Y-77646956D01*
X140550927Y-77624862D01*
X140550927Y-77361190D01*
X142550001Y-75362117D01*
X142550000Y-86150000D01*
X134550000Y-86150000D01*
X134550000Y-74817190D01*
X134551693Y-74800001D01*
X134548565Y-74768238D01*
X134544935Y-74731389D01*
X134524922Y-74665414D01*
X134492422Y-74604611D01*
X134492421Y-74604610D01*
X134448685Y-74551316D01*
X134395390Y-74507579D01*
X134334587Y-74475079D01*
X134268612Y-74455066D01*
X134217189Y-74450001D01*
X134217188Y-74450001D01*
X134200000Y-74448308D01*
X134182811Y-74450001D01*
X129399036Y-74450001D01*
X129375995Y-74383588D01*
X129427973Y-74381659D01*
X129490255Y-74366850D01*
X130474919Y-74027803D01*
X130533116Y-74001128D01*
X130584991Y-73963611D01*
X130628550Y-73916695D01*
X130662119Y-73862183D01*
X130684408Y-73802169D01*
X130694561Y-73738960D01*
X130692187Y-73674985D01*
X130677378Y-73612702D01*
X130561606Y-73276475D01*
X130534930Y-73218278D01*
X130497414Y-73166403D01*
X130450498Y-73122844D01*
X130395986Y-73089275D01*
X130335972Y-73066986D01*
X130272763Y-73056833D01*
X130208787Y-73059207D01*
X130146505Y-73074016D01*
X129161841Y-73413063D01*
X129103644Y-73439738D01*
X129059591Y-73471598D01*
X127053332Y-67688854D01*
X127058974Y-67689760D01*
X127122950Y-67687386D01*
X127185232Y-67672577D01*
X128169896Y-67333530D01*
X128228093Y-67306855D01*
X128279968Y-67269338D01*
X128323527Y-67222422D01*
X128357096Y-67167910D01*
X128379385Y-67107896D01*
X128389538Y-67044687D01*
X128387164Y-66980712D01*
X128372355Y-66918429D01*
X128256583Y-66582202D01*
X128229907Y-66524005D01*
X128192391Y-66472130D01*
X128145475Y-66428571D01*
X128090963Y-66395002D01*
X128030949Y-66372713D01*
X127967740Y-66362560D01*
X127903764Y-66364934D01*
X127841482Y-66379743D01*
X126856818Y-66718790D01*
X126798621Y-66745465D01*
X126746746Y-66782982D01*
X126741144Y-66789016D01*
X126241893Y-65350000D01*
X137092986Y-65349999D01*
X137011618Y-65393491D01*
X136926141Y-65463641D01*
X136855991Y-65549118D01*
X136803865Y-65646639D01*
X136771766Y-65752455D01*
X136760928Y-65862500D01*
X136760928Y-66337500D01*
X136771766Y-66447545D01*
X136803865Y-66553361D01*
X136855991Y-66650882D01*
X136926141Y-66736359D01*
X136946644Y-66753186D01*
X136946132Y-66753952D01*
X136899019Y-66867694D01*
X136875000Y-66988443D01*
X136875000Y-67111557D01*
X136882647Y-67150000D01*
X134822155Y-67150000D01*
X134821135Y-67146639D01*
X134769009Y-67049118D01*
X134698859Y-66963641D01*
X134613382Y-66893491D01*
X134515861Y-66841365D01*
X134410045Y-66809266D01*
X134300000Y-66798428D01*
X133800000Y-66798428D01*
X133689955Y-66809266D01*
X133584139Y-66841365D01*
X133486618Y-66893491D01*
X133401141Y-66963641D01*
X133330991Y-67049118D01*
X133278865Y-67146639D01*
X133246766Y-67252455D01*
X133235928Y-67362500D01*
X133235928Y-67837500D01*
X133246766Y-67947545D01*
X133278865Y-68053361D01*
X133303794Y-68100000D01*
X132971206Y-68100000D01*
X132996135Y-68053361D01*
X133028234Y-67947545D01*
X133039072Y-67837500D01*
X133039072Y-67362500D01*
X133028234Y-67252455D01*
X132996135Y-67146639D01*
X132944009Y-67049118D01*
X132873859Y-66963641D01*
X132788382Y-66893491D01*
X132690861Y-66841365D01*
X132585045Y-66809266D01*
X132475000Y-66798428D01*
X131975000Y-66798428D01*
X131864955Y-66809266D01*
X131759139Y-66841365D01*
X131661618Y-66893491D01*
X131576141Y-66963641D01*
X131505991Y-67049118D01*
X131453865Y-67146639D01*
X131452845Y-67150000D01*
X131095302Y-67150000D01*
X131073210Y-67147824D01*
X131051118Y-67150000D01*
X131051106Y-67150000D01*
X130984996Y-67156511D01*
X130900170Y-67182243D01*
X130821995Y-67224029D01*
X130774585Y-67262937D01*
X130077299Y-67503032D01*
X130019102Y-67529707D01*
X129967227Y-67567224D01*
X129923668Y-67614140D01*
X129890099Y-67668652D01*
X129867810Y-67728666D01*
X129857657Y-67791875D01*
X129860031Y-67855850D01*
X129874840Y-67918133D01*
X129990612Y-68254360D01*
X130017287Y-68312557D01*
X130022485Y-68319744D01*
X130022814Y-68328609D01*
X130037623Y-68390892D01*
X130153395Y-68727119D01*
X130180070Y-68785316D01*
X130217587Y-68837191D01*
X130264503Y-68880750D01*
X130319015Y-68914319D01*
X130379029Y-68936608D01*
X130442238Y-68946761D01*
X130506213Y-68944387D01*
X130568496Y-68929578D01*
X131188909Y-68715953D01*
X131325526Y-68852571D01*
X131339614Y-68869737D01*
X131356779Y-68883824D01*
X131356783Y-68883828D01*
X131408134Y-68925971D01*
X131472707Y-68960486D01*
X131486310Y-68967757D01*
X131571136Y-68993489D01*
X131637246Y-69000000D01*
X131637257Y-69000000D01*
X131659351Y-69002176D01*
X131681445Y-69000000D01*
X134452845Y-69000000D01*
X134453865Y-69003361D01*
X134505991Y-69100882D01*
X134576141Y-69186359D01*
X134661618Y-69256509D01*
X134759139Y-69308635D01*
X134864955Y-69340734D01*
X134975000Y-69351572D01*
X135130059Y-69351572D01*
X135084979Y-69460402D01*
X135060000Y-69585981D01*
X135060000Y-69714019D01*
X135084979Y-69839598D01*
X135133978Y-69957890D01*
X135205112Y-70064351D01*
X135295649Y-70154888D01*
X135402110Y-70226022D01*
X135520402Y-70275021D01*
X135645981Y-70300000D01*
X135774019Y-70300000D01*
X135899598Y-70275021D01*
X136017890Y-70226022D01*
X136124351Y-70154888D01*
X136214888Y-70064351D01*
X136286022Y-69957890D01*
X136335021Y-69839598D01*
X136360000Y-69714019D01*
X136360000Y-69585981D01*
X136335021Y-69460402D01*
X136286022Y-69342110D01*
X136214888Y-69235649D01*
X136124351Y-69145112D01*
X136017890Y-69073978D01*
X135969175Y-69053799D01*
X135996135Y-69003361D01*
X136028234Y-68897545D01*
X136039072Y-68787500D01*
X136039072Y-68312500D01*
X136028234Y-68202455D01*
X135996135Y-68096639D01*
X135971206Y-68050000D01*
X136303794Y-68050000D01*
X136278865Y-68096639D01*
X136246766Y-68202455D01*
X136235928Y-68312500D01*
X136235928Y-68787500D01*
X136246766Y-68897545D01*
X136278865Y-69003361D01*
X136330991Y-69100882D01*
X136401141Y-69186359D01*
X136486618Y-69256509D01*
X136584139Y-69308635D01*
X136689955Y-69340734D01*
X136800000Y-69351572D01*
X136840177Y-69351572D01*
X137312375Y-69823771D01*
X137324019Y-69882306D01*
X137371132Y-69996048D01*
X137439531Y-70098414D01*
X137526586Y-70185469D01*
X137628952Y-70253868D01*
X137742694Y-70300981D01*
X137863443Y-70325000D01*
X137986557Y-70325000D01*
X138107306Y-70300981D01*
X138221048Y-70253868D01*
X138323414Y-70185469D01*
X138362901Y-70145982D01*
X138388215Y-70143489D01*
X138473041Y-70117757D01*
X138551216Y-70075971D01*
X138619737Y-70019737D01*
X138633829Y-70002566D01*
X139434824Y-69201572D01*
X139850000Y-69201572D01*
X139960045Y-69190734D01*
X140065861Y-69158635D01*
X140163382Y-69106509D01*
X140248859Y-69036359D01*
X140319009Y-68950882D01*
X140371135Y-68853361D01*
X140403234Y-68747545D01*
X140414072Y-68637500D01*
X140414072Y-68162500D01*
X140403234Y-68052455D01*
X140371135Y-67946639D01*
X140319009Y-67849118D01*
X140248859Y-67763641D01*
X140163382Y-67693491D01*
X140115816Y-67668067D01*
X140185469Y-67598414D01*
X140253868Y-67496048D01*
X140300981Y-67382306D01*
X140325000Y-67261557D01*
X140325000Y-67138443D01*
X140300981Y-67017694D01*
X140253868Y-66903952D01*
X140185469Y-66801586D01*
X140178217Y-66794334D01*
X140248859Y-66736359D01*
X140319009Y-66650882D01*
X140371135Y-66553361D01*
X140403234Y-66447545D01*
X140414072Y-66337500D01*
X140414072Y-65862500D01*
X140403234Y-65752455D01*
X140371135Y-65646639D01*
X140319009Y-65549118D01*
X140248859Y-65463641D01*
X140163382Y-65393491D01*
X140082014Y-65349999D01*
X150858106Y-65349998D01*
X150345254Y-66828219D01*
G37*
%TD.AperFunction*%
%TD*%
M02*
