%TF.GenerationSoftware,KiCad,Pcbnew,(5.1.10)-1*%
%TF.CreationDate,2021-08-17T19:49:41-04:00*%
%TF.ProjectId,040 055,30343020-3035-4352-9e6b-696361645f70,rev?*%
%TF.SameCoordinates,Original*%
%TF.FileFunction,Copper,L2,Bot*%
%TF.FilePolarity,Positive*%
%FSLAX46Y46*%
G04 Gerber Fmt 4.6, Leading zero omitted, Abs format (unit mm)*
G04 Created by KiCad (PCBNEW (5.1.10)-1) date 2021-08-17 19:49:41*
%MOMM*%
%LPD*%
G01*
G04 APERTURE LIST*
%TA.AperFunction,SMDPad,CuDef*%
%ADD10R,0.600000X1.450000*%
%TD*%
%TA.AperFunction,SMDPad,CuDef*%
%ADD11R,0.300000X1.450000*%
%TD*%
%TA.AperFunction,ComponentPad*%
%ADD12O,1.000000X2.100000*%
%TD*%
%TA.AperFunction,ComponentPad*%
%ADD13O,1.000000X1.600000*%
%TD*%
%TA.AperFunction,ViaPad*%
%ADD14C,0.600000*%
%TD*%
%TA.AperFunction,Conductor*%
%ADD15C,0.250000*%
%TD*%
%TA.AperFunction,Conductor*%
%ADD16C,0.100000*%
%TD*%
G04 APERTURE END LIST*
D10*
%TO.P,J1,B1*%
%TO.N,GND*%
X141850000Y-71095000D03*
%TO.P,J1,A9*%
%TO.N,/vcc*%
X141050000Y-71095000D03*
%TO.P,J1,B9*%
X136150000Y-71095000D03*
%TO.P,J1,B12*%
%TO.N,GND*%
X135350000Y-71095000D03*
%TO.P,J1,A1*%
X135350000Y-71095000D03*
%TO.P,J1,A4*%
%TO.N,/vcc*%
X136150000Y-71095000D03*
%TO.P,J1,B4*%
X141050000Y-71095000D03*
%TO.P,J1,A12*%
%TO.N,GND*%
X141850000Y-71095000D03*
D11*
%TO.P,J1,B8*%
%TO.N,Net-(J1-PadB8)*%
X136850000Y-71095000D03*
%TO.P,J1,A5*%
%TO.N,Net-(J1-PadA5)*%
X137350000Y-71095000D03*
%TO.P,J1,B7*%
%TO.N,/d-*%
X137850000Y-71095000D03*
%TO.P,J1,A7*%
X138850000Y-71095000D03*
%TO.P,J1,B6*%
%TO.N,/d+*%
X139350000Y-71095000D03*
%TO.P,J1,A8*%
%TO.N,Net-(J1-PadA8)*%
X139850000Y-71095000D03*
%TO.P,J1,B5*%
%TO.N,Net-(J1-PadB5)*%
X140350000Y-71095000D03*
%TO.P,J1,A6*%
%TO.N,/d+*%
X138350000Y-71095000D03*
D12*
%TO.P,J1,S1*%
%TO.N,GND*%
X142920000Y-70180000D03*
X134280000Y-70180000D03*
D13*
X134280000Y-66000000D03*
X142920000Y-66000000D03*
%TD*%
D14*
%TO.N,/vcc*%
X145300000Y-66600000D03*
X133243162Y-72806838D03*
%TO.N,Net-(J1-PadA5)*%
X137500000Y-67050000D03*
%TO.N,/d-*%
X137925000Y-69700000D03*
%TO.N,/d+*%
X139384499Y-72176985D03*
X138000000Y-68287700D03*
%TO.N,Net-(J1-PadB5)*%
X139700000Y-67200000D03*
%TO.N,Net-(D1-Pad1)*%
X144650000Y-67900000D03*
X136512550Y-75437450D03*
%TO.N,Net-(D1-Pad2)*%
X146600001Y-70150000D03*
X136062138Y-76237862D03*
%TO.N,Net-(D1-Pad3)*%
X145550000Y-68050000D03*
X137495399Y-75854601D03*
%TD*%
D15*
%TO.N,/vcc*%
X136150000Y-72070000D02*
X135468015Y-72751985D01*
X136150000Y-71095000D02*
X136150000Y-72070000D01*
X140063017Y-72751985D02*
X135468015Y-72751985D01*
X141050000Y-71765002D02*
X140063017Y-72751985D01*
X141050000Y-71095000D02*
X141050000Y-71765002D01*
X144824990Y-67075010D02*
X145300000Y-66600000D01*
X143176988Y-67075010D02*
X144824990Y-67075010D01*
X140889999Y-69361999D02*
X143176988Y-67075010D01*
X140889999Y-70934999D02*
X140889999Y-69361999D01*
X141050000Y-71095000D02*
X140889999Y-70934999D01*
X135413162Y-72806838D02*
X135468015Y-72751985D01*
X133243162Y-72806838D02*
X135413162Y-72806838D01*
%TO.N,Net-(J1-PadA5)*%
X137350000Y-71095000D02*
X137350000Y-67250000D01*
X137350000Y-67200000D02*
X137500000Y-67050000D01*
X137350000Y-67250000D02*
X137350000Y-67200000D01*
%TO.N,/d-*%
X138850000Y-71965002D02*
X138850000Y-71095000D01*
X138720001Y-72095001D02*
X138850000Y-71965002D01*
X137875001Y-72095001D02*
X138720001Y-72095001D01*
X137850000Y-72070000D02*
X137875001Y-72095001D01*
X137850000Y-71095000D02*
X137850000Y-72070000D01*
X137850000Y-69775000D02*
X137925000Y-69700000D01*
X137850000Y-71095000D02*
X137850000Y-69775000D01*
%TO.N,/d+*%
X139350000Y-70224998D02*
X139350000Y-71095000D01*
X139220001Y-70094999D02*
X139350000Y-70224998D01*
X138350000Y-70224998D02*
X138479999Y-70094999D01*
X138350000Y-71095000D02*
X138350000Y-70224998D01*
X138479999Y-70094999D02*
X138805001Y-70094999D01*
X138805001Y-70094999D02*
X139220001Y-70094999D01*
X139350000Y-71095000D02*
X139350000Y-72250000D01*
X138805001Y-70094999D02*
X138805001Y-69092701D01*
X138805001Y-69092701D02*
X138000000Y-68287700D01*
%TO.N,Net-(J1-PadB5)*%
X140350000Y-67850000D02*
X139700000Y-67200000D01*
X140350000Y-71095000D02*
X140350000Y-67850000D01*
%TO.N,Net-(D1-Pad1)*%
X143900000Y-70846029D02*
X139648649Y-75097380D01*
X143900000Y-68650000D02*
X143900000Y-70846029D01*
X144650000Y-67900000D02*
X143900000Y-68650000D01*
X136852620Y-75097380D02*
X136512550Y-75437450D01*
X139648649Y-75097380D02*
X136852620Y-75097380D01*
%TO.N,Net-(D1-Pad2)*%
X136253878Y-76429602D02*
X136062138Y-76237862D01*
X143275733Y-73999989D02*
X140846120Y-76429602D01*
X140846120Y-76429602D02*
X136253878Y-76429602D01*
X143275733Y-73474268D02*
X143275733Y-73999989D01*
X146600001Y-70150000D02*
X143275733Y-73474268D01*
%TO.N,Net-(D1-Pad3)*%
X145560876Y-69750852D02*
X145560876Y-68060876D01*
X145560876Y-68060876D02*
X145550000Y-68050000D01*
X139457127Y-75854601D02*
X145560876Y-69750852D01*
X137495399Y-75854601D02*
X139457127Y-75854601D01*
%TD*%
%TO.N,GND*%
X147700965Y-74450000D02*
X143462118Y-74450000D01*
X143578305Y-74333813D01*
X143595470Y-74319726D01*
X143609557Y-74302561D01*
X143609561Y-74302557D01*
X143651704Y-74251206D01*
X143693490Y-74173030D01*
X143719222Y-74088204D01*
X143725733Y-74022094D01*
X143725733Y-74022083D01*
X143727909Y-73999989D01*
X143725733Y-73977895D01*
X143725733Y-73660663D01*
X146611397Y-70775000D01*
X146661558Y-70775000D01*
X146782307Y-70750981D01*
X146896049Y-70703868D01*
X146998415Y-70635469D01*
X147085470Y-70548414D01*
X147153869Y-70446048D01*
X147200982Y-70332306D01*
X147225001Y-70211557D01*
X147225001Y-70088443D01*
X147200982Y-69967694D01*
X147153869Y-69853952D01*
X147085470Y-69751586D01*
X146998415Y-69664531D01*
X146896049Y-69596132D01*
X146782307Y-69549019D01*
X146661558Y-69525000D01*
X146538444Y-69525000D01*
X146417695Y-69549019D01*
X146303953Y-69596132D01*
X146201587Y-69664531D01*
X146114532Y-69751586D01*
X146046133Y-69853952D01*
X145999020Y-69967694D01*
X145975001Y-70088443D01*
X145975001Y-70138604D01*
X142973167Y-73140439D01*
X142955996Y-73154531D01*
X142941905Y-73171701D01*
X142899762Y-73223052D01*
X142881703Y-73256838D01*
X142857976Y-73301228D01*
X142832244Y-73386054D01*
X142825733Y-73452164D01*
X142825733Y-73452174D01*
X142823557Y-73474268D01*
X142825733Y-73496363D01*
X142825734Y-73813592D01*
X140659725Y-75979602D01*
X139968521Y-75979602D01*
X145863449Y-70084675D01*
X145880613Y-70070589D01*
X145894700Y-70053424D01*
X145894704Y-70053420D01*
X145936847Y-70002069D01*
X145978633Y-69923893D01*
X145994059Y-69873040D01*
X146004365Y-69839067D01*
X146010876Y-69772957D01*
X146010876Y-69772946D01*
X146013052Y-69750852D01*
X146010876Y-69728758D01*
X146010876Y-68473007D01*
X146035469Y-68448414D01*
X146103868Y-68346048D01*
X146150981Y-68232306D01*
X146175000Y-68111557D01*
X146175000Y-67988443D01*
X146150981Y-67867694D01*
X146103868Y-67753952D01*
X146035469Y-67651586D01*
X145948414Y-67564531D01*
X145846048Y-67496132D01*
X145732306Y-67449019D01*
X145611557Y-67425000D01*
X145488443Y-67425000D01*
X145367694Y-67449019D01*
X145253952Y-67496132D01*
X145169521Y-67552548D01*
X145135469Y-67501586D01*
X145080961Y-67447078D01*
X145144727Y-67394747D01*
X145158818Y-67377577D01*
X145311395Y-67225000D01*
X145361557Y-67225000D01*
X145482306Y-67200981D01*
X145596048Y-67153868D01*
X145698414Y-67085469D01*
X145785469Y-66998414D01*
X145853868Y-66896048D01*
X145900981Y-66782306D01*
X145925000Y-66661557D01*
X145925000Y-66538443D01*
X145900981Y-66417694D01*
X145853868Y-66303952D01*
X145785469Y-66201586D01*
X145698414Y-66114531D01*
X145596048Y-66046132D01*
X145482306Y-65999019D01*
X145361557Y-65975000D01*
X145238443Y-65975000D01*
X145117694Y-65999019D01*
X145003952Y-66046132D01*
X144901586Y-66114531D01*
X144814531Y-66201586D01*
X144746132Y-66303952D01*
X144699019Y-66417694D01*
X144675000Y-66538443D01*
X144675000Y-66588605D01*
X144638595Y-66625010D01*
X143199082Y-66625010D01*
X143176988Y-66622834D01*
X143154893Y-66625010D01*
X143154883Y-66625010D01*
X143088773Y-66631521D01*
X143003947Y-66657253D01*
X142925771Y-66699039D01*
X142874420Y-66741182D01*
X142874416Y-66741186D01*
X142857251Y-66755273D01*
X142843164Y-66772438D01*
X140800000Y-68815603D01*
X140800000Y-67872094D01*
X140802176Y-67850000D01*
X140800000Y-67827906D01*
X140800000Y-67827895D01*
X140793489Y-67761785D01*
X140767757Y-67676959D01*
X140749669Y-67643119D01*
X140725971Y-67598783D01*
X140683828Y-67547432D01*
X140683824Y-67547428D01*
X140669737Y-67530263D01*
X140652572Y-67516176D01*
X140325000Y-67188605D01*
X140325000Y-67138443D01*
X140300981Y-67017694D01*
X140253868Y-66903952D01*
X140185469Y-66801586D01*
X140098414Y-66714531D01*
X139996048Y-66646132D01*
X139882306Y-66599019D01*
X139761557Y-66575000D01*
X139638443Y-66575000D01*
X139517694Y-66599019D01*
X139403952Y-66646132D01*
X139301586Y-66714531D01*
X139214531Y-66801586D01*
X139146132Y-66903952D01*
X139099019Y-67017694D01*
X139075000Y-67138443D01*
X139075000Y-67261557D01*
X139099019Y-67382306D01*
X139146132Y-67496048D01*
X139214531Y-67598414D01*
X139301586Y-67685469D01*
X139403952Y-67753868D01*
X139517694Y-67800981D01*
X139638443Y-67825000D01*
X139688605Y-67825000D01*
X139900001Y-68036397D01*
X139900000Y-70043428D01*
X139763198Y-70043428D01*
X139725971Y-69973782D01*
X139669737Y-69905261D01*
X139652567Y-69891170D01*
X139553830Y-69792433D01*
X139539738Y-69775262D01*
X139471217Y-69719028D01*
X139393042Y-69677242D01*
X139308216Y-69651510D01*
X139255001Y-69646269D01*
X139255001Y-69114792D01*
X139257177Y-69092700D01*
X139255001Y-69070608D01*
X139255001Y-69070596D01*
X139248490Y-69004486D01*
X139222758Y-68919660D01*
X139206199Y-68888681D01*
X139180972Y-68841484D01*
X139138829Y-68790133D01*
X139138825Y-68790129D01*
X139124738Y-68772964D01*
X139107573Y-68758877D01*
X138625000Y-68276305D01*
X138625000Y-68226143D01*
X138600981Y-68105394D01*
X138553868Y-67991652D01*
X138485469Y-67889286D01*
X138398414Y-67802231D01*
X138296048Y-67733832D01*
X138182306Y-67686719D01*
X138061557Y-67662700D01*
X137938443Y-67662700D01*
X137817694Y-67686719D01*
X137800000Y-67694048D01*
X137800000Y-67601227D01*
X137898414Y-67535469D01*
X137985469Y-67448414D01*
X138053868Y-67346048D01*
X138100981Y-67232306D01*
X138125000Y-67111557D01*
X138125000Y-66988443D01*
X138100981Y-66867694D01*
X138053868Y-66753952D01*
X137985469Y-66651586D01*
X137898414Y-66564531D01*
X137796048Y-66496132D01*
X137682306Y-66449019D01*
X137561557Y-66425000D01*
X137438443Y-66425000D01*
X137317694Y-66449019D01*
X137203952Y-66496132D01*
X137101586Y-66564531D01*
X137014531Y-66651586D01*
X136946132Y-66753952D01*
X136899019Y-66867694D01*
X136875000Y-66988443D01*
X136875000Y-67111557D01*
X136899019Y-67232306D01*
X136900000Y-67234674D01*
X136900000Y-67272104D01*
X136900001Y-67272114D01*
X136900000Y-70043428D01*
X136700000Y-70043428D01*
X136636289Y-70049703D01*
X136575026Y-70068287D01*
X136575000Y-70068301D01*
X136574974Y-70068287D01*
X136513711Y-70049703D01*
X136450000Y-70043428D01*
X136228868Y-70043428D01*
X136286022Y-69957890D01*
X136335021Y-69839598D01*
X136360000Y-69714019D01*
X136360000Y-69585981D01*
X136335021Y-69460402D01*
X136286022Y-69342110D01*
X136214888Y-69235649D01*
X136124351Y-69145112D01*
X136017890Y-69073978D01*
X135899598Y-69024979D01*
X135774019Y-69000000D01*
X135645981Y-69000000D01*
X135520402Y-69024979D01*
X135402110Y-69073978D01*
X135295649Y-69145112D01*
X135205112Y-69235649D01*
X135133978Y-69342110D01*
X135084979Y-69460402D01*
X135060000Y-69585981D01*
X135060000Y-69714019D01*
X135084979Y-69839598D01*
X135133978Y-69957890D01*
X135205112Y-70064351D01*
X135295649Y-70154888D01*
X135402110Y-70226022D01*
X135520402Y-70275021D01*
X135538119Y-70278545D01*
X135529703Y-70306289D01*
X135523428Y-70370000D01*
X135523428Y-71820000D01*
X135529703Y-71883711D01*
X135548287Y-71944974D01*
X135578465Y-72001434D01*
X135580135Y-72003469D01*
X135226767Y-72356838D01*
X133677045Y-72356838D01*
X133641576Y-72321369D01*
X133539210Y-72252970D01*
X133425468Y-72205857D01*
X133304719Y-72181838D01*
X133181605Y-72181838D01*
X133060856Y-72205857D01*
X132947114Y-72252970D01*
X132844748Y-72321369D01*
X132757693Y-72408424D01*
X132689294Y-72510790D01*
X132642181Y-72624532D01*
X132618162Y-72745281D01*
X132618162Y-72868395D01*
X132642181Y-72989144D01*
X132689294Y-73102886D01*
X132757693Y-73205252D01*
X132844748Y-73292307D01*
X132947114Y-73360706D01*
X133060856Y-73407819D01*
X133181605Y-73431838D01*
X133304719Y-73431838D01*
X133425468Y-73407819D01*
X133539210Y-73360706D01*
X133641576Y-73292307D01*
X133677045Y-73256838D01*
X135391068Y-73256838D01*
X135413162Y-73259014D01*
X135435256Y-73256838D01*
X135435267Y-73256838D01*
X135501377Y-73250327D01*
X135586203Y-73224595D01*
X135628503Y-73201985D01*
X140040923Y-73201985D01*
X140063017Y-73204161D01*
X140085111Y-73201985D01*
X140085122Y-73201985D01*
X140151232Y-73195474D01*
X140236058Y-73169742D01*
X140314233Y-73127956D01*
X140382754Y-73071722D01*
X140396846Y-73054551D01*
X141304826Y-72146572D01*
X141350000Y-72146572D01*
X141413711Y-72140297D01*
X141474974Y-72121713D01*
X141531434Y-72091535D01*
X141580921Y-72050921D01*
X141621535Y-72001434D01*
X141651713Y-71944974D01*
X141670297Y-71883711D01*
X141676572Y-71820000D01*
X141676572Y-70370000D01*
X141670297Y-70306289D01*
X141661881Y-70278545D01*
X141679598Y-70275021D01*
X141797890Y-70226022D01*
X141904351Y-70154888D01*
X141994888Y-70064351D01*
X142066022Y-69957890D01*
X142115021Y-69839598D01*
X142140000Y-69714019D01*
X142140000Y-69585981D01*
X142115021Y-69460402D01*
X142066022Y-69342110D01*
X141994888Y-69235649D01*
X141904351Y-69145112D01*
X141807796Y-69080597D01*
X143363384Y-67525010D01*
X144148880Y-67525010D01*
X144096132Y-67603952D01*
X144049019Y-67717694D01*
X144025000Y-67838443D01*
X144025000Y-67888604D01*
X143597433Y-68316172D01*
X143580263Y-68330263D01*
X143566172Y-68347433D01*
X143524029Y-68398784D01*
X143503684Y-68436847D01*
X143482243Y-68476960D01*
X143456511Y-68561786D01*
X143450000Y-68627896D01*
X143450000Y-68627906D01*
X143447824Y-68650000D01*
X143450000Y-68672095D01*
X143450001Y-70659632D01*
X139462254Y-74647380D01*
X136874714Y-74647380D01*
X136852620Y-74645204D01*
X136830526Y-74647380D01*
X136830515Y-74647380D01*
X136764405Y-74653891D01*
X136679579Y-74679623D01*
X136601403Y-74721409D01*
X136550052Y-74763552D01*
X136550048Y-74763556D01*
X136532883Y-74777643D01*
X136518796Y-74794809D01*
X136501154Y-74812450D01*
X136450993Y-74812450D01*
X136330244Y-74836469D01*
X136216502Y-74883582D01*
X136114136Y-74951981D01*
X136027081Y-75039036D01*
X135958682Y-75141402D01*
X135911569Y-75255144D01*
X135887550Y-75375893D01*
X135887550Y-75499007D01*
X135911569Y-75619756D01*
X135915707Y-75629745D01*
X135879832Y-75636881D01*
X135766090Y-75683994D01*
X135663724Y-75752393D01*
X135576669Y-75839448D01*
X135508270Y-75941814D01*
X135461157Y-76055556D01*
X135437138Y-76176305D01*
X135437138Y-76299419D01*
X135461157Y-76420168D01*
X135508270Y-76533910D01*
X135576669Y-76636276D01*
X135663724Y-76723331D01*
X135766090Y-76791730D01*
X135879832Y-76838843D01*
X136000581Y-76862862D01*
X136123695Y-76862862D01*
X136128676Y-76861871D01*
X136165663Y-76873091D01*
X136231773Y-76879602D01*
X136231785Y-76879602D01*
X136253877Y-76881778D01*
X136275969Y-76879602D01*
X140824026Y-76879602D01*
X140846120Y-76881778D01*
X140868214Y-76879602D01*
X140868225Y-76879602D01*
X140934335Y-76873091D01*
X141019161Y-76847359D01*
X141097336Y-76805573D01*
X141165857Y-76749339D01*
X141179949Y-76732168D01*
X142550001Y-75362117D01*
X142550000Y-86150000D01*
X134550000Y-86150000D01*
X134550000Y-79346113D01*
X137037560Y-79346113D01*
X137037560Y-79653887D01*
X137097604Y-79955747D01*
X137215384Y-80240093D01*
X137386374Y-80495997D01*
X137604003Y-80713626D01*
X137859907Y-80884616D01*
X138144253Y-81002396D01*
X138446113Y-81062440D01*
X138753887Y-81062440D01*
X139055747Y-81002396D01*
X139340093Y-80884616D01*
X139595997Y-80713626D01*
X139813626Y-80495997D01*
X139984616Y-80240093D01*
X140102396Y-79955747D01*
X140162440Y-79653887D01*
X140162440Y-79346113D01*
X140102396Y-79044253D01*
X139984616Y-78759907D01*
X139813626Y-78504003D01*
X139595997Y-78286374D01*
X139340093Y-78115384D01*
X139055747Y-77997604D01*
X138753887Y-77937560D01*
X138446113Y-77937560D01*
X138144253Y-77997604D01*
X137859907Y-78115384D01*
X137604003Y-78286374D01*
X137386374Y-78504003D01*
X137215384Y-78759907D01*
X137097604Y-79044253D01*
X137037560Y-79346113D01*
X134550000Y-79346113D01*
X134550000Y-74817190D01*
X134551693Y-74800001D01*
X134544935Y-74731389D01*
X134524922Y-74665414D01*
X134492422Y-74604611D01*
X134448685Y-74551316D01*
X134395390Y-74507579D01*
X134334587Y-74475079D01*
X134268612Y-74455066D01*
X134217189Y-74450001D01*
X134217188Y-74450001D01*
X134200000Y-74448308D01*
X134182811Y-74450001D01*
X129399036Y-74450001D01*
X126241893Y-65350000D01*
X150858106Y-65349998D01*
X147700965Y-74450000D01*
%TA.AperFunction,Conductor*%
D16*
G36*
X147700965Y-74450000D02*
G01*
X143462118Y-74450000D01*
X143578305Y-74333813D01*
X143595470Y-74319726D01*
X143609557Y-74302561D01*
X143609561Y-74302557D01*
X143651704Y-74251206D01*
X143693490Y-74173030D01*
X143719222Y-74088204D01*
X143725733Y-74022094D01*
X143725733Y-74022083D01*
X143727909Y-73999989D01*
X143725733Y-73977895D01*
X143725733Y-73660663D01*
X146611397Y-70775000D01*
X146661558Y-70775000D01*
X146782307Y-70750981D01*
X146896049Y-70703868D01*
X146998415Y-70635469D01*
X147085470Y-70548414D01*
X147153869Y-70446048D01*
X147200982Y-70332306D01*
X147225001Y-70211557D01*
X147225001Y-70088443D01*
X147200982Y-69967694D01*
X147153869Y-69853952D01*
X147085470Y-69751586D01*
X146998415Y-69664531D01*
X146896049Y-69596132D01*
X146782307Y-69549019D01*
X146661558Y-69525000D01*
X146538444Y-69525000D01*
X146417695Y-69549019D01*
X146303953Y-69596132D01*
X146201587Y-69664531D01*
X146114532Y-69751586D01*
X146046133Y-69853952D01*
X145999020Y-69967694D01*
X145975001Y-70088443D01*
X145975001Y-70138604D01*
X142973167Y-73140439D01*
X142955996Y-73154531D01*
X142941905Y-73171701D01*
X142899762Y-73223052D01*
X142881703Y-73256838D01*
X142857976Y-73301228D01*
X142832244Y-73386054D01*
X142825733Y-73452164D01*
X142825733Y-73452174D01*
X142823557Y-73474268D01*
X142825733Y-73496363D01*
X142825734Y-73813592D01*
X140659725Y-75979602D01*
X139968521Y-75979602D01*
X145863449Y-70084675D01*
X145880613Y-70070589D01*
X145894700Y-70053424D01*
X145894704Y-70053420D01*
X145936847Y-70002069D01*
X145978633Y-69923893D01*
X145994059Y-69873040D01*
X146004365Y-69839067D01*
X146010876Y-69772957D01*
X146010876Y-69772946D01*
X146013052Y-69750852D01*
X146010876Y-69728758D01*
X146010876Y-68473007D01*
X146035469Y-68448414D01*
X146103868Y-68346048D01*
X146150981Y-68232306D01*
X146175000Y-68111557D01*
X146175000Y-67988443D01*
X146150981Y-67867694D01*
X146103868Y-67753952D01*
X146035469Y-67651586D01*
X145948414Y-67564531D01*
X145846048Y-67496132D01*
X145732306Y-67449019D01*
X145611557Y-67425000D01*
X145488443Y-67425000D01*
X145367694Y-67449019D01*
X145253952Y-67496132D01*
X145169521Y-67552548D01*
X145135469Y-67501586D01*
X145080961Y-67447078D01*
X145144727Y-67394747D01*
X145158818Y-67377577D01*
X145311395Y-67225000D01*
X145361557Y-67225000D01*
X145482306Y-67200981D01*
X145596048Y-67153868D01*
X145698414Y-67085469D01*
X145785469Y-66998414D01*
X145853868Y-66896048D01*
X145900981Y-66782306D01*
X145925000Y-66661557D01*
X145925000Y-66538443D01*
X145900981Y-66417694D01*
X145853868Y-66303952D01*
X145785469Y-66201586D01*
X145698414Y-66114531D01*
X145596048Y-66046132D01*
X145482306Y-65999019D01*
X145361557Y-65975000D01*
X145238443Y-65975000D01*
X145117694Y-65999019D01*
X145003952Y-66046132D01*
X144901586Y-66114531D01*
X144814531Y-66201586D01*
X144746132Y-66303952D01*
X144699019Y-66417694D01*
X144675000Y-66538443D01*
X144675000Y-66588605D01*
X144638595Y-66625010D01*
X143199082Y-66625010D01*
X143176988Y-66622834D01*
X143154893Y-66625010D01*
X143154883Y-66625010D01*
X143088773Y-66631521D01*
X143003947Y-66657253D01*
X142925771Y-66699039D01*
X142874420Y-66741182D01*
X142874416Y-66741186D01*
X142857251Y-66755273D01*
X142843164Y-66772438D01*
X140800000Y-68815603D01*
X140800000Y-67872094D01*
X140802176Y-67850000D01*
X140800000Y-67827906D01*
X140800000Y-67827895D01*
X140793489Y-67761785D01*
X140767757Y-67676959D01*
X140749669Y-67643119D01*
X140725971Y-67598783D01*
X140683828Y-67547432D01*
X140683824Y-67547428D01*
X140669737Y-67530263D01*
X140652572Y-67516176D01*
X140325000Y-67188605D01*
X140325000Y-67138443D01*
X140300981Y-67017694D01*
X140253868Y-66903952D01*
X140185469Y-66801586D01*
X140098414Y-66714531D01*
X139996048Y-66646132D01*
X139882306Y-66599019D01*
X139761557Y-66575000D01*
X139638443Y-66575000D01*
X139517694Y-66599019D01*
X139403952Y-66646132D01*
X139301586Y-66714531D01*
X139214531Y-66801586D01*
X139146132Y-66903952D01*
X139099019Y-67017694D01*
X139075000Y-67138443D01*
X139075000Y-67261557D01*
X139099019Y-67382306D01*
X139146132Y-67496048D01*
X139214531Y-67598414D01*
X139301586Y-67685469D01*
X139403952Y-67753868D01*
X139517694Y-67800981D01*
X139638443Y-67825000D01*
X139688605Y-67825000D01*
X139900001Y-68036397D01*
X139900000Y-70043428D01*
X139763198Y-70043428D01*
X139725971Y-69973782D01*
X139669737Y-69905261D01*
X139652567Y-69891170D01*
X139553830Y-69792433D01*
X139539738Y-69775262D01*
X139471217Y-69719028D01*
X139393042Y-69677242D01*
X139308216Y-69651510D01*
X139255001Y-69646269D01*
X139255001Y-69114792D01*
X139257177Y-69092700D01*
X139255001Y-69070608D01*
X139255001Y-69070596D01*
X139248490Y-69004486D01*
X139222758Y-68919660D01*
X139206199Y-68888681D01*
X139180972Y-68841484D01*
X139138829Y-68790133D01*
X139138825Y-68790129D01*
X139124738Y-68772964D01*
X139107573Y-68758877D01*
X138625000Y-68276305D01*
X138625000Y-68226143D01*
X138600981Y-68105394D01*
X138553868Y-67991652D01*
X138485469Y-67889286D01*
X138398414Y-67802231D01*
X138296048Y-67733832D01*
X138182306Y-67686719D01*
X138061557Y-67662700D01*
X137938443Y-67662700D01*
X137817694Y-67686719D01*
X137800000Y-67694048D01*
X137800000Y-67601227D01*
X137898414Y-67535469D01*
X137985469Y-67448414D01*
X138053868Y-67346048D01*
X138100981Y-67232306D01*
X138125000Y-67111557D01*
X138125000Y-66988443D01*
X138100981Y-66867694D01*
X138053868Y-66753952D01*
X137985469Y-66651586D01*
X137898414Y-66564531D01*
X137796048Y-66496132D01*
X137682306Y-66449019D01*
X137561557Y-66425000D01*
X137438443Y-66425000D01*
X137317694Y-66449019D01*
X137203952Y-66496132D01*
X137101586Y-66564531D01*
X137014531Y-66651586D01*
X136946132Y-66753952D01*
X136899019Y-66867694D01*
X136875000Y-66988443D01*
X136875000Y-67111557D01*
X136899019Y-67232306D01*
X136900000Y-67234674D01*
X136900000Y-67272104D01*
X136900001Y-67272114D01*
X136900000Y-70043428D01*
X136700000Y-70043428D01*
X136636289Y-70049703D01*
X136575026Y-70068287D01*
X136575000Y-70068301D01*
X136574974Y-70068287D01*
X136513711Y-70049703D01*
X136450000Y-70043428D01*
X136228868Y-70043428D01*
X136286022Y-69957890D01*
X136335021Y-69839598D01*
X136360000Y-69714019D01*
X136360000Y-69585981D01*
X136335021Y-69460402D01*
X136286022Y-69342110D01*
X136214888Y-69235649D01*
X136124351Y-69145112D01*
X136017890Y-69073978D01*
X135899598Y-69024979D01*
X135774019Y-69000000D01*
X135645981Y-69000000D01*
X135520402Y-69024979D01*
X135402110Y-69073978D01*
X135295649Y-69145112D01*
X135205112Y-69235649D01*
X135133978Y-69342110D01*
X135084979Y-69460402D01*
X135060000Y-69585981D01*
X135060000Y-69714019D01*
X135084979Y-69839598D01*
X135133978Y-69957890D01*
X135205112Y-70064351D01*
X135295649Y-70154888D01*
X135402110Y-70226022D01*
X135520402Y-70275021D01*
X135538119Y-70278545D01*
X135529703Y-70306289D01*
X135523428Y-70370000D01*
X135523428Y-71820000D01*
X135529703Y-71883711D01*
X135548287Y-71944974D01*
X135578465Y-72001434D01*
X135580135Y-72003469D01*
X135226767Y-72356838D01*
X133677045Y-72356838D01*
X133641576Y-72321369D01*
X133539210Y-72252970D01*
X133425468Y-72205857D01*
X133304719Y-72181838D01*
X133181605Y-72181838D01*
X133060856Y-72205857D01*
X132947114Y-72252970D01*
X132844748Y-72321369D01*
X132757693Y-72408424D01*
X132689294Y-72510790D01*
X132642181Y-72624532D01*
X132618162Y-72745281D01*
X132618162Y-72868395D01*
X132642181Y-72989144D01*
X132689294Y-73102886D01*
X132757693Y-73205252D01*
X132844748Y-73292307D01*
X132947114Y-73360706D01*
X133060856Y-73407819D01*
X133181605Y-73431838D01*
X133304719Y-73431838D01*
X133425468Y-73407819D01*
X133539210Y-73360706D01*
X133641576Y-73292307D01*
X133677045Y-73256838D01*
X135391068Y-73256838D01*
X135413162Y-73259014D01*
X135435256Y-73256838D01*
X135435267Y-73256838D01*
X135501377Y-73250327D01*
X135586203Y-73224595D01*
X135628503Y-73201985D01*
X140040923Y-73201985D01*
X140063017Y-73204161D01*
X140085111Y-73201985D01*
X140085122Y-73201985D01*
X140151232Y-73195474D01*
X140236058Y-73169742D01*
X140314233Y-73127956D01*
X140382754Y-73071722D01*
X140396846Y-73054551D01*
X141304826Y-72146572D01*
X141350000Y-72146572D01*
X141413711Y-72140297D01*
X141474974Y-72121713D01*
X141531434Y-72091535D01*
X141580921Y-72050921D01*
X141621535Y-72001434D01*
X141651713Y-71944974D01*
X141670297Y-71883711D01*
X141676572Y-71820000D01*
X141676572Y-70370000D01*
X141670297Y-70306289D01*
X141661881Y-70278545D01*
X141679598Y-70275021D01*
X141797890Y-70226022D01*
X141904351Y-70154888D01*
X141994888Y-70064351D01*
X142066022Y-69957890D01*
X142115021Y-69839598D01*
X142140000Y-69714019D01*
X142140000Y-69585981D01*
X142115021Y-69460402D01*
X142066022Y-69342110D01*
X141994888Y-69235649D01*
X141904351Y-69145112D01*
X141807796Y-69080597D01*
X143363384Y-67525010D01*
X144148880Y-67525010D01*
X144096132Y-67603952D01*
X144049019Y-67717694D01*
X144025000Y-67838443D01*
X144025000Y-67888604D01*
X143597433Y-68316172D01*
X143580263Y-68330263D01*
X143566172Y-68347433D01*
X143524029Y-68398784D01*
X143503684Y-68436847D01*
X143482243Y-68476960D01*
X143456511Y-68561786D01*
X143450000Y-68627896D01*
X143450000Y-68627906D01*
X143447824Y-68650000D01*
X143450000Y-68672095D01*
X143450001Y-70659632D01*
X139462254Y-74647380D01*
X136874714Y-74647380D01*
X136852620Y-74645204D01*
X136830526Y-74647380D01*
X136830515Y-74647380D01*
X136764405Y-74653891D01*
X136679579Y-74679623D01*
X136601403Y-74721409D01*
X136550052Y-74763552D01*
X136550048Y-74763556D01*
X136532883Y-74777643D01*
X136518796Y-74794809D01*
X136501154Y-74812450D01*
X136450993Y-74812450D01*
X136330244Y-74836469D01*
X136216502Y-74883582D01*
X136114136Y-74951981D01*
X136027081Y-75039036D01*
X135958682Y-75141402D01*
X135911569Y-75255144D01*
X135887550Y-75375893D01*
X135887550Y-75499007D01*
X135911569Y-75619756D01*
X135915707Y-75629745D01*
X135879832Y-75636881D01*
X135766090Y-75683994D01*
X135663724Y-75752393D01*
X135576669Y-75839448D01*
X135508270Y-75941814D01*
X135461157Y-76055556D01*
X135437138Y-76176305D01*
X135437138Y-76299419D01*
X135461157Y-76420168D01*
X135508270Y-76533910D01*
X135576669Y-76636276D01*
X135663724Y-76723331D01*
X135766090Y-76791730D01*
X135879832Y-76838843D01*
X136000581Y-76862862D01*
X136123695Y-76862862D01*
X136128676Y-76861871D01*
X136165663Y-76873091D01*
X136231773Y-76879602D01*
X136231785Y-76879602D01*
X136253877Y-76881778D01*
X136275969Y-76879602D01*
X140824026Y-76879602D01*
X140846120Y-76881778D01*
X140868214Y-76879602D01*
X140868225Y-76879602D01*
X140934335Y-76873091D01*
X141019161Y-76847359D01*
X141097336Y-76805573D01*
X141165857Y-76749339D01*
X141179949Y-76732168D01*
X142550001Y-75362117D01*
X142550000Y-86150000D01*
X134550000Y-86150000D01*
X134550000Y-79346113D01*
X137037560Y-79346113D01*
X137037560Y-79653887D01*
X137097604Y-79955747D01*
X137215384Y-80240093D01*
X137386374Y-80495997D01*
X137604003Y-80713626D01*
X137859907Y-80884616D01*
X138144253Y-81002396D01*
X138446113Y-81062440D01*
X138753887Y-81062440D01*
X139055747Y-81002396D01*
X139340093Y-80884616D01*
X139595997Y-80713626D01*
X139813626Y-80495997D01*
X139984616Y-80240093D01*
X140102396Y-79955747D01*
X140162440Y-79653887D01*
X140162440Y-79346113D01*
X140102396Y-79044253D01*
X139984616Y-78759907D01*
X139813626Y-78504003D01*
X139595997Y-78286374D01*
X139340093Y-78115384D01*
X139055747Y-77997604D01*
X138753887Y-77937560D01*
X138446113Y-77937560D01*
X138144253Y-77997604D01*
X137859907Y-78115384D01*
X137604003Y-78286374D01*
X137386374Y-78504003D01*
X137215384Y-78759907D01*
X137097604Y-79044253D01*
X137037560Y-79346113D01*
X134550000Y-79346113D01*
X134550000Y-74817190D01*
X134551693Y-74800001D01*
X134544935Y-74731389D01*
X134524922Y-74665414D01*
X134492422Y-74604611D01*
X134448685Y-74551316D01*
X134395390Y-74507579D01*
X134334587Y-74475079D01*
X134268612Y-74455066D01*
X134217189Y-74450001D01*
X134217188Y-74450001D01*
X134200000Y-74448308D01*
X134182811Y-74450001D01*
X129399036Y-74450001D01*
X126241893Y-65350000D01*
X150858106Y-65349998D01*
X147700965Y-74450000D01*
G37*
%TD.AperFunction*%
%TD*%
M02*
