M48
; DRILL file {KiCad (6.0.9)} date Tue 22 Nov 2022 08:55:11 PM EST
; FORMAT={-:-/ absolute / inch / decimal}
; #@! TF.CreationDate,2022-11-22T20:55:11-05:00
; #@! TF.GenerationSoftware,Kicad,Pcbnew,(6.0.9)
; #@! TF.FileFunction,Plated,1,2,PTH
FMAT,2
INCH
; #@! TA.AperFunction,Plated,PTH,ViaDrill
T1C0.0118
; #@! TA.AperFunction,Plated,PTH,ComponentDrill
T2C0.0236
%
G90
G05
T1
X5.115Y-2.7875
X5.1575Y-2.88
X5.1975Y-2.6325
X5.215Y-2.71
X5.2375Y-2.92
X5.2384Y-2.8664
X5.25Y-2.6325
X5.255Y-2.71
X5.3175Y-3.3725
X5.32Y-3.1675
X5.3225Y-2.7075
X5.325Y-2.6325
X5.3568Y-3.0015
X5.3745Y-2.97
X5.375Y-2.635
X5.38Y-2.71
X5.3975Y-3.2975
X5.4Y-3.23
X5.4132Y-2.9864
X5.4134Y-2.6398
X5.415Y-2.91
X5.4382Y-2.7143
X5.445Y-3.0475
X5.46Y-3.2825
X5.4618Y-2.6907
X5.4625Y-2.6611
X5.5Y-2.6457
X5.5Y-2.91
X5.515Y-3.175
X5.52Y-3.3675
X5.5625Y-2.855
X5.5675Y-2.64
X5.58Y-3.055
X5.6625Y-2.665
X5.6775Y-2.5875
X5.6949Y-2.6732
X5.705Y-2.71
X5.7125Y-2.905
X5.7303Y-2.6791
X5.74Y-2.622
X5.7717Y-2.7618
X5.7875Y-2.5825
X5.8075Y-2.845
X5.825Y-2.7
X5.8875Y-2.59
T2
G00X5.2866Y-2.5866
M15
G01X5.2866Y-2.6102
M16
G05
G00X5.2866Y-2.7413
M15
G01X5.2866Y-2.7846
M16
G05
G00X5.6268Y-2.5866
M15
G01X5.6268Y-2.6102
M16
G05
G00X5.6268Y-2.7413
M15
G01X5.6268Y-2.7846
M16
G05
T0
M30
