%TF.GenerationSoftware,KiCad,Pcbnew,(6.0.9)*%
%TF.CreationDate,2022-11-22T20:55:08-05:00*%
%TF.ProjectId,040 055,30343020-3035-4352-9e6b-696361645f70,rev?*%
%TF.SameCoordinates,Original*%
%TF.FileFunction,Soldermask,Top*%
%TF.FilePolarity,Negative*%
%FSLAX46Y46*%
G04 Gerber Fmt 4.6, Leading zero omitted, Abs format (unit mm)*
G04 Created by KiCad (PCBNEW (6.0.9)) date 2022-11-22 20:55:08*
%MOMM*%
%LPD*%
G01*
G04 APERTURE LIST*
G04 Aperture macros list*
%AMRoundRect*
0 Rectangle with rounded corners*
0 $1 Rounding radius*
0 $2 $3 $4 $5 $6 $7 $8 $9 X,Y pos of 4 corners*
0 Add a 4 corners polygon primitive as box body*
4,1,4,$2,$3,$4,$5,$6,$7,$8,$9,$2,$3,0*
0 Add four circle primitives for the rounded corners*
1,1,$1+$1,$2,$3*
1,1,$1+$1,$4,$5*
1,1,$1+$1,$6,$7*
1,1,$1+$1,$8,$9*
0 Add four rect primitives between the rounded corners*
20,1,$1+$1,$2,$3,$4,$5,0*
20,1,$1+$1,$4,$5,$6,$7,0*
20,1,$1+$1,$6,$7,$8,$9,0*
20,1,$1+$1,$8,$9,$2,$3,0*%
%AMRotRect*
0 Rectangle, with rotation*
0 The origin of the aperture is its center*
0 $1 length*
0 $2 width*
0 $3 Rotation angle, in degrees counterclockwise*
0 Add horizontal line*
21,1,$1,$2,0,0,$3*%
G04 Aperture macros list end*
%ADD10RoundRect,0.237500X0.250000X0.237500X-0.250000X0.237500X-0.250000X-0.237500X0.250000X-0.237500X0*%
%ADD11RotRect,0.355600X0.762000X289.000000*%
%ADD12RotRect,0.750000X1.041400X289.000000*%
%ADD13RotRect,0.355600X0.762000X71.000000*%
%ADD14RotRect,0.750000X1.041400X71.000000*%
%ADD15R,0.600000X0.500000*%
%ADD16R,0.440000X0.750000*%
%ADD17C,0.650000*%
%ADD18O,1.000000X1.600000*%
%ADD19O,1.000000X2.100000*%
G04 APERTURE END LIST*
D10*
%TO.C,R2*%
X141425000Y-66100000D03*
X139600000Y-66100000D03*
%TD*%
D11*
%TO.C,J2*%
X130276180Y-66910365D03*
X130438964Y-67383123D03*
X130601749Y-67855884D03*
X130764532Y-68328643D03*
X130927316Y-68801401D03*
X131090101Y-69274161D03*
X131252885Y-69746920D03*
X131415669Y-70219681D03*
X131578453Y-70692439D03*
X131741237Y-71165197D03*
X131904021Y-71637959D03*
X132066805Y-72110717D03*
D12*
X127513357Y-67026160D03*
X129818380Y-73720433D03*
%TD*%
D13*
%TO.C,J3*%
X144983195Y-72110717D03*
X145145979Y-71637959D03*
X145308763Y-71165197D03*
X145471547Y-70692439D03*
X145634331Y-70219681D03*
X145797115Y-69746920D03*
X145959899Y-69274161D03*
X146122684Y-68801401D03*
X146285468Y-68328643D03*
X146448251Y-67855884D03*
X146611036Y-67383123D03*
X146773820Y-66910365D03*
D14*
X147231620Y-73720433D03*
X149536643Y-67026160D03*
%TD*%
D10*
%TO.C,R1*%
X137575000Y-66100000D03*
X135750000Y-66100000D03*
%TD*%
D15*
%TO.C,LED*%
X137095000Y-84393500D03*
D16*
X138165000Y-84518500D03*
X139065000Y-84518500D03*
D15*
X140015000Y-84393500D03*
%TD*%
D17*
%TO.C,J1*%
X135710000Y-69650000D03*
X141490000Y-69650000D03*
D18*
X134280000Y-66000000D03*
D19*
X134280000Y-70180000D03*
D18*
X142920000Y-66000000D03*
D19*
X142920000Y-70180000D03*
%TD*%
M02*
