%TF.GenerationSoftware,KiCad,Pcbnew,(5.1.10)-1*%
%TF.CreationDate,2021-08-17T19:49:41-04:00*%
%TF.ProjectId,040 055,30343020-3035-4352-9e6b-696361645f70,rev?*%
%TF.SameCoordinates,Original*%
%TF.FileFunction,Legend,Bot*%
%TF.FilePolarity,Positive*%
%FSLAX46Y46*%
G04 Gerber Fmt 4.6, Leading zero omitted, Abs format (unit mm)*
G04 Created by KiCad (PCBNEW (5.1.10)-1) date 2021-08-17 19:49:41*
%MOMM*%
%LPD*%
G01*
G04 APERTURE LIST*
%ADD10C,0.120000*%
%ADD11C,0.150000*%
G04 APERTURE END LIST*
D10*
%TO.C,J1*%
X143300000Y-68950000D02*
X143300000Y-66950000D01*
X133900000Y-68950000D02*
X133900000Y-66950000D01*
D11*
X139861904Y-66502380D02*
X139861904Y-67311904D01*
X139814285Y-67407142D01*
X139766666Y-67454761D01*
X139671428Y-67502380D01*
X139480952Y-67502380D01*
X139385714Y-67454761D01*
X139338095Y-67407142D01*
X139290476Y-67311904D01*
X139290476Y-66502380D01*
X138861904Y-67454761D02*
X138719047Y-67502380D01*
X138480952Y-67502380D01*
X138385714Y-67454761D01*
X138338095Y-67407142D01*
X138290476Y-67311904D01*
X138290476Y-67216666D01*
X138338095Y-67121428D01*
X138385714Y-67073809D01*
X138480952Y-67026190D01*
X138671428Y-66978571D01*
X138766666Y-66930952D01*
X138814285Y-66883333D01*
X138861904Y-66788095D01*
X138861904Y-66692857D01*
X138814285Y-66597619D01*
X138766666Y-66550000D01*
X138671428Y-66502380D01*
X138433333Y-66502380D01*
X138290476Y-66550000D01*
X137528571Y-66978571D02*
X137385714Y-67026190D01*
X137338095Y-67073809D01*
X137290476Y-67169047D01*
X137290476Y-67311904D01*
X137338095Y-67407142D01*
X137385714Y-67454761D01*
X137480952Y-67502380D01*
X137861904Y-67502380D01*
X137861904Y-66502380D01*
X137528571Y-66502380D01*
X137433333Y-66550000D01*
X137385714Y-66597619D01*
X137338095Y-66692857D01*
X137338095Y-66788095D01*
X137385714Y-66883333D01*
X137433333Y-66930952D01*
X137528571Y-66978571D01*
X137861904Y-66978571D01*
%TD*%
M02*
