%TF.GenerationSoftware,KiCad,Pcbnew,(5.1.10)-1*%
%TF.CreationDate,2021-08-17T19:49:41-04:00*%
%TF.ProjectId,040 055,30343020-3035-4352-9e6b-696361645f70,rev?*%
%TF.SameCoordinates,Original*%
%TF.FileFunction,Soldermask,Top*%
%TF.FilePolarity,Negative*%
%FSLAX46Y46*%
G04 Gerber Fmt 4.6, Leading zero omitted, Abs format (unit mm)*
G04 Created by KiCad (PCBNEW (5.1.10)-1) date 2021-08-17 19:49:41*
%MOMM*%
%LPD*%
G01*
G04 APERTURE LIST*
%ADD10O,1.000000X2.100000*%
%ADD11C,0.650000*%
%ADD12O,1.000000X1.600000*%
%ADD13C,0.100000*%
%ADD14R,0.600000X0.850000*%
G04 APERTURE END LIST*
D10*
%TO.C,J1*%
X142920000Y-70180000D03*
X134280000Y-70180000D03*
D11*
X135710000Y-69650000D03*
D12*
X134280000Y-66000000D03*
D11*
X141490000Y-69650000D03*
D12*
X142920000Y-66000000D03*
%TD*%
D13*
%TO.C,J3*%
G36*
X145285552Y-72402872D02*
G01*
X144565066Y-72154789D01*
X144680838Y-71818562D01*
X145401324Y-72066645D01*
X145285552Y-72402872D01*
G37*
G36*
X145448336Y-71930114D02*
G01*
X144727850Y-71682031D01*
X144843622Y-71345804D01*
X145564108Y-71593887D01*
X145448336Y-71930114D01*
G37*
G36*
X145611120Y-71457352D02*
G01*
X144890634Y-71209269D01*
X145006406Y-70873042D01*
X145726892Y-71121125D01*
X145611120Y-71457352D01*
G37*
G36*
X145773904Y-70984594D02*
G01*
X145053418Y-70736511D01*
X145169190Y-70400284D01*
X145889676Y-70648367D01*
X145773904Y-70984594D01*
G37*
G36*
X145936688Y-70511836D02*
G01*
X145216202Y-70263753D01*
X145331974Y-69927526D01*
X146052460Y-70175609D01*
X145936688Y-70511836D01*
G37*
G36*
X146099472Y-70039075D02*
G01*
X145378986Y-69790992D01*
X145494758Y-69454765D01*
X146215244Y-69702848D01*
X146099472Y-70039075D01*
G37*
G36*
X146262256Y-69566316D02*
G01*
X145541770Y-69318233D01*
X145657542Y-68982006D01*
X146378028Y-69230089D01*
X146262256Y-69566316D01*
G37*
G36*
X146425041Y-69093556D02*
G01*
X145704555Y-68845473D01*
X145820327Y-68509246D01*
X146540813Y-68757329D01*
X146425041Y-69093556D01*
G37*
G36*
X146587825Y-68620798D02*
G01*
X145867339Y-68372715D01*
X145983111Y-68036488D01*
X146703597Y-68284571D01*
X146587825Y-68620798D01*
G37*
G36*
X146750608Y-68148039D02*
G01*
X146030122Y-67899956D01*
X146145894Y-67563729D01*
X146866380Y-67811812D01*
X146750608Y-68148039D01*
G37*
G36*
X146913393Y-67675278D02*
G01*
X146192907Y-67427195D01*
X146308679Y-67090968D01*
X147029165Y-67339051D01*
X146913393Y-67675278D01*
G37*
G36*
X147076177Y-67202520D02*
G01*
X146355691Y-66954437D01*
X146471463Y-66618210D01*
X147191949Y-66866293D01*
X147076177Y-67202520D01*
G37*
G36*
X147666066Y-74058070D02*
G01*
X146681402Y-73719023D01*
X146797174Y-73382796D01*
X147781838Y-73721843D01*
X147666066Y-74058070D01*
G37*
G36*
X149971089Y-67363797D02*
G01*
X148986425Y-67024750D01*
X149102197Y-66688523D01*
X150086861Y-67027570D01*
X149971089Y-67363797D01*
G37*
%TD*%
%TO.C,J2*%
G36*
X129268162Y-73721843D02*
G01*
X130252826Y-73382796D01*
X130368598Y-73719023D01*
X129383934Y-74058070D01*
X129268162Y-73721843D01*
G37*
G36*
X126963139Y-67027570D02*
G01*
X127947803Y-66688523D01*
X128063575Y-67024750D01*
X127078911Y-67363797D01*
X126963139Y-67027570D01*
G37*
G36*
X131648676Y-72066645D02*
G01*
X132369162Y-71818562D01*
X132484934Y-72154789D01*
X131764448Y-72402872D01*
X131648676Y-72066645D01*
G37*
G36*
X131485892Y-71593887D02*
G01*
X132206378Y-71345804D01*
X132322150Y-71682031D01*
X131601664Y-71930114D01*
X131485892Y-71593887D01*
G37*
G36*
X131323108Y-71121125D02*
G01*
X132043594Y-70873042D01*
X132159366Y-71209269D01*
X131438880Y-71457352D01*
X131323108Y-71121125D01*
G37*
G36*
X131160324Y-70648367D02*
G01*
X131880810Y-70400284D01*
X131996582Y-70736511D01*
X131276096Y-70984594D01*
X131160324Y-70648367D01*
G37*
G36*
X130997540Y-70175609D02*
G01*
X131718026Y-69927526D01*
X131833798Y-70263753D01*
X131113312Y-70511836D01*
X130997540Y-70175609D01*
G37*
G36*
X130834756Y-69702848D02*
G01*
X131555242Y-69454765D01*
X131671014Y-69790992D01*
X130950528Y-70039075D01*
X130834756Y-69702848D01*
G37*
G36*
X130671972Y-69230089D02*
G01*
X131392458Y-68982006D01*
X131508230Y-69318233D01*
X130787744Y-69566316D01*
X130671972Y-69230089D01*
G37*
G36*
X130509187Y-68757329D02*
G01*
X131229673Y-68509246D01*
X131345445Y-68845473D01*
X130624959Y-69093556D01*
X130509187Y-68757329D01*
G37*
G36*
X130346403Y-68284571D02*
G01*
X131066889Y-68036488D01*
X131182661Y-68372715D01*
X130462175Y-68620798D01*
X130346403Y-68284571D01*
G37*
G36*
X130183620Y-67811812D02*
G01*
X130904106Y-67563729D01*
X131019878Y-67899956D01*
X130299392Y-68148039D01*
X130183620Y-67811812D01*
G37*
G36*
X130020835Y-67339051D02*
G01*
X130741321Y-67090968D01*
X130857093Y-67427195D01*
X130136607Y-67675278D01*
X130020835Y-67339051D01*
G37*
G36*
X129858051Y-66866293D02*
G01*
X130578537Y-66618210D01*
X130694309Y-66954437D01*
X129973823Y-67202520D01*
X129858051Y-66866293D01*
G37*
%TD*%
%TO.C,R2*%
G36*
G01*
X140087500Y-65862500D02*
X140087500Y-66337500D01*
G75*
G02*
X139850000Y-66575000I-237500J0D01*
G01*
X139350000Y-66575000D01*
G75*
G02*
X139112500Y-66337500I0J237500D01*
G01*
X139112500Y-65862500D01*
G75*
G02*
X139350000Y-65625000I237500J0D01*
G01*
X139850000Y-65625000D01*
G75*
G02*
X140087500Y-65862500I0J-237500D01*
G01*
G37*
G36*
G01*
X141912500Y-65862500D02*
X141912500Y-66337500D01*
G75*
G02*
X141675000Y-66575000I-237500J0D01*
G01*
X141175000Y-66575000D01*
G75*
G02*
X140937500Y-66337500I0J237500D01*
G01*
X140937500Y-65862500D01*
G75*
G02*
X141175000Y-65625000I237500J0D01*
G01*
X141675000Y-65625000D01*
G75*
G02*
X141912500Y-65862500I0J-237500D01*
G01*
G37*
%TD*%
%TO.C,R1*%
G36*
G01*
X136237500Y-65862500D02*
X136237500Y-66337500D01*
G75*
G02*
X136000000Y-66575000I-237500J0D01*
G01*
X135500000Y-66575000D01*
G75*
G02*
X135262500Y-66337500I0J237500D01*
G01*
X135262500Y-65862500D01*
G75*
G02*
X135500000Y-65625000I237500J0D01*
G01*
X136000000Y-65625000D01*
G75*
G02*
X136237500Y-65862500I0J-237500D01*
G01*
G37*
G36*
G01*
X138062500Y-65862500D02*
X138062500Y-66337500D01*
G75*
G02*
X137825000Y-66575000I-237500J0D01*
G01*
X137325000Y-66575000D01*
G75*
G02*
X137087500Y-66337500I0J237500D01*
G01*
X137087500Y-65862500D01*
G75*
G02*
X137325000Y-65625000I237500J0D01*
G01*
X137825000Y-65625000D01*
G75*
G02*
X138062500Y-65862500I0J-237500D01*
G01*
G37*
%TD*%
D14*
%TO.C,D1*%
X137200000Y-84500000D03*
X138100000Y-84500000D03*
X139000000Y-84500000D03*
X139900000Y-84500000D03*
%TD*%
%TO.C,R3*%
G36*
G01*
X131737500Y-67837500D02*
X131737500Y-67362500D01*
G75*
G02*
X131975000Y-67125000I237500J0D01*
G01*
X132475000Y-67125000D01*
G75*
G02*
X132712500Y-67362500I0J-237500D01*
G01*
X132712500Y-67837500D01*
G75*
G02*
X132475000Y-68075000I-237500J0D01*
G01*
X131975000Y-68075000D01*
G75*
G02*
X131737500Y-67837500I0J237500D01*
G01*
G37*
G36*
G01*
X133562500Y-67837500D02*
X133562500Y-67362500D01*
G75*
G02*
X133800000Y-67125000I237500J0D01*
G01*
X134300000Y-67125000D01*
G75*
G02*
X134537500Y-67362500I0J-237500D01*
G01*
X134537500Y-67837500D01*
G75*
G02*
X134300000Y-68075000I-237500J0D01*
G01*
X133800000Y-68075000D01*
G75*
G02*
X133562500Y-67837500I0J237500D01*
G01*
G37*
%TD*%
%TO.C,R4*%
G36*
G01*
X136562500Y-68787500D02*
X136562500Y-68312500D01*
G75*
G02*
X136800000Y-68075000I237500J0D01*
G01*
X137300000Y-68075000D01*
G75*
G02*
X137537500Y-68312500I0J-237500D01*
G01*
X137537500Y-68787500D01*
G75*
G02*
X137300000Y-69025000I-237500J0D01*
G01*
X136800000Y-69025000D01*
G75*
G02*
X136562500Y-68787500I0J237500D01*
G01*
G37*
G36*
G01*
X134737500Y-68787500D02*
X134737500Y-68312500D01*
G75*
G02*
X134975000Y-68075000I237500J0D01*
G01*
X135475000Y-68075000D01*
G75*
G02*
X135712500Y-68312500I0J-237500D01*
G01*
X135712500Y-68787500D01*
G75*
G02*
X135475000Y-69025000I-237500J0D01*
G01*
X134975000Y-69025000D01*
G75*
G02*
X134737500Y-68787500I0J237500D01*
G01*
G37*
%TD*%
%TO.C,R5*%
G36*
G01*
X141687500Y-71112500D02*
X141687500Y-71587500D01*
G75*
G02*
X141450000Y-71825000I-237500J0D01*
G01*
X140950000Y-71825000D01*
G75*
G02*
X140712500Y-71587500I0J237500D01*
G01*
X140712500Y-71112500D01*
G75*
G02*
X140950000Y-70875000I237500J0D01*
G01*
X141450000Y-70875000D01*
G75*
G02*
X141687500Y-71112500I0J-237500D01*
G01*
G37*
G36*
G01*
X139862500Y-71112500D02*
X139862500Y-71587500D01*
G75*
G02*
X139625000Y-71825000I-237500J0D01*
G01*
X139125000Y-71825000D01*
G75*
G02*
X138887500Y-71587500I0J237500D01*
G01*
X138887500Y-71112500D01*
G75*
G02*
X139125000Y-70875000I237500J0D01*
G01*
X139625000Y-70875000D01*
G75*
G02*
X139862500Y-71112500I0J-237500D01*
G01*
G37*
%TD*%
%TO.C,R6*%
G36*
G01*
X140087500Y-68162500D02*
X140087500Y-68637500D01*
G75*
G02*
X139850000Y-68875000I-237500J0D01*
G01*
X139350000Y-68875000D01*
G75*
G02*
X139112500Y-68637500I0J237500D01*
G01*
X139112500Y-68162500D01*
G75*
G02*
X139350000Y-67925000I237500J0D01*
G01*
X139850000Y-67925000D01*
G75*
G02*
X140087500Y-68162500I0J-237500D01*
G01*
G37*
G36*
G01*
X141912500Y-68162500D02*
X141912500Y-68637500D01*
G75*
G02*
X141675000Y-68875000I-237500J0D01*
G01*
X141175000Y-68875000D01*
G75*
G02*
X140937500Y-68637500I0J237500D01*
G01*
X140937500Y-68162500D01*
G75*
G02*
X141175000Y-67925000I237500J0D01*
G01*
X141675000Y-67925000D01*
G75*
G02*
X141912500Y-68162500I0J-237500D01*
G01*
G37*
%TD*%
M02*
