M48
; DRILL file {KiCad (5.1.10)-1} date 08/17/21 19:49:48
; FORMAT={-:-/ absolute / inch / decimal}
; #@! TF.CreationDate,2021-08-17T19:49:48-04:00
; #@! TF.GenerationSoftware,Kicad,Pcbnew,(5.1.10)-1
; #@! TF.FileFunction,Plated,1,2,PTH
FMAT,2
INCH
T1C0.0118
T2C0.0236
%
G90
G05
T1
X5.2458Y-2.8664
X5.3568Y-3.0015
X5.3745Y-2.97
X5.4132Y-2.9864
X5.4134Y-2.6398
X5.4301Y-2.7441
X5.4331Y-2.6885
X5.4876Y-2.8416
X5.5Y-2.6457
X5.6949Y-2.6732
X5.7205Y-2.622
X5.7303Y-2.6791
X5.7717Y-2.7618
T2
G00X5.2866Y-2.5866
M15
G01X5.2866Y-2.6102
M16
G05
G00X5.2866Y-2.7413
M15
G01X5.2866Y-2.7846
M16
G05
G00X5.6268Y-2.5866
M15
G01X5.6268Y-2.6102
M16
G05
G00X5.6268Y-2.7413
M15
G01X5.6268Y-2.7846
M16
G05
T0
M30
