%TF.GenerationSoftware,KiCad,Pcbnew,8.0.1*%
%TF.CreationDate,2024-03-21T20:23:12-04:00*%
%TF.ProjectId,040-05x-v2,3034302d-3035-4782-9d76-322e6b696361,rev?*%
%TF.SameCoordinates,Original*%
%TF.FileFunction,Soldermask,Top*%
%TF.FilePolarity,Negative*%
%FSLAX46Y46*%
G04 Gerber Fmt 4.6, Leading zero omitted, Abs format (unit mm)*
G04 Created by KiCad (PCBNEW 8.0.1) date 2024-03-21 20:23:12*
%MOMM*%
%LPD*%
G01*
G04 APERTURE LIST*
G04 Aperture macros list*
%AMRoundRect*
0 Rectangle with rounded corners*
0 $1 Rounding radius*
0 $2 $3 $4 $5 $6 $7 $8 $9 X,Y pos of 4 corners*
0 Add a 4 corners polygon primitive as box body*
4,1,4,$2,$3,$4,$5,$6,$7,$8,$9,$2,$3,0*
0 Add four circle primitives for the rounded corners*
1,1,$1+$1,$2,$3*
1,1,$1+$1,$4,$5*
1,1,$1+$1,$6,$7*
1,1,$1+$1,$8,$9*
0 Add four rect primitives between the rounded corners*
20,1,$1+$1,$2,$3,$4,$5,0*
20,1,$1+$1,$4,$5,$6,$7,0*
20,1,$1+$1,$6,$7,$8,$9,0*
20,1,$1+$1,$8,$9,$2,$3,0*%
G04 Aperture macros list end*
%ADD10RoundRect,0.100000X-0.300000X0.100000X-0.300000X-0.100000X0.300000X-0.100000X0.300000X0.100000X0*%
%ADD11RoundRect,0.075000X-0.325000X0.075000X-0.325000X-0.075000X0.325000X-0.075000X0.325000X0.075000X0*%
%ADD12RoundRect,0.237500X0.250000X0.237500X-0.250000X0.237500X-0.250000X-0.237500X0.250000X-0.237500X0*%
%ADD13R,0.600000X0.500000*%
%ADD14R,0.440000X0.750000*%
%ADD15RoundRect,0.100000X0.300000X-0.100000X0.300000X0.100000X-0.300000X0.100000X-0.300000X-0.100000X0*%
%ADD16RoundRect,0.075000X0.325000X-0.075000X0.325000X0.075000X-0.325000X0.075000X-0.325000X-0.075000X0*%
%ADD17O,1.000000X2.200000*%
%ADD18O,1.000000X1.800000*%
G04 APERTURE END LIST*
D10*
%TO.C,J3*%
X57037000Y-58353000D03*
X57037000Y-65853000D03*
D11*
X59537000Y-59353000D03*
X59537000Y-59853000D03*
X59537000Y-60353000D03*
X59537000Y-60853000D03*
X59537000Y-61353000D03*
X59537000Y-61853000D03*
X59537000Y-62353000D03*
X59537000Y-62853000D03*
X59537000Y-63353000D03*
X59537000Y-63853000D03*
X59537000Y-64353000D03*
X59537000Y-64853000D03*
%TD*%
D12*
%TO.C,R4*%
X66190500Y-58674000D03*
X64365500Y-58674000D03*
%TD*%
%TO.C,R3*%
X69746500Y-58674000D03*
X67921500Y-58674000D03*
%TD*%
D13*
%TO.C,D1*%
X65536000Y-76877000D03*
D14*
X66606000Y-77002000D03*
X67506000Y-77002000D03*
D13*
X68456000Y-76877000D03*
%TD*%
D15*
%TO.C,J2*%
X77075000Y-65853000D03*
X77075000Y-58353000D03*
D16*
X74575000Y-64853000D03*
X74575000Y-64353000D03*
X74575000Y-63853000D03*
X74575000Y-63353000D03*
X74575000Y-62853000D03*
X74575000Y-62353000D03*
X74575000Y-61853000D03*
X74575000Y-61353000D03*
X74575000Y-60853000D03*
X74575000Y-60353000D03*
X74575000Y-59853000D03*
X74575000Y-59353000D03*
%TD*%
D17*
%TO.C,J4*%
X62736000Y-58707800D03*
D18*
X62736000Y-62707800D03*
D17*
X71376000Y-58707800D03*
D18*
X71376000Y-62707800D03*
%TD*%
M02*
