%TF.GenerationSoftware,KiCad,Pcbnew,8.0.1*%
%TF.CreationDate,2024-03-21T20:23:12-04:00*%
%TF.ProjectId,040-05x-v2,3034302d-3035-4782-9d76-322e6b696361,rev?*%
%TF.SameCoordinates,Original*%
%TF.FileFunction,Legend,Top*%
%TF.FilePolarity,Positive*%
%FSLAX46Y46*%
G04 Gerber Fmt 4.6, Leading zero omitted, Abs format (unit mm)*
G04 Created by KiCad (PCBNEW 8.0.1) date 2024-03-21 20:23:12*
%MOMM*%
%LPD*%
G01*
G04 APERTURE LIST*
%ADD10C,0.150000*%
%ADD11C,0.100000*%
%ADD12C,0.120000*%
G04 APERTURE END LIST*
D10*
X64036580Y-77577792D02*
X64084200Y-77625411D01*
X64084200Y-77625411D02*
X64131819Y-77768268D01*
X64131819Y-77768268D02*
X64131819Y-77863506D01*
X64131819Y-77863506D02*
X64084200Y-78006363D01*
X64084200Y-78006363D02*
X63988961Y-78101601D01*
X63988961Y-78101601D02*
X63893723Y-78149220D01*
X63893723Y-78149220D02*
X63703247Y-78196839D01*
X63703247Y-78196839D02*
X63560390Y-78196839D01*
X63560390Y-78196839D02*
X63369914Y-78149220D01*
X63369914Y-78149220D02*
X63274676Y-78101601D01*
X63274676Y-78101601D02*
X63179438Y-78006363D01*
X63179438Y-78006363D02*
X63131819Y-77863506D01*
X63131819Y-77863506D02*
X63131819Y-77768268D01*
X63131819Y-77768268D02*
X63179438Y-77625411D01*
X63179438Y-77625411D02*
X63227057Y-77577792D01*
X64131819Y-76720649D02*
X63608009Y-76720649D01*
X63608009Y-76720649D02*
X63512771Y-76768268D01*
X63512771Y-76768268D02*
X63465152Y-76863506D01*
X63465152Y-76863506D02*
X63465152Y-77053982D01*
X63465152Y-77053982D02*
X63512771Y-77149220D01*
X64084200Y-76720649D02*
X64131819Y-76815887D01*
X64131819Y-76815887D02*
X64131819Y-77053982D01*
X64131819Y-77053982D02*
X64084200Y-77149220D01*
X64084200Y-77149220D02*
X63988961Y-77196839D01*
X63988961Y-77196839D02*
X63893723Y-77196839D01*
X63893723Y-77196839D02*
X63798485Y-77149220D01*
X63798485Y-77149220D02*
X63750866Y-77053982D01*
X63750866Y-77053982D02*
X63750866Y-76815887D01*
X63750866Y-76815887D02*
X63703247Y-76720649D01*
X64084200Y-76292077D02*
X64131819Y-76196839D01*
X64131819Y-76196839D02*
X64131819Y-76006363D01*
X64131819Y-76006363D02*
X64084200Y-75911125D01*
X64084200Y-75911125D02*
X63988961Y-75863506D01*
X63988961Y-75863506D02*
X63941342Y-75863506D01*
X63941342Y-75863506D02*
X63846104Y-75911125D01*
X63846104Y-75911125D02*
X63798485Y-76006363D01*
X63798485Y-76006363D02*
X63798485Y-76149220D01*
X63798485Y-76149220D02*
X63750866Y-76244458D01*
X63750866Y-76244458D02*
X63655628Y-76292077D01*
X63655628Y-76292077D02*
X63608009Y-76292077D01*
X63608009Y-76292077D02*
X63512771Y-76244458D01*
X63512771Y-76244458D02*
X63465152Y-76149220D01*
X63465152Y-76149220D02*
X63465152Y-76006363D01*
X63465152Y-76006363D02*
X63512771Y-75911125D01*
X63465152Y-75006363D02*
X64131819Y-75006363D01*
X63465152Y-75434934D02*
X63988961Y-75434934D01*
X63988961Y-75434934D02*
X64084200Y-75387315D01*
X64084200Y-75387315D02*
X64131819Y-75292077D01*
X64131819Y-75292077D02*
X64131819Y-75149220D01*
X64131819Y-75149220D02*
X64084200Y-75053982D01*
X64084200Y-75053982D02*
X64036580Y-75006363D01*
X64131819Y-74101601D02*
X63608009Y-74101601D01*
X63608009Y-74101601D02*
X63512771Y-74149220D01*
X63512771Y-74149220D02*
X63465152Y-74244458D01*
X63465152Y-74244458D02*
X63465152Y-74434934D01*
X63465152Y-74434934D02*
X63512771Y-74530172D01*
X64084200Y-74101601D02*
X64131819Y-74196839D01*
X64131819Y-74196839D02*
X64131819Y-74434934D01*
X64131819Y-74434934D02*
X64084200Y-74530172D01*
X64084200Y-74530172D02*
X63988961Y-74577791D01*
X63988961Y-74577791D02*
X63893723Y-74577791D01*
X63893723Y-74577791D02*
X63798485Y-74530172D01*
X63798485Y-74530172D02*
X63750866Y-74434934D01*
X63750866Y-74434934D02*
X63750866Y-74196839D01*
X63750866Y-74196839D02*
X63703247Y-74101601D01*
X64036580Y-73053982D02*
X64084200Y-73101601D01*
X64084200Y-73101601D02*
X64131819Y-73244458D01*
X64131819Y-73244458D02*
X64131819Y-73339696D01*
X64131819Y-73339696D02*
X64084200Y-73482553D01*
X64084200Y-73482553D02*
X63988961Y-73577791D01*
X63988961Y-73577791D02*
X63893723Y-73625410D01*
X63893723Y-73625410D02*
X63703247Y-73673029D01*
X63703247Y-73673029D02*
X63560390Y-73673029D01*
X63560390Y-73673029D02*
X63369914Y-73625410D01*
X63369914Y-73625410D02*
X63274676Y-73577791D01*
X63274676Y-73577791D02*
X63179438Y-73482553D01*
X63179438Y-73482553D02*
X63131819Y-73339696D01*
X63131819Y-73339696D02*
X63131819Y-73244458D01*
X63131819Y-73244458D02*
X63179438Y-73101601D01*
X63179438Y-73101601D02*
X63227057Y-73053982D01*
X64131819Y-72482553D02*
X64084200Y-72577791D01*
X64084200Y-72577791D02*
X64036580Y-72625410D01*
X64036580Y-72625410D02*
X63941342Y-72673029D01*
X63941342Y-72673029D02*
X63655628Y-72673029D01*
X63655628Y-72673029D02*
X63560390Y-72625410D01*
X63560390Y-72625410D02*
X63512771Y-72577791D01*
X63512771Y-72577791D02*
X63465152Y-72482553D01*
X63465152Y-72482553D02*
X63465152Y-72339696D01*
X63465152Y-72339696D02*
X63512771Y-72244458D01*
X63512771Y-72244458D02*
X63560390Y-72196839D01*
X63560390Y-72196839D02*
X63655628Y-72149220D01*
X63655628Y-72149220D02*
X63941342Y-72149220D01*
X63941342Y-72149220D02*
X64036580Y-72196839D01*
X64036580Y-72196839D02*
X64084200Y-72244458D01*
X64084200Y-72244458D02*
X64131819Y-72339696D01*
X64131819Y-72339696D02*
X64131819Y-72482553D01*
X64131819Y-71292077D02*
X63131819Y-71292077D01*
X64084200Y-71292077D02*
X64131819Y-71387315D01*
X64131819Y-71387315D02*
X64131819Y-71577791D01*
X64131819Y-71577791D02*
X64084200Y-71673029D01*
X64084200Y-71673029D02*
X64036580Y-71720648D01*
X64036580Y-71720648D02*
X63941342Y-71768267D01*
X63941342Y-71768267D02*
X63655628Y-71768267D01*
X63655628Y-71768267D02*
X63560390Y-71720648D01*
X63560390Y-71720648D02*
X63512771Y-71673029D01*
X63512771Y-71673029D02*
X63465152Y-71577791D01*
X63465152Y-71577791D02*
X63465152Y-71387315D01*
X63465152Y-71387315D02*
X63512771Y-71292077D01*
X64084200Y-70434934D02*
X64131819Y-70530172D01*
X64131819Y-70530172D02*
X64131819Y-70720648D01*
X64131819Y-70720648D02*
X64084200Y-70815886D01*
X64084200Y-70815886D02*
X63988961Y-70863505D01*
X63988961Y-70863505D02*
X63608009Y-70863505D01*
X63608009Y-70863505D02*
X63512771Y-70815886D01*
X63512771Y-70815886D02*
X63465152Y-70720648D01*
X63465152Y-70720648D02*
X63465152Y-70530172D01*
X63465152Y-70530172D02*
X63512771Y-70434934D01*
X63512771Y-70434934D02*
X63608009Y-70387315D01*
X63608009Y-70387315D02*
X63703247Y-70387315D01*
X63703247Y-70387315D02*
X63798485Y-70863505D01*
X64131819Y-69958743D02*
X63465152Y-69958743D01*
X63655628Y-69958743D02*
X63560390Y-69911124D01*
X63560390Y-69911124D02*
X63512771Y-69863505D01*
X63512771Y-69863505D02*
X63465152Y-69768267D01*
X63465152Y-69768267D02*
X63465152Y-69673029D01*
X64084200Y-69387314D02*
X64131819Y-69292076D01*
X64131819Y-69292076D02*
X64131819Y-69101600D01*
X64131819Y-69101600D02*
X64084200Y-69006362D01*
X64084200Y-69006362D02*
X63988961Y-68958743D01*
X63988961Y-68958743D02*
X63941342Y-68958743D01*
X63941342Y-68958743D02*
X63846104Y-69006362D01*
X63846104Y-69006362D02*
X63798485Y-69101600D01*
X63798485Y-69101600D02*
X63798485Y-69244457D01*
X63798485Y-69244457D02*
X63750866Y-69339695D01*
X63750866Y-69339695D02*
X63655628Y-69387314D01*
X63655628Y-69387314D02*
X63608009Y-69387314D01*
X63608009Y-69387314D02*
X63512771Y-69339695D01*
X63512771Y-69339695D02*
X63465152Y-69244457D01*
X63465152Y-69244457D02*
X63465152Y-69101600D01*
X63465152Y-69101600D02*
X63512771Y-69006362D01*
X64036580Y-68530171D02*
X64084200Y-68482552D01*
X64084200Y-68482552D02*
X64131819Y-68530171D01*
X64131819Y-68530171D02*
X64084200Y-68577790D01*
X64084200Y-68577790D02*
X64036580Y-68530171D01*
X64036580Y-68530171D02*
X64131819Y-68530171D01*
X64131819Y-67625410D02*
X63131819Y-67625410D01*
X64084200Y-67625410D02*
X64131819Y-67720648D01*
X64131819Y-67720648D02*
X64131819Y-67911124D01*
X64131819Y-67911124D02*
X64084200Y-68006362D01*
X64084200Y-68006362D02*
X64036580Y-68053981D01*
X64036580Y-68053981D02*
X63941342Y-68101600D01*
X63941342Y-68101600D02*
X63655628Y-68101600D01*
X63655628Y-68101600D02*
X63560390Y-68053981D01*
X63560390Y-68053981D02*
X63512771Y-68006362D01*
X63512771Y-68006362D02*
X63465152Y-67911124D01*
X63465152Y-67911124D02*
X63465152Y-67720648D01*
X63465152Y-67720648D02*
X63512771Y-67625410D01*
X64084200Y-66768267D02*
X64131819Y-66863505D01*
X64131819Y-66863505D02*
X64131819Y-67053981D01*
X64131819Y-67053981D02*
X64084200Y-67149219D01*
X64084200Y-67149219D02*
X63988961Y-67196838D01*
X63988961Y-67196838D02*
X63608009Y-67196838D01*
X63608009Y-67196838D02*
X63512771Y-67149219D01*
X63512771Y-67149219D02*
X63465152Y-67053981D01*
X63465152Y-67053981D02*
X63465152Y-66863505D01*
X63465152Y-66863505D02*
X63512771Y-66768267D01*
X63512771Y-66768267D02*
X63608009Y-66720648D01*
X63608009Y-66720648D02*
X63703247Y-66720648D01*
X63703247Y-66720648D02*
X63798485Y-67196838D01*
X63465152Y-66387314D02*
X64131819Y-66149219D01*
X64131819Y-66149219D02*
X63465152Y-65911124D01*
X69989819Y-77609506D02*
X70704104Y-77609506D01*
X70704104Y-77609506D02*
X70846961Y-77657125D01*
X70846961Y-77657125D02*
X70942200Y-77752363D01*
X70942200Y-77752363D02*
X70989819Y-77895220D01*
X70989819Y-77895220D02*
X70989819Y-77990458D01*
X70989819Y-77133315D02*
X69989819Y-77133315D01*
X69989819Y-77133315D02*
X69989819Y-76895220D01*
X69989819Y-76895220D02*
X70037438Y-76752363D01*
X70037438Y-76752363D02*
X70132676Y-76657125D01*
X70132676Y-76657125D02*
X70227914Y-76609506D01*
X70227914Y-76609506D02*
X70418390Y-76561887D01*
X70418390Y-76561887D02*
X70561247Y-76561887D01*
X70561247Y-76561887D02*
X70751723Y-76609506D01*
X70751723Y-76609506D02*
X70846961Y-76657125D01*
X70846961Y-76657125D02*
X70942200Y-76752363D01*
X70942200Y-76752363D02*
X70989819Y-76895220D01*
X70989819Y-76895220D02*
X70989819Y-77133315D01*
X70942200Y-76180934D02*
X70989819Y-76038077D01*
X70989819Y-76038077D02*
X70989819Y-75799982D01*
X70989819Y-75799982D02*
X70942200Y-75704744D01*
X70942200Y-75704744D02*
X70894580Y-75657125D01*
X70894580Y-75657125D02*
X70799342Y-75609506D01*
X70799342Y-75609506D02*
X70704104Y-75609506D01*
X70704104Y-75609506D02*
X70608866Y-75657125D01*
X70608866Y-75657125D02*
X70561247Y-75704744D01*
X70561247Y-75704744D02*
X70513628Y-75799982D01*
X70513628Y-75799982D02*
X70466009Y-75990458D01*
X70466009Y-75990458D02*
X70418390Y-76085696D01*
X70418390Y-76085696D02*
X70370771Y-76133315D01*
X70370771Y-76133315D02*
X70275533Y-76180934D01*
X70275533Y-76180934D02*
X70180295Y-76180934D01*
X70180295Y-76180934D02*
X70085057Y-76133315D01*
X70085057Y-76133315D02*
X70037438Y-76085696D01*
X70037438Y-76085696D02*
X69989819Y-75990458D01*
X69989819Y-75990458D02*
X69989819Y-75752363D01*
X69989819Y-75752363D02*
X70037438Y-75609506D01*
X70608866Y-75180934D02*
X70608866Y-74419030D01*
X69989819Y-73752363D02*
X69989819Y-73657125D01*
X69989819Y-73657125D02*
X70037438Y-73561887D01*
X70037438Y-73561887D02*
X70085057Y-73514268D01*
X70085057Y-73514268D02*
X70180295Y-73466649D01*
X70180295Y-73466649D02*
X70370771Y-73419030D01*
X70370771Y-73419030D02*
X70608866Y-73419030D01*
X70608866Y-73419030D02*
X70799342Y-73466649D01*
X70799342Y-73466649D02*
X70894580Y-73514268D01*
X70894580Y-73514268D02*
X70942200Y-73561887D01*
X70942200Y-73561887D02*
X70989819Y-73657125D01*
X70989819Y-73657125D02*
X70989819Y-73752363D01*
X70989819Y-73752363D02*
X70942200Y-73847601D01*
X70942200Y-73847601D02*
X70894580Y-73895220D01*
X70894580Y-73895220D02*
X70799342Y-73942839D01*
X70799342Y-73942839D02*
X70608866Y-73990458D01*
X70608866Y-73990458D02*
X70370771Y-73990458D01*
X70370771Y-73990458D02*
X70180295Y-73942839D01*
X70180295Y-73942839D02*
X70085057Y-73895220D01*
X70085057Y-73895220D02*
X70037438Y-73847601D01*
X70037438Y-73847601D02*
X69989819Y-73752363D01*
X70323152Y-72561887D02*
X70989819Y-72561887D01*
X69942200Y-72799982D02*
X70656485Y-73038077D01*
X70656485Y-73038077D02*
X70656485Y-72419030D01*
X69989819Y-71847601D02*
X69989819Y-71752363D01*
X69989819Y-71752363D02*
X70037438Y-71657125D01*
X70037438Y-71657125D02*
X70085057Y-71609506D01*
X70085057Y-71609506D02*
X70180295Y-71561887D01*
X70180295Y-71561887D02*
X70370771Y-71514268D01*
X70370771Y-71514268D02*
X70608866Y-71514268D01*
X70608866Y-71514268D02*
X70799342Y-71561887D01*
X70799342Y-71561887D02*
X70894580Y-71609506D01*
X70894580Y-71609506D02*
X70942200Y-71657125D01*
X70942200Y-71657125D02*
X70989819Y-71752363D01*
X70989819Y-71752363D02*
X70989819Y-71847601D01*
X70989819Y-71847601D02*
X70942200Y-71942839D01*
X70942200Y-71942839D02*
X70894580Y-71990458D01*
X70894580Y-71990458D02*
X70799342Y-72038077D01*
X70799342Y-72038077D02*
X70608866Y-72085696D01*
X70608866Y-72085696D02*
X70370771Y-72085696D01*
X70370771Y-72085696D02*
X70180295Y-72038077D01*
X70180295Y-72038077D02*
X70085057Y-71990458D01*
X70085057Y-71990458D02*
X70037438Y-71942839D01*
X70037438Y-71942839D02*
X69989819Y-71847601D01*
X69942200Y-70371411D02*
X71227914Y-71228553D01*
X69989819Y-69847601D02*
X69989819Y-69752363D01*
X69989819Y-69752363D02*
X70037438Y-69657125D01*
X70037438Y-69657125D02*
X70085057Y-69609506D01*
X70085057Y-69609506D02*
X70180295Y-69561887D01*
X70180295Y-69561887D02*
X70370771Y-69514268D01*
X70370771Y-69514268D02*
X70608866Y-69514268D01*
X70608866Y-69514268D02*
X70799342Y-69561887D01*
X70799342Y-69561887D02*
X70894580Y-69609506D01*
X70894580Y-69609506D02*
X70942200Y-69657125D01*
X70942200Y-69657125D02*
X70989819Y-69752363D01*
X70989819Y-69752363D02*
X70989819Y-69847601D01*
X70989819Y-69847601D02*
X70942200Y-69942839D01*
X70942200Y-69942839D02*
X70894580Y-69990458D01*
X70894580Y-69990458D02*
X70799342Y-70038077D01*
X70799342Y-70038077D02*
X70608866Y-70085696D01*
X70608866Y-70085696D02*
X70370771Y-70085696D01*
X70370771Y-70085696D02*
X70180295Y-70038077D01*
X70180295Y-70038077D02*
X70085057Y-69990458D01*
X70085057Y-69990458D02*
X70037438Y-69942839D01*
X70037438Y-69942839D02*
X69989819Y-69847601D01*
X69989819Y-68609506D02*
X69989819Y-69085696D01*
X69989819Y-69085696D02*
X70466009Y-69133315D01*
X70466009Y-69133315D02*
X70418390Y-69085696D01*
X70418390Y-69085696D02*
X70370771Y-68990458D01*
X70370771Y-68990458D02*
X70370771Y-68752363D01*
X70370771Y-68752363D02*
X70418390Y-68657125D01*
X70418390Y-68657125D02*
X70466009Y-68609506D01*
X70466009Y-68609506D02*
X70561247Y-68561887D01*
X70561247Y-68561887D02*
X70799342Y-68561887D01*
X70799342Y-68561887D02*
X70894580Y-68609506D01*
X70894580Y-68609506D02*
X70942200Y-68657125D01*
X70942200Y-68657125D02*
X70989819Y-68752363D01*
X70989819Y-68752363D02*
X70989819Y-68990458D01*
X70989819Y-68990458D02*
X70942200Y-69085696D01*
X70942200Y-69085696D02*
X70894580Y-69133315D01*
X70989819Y-68228553D02*
X70323152Y-67704744D01*
X70323152Y-68228553D02*
X70989819Y-67704744D01*
X69989819Y-66704743D02*
X70989819Y-66371410D01*
X70989819Y-66371410D02*
X69989819Y-66038077D01*
X70085057Y-65752362D02*
X70037438Y-65704743D01*
X70037438Y-65704743D02*
X69989819Y-65609505D01*
X69989819Y-65609505D02*
X69989819Y-65371410D01*
X69989819Y-65371410D02*
X70037438Y-65276172D01*
X70037438Y-65276172D02*
X70085057Y-65228553D01*
X70085057Y-65228553D02*
X70180295Y-65180934D01*
X70180295Y-65180934D02*
X70275533Y-65180934D01*
X70275533Y-65180934D02*
X70418390Y-65228553D01*
X70418390Y-65228553D02*
X70989819Y-65799981D01*
X70989819Y-65799981D02*
X70989819Y-65180934D01*
D11*
%TO.C,J3*%
X57737000Y-58103000D02*
X59737000Y-58103000D01*
X57737000Y-66103000D02*
X59737000Y-66103000D01*
X59737000Y-58103000D02*
X59737000Y-58903000D01*
X59737000Y-66103000D02*
X59737000Y-65303000D01*
D12*
%TO.C,R4*%
X65532724Y-58151500D02*
X65023276Y-58151500D01*
X65532724Y-59196500D02*
X65023276Y-59196500D01*
%TO.C,R3*%
X69088724Y-58151500D02*
X68579276Y-58151500D01*
X69088724Y-59196500D02*
X68579276Y-59196500D01*
%TO.C,D1*%
X65126000Y-76512000D02*
X64976000Y-76712000D01*
X65126000Y-77162000D02*
X65126000Y-76512000D01*
X68856000Y-76512000D02*
X69006000Y-76712000D01*
X68856000Y-77162000D02*
X68856000Y-76512000D01*
X65606000Y-77312000D02*
G75*
G02*
X65506000Y-77312000I-50000J0D01*
G01*
X65506000Y-77312000D02*
G75*
G02*
X65606000Y-77312000I50000J0D01*
G01*
D11*
%TO.C,J2*%
X74375000Y-58103000D02*
X74375000Y-58903000D01*
X74375000Y-66103000D02*
X74375000Y-65303000D01*
X76375000Y-58103000D02*
X74375000Y-58103000D01*
X76375000Y-66103000D02*
X74375000Y-66103000D01*
%TD*%
M02*
