%TF.GenerationSoftware,KiCad,Pcbnew,8.0.1*%
%TF.CreationDate,2024-03-21T20:23:12-04:00*%
%TF.ProjectId,040-05x-v2,3034302d-3035-4782-9d76-322e6b696361,rev?*%
%TF.SameCoordinates,Original*%
%TF.FileFunction,Copper,L2,Bot*%
%TF.FilePolarity,Positive*%
%FSLAX46Y46*%
G04 Gerber Fmt 4.6, Leading zero omitted, Abs format (unit mm)*
G04 Created by KiCad (PCBNEW 8.0.1) date 2024-03-21 20:23:12*
%MOMM*%
%LPD*%
G01*
G04 APERTURE LIST*
%TA.AperFunction,SMDPad,CuDef*%
%ADD10R,0.600000X1.140000*%
%TD*%
%TA.AperFunction,SMDPad,CuDef*%
%ADD11R,0.300000X1.140000*%
%TD*%
%TA.AperFunction,ComponentPad*%
%ADD12O,1.000000X2.200000*%
%TD*%
%TA.AperFunction,ComponentPad*%
%ADD13O,1.000000X1.800000*%
%TD*%
%TA.AperFunction,ViaPad*%
%ADD14C,0.600000*%
%TD*%
%TA.AperFunction,Conductor*%
%ADD15C,0.300000*%
%TD*%
%TA.AperFunction,Conductor*%
%ADD16C,0.250000*%
%TD*%
%TA.AperFunction,Conductor*%
%ADD17C,0.150000*%
%TD*%
%TA.AperFunction,Conductor*%
%ADD18C,0.180000*%
%TD*%
G04 APERTURE END LIST*
D10*
%TO.P,J4,A1,GND*%
%TO.N,GND*%
X63806000Y-63277800D03*
%TO.P,J4,A4,VBUS*%
%TO.N,+5V*%
X64606000Y-63277800D03*
D11*
%TO.P,J4,A5,CC1*%
%TO.N,Net-(J4-CC1)*%
X65806000Y-63277800D03*
%TO.P,J4,A6,D+*%
%TO.N,USBD+*%
X66806000Y-63277800D03*
%TO.P,J4,A7,D-*%
%TO.N,USBD-*%
X67306000Y-63277800D03*
%TO.P,J4,A8,SBU1*%
%TO.N,unconnected-(J4-SBU1-PadA8)*%
X68306000Y-63277800D03*
D10*
%TO.P,J4,A9,VBUS*%
%TO.N,+5V*%
X69506000Y-63277800D03*
%TO.P,J4,A12,GND*%
%TO.N,GND*%
X70306000Y-63277800D03*
%TO.P,J4,B1,GND*%
X70306000Y-63277800D03*
%TO.P,J4,B4,VBUS*%
%TO.N,+5V*%
X69506000Y-63277800D03*
D11*
%TO.P,J4,B5,CC2*%
%TO.N,Net-(J4-CC2)*%
X68806000Y-63277800D03*
%TO.P,J4,B6,D+*%
%TO.N,USBD+*%
X67806000Y-63277800D03*
%TO.P,J4,B7,D-*%
%TO.N,USBD-*%
X66306000Y-63277800D03*
%TO.P,J4,B8,SBU2*%
%TO.N,unconnected-(J4-SBU2-PadB8)*%
X65306000Y-63277800D03*
D10*
%TO.P,J4,B9,VBUS*%
%TO.N,+5V*%
X64606000Y-63277800D03*
%TO.P,J4,B12,GND*%
%TO.N,GND*%
X63806000Y-63277800D03*
D12*
%TO.P,J4,S1,SHIELD*%
X62736000Y-58707800D03*
D13*
X62736000Y-62707800D03*
D12*
X71376000Y-58707800D03*
D13*
X71376000Y-62707800D03*
%TD*%
D14*
%TO.N,GND*%
X61061600Y-59029600D03*
X67513200Y-74371200D03*
X65989200Y-68681600D03*
X68529200Y-70307200D03*
X61315600Y-62280800D03*
X56997600Y-64922400D03*
X67056000Y-77978000D03*
X77038200Y-64973200D03*
X65379600Y-61620400D03*
X65989200Y-75742800D03*
X63449200Y-68529200D03*
X64465200Y-65278000D03*
X57556400Y-60401200D03*
X70358000Y-71120000D03*
X75946000Y-59385200D03*
X65633600Y-70358000D03*
X68580000Y-75793600D03*
X70256400Y-61772800D03*
X61671200Y-66395600D03*
%TO.N,+5V*%
X73082600Y-59353000D03*
X60096400Y-64617600D03*
%TO.N,Net-(J4-CC2)*%
X68580000Y-59782000D03*
%TO.N,Net-(J4-CC1)*%
X66446400Y-61569600D03*
%TO.N,RED*%
X64643000Y-68199000D03*
X71628000Y-65278000D03*
%TO.N,ANODE*%
X65278000Y-69342000D03*
X73456800Y-60096400D03*
X72288400Y-64312800D03*
X69342000Y-68478400D03*
%TO.N,GREEN*%
X58125901Y-65735200D03*
X67513200Y-75895200D03*
X75742800Y-62331600D03*
%TO.N,BLUE*%
X75692000Y-60604400D03*
X72390000Y-65803000D03*
X67513200Y-68326000D03*
%TO.N,USBD+*%
X68156521Y-61514521D03*
X65360335Y-59999079D03*
%TO.N,USBD-*%
X67555479Y-60913479D03*
X65961377Y-60600121D03*
%TD*%
D15*
%TO.N,+5V*%
X60096400Y-64617600D02*
X64136200Y-64617600D01*
X69506000Y-60198000D02*
X69506000Y-59600000D01*
X64606000Y-59600000D02*
X64606000Y-63277800D01*
X64136200Y-64617600D02*
X64606000Y-64147800D01*
X69506000Y-59600000D02*
X69088000Y-59182000D01*
D16*
X73082600Y-59353000D02*
X72237600Y-60198000D01*
X72237600Y-60198000D02*
X69506000Y-60198000D01*
D15*
X69506000Y-63277800D02*
X69506000Y-60198000D01*
X64606000Y-64147800D02*
X64606000Y-63277800D01*
X69088000Y-59182000D02*
X65024000Y-59182000D01*
X65024000Y-59182000D02*
X64606000Y-59600000D01*
D17*
%TO.N,Net-(J4-CC2)*%
X68806000Y-60452000D02*
X68806000Y-60327612D01*
X68806000Y-63277800D02*
X68806000Y-60452000D01*
X68806000Y-60327612D02*
G75*
G03*
X68580004Y-59781996I-771600J12D01*
G01*
D18*
%TO.N,Net-(J4-CC1)*%
X66446400Y-61569600D02*
X65806000Y-62210000D01*
X65806000Y-62210000D02*
X65806000Y-63277800D01*
D17*
%TO.N,RED*%
X70898936Y-65278000D02*
X71628000Y-65278000D01*
X64643000Y-68199000D02*
X65278000Y-67564000D01*
X65278000Y-67564000D02*
X68612936Y-67564000D01*
X68612936Y-67564000D02*
X70898936Y-65278000D01*
%TO.N,ANODE*%
X73456800Y-60096400D02*
X73456800Y-63144400D01*
X73456800Y-63144400D02*
X72288400Y-64312800D01*
X68478400Y-69342000D02*
X69342000Y-68478400D01*
X65278000Y-69342000D02*
X68478400Y-69342000D01*
%TO.N,GREEN*%
X75742800Y-65379600D02*
X74625200Y-66497200D01*
X74625200Y-66497200D02*
X71069200Y-66497200D01*
X58125901Y-65735200D02*
X62585600Y-65735200D01*
X69596000Y-69646800D02*
X69596000Y-73812400D01*
X70459600Y-68783200D02*
X69596000Y-69646800D01*
X69596000Y-73812400D02*
X67513200Y-75895200D01*
X75742800Y-62331600D02*
X75742800Y-65379600D01*
X64058800Y-67208400D02*
X64058800Y-72440800D01*
X71069200Y-66497200D02*
X70459600Y-67106800D01*
X70459600Y-67106800D02*
X70459600Y-68783200D01*
X62585600Y-65735200D02*
X64058800Y-67208400D01*
X64058800Y-72440800D02*
X67513200Y-75895200D01*
%TO.N,BLUE*%
X72390000Y-65803000D02*
X72367009Y-65803000D01*
X67513200Y-68326000D02*
X68275200Y-68326000D01*
X74523600Y-62128400D02*
X74523600Y-61772800D01*
X70798200Y-65803000D02*
X72390000Y-65803000D01*
X68275200Y-68326000D02*
X70798200Y-65803000D01*
X74523600Y-61772800D02*
X75692000Y-60604400D01*
X72390000Y-65803000D02*
X74523600Y-63669400D01*
X74523600Y-63669400D02*
X74523600Y-62128400D01*
D18*
%TO.N,USBD+*%
X66866000Y-64087800D02*
X67738200Y-64087800D01*
X68156521Y-61514521D02*
X68156521Y-60410265D01*
X67806000Y-62422799D02*
X67771000Y-62387799D01*
X67806000Y-63277800D02*
X67806000Y-62422799D01*
X66806000Y-64027800D02*
X66866000Y-64087800D01*
X68156521Y-60410265D02*
X67551456Y-59805200D01*
X67859535Y-61514521D02*
X68156521Y-61514521D01*
X65657321Y-59999079D02*
X65360335Y-59999079D01*
X66806000Y-63277800D02*
X66806000Y-64027800D01*
X67551456Y-59805200D02*
X65851200Y-59805200D01*
X65851200Y-59805200D02*
X65657321Y-59999079D01*
X67771000Y-61603056D02*
X67859535Y-61514521D01*
X67806000Y-64020000D02*
X67806000Y-63277800D01*
X67771000Y-62387799D02*
X67771000Y-61603056D01*
X67738200Y-64087800D02*
X67806000Y-64020000D01*
%TO.N,USBD-*%
X67341000Y-61424944D02*
X67555479Y-61210465D01*
X67306000Y-62527800D02*
X67246000Y-62467800D01*
X67306000Y-62422799D02*
X67341000Y-62387799D01*
X67555479Y-61210465D02*
X67555479Y-60913479D01*
X66029312Y-60235200D02*
X65961377Y-60303135D01*
X66366000Y-62467800D02*
X66306000Y-62527800D01*
X67306000Y-63277800D02*
X67306000Y-62422799D01*
X67726521Y-60742437D02*
X67726521Y-60588377D01*
X67555479Y-60913479D02*
X67726521Y-60742437D01*
X67341000Y-62387799D02*
X67341000Y-61424944D01*
X65961377Y-60303135D02*
X65961377Y-60600121D01*
X67306000Y-63277800D02*
X67306000Y-62527800D01*
X67726521Y-60588377D02*
X67373344Y-60235200D01*
X66306000Y-62527800D02*
X66306000Y-63277800D01*
X67373344Y-60235200D02*
X66029312Y-60235200D01*
X67246000Y-62467800D02*
X66366000Y-62467800D01*
%TD*%
%TA.AperFunction,Conductor*%
%TO.N,GND*%
G36*
X61911898Y-57626174D02*
G01*
X61933572Y-57678500D01*
X61927939Y-57706819D01*
X61870586Y-57845279D01*
X61870584Y-57845286D01*
X61836000Y-58019158D01*
X61836000Y-58457800D01*
X62436000Y-58457800D01*
X62436000Y-58957800D01*
X61836000Y-58957800D01*
X61836000Y-59396441D01*
X61870584Y-59570313D01*
X61870587Y-59570324D01*
X61938427Y-59734105D01*
X62036923Y-59881516D01*
X62162283Y-60006876D01*
X62309693Y-60105371D01*
X62473473Y-60173211D01*
X62473478Y-60173213D01*
X62486000Y-60175703D01*
X62486000Y-59474788D01*
X62495940Y-59492005D01*
X62551795Y-59547860D01*
X62620204Y-59587356D01*
X62696504Y-59607800D01*
X62775496Y-59607800D01*
X62851796Y-59587356D01*
X62920205Y-59547860D01*
X62976060Y-59492005D01*
X62986000Y-59474788D01*
X62986000Y-60175703D01*
X62998521Y-60173213D01*
X62998526Y-60173211D01*
X63162306Y-60105371D01*
X63309716Y-60006876D01*
X63309718Y-60006875D01*
X63435075Y-59881518D01*
X63435076Y-59881516D01*
X63533572Y-59734105D01*
X63601412Y-59570324D01*
X63601415Y-59570313D01*
X63636000Y-59396441D01*
X63636000Y-58957800D01*
X63036000Y-58957800D01*
X63036000Y-58457800D01*
X63636000Y-58457800D01*
X63636000Y-58019158D01*
X63601415Y-57845286D01*
X63601413Y-57845279D01*
X63544061Y-57706819D01*
X63544061Y-57650182D01*
X63584109Y-57610133D01*
X63612428Y-57604500D01*
X70499572Y-57604500D01*
X70551898Y-57626174D01*
X70573572Y-57678500D01*
X70567939Y-57706819D01*
X70510586Y-57845279D01*
X70510584Y-57845286D01*
X70476000Y-58019158D01*
X70476000Y-58457800D01*
X71076000Y-58457800D01*
X71076000Y-58957800D01*
X70476000Y-58957800D01*
X70476000Y-59396441D01*
X70510584Y-59570313D01*
X70510587Y-59570324D01*
X70578427Y-59734105D01*
X70578428Y-59734107D01*
X70593984Y-59757387D01*
X70605034Y-59812936D01*
X70573569Y-59860028D01*
X70532456Y-59872500D01*
X69930500Y-59872500D01*
X69878174Y-59850826D01*
X69856500Y-59798500D01*
X69856500Y-59553854D01*
X69856499Y-59553853D01*
X69832615Y-59464715D01*
X69832613Y-59464710D01*
X69786471Y-59384791D01*
X69786470Y-59384790D01*
X69786469Y-59384788D01*
X69721212Y-59319531D01*
X69303212Y-58901530D01*
X69288517Y-58893046D01*
X69223288Y-58855386D01*
X69223285Y-58855385D01*
X69212514Y-58852499D01*
X69212513Y-58852498D01*
X69134144Y-58831500D01*
X64977856Y-58831500D01*
X64899485Y-58852498D01*
X64899486Y-58852499D01*
X64888712Y-58855386D01*
X64888707Y-58855388D01*
X64808791Y-58901528D01*
X64325530Y-59384787D01*
X64280681Y-59462469D01*
X64280680Y-59462470D01*
X64279387Y-59464708D01*
X64279384Y-59464715D01*
X64255500Y-59553853D01*
X64255500Y-62239849D01*
X64233826Y-62292175D01*
X64181500Y-62313849D01*
X64169925Y-62312938D01*
X64137483Y-62307800D01*
X64056000Y-62307800D01*
X64056000Y-63453800D01*
X64034326Y-63506126D01*
X63982000Y-63527800D01*
X63137000Y-63527800D01*
X63084674Y-63506126D01*
X63063000Y-63453800D01*
X63063000Y-63101800D01*
X63084674Y-63049474D01*
X63137000Y-63027800D01*
X63556000Y-63027800D01*
X63556000Y-62338800D01*
X63577674Y-62286474D01*
X63630000Y-62264800D01*
X63636000Y-62264800D01*
X63636000Y-62219158D01*
X63601415Y-62045286D01*
X63601412Y-62045275D01*
X63533572Y-61881494D01*
X63435076Y-61734083D01*
X63309716Y-61608723D01*
X63162306Y-61510228D01*
X62998521Y-61442386D01*
X62998516Y-61442384D01*
X62986001Y-61439894D01*
X62986000Y-61439895D01*
X62986000Y-62140811D01*
X62976060Y-62123595D01*
X62920205Y-62067740D01*
X62851796Y-62028244D01*
X62775496Y-62007800D01*
X62696504Y-62007800D01*
X62620204Y-62028244D01*
X62551795Y-62067740D01*
X62495940Y-62123595D01*
X62486000Y-62140811D01*
X62486000Y-61439895D01*
X62485998Y-61439894D01*
X62473483Y-61442384D01*
X62473478Y-61442386D01*
X62309693Y-61510228D01*
X62162283Y-61608723D01*
X62162282Y-61608725D01*
X62036925Y-61734082D01*
X62036923Y-61734083D01*
X61938427Y-61881494D01*
X61870587Y-62045275D01*
X61870584Y-62045286D01*
X61836000Y-62219158D01*
X61836000Y-62457800D01*
X62436000Y-62457800D01*
X62436000Y-62957800D01*
X61836000Y-62957800D01*
X61836000Y-63196441D01*
X61870584Y-63370313D01*
X61870587Y-63370324D01*
X61938427Y-63534105D01*
X62036923Y-63681516D01*
X62162283Y-63806876D01*
X62309693Y-63905371D01*
X62473473Y-63973211D01*
X62473478Y-63973213D01*
X62486000Y-63975703D01*
X62486000Y-63274788D01*
X62495940Y-63292005D01*
X62551795Y-63347860D01*
X62620204Y-63387356D01*
X62696504Y-63407800D01*
X62775496Y-63407800D01*
X62851796Y-63387356D01*
X62920205Y-63347860D01*
X62976060Y-63292005D01*
X62986000Y-63274788D01*
X62986000Y-63975703D01*
X62998518Y-63973213D01*
X63036431Y-63957509D01*
X63093068Y-63957508D01*
X63130685Y-63992280D01*
X63178360Y-64085846D01*
X63233288Y-64140774D01*
X63254962Y-64193100D01*
X63233288Y-64245426D01*
X63180962Y-64267100D01*
X60488741Y-64267100D01*
X60436415Y-64245426D01*
X60432815Y-64241559D01*
X60427528Y-64235457D01*
X60326212Y-64170345D01*
X60306454Y-64157647D01*
X60306450Y-64157646D01*
X60168364Y-64117100D01*
X60168361Y-64117100D01*
X60024439Y-64117100D01*
X60024436Y-64117100D01*
X59886349Y-64157646D01*
X59886345Y-64157647D01*
X59765275Y-64235455D01*
X59765268Y-64235460D01*
X59671023Y-64344226D01*
X59611234Y-64475145D01*
X59590753Y-64617600D01*
X59611234Y-64760054D01*
X59611234Y-64760055D01*
X59611235Y-64760057D01*
X59643164Y-64829970D01*
X59671023Y-64890973D01*
X59765268Y-64999739D01*
X59765269Y-64999740D01*
X59765272Y-64999743D01*
X59886347Y-65077553D01*
X59992803Y-65108811D01*
X60024435Y-65118099D01*
X60024437Y-65118100D01*
X60024439Y-65118100D01*
X60168363Y-65118100D01*
X60168364Y-65118099D01*
X60306453Y-65077553D01*
X60427528Y-64999743D01*
X60432815Y-64993640D01*
X60483461Y-64968289D01*
X60488741Y-64968100D01*
X64182346Y-64968100D01*
X64182346Y-64968099D01*
X64271488Y-64944214D01*
X64351412Y-64898070D01*
X64886470Y-64363012D01*
X64932614Y-64283088D01*
X64956500Y-64193943D01*
X64956500Y-64101656D01*
X64956500Y-64094750D01*
X64978174Y-64042424D01*
X64989392Y-64033218D01*
X64989895Y-64032881D01*
X65045446Y-64021840D01*
X65072114Y-64032889D01*
X65077766Y-64036666D01*
X65077768Y-64036666D01*
X65077769Y-64036667D01*
X65136252Y-64048300D01*
X65136254Y-64048300D01*
X65475746Y-64048300D01*
X65475748Y-64048300D01*
X65534231Y-64036667D01*
X65534231Y-64036666D01*
X65541379Y-64035245D01*
X65542211Y-64039428D01*
X65569808Y-64039327D01*
X65570621Y-64035245D01*
X65577768Y-64036666D01*
X65577769Y-64036667D01*
X65636252Y-64048300D01*
X65636254Y-64048300D01*
X65975746Y-64048300D01*
X65975748Y-64048300D01*
X66034231Y-64036667D01*
X66034231Y-64036666D01*
X66041379Y-64035245D01*
X66042211Y-64039428D01*
X66069808Y-64039327D01*
X66070621Y-64035245D01*
X66077768Y-64036666D01*
X66077769Y-64036667D01*
X66136252Y-64048300D01*
X66136254Y-64048300D01*
X66453963Y-64048300D01*
X66506289Y-64069974D01*
X66525441Y-64103147D01*
X66535295Y-64139924D01*
X66535299Y-64139933D01*
X66573540Y-64206168D01*
X66573542Y-64206171D01*
X66687629Y-64320258D01*
X66687631Y-64320259D01*
X66700346Y-64327600D01*
X66734824Y-64372533D01*
X66727432Y-64428686D01*
X66682499Y-64463164D01*
X66592344Y-64487320D01*
X66592333Y-64487325D01*
X66378167Y-64587193D01*
X66184602Y-64722728D01*
X66184599Y-64722730D01*
X66017504Y-64889825D01*
X66017502Y-64889828D01*
X65881967Y-65083393D01*
X65881965Y-65083396D01*
X65881965Y-65083397D01*
X65782097Y-65297563D01*
X65738083Y-65461827D01*
X65720936Y-65525822D01*
X65700341Y-65761221D01*
X65700341Y-65761230D01*
X65720936Y-65996629D01*
X65720936Y-65996632D01*
X65720937Y-65996634D01*
X65782097Y-66224889D01*
X65881965Y-66439056D01*
X66017505Y-66632627D01*
X66184599Y-66799721D01*
X66378170Y-66935261D01*
X66592337Y-67035129D01*
X66820592Y-67096289D01*
X66938296Y-67106587D01*
X67055996Y-67116885D01*
X67056000Y-67116885D01*
X67056004Y-67116885D01*
X67160625Y-67107731D01*
X67291408Y-67096289D01*
X67519663Y-67035129D01*
X67733830Y-66935261D01*
X67927401Y-66799721D01*
X68094495Y-66632627D01*
X68230035Y-66439056D01*
X68329903Y-66224889D01*
X68391063Y-65996634D01*
X68411659Y-65761226D01*
X68391063Y-65525818D01*
X68329903Y-65297563D01*
X68230035Y-65083397D01*
X68094495Y-64889825D01*
X67927401Y-64722731D01*
X67927398Y-64722729D01*
X67927399Y-64722729D01*
X67854842Y-64671924D01*
X67733830Y-64587191D01*
X67588378Y-64519365D01*
X67550117Y-64477609D01*
X67552587Y-64421026D01*
X67594345Y-64382763D01*
X67619654Y-64378300D01*
X67776447Y-64378300D01*
X67776447Y-64378299D01*
X67850329Y-64358503D01*
X67916571Y-64320258D01*
X68038458Y-64198371D01*
X68076703Y-64132129D01*
X68084469Y-64103147D01*
X68118947Y-64058214D01*
X68155947Y-64048300D01*
X68475746Y-64048300D01*
X68475748Y-64048300D01*
X68534231Y-64036667D01*
X68534231Y-64036666D01*
X68541379Y-64035245D01*
X68542211Y-64039428D01*
X68569808Y-64039327D01*
X68570621Y-64035245D01*
X68577768Y-64036666D01*
X68577769Y-64036667D01*
X68636252Y-64048300D01*
X68636254Y-64048300D01*
X68975746Y-64048300D01*
X68975748Y-64048300D01*
X69034231Y-64036667D01*
X69034232Y-64036666D01*
X69034233Y-64036666D01*
X69039886Y-64032889D01*
X69095434Y-64021837D01*
X69122114Y-64032889D01*
X69127766Y-64036666D01*
X69127768Y-64036666D01*
X69127769Y-64036667D01*
X69186252Y-64048300D01*
X69186254Y-64048300D01*
X69613881Y-64048300D01*
X69666207Y-64069974D01*
X69674529Y-64081427D01*
X69674935Y-64081133D01*
X69678357Y-64085843D01*
X69767953Y-64175439D01*
X69880850Y-64232964D01*
X69974518Y-64247799D01*
X70056000Y-64247799D01*
X70056000Y-63527800D01*
X70038676Y-63510476D01*
X70028174Y-63506126D01*
X70006500Y-63453800D01*
X70006500Y-63101800D01*
X70028174Y-63049474D01*
X70038676Y-63045123D01*
X70056000Y-63027800D01*
X70056000Y-62307800D01*
X69974518Y-62307800D01*
X69974517Y-62307801D01*
X69942075Y-62312939D01*
X69887003Y-62299717D01*
X69857411Y-62251425D01*
X69856500Y-62239850D01*
X69856500Y-60597500D01*
X69878174Y-60545174D01*
X69930500Y-60523500D01*
X72280451Y-60523500D01*
X72280453Y-60523500D01*
X72363239Y-60501318D01*
X72437462Y-60458465D01*
X72827560Y-60068366D01*
X72879884Y-60046693D01*
X72932210Y-60068367D01*
X72953131Y-60110162D01*
X72971634Y-60238854D01*
X72971634Y-60238855D01*
X72971635Y-60238857D01*
X72998331Y-60297312D01*
X73031423Y-60369773D01*
X73125668Y-60478540D01*
X73125669Y-60478541D01*
X73125671Y-60478542D01*
X73125672Y-60478543D01*
X73147307Y-60492446D01*
X73179608Y-60538967D01*
X73181300Y-60554699D01*
X73181300Y-62999631D01*
X73159626Y-63051957D01*
X72420582Y-63791000D01*
X72368256Y-63812674D01*
X72363022Y-63812300D01*
X72360361Y-63812300D01*
X72216439Y-63812300D01*
X72109352Y-63843743D01*
X72053039Y-63837688D01*
X72017501Y-63793588D01*
X72023556Y-63737275D01*
X72036179Y-63720413D01*
X72075076Y-63681516D01*
X72173572Y-63534105D01*
X72241412Y-63370324D01*
X72241415Y-63370313D01*
X72276000Y-63196441D01*
X72276000Y-62957800D01*
X71676000Y-62957800D01*
X71676000Y-62457800D01*
X72276000Y-62457800D01*
X72276000Y-62219158D01*
X72241415Y-62045286D01*
X72241412Y-62045275D01*
X72173572Y-61881494D01*
X72075076Y-61734083D01*
X71949716Y-61608723D01*
X71802306Y-61510228D01*
X71638521Y-61442386D01*
X71638516Y-61442384D01*
X71626001Y-61439894D01*
X71626000Y-61439895D01*
X71626000Y-62140811D01*
X71616060Y-62123595D01*
X71560205Y-62067740D01*
X71491796Y-62028244D01*
X71415496Y-62007800D01*
X71336504Y-62007800D01*
X71260204Y-62028244D01*
X71191795Y-62067740D01*
X71135940Y-62123595D01*
X71126000Y-62140811D01*
X71126000Y-61439895D01*
X71125998Y-61439894D01*
X71113483Y-61442384D01*
X71113478Y-61442386D01*
X70949693Y-61510228D01*
X70802283Y-61608723D01*
X70802282Y-61608725D01*
X70676925Y-61734082D01*
X70676923Y-61734083D01*
X70578427Y-61881494D01*
X70510587Y-62045275D01*
X70510584Y-62045286D01*
X70476000Y-62219158D01*
X70476000Y-62264800D01*
X70482000Y-62264800D01*
X70534326Y-62286474D01*
X70556000Y-62338800D01*
X70556000Y-64247799D01*
X70637481Y-64247799D01*
X70731148Y-64232965D01*
X70731149Y-64232964D01*
X70844046Y-64175439D01*
X70933641Y-64085844D01*
X70981314Y-63992282D01*
X71024381Y-63955499D01*
X71075567Y-63957510D01*
X71113473Y-63973211D01*
X71113478Y-63973213D01*
X71126000Y-63975703D01*
X71126000Y-63274788D01*
X71135940Y-63292005D01*
X71191795Y-63347860D01*
X71260204Y-63387356D01*
X71336504Y-63407800D01*
X71415496Y-63407800D01*
X71491796Y-63387356D01*
X71560205Y-63347860D01*
X71616060Y-63292005D01*
X71626000Y-63274788D01*
X71626000Y-63975703D01*
X71638521Y-63973213D01*
X71638526Y-63973211D01*
X71788893Y-63910927D01*
X71845530Y-63910927D01*
X71885579Y-63950975D01*
X71885579Y-64007612D01*
X71873139Y-64027752D01*
X71863023Y-64039426D01*
X71803234Y-64170345D01*
X71782753Y-64312800D01*
X71803234Y-64455254D01*
X71803234Y-64455255D01*
X71803235Y-64455257D01*
X71863023Y-64586173D01*
X71957268Y-64694939D01*
X71957269Y-64694940D01*
X71957272Y-64694943D01*
X72049874Y-64754454D01*
X72058591Y-64760057D01*
X72078347Y-64772753D01*
X72184803Y-64804011D01*
X72216435Y-64813299D01*
X72216437Y-64813300D01*
X72216439Y-64813300D01*
X72360363Y-64813300D01*
X72360364Y-64813299D01*
X72498453Y-64772753D01*
X72619528Y-64694943D01*
X72713777Y-64586173D01*
X72773565Y-64455257D01*
X72794047Y-64312800D01*
X72784732Y-64248016D01*
X72798739Y-64193140D01*
X72805646Y-64185167D01*
X73690357Y-63300459D01*
X73718856Y-63231656D01*
X73732300Y-63199200D01*
X73732300Y-60554699D01*
X73753974Y-60502373D01*
X73766288Y-60492449D01*
X73787928Y-60478543D01*
X73882177Y-60369773D01*
X73941965Y-60238857D01*
X73962447Y-60096400D01*
X73941965Y-59953943D01*
X73882177Y-59823027D01*
X73805128Y-59734107D01*
X73787931Y-59714260D01*
X73787929Y-59714259D01*
X73787928Y-59714257D01*
X73730982Y-59677660D01*
X73666854Y-59636447D01*
X73666852Y-59636446D01*
X73604646Y-59618181D01*
X73560546Y-59582643D01*
X73554493Y-59526330D01*
X73558183Y-59516438D01*
X73567765Y-59495457D01*
X73588247Y-59353000D01*
X73567765Y-59210543D01*
X73507977Y-59079627D01*
X73413728Y-58970857D01*
X73356782Y-58934260D01*
X73292654Y-58893047D01*
X73292650Y-58893046D01*
X73154564Y-58852500D01*
X73154561Y-58852500D01*
X73010639Y-58852500D01*
X73010636Y-58852500D01*
X72872549Y-58893046D01*
X72872545Y-58893047D01*
X72751475Y-58970855D01*
X72751468Y-58970860D01*
X72657223Y-59079626D01*
X72597434Y-59210545D01*
X72576953Y-59353000D01*
X72576953Y-59353004D01*
X72577378Y-59355962D01*
X72576953Y-59357626D01*
X72576953Y-59358291D01*
X72576783Y-59358291D01*
X72563368Y-59410838D01*
X72556457Y-59418814D01*
X72373302Y-59601970D01*
X72320976Y-59623644D01*
X72268650Y-59601970D01*
X72246976Y-59549644D01*
X72248398Y-59535208D01*
X72276000Y-59396441D01*
X72276000Y-58957800D01*
X71676000Y-58957800D01*
X71676000Y-58457800D01*
X72276000Y-58457800D01*
X72276000Y-58019158D01*
X72241415Y-57845286D01*
X72241413Y-57845279D01*
X72184061Y-57706819D01*
X72184061Y-57650182D01*
X72224109Y-57610133D01*
X72252428Y-57604500D01*
X77703500Y-57604500D01*
X77755826Y-57626174D01*
X77777500Y-57678500D01*
X77777500Y-66781500D01*
X77755826Y-66833826D01*
X77703500Y-66855500D01*
X74835166Y-66855500D01*
X74782840Y-66833826D01*
X74761166Y-66781500D01*
X74782839Y-66729175D01*
X74858757Y-66653258D01*
X74858756Y-66653258D01*
X75976357Y-65535659D01*
X76006939Y-65461827D01*
X76018300Y-65434400D01*
X76018300Y-62789899D01*
X76039974Y-62737573D01*
X76052288Y-62727649D01*
X76073928Y-62713743D01*
X76168177Y-62604973D01*
X76227965Y-62474057D01*
X76248447Y-62331600D01*
X76227965Y-62189143D01*
X76168177Y-62058227D01*
X76095605Y-61974474D01*
X76073931Y-61949460D01*
X76073929Y-61949459D01*
X76073928Y-61949457D01*
X76016982Y-61912860D01*
X75952854Y-61871647D01*
X75952850Y-61871646D01*
X75814764Y-61831100D01*
X75814761Y-61831100D01*
X75670839Y-61831100D01*
X75670836Y-61831100D01*
X75532749Y-61871646D01*
X75532745Y-61871647D01*
X75411675Y-61949455D01*
X75411668Y-61949460D01*
X75317423Y-62058226D01*
X75257634Y-62189145D01*
X75237153Y-62331600D01*
X75257634Y-62474054D01*
X75257634Y-62474055D01*
X75257635Y-62474057D01*
X75292401Y-62550183D01*
X75317423Y-62604973D01*
X75411668Y-62713740D01*
X75411669Y-62713741D01*
X75411671Y-62713742D01*
X75411672Y-62713743D01*
X75433307Y-62727646D01*
X75465608Y-62774167D01*
X75467300Y-62789899D01*
X75467300Y-65234832D01*
X75445626Y-65287158D01*
X74532759Y-66200026D01*
X74480433Y-66221700D01*
X72851488Y-66221700D01*
X72799162Y-66200026D01*
X72777488Y-66147700D01*
X72795562Y-66099241D01*
X72797011Y-66097568D01*
X72815377Y-66076373D01*
X72875165Y-65945457D01*
X72895647Y-65803000D01*
X72886332Y-65738216D01*
X72900339Y-65683340D01*
X72907246Y-65675367D01*
X74757157Y-63825459D01*
X74769632Y-63795342D01*
X74799100Y-63724200D01*
X74799100Y-62073600D01*
X74799100Y-61917567D01*
X74820774Y-61865241D01*
X75175787Y-61510228D01*
X75559816Y-61126198D01*
X75612141Y-61104525D01*
X75617378Y-61104900D01*
X75620039Y-61104900D01*
X75763963Y-61104900D01*
X75763964Y-61104899D01*
X75765238Y-61104525D01*
X75902053Y-61064353D01*
X76023128Y-60986543D01*
X76117377Y-60877773D01*
X76177165Y-60746857D01*
X76197647Y-60604400D01*
X76177165Y-60461943D01*
X76117377Y-60331027D01*
X76088163Y-60297312D01*
X76023131Y-60222260D01*
X76023129Y-60222259D01*
X76023128Y-60222257D01*
X75966182Y-60185660D01*
X75902054Y-60144447D01*
X75902050Y-60144446D01*
X75763964Y-60103900D01*
X75763961Y-60103900D01*
X75620039Y-60103900D01*
X75620036Y-60103900D01*
X75481949Y-60144446D01*
X75481945Y-60144447D01*
X75360875Y-60222255D01*
X75360868Y-60222260D01*
X75266623Y-60331026D01*
X75206834Y-60461945D01*
X75186353Y-60604400D01*
X75195666Y-60669181D01*
X75181658Y-60724059D01*
X75174745Y-60732037D01*
X74367542Y-61539243D01*
X74290042Y-61616743D01*
X74248100Y-61718000D01*
X74248100Y-63524632D01*
X74226426Y-63576958D01*
X72522183Y-65281200D01*
X72469857Y-65302874D01*
X72464625Y-65302500D01*
X72461961Y-65302500D01*
X72318039Y-65302500D01*
X72318036Y-65302500D01*
X72226437Y-65329396D01*
X72170125Y-65323342D01*
X72134587Y-65279242D01*
X72132342Y-65268925D01*
X72113165Y-65135545D01*
X72113165Y-65135543D01*
X72053377Y-65004627D01*
X72001029Y-64944214D01*
X71959131Y-64895860D01*
X71959129Y-64895859D01*
X71959128Y-64895857D01*
X71856606Y-64829970D01*
X71838054Y-64818047D01*
X71838050Y-64818046D01*
X71699964Y-64777500D01*
X71699961Y-64777500D01*
X71556039Y-64777500D01*
X71556036Y-64777500D01*
X71417949Y-64818046D01*
X71417945Y-64818047D01*
X71296875Y-64895855D01*
X71296872Y-64895857D01*
X71226595Y-64976960D01*
X71175950Y-65002311D01*
X71170671Y-65002500D01*
X70844136Y-65002500D01*
X70772534Y-65032158D01*
X70742881Y-65044440D01*
X70742878Y-65044442D01*
X68520495Y-67266826D01*
X68468169Y-67288500D01*
X65223200Y-67288500D01*
X65121944Y-67330440D01*
X65121940Y-67330443D01*
X64775182Y-67677200D01*
X64722856Y-67698874D01*
X64717622Y-67698500D01*
X64714961Y-67698500D01*
X64571039Y-67698500D01*
X64571036Y-67698500D01*
X64429148Y-67740162D01*
X64372836Y-67734108D01*
X64337298Y-67690008D01*
X64334300Y-67669160D01*
X64334300Y-67153600D01*
X64292357Y-67052342D01*
X64292356Y-67052340D01*
X62741659Y-65501644D01*
X62741658Y-65501643D01*
X62730106Y-65496858D01*
X62640400Y-65459700D01*
X62640399Y-65459700D01*
X58583230Y-65459700D01*
X58530904Y-65438026D01*
X58527313Y-65434169D01*
X58457029Y-65353057D01*
X58378361Y-65302500D01*
X58335955Y-65275247D01*
X58335951Y-65275246D01*
X58197865Y-65234700D01*
X58197862Y-65234700D01*
X58053940Y-65234700D01*
X58053937Y-65234700D01*
X57915850Y-65275246D01*
X57915846Y-65275247D01*
X57794776Y-65353055D01*
X57794769Y-65353060D01*
X57700524Y-65461826D01*
X57640735Y-65592745D01*
X57620254Y-65735200D01*
X57640735Y-65877654D01*
X57640735Y-65877655D01*
X57640736Y-65877657D01*
X57695069Y-65996629D01*
X57700524Y-66008573D01*
X57794769Y-66117339D01*
X57794770Y-66117340D01*
X57794773Y-66117343D01*
X57915848Y-66195153D01*
X58006260Y-66221700D01*
X58053936Y-66235699D01*
X58053938Y-66235700D01*
X58053940Y-66235700D01*
X58197864Y-66235700D01*
X58197865Y-66235699D01*
X58335954Y-66195153D01*
X58457029Y-66117343D01*
X58527305Y-66036239D01*
X58577951Y-66010889D01*
X58583230Y-66010700D01*
X62440833Y-66010700D01*
X62493159Y-66032374D01*
X63761626Y-67300841D01*
X63783300Y-67353167D01*
X63783300Y-72495601D01*
X63822770Y-72590890D01*
X63825242Y-72596857D01*
X66995945Y-75767561D01*
X67017619Y-75819887D01*
X67016866Y-75830417D01*
X67007553Y-75895199D01*
X67028034Y-76037654D01*
X67087823Y-76168573D01*
X67182068Y-76277339D01*
X67182069Y-76277340D01*
X67182072Y-76277343D01*
X67303147Y-76355153D01*
X67409603Y-76386411D01*
X67441235Y-76395699D01*
X67441237Y-76395700D01*
X67441239Y-76395700D01*
X67585163Y-76395700D01*
X67585164Y-76395699D01*
X67723253Y-76355153D01*
X67844328Y-76277343D01*
X67938577Y-76168573D01*
X67998365Y-76037657D01*
X68018847Y-75895200D01*
X68009532Y-75830416D01*
X68023539Y-75775540D01*
X68030446Y-75767567D01*
X69829557Y-73968458D01*
X69871500Y-73867200D01*
X69871500Y-69791566D01*
X69893173Y-69739241D01*
X70693157Y-68939258D01*
X70735100Y-68838000D01*
X70735100Y-68728400D01*
X70735100Y-67251567D01*
X70756774Y-67199241D01*
X70939899Y-67016116D01*
X71075622Y-66880393D01*
X71127947Y-66858720D01*
X71180273Y-66880394D01*
X71201947Y-66932720D01*
X71196314Y-66961038D01*
X71173500Y-67016116D01*
X71173500Y-78465500D01*
X71151826Y-78517826D01*
X71099500Y-78539500D01*
X63012500Y-78539500D01*
X62960174Y-78517826D01*
X62938500Y-78465500D01*
X62938500Y-67016118D01*
X62938499Y-67016116D01*
X62907977Y-66942428D01*
X62907975Y-66942425D01*
X62851575Y-66886025D01*
X62851571Y-66886022D01*
X62777882Y-66855500D01*
X56408500Y-66855500D01*
X56356174Y-66833826D01*
X56334500Y-66781500D01*
X56334500Y-57678500D01*
X56356174Y-57626174D01*
X56408500Y-57604500D01*
X61859572Y-57604500D01*
X61911898Y-57626174D01*
G37*
%TD.AperFunction*%
%TA.AperFunction,Conductor*%
G36*
X70199135Y-66896331D02*
G01*
X70220809Y-66948657D01*
X70215176Y-66976975D01*
X70184100Y-67051998D01*
X70184100Y-68638433D01*
X70162426Y-68690759D01*
X69362442Y-69490743D01*
X69320500Y-69592000D01*
X69320500Y-73667632D01*
X69298826Y-73719958D01*
X67645383Y-75373400D01*
X67593057Y-75395074D01*
X67587825Y-75394700D01*
X67585161Y-75394700D01*
X67441239Y-75394700D01*
X67435947Y-75394700D01*
X67435947Y-75392302D01*
X67388983Y-75380305D01*
X67381016Y-75373400D01*
X64355974Y-72348358D01*
X64334300Y-72296032D01*
X64334300Y-71886226D01*
X65575443Y-71886226D01*
X65595636Y-72129918D01*
X65645464Y-72326684D01*
X65655666Y-72366968D01*
X65753889Y-72590893D01*
X65853719Y-72743696D01*
X65887632Y-72795603D01*
X66053246Y-72975507D01*
X66246212Y-73125699D01*
X66461267Y-73242081D01*
X66692545Y-73321478D01*
X66933737Y-73361726D01*
X67178263Y-73361726D01*
X67419455Y-73321478D01*
X67650733Y-73242081D01*
X67865788Y-73125699D01*
X68058754Y-72975507D01*
X68224368Y-72795603D01*
X68358111Y-72590893D01*
X68456336Y-72366962D01*
X68516364Y-72129918D01*
X68536557Y-71886226D01*
X68516364Y-71642534D01*
X68456336Y-71405490D01*
X68358111Y-71181559D01*
X68224368Y-70976849D01*
X68058754Y-70796945D01*
X67865788Y-70646753D01*
X67767116Y-70593354D01*
X67650734Y-70530371D01*
X67419453Y-70450973D01*
X67178265Y-70410726D01*
X67178263Y-70410726D01*
X66933737Y-70410726D01*
X66933734Y-70410726D01*
X66692546Y-70450973D01*
X66461265Y-70530371D01*
X66246210Y-70646754D01*
X66053244Y-70796946D01*
X65887629Y-70976852D01*
X65753889Y-71181558D01*
X65655666Y-71405483D01*
X65655664Y-71405488D01*
X65655664Y-71405490D01*
X65595636Y-71642534D01*
X65575443Y-71886226D01*
X64334300Y-71886226D01*
X64334300Y-68728839D01*
X64355974Y-68676513D01*
X64408300Y-68654839D01*
X64429149Y-68657837D01*
X64432944Y-68658951D01*
X64432947Y-68658953D01*
X64492752Y-68676513D01*
X64571037Y-68699500D01*
X64571039Y-68699500D01*
X64714963Y-68699500D01*
X64714964Y-68699499D01*
X64853053Y-68658953D01*
X64974128Y-68581143D01*
X65068377Y-68472373D01*
X65128165Y-68341457D01*
X65148647Y-68199000D01*
X65139332Y-68134217D01*
X65153339Y-68079341D01*
X65160245Y-68071369D01*
X65370442Y-67861174D01*
X65422768Y-67839500D01*
X67110461Y-67839500D01*
X67162787Y-67861174D01*
X67184461Y-67913500D01*
X67166387Y-67961957D01*
X67108447Y-68028826D01*
X67087822Y-68052628D01*
X67028034Y-68183545D01*
X67007553Y-68326000D01*
X67028034Y-68468454D01*
X67028034Y-68468455D01*
X67028035Y-68468457D01*
X67078905Y-68579846D01*
X67087823Y-68599373D01*
X67182068Y-68708139D01*
X67182069Y-68708140D01*
X67182072Y-68708143D01*
X67303147Y-68785953D01*
X67409603Y-68817211D01*
X67441235Y-68826499D01*
X67441237Y-68826500D01*
X67441239Y-68826500D01*
X67585163Y-68826500D01*
X67585164Y-68826499D01*
X67723253Y-68785953D01*
X67844328Y-68708143D01*
X67914604Y-68627039D01*
X67965250Y-68601689D01*
X67970529Y-68601500D01*
X68329998Y-68601500D01*
X68330000Y-68601500D01*
X68431258Y-68559557D01*
X68508757Y-68482058D01*
X68736573Y-68254241D01*
X68788898Y-68232568D01*
X68841224Y-68254242D01*
X68862898Y-68306568D01*
X68857656Y-68330671D01*
X68858325Y-68330868D01*
X68856834Y-68335941D01*
X68836353Y-68478400D01*
X68845666Y-68543182D01*
X68831658Y-68598060D01*
X68824745Y-68606038D01*
X68385959Y-69044826D01*
X68333633Y-69066500D01*
X65735329Y-69066500D01*
X65683003Y-69044826D01*
X65679412Y-69040969D01*
X65609128Y-68959857D01*
X65552182Y-68923260D01*
X65488054Y-68882047D01*
X65488050Y-68882046D01*
X65349964Y-68841500D01*
X65349961Y-68841500D01*
X65206039Y-68841500D01*
X65206036Y-68841500D01*
X65067949Y-68882046D01*
X65067945Y-68882047D01*
X64946875Y-68959855D01*
X64946868Y-68959860D01*
X64852623Y-69068626D01*
X64792834Y-69199545D01*
X64772353Y-69342000D01*
X64792834Y-69484454D01*
X64792834Y-69484455D01*
X64792835Y-69484457D01*
X64841949Y-69592000D01*
X64852623Y-69615373D01*
X64946868Y-69724139D01*
X64946869Y-69724140D01*
X64946872Y-69724143D01*
X65067947Y-69801953D01*
X65174403Y-69833211D01*
X65206035Y-69842499D01*
X65206037Y-69842500D01*
X65206039Y-69842500D01*
X65349963Y-69842500D01*
X65349964Y-69842499D01*
X65488053Y-69801953D01*
X65609128Y-69724143D01*
X65679404Y-69643039D01*
X65730050Y-69617689D01*
X65735329Y-69617500D01*
X68533198Y-69617500D01*
X68533200Y-69617500D01*
X68634458Y-69575557D01*
X68711957Y-69498058D01*
X69209815Y-69000198D01*
X69262140Y-68978525D01*
X69267380Y-68978900D01*
X69270039Y-68978900D01*
X69413963Y-68978900D01*
X69413964Y-68978899D01*
X69415238Y-68978525D01*
X69552053Y-68938353D01*
X69673128Y-68860543D01*
X69767377Y-68751773D01*
X69827165Y-68620857D01*
X69847647Y-68478400D01*
X69827165Y-68335943D01*
X69767377Y-68205027D01*
X69673128Y-68096257D01*
X69601929Y-68050500D01*
X69552054Y-68018447D01*
X69552050Y-68018446D01*
X69413964Y-67977900D01*
X69413961Y-67977900D01*
X69270039Y-67977900D01*
X69184218Y-68003099D01*
X69127905Y-67997044D01*
X69092367Y-67952944D01*
X69098422Y-67896631D01*
X69111041Y-67879773D01*
X70094484Y-66896330D01*
X70146809Y-66874657D01*
X70199135Y-66896331D01*
G37*
%TD.AperFunction*%
%TA.AperFunction,Conductor*%
G36*
X65070503Y-60407761D02*
G01*
X65150282Y-60459032D01*
X65248813Y-60487963D01*
X65288370Y-60499578D01*
X65288372Y-60499579D01*
X65384785Y-60499579D01*
X65437111Y-60521253D01*
X65458785Y-60573579D01*
X65458032Y-60584109D01*
X65455730Y-60600120D01*
X65476211Y-60742575D01*
X65476211Y-60742576D01*
X65476212Y-60742578D01*
X65489202Y-60771022D01*
X65536000Y-60873494D01*
X65630245Y-60982260D01*
X65630246Y-60982261D01*
X65630249Y-60982264D01*
X65751324Y-61060074D01*
X65857780Y-61091332D01*
X65889412Y-61100620D01*
X65889414Y-61100621D01*
X66028479Y-61100621D01*
X66080805Y-61122295D01*
X66102479Y-61174621D01*
X66084405Y-61223078D01*
X66027725Y-61288492D01*
X66021022Y-61296228D01*
X65961234Y-61427145D01*
X65940753Y-61569600D01*
X65947400Y-61615835D01*
X65933392Y-61670712D01*
X65926479Y-61678691D01*
X65627629Y-61977542D01*
X65627628Y-61977541D01*
X65573543Y-62031627D01*
X65573541Y-62031630D01*
X65535299Y-62097866D01*
X65535295Y-62097875D01*
X65515500Y-62171752D01*
X65515500Y-62433300D01*
X65493826Y-62485626D01*
X65441500Y-62507300D01*
X65136252Y-62507300D01*
X65107010Y-62513116D01*
X65077767Y-62518933D01*
X65077765Y-62518934D01*
X65072108Y-62522714D01*
X65016559Y-62533760D01*
X64989895Y-62522717D01*
X64989395Y-62522383D01*
X64957924Y-62475295D01*
X64956500Y-62460849D01*
X64956500Y-60470016D01*
X64978174Y-60417690D01*
X65030500Y-60396016D01*
X65070503Y-60407761D01*
G37*
%TD.AperFunction*%
%TD*%
M02*
