M48
; DRILL file {KiCad 8.0.1} date 2024-03-21T20:23:13-0400
; FORMAT={-:-/ absolute / inch / decimal}
; #@! TF.CreationDate,2024-03-21T20:23:13-04:00
; #@! TF.GenerationSoftware,Kicad,Pcbnew,8.0.1
; #@! TF.FileFunction,Plated,1,2,PTH
FMAT,2
INCH
; #@! TA.AperFunction,Plated,PTH,ViaDrill
T1C0.0118
; #@! TA.AperFunction,Plated,PTH,ComponentDrill
T2C0.0236
%
G90
G05
T1
X2.244Y-2.556
X2.266Y-2.378
X2.2884Y-2.588
X2.366Y-2.544
X2.404Y-2.324
X2.414Y-2.452
X2.428Y-2.614
X2.498Y-2.698
X2.538Y-2.57
X2.545Y-2.685
X2.57Y-2.73
X2.5732Y-2.3622
X2.574Y-2.426
X2.584Y-2.77
X2.5969Y-2.3858
X2.598Y-2.704
X2.598Y-2.982
X2.616Y-2.424
X2.64Y-3.07
X2.658Y-2.69
X2.658Y-2.928
X2.658Y-2.988
X2.6597Y-2.3982
X2.6833Y-2.4218
X2.698Y-2.768
X2.7Y-2.3536
X2.7Y-2.984
X2.73Y-2.696
X2.766Y-2.432
X2.77Y-2.8
X2.82Y-2.57
X2.846Y-2.532
X2.85Y-2.5907
X2.8773Y-2.3367
X2.892Y-2.366
X2.98Y-2.386
X2.982Y-2.454
X2.99Y-2.338
X3.033Y-2.558
T2
G00X2.4699Y-2.2877
M15
G01X2.4699Y-2.335
M16
G05
G00X2.4699Y-2.4531
M15
G01X2.4699Y-2.4846
M16
G05
G00X2.8101Y-2.2877
M15
G01X2.8101Y-2.335
M16
G05
G00X2.8101Y-2.4531
M15
G01X2.8101Y-2.4846
M16
G05
M30
