%TF.GenerationSoftware,KiCad,Pcbnew,(5.1.10)-1*%
%TF.CreationDate,2022-04-16T23:27:38-04:00*%
%TF.ProjectId,001,3030312e-6b69-4636-9164-5f7063625858,rev?*%
%TF.SameCoordinates,Original*%
%TF.FileFunction,Copper,L2,Bot*%
%TF.FilePolarity,Positive*%
%FSLAX46Y46*%
G04 Gerber Fmt 4.6, Leading zero omitted, Abs format (unit mm)*
G04 Created by KiCad (PCBNEW (5.1.10)-1) date 2022-04-16 23:27:38*
%MOMM*%
%LPD*%
G01*
G04 APERTURE LIST*
%TA.AperFunction,SMDPad,CuDef*%
%ADD10R,0.600000X1.450000*%
%TD*%
%TA.AperFunction,SMDPad,CuDef*%
%ADD11R,0.300000X1.450000*%
%TD*%
%TA.AperFunction,ComponentPad*%
%ADD12O,1.000000X2.100000*%
%TD*%
%TA.AperFunction,ComponentPad*%
%ADD13O,1.000000X1.600000*%
%TD*%
%TA.AperFunction,ViaPad*%
%ADD14C,0.400000*%
%TD*%
%TA.AperFunction,Conductor*%
%ADD15C,0.200000*%
%TD*%
%TA.AperFunction,Conductor*%
%ADD16C,0.250000*%
%TD*%
%TA.AperFunction,Conductor*%
%ADD17C,0.100000*%
%TD*%
G04 APERTURE END LIST*
D10*
%TO.P,J1,B1*%
%TO.N,GND*%
X123154900Y-59515900D03*
%TO.P,J1,A9*%
%TO.N,VCC*%
X122354900Y-59515900D03*
%TO.P,J1,B9*%
X117454900Y-59515900D03*
%TO.P,J1,B12*%
%TO.N,GND*%
X116654900Y-59515900D03*
%TO.P,J1,A1*%
X116654900Y-59515900D03*
%TO.P,J1,A4*%
%TO.N,VCC*%
X117454900Y-59515900D03*
%TO.P,J1,B4*%
X122354900Y-59515900D03*
%TO.P,J1,A12*%
%TO.N,GND*%
X123154900Y-59515900D03*
D11*
%TO.P,J1,B8*%
%TO.N,Net-(J1-PadB8)*%
X118154900Y-59515900D03*
%TO.P,J1,A5*%
%TO.N,Net-(J1-PadA5)*%
X118654900Y-59515900D03*
%TO.P,J1,B7*%
%TO.N,/d-*%
X119154900Y-59515900D03*
%TO.P,J1,A7*%
X120154900Y-59515900D03*
%TO.P,J1,B6*%
%TO.N,/d+*%
X120654900Y-59515900D03*
%TO.P,J1,A8*%
%TO.N,Net-(J1-PadA8)*%
X121154900Y-59515900D03*
%TO.P,J1,B5*%
%TO.N,Net-(J1-PadB5)*%
X121654900Y-59515900D03*
%TO.P,J1,A6*%
%TO.N,/d+*%
X119654900Y-59515900D03*
D12*
%TO.P,J1,S1*%
%TO.N,GND*%
X124224900Y-58600900D03*
X115584900Y-58600900D03*
D13*
X115584900Y-54420900D03*
X124224900Y-54420900D03*
%TD*%
D14*
%TO.N,GND*%
X106807000Y-59055000D03*
X106680000Y-56515000D03*
X109982000Y-58674000D03*
X110744000Y-59436000D03*
X112268000Y-59944000D03*
X113665000Y-59436000D03*
X114427000Y-58674000D03*
X116459000Y-57277000D03*
X118110000Y-57277000D03*
X119380000Y-57785000D03*
X121158000Y-58039000D03*
X121031000Y-56642000D03*
X119888000Y-55499000D03*
X120015000Y-61087000D03*
X118618000Y-60960000D03*
X113538000Y-63881000D03*
X115443000Y-65786000D03*
X117094000Y-67437000D03*
X123571000Y-70739000D03*
X123825000Y-67183000D03*
X123825000Y-62865000D03*
X115062000Y-61595000D03*
X116967000Y-61976000D03*
X119253000Y-62230000D03*
X122428000Y-56769000D03*
X122047000Y-55499000D03*
X117221000Y-55499000D03*
X114554000Y-55753000D03*
X114046000Y-56388000D03*
X110871000Y-56261000D03*
X109982000Y-55880000D03*
X109093000Y-62865000D03*
X111379000Y-61341000D03*
X110236000Y-57277000D03*
X121666000Y-70739000D03*
X121920000Y-68326000D03*
X119761000Y-68961000D03*
X122047000Y-66675000D03*
X122047000Y-63754000D03*
X120904000Y-62738000D03*
X105110000Y-63460000D03*
X107420000Y-63560000D03*
%TO.N,Net-(J1-PadB5)*%
X120777000Y-55245000D03*
%TO.N,Net-(J1-PadA5)*%
X118999000Y-55245000D03*
%TO.N,/d-*%
X119658190Y-56998810D03*
%TO.N,/d+*%
X120117810Y-56539190D03*
%TO.N,VCC*%
X114546168Y-60779632D03*
X121034901Y-61595901D03*
%TO.N,/R*%
X107027160Y-60624599D03*
X109626341Y-61120901D03*
%TO.N,/Annode*%
X116954900Y-73250000D03*
X122854900Y-73250000D03*
%TD*%
D15*
%TO.N,Net-(J1-PadB5)*%
X121654900Y-56122900D02*
X120777000Y-55245000D01*
X121654900Y-59515900D02*
X121654900Y-56122900D01*
%TO.N,Net-(J1-PadA5)*%
X118654900Y-55589100D02*
X118999000Y-55245000D01*
X118654900Y-59515900D02*
X118654900Y-55589100D01*
%TO.N,/d-*%
X120154900Y-58600898D02*
X120154900Y-59515900D01*
X119254901Y-58490899D02*
X120044901Y-58490899D01*
X120044901Y-58490899D02*
X120154900Y-58600898D01*
X119154900Y-58590900D02*
X119254901Y-58490899D01*
X119154900Y-59515900D02*
X119154900Y-58590900D01*
X119658190Y-56998810D02*
X119799611Y-56998810D01*
X120154900Y-59515900D02*
X120154900Y-57354100D01*
X119799611Y-56998810D02*
X120046400Y-57245600D01*
X120154900Y-57354100D02*
X120046400Y-57245600D01*
%TO.N,/d+*%
X119654900Y-60430902D02*
X119654900Y-59515900D01*
X119764899Y-60540901D02*
X119654900Y-60430902D01*
X120554899Y-60540901D02*
X119764899Y-60540901D01*
X120654900Y-60440900D02*
X120554899Y-60540901D01*
X120654900Y-59515900D02*
X120654900Y-60440900D01*
X120629900Y-59490900D02*
X120654900Y-59515900D01*
X120629900Y-57192701D02*
X120629900Y-59490900D01*
X120117810Y-56680611D02*
X120629900Y-57192701D01*
X120117810Y-56539190D02*
X120117810Y-56680611D01*
D16*
%TO.N,VCC*%
X122354900Y-59515900D02*
X122354900Y-60275902D01*
X122354900Y-60275902D02*
X121034901Y-61595901D01*
X114546168Y-60779632D02*
X117001170Y-60779632D01*
X117001170Y-60779632D02*
X117454900Y-60325902D01*
X117454900Y-60325902D02*
X117454900Y-59515900D01*
X121034901Y-61595901D02*
X117817439Y-61595901D01*
X117817439Y-61595901D02*
X117001170Y-60779632D01*
D15*
%TO.N,/R*%
X109626341Y-61120901D02*
X108618901Y-61120901D01*
X108122599Y-60624599D02*
X107027160Y-60624599D01*
X108618901Y-61120901D02*
X108122599Y-60624599D01*
D16*
%TO.N,/Annode*%
X116954900Y-73250000D02*
X122854900Y-73250000D01*
%TD*%
D15*
%TO.N,GND*%
X129088000Y-64258884D02*
X123984482Y-69610983D01*
X123975080Y-69618699D01*
X123962452Y-69634085D01*
X123959779Y-69636889D01*
X123952322Y-69646429D01*
X123934466Y-69668186D01*
X123932629Y-69671623D01*
X123930230Y-69674692D01*
X123917555Y-69699824D01*
X123904288Y-69724646D01*
X123903157Y-69728374D01*
X123901402Y-69731854D01*
X123893866Y-69759002D01*
X123885704Y-69785909D01*
X123885323Y-69789780D01*
X123884279Y-69793540D01*
X123882185Y-69821642D01*
X123881001Y-69833659D01*
X123881001Y-69837523D01*
X123879521Y-69857381D01*
X123881001Y-69869458D01*
X123881000Y-75049500D01*
X115958500Y-75049500D01*
X115958500Y-73200754D01*
X116454900Y-73200754D01*
X116454900Y-73299246D01*
X116474115Y-73395845D01*
X116511806Y-73486839D01*
X116566525Y-73568731D01*
X116636169Y-73638375D01*
X116718061Y-73693094D01*
X116809055Y-73730785D01*
X116905654Y-73750000D01*
X117004146Y-73750000D01*
X117100745Y-73730785D01*
X117191739Y-73693094D01*
X117218818Y-73675000D01*
X122590982Y-73675000D01*
X122618061Y-73693094D01*
X122709055Y-73730785D01*
X122805654Y-73750000D01*
X122904146Y-73750000D01*
X123000745Y-73730785D01*
X123091739Y-73693094D01*
X123173631Y-73638375D01*
X123243275Y-73568731D01*
X123297994Y-73486839D01*
X123335685Y-73395845D01*
X123354900Y-73299246D01*
X123354900Y-73200754D01*
X123335685Y-73104155D01*
X123297994Y-73013161D01*
X123243275Y-72931269D01*
X123173631Y-72861625D01*
X123091739Y-72806906D01*
X123000745Y-72769215D01*
X122904146Y-72750000D01*
X122805654Y-72750000D01*
X122709055Y-72769215D01*
X122618061Y-72806906D01*
X122590982Y-72825000D01*
X117218818Y-72825000D01*
X117191739Y-72806906D01*
X117100745Y-72769215D01*
X117004146Y-72750000D01*
X116905654Y-72750000D01*
X116809055Y-72769215D01*
X116718061Y-72806906D01*
X116636169Y-72861625D01*
X116566525Y-72931269D01*
X116511806Y-73013161D01*
X116474115Y-73104155D01*
X116454900Y-73200754D01*
X115958500Y-73200754D01*
X115958500Y-69870776D01*
X115959928Y-69859657D01*
X115958500Y-69838868D01*
X115958500Y-69834039D01*
X115957404Y-69822911D01*
X115955541Y-69795789D01*
X115954272Y-69791112D01*
X115953797Y-69786289D01*
X115945901Y-69760260D01*
X115938777Y-69734003D01*
X115936619Y-69729663D01*
X115935213Y-69725026D01*
X115922388Y-69701031D01*
X115910281Y-69676675D01*
X115907321Y-69672842D01*
X115905035Y-69668566D01*
X115887765Y-69647524D01*
X115880952Y-69638702D01*
X115877653Y-69635202D01*
X115864421Y-69619079D01*
X115855748Y-69611961D01*
X110670654Y-64110702D01*
X110657421Y-64094579D01*
X110636379Y-64077310D01*
X110615884Y-64059450D01*
X110611684Y-64057043D01*
X110607934Y-64053965D01*
X110583918Y-64041129D01*
X110560341Y-64027615D01*
X110555750Y-64026073D01*
X110551474Y-64023787D01*
X110525438Y-64015889D01*
X110499655Y-64007227D01*
X110494848Y-64006610D01*
X110490211Y-64005203D01*
X110463117Y-64002534D01*
X110436157Y-63999072D01*
X110415368Y-64000500D01*
X104465000Y-64000500D01*
X104465000Y-62112486D01*
X111516617Y-62112486D01*
X111516617Y-62385954D01*
X111569968Y-62654167D01*
X111674620Y-62906818D01*
X111826550Y-63134199D01*
X112019921Y-63327570D01*
X112247302Y-63479500D01*
X112499953Y-63584152D01*
X112768166Y-63637503D01*
X113041634Y-63637503D01*
X113309847Y-63584152D01*
X113562498Y-63479500D01*
X113789879Y-63327570D01*
X113983250Y-63134199D01*
X114135180Y-62906818D01*
X114239832Y-62654167D01*
X114293183Y-62385954D01*
X114293183Y-62227096D01*
X124681263Y-62227096D01*
X124681469Y-62256556D01*
X124681264Y-62286005D01*
X124681706Y-62290521D01*
X124703126Y-62494323D01*
X124709049Y-62523178D01*
X124714569Y-62552113D01*
X124715881Y-62556458D01*
X124776479Y-62752217D01*
X124787898Y-62779381D01*
X124798928Y-62806681D01*
X124801058Y-62810689D01*
X124898525Y-62990951D01*
X124914992Y-63015363D01*
X124931126Y-63040019D01*
X124933994Y-63043536D01*
X125064617Y-63201432D01*
X125085511Y-63222180D01*
X125106128Y-63243233D01*
X125109625Y-63246126D01*
X125268429Y-63375644D01*
X125292974Y-63391951D01*
X125317269Y-63408586D01*
X125321261Y-63410745D01*
X125502198Y-63506951D01*
X125529412Y-63518167D01*
X125556505Y-63529779D01*
X125560840Y-63531122D01*
X125757018Y-63590352D01*
X125785916Y-63596074D01*
X125814726Y-63602197D01*
X125819240Y-63602672D01*
X126023186Y-63622669D01*
X126023192Y-63622669D01*
X126038939Y-63624220D01*
X127270861Y-63624220D01*
X127287644Y-63622567D01*
X127301275Y-63622567D01*
X127305788Y-63622093D01*
X127509435Y-63599250D01*
X127538225Y-63593130D01*
X127567142Y-63587404D01*
X127571477Y-63586062D01*
X127766809Y-63524099D01*
X127793841Y-63512512D01*
X127821117Y-63501270D01*
X127825109Y-63499111D01*
X128004685Y-63400388D01*
X128028992Y-63383745D01*
X128053523Y-63367446D01*
X128057020Y-63364554D01*
X128214002Y-63232832D01*
X128234607Y-63211790D01*
X128255512Y-63191030D01*
X128258381Y-63187513D01*
X128386788Y-63027808D01*
X128402924Y-63003149D01*
X128419389Y-62978739D01*
X128421519Y-62974732D01*
X128516459Y-62793128D01*
X128527476Y-62765859D01*
X128538908Y-62738663D01*
X128540220Y-62734318D01*
X128598079Y-62537731D01*
X128603600Y-62508790D01*
X128609521Y-62479941D01*
X128609965Y-62475424D01*
X128628537Y-62271345D01*
X128628331Y-62241885D01*
X128628536Y-62212436D01*
X128628094Y-62207919D01*
X128606674Y-62004117D01*
X128600751Y-61975263D01*
X128595231Y-61946327D01*
X128593919Y-61941983D01*
X128533321Y-61746223D01*
X128521907Y-61719071D01*
X128510872Y-61691759D01*
X128508742Y-61687752D01*
X128411275Y-61507489D01*
X128394808Y-61483077D01*
X128378674Y-61458421D01*
X128375806Y-61454904D01*
X128245183Y-61297008D01*
X128224272Y-61276243D01*
X128203672Y-61255207D01*
X128200175Y-61252314D01*
X128041370Y-61122796D01*
X128016821Y-61106485D01*
X127992531Y-61089854D01*
X127988539Y-61087695D01*
X127807602Y-60991489D01*
X127780420Y-60980286D01*
X127753295Y-60968660D01*
X127748960Y-60967318D01*
X127552782Y-60908088D01*
X127523884Y-60902366D01*
X127495074Y-60896243D01*
X127490560Y-60895768D01*
X127286614Y-60875771D01*
X127286608Y-60875771D01*
X127270861Y-60874220D01*
X126038939Y-60874220D01*
X126022156Y-60875873D01*
X126008525Y-60875873D01*
X126004012Y-60876347D01*
X125800365Y-60899190D01*
X125771538Y-60905318D01*
X125742658Y-60911037D01*
X125738322Y-60912378D01*
X125542991Y-60974341D01*
X125515947Y-60985933D01*
X125488683Y-60997170D01*
X125484691Y-60999328D01*
X125305115Y-61098052D01*
X125280834Y-61114677D01*
X125256277Y-61130993D01*
X125252780Y-61133886D01*
X125095799Y-61265608D01*
X125075196Y-61286647D01*
X125054288Y-61307410D01*
X125051419Y-61310927D01*
X124923012Y-61470633D01*
X124906876Y-61495292D01*
X124890411Y-61519702D01*
X124888280Y-61523709D01*
X124793341Y-61705312D01*
X124782312Y-61732610D01*
X124770892Y-61759777D01*
X124769580Y-61764121D01*
X124711721Y-61960709D01*
X124706199Y-61989656D01*
X124700279Y-62018499D01*
X124699835Y-62023016D01*
X124681263Y-62227096D01*
X114293183Y-62227096D01*
X114293183Y-62112486D01*
X114239832Y-61844273D01*
X114135180Y-61591622D01*
X113983250Y-61364241D01*
X113789879Y-61170870D01*
X113562498Y-61018940D01*
X113309847Y-60914288D01*
X113041634Y-60860937D01*
X112768166Y-60860937D01*
X112499953Y-60914288D01*
X112247302Y-61018940D01*
X112019921Y-61170870D01*
X111826550Y-61364241D01*
X111674620Y-61591622D01*
X111569968Y-61844273D01*
X111516617Y-62112486D01*
X104465000Y-62112486D01*
X104465000Y-60575353D01*
X106527160Y-60575353D01*
X106527160Y-60673845D01*
X106546375Y-60770444D01*
X106584066Y-60861438D01*
X106638785Y-60943330D01*
X106708429Y-61012974D01*
X106790321Y-61067693D01*
X106881315Y-61105384D01*
X106977914Y-61124599D01*
X107076406Y-61124599D01*
X107173005Y-61105384D01*
X107263999Y-61067693D01*
X107328493Y-61024599D01*
X107956914Y-61024599D01*
X108322168Y-61389854D01*
X108334690Y-61405112D01*
X108349948Y-61417634D01*
X108349950Y-61417636D01*
X108389454Y-61450056D01*
X108395598Y-61455098D01*
X108465087Y-61492241D01*
X108521245Y-61509276D01*
X108540487Y-61515113D01*
X108618900Y-61522836D01*
X108638547Y-61520901D01*
X109325008Y-61520901D01*
X109389502Y-61563995D01*
X109480496Y-61601686D01*
X109577095Y-61620901D01*
X109675587Y-61620901D01*
X109772186Y-61601686D01*
X109863180Y-61563995D01*
X109945072Y-61509276D01*
X110014716Y-61439632D01*
X110069435Y-61357740D01*
X110107126Y-61266746D01*
X110126341Y-61170147D01*
X110126341Y-61071655D01*
X110107126Y-60975056D01*
X110069435Y-60884062D01*
X110014716Y-60802170D01*
X109945072Y-60732526D01*
X109941870Y-60730386D01*
X114046168Y-60730386D01*
X114046168Y-60828878D01*
X114065383Y-60925477D01*
X114103074Y-61016471D01*
X114157793Y-61098363D01*
X114227437Y-61168007D01*
X114309329Y-61222726D01*
X114400323Y-61260417D01*
X114496922Y-61279632D01*
X114595414Y-61279632D01*
X114692013Y-61260417D01*
X114783007Y-61222726D01*
X114810086Y-61204632D01*
X116825130Y-61204632D01*
X117502160Y-61881663D01*
X117515465Y-61897875D01*
X117531677Y-61911180D01*
X117531678Y-61911181D01*
X117535883Y-61914632D01*
X117580179Y-61950985D01*
X117628294Y-61976702D01*
X117654011Y-61990449D01*
X117699066Y-62004116D01*
X117734125Y-62014751D01*
X117796565Y-62020901D01*
X117796572Y-62020901D01*
X117817439Y-62022956D01*
X117838306Y-62020901D01*
X120770983Y-62020901D01*
X120798062Y-62038995D01*
X120889056Y-62076686D01*
X120985655Y-62095901D01*
X121084147Y-62095901D01*
X121180746Y-62076686D01*
X121271740Y-62038995D01*
X121353632Y-61984276D01*
X121423276Y-61914632D01*
X121477995Y-61832740D01*
X121515686Y-61741746D01*
X121522040Y-61709802D01*
X122640662Y-60591181D01*
X122656874Y-60577876D01*
X122688766Y-60539016D01*
X122713710Y-60536559D01*
X122770260Y-60519404D01*
X122822377Y-60491547D01*
X122868058Y-60454058D01*
X122905547Y-60408377D01*
X122933404Y-60356260D01*
X122950559Y-60299710D01*
X122956351Y-60240900D01*
X122956351Y-58790900D01*
X122950559Y-58732090D01*
X122934850Y-58680306D01*
X122977206Y-58671881D01*
X123090948Y-58624768D01*
X123193314Y-58556369D01*
X123280369Y-58469314D01*
X123348768Y-58366948D01*
X123395881Y-58253206D01*
X123419900Y-58132457D01*
X123419900Y-58009343D01*
X123395881Y-57888594D01*
X123348768Y-57774852D01*
X123280369Y-57672486D01*
X123193314Y-57585431D01*
X123090948Y-57517032D01*
X122977206Y-57469919D01*
X122856457Y-57445900D01*
X122733343Y-57445900D01*
X122612594Y-57469919D01*
X122498852Y-57517032D01*
X122396486Y-57585431D01*
X122309431Y-57672486D01*
X122241032Y-57774852D01*
X122193919Y-57888594D01*
X122169900Y-58009343D01*
X122169900Y-58132457D01*
X122193919Y-58253206D01*
X122241032Y-58366948D01*
X122309431Y-58469314D01*
X122329566Y-58489449D01*
X122054900Y-58489449D01*
X122054900Y-56707585D01*
X125964078Y-56707585D01*
X125964078Y-56990855D01*
X126019341Y-57268681D01*
X126127744Y-57530388D01*
X126285120Y-57765918D01*
X126485422Y-57966220D01*
X126720952Y-58123596D01*
X126982659Y-58231999D01*
X127260485Y-58287262D01*
X127543755Y-58287262D01*
X127821581Y-58231999D01*
X128083288Y-58123596D01*
X128318818Y-57966220D01*
X128519120Y-57765918D01*
X128676496Y-57530388D01*
X128784899Y-57268681D01*
X128840162Y-56990855D01*
X128840162Y-56707585D01*
X128784899Y-56429759D01*
X128676496Y-56168052D01*
X128519120Y-55932522D01*
X128318818Y-55732220D01*
X128083288Y-55574844D01*
X127821581Y-55466441D01*
X127543755Y-55411178D01*
X127260485Y-55411178D01*
X126982659Y-55466441D01*
X126720952Y-55574844D01*
X126485422Y-55732220D01*
X126285120Y-55932522D01*
X126127744Y-56168052D01*
X126019341Y-56429759D01*
X125964078Y-56707585D01*
X122054900Y-56707585D01*
X122054900Y-56142535D01*
X122056834Y-56122899D01*
X122054900Y-56103263D01*
X122054900Y-56103253D01*
X122049112Y-56044486D01*
X122026240Y-55969086D01*
X121989097Y-55899597D01*
X121939111Y-55838689D01*
X121923853Y-55826167D01*
X121272918Y-55175233D01*
X121257785Y-55099155D01*
X121220094Y-55008161D01*
X121165375Y-54926269D01*
X121095731Y-54856625D01*
X121013839Y-54801906D01*
X120922845Y-54764215D01*
X120826246Y-54745000D01*
X120727754Y-54745000D01*
X120631155Y-54764215D01*
X120540161Y-54801906D01*
X120458269Y-54856625D01*
X120388625Y-54926269D01*
X120333906Y-55008161D01*
X120296215Y-55099155D01*
X120277000Y-55195754D01*
X120277000Y-55294246D01*
X120296215Y-55390845D01*
X120333906Y-55481839D01*
X120388625Y-55563731D01*
X120458269Y-55633375D01*
X120540161Y-55688094D01*
X120631155Y-55725785D01*
X120707233Y-55740918D01*
X121254901Y-56288587D01*
X121254900Y-58489449D01*
X121029900Y-58489449D01*
X121029900Y-57212348D01*
X121031835Y-57192701D01*
X121024112Y-57114287D01*
X121001240Y-57038887D01*
X120964097Y-56969398D01*
X120949954Y-56952165D01*
X120914111Y-56908490D01*
X120898849Y-56895965D01*
X120613415Y-56610531D01*
X120617810Y-56588436D01*
X120617810Y-56489944D01*
X120598595Y-56393345D01*
X120560904Y-56302351D01*
X120506185Y-56220459D01*
X120436541Y-56150815D01*
X120354649Y-56096096D01*
X120263655Y-56058405D01*
X120167056Y-56039190D01*
X120068564Y-56039190D01*
X119971965Y-56058405D01*
X119880971Y-56096096D01*
X119799079Y-56150815D01*
X119729435Y-56220459D01*
X119674716Y-56302351D01*
X119637025Y-56393345D01*
X119617810Y-56489944D01*
X119617810Y-56498810D01*
X119608944Y-56498810D01*
X119512345Y-56518025D01*
X119421351Y-56555716D01*
X119339459Y-56610435D01*
X119269815Y-56680079D01*
X119215096Y-56761971D01*
X119177405Y-56852965D01*
X119158190Y-56949564D01*
X119158190Y-57048056D01*
X119177405Y-57144655D01*
X119215096Y-57235649D01*
X119269815Y-57317541D01*
X119339459Y-57387185D01*
X119421351Y-57441904D01*
X119512345Y-57479595D01*
X119608944Y-57498810D01*
X119707436Y-57498810D01*
X119729531Y-57494415D01*
X119749660Y-57514544D01*
X119749665Y-57514550D01*
X119754901Y-57519786D01*
X119754901Y-58090899D01*
X119274548Y-58090899D01*
X119254901Y-58088964D01*
X119235254Y-58090899D01*
X119176487Y-58096687D01*
X119101087Y-58119559D01*
X119054900Y-58144247D01*
X119054900Y-55754785D01*
X119068767Y-55740918D01*
X119144845Y-55725785D01*
X119235839Y-55688094D01*
X119317731Y-55633375D01*
X119387375Y-55563731D01*
X119442094Y-55481839D01*
X119479785Y-55390845D01*
X119499000Y-55294246D01*
X119499000Y-55195754D01*
X119479785Y-55099155D01*
X119442094Y-55008161D01*
X119387375Y-54926269D01*
X119317731Y-54856625D01*
X119235839Y-54801906D01*
X119144845Y-54764215D01*
X119048246Y-54745000D01*
X118949754Y-54745000D01*
X118853155Y-54764215D01*
X118762161Y-54801906D01*
X118680269Y-54856625D01*
X118610625Y-54926269D01*
X118555906Y-55008161D01*
X118518215Y-55099155D01*
X118503082Y-55175233D01*
X118385947Y-55292368D01*
X118370690Y-55304889D01*
X118358168Y-55320147D01*
X118358165Y-55320150D01*
X118320703Y-55365798D01*
X118283561Y-55435286D01*
X118260688Y-55510687D01*
X118252965Y-55589100D01*
X118254901Y-55608756D01*
X118254900Y-58489449D01*
X118004900Y-58489449D01*
X117946090Y-58495241D01*
X117889540Y-58512396D01*
X117879900Y-58517549D01*
X117870260Y-58512396D01*
X117813710Y-58495241D01*
X117754900Y-58489449D01*
X117480234Y-58489449D01*
X117500369Y-58469314D01*
X117568768Y-58366948D01*
X117615881Y-58253206D01*
X117639900Y-58132457D01*
X117639900Y-58009343D01*
X117615881Y-57888594D01*
X117568768Y-57774852D01*
X117500369Y-57672486D01*
X117413314Y-57585431D01*
X117310948Y-57517032D01*
X117197206Y-57469919D01*
X117076457Y-57445900D01*
X116953343Y-57445900D01*
X116832594Y-57469919D01*
X116718852Y-57517032D01*
X116616486Y-57585431D01*
X116529431Y-57672486D01*
X116461032Y-57774852D01*
X116413919Y-57888594D01*
X116389900Y-58009343D01*
X116389900Y-58132457D01*
X116413919Y-58253206D01*
X116461032Y-58366948D01*
X116529431Y-58469314D01*
X116616486Y-58556369D01*
X116718852Y-58624768D01*
X116832594Y-58671881D01*
X116874950Y-58680306D01*
X116859241Y-58732090D01*
X116853449Y-58790900D01*
X116853449Y-60240900D01*
X116859241Y-60299710D01*
X116864085Y-60315677D01*
X116825130Y-60354632D01*
X114810086Y-60354632D01*
X114783007Y-60336538D01*
X114692013Y-60298847D01*
X114595414Y-60279632D01*
X114496922Y-60279632D01*
X114400323Y-60298847D01*
X114309329Y-60336538D01*
X114227437Y-60391257D01*
X114157793Y-60460901D01*
X114103074Y-60542793D01*
X114065383Y-60633787D01*
X114046168Y-60730386D01*
X109941870Y-60730386D01*
X109863180Y-60677807D01*
X109772186Y-60640116D01*
X109675587Y-60620901D01*
X109577095Y-60620901D01*
X109480496Y-60640116D01*
X109389502Y-60677807D01*
X109325008Y-60720901D01*
X108784587Y-60720901D01*
X108419336Y-60355651D01*
X108406810Y-60340388D01*
X108345902Y-60290402D01*
X108276413Y-60253259D01*
X108201013Y-60230387D01*
X108142246Y-60224599D01*
X108142245Y-60224599D01*
X108122599Y-60222664D01*
X108102953Y-60224599D01*
X107328493Y-60224599D01*
X107263999Y-60181505D01*
X107173005Y-60143814D01*
X107076406Y-60124599D01*
X106977914Y-60124599D01*
X106881315Y-60143814D01*
X106790321Y-60181505D01*
X106708429Y-60236224D01*
X106638785Y-60305868D01*
X106584066Y-60387760D01*
X106546375Y-60478754D01*
X106527160Y-60575353D01*
X104465000Y-60575353D01*
X104465000Y-56707585D01*
X110964078Y-56707585D01*
X110964078Y-56990855D01*
X111019341Y-57268681D01*
X111127744Y-57530388D01*
X111285120Y-57765918D01*
X111485422Y-57966220D01*
X111720952Y-58123596D01*
X111982659Y-58231999D01*
X112260485Y-58287262D01*
X112543755Y-58287262D01*
X112821581Y-58231999D01*
X113083288Y-58123596D01*
X113318818Y-57966220D01*
X113519120Y-57765918D01*
X113676496Y-57530388D01*
X113784899Y-57268681D01*
X113840162Y-56990855D01*
X113840162Y-56707585D01*
X113784899Y-56429759D01*
X113676496Y-56168052D01*
X113519120Y-55932522D01*
X113318818Y-55732220D01*
X113083288Y-55574844D01*
X112821581Y-55466441D01*
X112543755Y-55411178D01*
X112260485Y-55411178D01*
X111982659Y-55466441D01*
X111720952Y-55574844D01*
X111485422Y-55732220D01*
X111285120Y-55932522D01*
X111127744Y-56168052D01*
X111019341Y-56429759D01*
X110964078Y-56707585D01*
X104465000Y-56707585D01*
X104465000Y-53665000D01*
X129088001Y-53665000D01*
X129088000Y-64258884D01*
%TA.AperFunction,Conductor*%
D17*
G36*
X129088000Y-64258884D02*
G01*
X123984482Y-69610983D01*
X123975080Y-69618699D01*
X123962452Y-69634085D01*
X123959779Y-69636889D01*
X123952322Y-69646429D01*
X123934466Y-69668186D01*
X123932629Y-69671623D01*
X123930230Y-69674692D01*
X123917555Y-69699824D01*
X123904288Y-69724646D01*
X123903157Y-69728374D01*
X123901402Y-69731854D01*
X123893866Y-69759002D01*
X123885704Y-69785909D01*
X123885323Y-69789780D01*
X123884279Y-69793540D01*
X123882185Y-69821642D01*
X123881001Y-69833659D01*
X123881001Y-69837523D01*
X123879521Y-69857381D01*
X123881001Y-69869458D01*
X123881000Y-75049500D01*
X115958500Y-75049500D01*
X115958500Y-73200754D01*
X116454900Y-73200754D01*
X116454900Y-73299246D01*
X116474115Y-73395845D01*
X116511806Y-73486839D01*
X116566525Y-73568731D01*
X116636169Y-73638375D01*
X116718061Y-73693094D01*
X116809055Y-73730785D01*
X116905654Y-73750000D01*
X117004146Y-73750000D01*
X117100745Y-73730785D01*
X117191739Y-73693094D01*
X117218818Y-73675000D01*
X122590982Y-73675000D01*
X122618061Y-73693094D01*
X122709055Y-73730785D01*
X122805654Y-73750000D01*
X122904146Y-73750000D01*
X123000745Y-73730785D01*
X123091739Y-73693094D01*
X123173631Y-73638375D01*
X123243275Y-73568731D01*
X123297994Y-73486839D01*
X123335685Y-73395845D01*
X123354900Y-73299246D01*
X123354900Y-73200754D01*
X123335685Y-73104155D01*
X123297994Y-73013161D01*
X123243275Y-72931269D01*
X123173631Y-72861625D01*
X123091739Y-72806906D01*
X123000745Y-72769215D01*
X122904146Y-72750000D01*
X122805654Y-72750000D01*
X122709055Y-72769215D01*
X122618061Y-72806906D01*
X122590982Y-72825000D01*
X117218818Y-72825000D01*
X117191739Y-72806906D01*
X117100745Y-72769215D01*
X117004146Y-72750000D01*
X116905654Y-72750000D01*
X116809055Y-72769215D01*
X116718061Y-72806906D01*
X116636169Y-72861625D01*
X116566525Y-72931269D01*
X116511806Y-73013161D01*
X116474115Y-73104155D01*
X116454900Y-73200754D01*
X115958500Y-73200754D01*
X115958500Y-69870776D01*
X115959928Y-69859657D01*
X115958500Y-69838868D01*
X115958500Y-69834039D01*
X115957404Y-69822911D01*
X115955541Y-69795789D01*
X115954272Y-69791112D01*
X115953797Y-69786289D01*
X115945901Y-69760260D01*
X115938777Y-69734003D01*
X115936619Y-69729663D01*
X115935213Y-69725026D01*
X115922388Y-69701031D01*
X115910281Y-69676675D01*
X115907321Y-69672842D01*
X115905035Y-69668566D01*
X115887765Y-69647524D01*
X115880952Y-69638702D01*
X115877653Y-69635202D01*
X115864421Y-69619079D01*
X115855748Y-69611961D01*
X110670654Y-64110702D01*
X110657421Y-64094579D01*
X110636379Y-64077310D01*
X110615884Y-64059450D01*
X110611684Y-64057043D01*
X110607934Y-64053965D01*
X110583918Y-64041129D01*
X110560341Y-64027615D01*
X110555750Y-64026073D01*
X110551474Y-64023787D01*
X110525438Y-64015889D01*
X110499655Y-64007227D01*
X110494848Y-64006610D01*
X110490211Y-64005203D01*
X110463117Y-64002534D01*
X110436157Y-63999072D01*
X110415368Y-64000500D01*
X104465000Y-64000500D01*
X104465000Y-62112486D01*
X111516617Y-62112486D01*
X111516617Y-62385954D01*
X111569968Y-62654167D01*
X111674620Y-62906818D01*
X111826550Y-63134199D01*
X112019921Y-63327570D01*
X112247302Y-63479500D01*
X112499953Y-63584152D01*
X112768166Y-63637503D01*
X113041634Y-63637503D01*
X113309847Y-63584152D01*
X113562498Y-63479500D01*
X113789879Y-63327570D01*
X113983250Y-63134199D01*
X114135180Y-62906818D01*
X114239832Y-62654167D01*
X114293183Y-62385954D01*
X114293183Y-62227096D01*
X124681263Y-62227096D01*
X124681469Y-62256556D01*
X124681264Y-62286005D01*
X124681706Y-62290521D01*
X124703126Y-62494323D01*
X124709049Y-62523178D01*
X124714569Y-62552113D01*
X124715881Y-62556458D01*
X124776479Y-62752217D01*
X124787898Y-62779381D01*
X124798928Y-62806681D01*
X124801058Y-62810689D01*
X124898525Y-62990951D01*
X124914992Y-63015363D01*
X124931126Y-63040019D01*
X124933994Y-63043536D01*
X125064617Y-63201432D01*
X125085511Y-63222180D01*
X125106128Y-63243233D01*
X125109625Y-63246126D01*
X125268429Y-63375644D01*
X125292974Y-63391951D01*
X125317269Y-63408586D01*
X125321261Y-63410745D01*
X125502198Y-63506951D01*
X125529412Y-63518167D01*
X125556505Y-63529779D01*
X125560840Y-63531122D01*
X125757018Y-63590352D01*
X125785916Y-63596074D01*
X125814726Y-63602197D01*
X125819240Y-63602672D01*
X126023186Y-63622669D01*
X126023192Y-63622669D01*
X126038939Y-63624220D01*
X127270861Y-63624220D01*
X127287644Y-63622567D01*
X127301275Y-63622567D01*
X127305788Y-63622093D01*
X127509435Y-63599250D01*
X127538225Y-63593130D01*
X127567142Y-63587404D01*
X127571477Y-63586062D01*
X127766809Y-63524099D01*
X127793841Y-63512512D01*
X127821117Y-63501270D01*
X127825109Y-63499111D01*
X128004685Y-63400388D01*
X128028992Y-63383745D01*
X128053523Y-63367446D01*
X128057020Y-63364554D01*
X128214002Y-63232832D01*
X128234607Y-63211790D01*
X128255512Y-63191030D01*
X128258381Y-63187513D01*
X128386788Y-63027808D01*
X128402924Y-63003149D01*
X128419389Y-62978739D01*
X128421519Y-62974732D01*
X128516459Y-62793128D01*
X128527476Y-62765859D01*
X128538908Y-62738663D01*
X128540220Y-62734318D01*
X128598079Y-62537731D01*
X128603600Y-62508790D01*
X128609521Y-62479941D01*
X128609965Y-62475424D01*
X128628537Y-62271345D01*
X128628331Y-62241885D01*
X128628536Y-62212436D01*
X128628094Y-62207919D01*
X128606674Y-62004117D01*
X128600751Y-61975263D01*
X128595231Y-61946327D01*
X128593919Y-61941983D01*
X128533321Y-61746223D01*
X128521907Y-61719071D01*
X128510872Y-61691759D01*
X128508742Y-61687752D01*
X128411275Y-61507489D01*
X128394808Y-61483077D01*
X128378674Y-61458421D01*
X128375806Y-61454904D01*
X128245183Y-61297008D01*
X128224272Y-61276243D01*
X128203672Y-61255207D01*
X128200175Y-61252314D01*
X128041370Y-61122796D01*
X128016821Y-61106485D01*
X127992531Y-61089854D01*
X127988539Y-61087695D01*
X127807602Y-60991489D01*
X127780420Y-60980286D01*
X127753295Y-60968660D01*
X127748960Y-60967318D01*
X127552782Y-60908088D01*
X127523884Y-60902366D01*
X127495074Y-60896243D01*
X127490560Y-60895768D01*
X127286614Y-60875771D01*
X127286608Y-60875771D01*
X127270861Y-60874220D01*
X126038939Y-60874220D01*
X126022156Y-60875873D01*
X126008525Y-60875873D01*
X126004012Y-60876347D01*
X125800365Y-60899190D01*
X125771538Y-60905318D01*
X125742658Y-60911037D01*
X125738322Y-60912378D01*
X125542991Y-60974341D01*
X125515947Y-60985933D01*
X125488683Y-60997170D01*
X125484691Y-60999328D01*
X125305115Y-61098052D01*
X125280834Y-61114677D01*
X125256277Y-61130993D01*
X125252780Y-61133886D01*
X125095799Y-61265608D01*
X125075196Y-61286647D01*
X125054288Y-61307410D01*
X125051419Y-61310927D01*
X124923012Y-61470633D01*
X124906876Y-61495292D01*
X124890411Y-61519702D01*
X124888280Y-61523709D01*
X124793341Y-61705312D01*
X124782312Y-61732610D01*
X124770892Y-61759777D01*
X124769580Y-61764121D01*
X124711721Y-61960709D01*
X124706199Y-61989656D01*
X124700279Y-62018499D01*
X124699835Y-62023016D01*
X124681263Y-62227096D01*
X114293183Y-62227096D01*
X114293183Y-62112486D01*
X114239832Y-61844273D01*
X114135180Y-61591622D01*
X113983250Y-61364241D01*
X113789879Y-61170870D01*
X113562498Y-61018940D01*
X113309847Y-60914288D01*
X113041634Y-60860937D01*
X112768166Y-60860937D01*
X112499953Y-60914288D01*
X112247302Y-61018940D01*
X112019921Y-61170870D01*
X111826550Y-61364241D01*
X111674620Y-61591622D01*
X111569968Y-61844273D01*
X111516617Y-62112486D01*
X104465000Y-62112486D01*
X104465000Y-60575353D01*
X106527160Y-60575353D01*
X106527160Y-60673845D01*
X106546375Y-60770444D01*
X106584066Y-60861438D01*
X106638785Y-60943330D01*
X106708429Y-61012974D01*
X106790321Y-61067693D01*
X106881315Y-61105384D01*
X106977914Y-61124599D01*
X107076406Y-61124599D01*
X107173005Y-61105384D01*
X107263999Y-61067693D01*
X107328493Y-61024599D01*
X107956914Y-61024599D01*
X108322168Y-61389854D01*
X108334690Y-61405112D01*
X108349948Y-61417634D01*
X108349950Y-61417636D01*
X108389454Y-61450056D01*
X108395598Y-61455098D01*
X108465087Y-61492241D01*
X108521245Y-61509276D01*
X108540487Y-61515113D01*
X108618900Y-61522836D01*
X108638547Y-61520901D01*
X109325008Y-61520901D01*
X109389502Y-61563995D01*
X109480496Y-61601686D01*
X109577095Y-61620901D01*
X109675587Y-61620901D01*
X109772186Y-61601686D01*
X109863180Y-61563995D01*
X109945072Y-61509276D01*
X110014716Y-61439632D01*
X110069435Y-61357740D01*
X110107126Y-61266746D01*
X110126341Y-61170147D01*
X110126341Y-61071655D01*
X110107126Y-60975056D01*
X110069435Y-60884062D01*
X110014716Y-60802170D01*
X109945072Y-60732526D01*
X109941870Y-60730386D01*
X114046168Y-60730386D01*
X114046168Y-60828878D01*
X114065383Y-60925477D01*
X114103074Y-61016471D01*
X114157793Y-61098363D01*
X114227437Y-61168007D01*
X114309329Y-61222726D01*
X114400323Y-61260417D01*
X114496922Y-61279632D01*
X114595414Y-61279632D01*
X114692013Y-61260417D01*
X114783007Y-61222726D01*
X114810086Y-61204632D01*
X116825130Y-61204632D01*
X117502160Y-61881663D01*
X117515465Y-61897875D01*
X117531677Y-61911180D01*
X117531678Y-61911181D01*
X117535883Y-61914632D01*
X117580179Y-61950985D01*
X117628294Y-61976702D01*
X117654011Y-61990449D01*
X117699066Y-62004116D01*
X117734125Y-62014751D01*
X117796565Y-62020901D01*
X117796572Y-62020901D01*
X117817439Y-62022956D01*
X117838306Y-62020901D01*
X120770983Y-62020901D01*
X120798062Y-62038995D01*
X120889056Y-62076686D01*
X120985655Y-62095901D01*
X121084147Y-62095901D01*
X121180746Y-62076686D01*
X121271740Y-62038995D01*
X121353632Y-61984276D01*
X121423276Y-61914632D01*
X121477995Y-61832740D01*
X121515686Y-61741746D01*
X121522040Y-61709802D01*
X122640662Y-60591181D01*
X122656874Y-60577876D01*
X122688766Y-60539016D01*
X122713710Y-60536559D01*
X122770260Y-60519404D01*
X122822377Y-60491547D01*
X122868058Y-60454058D01*
X122905547Y-60408377D01*
X122933404Y-60356260D01*
X122950559Y-60299710D01*
X122956351Y-60240900D01*
X122956351Y-58790900D01*
X122950559Y-58732090D01*
X122934850Y-58680306D01*
X122977206Y-58671881D01*
X123090948Y-58624768D01*
X123193314Y-58556369D01*
X123280369Y-58469314D01*
X123348768Y-58366948D01*
X123395881Y-58253206D01*
X123419900Y-58132457D01*
X123419900Y-58009343D01*
X123395881Y-57888594D01*
X123348768Y-57774852D01*
X123280369Y-57672486D01*
X123193314Y-57585431D01*
X123090948Y-57517032D01*
X122977206Y-57469919D01*
X122856457Y-57445900D01*
X122733343Y-57445900D01*
X122612594Y-57469919D01*
X122498852Y-57517032D01*
X122396486Y-57585431D01*
X122309431Y-57672486D01*
X122241032Y-57774852D01*
X122193919Y-57888594D01*
X122169900Y-58009343D01*
X122169900Y-58132457D01*
X122193919Y-58253206D01*
X122241032Y-58366948D01*
X122309431Y-58469314D01*
X122329566Y-58489449D01*
X122054900Y-58489449D01*
X122054900Y-56707585D01*
X125964078Y-56707585D01*
X125964078Y-56990855D01*
X126019341Y-57268681D01*
X126127744Y-57530388D01*
X126285120Y-57765918D01*
X126485422Y-57966220D01*
X126720952Y-58123596D01*
X126982659Y-58231999D01*
X127260485Y-58287262D01*
X127543755Y-58287262D01*
X127821581Y-58231999D01*
X128083288Y-58123596D01*
X128318818Y-57966220D01*
X128519120Y-57765918D01*
X128676496Y-57530388D01*
X128784899Y-57268681D01*
X128840162Y-56990855D01*
X128840162Y-56707585D01*
X128784899Y-56429759D01*
X128676496Y-56168052D01*
X128519120Y-55932522D01*
X128318818Y-55732220D01*
X128083288Y-55574844D01*
X127821581Y-55466441D01*
X127543755Y-55411178D01*
X127260485Y-55411178D01*
X126982659Y-55466441D01*
X126720952Y-55574844D01*
X126485422Y-55732220D01*
X126285120Y-55932522D01*
X126127744Y-56168052D01*
X126019341Y-56429759D01*
X125964078Y-56707585D01*
X122054900Y-56707585D01*
X122054900Y-56142535D01*
X122056834Y-56122899D01*
X122054900Y-56103263D01*
X122054900Y-56103253D01*
X122049112Y-56044486D01*
X122026240Y-55969086D01*
X121989097Y-55899597D01*
X121939111Y-55838689D01*
X121923853Y-55826167D01*
X121272918Y-55175233D01*
X121257785Y-55099155D01*
X121220094Y-55008161D01*
X121165375Y-54926269D01*
X121095731Y-54856625D01*
X121013839Y-54801906D01*
X120922845Y-54764215D01*
X120826246Y-54745000D01*
X120727754Y-54745000D01*
X120631155Y-54764215D01*
X120540161Y-54801906D01*
X120458269Y-54856625D01*
X120388625Y-54926269D01*
X120333906Y-55008161D01*
X120296215Y-55099155D01*
X120277000Y-55195754D01*
X120277000Y-55294246D01*
X120296215Y-55390845D01*
X120333906Y-55481839D01*
X120388625Y-55563731D01*
X120458269Y-55633375D01*
X120540161Y-55688094D01*
X120631155Y-55725785D01*
X120707233Y-55740918D01*
X121254901Y-56288587D01*
X121254900Y-58489449D01*
X121029900Y-58489449D01*
X121029900Y-57212348D01*
X121031835Y-57192701D01*
X121024112Y-57114287D01*
X121001240Y-57038887D01*
X120964097Y-56969398D01*
X120949954Y-56952165D01*
X120914111Y-56908490D01*
X120898849Y-56895965D01*
X120613415Y-56610531D01*
X120617810Y-56588436D01*
X120617810Y-56489944D01*
X120598595Y-56393345D01*
X120560904Y-56302351D01*
X120506185Y-56220459D01*
X120436541Y-56150815D01*
X120354649Y-56096096D01*
X120263655Y-56058405D01*
X120167056Y-56039190D01*
X120068564Y-56039190D01*
X119971965Y-56058405D01*
X119880971Y-56096096D01*
X119799079Y-56150815D01*
X119729435Y-56220459D01*
X119674716Y-56302351D01*
X119637025Y-56393345D01*
X119617810Y-56489944D01*
X119617810Y-56498810D01*
X119608944Y-56498810D01*
X119512345Y-56518025D01*
X119421351Y-56555716D01*
X119339459Y-56610435D01*
X119269815Y-56680079D01*
X119215096Y-56761971D01*
X119177405Y-56852965D01*
X119158190Y-56949564D01*
X119158190Y-57048056D01*
X119177405Y-57144655D01*
X119215096Y-57235649D01*
X119269815Y-57317541D01*
X119339459Y-57387185D01*
X119421351Y-57441904D01*
X119512345Y-57479595D01*
X119608944Y-57498810D01*
X119707436Y-57498810D01*
X119729531Y-57494415D01*
X119749660Y-57514544D01*
X119749665Y-57514550D01*
X119754901Y-57519786D01*
X119754901Y-58090899D01*
X119274548Y-58090899D01*
X119254901Y-58088964D01*
X119235254Y-58090899D01*
X119176487Y-58096687D01*
X119101087Y-58119559D01*
X119054900Y-58144247D01*
X119054900Y-55754785D01*
X119068767Y-55740918D01*
X119144845Y-55725785D01*
X119235839Y-55688094D01*
X119317731Y-55633375D01*
X119387375Y-55563731D01*
X119442094Y-55481839D01*
X119479785Y-55390845D01*
X119499000Y-55294246D01*
X119499000Y-55195754D01*
X119479785Y-55099155D01*
X119442094Y-55008161D01*
X119387375Y-54926269D01*
X119317731Y-54856625D01*
X119235839Y-54801906D01*
X119144845Y-54764215D01*
X119048246Y-54745000D01*
X118949754Y-54745000D01*
X118853155Y-54764215D01*
X118762161Y-54801906D01*
X118680269Y-54856625D01*
X118610625Y-54926269D01*
X118555906Y-55008161D01*
X118518215Y-55099155D01*
X118503082Y-55175233D01*
X118385947Y-55292368D01*
X118370690Y-55304889D01*
X118358168Y-55320147D01*
X118358165Y-55320150D01*
X118320703Y-55365798D01*
X118283561Y-55435286D01*
X118260688Y-55510687D01*
X118252965Y-55589100D01*
X118254901Y-55608756D01*
X118254900Y-58489449D01*
X118004900Y-58489449D01*
X117946090Y-58495241D01*
X117889540Y-58512396D01*
X117879900Y-58517549D01*
X117870260Y-58512396D01*
X117813710Y-58495241D01*
X117754900Y-58489449D01*
X117480234Y-58489449D01*
X117500369Y-58469314D01*
X117568768Y-58366948D01*
X117615881Y-58253206D01*
X117639900Y-58132457D01*
X117639900Y-58009343D01*
X117615881Y-57888594D01*
X117568768Y-57774852D01*
X117500369Y-57672486D01*
X117413314Y-57585431D01*
X117310948Y-57517032D01*
X117197206Y-57469919D01*
X117076457Y-57445900D01*
X116953343Y-57445900D01*
X116832594Y-57469919D01*
X116718852Y-57517032D01*
X116616486Y-57585431D01*
X116529431Y-57672486D01*
X116461032Y-57774852D01*
X116413919Y-57888594D01*
X116389900Y-58009343D01*
X116389900Y-58132457D01*
X116413919Y-58253206D01*
X116461032Y-58366948D01*
X116529431Y-58469314D01*
X116616486Y-58556369D01*
X116718852Y-58624768D01*
X116832594Y-58671881D01*
X116874950Y-58680306D01*
X116859241Y-58732090D01*
X116853449Y-58790900D01*
X116853449Y-60240900D01*
X116859241Y-60299710D01*
X116864085Y-60315677D01*
X116825130Y-60354632D01*
X114810086Y-60354632D01*
X114783007Y-60336538D01*
X114692013Y-60298847D01*
X114595414Y-60279632D01*
X114496922Y-60279632D01*
X114400323Y-60298847D01*
X114309329Y-60336538D01*
X114227437Y-60391257D01*
X114157793Y-60460901D01*
X114103074Y-60542793D01*
X114065383Y-60633787D01*
X114046168Y-60730386D01*
X109941870Y-60730386D01*
X109863180Y-60677807D01*
X109772186Y-60640116D01*
X109675587Y-60620901D01*
X109577095Y-60620901D01*
X109480496Y-60640116D01*
X109389502Y-60677807D01*
X109325008Y-60720901D01*
X108784587Y-60720901D01*
X108419336Y-60355651D01*
X108406810Y-60340388D01*
X108345902Y-60290402D01*
X108276413Y-60253259D01*
X108201013Y-60230387D01*
X108142246Y-60224599D01*
X108142245Y-60224599D01*
X108122599Y-60222664D01*
X108102953Y-60224599D01*
X107328493Y-60224599D01*
X107263999Y-60181505D01*
X107173005Y-60143814D01*
X107076406Y-60124599D01*
X106977914Y-60124599D01*
X106881315Y-60143814D01*
X106790321Y-60181505D01*
X106708429Y-60236224D01*
X106638785Y-60305868D01*
X106584066Y-60387760D01*
X106546375Y-60478754D01*
X106527160Y-60575353D01*
X104465000Y-60575353D01*
X104465000Y-56707585D01*
X110964078Y-56707585D01*
X110964078Y-56990855D01*
X111019341Y-57268681D01*
X111127744Y-57530388D01*
X111285120Y-57765918D01*
X111485422Y-57966220D01*
X111720952Y-58123596D01*
X111982659Y-58231999D01*
X112260485Y-58287262D01*
X112543755Y-58287262D01*
X112821581Y-58231999D01*
X113083288Y-58123596D01*
X113318818Y-57966220D01*
X113519120Y-57765918D01*
X113676496Y-57530388D01*
X113784899Y-57268681D01*
X113840162Y-56990855D01*
X113840162Y-56707585D01*
X113784899Y-56429759D01*
X113676496Y-56168052D01*
X113519120Y-55932522D01*
X113318818Y-55732220D01*
X113083288Y-55574844D01*
X112821581Y-55466441D01*
X112543755Y-55411178D01*
X112260485Y-55411178D01*
X111982659Y-55466441D01*
X111720952Y-55574844D01*
X111485422Y-55732220D01*
X111285120Y-55932522D01*
X111127744Y-56168052D01*
X111019341Y-56429759D01*
X110964078Y-56707585D01*
X104465000Y-56707585D01*
X104465000Y-53665000D01*
X129088001Y-53665000D01*
X129088000Y-64258884D01*
G37*
%TD.AperFunction*%
D15*
X117889540Y-60519404D02*
X117946090Y-60536559D01*
X118004900Y-60542351D01*
X118304900Y-60542351D01*
X118363710Y-60536559D01*
X118404900Y-60524064D01*
X118446090Y-60536559D01*
X118504900Y-60542351D01*
X118804900Y-60542351D01*
X118863710Y-60536559D01*
X118904900Y-60524064D01*
X118946090Y-60536559D01*
X119004900Y-60542351D01*
X119270709Y-60542351D01*
X119283560Y-60584715D01*
X119320703Y-60654204D01*
X119370689Y-60715113D01*
X119385952Y-60727639D01*
X119468162Y-60809849D01*
X119480688Y-60825112D01*
X119541596Y-60875098D01*
X119611085Y-60912241D01*
X119686485Y-60935113D01*
X119745252Y-60940901D01*
X119745262Y-60940901D01*
X119764898Y-60942835D01*
X119784534Y-60940901D01*
X120535253Y-60940901D01*
X120554899Y-60942836D01*
X120574545Y-60940901D01*
X120574546Y-60940901D01*
X120633313Y-60935113D01*
X120708713Y-60912241D01*
X120778202Y-60875098D01*
X120839110Y-60825112D01*
X120851636Y-60809849D01*
X120923848Y-60737637D01*
X120939111Y-60725111D01*
X120989097Y-60664203D01*
X121026240Y-60594714D01*
X121042124Y-60542351D01*
X121304900Y-60542351D01*
X121363710Y-60536559D01*
X121404900Y-60524064D01*
X121446090Y-60536559D01*
X121488978Y-60540783D01*
X120921000Y-61108762D01*
X120889056Y-61115116D01*
X120798062Y-61152807D01*
X120770983Y-61170901D01*
X117993480Y-61170901D01*
X117602211Y-60779632D01*
X117740663Y-60641180D01*
X117756874Y-60627876D01*
X117809984Y-60563162D01*
X117826234Y-60532760D01*
X117870260Y-60519404D01*
X117879900Y-60514251D01*
X117889540Y-60519404D01*
%TA.AperFunction,Conductor*%
D17*
G36*
X117889540Y-60519404D02*
G01*
X117946090Y-60536559D01*
X118004900Y-60542351D01*
X118304900Y-60542351D01*
X118363710Y-60536559D01*
X118404900Y-60524064D01*
X118446090Y-60536559D01*
X118504900Y-60542351D01*
X118804900Y-60542351D01*
X118863710Y-60536559D01*
X118904900Y-60524064D01*
X118946090Y-60536559D01*
X119004900Y-60542351D01*
X119270709Y-60542351D01*
X119283560Y-60584715D01*
X119320703Y-60654204D01*
X119370689Y-60715113D01*
X119385952Y-60727639D01*
X119468162Y-60809849D01*
X119480688Y-60825112D01*
X119541596Y-60875098D01*
X119611085Y-60912241D01*
X119686485Y-60935113D01*
X119745252Y-60940901D01*
X119745262Y-60940901D01*
X119764898Y-60942835D01*
X119784534Y-60940901D01*
X120535253Y-60940901D01*
X120554899Y-60942836D01*
X120574545Y-60940901D01*
X120574546Y-60940901D01*
X120633313Y-60935113D01*
X120708713Y-60912241D01*
X120778202Y-60875098D01*
X120839110Y-60825112D01*
X120851636Y-60809849D01*
X120923848Y-60737637D01*
X120939111Y-60725111D01*
X120989097Y-60664203D01*
X121026240Y-60594714D01*
X121042124Y-60542351D01*
X121304900Y-60542351D01*
X121363710Y-60536559D01*
X121404900Y-60524064D01*
X121446090Y-60536559D01*
X121488978Y-60540783D01*
X120921000Y-61108762D01*
X120889056Y-61115116D01*
X120798062Y-61152807D01*
X120770983Y-61170901D01*
X117993480Y-61170901D01*
X117602211Y-60779632D01*
X117740663Y-60641180D01*
X117756874Y-60627876D01*
X117809984Y-60563162D01*
X117826234Y-60532760D01*
X117870260Y-60519404D01*
X117879900Y-60514251D01*
X117889540Y-60519404D01*
G37*
%TD.AperFunction*%
%TD*%
M02*
