M48
; DRILL file {KiCad (6.0.9)} date Tue 22 Nov 2022 09:50:04 PM EST
; FORMAT={-:-/ absolute / inch / decimal}
; #@! TF.CreationDate,2022-11-22T21:50:04-05:00
; #@! TF.GenerationSoftware,Kicad,Pcbnew,(6.0.9)
; #@! TF.FileFunction,Plated,1,2,PTH
FMAT,2
INCH
; #@! TA.AperFunction,Plated,PTH,ViaDrill
T1C0.0118
; #@! TA.AperFunction,Plated,PTH,ComponentDrill
T2C0.0236
%
G90
G05
T1
X4.1382Y-2.4984
X4.2Y-2.225
X4.205Y-2.325
X4.206Y-2.387
X4.2291Y-2.5024
X4.275Y-2.432
X4.278Y-2.272
X4.279Y-2.337
X4.282Y-2.207
X4.295Y-2.475
X4.324Y-2.209
X4.36Y-2.34
X4.363Y-2.247
X4.385Y-2.415
X4.42Y-2.36
X4.47Y-2.515
X4.49Y-2.22
X4.5097Y-2.3929
X4.51Y-2.195
X4.53Y-2.425
X4.545Y-2.59
X4.575Y-2.781
X4.585Y-2.255
X4.595Y-2.923
X4.605Y-2.44
X4.61Y-2.655
X4.615Y-2.185
X4.6307Y-2.8681
X4.6358Y-2.8283
X4.64Y-2.792
X4.65Y-2.255
X4.652Y-2.734
X4.67Y-2.4
X4.678Y-2.892
X4.685Y-2.175
X4.695Y-2.45
X4.7Y-2.275
X4.702Y-2.7984
X4.711Y-2.244
X4.715Y-2.715
X4.72Y-2.185
X4.725Y-2.405
X4.729Y-2.226
X4.734Y-2.912
X4.755Y-2.175
X4.76Y-2.47
X4.765Y-2.23
X4.77Y-2.285
X4.7783Y-2.8283
X4.79Y-2.785
X4.8Y-2.69
X4.805Y-2.185
X4.805Y-2.51
X4.805Y-2.625
X4.82Y-2.235
X4.865Y-2.785
X4.875Y-2.475
X4.875Y-2.645
T2
G00X4.5506Y-2.1307
M15
G01X4.5506Y-2.1544
M16
G05
G00X4.5506Y-2.2855
M15
G01X4.5506Y-2.3288
M16
G05
G00X4.8907Y-2.1307
M15
G01X4.8907Y-2.1544
M16
G05
G00X4.8907Y-2.2855
M15
G01X4.8907Y-2.3288
M16
G05
T0
M30
