%TF.GenerationSoftware,KiCad,Pcbnew,(6.0.9)*%
%TF.CreationDate,2022-11-22T21:50:02-05:00*%
%TF.ProjectId,011,3031312e-6b69-4636-9164-5f7063625858,rev?*%
%TF.SameCoordinates,Original*%
%TF.FileFunction,Legend,Bot*%
%TF.FilePolarity,Positive*%
%FSLAX46Y46*%
G04 Gerber Fmt 4.6, Leading zero omitted, Abs format (unit mm)*
G04 Created by KiCad (PCBNEW (6.0.9)) date 2022-11-22 21:50:02*
%MOMM*%
%LPD*%
G01*
G04 APERTURE LIST*
%ADD10C,0.150000*%
%ADD11C,0.120000*%
G04 APERTURE END LIST*
D10*
X127792761Y-64177904D02*
X127335619Y-64177904D01*
X127564190Y-64977904D02*
X127564190Y-64177904D01*
X127068952Y-64977904D02*
X127068952Y-64177904D01*
X126726095Y-64977904D02*
X126726095Y-64558857D01*
X126764190Y-64482666D01*
X126840380Y-64444571D01*
X126954666Y-64444571D01*
X127030857Y-64482666D01*
X127068952Y-64520761D01*
X126002285Y-64977904D02*
X126002285Y-64558857D01*
X126040380Y-64482666D01*
X126116571Y-64444571D01*
X126268952Y-64444571D01*
X126345142Y-64482666D01*
X126002285Y-64939809D02*
X126078476Y-64977904D01*
X126268952Y-64977904D01*
X126345142Y-64939809D01*
X126383238Y-64863619D01*
X126383238Y-64787428D01*
X126345142Y-64711238D01*
X126268952Y-64673142D01*
X126078476Y-64673142D01*
X126002285Y-64635047D01*
X125621333Y-64444571D02*
X125621333Y-64977904D01*
X125621333Y-64520761D02*
X125583238Y-64482666D01*
X125507047Y-64444571D01*
X125392761Y-64444571D01*
X125316571Y-64482666D01*
X125278476Y-64558857D01*
X125278476Y-64977904D01*
X124897523Y-64977904D02*
X124897523Y-64177904D01*
X124821333Y-64673142D02*
X124592761Y-64977904D01*
X124592761Y-64444571D02*
X124897523Y-64749333D01*
X124288000Y-64939809D02*
X124211809Y-64977904D01*
X124059428Y-64977904D01*
X123983238Y-64939809D01*
X123945142Y-64863619D01*
X123945142Y-64825523D01*
X123983238Y-64749333D01*
X124059428Y-64711238D01*
X124173714Y-64711238D01*
X124249904Y-64673142D01*
X124288000Y-64596952D01*
X124288000Y-64558857D01*
X124249904Y-64482666D01*
X124173714Y-64444571D01*
X124059428Y-64444571D01*
X123983238Y-64482666D01*
X123107047Y-64444571D02*
X122802285Y-64444571D01*
X122992761Y-64177904D02*
X122992761Y-64863619D01*
X122954666Y-64939809D01*
X122878476Y-64977904D01*
X122802285Y-64977904D01*
X122421333Y-64977904D02*
X122497523Y-64939809D01*
X122535619Y-64901714D01*
X122573714Y-64825523D01*
X122573714Y-64596952D01*
X122535619Y-64520761D01*
X122497523Y-64482666D01*
X122421333Y-64444571D01*
X122307047Y-64444571D01*
X122230857Y-64482666D01*
X122192761Y-64520761D01*
X122154666Y-64596952D01*
X122154666Y-64825523D01*
X122192761Y-64901714D01*
X122230857Y-64939809D01*
X122307047Y-64977904D01*
X122421333Y-64977904D01*
X121202285Y-64977904D02*
X121202285Y-64177904D01*
X120935619Y-64749333D01*
X120668952Y-64177904D01*
X120668952Y-64977904D01*
X119945142Y-64977904D02*
X119945142Y-64558857D01*
X119983238Y-64482666D01*
X120059428Y-64444571D01*
X120211809Y-64444571D01*
X120288000Y-64482666D01*
X119945142Y-64939809D02*
X120021333Y-64977904D01*
X120211809Y-64977904D01*
X120288000Y-64939809D01*
X120326095Y-64863619D01*
X120326095Y-64787428D01*
X120288000Y-64711238D01*
X120211809Y-64673142D01*
X120021333Y-64673142D01*
X119945142Y-64635047D01*
X119564190Y-64977904D02*
X119564190Y-64444571D01*
X119564190Y-64596952D02*
X119526095Y-64520761D01*
X119488000Y-64482666D01*
X119411809Y-64444571D01*
X119335619Y-64444571D01*
X119183238Y-64444571D02*
X118878476Y-64444571D01*
X119068952Y-64177904D02*
X119068952Y-64863619D01*
X119030857Y-64939809D01*
X118954666Y-64977904D01*
X118878476Y-64977904D01*
X118268952Y-64977904D02*
X118268952Y-64558857D01*
X118307047Y-64482666D01*
X118383238Y-64444571D01*
X118535619Y-64444571D01*
X118611809Y-64482666D01*
X118268952Y-64939809D02*
X118345142Y-64977904D01*
X118535619Y-64977904D01*
X118611809Y-64939809D01*
X118649904Y-64863619D01*
X118649904Y-64787428D01*
X118611809Y-64711238D01*
X118535619Y-64673142D01*
X118345142Y-64673142D01*
X118268952Y-64635047D01*
X117888000Y-64977904D02*
X117888000Y-64444571D01*
X117888000Y-64177904D02*
X117926095Y-64216000D01*
X117888000Y-64254095D01*
X117849904Y-64216000D01*
X117888000Y-64177904D01*
X117888000Y-64254095D01*
X117507047Y-64444571D02*
X117507047Y-64977904D01*
X117507047Y-64520761D02*
X117468952Y-64482666D01*
X117392761Y-64444571D01*
X117278476Y-64444571D01*
X117202285Y-64482666D01*
X117164190Y-64558857D01*
X117164190Y-64977904D01*
X115716571Y-64977904D02*
X115983238Y-64596952D01*
X116173714Y-64977904D02*
X116173714Y-64177904D01*
X115868952Y-64177904D01*
X115792761Y-64216000D01*
X115754666Y-64254095D01*
X115716571Y-64330285D01*
X115716571Y-64444571D01*
X115754666Y-64520761D01*
X115792761Y-64558857D01*
X115868952Y-64596952D01*
X116173714Y-64596952D01*
X115068952Y-64939809D02*
X115145142Y-64977904D01*
X115297523Y-64977904D01*
X115373714Y-64939809D01*
X115411809Y-64863619D01*
X115411809Y-64558857D01*
X115373714Y-64482666D01*
X115297523Y-64444571D01*
X115145142Y-64444571D01*
X115068952Y-64482666D01*
X115030857Y-64558857D01*
X115030857Y-64635047D01*
X115411809Y-64711238D01*
X114802285Y-64444571D02*
X114497523Y-64444571D01*
X114688000Y-64977904D02*
X114688000Y-64292190D01*
X114649904Y-64216000D01*
X114573714Y-64177904D01*
X114497523Y-64177904D01*
X114268952Y-64939809D02*
X114192761Y-64977904D01*
X114040380Y-64977904D01*
X113964190Y-64939809D01*
X113926095Y-64863619D01*
X113926095Y-64825523D01*
X113964190Y-64749333D01*
X114040380Y-64711238D01*
X114154666Y-64711238D01*
X114230857Y-64673142D01*
X114268952Y-64596952D01*
X114268952Y-64558857D01*
X114230857Y-64482666D01*
X114154666Y-64444571D01*
X114040380Y-64444571D01*
X113964190Y-64482666D01*
X113278476Y-64939809D02*
X113354666Y-64977904D01*
X113507047Y-64977904D01*
X113583238Y-64939809D01*
X113621333Y-64863619D01*
X113621333Y-64558857D01*
X113583238Y-64482666D01*
X113507047Y-64444571D01*
X113354666Y-64444571D01*
X113278476Y-64482666D01*
X113240380Y-64558857D01*
X113240380Y-64635047D01*
X113621333Y-64711238D01*
X113011809Y-64444571D02*
X112707047Y-64444571D01*
X112897523Y-64177904D02*
X112897523Y-64863619D01*
X112859428Y-64939809D01*
X112783238Y-64977904D01*
X112707047Y-64977904D01*
X112440380Y-64977904D02*
X112440380Y-64177904D01*
X112097523Y-64977904D02*
X112097523Y-64558857D01*
X112135619Y-64482666D01*
X112211809Y-64444571D01*
X112326095Y-64444571D01*
X112402285Y-64482666D01*
X112440380Y-64520761D01*
X123526095Y-66265904D02*
X123526095Y-65846857D01*
X123564190Y-65770666D01*
X123640380Y-65732571D01*
X123792761Y-65732571D01*
X123868952Y-65770666D01*
X123526095Y-66227809D02*
X123602285Y-66265904D01*
X123792761Y-66265904D01*
X123868952Y-66227809D01*
X123907047Y-66151619D01*
X123907047Y-66075428D01*
X123868952Y-65999238D01*
X123792761Y-65961142D01*
X123602285Y-65961142D01*
X123526095Y-65923047D01*
X123145142Y-65732571D02*
X123145142Y-66265904D01*
X123145142Y-65808761D02*
X123107047Y-65770666D01*
X123030857Y-65732571D01*
X122916571Y-65732571D01*
X122840380Y-65770666D01*
X122802285Y-65846857D01*
X122802285Y-66265904D01*
X122078476Y-66265904D02*
X122078476Y-65465904D01*
X122078476Y-66227809D02*
X122154666Y-66265904D01*
X122307047Y-66265904D01*
X122383238Y-66227809D01*
X122421333Y-66189714D01*
X122459428Y-66113523D01*
X122459428Y-65884952D01*
X122421333Y-65808761D01*
X122383238Y-65770666D01*
X122307047Y-65732571D01*
X122154666Y-65732571D01*
X122078476Y-65770666D01*
X121088000Y-66265904D02*
X121088000Y-65465904D01*
X120364190Y-66227809D02*
X120440380Y-66265904D01*
X120592761Y-66265904D01*
X120668952Y-66227809D01*
X120707047Y-66189714D01*
X120745142Y-66113523D01*
X120745142Y-65884952D01*
X120707047Y-65808761D01*
X120668952Y-65770666D01*
X120592761Y-65732571D01*
X120440380Y-65732571D01*
X120364190Y-65770666D01*
X120021333Y-66265904D02*
X120021333Y-65732571D01*
X120021333Y-65465904D02*
X120059428Y-65504000D01*
X120021333Y-65542095D01*
X119983238Y-65504000D01*
X120021333Y-65465904D01*
X120021333Y-65542095D01*
X119297523Y-66227809D02*
X119373714Y-66265904D01*
X119526095Y-66265904D01*
X119602285Y-66227809D01*
X119640380Y-66189714D01*
X119678476Y-66113523D01*
X119678476Y-65884952D01*
X119640380Y-65808761D01*
X119602285Y-65770666D01*
X119526095Y-65732571D01*
X119373714Y-65732571D01*
X119297523Y-65770666D01*
X118611809Y-66265904D02*
X118611809Y-65846857D01*
X118649904Y-65770666D01*
X118726095Y-65732571D01*
X118878476Y-65732571D01*
X118954666Y-65770666D01*
X118611809Y-66227809D02*
X118688000Y-66265904D01*
X118878476Y-66265904D01*
X118954666Y-66227809D01*
X118992761Y-66151619D01*
X118992761Y-66075428D01*
X118954666Y-65999238D01*
X118878476Y-65961142D01*
X118688000Y-65961142D01*
X118611809Y-65923047D01*
X118268952Y-66227809D02*
X118154666Y-66265904D01*
X117964190Y-66265904D01*
X117888000Y-66227809D01*
X117849904Y-66189714D01*
X117811809Y-66113523D01*
X117811809Y-66037333D01*
X117849904Y-65961142D01*
X117888000Y-65923047D01*
X117964190Y-65884952D01*
X118116571Y-65846857D01*
X118192761Y-65808761D01*
X118230857Y-65770666D01*
X118268952Y-65694476D01*
X118268952Y-65618285D01*
X118230857Y-65542095D01*
X118192761Y-65504000D01*
X118116571Y-65465904D01*
X117926095Y-65465904D01*
X117811809Y-65504000D01*
X117354666Y-66265904D02*
X117430857Y-66227809D01*
X117468952Y-66189714D01*
X117507047Y-66113523D01*
X117507047Y-65884952D01*
X117468952Y-65808761D01*
X117430857Y-65770666D01*
X117354666Y-65732571D01*
X117240380Y-65732571D01*
X117164190Y-65770666D01*
X117126095Y-65808761D01*
X117088000Y-65884952D01*
X117088000Y-66113523D01*
X117126095Y-66189714D01*
X117164190Y-66227809D01*
X117240380Y-66265904D01*
X117354666Y-66265904D01*
X116745142Y-66265904D02*
X116745142Y-65732571D01*
X116745142Y-65884952D02*
X116707047Y-65808761D01*
X116668952Y-65770666D01*
X116592761Y-65732571D01*
X116516571Y-65732571D01*
X115907047Y-66265904D02*
X115907047Y-65846857D01*
X115945142Y-65770666D01*
X116021333Y-65732571D01*
X116173714Y-65732571D01*
X116249904Y-65770666D01*
X115907047Y-66227809D02*
X115983238Y-66265904D01*
X116173714Y-66265904D01*
X116249904Y-66227809D01*
X116288000Y-66151619D01*
X116288000Y-66075428D01*
X116249904Y-65999238D01*
X116173714Y-65961142D01*
X115983238Y-65961142D01*
X115907047Y-65923047D01*
X125221333Y-67020571D02*
X124916571Y-67020571D01*
X125107047Y-67553904D02*
X125107047Y-66868190D01*
X125068952Y-66792000D01*
X124992761Y-66753904D01*
X124916571Y-66753904D01*
X124535619Y-67553904D02*
X124611809Y-67515809D01*
X124649904Y-67477714D01*
X124688000Y-67401523D01*
X124688000Y-67172952D01*
X124649904Y-67096761D01*
X124611809Y-67058666D01*
X124535619Y-67020571D01*
X124421333Y-67020571D01*
X124345142Y-67058666D01*
X124307047Y-67096761D01*
X124268952Y-67172952D01*
X124268952Y-67401523D01*
X124307047Y-67477714D01*
X124345142Y-67515809D01*
X124421333Y-67553904D01*
X124535619Y-67553904D01*
X123926095Y-67553904D02*
X123926095Y-67020571D01*
X123926095Y-67172952D02*
X123888000Y-67096761D01*
X123849904Y-67058666D01*
X123773714Y-67020571D01*
X123697523Y-67020571D01*
X122935619Y-67020571D02*
X122630857Y-67020571D01*
X122821333Y-66753904D02*
X122821333Y-67439619D01*
X122783238Y-67515809D01*
X122707047Y-67553904D01*
X122630857Y-67553904D01*
X122364190Y-67553904D02*
X122364190Y-66753904D01*
X122021333Y-67553904D02*
X122021333Y-67134857D01*
X122059428Y-67058666D01*
X122135619Y-67020571D01*
X122249904Y-67020571D01*
X122326095Y-67058666D01*
X122364190Y-67096761D01*
X121335619Y-67515809D02*
X121411809Y-67553904D01*
X121564190Y-67553904D01*
X121640380Y-67515809D01*
X121678476Y-67439619D01*
X121678476Y-67134857D01*
X121640380Y-67058666D01*
X121564190Y-67020571D01*
X121411809Y-67020571D01*
X121335619Y-67058666D01*
X121297523Y-67134857D01*
X121297523Y-67211047D01*
X121678476Y-67287238D01*
X120383238Y-67515809D02*
X120307047Y-67553904D01*
X120154666Y-67553904D01*
X120078476Y-67515809D01*
X120040380Y-67439619D01*
X120040380Y-67401523D01*
X120078476Y-67325333D01*
X120154666Y-67287238D01*
X120268952Y-67287238D01*
X120345142Y-67249142D01*
X120383238Y-67172952D01*
X120383238Y-67134857D01*
X120345142Y-67058666D01*
X120268952Y-67020571D01*
X120154666Y-67020571D01*
X120078476Y-67058666D01*
X119354666Y-67515809D02*
X119430857Y-67553904D01*
X119583238Y-67553904D01*
X119659428Y-67515809D01*
X119697523Y-67477714D01*
X119735619Y-67401523D01*
X119735619Y-67172952D01*
X119697523Y-67096761D01*
X119659428Y-67058666D01*
X119583238Y-67020571D01*
X119430857Y-67020571D01*
X119354666Y-67058666D01*
X119011809Y-67553904D02*
X119011809Y-66753904D01*
X118668952Y-67553904D02*
X118668952Y-67134857D01*
X118707047Y-67058666D01*
X118783238Y-67020571D01*
X118897523Y-67020571D01*
X118973714Y-67058666D01*
X119011809Y-67096761D01*
X117983238Y-67515809D02*
X118059428Y-67553904D01*
X118211809Y-67553904D01*
X118288000Y-67515809D01*
X118326095Y-67439619D01*
X118326095Y-67134857D01*
X118288000Y-67058666D01*
X118211809Y-67020571D01*
X118059428Y-67020571D01*
X117983238Y-67058666D01*
X117945142Y-67134857D01*
X117945142Y-67211047D01*
X118326095Y-67287238D01*
X117602285Y-67553904D02*
X117602285Y-67020571D01*
X117602285Y-67096761D02*
X117564190Y-67058666D01*
X117488000Y-67020571D01*
X117373714Y-67020571D01*
X117297523Y-67058666D01*
X117259428Y-67134857D01*
X117259428Y-67553904D01*
X117259428Y-67134857D02*
X117221333Y-67058666D01*
X117145142Y-67020571D01*
X117030857Y-67020571D01*
X116954666Y-67058666D01*
X116916571Y-67134857D01*
X116916571Y-67553904D01*
X116192761Y-67553904D02*
X116192761Y-67134857D01*
X116230857Y-67058666D01*
X116307047Y-67020571D01*
X116459428Y-67020571D01*
X116535619Y-67058666D01*
X116192761Y-67515809D02*
X116268952Y-67553904D01*
X116459428Y-67553904D01*
X116535619Y-67515809D01*
X116573714Y-67439619D01*
X116573714Y-67363428D01*
X116535619Y-67287238D01*
X116459428Y-67249142D01*
X116268952Y-67249142D01*
X116192761Y-67211047D01*
X115926095Y-67020571D02*
X115621333Y-67020571D01*
X115811809Y-66753904D02*
X115811809Y-67439619D01*
X115773714Y-67515809D01*
X115697523Y-67553904D01*
X115621333Y-67553904D01*
X115354666Y-67553904D02*
X115354666Y-67020571D01*
X115354666Y-66753904D02*
X115392761Y-66792000D01*
X115354666Y-66830095D01*
X115316571Y-66792000D01*
X115354666Y-66753904D01*
X115354666Y-66830095D01*
X114630857Y-67515809D02*
X114707047Y-67553904D01*
X114859428Y-67553904D01*
X114935619Y-67515809D01*
X114973714Y-67477714D01*
X115011809Y-67401523D01*
X115011809Y-67172952D01*
X114973714Y-67096761D01*
X114935619Y-67058666D01*
X114859428Y-67020571D01*
X114707047Y-67020571D01*
X114630857Y-67058666D01*
X124097523Y-68841904D02*
X124097523Y-68422857D01*
X124135619Y-68346666D01*
X124211809Y-68308571D01*
X124364190Y-68308571D01*
X124440380Y-68346666D01*
X124097523Y-68803809D02*
X124173714Y-68841904D01*
X124364190Y-68841904D01*
X124440380Y-68803809D01*
X124478476Y-68727619D01*
X124478476Y-68651428D01*
X124440380Y-68575238D01*
X124364190Y-68537142D01*
X124173714Y-68537142D01*
X124097523Y-68499047D01*
X123716571Y-68308571D02*
X123716571Y-68841904D01*
X123716571Y-68384761D02*
X123678476Y-68346666D01*
X123602285Y-68308571D01*
X123488000Y-68308571D01*
X123411809Y-68346666D01*
X123373714Y-68422857D01*
X123373714Y-68841904D01*
X122649904Y-68841904D02*
X122649904Y-68041904D01*
X122649904Y-68803809D02*
X122726095Y-68841904D01*
X122878476Y-68841904D01*
X122954666Y-68803809D01*
X122992761Y-68765714D01*
X123030857Y-68689523D01*
X123030857Y-68460952D01*
X122992761Y-68384761D01*
X122954666Y-68346666D01*
X122878476Y-68308571D01*
X122726095Y-68308571D01*
X122649904Y-68346666D01*
X121316571Y-68841904D02*
X121316571Y-68041904D01*
X121316571Y-68803809D02*
X121392761Y-68841904D01*
X121545142Y-68841904D01*
X121621333Y-68803809D01*
X121659428Y-68765714D01*
X121697523Y-68689523D01*
X121697523Y-68460952D01*
X121659428Y-68384761D01*
X121621333Y-68346666D01*
X121545142Y-68308571D01*
X121392761Y-68308571D01*
X121316571Y-68346666D01*
X120935619Y-68841904D02*
X120935619Y-68308571D01*
X120935619Y-68041904D02*
X120973714Y-68080000D01*
X120935619Y-68118095D01*
X120897523Y-68080000D01*
X120935619Y-68041904D01*
X120935619Y-68118095D01*
X120554666Y-68841904D02*
X120554666Y-68308571D01*
X120554666Y-68384761D02*
X120516571Y-68346666D01*
X120440380Y-68308571D01*
X120326095Y-68308571D01*
X120249904Y-68346666D01*
X120211809Y-68422857D01*
X120211809Y-68841904D01*
X120211809Y-68422857D02*
X120173714Y-68346666D01*
X120097523Y-68308571D01*
X119983238Y-68308571D01*
X119907047Y-68346666D01*
X119868952Y-68422857D01*
X119868952Y-68841904D01*
X119183238Y-68803809D02*
X119259428Y-68841904D01*
X119411809Y-68841904D01*
X119488000Y-68803809D01*
X119526095Y-68727619D01*
X119526095Y-68422857D01*
X119488000Y-68346666D01*
X119411809Y-68308571D01*
X119259428Y-68308571D01*
X119183238Y-68346666D01*
X119145142Y-68422857D01*
X119145142Y-68499047D01*
X119526095Y-68575238D01*
X118802285Y-68308571D02*
X118802285Y-68841904D01*
X118802285Y-68384761D02*
X118764190Y-68346666D01*
X118688000Y-68308571D01*
X118573714Y-68308571D01*
X118497523Y-68346666D01*
X118459428Y-68422857D01*
X118459428Y-68841904D01*
X118116571Y-68803809D02*
X118040380Y-68841904D01*
X117888000Y-68841904D01*
X117811809Y-68803809D01*
X117773714Y-68727619D01*
X117773714Y-68689523D01*
X117811809Y-68613333D01*
X117888000Y-68575238D01*
X118002285Y-68575238D01*
X118078476Y-68537142D01*
X118116571Y-68460952D01*
X118116571Y-68422857D01*
X118078476Y-68346666D01*
X118002285Y-68308571D01*
X117888000Y-68308571D01*
X117811809Y-68346666D01*
X117430857Y-68841904D02*
X117430857Y-68308571D01*
X117430857Y-68041904D02*
X117468952Y-68080000D01*
X117430857Y-68118095D01*
X117392761Y-68080000D01*
X117430857Y-68041904D01*
X117430857Y-68118095D01*
X116935619Y-68841904D02*
X117011809Y-68803809D01*
X117049904Y-68765714D01*
X117088000Y-68689523D01*
X117088000Y-68460952D01*
X117049904Y-68384761D01*
X117011809Y-68346666D01*
X116935619Y-68308571D01*
X116821333Y-68308571D01*
X116745142Y-68346666D01*
X116707047Y-68384761D01*
X116668952Y-68460952D01*
X116668952Y-68689523D01*
X116707047Y-68765714D01*
X116745142Y-68803809D01*
X116821333Y-68841904D01*
X116935619Y-68841904D01*
X116326095Y-68308571D02*
X116326095Y-68841904D01*
X116326095Y-68384761D02*
X116288000Y-68346666D01*
X116211809Y-68308571D01*
X116097523Y-68308571D01*
X116021333Y-68346666D01*
X115983238Y-68422857D01*
X115983238Y-68841904D01*
X115640380Y-68803809D02*
X115564190Y-68841904D01*
X115411809Y-68841904D01*
X115335619Y-68803809D01*
X115297523Y-68727619D01*
X115297523Y-68689523D01*
X115335619Y-68613333D01*
X115411809Y-68575238D01*
X115526095Y-68575238D01*
X115602285Y-68537142D01*
X115640380Y-68460952D01*
X115640380Y-68422857D01*
X115602285Y-68346666D01*
X115526095Y-68308571D01*
X115411809Y-68308571D01*
X115335619Y-68346666D01*
%TO.C,USB*%
X121162604Y-55014880D02*
X121162604Y-55824404D01*
X121114985Y-55919642D01*
X121067366Y-55967261D01*
X120972128Y-56014880D01*
X120781652Y-56014880D01*
X120686414Y-55967261D01*
X120638795Y-55919642D01*
X120591176Y-55824404D01*
X120591176Y-55014880D01*
X120162604Y-55967261D02*
X120019747Y-56014880D01*
X119781652Y-56014880D01*
X119686414Y-55967261D01*
X119638795Y-55919642D01*
X119591176Y-55824404D01*
X119591176Y-55729166D01*
X119638795Y-55633928D01*
X119686414Y-55586309D01*
X119781652Y-55538690D01*
X119972128Y-55491071D01*
X120067366Y-55443452D01*
X120114985Y-55395833D01*
X120162604Y-55300595D01*
X120162604Y-55205357D01*
X120114985Y-55110119D01*
X120067366Y-55062500D01*
X119972128Y-55014880D01*
X119734033Y-55014880D01*
X119591176Y-55062500D01*
X118829271Y-55491071D02*
X118686414Y-55538690D01*
X118638795Y-55586309D01*
X118591176Y-55681547D01*
X118591176Y-55824404D01*
X118638795Y-55919642D01*
X118686414Y-55967261D01*
X118781652Y-56014880D01*
X119162604Y-56014880D01*
X119162604Y-55014880D01*
X118829271Y-55014880D01*
X118734033Y-55062500D01*
X118686414Y-55110119D01*
X118638795Y-55205357D01*
X118638795Y-55300595D01*
X118686414Y-55395833D01*
X118734033Y-55443452D01*
X118829271Y-55491071D01*
X119162604Y-55491071D01*
D11*
X124604900Y-57370900D02*
X124604900Y-55370900D01*
X115204900Y-57370900D02*
X115204900Y-55370900D01*
%TD*%
M02*
