M48
; DRILL file {KiCad (6.0.9)} date Tue 22 Nov 2022 09:13:50 PM EST
; FORMAT={-:-/ absolute / inch / decimal}
; #@! TF.CreationDate,2022-11-22T21:13:50-05:00
; #@! TF.GenerationSoftware,Kicad,Pcbnew,(6.0.9)
; #@! TF.FileFunction,Plated,1,2,PTH
FMAT,2
INCH
; #@! TA.AperFunction,Plated,PTH,ViaDrill
T1C0.0079
; #@! TA.AperFunction,Plated,PTH,ComponentDrill
T2C0.0236
%
G90
G05
T1
X3.8803Y-2.2003
X3.8806Y-2.2594
X3.895Y-2.3575
X3.95Y-2.2
X3.955Y-2.23
X3.957Y-2.138
X3.97Y-2.2875
X3.974Y-2.256
X4.03Y-2.51
X4.03Y-2.65
X4.035Y-2.755
X4.045Y-2.168
X4.0634Y-2.8441
X4.07Y-2.38
X4.075Y-2.145
X4.097Y-2.792
X4.1Y-2.74
X4.12Y-2.56
X4.125Y-2.46
X4.141Y-2.366
X4.15Y-2.145
X4.158Y-2.767
X4.159Y-2.257
X4.166Y-2.171
X4.186Y-2.234
X4.189Y-2.415
X4.2Y-2.875
X4.204Y-2.216
X4.206Y-2.19
X4.22Y-2.145
X4.229Y-2.215
X4.234Y-2.27
X4.235Y-2.366
X4.2374Y-2.7921
X4.238Y-2.871
X4.261Y-2.7484
X4.3Y-2.38
X4.305Y-2.2
X4.31Y-2.155
X4.41Y-2.12
T2
G00X4.0149Y-2.1069
M15
G01X4.0149Y-2.1305
M16
G05
G00X4.0149Y-2.2616
M15
G01X4.0149Y-2.3049
M16
G05
G00X4.3551Y-2.1069
M15
G01X4.3551Y-2.1305
M16
G05
G00X4.3551Y-2.2616
M15
G01X4.3551Y-2.3049
M16
G05
T0
M30
