%TF.GenerationSoftware,KiCad,Pcbnew,(6.0.9)*%
%TF.CreationDate,2022-11-22T21:13:51-05:00*%
%TF.ProjectId,030,3033302e-6b69-4636-9164-5f7063625858,rev?*%
%TF.SameCoordinates,Original*%
%TF.FileFunction,Copper,L1,Top*%
%TF.FilePolarity,Positive*%
%FSLAX46Y46*%
G04 Gerber Fmt 4.6, Leading zero omitted, Abs format (unit mm)*
G04 Created by KiCad (PCBNEW (6.0.9)) date 2022-11-22 21:13:51*
%MOMM*%
%LPD*%
G01*
G04 APERTURE LIST*
G04 Aperture macros list*
%AMRoundRect*
0 Rectangle with rounded corners*
0 $1 Rounding radius*
0 $2 $3 $4 $5 $6 $7 $8 $9 X,Y pos of 4 corners*
0 Add a 4 corners polygon primitive as box body*
4,1,4,$2,$3,$4,$5,$6,$7,$8,$9,$2,$3,0*
0 Add four circle primitives for the rounded corners*
1,1,$1+$1,$2,$3*
1,1,$1+$1,$4,$5*
1,1,$1+$1,$6,$7*
1,1,$1+$1,$8,$9*
0 Add four rect primitives between the rounded corners*
20,1,$1+$1,$2,$3,$4,$5,0*
20,1,$1+$1,$4,$5,$6,$7,0*
20,1,$1+$1,$6,$7,$8,$9,0*
20,1,$1+$1,$8,$9,$2,$3,0*%
G04 Aperture macros list end*
%TA.AperFunction,NonConductor*%
%ADD10C,0.000010*%
%TD*%
%TA.AperFunction,SMDPad,CuDef*%
%ADD11RoundRect,0.237500X-0.250000X-0.237500X0.250000X-0.237500X0.250000X0.237500X-0.250000X0.237500X0*%
%TD*%
%TA.AperFunction,ComponentPad*%
%ADD12O,1.000000X1.600000*%
%TD*%
%TA.AperFunction,ComponentPad*%
%ADD13O,1.000000X2.100000*%
%TD*%
%TA.AperFunction,SMDPad,CuDef*%
%ADD14R,0.762000X0.355600*%
%TD*%
%TA.AperFunction,SMDPad,CuDef*%
%ADD15R,1.041400X0.355600*%
%TD*%
%TA.AperFunction,SMDPad,CuDef*%
%ADD16R,0.600000X0.500000*%
%TD*%
%TA.AperFunction,SMDPad,CuDef*%
%ADD17R,0.440000X0.750000*%
%TD*%
%TA.AperFunction,ViaPad*%
%ADD18C,0.400000*%
%TD*%
%TA.AperFunction,Conductor*%
%ADD19C,0.200000*%
%TD*%
G04 APERTURE END LIST*
D10*
G36*
X99949000Y-57065801D02*
G01*
X99187000Y-57065801D01*
X99187000Y-56210200D01*
X99949000Y-56210200D01*
X99949000Y-57065801D01*
G37*
X99949000Y-57065801D02*
X99187000Y-57065801D01*
X99187000Y-56210200D01*
X99949000Y-56210200D01*
X99949000Y-57065801D01*
D11*
%TO.P,R2,2*%
%TO.N,Net-(R2-Pad2)*%
X105433500Y-53721000D03*
%TO.P,R2,1*%
%TO.N,GND*%
X103608500Y-53721000D03*
%TD*%
D12*
%TO.P,USB,S1,SHIELD*%
%TO.N,unconnected-(USB1-PadS1)*%
X110619000Y-53814000D03*
X101979000Y-53814000D03*
D13*
X101979000Y-57994000D03*
X110619000Y-57994000D03*
%TD*%
D14*
%TO.P,J1,1,Pin_1*%
%TO.N,GND*%
X99568000Y-54388001D03*
%TO.P,J1,2,Pin_2*%
%TO.N,/D+*%
X99568000Y-54888000D03*
%TO.P,J1,3,Pin_3*%
%TO.N,/D-*%
X99568000Y-55388002D03*
%TO.P,J1,4,Pin_4*%
%TO.N,GND*%
X99568000Y-55888001D03*
%TO.P,J1,5,Pin_5*%
%TO.N,+5V*%
X99568000Y-56388000D03*
%TO.P,J1,6,Pin_6*%
X99568000Y-56888001D03*
%TO.P,J1,7,Pin_7*%
%TO.N,GND*%
X99568000Y-57388001D03*
%TO.P,J1,8,Pin_8*%
%TO.N,/Annode*%
X99568000Y-57888002D03*
%TO.P,J1,9,Pin_9*%
%TO.N,/G*%
X99568000Y-58388001D03*
%TO.P,J1,10,Pin_10*%
%TO.N,/R*%
X99568000Y-58888000D03*
%TO.P,J1,11,Pin_11*%
%TO.N,/B*%
X99568000Y-59388002D03*
%TO.P,J1,12,Pin_12*%
%TO.N,GND*%
X99568000Y-59888001D03*
D15*
%TO.P,J1,13*%
%TO.N,N/C*%
X96918000Y-53598000D03*
%TO.P,J1,14*%
X96918000Y-60678002D03*
%TD*%
D11*
%TO.P,R1,1*%
%TO.N,Net-(R1-Pad1)*%
X107164500Y-53721000D03*
%TO.P,R1,2*%
%TO.N,GND*%
X108989500Y-53721000D03*
%TD*%
D16*
%TO.P,LED,1,RK*%
%TO.N,/R*%
X104710000Y-72011000D03*
D17*
%TO.P,LED,2,A*%
%TO.N,/Annode*%
X105780000Y-72136000D03*
%TO.P,LED,3,GK*%
%TO.N,/G*%
X106680000Y-72136000D03*
D16*
%TO.P,LED,4,BK*%
%TO.N,/B*%
X107630000Y-72011000D03*
%TD*%
D18*
%TO.N,GND*%
X106400600Y-61341000D03*
X107569000Y-60096400D03*
X105181400Y-60096400D03*
X107416600Y-56261000D03*
X106832400Y-55626000D03*
X105816400Y-55143400D03*
X102743000Y-55067200D03*
X100507800Y-54305200D03*
X105638600Y-57327800D03*
X107543600Y-57658000D03*
X100939600Y-57302400D03*
%TO.N,+5V*%
X100457000Y-56642000D03*
%TO.N,/B*%
X104140000Y-69596000D03*
X107630000Y-70920000D03*
%TO.N,GND*%
X98560001Y-55888001D03*
X98567999Y-57388001D03*
X98933000Y-59880500D03*
X100330000Y-55880000D03*
X102362000Y-63754000D03*
X102362000Y-67310000D03*
X102489000Y-69977000D03*
X104063800Y-70916800D03*
X108230000Y-69810000D03*
X104648000Y-65024000D03*
X104775000Y-62484000D03*
X109220000Y-60452000D03*
X109347000Y-55880000D03*
X109474000Y-54737000D03*
X103505000Y-54483000D03*
X112014000Y-53848000D03*
X103378000Y-60452000D03*
X107645200Y-72923400D03*
X106680000Y-73025000D03*
X105613200Y-70281800D03*
%TO.N,/D+*%
X106782810Y-56285190D03*
%TO.N,/D-*%
X106323190Y-56744810D03*
%TO.N,Net-(R1-Pad1)*%
X107188000Y-54483000D03*
%TO.N,Net-(R2-Pad2)*%
X105410000Y-54483000D03*
%TO.N,/Annode*%
X100838000Y-58102500D03*
X103210000Y-72240000D03*
%TD*%
D19*
%TO.N,+5V*%
X99568000Y-56642000D02*
X100457000Y-56642000D01*
X99568000Y-56388000D02*
X99568000Y-56642000D01*
X99568000Y-56642000D02*
X99568000Y-56888001D01*
%TO.N,/G*%
X100209687Y-58388001D02*
X103759000Y-61937314D01*
X99568000Y-58388001D02*
X100209687Y-58388001D01*
X103759000Y-61937314D02*
X103759000Y-67533000D01*
X106680000Y-70454000D02*
X103759000Y-67533000D01*
X106680000Y-72136000D02*
X106680000Y-70454000D01*
%TO.N,/R*%
X104710000Y-69342000D02*
X104710000Y-72011000D01*
X103314500Y-67946500D02*
X104710000Y-69342000D01*
X103314500Y-62023158D02*
X103314500Y-67946500D01*
X100179342Y-58888000D02*
X103314500Y-62023158D01*
X99568000Y-58888000D02*
X100179342Y-58888000D01*
%TO.N,/B*%
X99568001Y-59388001D02*
X99568000Y-59388002D01*
X100149000Y-59388002D02*
X102870000Y-62109002D01*
X99568000Y-59388002D02*
X100149000Y-59388002D01*
X102988000Y-68444000D02*
X104140000Y-69596000D01*
X107630000Y-70920000D02*
X107630000Y-72011000D01*
X102988000Y-68444000D02*
X102870000Y-68326000D01*
X102870000Y-62109002D02*
X102870000Y-68326000D01*
%TO.N,GND*%
X99568000Y-55888001D02*
X98560001Y-55888001D01*
X99568000Y-57388001D02*
X98567999Y-57388001D01*
X99568000Y-54388001D02*
X99568000Y-54356000D01*
X98560001Y-55888001D02*
X98560001Y-55888001D01*
X98567999Y-57388001D02*
X98567999Y-57388001D01*
X98940501Y-59888001D02*
X98933000Y-59880500D01*
X99568000Y-59888001D02*
X98940501Y-59888001D01*
X100321999Y-55888001D02*
X100330000Y-55880000D01*
X99568000Y-55888001D02*
X100321999Y-55888001D01*
%TO.N,/D+*%
X99615201Y-54935201D02*
X99568000Y-54888000D01*
X106641389Y-56285190D02*
X106782810Y-56285190D01*
X100139501Y-54888000D02*
X100164502Y-54913001D01*
X99568000Y-54888000D02*
X100139501Y-54888000D01*
X100164502Y-54913001D02*
X100760701Y-54913001D01*
X100760701Y-54913001D02*
X101502700Y-55655000D01*
X101502700Y-55655000D02*
X106011199Y-55655000D01*
X106011199Y-55655000D02*
X106641389Y-56285190D01*
%TO.N,/D-*%
X106323190Y-56603389D02*
X106323190Y-56744810D01*
X105824801Y-56105000D02*
X106323190Y-56603389D01*
X101316300Y-56105000D02*
X105824801Y-56105000D01*
X100574301Y-55363001D02*
X101316300Y-56105000D01*
X100164502Y-55363001D02*
X100574301Y-55363001D01*
X99568000Y-55388002D02*
X100139501Y-55388002D01*
X100139501Y-55388002D02*
X100164502Y-55363001D01*
%TO.N,Net-(R1-Pad1)*%
X107188000Y-53744500D02*
X107164500Y-53721000D01*
X107188000Y-54483000D02*
X107188000Y-53744500D01*
%TO.N,Net-(R2-Pad2)*%
X105029000Y-53490500D02*
X105179500Y-53340000D01*
X105410000Y-53744500D02*
X105433500Y-53721000D01*
X105410000Y-54483000D02*
X105410000Y-53744500D01*
%TO.N,/Annode*%
X100623502Y-57888002D02*
X100838000Y-58102500D01*
X99568000Y-57888002D02*
X100623502Y-57888002D01*
X105780000Y-72136000D02*
X105780000Y-72629600D01*
X105780000Y-72629600D02*
X105537000Y-72872600D01*
X103842600Y-72872600D02*
X103210000Y-72240000D01*
X105537000Y-72872600D02*
X103842600Y-72872600D01*
%TD*%
%TA.AperFunction,Conductor*%
%TO.N,GND*%
G36*
X113534539Y-52544185D02*
G01*
X113580294Y-52596989D01*
X113591500Y-52648500D01*
X113591500Y-61905500D01*
X113571815Y-61972539D01*
X113519011Y-62018294D01*
X113467500Y-62029500D01*
X110495892Y-62029500D01*
X110458402Y-62029467D01*
X110458401Y-62029467D01*
X110444437Y-62029455D01*
X110431847Y-62035500D01*
X110427372Y-62036517D01*
X110418560Y-62039594D01*
X110414429Y-62041582D01*
X110400815Y-62044688D01*
X110389893Y-62053392D01*
X110385427Y-62055541D01*
X110378438Y-62059925D01*
X110374561Y-62063009D01*
X110361976Y-62069052D01*
X110353255Y-62079957D01*
X110349667Y-62082811D01*
X110343064Y-62089401D01*
X110340198Y-62092992D01*
X110329276Y-62101695D01*
X110323209Y-62114274D01*
X110320119Y-62118145D01*
X110315721Y-62125128D01*
X110313565Y-62129587D01*
X110304844Y-62140492D01*
X110301715Y-62154100D01*
X110299719Y-62158229D01*
X110296626Y-62167037D01*
X110295602Y-62171510D01*
X110289535Y-62184087D01*
X110289515Y-62207155D01*
X110287438Y-62207153D01*
X110287423Y-62207219D01*
X110289500Y-62207219D01*
X110289500Y-62224108D01*
X110289455Y-62275563D01*
X110284711Y-62275559D01*
X110284705Y-62275657D01*
X110289500Y-62275657D01*
X110289500Y-73589500D01*
X110269815Y-73656539D01*
X110217011Y-73702294D01*
X110165500Y-73713500D01*
X102178500Y-73713500D01*
X102111461Y-73693815D01*
X102065706Y-73641011D01*
X102054500Y-73589500D01*
X102054500Y-62235892D01*
X102054533Y-62198402D01*
X102054533Y-62198401D01*
X102054545Y-62184437D01*
X102048500Y-62171847D01*
X102047483Y-62167372D01*
X102044406Y-62158560D01*
X102042418Y-62154429D01*
X102039312Y-62140815D01*
X102030608Y-62129893D01*
X102028459Y-62125427D01*
X102024075Y-62118438D01*
X102020991Y-62114561D01*
X102014948Y-62101976D01*
X102004043Y-62093255D01*
X102001189Y-62089667D01*
X101994599Y-62083064D01*
X101991008Y-62080198D01*
X101982305Y-62069276D01*
X101969726Y-62063209D01*
X101965855Y-62060119D01*
X101958872Y-62055721D01*
X101954413Y-62053565D01*
X101943508Y-62044844D01*
X101929900Y-62041715D01*
X101925771Y-62039719D01*
X101916963Y-62036626D01*
X101912490Y-62035602D01*
X101899913Y-62029535D01*
X101876845Y-62029515D01*
X101876847Y-62027438D01*
X101876781Y-62027423D01*
X101876781Y-62029500D01*
X101859892Y-62029500D01*
X101808437Y-62029455D01*
X101808441Y-62024711D01*
X101808343Y-62024705D01*
X101808343Y-62029500D01*
X96082500Y-62029500D01*
X96015461Y-62009815D01*
X95969706Y-61957011D01*
X95958500Y-61905500D01*
X95958500Y-60936526D01*
X95978185Y-60869487D01*
X96030989Y-60823732D01*
X96100147Y-60813788D01*
X96163703Y-60842813D01*
X96201477Y-60901591D01*
X96204117Y-60912335D01*
X96208433Y-60934033D01*
X96252748Y-61000354D01*
X96319069Y-61044669D01*
X96331045Y-61047051D01*
X96331047Y-61047052D01*
X96349626Y-61050747D01*
X96377552Y-61056302D01*
X97458448Y-61056302D01*
X97486374Y-61050747D01*
X97504953Y-61047052D01*
X97504955Y-61047051D01*
X97516931Y-61044669D01*
X97583252Y-61000354D01*
X97627567Y-60934033D01*
X97639200Y-60875550D01*
X97639200Y-60480454D01*
X97627567Y-60421971D01*
X97583252Y-60355650D01*
X97516931Y-60311335D01*
X97504955Y-60308953D01*
X97504953Y-60308952D01*
X97486374Y-60305257D01*
X97458448Y-60299702D01*
X96377552Y-60299702D01*
X96349626Y-60305257D01*
X96331047Y-60308952D01*
X96331045Y-60308953D01*
X96319069Y-60311335D01*
X96252748Y-60355650D01*
X96208433Y-60421971D01*
X96206051Y-60433947D01*
X96206050Y-60433949D01*
X96204117Y-60443669D01*
X96171732Y-60505580D01*
X96111017Y-60540154D01*
X96041247Y-60536415D01*
X95984575Y-60495548D01*
X95958994Y-60430530D01*
X95958500Y-60419478D01*
X95958500Y-56255858D01*
X98981700Y-56255858D01*
X98986495Y-56255858D01*
X98986495Y-57059909D01*
X98986450Y-57111365D01*
X98992494Y-57123952D01*
X98992653Y-57124651D01*
X98993081Y-57125609D01*
X98993471Y-57126551D01*
X98993817Y-57129774D01*
X98994551Y-57133007D01*
X98996919Y-57137926D01*
X98998133Y-57144032D01*
X98999730Y-57146422D01*
X99001684Y-57154988D01*
X99010386Y-57165909D01*
X99012534Y-57170371D01*
X99016925Y-57177371D01*
X99020005Y-57181242D01*
X99026048Y-57193828D01*
X99036844Y-57202461D01*
X99037212Y-57202874D01*
X99038705Y-57204751D01*
X99042448Y-57210353D01*
X99048332Y-57214284D01*
X99049943Y-57215570D01*
X99050002Y-57215622D01*
X99058692Y-57226529D01*
X99071272Y-57232597D01*
X99075146Y-57235689D01*
X99082121Y-57240082D01*
X99086585Y-57242240D01*
X99097490Y-57250961D01*
X99106229Y-57252970D01*
X99108769Y-57254668D01*
X99114765Y-57255861D01*
X99119467Y-57258134D01*
X99123123Y-57258971D01*
X99126054Y-57259249D01*
X99126297Y-57259350D01*
X99127884Y-57260061D01*
X99128506Y-57260203D01*
X99141086Y-57266271D01*
X99155050Y-57266283D01*
X99164520Y-57268452D01*
X99225473Y-57302606D01*
X99258285Y-57364292D01*
X99252539Y-57433925D01*
X99210058Y-57489397D01*
X99161030Y-57510940D01*
X99149662Y-57513201D01*
X99120747Y-57518952D01*
X99120745Y-57518953D01*
X99108769Y-57521335D01*
X99042448Y-57565650D01*
X98998133Y-57631971D01*
X98986500Y-57690454D01*
X98986500Y-58085550D01*
X98987687Y-58091517D01*
X98987688Y-58091528D01*
X98992121Y-58113813D01*
X98992121Y-58162194D01*
X98986500Y-58190453D01*
X98986500Y-58585549D01*
X98987689Y-58591526D01*
X98987689Y-58591527D01*
X98992121Y-58613806D01*
X98992121Y-58662189D01*
X98987688Y-58684474D01*
X98987687Y-58684485D01*
X98986500Y-58690452D01*
X98986500Y-59085548D01*
X98987689Y-59091525D01*
X98992122Y-59113808D01*
X98992122Y-59162192D01*
X98986500Y-59190454D01*
X98986500Y-59585550D01*
X98998133Y-59644033D01*
X99042448Y-59710354D01*
X99108769Y-59754669D01*
X99120745Y-59757051D01*
X99120747Y-59757052D01*
X99139326Y-59760747D01*
X99167252Y-59766302D01*
X99968748Y-59766302D01*
X100003317Y-59759426D01*
X100015161Y-59757070D01*
X100084753Y-59763297D01*
X100127033Y-59791006D01*
X102533181Y-62197154D01*
X102566666Y-62258477D01*
X102569500Y-62284835D01*
X102569500Y-68273545D01*
X102569295Y-68276331D01*
X102567575Y-68281342D01*
X102568004Y-68292778D01*
X102568004Y-68292780D01*
X102569413Y-68330308D01*
X102569500Y-68334959D01*
X102569500Y-68353948D01*
X102570378Y-68358662D01*
X102570613Y-68362292D01*
X102571774Y-68393208D01*
X102576293Y-68403726D01*
X102577196Y-68407734D01*
X102581220Y-68420979D01*
X102582696Y-68424803D01*
X102584791Y-68436053D01*
X102590797Y-68445797D01*
X102590798Y-68445799D01*
X102597803Y-68457164D01*
X102606175Y-68473279D01*
X102615964Y-68496063D01*
X102619978Y-68500949D01*
X102622113Y-68503084D01*
X102622121Y-68503093D01*
X102622272Y-68503244D01*
X102622368Y-68503365D01*
X102624153Y-68505334D01*
X102624020Y-68505455D01*
X102631754Y-68515240D01*
X102637527Y-68521606D01*
X102643532Y-68531348D01*
X102652641Y-68538275D01*
X102652643Y-68538277D01*
X102665418Y-68547991D01*
X102678041Y-68559013D01*
X102795276Y-68676248D01*
X102795278Y-68676249D01*
X103709685Y-69590656D01*
X103743170Y-69651979D01*
X103744470Y-69658898D01*
X103754354Y-69721304D01*
X103811950Y-69834342D01*
X103901658Y-69924050D01*
X104014696Y-69981646D01*
X104140000Y-70001492D01*
X104149641Y-69999965D01*
X104265304Y-69981646D01*
X104265897Y-69985389D01*
X104317062Y-69983944D01*
X104376883Y-70020044D01*
X104407691Y-70082755D01*
X104409500Y-70103860D01*
X104409500Y-71459661D01*
X104389815Y-71526700D01*
X104336602Y-71571172D01*
X104331769Y-71572133D01*
X104265448Y-71616448D01*
X104221133Y-71682769D01*
X104209500Y-71741252D01*
X104209500Y-72280748D01*
X104221133Y-72339231D01*
X104247847Y-72379210D01*
X104268724Y-72445886D01*
X104250240Y-72513266D01*
X104198262Y-72559956D01*
X104144744Y-72572100D01*
X104018433Y-72572100D01*
X103951394Y-72552415D01*
X103930752Y-72535781D01*
X103640315Y-72245344D01*
X103606830Y-72184021D01*
X103605530Y-72177102D01*
X103595646Y-72114696D01*
X103538050Y-72001658D01*
X103448342Y-71911950D01*
X103335304Y-71854354D01*
X103210000Y-71834508D01*
X103084696Y-71854354D01*
X102971658Y-71911950D01*
X102881950Y-72001658D01*
X102824354Y-72114696D01*
X102804508Y-72240000D01*
X102824354Y-72365304D01*
X102881950Y-72478342D01*
X102971658Y-72568050D01*
X102989720Y-72577253D01*
X103075999Y-72621215D01*
X103076001Y-72621216D01*
X103084696Y-72625646D01*
X103147064Y-72635524D01*
X103210195Y-72665452D01*
X103215344Y-72670315D01*
X103593022Y-73047993D01*
X103594848Y-73050108D01*
X103597175Y-73054869D01*
X103621232Y-73077185D01*
X103633104Y-73088198D01*
X103636455Y-73091426D01*
X103649876Y-73104847D01*
X103653824Y-73107555D01*
X103656562Y-73109959D01*
X103670848Y-73123212D01*
X103670853Y-73123215D01*
X103679246Y-73131001D01*
X103689883Y-73135245D01*
X103693357Y-73137441D01*
X103705553Y-73143953D01*
X103709305Y-73145615D01*
X103718746Y-73152092D01*
X103742821Y-73157805D01*
X103742871Y-73157817D01*
X103760189Y-73163294D01*
X103783222Y-73172483D01*
X103789515Y-73173100D01*
X103792760Y-73173100D01*
X103792911Y-73173118D01*
X103795575Y-73173248D01*
X103795566Y-73173428D01*
X103807937Y-73174876D01*
X103816525Y-73175296D01*
X103827666Y-73177940D01*
X103839011Y-73176396D01*
X103839012Y-73176396D01*
X103854905Y-73174233D01*
X103871626Y-73173100D01*
X105484545Y-73173100D01*
X105487331Y-73173305D01*
X105492342Y-73175025D01*
X105503778Y-73174596D01*
X105503780Y-73174596D01*
X105541308Y-73173187D01*
X105545959Y-73173100D01*
X105564948Y-73173100D01*
X105569662Y-73172222D01*
X105573292Y-73171987D01*
X105604208Y-73170826D01*
X105614726Y-73166307D01*
X105618734Y-73165404D01*
X105631979Y-73161380D01*
X105635803Y-73159904D01*
X105647053Y-73157809D01*
X105656797Y-73151803D01*
X105656799Y-73151802D01*
X105668164Y-73144797D01*
X105684281Y-73136424D01*
X105699021Y-73130091D01*
X105707063Y-73126636D01*
X105711949Y-73122622D01*
X105714241Y-73120330D01*
X105714357Y-73120238D01*
X105716330Y-73118449D01*
X105716451Y-73118583D01*
X105726229Y-73110854D01*
X105732600Y-73105077D01*
X105742348Y-73099068D01*
X105758996Y-73077175D01*
X105770011Y-73064560D01*
X105955393Y-72879178D01*
X105957508Y-72877352D01*
X105962269Y-72875025D01*
X105995599Y-72839095D01*
X105998826Y-72835745D01*
X106012248Y-72822323D01*
X106014960Y-72818370D01*
X106017358Y-72815639D01*
X106025332Y-72807043D01*
X106030616Y-72801347D01*
X106030617Y-72801345D01*
X106038401Y-72792954D01*
X106042644Y-72782320D01*
X106044841Y-72778844D01*
X106051355Y-72766645D01*
X106053017Y-72762894D01*
X106059493Y-72753454D01*
X106062136Y-72742314D01*
X106066774Y-72731849D01*
X106070428Y-72733468D01*
X106094475Y-72691352D01*
X106111579Y-72677584D01*
X106144552Y-72655552D01*
X106147030Y-72651844D01*
X106203642Y-72620931D01*
X106273334Y-72625915D01*
X106312437Y-72651046D01*
X106315448Y-72655552D01*
X106381769Y-72699867D01*
X106393745Y-72702249D01*
X106393747Y-72702250D01*
X106412326Y-72705945D01*
X106440252Y-72711500D01*
X106919748Y-72711500D01*
X106947674Y-72705945D01*
X106966253Y-72702250D01*
X106966255Y-72702249D01*
X106978231Y-72699867D01*
X107044552Y-72655552D01*
X107088867Y-72589231D01*
X107097875Y-72543944D01*
X107130259Y-72482033D01*
X107190975Y-72447459D01*
X107251283Y-72452312D01*
X107251769Y-72449867D01*
X107310252Y-72461500D01*
X107949748Y-72461500D01*
X107977674Y-72455945D01*
X107996253Y-72452250D01*
X107996255Y-72452249D01*
X108008231Y-72449867D01*
X108074552Y-72405552D01*
X108118867Y-72339231D01*
X108130500Y-72280748D01*
X108130500Y-71741252D01*
X108118867Y-71682769D01*
X108074552Y-71616448D01*
X108008231Y-71572133D01*
X108003218Y-71571136D01*
X107952645Y-71530382D01*
X107930500Y-71459661D01*
X107930500Y-71233954D01*
X107950185Y-71166915D01*
X107951715Y-71164677D01*
X107958050Y-71158342D01*
X108015646Y-71045304D01*
X108035492Y-70920000D01*
X108015646Y-70794696D01*
X107958050Y-70681658D01*
X107868342Y-70591950D01*
X107755304Y-70534354D01*
X107630000Y-70514508D01*
X107504696Y-70534354D01*
X107391658Y-70591950D01*
X107301950Y-70681658D01*
X107244354Y-70794696D01*
X107242827Y-70804338D01*
X107226973Y-70904436D01*
X107221236Y-70916539D01*
X107223477Y-70920027D01*
X107226973Y-70935564D01*
X107244354Y-71045304D01*
X107301950Y-71158342D01*
X107306451Y-71162843D01*
X107329298Y-71226873D01*
X107329500Y-71233954D01*
X107329500Y-71459661D01*
X107309815Y-71526700D01*
X107256602Y-71571172D01*
X107251769Y-71572133D01*
X107241615Y-71578918D01*
X107241613Y-71578919D01*
X107202696Y-71604923D01*
X107185448Y-71616448D01*
X107183267Y-71613185D01*
X107141358Y-71636069D01*
X107071666Y-71631085D01*
X107045861Y-71614495D01*
X107044555Y-71616449D01*
X107035611Y-71610473D01*
X107030972Y-71604923D01*
X107027291Y-71602556D01*
X107025735Y-71600999D01*
X107026802Y-71599933D01*
X106990805Y-71556862D01*
X106980500Y-71507370D01*
X106980500Y-70954962D01*
X106990421Y-70921175D01*
X106981523Y-70900931D01*
X106980500Y-70885038D01*
X106980500Y-70506455D01*
X106980705Y-70503669D01*
X106982425Y-70498658D01*
X106980587Y-70449692D01*
X106980500Y-70445041D01*
X106980500Y-70426052D01*
X106979622Y-70421338D01*
X106979386Y-70417696D01*
X106978655Y-70398231D01*
X106978226Y-70386792D01*
X106973707Y-70376274D01*
X106972804Y-70372266D01*
X106968780Y-70359021D01*
X106967304Y-70355197D01*
X106965209Y-70343947D01*
X106959202Y-70334201D01*
X106952197Y-70322836D01*
X106943824Y-70306719D01*
X106937491Y-70291979D01*
X106934036Y-70283937D01*
X106930022Y-70279051D01*
X106927730Y-70276759D01*
X106927638Y-70276643D01*
X106925849Y-70274670D01*
X106925983Y-70274549D01*
X106918254Y-70264771D01*
X106912477Y-70258400D01*
X106906468Y-70248652D01*
X106884575Y-70232004D01*
X106871960Y-70220989D01*
X104095819Y-67444848D01*
X104062334Y-67383525D01*
X104059500Y-67357167D01*
X104059500Y-66874440D01*
X104792521Y-66874440D01*
X104793727Y-66895347D01*
X104806252Y-67112562D01*
X104807371Y-67117526D01*
X104856802Y-67336870D01*
X104858689Y-67345245D01*
X104948425Y-67566239D01*
X105073050Y-67769609D01*
X105076382Y-67773455D01*
X105076383Y-67773457D01*
X105141977Y-67849180D01*
X105229218Y-67949894D01*
X105233128Y-67953140D01*
X105233132Y-67953144D01*
X105319247Y-68024637D01*
X105412734Y-68102251D01*
X105618669Y-68222590D01*
X105841494Y-68307679D01*
X105975579Y-68334959D01*
X106070239Y-68354218D01*
X106070242Y-68354218D01*
X106075224Y-68355232D01*
X106230765Y-68360935D01*
X106308502Y-68363786D01*
X106308505Y-68363786D01*
X106313581Y-68363972D01*
X106550166Y-68333664D01*
X106555037Y-68332203D01*
X106555040Y-68332202D01*
X106686441Y-68292780D01*
X106778624Y-68265124D01*
X106824234Y-68242780D01*
X106988249Y-68162430D01*
X106988255Y-68162426D01*
X106992820Y-68160190D01*
X107074048Y-68102251D01*
X107182858Y-68024637D01*
X107187001Y-68021682D01*
X107355953Y-67853319D01*
X107495138Y-67659622D01*
X107600819Y-67445794D01*
X107670157Y-67217577D01*
X107701289Y-66981099D01*
X107703027Y-66910000D01*
X107700104Y-66874440D01*
X107683900Y-66677359D01*
X107683483Y-66672284D01*
X107625377Y-66440952D01*
X107530268Y-66222217D01*
X107507403Y-66186873D01*
X107403473Y-66026221D01*
X107403471Y-66026219D01*
X107400711Y-66021952D01*
X107240185Y-65845537D01*
X107053002Y-65697708D01*
X106918699Y-65623569D01*
X106848643Y-65584896D01*
X106848640Y-65584895D01*
X106844188Y-65582437D01*
X106619351Y-65502818D01*
X106384529Y-65460989D01*
X106294981Y-65459895D01*
X106151118Y-65458137D01*
X106151116Y-65458137D01*
X106146029Y-65458075D01*
X106140999Y-65458845D01*
X106140995Y-65458845D01*
X105967609Y-65485378D01*
X105910255Y-65494154D01*
X105905427Y-65495732D01*
X105905423Y-65495733D01*
X105793738Y-65532238D01*
X105683540Y-65568256D01*
X105471972Y-65678391D01*
X105281232Y-65821602D01*
X105277716Y-65825281D01*
X105277714Y-65825283D01*
X105226294Y-65879091D01*
X105116444Y-65994043D01*
X105113580Y-65998242D01*
X105113578Y-65998244D01*
X105003125Y-66160162D01*
X104982033Y-66191082D01*
X104881609Y-66407429D01*
X104817867Y-66637272D01*
X104792521Y-66874440D01*
X104059500Y-66874440D01*
X104059500Y-61989775D01*
X104059705Y-61986985D01*
X104061426Y-61981972D01*
X104059587Y-61932990D01*
X104059500Y-61928338D01*
X104059500Y-61909366D01*
X104058622Y-61904653D01*
X104058386Y-61901012D01*
X104057655Y-61881545D01*
X104057226Y-61870106D01*
X104052707Y-61859588D01*
X104051804Y-61855580D01*
X104047781Y-61842340D01*
X104046305Y-61838515D01*
X104044209Y-61827261D01*
X104038202Y-61817516D01*
X104038201Y-61817513D01*
X104031194Y-61806145D01*
X104022825Y-61790034D01*
X104016491Y-61775292D01*
X104016489Y-61775289D01*
X104013036Y-61767252D01*
X104009023Y-61762365D01*
X104006728Y-61760070D01*
X104006631Y-61759947D01*
X104004841Y-61757973D01*
X104004975Y-61757852D01*
X103997259Y-61748091D01*
X103991477Y-61741715D01*
X103985468Y-61731966D01*
X103963579Y-61715321D01*
X103950964Y-61704306D01*
X101673865Y-59427207D01*
X101640380Y-59365885D01*
X101645364Y-59296193D01*
X101687236Y-59240260D01*
X101752700Y-59215843D01*
X101791754Y-59219263D01*
X101875347Y-59240260D01*
X101890559Y-59244081D01*
X101976752Y-59244532D01*
X102052632Y-59244930D01*
X102052633Y-59244930D01*
X102060105Y-59244969D01*
X102167176Y-59219263D01*
X102217705Y-59207132D01*
X102217707Y-59207131D01*
X102224968Y-59205388D01*
X102231601Y-59201965D01*
X102231605Y-59201963D01*
X102308655Y-59162194D01*
X102375631Y-59127625D01*
X102391470Y-59113808D01*
X102497760Y-59021086D01*
X102497762Y-59021084D01*
X102503396Y-59016169D01*
X102600887Y-58877453D01*
X102662476Y-58719487D01*
X102665497Y-58696541D01*
X102678971Y-58594194D01*
X102678971Y-58594191D01*
X102679500Y-58590174D01*
X102679500Y-57822054D01*
X102699185Y-57755015D01*
X102751989Y-57709260D01*
X102821147Y-57699316D01*
X102884703Y-57728341D01*
X102906167Y-57754337D01*
X102906302Y-57754233D01*
X102909211Y-57758025D01*
X102909221Y-57758037D01*
X102998549Y-57874451D01*
X103118767Y-57966698D01*
X103188766Y-57995693D01*
X103251255Y-58021577D01*
X103251257Y-58021578D01*
X103258764Y-58024687D01*
X103266823Y-58025748D01*
X103367260Y-58038971D01*
X103367264Y-58038971D01*
X103371280Y-58039500D01*
X103446720Y-58039500D01*
X103450736Y-58038971D01*
X103450740Y-58038971D01*
X103551177Y-58025748D01*
X103559236Y-58024687D01*
X103566743Y-58021578D01*
X103566745Y-58021577D01*
X103629234Y-57995693D01*
X103699233Y-57966698D01*
X103819451Y-57874451D01*
X103911698Y-57754233D01*
X103952490Y-57655754D01*
X103966577Y-57621745D01*
X103966578Y-57621743D01*
X103969687Y-57614236D01*
X103989466Y-57464000D01*
X108608534Y-57464000D01*
X108628313Y-57614236D01*
X108631422Y-57621743D01*
X108631423Y-57621745D01*
X108645510Y-57655754D01*
X108686302Y-57754233D01*
X108778549Y-57874451D01*
X108898767Y-57966698D01*
X108968766Y-57995693D01*
X109031255Y-58021577D01*
X109031257Y-58021578D01*
X109038764Y-58024687D01*
X109046823Y-58025748D01*
X109147260Y-58038971D01*
X109147264Y-58038971D01*
X109151280Y-58039500D01*
X109226720Y-58039500D01*
X109230736Y-58038971D01*
X109230740Y-58038971D01*
X109331177Y-58025748D01*
X109339236Y-58024687D01*
X109346743Y-58021578D01*
X109346745Y-58021577D01*
X109409234Y-57995693D01*
X109479233Y-57966698D01*
X109599451Y-57874451D01*
X109691698Y-57754233D01*
X109692540Y-57754879D01*
X109737680Y-57711838D01*
X109806287Y-57698616D01*
X109871152Y-57724584D01*
X109911680Y-57781498D01*
X109918500Y-57822054D01*
X109918500Y-58586516D01*
X109919429Y-58594194D01*
X109931815Y-58696541D01*
X109933724Y-58712320D01*
X109936368Y-58719317D01*
X109986814Y-58852818D01*
X109993655Y-58870923D01*
X109997892Y-58877087D01*
X109997892Y-58877088D01*
X110085451Y-59004487D01*
X110085454Y-59004490D01*
X110089688Y-59010651D01*
X110095272Y-59015626D01*
X110180459Y-59091525D01*
X110216279Y-59123440D01*
X110222885Y-59126938D01*
X110222887Y-59126939D01*
X110243780Y-59138001D01*
X110366119Y-59202776D01*
X110530559Y-59244081D01*
X110616752Y-59244532D01*
X110692632Y-59244930D01*
X110692633Y-59244930D01*
X110700105Y-59244969D01*
X110807176Y-59219263D01*
X110857705Y-59207132D01*
X110857707Y-59207131D01*
X110864968Y-59205388D01*
X110871601Y-59201965D01*
X110871605Y-59201963D01*
X110948655Y-59162194D01*
X111015631Y-59127625D01*
X111031470Y-59113808D01*
X111137760Y-59021086D01*
X111137762Y-59021084D01*
X111143396Y-59016169D01*
X111240887Y-58877453D01*
X111302476Y-58719487D01*
X111305497Y-58696541D01*
X111318971Y-58594194D01*
X111318971Y-58594191D01*
X111319500Y-58590174D01*
X111319500Y-57401484D01*
X111307976Y-57306255D01*
X111305175Y-57283105D01*
X111305174Y-57283101D01*
X111304276Y-57275680D01*
X111275953Y-57200725D01*
X111246989Y-57124073D01*
X111246987Y-57124070D01*
X111244345Y-57117077D01*
X111235657Y-57104436D01*
X111152549Y-56983513D01*
X111152546Y-56983510D01*
X111148312Y-56977349D01*
X111065216Y-56903313D01*
X111027303Y-56869533D01*
X111027301Y-56869532D01*
X111021721Y-56864560D01*
X111014001Y-56860472D01*
X110878489Y-56788723D01*
X110871881Y-56785224D01*
X110707441Y-56743919D01*
X110621248Y-56743468D01*
X110545368Y-56743070D01*
X110545367Y-56743070D01*
X110537895Y-56743031D01*
X110516235Y-56748231D01*
X110380295Y-56780868D01*
X110380293Y-56780869D01*
X110373032Y-56782612D01*
X110366399Y-56786035D01*
X110366395Y-56786037D01*
X110299465Y-56820583D01*
X110222369Y-56860375D01*
X110216737Y-56865288D01*
X110101003Y-56966249D01*
X110094604Y-56971831D01*
X109997113Y-57110547D01*
X109964643Y-57193828D01*
X109948377Y-57235547D01*
X109905684Y-57290856D01*
X109839867Y-57314304D01*
X109771820Y-57298446D01*
X109723150Y-57248317D01*
X109718286Y-57237956D01*
X109717782Y-57236740D01*
X109691698Y-57173767D01*
X109614269Y-57072860D01*
X109604395Y-57059992D01*
X109599451Y-57053549D01*
X109591558Y-57047492D01*
X109485680Y-56966249D01*
X109479233Y-56961302D01*
X109409234Y-56932307D01*
X109346745Y-56906423D01*
X109346743Y-56906422D01*
X109339236Y-56903313D01*
X109331177Y-56902252D01*
X109230740Y-56889029D01*
X109230736Y-56889029D01*
X109226720Y-56888500D01*
X109151280Y-56888500D01*
X109147264Y-56889029D01*
X109147260Y-56889029D01*
X109046823Y-56902252D01*
X109038764Y-56903313D01*
X109031257Y-56906422D01*
X109031255Y-56906423D01*
X108968766Y-56932307D01*
X108898767Y-56961302D01*
X108892320Y-56966249D01*
X108786443Y-57047492D01*
X108778549Y-57053549D01*
X108773605Y-57059992D01*
X108763731Y-57072860D01*
X108686302Y-57173767D01*
X108660295Y-57236552D01*
X108632935Y-57302606D01*
X108628313Y-57313764D01*
X108608534Y-57464000D01*
X103989466Y-57464000D01*
X103969687Y-57313764D01*
X103965066Y-57302606D01*
X103937705Y-57236552D01*
X103911698Y-57173767D01*
X103834269Y-57072860D01*
X103824395Y-57059992D01*
X103819451Y-57053549D01*
X103811558Y-57047492D01*
X103705680Y-56966249D01*
X103699233Y-56961302D01*
X103629234Y-56932307D01*
X103566745Y-56906423D01*
X103566743Y-56906422D01*
X103559236Y-56903313D01*
X103551177Y-56902252D01*
X103450740Y-56889029D01*
X103450736Y-56889029D01*
X103446720Y-56888500D01*
X103371280Y-56888500D01*
X103367264Y-56889029D01*
X103367260Y-56889029D01*
X103266823Y-56902252D01*
X103258764Y-56903313D01*
X103251257Y-56906422D01*
X103251255Y-56906423D01*
X103188766Y-56932307D01*
X103118767Y-56961302D01*
X103112320Y-56966249D01*
X103006443Y-57047492D01*
X102998549Y-57053549D01*
X102993605Y-57059992D01*
X102983731Y-57072860D01*
X102906302Y-57173767D01*
X102903191Y-57181276D01*
X102903190Y-57181279D01*
X102879450Y-57238593D01*
X102835609Y-57292997D01*
X102769315Y-57315062D01*
X102701616Y-57297783D01*
X102654005Y-57246646D01*
X102648894Y-57234972D01*
X102606989Y-57124074D01*
X102604345Y-57117077D01*
X102595657Y-57104436D01*
X102512549Y-56983513D01*
X102512546Y-56983510D01*
X102508312Y-56977349D01*
X102425216Y-56903313D01*
X102387303Y-56869533D01*
X102387301Y-56869532D01*
X102381721Y-56864560D01*
X102374001Y-56860472D01*
X102238489Y-56788723D01*
X102231881Y-56785224D01*
X102067441Y-56743919D01*
X101981248Y-56743468D01*
X101905368Y-56743070D01*
X101905367Y-56743070D01*
X101897895Y-56743031D01*
X101876235Y-56748231D01*
X101740295Y-56780868D01*
X101740293Y-56780869D01*
X101733032Y-56782612D01*
X101726399Y-56786035D01*
X101726395Y-56786037D01*
X101659465Y-56820583D01*
X101582369Y-56860375D01*
X101576737Y-56865288D01*
X101461003Y-56966249D01*
X101454604Y-56971831D01*
X101357113Y-57110547D01*
X101295524Y-57268513D01*
X101294548Y-57275923D01*
X101294548Y-57275925D01*
X101289496Y-57314304D01*
X101278500Y-57397826D01*
X101278500Y-57679850D01*
X101258815Y-57746889D01*
X101206011Y-57792644D01*
X101136853Y-57802588D01*
X101082364Y-57780472D01*
X101076342Y-57774450D01*
X101067650Y-57770021D01*
X101067647Y-57770019D01*
X100972000Y-57721285D01*
X100972001Y-57721285D01*
X100963304Y-57716854D01*
X100901221Y-57707021D01*
X100836287Y-57675455D01*
X100832996Y-57672402D01*
X100829647Y-57669176D01*
X100816225Y-57655754D01*
X100812272Y-57653042D01*
X100809541Y-57650644D01*
X100786856Y-57629601D01*
X100776225Y-57625359D01*
X100772752Y-57623164D01*
X100760549Y-57616649D01*
X100756797Y-57614987D01*
X100747356Y-57608510D01*
X100723231Y-57602785D01*
X100705912Y-57597308D01*
X100682880Y-57588119D01*
X100676587Y-57587502D01*
X100673342Y-57587502D01*
X100673191Y-57587484D01*
X100670527Y-57587354D01*
X100670536Y-57587174D01*
X100658165Y-57585726D01*
X100649577Y-57585306D01*
X100638436Y-57582662D01*
X100627091Y-57584206D01*
X100627090Y-57584206D01*
X100611197Y-57586369D01*
X100594476Y-57587502D01*
X100163397Y-57587502D01*
X100096358Y-57567817D01*
X100093593Y-57565589D01*
X100093552Y-57565650D01*
X100037385Y-57528120D01*
X100037386Y-57528120D01*
X100027231Y-57521335D01*
X100015255Y-57518953D01*
X100015253Y-57518952D01*
X99990290Y-57513987D01*
X99974874Y-57510921D01*
X99912964Y-57478537D01*
X99878390Y-57417821D01*
X99882129Y-57348052D01*
X99922995Y-57291379D01*
X99971592Y-57268386D01*
X99980602Y-57266339D01*
X99994564Y-57266351D01*
X100007151Y-57260307D01*
X100007850Y-57260148D01*
X100008808Y-57259720D01*
X100009750Y-57259330D01*
X100012972Y-57258984D01*
X100016207Y-57258249D01*
X100021124Y-57255883D01*
X100027231Y-57254668D01*
X100029621Y-57253071D01*
X100038187Y-57251117D01*
X100049108Y-57242415D01*
X100053570Y-57240267D01*
X100060570Y-57235876D01*
X100064441Y-57232796D01*
X100077027Y-57226753D01*
X100085660Y-57215957D01*
X100086073Y-57215589D01*
X100087950Y-57214096D01*
X100093552Y-57210353D01*
X100097483Y-57204469D01*
X100098769Y-57202858D01*
X100098821Y-57202799D01*
X100109728Y-57194109D01*
X100115796Y-57181529D01*
X100118888Y-57177655D01*
X100123281Y-57170680D01*
X100125439Y-57166216D01*
X100134160Y-57155311D01*
X100136169Y-57146572D01*
X100137867Y-57144032D01*
X100139060Y-57138036D01*
X100141334Y-57133332D01*
X100142170Y-57129681D01*
X100142448Y-57126747D01*
X100142549Y-57126504D01*
X100143261Y-57124916D01*
X100143404Y-57124292D01*
X100149470Y-57111715D01*
X100149477Y-57103122D01*
X100181558Y-57045867D01*
X100243243Y-57013054D01*
X100312876Y-57018800D01*
X100322171Y-57022946D01*
X100323001Y-57023216D01*
X100331696Y-57027646D01*
X100457000Y-57047492D01*
X100582304Y-57027646D01*
X100695342Y-56970050D01*
X100785050Y-56880342D01*
X100842646Y-56767304D01*
X100862492Y-56642000D01*
X100842646Y-56516696D01*
X100785050Y-56403658D01*
X100695342Y-56313950D01*
X100582304Y-56256354D01*
X100457000Y-56236508D01*
X100331696Y-56256354D01*
X100322999Y-56260785D01*
X100313717Y-56263801D01*
X100313012Y-56261631D01*
X100257535Y-56272055D01*
X100192792Y-56245784D01*
X100152531Y-56188681D01*
X100149538Y-56178114D01*
X100149550Y-56164636D01*
X100143506Y-56152049D01*
X100143347Y-56151350D01*
X100142919Y-56150392D01*
X100142529Y-56149450D01*
X100142183Y-56146228D01*
X100141448Y-56142993D01*
X100139082Y-56138076D01*
X100137867Y-56131969D01*
X100136270Y-56129579D01*
X100134316Y-56121013D01*
X100125614Y-56110092D01*
X100123466Y-56105630D01*
X100119075Y-56098630D01*
X100115995Y-56094759D01*
X100109952Y-56082173D01*
X100099156Y-56073540D01*
X100098788Y-56073127D01*
X100097295Y-56071250D01*
X100093552Y-56065648D01*
X100087668Y-56061717D01*
X100086057Y-56060431D01*
X100085998Y-56060379D01*
X100077308Y-56049472D01*
X100064728Y-56043404D01*
X100060854Y-56040312D01*
X100053879Y-56035919D01*
X100049415Y-56033761D01*
X100038510Y-56025040D01*
X100029771Y-56023031D01*
X100027231Y-56021333D01*
X100021234Y-56020140D01*
X100016532Y-56017867D01*
X100012879Y-56017030D01*
X100009946Y-56016752D01*
X100009703Y-56016651D01*
X100008116Y-56015939D01*
X100007490Y-56015796D01*
X99994914Y-56009730D01*
X99980950Y-56009718D01*
X99971488Y-56007551D01*
X99910535Y-55973398D01*
X99877722Y-55911712D01*
X99883468Y-55842079D01*
X99925948Y-55786607D01*
X99974977Y-55765063D01*
X99976722Y-55764716D01*
X100027231Y-55754669D01*
X100093552Y-55710354D01*
X100095867Y-55713818D01*
X100137039Y-55691336D01*
X100156072Y-55689290D01*
X100156048Y-55689027D01*
X100161734Y-55688502D01*
X100167449Y-55688502D01*
X100172163Y-55687624D01*
X100175793Y-55687389D01*
X100206709Y-55686228D01*
X100217227Y-55681709D01*
X100221235Y-55680806D01*
X100234476Y-55676783D01*
X100238301Y-55675307D01*
X100249554Y-55673211D01*
X100253753Y-55670623D01*
X100291989Y-55663501D01*
X100398468Y-55663501D01*
X100465507Y-55683186D01*
X100486149Y-55699820D01*
X101066722Y-56280393D01*
X101068548Y-56282508D01*
X101070875Y-56287269D01*
X101106804Y-56320598D01*
X101110155Y-56323826D01*
X101123577Y-56337248D01*
X101127530Y-56339960D01*
X101130261Y-56342358D01*
X101152946Y-56363401D01*
X101163577Y-56367643D01*
X101167050Y-56369838D01*
X101179253Y-56376353D01*
X101183005Y-56378015D01*
X101192446Y-56384492D01*
X101216521Y-56390205D01*
X101216571Y-56390217D01*
X101233889Y-56395694D01*
X101256922Y-56404883D01*
X101263215Y-56405500D01*
X101266460Y-56405500D01*
X101266611Y-56405518D01*
X101269275Y-56405648D01*
X101269266Y-56405828D01*
X101281637Y-56407276D01*
X101290225Y-56407696D01*
X101301366Y-56410340D01*
X101312711Y-56408796D01*
X101312712Y-56408796D01*
X101328605Y-56406633D01*
X101345326Y-56405500D01*
X105648968Y-56405500D01*
X105716007Y-56425185D01*
X105736649Y-56441819D01*
X105889695Y-56594865D01*
X105923180Y-56656188D01*
X105924487Y-56701943D01*
X105917698Y-56744810D01*
X105937544Y-56870114D01*
X105995140Y-56983152D01*
X106084848Y-57072860D01*
X106197886Y-57130456D01*
X106323190Y-57150302D01*
X106448494Y-57130456D01*
X106561532Y-57072860D01*
X106651240Y-56983152D01*
X106708836Y-56870114D01*
X106721990Y-56787065D01*
X106751919Y-56723930D01*
X106811231Y-56686999D01*
X106825065Y-56683990D01*
X106882736Y-56674855D01*
X106908114Y-56670836D01*
X107021152Y-56613240D01*
X107110860Y-56523532D01*
X107168456Y-56410494D01*
X107188302Y-56285190D01*
X107168456Y-56159886D01*
X107110860Y-56046848D01*
X107021152Y-55957140D01*
X106908114Y-55899544D01*
X106782810Y-55879698D01*
X106773169Y-55881225D01*
X106773167Y-55881225D01*
X106739943Y-55886487D01*
X106670650Y-55877532D01*
X106632865Y-55851695D01*
X106260777Y-55479607D01*
X106258951Y-55477492D01*
X106256624Y-55472731D01*
X106220694Y-55439401D01*
X106217344Y-55436174D01*
X106203922Y-55422752D01*
X106199969Y-55420040D01*
X106197238Y-55417642D01*
X106174553Y-55396599D01*
X106163922Y-55392357D01*
X106160449Y-55390162D01*
X106148246Y-55383647D01*
X106144494Y-55381985D01*
X106135053Y-55375508D01*
X106110928Y-55369783D01*
X106093609Y-55364306D01*
X106070577Y-55355117D01*
X106064284Y-55354500D01*
X106061039Y-55354500D01*
X106060888Y-55354482D01*
X106058224Y-55354352D01*
X106058233Y-55354172D01*
X106045862Y-55352724D01*
X106037274Y-55352304D01*
X106026133Y-55349660D01*
X106014788Y-55351204D01*
X106014787Y-55351204D01*
X105998894Y-55353367D01*
X105982173Y-55354500D01*
X101678533Y-55354500D01*
X101611494Y-55334815D01*
X101590852Y-55318181D01*
X101010279Y-54737608D01*
X101008453Y-54735493D01*
X101006126Y-54730732D01*
X100970196Y-54697402D01*
X100966846Y-54694175D01*
X100953424Y-54680753D01*
X100949471Y-54678041D01*
X100946740Y-54675643D01*
X100924055Y-54654600D01*
X100913424Y-54650358D01*
X100909951Y-54648163D01*
X100897748Y-54641648D01*
X100893996Y-54639986D01*
X100884555Y-54633509D01*
X100860430Y-54627784D01*
X100843111Y-54622307D01*
X100841878Y-54621815D01*
X100820079Y-54613118D01*
X100813786Y-54612501D01*
X100810541Y-54612501D01*
X100810390Y-54612483D01*
X100807726Y-54612353D01*
X100807735Y-54612173D01*
X100795364Y-54610725D01*
X100786776Y-54610305D01*
X100775635Y-54607661D01*
X100764290Y-54609205D01*
X100764289Y-54609205D01*
X100748396Y-54611368D01*
X100731675Y-54612501D01*
X100293435Y-54612501D01*
X100263891Y-54606249D01*
X100263355Y-54608508D01*
X100239230Y-54602783D01*
X100221911Y-54597306D01*
X100198879Y-54588117D01*
X100192586Y-54587500D01*
X100189341Y-54587500D01*
X100189190Y-54587482D01*
X100186526Y-54587352D01*
X100186535Y-54587172D01*
X100174165Y-54585724D01*
X100165575Y-54585304D01*
X100154435Y-54582660D01*
X100149607Y-54583317D01*
X100091059Y-54563982D01*
X100037385Y-54528118D01*
X100037386Y-54528118D01*
X100027231Y-54521333D01*
X100015255Y-54518951D01*
X100015253Y-54518950D01*
X99996674Y-54515255D01*
X99968748Y-54509700D01*
X99167252Y-54509700D01*
X99139326Y-54515255D01*
X99120747Y-54518950D01*
X99120745Y-54518951D01*
X99108769Y-54521333D01*
X99042448Y-54565648D01*
X98998133Y-54631969D01*
X98995751Y-54643945D01*
X98995750Y-54643947D01*
X98993631Y-54654600D01*
X98986500Y-54690452D01*
X98986500Y-55085548D01*
X98987689Y-55091525D01*
X98992122Y-55113808D01*
X98992122Y-55162192D01*
X98986500Y-55190454D01*
X98986500Y-55585550D01*
X98998133Y-55644033D01*
X99042448Y-55710354D01*
X99108769Y-55754669D01*
X99161023Y-55765063D01*
X99161119Y-55765082D01*
X99223029Y-55797467D01*
X99257604Y-55858183D01*
X99253864Y-55927952D01*
X99212997Y-55984624D01*
X99164400Y-56007617D01*
X99155398Y-56009662D01*
X99141436Y-56009650D01*
X99128849Y-56015694D01*
X99128150Y-56015853D01*
X99127192Y-56016281D01*
X99126250Y-56016671D01*
X99123027Y-56017017D01*
X99119794Y-56017751D01*
X99114875Y-56020119D01*
X99108769Y-56021333D01*
X99106379Y-56022930D01*
X99097813Y-56024884D01*
X99086892Y-56033586D01*
X99082430Y-56035734D01*
X99075430Y-56040125D01*
X99071559Y-56043205D01*
X99058973Y-56049248D01*
X99050340Y-56060044D01*
X99049927Y-56060412D01*
X99048050Y-56061905D01*
X99042448Y-56065648D01*
X99038517Y-56071532D01*
X99037231Y-56073143D01*
X99037179Y-56073202D01*
X99026272Y-56081892D01*
X99020204Y-56094472D01*
X99017112Y-56098346D01*
X99012719Y-56105321D01*
X99010561Y-56109785D01*
X99001840Y-56120690D01*
X98999831Y-56129429D01*
X98998133Y-56131969D01*
X98996940Y-56137966D01*
X98994667Y-56142668D01*
X98993830Y-56146321D01*
X98993552Y-56149254D01*
X98993451Y-56149497D01*
X98992739Y-56151084D01*
X98992596Y-56151709D01*
X98986530Y-56164286D01*
X98986510Y-56187356D01*
X98984433Y-56187354D01*
X98984418Y-56187420D01*
X98986495Y-56187420D01*
X98986495Y-56204308D01*
X98986450Y-56255764D01*
X98981706Y-56255760D01*
X98981700Y-56255858D01*
X95958500Y-56255858D01*
X95958500Y-54156516D01*
X101278500Y-54156516D01*
X101293724Y-54282320D01*
X101296368Y-54289317D01*
X101336938Y-54396682D01*
X101353655Y-54440923D01*
X101357892Y-54447087D01*
X101357892Y-54447088D01*
X101445451Y-54574487D01*
X101445454Y-54574490D01*
X101449688Y-54580651D01*
X101485544Y-54612598D01*
X101566572Y-54684791D01*
X101576279Y-54693440D01*
X101582885Y-54696938D01*
X101582887Y-54696939D01*
X101651199Y-54733108D01*
X101726119Y-54772776D01*
X101890559Y-54814081D01*
X101976752Y-54814532D01*
X102052632Y-54814930D01*
X102052633Y-54814930D01*
X102060105Y-54814969D01*
X102105177Y-54804148D01*
X102217705Y-54777132D01*
X102217707Y-54777131D01*
X102224968Y-54775388D01*
X102231601Y-54771965D01*
X102231605Y-54771963D01*
X102298535Y-54737417D01*
X102375631Y-54697625D01*
X102432331Y-54648163D01*
X102497760Y-54591086D01*
X102497762Y-54591084D01*
X102503396Y-54586169D01*
X102600887Y-54447453D01*
X102662476Y-54289487D01*
X102679500Y-54160174D01*
X102679500Y-53475566D01*
X104723660Y-53475566D01*
X104738756Y-53586489D01*
X104740618Y-53589870D01*
X104745500Y-53620178D01*
X104745501Y-54010832D01*
X104748399Y-54041500D01*
X104792039Y-54165768D01*
X104870289Y-54271711D01*
X104877741Y-54277215D01*
X104959826Y-54337844D01*
X105002056Y-54393508D01*
X105008629Y-54456982D01*
X105004508Y-54483000D01*
X105024354Y-54608304D01*
X105081950Y-54721342D01*
X105171658Y-54811050D01*
X105284696Y-54868646D01*
X105410000Y-54888492D01*
X105535304Y-54868646D01*
X105648342Y-54811050D01*
X105738050Y-54721342D01*
X105795646Y-54608304D01*
X105815492Y-54483000D01*
X105813965Y-54473359D01*
X105813965Y-54463721D01*
X105833650Y-54396682D01*
X105879943Y-54354134D01*
X105882027Y-54353031D01*
X105890768Y-54349961D01*
X105996711Y-54271711D01*
X106074961Y-54165768D01*
X106101603Y-54089902D01*
X106116097Y-54048631D01*
X106116097Y-54048629D01*
X106118601Y-54041500D01*
X106121500Y-54010833D01*
X106121499Y-53431168D01*
X106121499Y-53431167D01*
X106476500Y-53431167D01*
X106476501Y-54010832D01*
X106479399Y-54041500D01*
X106523039Y-54165768D01*
X106601289Y-54271711D01*
X106707232Y-54349961D01*
X106715973Y-54353031D01*
X106718057Y-54354134D01*
X106768094Y-54402900D01*
X106784035Y-54463721D01*
X106784035Y-54473359D01*
X106782508Y-54483000D01*
X106802354Y-54608304D01*
X106859950Y-54721342D01*
X106949658Y-54811050D01*
X107062696Y-54868646D01*
X107188000Y-54888492D01*
X107313304Y-54868646D01*
X107426342Y-54811050D01*
X107516050Y-54721342D01*
X107573646Y-54608304D01*
X107593492Y-54483000D01*
X107589371Y-54456982D01*
X107598327Y-54387690D01*
X107638174Y-54337844D01*
X107720259Y-54277215D01*
X107727711Y-54271711D01*
X107805961Y-54165768D01*
X107809210Y-54156516D01*
X109918500Y-54156516D01*
X109933724Y-54282320D01*
X109936368Y-54289317D01*
X109976938Y-54396682D01*
X109993655Y-54440923D01*
X109997892Y-54447087D01*
X109997892Y-54447088D01*
X110085451Y-54574487D01*
X110085454Y-54574490D01*
X110089688Y-54580651D01*
X110125544Y-54612598D01*
X110206572Y-54684791D01*
X110216279Y-54693440D01*
X110222885Y-54696938D01*
X110222887Y-54696939D01*
X110291199Y-54733108D01*
X110366119Y-54772776D01*
X110530559Y-54814081D01*
X110616752Y-54814532D01*
X110692632Y-54814930D01*
X110692633Y-54814930D01*
X110700105Y-54814969D01*
X110745177Y-54804148D01*
X110857705Y-54777132D01*
X110857707Y-54777131D01*
X110864968Y-54775388D01*
X110871601Y-54771965D01*
X110871605Y-54771963D01*
X110938535Y-54737417D01*
X111015631Y-54697625D01*
X111072331Y-54648163D01*
X111137760Y-54591086D01*
X111137762Y-54591084D01*
X111143396Y-54586169D01*
X111240887Y-54447453D01*
X111302476Y-54289487D01*
X111319500Y-54160174D01*
X111319500Y-53471484D01*
X111314270Y-53428268D01*
X111305175Y-53353105D01*
X111305174Y-53353101D01*
X111304276Y-53345680D01*
X111275217Y-53268778D01*
X111246989Y-53194073D01*
X111246987Y-53194070D01*
X111244345Y-53187077D01*
X111179027Y-53092039D01*
X111152549Y-53053513D01*
X111152546Y-53053510D01*
X111148312Y-53047349D01*
X111021721Y-52934560D01*
X111007347Y-52926949D01*
X110878489Y-52858723D01*
X110871881Y-52855224D01*
X110707441Y-52813919D01*
X110621248Y-52813468D01*
X110545368Y-52813070D01*
X110545367Y-52813070D01*
X110537895Y-52813031D01*
X110516235Y-52818231D01*
X110380295Y-52850868D01*
X110380293Y-52850869D01*
X110373032Y-52852612D01*
X110366399Y-52856035D01*
X110366395Y-52856037D01*
X110299465Y-52890583D01*
X110222369Y-52930375D01*
X110094604Y-53041831D01*
X109997113Y-53180547D01*
X109935524Y-53338513D01*
X109934548Y-53345923D01*
X109934548Y-53345925D01*
X109920003Y-53456413D01*
X109918500Y-53467826D01*
X109918500Y-54156516D01*
X107809210Y-54156516D01*
X107832603Y-54089902D01*
X107847097Y-54048631D01*
X107847097Y-54048629D01*
X107849601Y-54041500D01*
X107852500Y-54010833D01*
X107852499Y-53431168D01*
X107849601Y-53400500D01*
X107805961Y-53276232D01*
X107727711Y-53170289D01*
X107621768Y-53092039D01*
X107545902Y-53065397D01*
X107504631Y-53050903D01*
X107504629Y-53050903D01*
X107497500Y-53048399D01*
X107489979Y-53047688D01*
X107469747Y-53045775D01*
X107469737Y-53045775D01*
X107466833Y-53045500D01*
X107463902Y-53045500D01*
X107163569Y-53045501D01*
X106862168Y-53045501D01*
X106831500Y-53048399D01*
X106707232Y-53092039D01*
X106601289Y-53170289D01*
X106523039Y-53276232D01*
X106498564Y-53345925D01*
X106481905Y-53393365D01*
X106479399Y-53400500D01*
X106478688Y-53408021D01*
X106477977Y-53415546D01*
X106476500Y-53431167D01*
X106121499Y-53431167D01*
X106118601Y-53400500D01*
X106074961Y-53276232D01*
X105996711Y-53170289D01*
X105890768Y-53092039D01*
X105814902Y-53065397D01*
X105773631Y-53050903D01*
X105773629Y-53050903D01*
X105766500Y-53048399D01*
X105758979Y-53047688D01*
X105738747Y-53045775D01*
X105738737Y-53045775D01*
X105735833Y-53045500D01*
X105675214Y-53045500D01*
X105267935Y-53045501D01*
X105246464Y-53041917D01*
X105246309Y-53042965D01*
X105234985Y-53041292D01*
X105224158Y-53037575D01*
X105212722Y-53038004D01*
X105212720Y-53038004D01*
X105172691Y-53039507D01*
X105112292Y-53041774D01*
X105101774Y-53046293D01*
X105101773Y-53046293D01*
X105092890Y-53050110D01*
X105084502Y-53053713D01*
X105076651Y-53056774D01*
X104976232Y-53092039D01*
X104870289Y-53170289D01*
X104792039Y-53276232D01*
X104788968Y-53284977D01*
X104788967Y-53284979D01*
X104777039Y-53318946D01*
X104762297Y-53348004D01*
X104749508Y-53366646D01*
X104746865Y-53377784D01*
X104746864Y-53377786D01*
X104741485Y-53400452D01*
X104723660Y-53475566D01*
X102679500Y-53475566D01*
X102679500Y-53471484D01*
X102674270Y-53428268D01*
X102665175Y-53353105D01*
X102665174Y-53353101D01*
X102664276Y-53345680D01*
X102635217Y-53268778D01*
X102606989Y-53194073D01*
X102606987Y-53194070D01*
X102604345Y-53187077D01*
X102539027Y-53092039D01*
X102512549Y-53053513D01*
X102512546Y-53053510D01*
X102508312Y-53047349D01*
X102381721Y-52934560D01*
X102367347Y-52926949D01*
X102238489Y-52858723D01*
X102231881Y-52855224D01*
X102067441Y-52813919D01*
X101981248Y-52813468D01*
X101905368Y-52813070D01*
X101905367Y-52813070D01*
X101897895Y-52813031D01*
X101876235Y-52818231D01*
X101740295Y-52850868D01*
X101740293Y-52850869D01*
X101733032Y-52852612D01*
X101726399Y-52856035D01*
X101726395Y-52856037D01*
X101659465Y-52890583D01*
X101582369Y-52930375D01*
X101454604Y-53041831D01*
X101357113Y-53180547D01*
X101295524Y-53338513D01*
X101294548Y-53345923D01*
X101294548Y-53345925D01*
X101280003Y-53456413D01*
X101278500Y-53467826D01*
X101278500Y-54156516D01*
X95958500Y-54156516D01*
X95958500Y-53856524D01*
X95978185Y-53789485D01*
X96030989Y-53743730D01*
X96100147Y-53733786D01*
X96163703Y-53762811D01*
X96201477Y-53821589D01*
X96204117Y-53832333D01*
X96208433Y-53854031D01*
X96252748Y-53920352D01*
X96319069Y-53964667D01*
X96331045Y-53967049D01*
X96331047Y-53967050D01*
X96349626Y-53970745D01*
X96377552Y-53976300D01*
X97458448Y-53976300D01*
X97486374Y-53970745D01*
X97504953Y-53967050D01*
X97504955Y-53967049D01*
X97516931Y-53964667D01*
X97583252Y-53920352D01*
X97627567Y-53854031D01*
X97639200Y-53795548D01*
X97639200Y-53400452D01*
X97627567Y-53341969D01*
X97583252Y-53275648D01*
X97516931Y-53231333D01*
X97504955Y-53228951D01*
X97504953Y-53228950D01*
X97486374Y-53225255D01*
X97458448Y-53219700D01*
X96377552Y-53219700D01*
X96349626Y-53225255D01*
X96331047Y-53228950D01*
X96331045Y-53228951D01*
X96319069Y-53231333D01*
X96252748Y-53275648D01*
X96208433Y-53341969D01*
X96206051Y-53353945D01*
X96206050Y-53353947D01*
X96204117Y-53363667D01*
X96171732Y-53425578D01*
X96111017Y-53460152D01*
X96041247Y-53456413D01*
X95984575Y-53415546D01*
X95958994Y-53350528D01*
X95958500Y-53339476D01*
X95958500Y-52648500D01*
X95978185Y-52581461D01*
X96030989Y-52535706D01*
X96082500Y-52524500D01*
X113467500Y-52524500D01*
X113534539Y-52544185D01*
G37*
%TD.AperFunction*%
%TA.AperFunction,Conductor*%
G36*
X105215703Y-69415120D02*
G01*
X105222181Y-69421152D01*
X106343181Y-70542152D01*
X106376666Y-70603475D01*
X106379500Y-70629833D01*
X106379500Y-71507370D01*
X106359815Y-71574409D01*
X106333952Y-71600737D01*
X106334240Y-71601025D01*
X106325603Y-71609663D01*
X106315448Y-71616448D01*
X106312970Y-71620156D01*
X106256362Y-71651068D01*
X106186670Y-71646086D01*
X106147563Y-71620954D01*
X106144552Y-71616448D01*
X106078231Y-71572133D01*
X106066255Y-71569751D01*
X106066253Y-71569750D01*
X106047674Y-71566055D01*
X106019748Y-71560500D01*
X105540252Y-71560500D01*
X105512326Y-71566055D01*
X105493747Y-71569750D01*
X105493745Y-71569751D01*
X105481769Y-71572133D01*
X105415448Y-71616448D01*
X105392316Y-71651068D01*
X105388102Y-71657374D01*
X105334490Y-71702179D01*
X105265165Y-71710886D01*
X105202137Y-71680731D01*
X105181898Y-71657374D01*
X105177685Y-71651068D01*
X105154552Y-71616448D01*
X105088231Y-71572133D01*
X105083218Y-71571136D01*
X105032645Y-71530382D01*
X105010500Y-71459661D01*
X105010500Y-69508833D01*
X105030185Y-69441794D01*
X105082989Y-69396039D01*
X105152147Y-69386095D01*
X105215703Y-69415120D01*
G37*
%TD.AperFunction*%
%TD*%
M02*
