%TF.GenerationSoftware,KiCad,Pcbnew,(6.0.9)*%
%TF.CreationDate,2022-11-22T21:13:51-05:00*%
%TF.ProjectId,030,3033302e-6b69-4636-9164-5f7063625858,rev?*%
%TF.SameCoordinates,Original*%
%TF.FileFunction,Legend,Bot*%
%TF.FilePolarity,Positive*%
%FSLAX46Y46*%
G04 Gerber Fmt 4.6, Leading zero omitted, Abs format (unit mm)*
G04 Created by KiCad (PCBNEW (6.0.9)) date 2022-11-22 21:13:51*
%MOMM*%
%LPD*%
G01*
G04 APERTURE LIST*
%ADD10C,0.150000*%
%ADD11C,0.120000*%
G04 APERTURE END LIST*
D10*
%TO.C,USB*%
X107560904Y-54316380D02*
X107560904Y-55125904D01*
X107513285Y-55221142D01*
X107465666Y-55268761D01*
X107370428Y-55316380D01*
X107179952Y-55316380D01*
X107084714Y-55268761D01*
X107037095Y-55221142D01*
X106989476Y-55125904D01*
X106989476Y-54316380D01*
X106560904Y-55268761D02*
X106418047Y-55316380D01*
X106179952Y-55316380D01*
X106084714Y-55268761D01*
X106037095Y-55221142D01*
X105989476Y-55125904D01*
X105989476Y-55030666D01*
X106037095Y-54935428D01*
X106084714Y-54887809D01*
X106179952Y-54840190D01*
X106370428Y-54792571D01*
X106465666Y-54744952D01*
X106513285Y-54697333D01*
X106560904Y-54602095D01*
X106560904Y-54506857D01*
X106513285Y-54411619D01*
X106465666Y-54364000D01*
X106370428Y-54316380D01*
X106132333Y-54316380D01*
X105989476Y-54364000D01*
X105227571Y-54792571D02*
X105084714Y-54840190D01*
X105037095Y-54887809D01*
X104989476Y-54983047D01*
X104989476Y-55125904D01*
X105037095Y-55221142D01*
X105084714Y-55268761D01*
X105179952Y-55316380D01*
X105560904Y-55316380D01*
X105560904Y-54316380D01*
X105227571Y-54316380D01*
X105132333Y-54364000D01*
X105084714Y-54411619D01*
X105037095Y-54506857D01*
X105037095Y-54602095D01*
X105084714Y-54697333D01*
X105132333Y-54744952D01*
X105227571Y-54792571D01*
X105560904Y-54792571D01*
D11*
X110999000Y-56764000D02*
X110999000Y-54764000D01*
X101599000Y-56764000D02*
X101599000Y-54764000D01*
%TD*%
M02*
