%TF.GenerationSoftware,KiCad,Pcbnew,(5.1.10)-1*%
%TF.CreationDate,2022-04-16T22:58:20-04:00*%
%TF.ProjectId,030,3033302e-6b69-4636-9164-5f7063625858,rev?*%
%TF.SameCoordinates,Original*%
%TF.FileFunction,Copper,L2,Bot*%
%TF.FilePolarity,Positive*%
%FSLAX46Y46*%
G04 Gerber Fmt 4.6, Leading zero omitted, Abs format (unit mm)*
G04 Created by KiCad (PCBNEW (5.1.10)-1) date 2022-04-16 22:58:20*
%MOMM*%
%LPD*%
G01*
G04 APERTURE LIST*
%TA.AperFunction,ComponentPad*%
%ADD10O,1.000000X1.600000*%
%TD*%
%TA.AperFunction,ComponentPad*%
%ADD11O,1.000000X2.100000*%
%TD*%
%TA.AperFunction,SMDPad,CuDef*%
%ADD12R,0.300000X1.450000*%
%TD*%
%TA.AperFunction,SMDPad,CuDef*%
%ADD13R,0.600000X1.450000*%
%TD*%
%TA.AperFunction,ViaPad*%
%ADD14C,0.400000*%
%TD*%
%TA.AperFunction,Conductor*%
%ADD15C,0.200000*%
%TD*%
%TA.AperFunction,Conductor*%
%ADD16C,0.250000*%
%TD*%
%TA.AperFunction,Conductor*%
%ADD17C,0.100000*%
%TD*%
G04 APERTURE END LIST*
D10*
%TO.P,USB,S1*%
%TO.N,GND*%
X110619000Y-53814000D03*
X101979000Y-53814000D03*
D11*
X101979000Y-57994000D03*
X110619000Y-57994000D03*
D12*
%TO.P,USB,A6*%
%TO.N,/D+*%
X106049000Y-58909000D03*
%TO.P,USB,B5*%
%TO.N,Net-(J2-PadB5)*%
X108049000Y-58909000D03*
%TO.P,USB,A8*%
%TO.N,Net-(J2-PadA8)*%
X107549000Y-58909000D03*
%TO.P,USB,B6*%
%TO.N,/D+*%
X107049000Y-58909000D03*
%TO.P,USB,A7*%
%TO.N,/D-*%
X106549000Y-58909000D03*
%TO.P,USB,B7*%
X105549000Y-58909000D03*
%TO.P,USB,A5*%
%TO.N,Net-(J2-PadA5)*%
X105049000Y-58909000D03*
%TO.P,USB,B8*%
%TO.N,Net-(J2-PadB8)*%
X104549000Y-58909000D03*
D13*
%TO.P,USB,A12*%
%TO.N,GND*%
X109549000Y-58909000D03*
%TO.P,USB,B4*%
%TO.N,+5V*%
X108749000Y-58909000D03*
%TO.P,USB,A4*%
X103849000Y-58909000D03*
%TO.P,USB,A1*%
%TO.N,GND*%
X103049000Y-58909000D03*
%TO.P,USB,B12*%
X103049000Y-58909000D03*
%TO.P,USB,B9*%
%TO.N,+5V*%
X103849000Y-58909000D03*
%TO.P,USB,A9*%
X108749000Y-58909000D03*
%TO.P,USB,B1*%
%TO.N,GND*%
X109549000Y-58909000D03*
%TD*%
D14*
%TO.N,+5V*%
X100457000Y-56642000D03*
%TO.N,GND*%
X98560001Y-55888001D03*
X98567999Y-57388001D03*
X98933000Y-59880500D03*
X100330000Y-55880000D03*
X102362000Y-63754000D03*
X102362000Y-67310000D03*
X102489000Y-69977000D03*
X103790000Y-70250000D03*
X108230000Y-69810000D03*
X104648000Y-65024000D03*
X104775000Y-62484000D03*
X109220000Y-60452000D03*
X109347000Y-55880000D03*
X109474000Y-54737000D03*
X103505000Y-54483000D03*
X112014000Y-53848000D03*
X103378000Y-60452000D03*
X106299000Y-60960000D03*
%TO.N,/D+*%
X106782810Y-56285190D03*
%TO.N,/D-*%
X106323190Y-56744810D03*
%TO.N,Net-(J2-PadB5)*%
X107188000Y-54483000D03*
%TO.N,Net-(J2-PadA5)*%
X105410000Y-54483000D03*
%TO.N,/Annode*%
X100838000Y-58102500D03*
X103210000Y-72240000D03*
X109110000Y-72240000D03*
%TD*%
D15*
%TO.N,+5V*%
X104009001Y-58748999D02*
X103849000Y-58909000D01*
X108749000Y-59834000D02*
X108749000Y-58909000D01*
X108298989Y-60284011D02*
X108749000Y-59834000D01*
X104299011Y-60284011D02*
X108298989Y-60284011D01*
X103849000Y-59834000D02*
X104299011Y-60284011D01*
X103849000Y-58909000D02*
X103849000Y-59834000D01*
X103849000Y-58238998D02*
X103849000Y-58909000D01*
X104394000Y-57693998D02*
X103849000Y-58238998D01*
X104394000Y-57086500D02*
X104394000Y-57693998D01*
X103949500Y-56642000D02*
X104394000Y-57086500D01*
X100457000Y-56642000D02*
X103949500Y-56642000D01*
%TO.N,/D+*%
X107049000Y-59779002D02*
X107049000Y-58909000D01*
X106178999Y-59909001D02*
X106919001Y-59909001D01*
X106049000Y-59779002D02*
X106178999Y-59909001D01*
X106919001Y-59909001D02*
X107049000Y-59779002D01*
X106049000Y-58909000D02*
X106049000Y-59779002D01*
X107024000Y-58884000D02*
X107049000Y-58909000D01*
X107024000Y-56667801D02*
X107024000Y-58884000D01*
X106782810Y-56426611D02*
X107024000Y-56667801D01*
X106782810Y-56285190D02*
X106782810Y-56426611D01*
%TO.N,/D-*%
X106549000Y-58038998D02*
X106549000Y-58909000D01*
X106419001Y-57908999D02*
X106549000Y-58038998D01*
X105549000Y-57984000D02*
X105624001Y-57908999D01*
X105549000Y-58909000D02*
X105549000Y-57984000D01*
X105624001Y-57908999D02*
X106419001Y-57908999D01*
X106549000Y-56970620D02*
X106549000Y-58909000D01*
X106323190Y-56744810D02*
X106549000Y-56970620D01*
D16*
%TO.N,Net-(J2-PadB5)*%
X108049000Y-58909000D02*
X108049000Y-58773000D01*
D15*
X108049000Y-55344000D02*
X107188000Y-54483000D01*
X108049000Y-58909000D02*
X108049000Y-55344000D01*
%TO.N,Net-(J2-PadA5)*%
X105049000Y-54844000D02*
X105410000Y-54483000D01*
X105049000Y-58909000D02*
X105049000Y-54844000D01*
%TO.N,/Annode*%
X109110000Y-72240000D02*
X103210000Y-72240000D01*
X100838000Y-60071000D02*
X100838000Y-58102500D01*
X103210000Y-62443000D02*
X100838000Y-60071000D01*
X103210000Y-72240000D02*
X103210000Y-62443000D01*
%TD*%
D16*
%TO.N,GND*%
X113392000Y-61830000D02*
X110509647Y-61830000D01*
X110490000Y-61828065D01*
X110470354Y-61830000D01*
X110470353Y-61830000D01*
X110411586Y-61835788D01*
X110336186Y-61858660D01*
X110266697Y-61895803D01*
X110205789Y-61945789D01*
X110155803Y-62006697D01*
X110118660Y-62076186D01*
X110095788Y-62151586D01*
X110088065Y-62230000D01*
X110090001Y-62249657D01*
X110090000Y-73514000D01*
X102254000Y-73514000D01*
X102254000Y-62249646D01*
X102255935Y-62230000D01*
X102248362Y-62153114D01*
X102735001Y-62639753D01*
X102735000Y-71915915D01*
X102700442Y-71967635D01*
X102657097Y-72072279D01*
X102635000Y-72183367D01*
X102635000Y-72296633D01*
X102657097Y-72407721D01*
X102700442Y-72512365D01*
X102763368Y-72606541D01*
X102843459Y-72686632D01*
X102937635Y-72749558D01*
X103042279Y-72792903D01*
X103153367Y-72815000D01*
X103266633Y-72815000D01*
X103377721Y-72792903D01*
X103482365Y-72749558D01*
X103534085Y-72715000D01*
X108785915Y-72715000D01*
X108837635Y-72749558D01*
X108942279Y-72792903D01*
X109053367Y-72815000D01*
X109166633Y-72815000D01*
X109277721Y-72792903D01*
X109382365Y-72749558D01*
X109476541Y-72686632D01*
X109556632Y-72606541D01*
X109619558Y-72512365D01*
X109662903Y-72407721D01*
X109685000Y-72296633D01*
X109685000Y-72183367D01*
X109662903Y-72072279D01*
X109619558Y-71967635D01*
X109556632Y-71873459D01*
X109476541Y-71793368D01*
X109382365Y-71730442D01*
X109277721Y-71687097D01*
X109166633Y-71665000D01*
X109053367Y-71665000D01*
X108942279Y-71687097D01*
X108837635Y-71730442D01*
X108785915Y-71765000D01*
X103685000Y-71765000D01*
X103685000Y-66746311D01*
X104585600Y-66746311D01*
X104585600Y-67073689D01*
X104649468Y-67394775D01*
X104774749Y-67697232D01*
X104956630Y-67969436D01*
X105188121Y-68200927D01*
X105460325Y-68382808D01*
X105762782Y-68508089D01*
X106083868Y-68571957D01*
X106411246Y-68571957D01*
X106732332Y-68508089D01*
X107034789Y-68382808D01*
X107306993Y-68200927D01*
X107538484Y-67969436D01*
X107720365Y-67697232D01*
X107845646Y-67394775D01*
X107909514Y-67073689D01*
X107909514Y-66746311D01*
X107845646Y-66425225D01*
X107720365Y-66122768D01*
X107538484Y-65850564D01*
X107306993Y-65619073D01*
X107034789Y-65437192D01*
X106732332Y-65311911D01*
X106411246Y-65248043D01*
X106083868Y-65248043D01*
X105762782Y-65311911D01*
X105460325Y-65437192D01*
X105188121Y-65619073D01*
X104956630Y-65850564D01*
X104774749Y-66122768D01*
X104649468Y-66425225D01*
X104585600Y-66746311D01*
X103685000Y-66746311D01*
X103685000Y-62466332D01*
X103687298Y-62443000D01*
X103678127Y-62349884D01*
X103650966Y-62260346D01*
X103606859Y-62177827D01*
X103562374Y-62123622D01*
X103547501Y-62105499D01*
X103529377Y-62090625D01*
X101313000Y-59874250D01*
X101313000Y-58426585D01*
X101347558Y-58374865D01*
X101390903Y-58270221D01*
X101413000Y-58159133D01*
X101413000Y-58045867D01*
X101390903Y-57934779D01*
X101347558Y-57830135D01*
X101284632Y-57735959D01*
X101204541Y-57655868D01*
X101110365Y-57592942D01*
X101005721Y-57549597D01*
X100894633Y-57527500D01*
X100781367Y-57527500D01*
X100670279Y-57549597D01*
X100565635Y-57592942D01*
X100471459Y-57655868D01*
X100391368Y-57735959D01*
X100328442Y-57830135D01*
X100285097Y-57934779D01*
X100263000Y-58045867D01*
X100263000Y-58159133D01*
X100285097Y-58270221D01*
X100328442Y-58374865D01*
X100363001Y-58426586D01*
X100363000Y-60047667D01*
X100360702Y-60071000D01*
X100369873Y-60164116D01*
X100372924Y-60174173D01*
X100397034Y-60253653D01*
X100441141Y-60336173D01*
X100500499Y-60408501D01*
X100518634Y-60423384D01*
X101930886Y-61835638D01*
X101873647Y-61830000D01*
X101873646Y-61830000D01*
X101854000Y-61828065D01*
X101834353Y-61830000D01*
X96158000Y-61830000D01*
X96158000Y-56585367D01*
X99882000Y-56585367D01*
X99882000Y-56698633D01*
X99904097Y-56809721D01*
X99947442Y-56914365D01*
X100010368Y-57008541D01*
X100090459Y-57088632D01*
X100184635Y-57151558D01*
X100289279Y-57194903D01*
X100400367Y-57217000D01*
X100513633Y-57217000D01*
X100624721Y-57194903D01*
X100729365Y-57151558D01*
X100781085Y-57117000D01*
X102798975Y-57117000D01*
X102788668Y-57132426D01*
X102735901Y-57259818D01*
X102709000Y-57395056D01*
X102709000Y-57532944D01*
X102735901Y-57668182D01*
X102788668Y-57795574D01*
X102865274Y-57910224D01*
X102962776Y-58007726D01*
X103077426Y-58084332D01*
X103177903Y-58125951D01*
X103172186Y-58184000D01*
X103172186Y-59634000D01*
X103179426Y-59707513D01*
X103200869Y-59778200D01*
X103235691Y-59843347D01*
X103282552Y-59900448D01*
X103339653Y-59947309D01*
X103396161Y-59977514D01*
X103403625Y-60002116D01*
X103408035Y-60016654D01*
X103452142Y-60099173D01*
X103511500Y-60171501D01*
X103529629Y-60186379D01*
X103946636Y-60603387D01*
X103961510Y-60621512D01*
X104033838Y-60680870D01*
X104116355Y-60724976D01*
X104116357Y-60724977D01*
X104205895Y-60752138D01*
X104299011Y-60761309D01*
X104322343Y-60759011D01*
X108275657Y-60759011D01*
X108298989Y-60761309D01*
X108322321Y-60759011D01*
X108392105Y-60752138D01*
X108481643Y-60724977D01*
X108564162Y-60680870D01*
X108636490Y-60621512D01*
X108651372Y-60603378D01*
X109068376Y-60186375D01*
X109086501Y-60171501D01*
X109145859Y-60099173D01*
X109189966Y-60016654D01*
X109201839Y-59977513D01*
X109258347Y-59947309D01*
X109315448Y-59900448D01*
X109362309Y-59843347D01*
X109397131Y-59778200D01*
X109418574Y-59707513D01*
X109425814Y-59634000D01*
X109425814Y-58184000D01*
X109420097Y-58125951D01*
X109520574Y-58084332D01*
X109635224Y-58007726D01*
X109732726Y-57910224D01*
X109809332Y-57795574D01*
X109862099Y-57668182D01*
X109889000Y-57532944D01*
X109889000Y-57395056D01*
X109862099Y-57259818D01*
X109809332Y-57132426D01*
X109732726Y-57017776D01*
X109635224Y-56920274D01*
X109520574Y-56843668D01*
X109393182Y-56790901D01*
X109257944Y-56764000D01*
X109120056Y-56764000D01*
X108984818Y-56790901D01*
X108857426Y-56843668D01*
X108742776Y-56920274D01*
X108645274Y-57017776D01*
X108568668Y-57132426D01*
X108524000Y-57240265D01*
X108524000Y-55367332D01*
X108526298Y-55344000D01*
X108517127Y-55250884D01*
X108489966Y-55161345D01*
X108474602Y-55132602D01*
X108445859Y-55078827D01*
X108386501Y-55006499D01*
X108368377Y-54991625D01*
X107753039Y-54376288D01*
X107740903Y-54315279D01*
X107697558Y-54210635D01*
X107634632Y-54116459D01*
X107554541Y-54036368D01*
X107460365Y-53973442D01*
X107355721Y-53930097D01*
X107244633Y-53908000D01*
X107131367Y-53908000D01*
X107020279Y-53930097D01*
X106915635Y-53973442D01*
X106821459Y-54036368D01*
X106741368Y-54116459D01*
X106678442Y-54210635D01*
X106635097Y-54315279D01*
X106613000Y-54426367D01*
X106613000Y-54539633D01*
X106635097Y-54650721D01*
X106678442Y-54755365D01*
X106741368Y-54849541D01*
X106821459Y-54929632D01*
X106915635Y-54992558D01*
X107020279Y-55035903D01*
X107081288Y-55048039D01*
X107574001Y-55540753D01*
X107574000Y-57807186D01*
X107499000Y-57807186D01*
X107499000Y-56691132D01*
X107501298Y-56667800D01*
X107492127Y-56574684D01*
X107478467Y-56529654D01*
X107464966Y-56485147D01*
X107420859Y-56402628D01*
X107361501Y-56330300D01*
X107357810Y-56327271D01*
X107357810Y-56228557D01*
X107335713Y-56117469D01*
X107292368Y-56012825D01*
X107229442Y-55918649D01*
X107149351Y-55838558D01*
X107055175Y-55775632D01*
X106950531Y-55732287D01*
X106839443Y-55710190D01*
X106726177Y-55710190D01*
X106615089Y-55732287D01*
X106510445Y-55775632D01*
X106416269Y-55838558D01*
X106336178Y-55918649D01*
X106273252Y-56012825D01*
X106229907Y-56117469D01*
X106217557Y-56179557D01*
X106155469Y-56191907D01*
X106050825Y-56235252D01*
X105956649Y-56298178D01*
X105876558Y-56378269D01*
X105813632Y-56472445D01*
X105770287Y-56577089D01*
X105748190Y-56688177D01*
X105748190Y-56801443D01*
X105770287Y-56912531D01*
X105813632Y-57017175D01*
X105876558Y-57111351D01*
X105956649Y-57191442D01*
X106050825Y-57254368D01*
X106074000Y-57263967D01*
X106074000Y-57433999D01*
X105647332Y-57433999D01*
X105624000Y-57431701D01*
X105530885Y-57440872D01*
X105524000Y-57442961D01*
X105524000Y-55046589D01*
X105577721Y-55035903D01*
X105682365Y-54992558D01*
X105776541Y-54929632D01*
X105856632Y-54849541D01*
X105919558Y-54755365D01*
X105962903Y-54650721D01*
X105985000Y-54539633D01*
X105985000Y-54426367D01*
X105962903Y-54315279D01*
X105919558Y-54210635D01*
X105856632Y-54116459D01*
X105776541Y-54036368D01*
X105682365Y-53973442D01*
X105577721Y-53930097D01*
X105466633Y-53908000D01*
X105353367Y-53908000D01*
X105242279Y-53930097D01*
X105137635Y-53973442D01*
X105043459Y-54036368D01*
X104963368Y-54116459D01*
X104900442Y-54210635D01*
X104857097Y-54315279D01*
X104844961Y-54376288D01*
X104729629Y-54491621D01*
X104711500Y-54506499D01*
X104652142Y-54578827D01*
X104613714Y-54650721D01*
X104608035Y-54661346D01*
X104580873Y-54750884D01*
X104571702Y-54844000D01*
X104574001Y-54867342D01*
X104574001Y-56594750D01*
X104301884Y-56322634D01*
X104287001Y-56304499D01*
X104214673Y-56245141D01*
X104132154Y-56201034D01*
X104042616Y-56173873D01*
X103972832Y-56167000D01*
X103949500Y-56164702D01*
X103926168Y-56167000D01*
X100781085Y-56167000D01*
X100729365Y-56132442D01*
X100624721Y-56089097D01*
X100513633Y-56067000D01*
X100400367Y-56067000D01*
X100289279Y-56089097D01*
X100184635Y-56132442D01*
X100090459Y-56195368D01*
X100010368Y-56275459D01*
X99947442Y-56369635D01*
X99904097Y-56474279D01*
X99882000Y-56585367D01*
X96158000Y-56585367D01*
X96158000Y-52724000D01*
X113392001Y-52724000D01*
X113392000Y-61830000D01*
%TA.AperFunction,Conductor*%
D17*
G36*
X113392000Y-61830000D02*
G01*
X110509647Y-61830000D01*
X110490000Y-61828065D01*
X110470354Y-61830000D01*
X110470353Y-61830000D01*
X110411586Y-61835788D01*
X110336186Y-61858660D01*
X110266697Y-61895803D01*
X110205789Y-61945789D01*
X110155803Y-62006697D01*
X110118660Y-62076186D01*
X110095788Y-62151586D01*
X110088065Y-62230000D01*
X110090001Y-62249657D01*
X110090000Y-73514000D01*
X102254000Y-73514000D01*
X102254000Y-62249646D01*
X102255935Y-62230000D01*
X102248362Y-62153114D01*
X102735001Y-62639753D01*
X102735000Y-71915915D01*
X102700442Y-71967635D01*
X102657097Y-72072279D01*
X102635000Y-72183367D01*
X102635000Y-72296633D01*
X102657097Y-72407721D01*
X102700442Y-72512365D01*
X102763368Y-72606541D01*
X102843459Y-72686632D01*
X102937635Y-72749558D01*
X103042279Y-72792903D01*
X103153367Y-72815000D01*
X103266633Y-72815000D01*
X103377721Y-72792903D01*
X103482365Y-72749558D01*
X103534085Y-72715000D01*
X108785915Y-72715000D01*
X108837635Y-72749558D01*
X108942279Y-72792903D01*
X109053367Y-72815000D01*
X109166633Y-72815000D01*
X109277721Y-72792903D01*
X109382365Y-72749558D01*
X109476541Y-72686632D01*
X109556632Y-72606541D01*
X109619558Y-72512365D01*
X109662903Y-72407721D01*
X109685000Y-72296633D01*
X109685000Y-72183367D01*
X109662903Y-72072279D01*
X109619558Y-71967635D01*
X109556632Y-71873459D01*
X109476541Y-71793368D01*
X109382365Y-71730442D01*
X109277721Y-71687097D01*
X109166633Y-71665000D01*
X109053367Y-71665000D01*
X108942279Y-71687097D01*
X108837635Y-71730442D01*
X108785915Y-71765000D01*
X103685000Y-71765000D01*
X103685000Y-66746311D01*
X104585600Y-66746311D01*
X104585600Y-67073689D01*
X104649468Y-67394775D01*
X104774749Y-67697232D01*
X104956630Y-67969436D01*
X105188121Y-68200927D01*
X105460325Y-68382808D01*
X105762782Y-68508089D01*
X106083868Y-68571957D01*
X106411246Y-68571957D01*
X106732332Y-68508089D01*
X107034789Y-68382808D01*
X107306993Y-68200927D01*
X107538484Y-67969436D01*
X107720365Y-67697232D01*
X107845646Y-67394775D01*
X107909514Y-67073689D01*
X107909514Y-66746311D01*
X107845646Y-66425225D01*
X107720365Y-66122768D01*
X107538484Y-65850564D01*
X107306993Y-65619073D01*
X107034789Y-65437192D01*
X106732332Y-65311911D01*
X106411246Y-65248043D01*
X106083868Y-65248043D01*
X105762782Y-65311911D01*
X105460325Y-65437192D01*
X105188121Y-65619073D01*
X104956630Y-65850564D01*
X104774749Y-66122768D01*
X104649468Y-66425225D01*
X104585600Y-66746311D01*
X103685000Y-66746311D01*
X103685000Y-62466332D01*
X103687298Y-62443000D01*
X103678127Y-62349884D01*
X103650966Y-62260346D01*
X103606859Y-62177827D01*
X103562374Y-62123622D01*
X103547501Y-62105499D01*
X103529377Y-62090625D01*
X101313000Y-59874250D01*
X101313000Y-58426585D01*
X101347558Y-58374865D01*
X101390903Y-58270221D01*
X101413000Y-58159133D01*
X101413000Y-58045867D01*
X101390903Y-57934779D01*
X101347558Y-57830135D01*
X101284632Y-57735959D01*
X101204541Y-57655868D01*
X101110365Y-57592942D01*
X101005721Y-57549597D01*
X100894633Y-57527500D01*
X100781367Y-57527500D01*
X100670279Y-57549597D01*
X100565635Y-57592942D01*
X100471459Y-57655868D01*
X100391368Y-57735959D01*
X100328442Y-57830135D01*
X100285097Y-57934779D01*
X100263000Y-58045867D01*
X100263000Y-58159133D01*
X100285097Y-58270221D01*
X100328442Y-58374865D01*
X100363001Y-58426586D01*
X100363000Y-60047667D01*
X100360702Y-60071000D01*
X100369873Y-60164116D01*
X100372924Y-60174173D01*
X100397034Y-60253653D01*
X100441141Y-60336173D01*
X100500499Y-60408501D01*
X100518634Y-60423384D01*
X101930886Y-61835638D01*
X101873647Y-61830000D01*
X101873646Y-61830000D01*
X101854000Y-61828065D01*
X101834353Y-61830000D01*
X96158000Y-61830000D01*
X96158000Y-56585367D01*
X99882000Y-56585367D01*
X99882000Y-56698633D01*
X99904097Y-56809721D01*
X99947442Y-56914365D01*
X100010368Y-57008541D01*
X100090459Y-57088632D01*
X100184635Y-57151558D01*
X100289279Y-57194903D01*
X100400367Y-57217000D01*
X100513633Y-57217000D01*
X100624721Y-57194903D01*
X100729365Y-57151558D01*
X100781085Y-57117000D01*
X102798975Y-57117000D01*
X102788668Y-57132426D01*
X102735901Y-57259818D01*
X102709000Y-57395056D01*
X102709000Y-57532944D01*
X102735901Y-57668182D01*
X102788668Y-57795574D01*
X102865274Y-57910224D01*
X102962776Y-58007726D01*
X103077426Y-58084332D01*
X103177903Y-58125951D01*
X103172186Y-58184000D01*
X103172186Y-59634000D01*
X103179426Y-59707513D01*
X103200869Y-59778200D01*
X103235691Y-59843347D01*
X103282552Y-59900448D01*
X103339653Y-59947309D01*
X103396161Y-59977514D01*
X103403625Y-60002116D01*
X103408035Y-60016654D01*
X103452142Y-60099173D01*
X103511500Y-60171501D01*
X103529629Y-60186379D01*
X103946636Y-60603387D01*
X103961510Y-60621512D01*
X104033838Y-60680870D01*
X104116355Y-60724976D01*
X104116357Y-60724977D01*
X104205895Y-60752138D01*
X104299011Y-60761309D01*
X104322343Y-60759011D01*
X108275657Y-60759011D01*
X108298989Y-60761309D01*
X108322321Y-60759011D01*
X108392105Y-60752138D01*
X108481643Y-60724977D01*
X108564162Y-60680870D01*
X108636490Y-60621512D01*
X108651372Y-60603378D01*
X109068376Y-60186375D01*
X109086501Y-60171501D01*
X109145859Y-60099173D01*
X109189966Y-60016654D01*
X109201839Y-59977513D01*
X109258347Y-59947309D01*
X109315448Y-59900448D01*
X109362309Y-59843347D01*
X109397131Y-59778200D01*
X109418574Y-59707513D01*
X109425814Y-59634000D01*
X109425814Y-58184000D01*
X109420097Y-58125951D01*
X109520574Y-58084332D01*
X109635224Y-58007726D01*
X109732726Y-57910224D01*
X109809332Y-57795574D01*
X109862099Y-57668182D01*
X109889000Y-57532944D01*
X109889000Y-57395056D01*
X109862099Y-57259818D01*
X109809332Y-57132426D01*
X109732726Y-57017776D01*
X109635224Y-56920274D01*
X109520574Y-56843668D01*
X109393182Y-56790901D01*
X109257944Y-56764000D01*
X109120056Y-56764000D01*
X108984818Y-56790901D01*
X108857426Y-56843668D01*
X108742776Y-56920274D01*
X108645274Y-57017776D01*
X108568668Y-57132426D01*
X108524000Y-57240265D01*
X108524000Y-55367332D01*
X108526298Y-55344000D01*
X108517127Y-55250884D01*
X108489966Y-55161345D01*
X108474602Y-55132602D01*
X108445859Y-55078827D01*
X108386501Y-55006499D01*
X108368377Y-54991625D01*
X107753039Y-54376288D01*
X107740903Y-54315279D01*
X107697558Y-54210635D01*
X107634632Y-54116459D01*
X107554541Y-54036368D01*
X107460365Y-53973442D01*
X107355721Y-53930097D01*
X107244633Y-53908000D01*
X107131367Y-53908000D01*
X107020279Y-53930097D01*
X106915635Y-53973442D01*
X106821459Y-54036368D01*
X106741368Y-54116459D01*
X106678442Y-54210635D01*
X106635097Y-54315279D01*
X106613000Y-54426367D01*
X106613000Y-54539633D01*
X106635097Y-54650721D01*
X106678442Y-54755365D01*
X106741368Y-54849541D01*
X106821459Y-54929632D01*
X106915635Y-54992558D01*
X107020279Y-55035903D01*
X107081288Y-55048039D01*
X107574001Y-55540753D01*
X107574000Y-57807186D01*
X107499000Y-57807186D01*
X107499000Y-56691132D01*
X107501298Y-56667800D01*
X107492127Y-56574684D01*
X107478467Y-56529654D01*
X107464966Y-56485147D01*
X107420859Y-56402628D01*
X107361501Y-56330300D01*
X107357810Y-56327271D01*
X107357810Y-56228557D01*
X107335713Y-56117469D01*
X107292368Y-56012825D01*
X107229442Y-55918649D01*
X107149351Y-55838558D01*
X107055175Y-55775632D01*
X106950531Y-55732287D01*
X106839443Y-55710190D01*
X106726177Y-55710190D01*
X106615089Y-55732287D01*
X106510445Y-55775632D01*
X106416269Y-55838558D01*
X106336178Y-55918649D01*
X106273252Y-56012825D01*
X106229907Y-56117469D01*
X106217557Y-56179557D01*
X106155469Y-56191907D01*
X106050825Y-56235252D01*
X105956649Y-56298178D01*
X105876558Y-56378269D01*
X105813632Y-56472445D01*
X105770287Y-56577089D01*
X105748190Y-56688177D01*
X105748190Y-56801443D01*
X105770287Y-56912531D01*
X105813632Y-57017175D01*
X105876558Y-57111351D01*
X105956649Y-57191442D01*
X106050825Y-57254368D01*
X106074000Y-57263967D01*
X106074000Y-57433999D01*
X105647332Y-57433999D01*
X105624000Y-57431701D01*
X105530885Y-57440872D01*
X105524000Y-57442961D01*
X105524000Y-55046589D01*
X105577721Y-55035903D01*
X105682365Y-54992558D01*
X105776541Y-54929632D01*
X105856632Y-54849541D01*
X105919558Y-54755365D01*
X105962903Y-54650721D01*
X105985000Y-54539633D01*
X105985000Y-54426367D01*
X105962903Y-54315279D01*
X105919558Y-54210635D01*
X105856632Y-54116459D01*
X105776541Y-54036368D01*
X105682365Y-53973442D01*
X105577721Y-53930097D01*
X105466633Y-53908000D01*
X105353367Y-53908000D01*
X105242279Y-53930097D01*
X105137635Y-53973442D01*
X105043459Y-54036368D01*
X104963368Y-54116459D01*
X104900442Y-54210635D01*
X104857097Y-54315279D01*
X104844961Y-54376288D01*
X104729629Y-54491621D01*
X104711500Y-54506499D01*
X104652142Y-54578827D01*
X104613714Y-54650721D01*
X104608035Y-54661346D01*
X104580873Y-54750884D01*
X104571702Y-54844000D01*
X104574001Y-54867342D01*
X104574001Y-56594750D01*
X104301884Y-56322634D01*
X104287001Y-56304499D01*
X104214673Y-56245141D01*
X104132154Y-56201034D01*
X104042616Y-56173873D01*
X103972832Y-56167000D01*
X103949500Y-56164702D01*
X103926168Y-56167000D01*
X100781085Y-56167000D01*
X100729365Y-56132442D01*
X100624721Y-56089097D01*
X100513633Y-56067000D01*
X100400367Y-56067000D01*
X100289279Y-56089097D01*
X100184635Y-56132442D01*
X100090459Y-56195368D01*
X100010368Y-56275459D01*
X99947442Y-56369635D01*
X99904097Y-56474279D01*
X99882000Y-56585367D01*
X96158000Y-56585367D01*
X96158000Y-52724000D01*
X113392001Y-52724000D01*
X113392000Y-61830000D01*
G37*
%TD.AperFunction*%
%TD*%
M02*
