M48
; DRILL file {KiCad (5.1.10)-1} date 03/29/22 20:59:06
; FORMAT={-:-/ absolute / inch / decimal}
; #@! TF.CreationDate,2022-03-29T20:59:06-04:00
; #@! TF.GenerationSoftware,Kicad,Pcbnew,(5.1.10)-1
; #@! TF.FileFunction,Plated,1,2,PTH
FMAT,2
INCH
T1C0.0079
T2C0.0236
%
G90
G05
T1
X3.8803Y-2.2003
X3.8806Y-2.2594
X3.885Y-2.115
X3.885Y-2.36
X3.9426Y-2.3381
X3.9613Y-2.3568
X4.0Y-2.42
X4.04Y-2.685
X4.045Y-2.765
X4.0639Y-2.8282
X4.08Y-2.43
X4.0885Y-2.3193
X4.095Y-2.475
X4.105Y-2.27
X4.115Y-2.745
X4.12Y-2.42
X4.12Y-2.505
X4.12Y-2.59
X4.135Y-2.125
X4.165Y-2.555
X4.17Y-2.265
X4.175Y-2.485
X4.195Y-2.18
X4.245Y-2.12
X4.245Y-2.55
X4.2815Y-2.3193
X4.2961Y-2.8282
X4.3Y-2.19
X4.305Y-2.71
X4.31Y-2.605
X4.325Y-2.77
T2
G00X4.0149Y-2.1069
M15
G01X4.0149Y-2.1305
M16
G05
G00X4.0149Y-2.2616
M15
G01X4.0149Y-2.3049
M16
G05
G00X4.3551Y-2.1069
M15
G01X4.3551Y-2.1305
M16
G05
G00X4.3551Y-2.2616
M15
G01X4.3551Y-2.3049
M16
G05
T0
M30
