%TF.GenerationSoftware,KiCad,Pcbnew,(6.0.9)*%
%TF.CreationDate,2022-11-22T21:13:51-05:00*%
%TF.ProjectId,030,3033302e-6b69-4636-9164-5f7063625858,rev?*%
%TF.SameCoordinates,Original*%
%TF.FileFunction,Legend,Top*%
%TF.FilePolarity,Positive*%
%FSLAX46Y46*%
G04 Gerber Fmt 4.6, Leading zero omitted, Abs format (unit mm)*
G04 Created by KiCad (PCBNEW (6.0.9)) date 2022-11-22 21:13:51*
%MOMM*%
%LPD*%
G01*
G04 APERTURE LIST*
%ADD10C,0.150000*%
%ADD11C,0.100000*%
%ADD12C,0.120000*%
G04 APERTURE END LIST*
D10*
X109607371Y-73557590D02*
X110140704Y-73405209D01*
X109759752Y-73252828D01*
X110140704Y-73100447D01*
X109607371Y-72948066D01*
X109607371Y-72719495D02*
X110140704Y-72567114D01*
X109759752Y-72414733D01*
X110140704Y-72262352D01*
X109607371Y-72109971D01*
X109607371Y-71881400D02*
X110140704Y-71729019D01*
X109759752Y-71576638D01*
X110140704Y-71424257D01*
X109607371Y-71271876D01*
X110064514Y-70967114D02*
X110102609Y-70929019D01*
X110140704Y-70967114D01*
X110102609Y-71005209D01*
X110064514Y-70967114D01*
X110140704Y-70967114D01*
X110102609Y-70243304D02*
X110140704Y-70319495D01*
X110140704Y-70471876D01*
X110102609Y-70548066D01*
X110064514Y-70586161D01*
X109988323Y-70624257D01*
X109759752Y-70624257D01*
X109683561Y-70586161D01*
X109645466Y-70548066D01*
X109607371Y-70471876D01*
X109607371Y-70319495D01*
X109645466Y-70243304D01*
X110140704Y-69557590D02*
X109721657Y-69557590D01*
X109645466Y-69595685D01*
X109607371Y-69671876D01*
X109607371Y-69824257D01*
X109645466Y-69900447D01*
X110102609Y-69557590D02*
X110140704Y-69633780D01*
X110140704Y-69824257D01*
X110102609Y-69900447D01*
X110026419Y-69938542D01*
X109950228Y-69938542D01*
X109874038Y-69900447D01*
X109835942Y-69824257D01*
X109835942Y-69633780D01*
X109797847Y-69557590D01*
X110102609Y-69214733D02*
X110140704Y-69138542D01*
X110140704Y-68986161D01*
X110102609Y-68909971D01*
X110026419Y-68871876D01*
X109988323Y-68871876D01*
X109912133Y-68909971D01*
X109874038Y-68986161D01*
X109874038Y-69100447D01*
X109835942Y-69176638D01*
X109759752Y-69214733D01*
X109721657Y-69214733D01*
X109645466Y-69176638D01*
X109607371Y-69100447D01*
X109607371Y-68986161D01*
X109645466Y-68909971D01*
X109607371Y-68186161D02*
X110140704Y-68186161D01*
X109607371Y-68529019D02*
X110026419Y-68529019D01*
X110102609Y-68490923D01*
X110140704Y-68414733D01*
X110140704Y-68300447D01*
X110102609Y-68224257D01*
X110064514Y-68186161D01*
X110140704Y-67462352D02*
X109721657Y-67462352D01*
X109645466Y-67500447D01*
X109607371Y-67576638D01*
X109607371Y-67729019D01*
X109645466Y-67805209D01*
X110102609Y-67462352D02*
X110140704Y-67538542D01*
X110140704Y-67729019D01*
X110102609Y-67805209D01*
X110026419Y-67843304D01*
X109950228Y-67843304D01*
X109874038Y-67805209D01*
X109835942Y-67729019D01*
X109835942Y-67538542D01*
X109797847Y-67462352D01*
X110140704Y-66967114D02*
X110102609Y-67043304D01*
X110026419Y-67081400D01*
X109340704Y-67081400D01*
X110102609Y-66319495D02*
X110140704Y-66395685D01*
X110140704Y-66548066D01*
X110102609Y-66624257D01*
X110064514Y-66662352D01*
X109988323Y-66700447D01*
X109759752Y-66700447D01*
X109683561Y-66662352D01*
X109645466Y-66624257D01*
X109607371Y-66548066D01*
X109607371Y-66395685D01*
X109645466Y-66319495D01*
X110140704Y-65862352D02*
X110102609Y-65938542D01*
X110064514Y-65976638D01*
X109988323Y-66014733D01*
X109759752Y-66014733D01*
X109683561Y-65976638D01*
X109645466Y-65938542D01*
X109607371Y-65862352D01*
X109607371Y-65748066D01*
X109645466Y-65671876D01*
X109683561Y-65633780D01*
X109759752Y-65595685D01*
X109988323Y-65595685D01*
X110064514Y-65633780D01*
X110102609Y-65671876D01*
X110140704Y-65748066D01*
X110140704Y-65862352D01*
X110140704Y-64909971D02*
X109340704Y-64909971D01*
X110102609Y-64909971D02*
X110140704Y-64986161D01*
X110140704Y-65138542D01*
X110102609Y-65214733D01*
X110064514Y-65252828D01*
X109988323Y-65290923D01*
X109759752Y-65290923D01*
X109683561Y-65252828D01*
X109645466Y-65214733D01*
X109607371Y-65138542D01*
X109607371Y-64986161D01*
X109645466Y-64909971D01*
X110102609Y-64224257D02*
X110140704Y-64300447D01*
X110140704Y-64452828D01*
X110102609Y-64529019D01*
X110026419Y-64567114D01*
X109721657Y-64567114D01*
X109645466Y-64529019D01*
X109607371Y-64452828D01*
X109607371Y-64300447D01*
X109645466Y-64224257D01*
X109721657Y-64186161D01*
X109797847Y-64186161D01*
X109874038Y-64567114D01*
X110140704Y-63843304D02*
X109607371Y-63843304D01*
X109759752Y-63843304D02*
X109683561Y-63805209D01*
X109645466Y-63767114D01*
X109607371Y-63690923D01*
X109607371Y-63614733D01*
X110102609Y-63386161D02*
X110140704Y-63309971D01*
X110140704Y-63157590D01*
X110102609Y-63081400D01*
X110026419Y-63043304D01*
X109988323Y-63043304D01*
X109912133Y-63081400D01*
X109874038Y-63157590D01*
X109874038Y-63271876D01*
X109835942Y-63348066D01*
X109759752Y-63386161D01*
X109721657Y-63386161D01*
X109645466Y-63348066D01*
X109607371Y-63271876D01*
X109607371Y-63157590D01*
X109645466Y-63081400D01*
X110064514Y-62700447D02*
X110102609Y-62662352D01*
X110140704Y-62700447D01*
X110102609Y-62738542D01*
X110064514Y-62700447D01*
X110140704Y-62700447D01*
X110140704Y-61976638D02*
X109340704Y-61976638D01*
X110102609Y-61976638D02*
X110140704Y-62052828D01*
X110140704Y-62205209D01*
X110102609Y-62281400D01*
X110064514Y-62319495D01*
X109988323Y-62357590D01*
X109759752Y-62357590D01*
X109683561Y-62319495D01*
X109645466Y-62281400D01*
X109607371Y-62205209D01*
X109607371Y-62052828D01*
X109645466Y-61976638D01*
X110102609Y-61290923D02*
X110140704Y-61367114D01*
X110140704Y-61519495D01*
X110102609Y-61595685D01*
X110026419Y-61633780D01*
X109721657Y-61633780D01*
X109645466Y-61595685D01*
X109607371Y-61519495D01*
X109607371Y-61367114D01*
X109645466Y-61290923D01*
X109721657Y-61252828D01*
X109797847Y-61252828D01*
X109874038Y-61633780D01*
X109607371Y-60986161D02*
X110140704Y-60795685D01*
X109607371Y-60605209D01*
X102169980Y-73105352D02*
X102884266Y-73105352D01*
X103027123Y-73152971D01*
X103122361Y-73248209D01*
X103169980Y-73391066D01*
X103169980Y-73486304D01*
X103169980Y-72629161D02*
X102169980Y-72629161D01*
X102169980Y-72391066D01*
X102217600Y-72248209D01*
X102312838Y-72152971D01*
X102408076Y-72105352D01*
X102598552Y-72057733D01*
X102741409Y-72057733D01*
X102931885Y-72105352D01*
X103027123Y-72152971D01*
X103122361Y-72248209D01*
X103169980Y-72391066D01*
X103169980Y-72629161D01*
X103122361Y-71676780D02*
X103169980Y-71533923D01*
X103169980Y-71295828D01*
X103122361Y-71200590D01*
X103074742Y-71152971D01*
X102979504Y-71105352D01*
X102884266Y-71105352D01*
X102789028Y-71152971D01*
X102741409Y-71200590D01*
X102693790Y-71295828D01*
X102646171Y-71486304D01*
X102598552Y-71581542D01*
X102550933Y-71629161D01*
X102455695Y-71676780D01*
X102360457Y-71676780D01*
X102265219Y-71629161D01*
X102217600Y-71581542D01*
X102169980Y-71486304D01*
X102169980Y-71248209D01*
X102217600Y-71105352D01*
X102789028Y-70676780D02*
X102789028Y-69914876D01*
X102169980Y-69248209D02*
X102169980Y-69152971D01*
X102217600Y-69057733D01*
X102265219Y-69010114D01*
X102360457Y-68962495D01*
X102550933Y-68914876D01*
X102789028Y-68914876D01*
X102979504Y-68962495D01*
X103074742Y-69010114D01*
X103122361Y-69057733D01*
X103169980Y-69152971D01*
X103169980Y-69248209D01*
X103122361Y-69343447D01*
X103074742Y-69391066D01*
X102979504Y-69438685D01*
X102789028Y-69486304D01*
X102550933Y-69486304D01*
X102360457Y-69438685D01*
X102265219Y-69391066D01*
X102217600Y-69343447D01*
X102169980Y-69248209D01*
X102169980Y-68581542D02*
X102169980Y-67962495D01*
X102550933Y-68295828D01*
X102550933Y-68152971D01*
X102598552Y-68057733D01*
X102646171Y-68010114D01*
X102741409Y-67962495D01*
X102979504Y-67962495D01*
X103074742Y-68010114D01*
X103122361Y-68057733D01*
X103169980Y-68152971D01*
X103169980Y-68438685D01*
X103122361Y-68533923D01*
X103074742Y-68581542D01*
X102169980Y-67343447D02*
X102169980Y-67248209D01*
X102217600Y-67152971D01*
X102265219Y-67105352D01*
X102360457Y-67057733D01*
X102550933Y-67010114D01*
X102789028Y-67010114D01*
X102979504Y-67057733D01*
X103074742Y-67105352D01*
X103122361Y-67152971D01*
X103169980Y-67248209D01*
X103169980Y-67343447D01*
X103122361Y-67438685D01*
X103074742Y-67486304D01*
X102979504Y-67533923D01*
X102789028Y-67581542D01*
X102550933Y-67581542D01*
X102360457Y-67533923D01*
X102265219Y-67486304D01*
X102217600Y-67438685D01*
X102169980Y-67343447D01*
X102169980Y-65962495D02*
X103169980Y-65629161D01*
X102169980Y-65295828D01*
X103169980Y-64438685D02*
X103169980Y-65010114D01*
X103169980Y-64724400D02*
X102169980Y-64724400D01*
X102312838Y-64819638D01*
X102408076Y-64914876D01*
X102455695Y-65010114D01*
X103074742Y-64010114D02*
X103122361Y-63962495D01*
X103169980Y-64010114D01*
X103122361Y-64057733D01*
X103074742Y-64010114D01*
X103169980Y-64010114D01*
X102265219Y-63581542D02*
X102217600Y-63533923D01*
X102169980Y-63438685D01*
X102169980Y-63200590D01*
X102217600Y-63105352D01*
X102265219Y-63057733D01*
X102360457Y-63010114D01*
X102455695Y-63010114D01*
X102598552Y-63057733D01*
X103169980Y-63629161D01*
X103169980Y-63010114D01*
D11*
X111972690Y-61594476D02*
X111972690Y-61308761D01*
X112472690Y-61451619D02*
X111972690Y-61451619D01*
X112472690Y-61142095D02*
X111972690Y-61142095D01*
X112472690Y-60927809D02*
X112210785Y-60927809D01*
X112163166Y-60951619D01*
X112139357Y-60999238D01*
X112139357Y-61070666D01*
X112163166Y-61118285D01*
X112186976Y-61142095D01*
X112472690Y-60475428D02*
X112210785Y-60475428D01*
X112163166Y-60499238D01*
X112139357Y-60546857D01*
X112139357Y-60642095D01*
X112163166Y-60689714D01*
X112448880Y-60475428D02*
X112472690Y-60523047D01*
X112472690Y-60642095D01*
X112448880Y-60689714D01*
X112401261Y-60713523D01*
X112353642Y-60713523D01*
X112306023Y-60689714D01*
X112282214Y-60642095D01*
X112282214Y-60523047D01*
X112258404Y-60475428D01*
X112139357Y-60237333D02*
X112472690Y-60237333D01*
X112186976Y-60237333D02*
X112163166Y-60213523D01*
X112139357Y-60165904D01*
X112139357Y-60094476D01*
X112163166Y-60046857D01*
X112210785Y-60023047D01*
X112472690Y-60023047D01*
X112472690Y-59784952D02*
X111972690Y-59784952D01*
X112282214Y-59737333D02*
X112472690Y-59594476D01*
X112139357Y-59594476D02*
X112329833Y-59784952D01*
X112448880Y-59404000D02*
X112472690Y-59356380D01*
X112472690Y-59261142D01*
X112448880Y-59213523D01*
X112401261Y-59189714D01*
X112377452Y-59189714D01*
X112329833Y-59213523D01*
X112306023Y-59261142D01*
X112306023Y-59332571D01*
X112282214Y-59380190D01*
X112234595Y-59404000D01*
X112210785Y-59404000D01*
X112163166Y-59380190D01*
X112139357Y-59332571D01*
X112139357Y-59261142D01*
X112163166Y-59213523D01*
X112139357Y-58665904D02*
X112139357Y-58475428D01*
X111972690Y-58594476D02*
X112401261Y-58594476D01*
X112448880Y-58570666D01*
X112472690Y-58523047D01*
X112472690Y-58475428D01*
X112472690Y-58237333D02*
X112448880Y-58284952D01*
X112425071Y-58308761D01*
X112377452Y-58332571D01*
X112234595Y-58332571D01*
X112186976Y-58308761D01*
X112163166Y-58284952D01*
X112139357Y-58237333D01*
X112139357Y-58165904D01*
X112163166Y-58118285D01*
X112186976Y-58094476D01*
X112234595Y-58070666D01*
X112377452Y-58070666D01*
X112425071Y-58094476D01*
X112448880Y-58118285D01*
X112472690Y-58165904D01*
X112472690Y-58237333D01*
X112472690Y-57213523D02*
X112472690Y-57499238D01*
X112472690Y-57356380D02*
X111972690Y-57356380D01*
X112044119Y-57404000D01*
X112091738Y-57451619D01*
X112115547Y-57499238D01*
X112020309Y-57023047D02*
X111996500Y-56999238D01*
X111972690Y-56951619D01*
X111972690Y-56832571D01*
X111996500Y-56784952D01*
X112020309Y-56761142D01*
X112067928Y-56737333D01*
X112115547Y-56737333D01*
X112186976Y-56761142D01*
X112472690Y-57046857D01*
X112472690Y-56737333D01*
X112472690Y-56523047D02*
X111972690Y-56523047D01*
X112163166Y-56523047D02*
X112139357Y-56475428D01*
X112139357Y-56380190D01*
X112163166Y-56332571D01*
X112186976Y-56308761D01*
X112234595Y-56284952D01*
X112377452Y-56284952D01*
X112425071Y-56308761D01*
X112448880Y-56332571D01*
X112472690Y-56380190D01*
X112472690Y-56475428D01*
X112448880Y-56523047D01*
X112472690Y-56070666D02*
X112139357Y-56070666D01*
X112234595Y-56070666D02*
X112186976Y-56046857D01*
X112163166Y-56023047D01*
X112139357Y-55975428D01*
X112139357Y-55927809D01*
X112448880Y-55570666D02*
X112472690Y-55618285D01*
X112472690Y-55713523D01*
X112448880Y-55761142D01*
X112401261Y-55784952D01*
X112210785Y-55784952D01*
X112163166Y-55761142D01*
X112139357Y-55713523D01*
X112139357Y-55618285D01*
X112163166Y-55570666D01*
X112210785Y-55546857D01*
X112258404Y-55546857D01*
X112306023Y-55784952D01*
X112139357Y-55332571D02*
X112472690Y-55332571D01*
X112186976Y-55332571D02*
X112163166Y-55308761D01*
X112139357Y-55261142D01*
X112139357Y-55189714D01*
X112163166Y-55142095D01*
X112210785Y-55118285D01*
X112472690Y-55118285D01*
X112472690Y-54665904D02*
X111972690Y-54665904D01*
X112448880Y-54665904D02*
X112472690Y-54713523D01*
X112472690Y-54808761D01*
X112448880Y-54856380D01*
X112425071Y-54880190D01*
X112377452Y-54904000D01*
X112234595Y-54904000D01*
X112186976Y-54880190D01*
X112163166Y-54856380D01*
X112139357Y-54808761D01*
X112139357Y-54713523D01*
X112163166Y-54665904D01*
X112472690Y-54213523D02*
X112210785Y-54213523D01*
X112163166Y-54237333D01*
X112139357Y-54284952D01*
X112139357Y-54380190D01*
X112163166Y-54427809D01*
X112448880Y-54213523D02*
X112472690Y-54261142D01*
X112472690Y-54380190D01*
X112448880Y-54427809D01*
X112401261Y-54451619D01*
X112353642Y-54451619D01*
X112306023Y-54427809D01*
X112282214Y-54380190D01*
X112282214Y-54261142D01*
X112258404Y-54213523D01*
X112139357Y-53975428D02*
X112472690Y-53975428D01*
X112186976Y-53975428D02*
X112163166Y-53951619D01*
X112139357Y-53904000D01*
X112139357Y-53832571D01*
X112163166Y-53784952D01*
X112210785Y-53761142D01*
X112472690Y-53761142D01*
X111972690Y-53570666D02*
X111972690Y-53261142D01*
X112163166Y-53427809D01*
X112163166Y-53356380D01*
X112186976Y-53308761D01*
X112210785Y-53284952D01*
X112258404Y-53261142D01*
X112377452Y-53261142D01*
X112425071Y-53284952D01*
X112448880Y-53308761D01*
X112472690Y-53356380D01*
X112472690Y-53499238D01*
X112448880Y-53546857D01*
X112425071Y-53570666D01*
X112944357Y-60737333D02*
X112944357Y-60546857D01*
X113277690Y-60665904D02*
X112849119Y-60665904D01*
X112801500Y-60642095D01*
X112777690Y-60594476D01*
X112777690Y-60546857D01*
X113277690Y-60308761D02*
X113253880Y-60356380D01*
X113230071Y-60380190D01*
X113182452Y-60404000D01*
X113039595Y-60404000D01*
X112991976Y-60380190D01*
X112968166Y-60356380D01*
X112944357Y-60308761D01*
X112944357Y-60237333D01*
X112968166Y-60189714D01*
X112991976Y-60165904D01*
X113039595Y-60142095D01*
X113182452Y-60142095D01*
X113230071Y-60165904D01*
X113253880Y-60189714D01*
X113277690Y-60237333D01*
X113277690Y-60308761D01*
X113277690Y-59927809D02*
X112944357Y-59927809D01*
X113039595Y-59927809D02*
X112991976Y-59904000D01*
X112968166Y-59880190D01*
X112944357Y-59832571D01*
X112944357Y-59784952D01*
X112944357Y-59308761D02*
X112944357Y-59118285D01*
X112777690Y-59237333D02*
X113206261Y-59237333D01*
X113253880Y-59213523D01*
X113277690Y-59165904D01*
X113277690Y-59118285D01*
X113277690Y-58951619D02*
X112777690Y-58951619D01*
X113277690Y-58737333D02*
X113015785Y-58737333D01*
X112968166Y-58761142D01*
X112944357Y-58808761D01*
X112944357Y-58880190D01*
X112968166Y-58927809D01*
X112991976Y-58951619D01*
X113253880Y-58308761D02*
X113277690Y-58356380D01*
X113277690Y-58451619D01*
X113253880Y-58499238D01*
X113206261Y-58523047D01*
X113015785Y-58523047D01*
X112968166Y-58499238D01*
X112944357Y-58451619D01*
X112944357Y-58356380D01*
X112968166Y-58308761D01*
X113015785Y-58284952D01*
X113063404Y-58284952D01*
X113111023Y-58523047D01*
X113253880Y-57713523D02*
X113277690Y-57665904D01*
X113277690Y-57570666D01*
X113253880Y-57523047D01*
X113206261Y-57499238D01*
X113182452Y-57499238D01*
X113134833Y-57523047D01*
X113111023Y-57570666D01*
X113111023Y-57642095D01*
X113087214Y-57689714D01*
X113039595Y-57713523D01*
X113015785Y-57713523D01*
X112968166Y-57689714D01*
X112944357Y-57642095D01*
X112944357Y-57570666D01*
X112968166Y-57523047D01*
X113253880Y-57070666D02*
X113277690Y-57118285D01*
X113277690Y-57213523D01*
X113253880Y-57261142D01*
X113230071Y-57284952D01*
X113182452Y-57308761D01*
X113039595Y-57308761D01*
X112991976Y-57284952D01*
X112968166Y-57261142D01*
X112944357Y-57213523D01*
X112944357Y-57118285D01*
X112968166Y-57070666D01*
X113277690Y-56856380D02*
X112777690Y-56856380D01*
X113277690Y-56642095D02*
X113015785Y-56642095D01*
X112968166Y-56665904D01*
X112944357Y-56713523D01*
X112944357Y-56784952D01*
X112968166Y-56832571D01*
X112991976Y-56856380D01*
X113253880Y-56213523D02*
X113277690Y-56261142D01*
X113277690Y-56356380D01*
X113253880Y-56404000D01*
X113206261Y-56427809D01*
X113015785Y-56427809D01*
X112968166Y-56404000D01*
X112944357Y-56356380D01*
X112944357Y-56261142D01*
X112968166Y-56213523D01*
X113015785Y-56189714D01*
X113063404Y-56189714D01*
X113111023Y-56427809D01*
X113277690Y-55975428D02*
X112944357Y-55975428D01*
X112991976Y-55975428D02*
X112968166Y-55951619D01*
X112944357Y-55904000D01*
X112944357Y-55832571D01*
X112968166Y-55784952D01*
X113015785Y-55761142D01*
X113277690Y-55761142D01*
X113015785Y-55761142D02*
X112968166Y-55737333D01*
X112944357Y-55689714D01*
X112944357Y-55618285D01*
X112968166Y-55570666D01*
X113015785Y-55546857D01*
X113277690Y-55546857D01*
X113277690Y-55094476D02*
X113015785Y-55094476D01*
X112968166Y-55118285D01*
X112944357Y-55165904D01*
X112944357Y-55261142D01*
X112968166Y-55308761D01*
X113253880Y-55094476D02*
X113277690Y-55142095D01*
X113277690Y-55261142D01*
X113253880Y-55308761D01*
X113206261Y-55332571D01*
X113158642Y-55332571D01*
X113111023Y-55308761D01*
X113087214Y-55261142D01*
X113087214Y-55142095D01*
X113063404Y-55094476D01*
X112944357Y-54927809D02*
X112944357Y-54737333D01*
X112777690Y-54856380D02*
X113206261Y-54856380D01*
X113253880Y-54832571D01*
X113277690Y-54784952D01*
X113277690Y-54737333D01*
X113277690Y-54570666D02*
X112944357Y-54570666D01*
X112777690Y-54570666D02*
X112801500Y-54594476D01*
X112825309Y-54570666D01*
X112801500Y-54546857D01*
X112777690Y-54570666D01*
X112825309Y-54570666D01*
X113253880Y-54118285D02*
X113277690Y-54165904D01*
X113277690Y-54261142D01*
X113253880Y-54308761D01*
X113230071Y-54332571D01*
X113182452Y-54356380D01*
X113039595Y-54356380D01*
X112991976Y-54332571D01*
X112968166Y-54308761D01*
X112944357Y-54261142D01*
X112944357Y-54165904D01*
X112968166Y-54118285D01*
D10*
%TO.C,R2*%
X104354333Y-55570380D02*
X104021000Y-55094190D01*
X103782904Y-55570380D02*
X103782904Y-54570380D01*
X104163857Y-54570380D01*
X104259095Y-54618000D01*
X104306714Y-54665619D01*
X104354333Y-54760857D01*
X104354333Y-54903714D01*
X104306714Y-54998952D01*
X104259095Y-55046571D01*
X104163857Y-55094190D01*
X103782904Y-55094190D01*
X104735285Y-54665619D02*
X104782904Y-54618000D01*
X104878142Y-54570380D01*
X105116238Y-54570380D01*
X105211476Y-54618000D01*
X105259095Y-54665619D01*
X105306714Y-54760857D01*
X105306714Y-54856095D01*
X105259095Y-54998952D01*
X104687666Y-55570380D01*
X105306714Y-55570380D01*
%TO.C,J1*%
X97496380Y-58150000D02*
X97496380Y-58054761D01*
X97544000Y-57959523D01*
X97591619Y-57911904D01*
X97686857Y-57864285D01*
X97877333Y-57816666D01*
X98115428Y-57816666D01*
X98305904Y-57864285D01*
X98401142Y-57911904D01*
X98448761Y-57959523D01*
X98496380Y-58054761D01*
X98496380Y-58150000D01*
X98448761Y-58245238D01*
X98401142Y-58292857D01*
X98305904Y-58340476D01*
X98115428Y-58388095D01*
X97877333Y-58388095D01*
X97686857Y-58340476D01*
X97591619Y-58292857D01*
X97544000Y-58245238D01*
X97496380Y-58150000D01*
X97496380Y-57483333D02*
X97496380Y-56864285D01*
X97877333Y-57197619D01*
X97877333Y-57054761D01*
X97924952Y-56959523D01*
X97972571Y-56911904D01*
X98067809Y-56864285D01*
X98305904Y-56864285D01*
X98401142Y-56911904D01*
X98448761Y-56959523D01*
X98496380Y-57054761D01*
X98496380Y-57340476D01*
X98448761Y-57435714D01*
X98401142Y-57483333D01*
X97496380Y-56245238D02*
X97496380Y-56150000D01*
X97544000Y-56054761D01*
X97591619Y-56007142D01*
X97686857Y-55959523D01*
X97877333Y-55911904D01*
X98115428Y-55911904D01*
X98305904Y-55959523D01*
X98401142Y-56007142D01*
X98448761Y-56054761D01*
X98496380Y-56150000D01*
X98496380Y-56245238D01*
X98448761Y-56340476D01*
X98401142Y-56388095D01*
X98305904Y-56435714D01*
X98115428Y-56483333D01*
X97877333Y-56483333D01*
X97686857Y-56435714D01*
X97591619Y-56388095D01*
X97544000Y-56340476D01*
X97496380Y-56245238D01*
%TO.C,R1*%
X107910333Y-55570380D02*
X107577000Y-55094190D01*
X107338904Y-55570380D02*
X107338904Y-54570380D01*
X107719857Y-54570380D01*
X107815095Y-54618000D01*
X107862714Y-54665619D01*
X107910333Y-54760857D01*
X107910333Y-54903714D01*
X107862714Y-54998952D01*
X107815095Y-55046571D01*
X107719857Y-55094190D01*
X107338904Y-55094190D01*
X108862714Y-55570380D02*
X108291285Y-55570380D01*
X108577000Y-55570380D02*
X108577000Y-54570380D01*
X108481761Y-54713238D01*
X108386523Y-54808476D01*
X108291285Y-54856095D01*
%TO.C,LED*%
X105529142Y-71318380D02*
X105052952Y-71318380D01*
X105052952Y-70318380D01*
X105862476Y-70794571D02*
X106195809Y-70794571D01*
X106338666Y-71318380D02*
X105862476Y-71318380D01*
X105862476Y-70318380D01*
X106338666Y-70318380D01*
X106767238Y-71318380D02*
X106767238Y-70318380D01*
X107005333Y-70318380D01*
X107148190Y-70366000D01*
X107243428Y-70461238D01*
X107291047Y-70556476D01*
X107338666Y-70746952D01*
X107338666Y-70889809D01*
X107291047Y-71080285D01*
X107243428Y-71175523D01*
X107148190Y-71270761D01*
X107005333Y-71318380D01*
X106767238Y-71318380D01*
D12*
%TO.C,R2*%
X104266276Y-53198500D02*
X104775724Y-53198500D01*
X104266276Y-54243500D02*
X104775724Y-54243500D01*
%TO.C,J1*%
X99995000Y-53880656D02*
X99995000Y-53162901D01*
X99995000Y-53162901D02*
X97649681Y-53162901D01*
X99995000Y-61113101D02*
X99995000Y-60395346D01*
X97649681Y-61113101D02*
X99995000Y-61113101D01*
X96134200Y-53979501D02*
X96134200Y-60296501D01*
%TO.C,R1*%
X107822276Y-54243500D02*
X108331724Y-54243500D01*
X107822276Y-53198500D02*
X108331724Y-53198500D01*
%TO.C,LED*%
X104780000Y-72446000D02*
G75*
G03*
X104780000Y-72446000I-50000J0D01*
G01*
X104300000Y-71646000D02*
X104150000Y-71846000D01*
X104300000Y-72296000D02*
X104300000Y-71646000D01*
X108030000Y-71646000D02*
X108180000Y-71846000D01*
X108030000Y-72296000D02*
X108030000Y-71646000D01*
%TD*%
M02*
