%TF.GenerationSoftware,KiCad,Pcbnew,(5.1.10)-1*%
%TF.CreationDate,2022-03-29T20:59:08-04:00*%
%TF.ProjectId,030,3033302e-6b69-4636-9164-5f7063625858,rev?*%
%TF.SameCoordinates,Original*%
%TF.FileFunction,Copper,L2,Bot*%
%TF.FilePolarity,Positive*%
%FSLAX46Y46*%
G04 Gerber Fmt 4.6, Leading zero omitted, Abs format (unit mm)*
G04 Created by KiCad (PCBNEW (5.1.10)-1) date 2022-03-29 20:59:08*
%MOMM*%
%LPD*%
G01*
G04 APERTURE LIST*
%TA.AperFunction,ComponentPad*%
%ADD10O,1.000000X1.600000*%
%TD*%
%TA.AperFunction,ComponentPad*%
%ADD11O,1.000000X2.100000*%
%TD*%
%TA.AperFunction,SMDPad,CuDef*%
%ADD12R,0.300000X1.450000*%
%TD*%
%TA.AperFunction,SMDPad,CuDef*%
%ADD13R,0.600000X1.450000*%
%TD*%
%TA.AperFunction,ViaPad*%
%ADD14C,0.400000*%
%TD*%
%TA.AperFunction,Conductor*%
%ADD15C,0.200000*%
%TD*%
%TA.AperFunction,Conductor*%
%ADD16C,0.250000*%
%TD*%
%TA.AperFunction,Conductor*%
%ADD17C,0.100000*%
%TD*%
G04 APERTURE END LIST*
D10*
%TO.P,USB,S1*%
%TO.N,GND*%
X110619000Y-53814000D03*
X101979000Y-53814000D03*
D11*
X101979000Y-57994000D03*
X110619000Y-57994000D03*
D12*
%TO.P,USB,A6*%
%TO.N,Net-(J2-PadA6)*%
X106049000Y-58909000D03*
%TO.P,USB,B5*%
%TO.N,Net-(J2-PadB5)*%
X108049000Y-58909000D03*
%TO.P,USB,A8*%
%TO.N,Net-(J2-PadA8)*%
X107549000Y-58909000D03*
%TO.P,USB,B6*%
%TO.N,Net-(J2-PadA6)*%
X107049000Y-58909000D03*
%TO.P,USB,A7*%
%TO.N,Net-(J2-PadA7)*%
X106549000Y-58909000D03*
%TO.P,USB,B7*%
X105549000Y-58909000D03*
%TO.P,USB,A5*%
%TO.N,Net-(J2-PadA5)*%
X105049000Y-58909000D03*
%TO.P,USB,B8*%
%TO.N,Net-(J2-PadB8)*%
X104549000Y-58909000D03*
D13*
%TO.P,USB,A12*%
%TO.N,GND*%
X109549000Y-58909000D03*
%TO.P,USB,B4*%
%TO.N,+5V*%
X108749000Y-58909000D03*
%TO.P,USB,A4*%
X103849000Y-58909000D03*
%TO.P,USB,A1*%
%TO.N,GND*%
X103049000Y-58909000D03*
%TO.P,USB,B12*%
X103049000Y-58909000D03*
%TO.P,USB,B9*%
%TO.N,+5V*%
X103849000Y-58909000D03*
%TO.P,USB,A9*%
X108749000Y-58909000D03*
%TO.P,USB,B1*%
%TO.N,GND*%
X109549000Y-58909000D03*
%TD*%
D14*
%TO.N,+5V*%
X103849000Y-58909000D03*
X108749000Y-58909000D03*
X109122000Y-71836000D03*
X103222000Y-71836000D03*
%TO.N,/R*%
X100616018Y-59863001D03*
X104013000Y-62865000D03*
%TO.N,/B*%
X103632000Y-61722000D03*
X100140867Y-59388001D03*
%TO.N,GND*%
X105791000Y-64897000D03*
X104648000Y-63627000D03*
X101600000Y-61468000D03*
X109855000Y-70358000D03*
X109474000Y-66167000D03*
X104521000Y-69723000D03*
X102616000Y-68199000D03*
X102743000Y-70231000D03*
X109347000Y-68834000D03*
X104648000Y-65786000D03*
X107823000Y-64770000D03*
X106045000Y-63119000D03*
X104648000Y-61468000D03*
X109220000Y-55626000D03*
X98560001Y-55888001D03*
X98567999Y-57388001D03*
X98679000Y-59944000D03*
X98679000Y-53721000D03*
X104267000Y-57658000D03*
%TO.N,Net-(J2-PadA6)*%
X106553000Y-55372000D03*
%TO.N,Net-(J2-PadB5)*%
X107823000Y-53848000D03*
%TO.N,Net-(J2-PadA7)*%
X105918000Y-57531000D03*
%TO.N,Net-(J2-PadA5)*%
X105029000Y-53975000D03*
%TD*%
D15*
%TO.N,+5V*%
X109122000Y-71836000D02*
X103222000Y-71836000D01*
%TO.N,/R*%
X101011001Y-59863001D02*
X104013000Y-62865000D01*
X100616018Y-59863001D02*
X101011001Y-59863001D01*
%TO.N,/B*%
X101298001Y-59388001D02*
X100140867Y-59388001D01*
X103632000Y-61722000D02*
X101298001Y-59388001D01*
%TO.N,Net-(J2-PadA6)*%
X106973999Y-59909001D02*
X107049000Y-59834000D01*
X106178999Y-59909001D02*
X106973999Y-59909001D01*
X106049000Y-59779002D02*
X106178999Y-59909001D01*
X107049000Y-59834000D02*
X107049000Y-58909000D01*
X106049000Y-58909000D02*
X106049000Y-59779002D01*
X107049000Y-55868000D02*
X106553000Y-55372000D01*
X107049000Y-58909000D02*
X107049000Y-55868000D01*
D16*
%TO.N,Net-(J2-PadB5)*%
X108049000Y-58909000D02*
X108049000Y-58773000D01*
D15*
X108049000Y-54074000D02*
X107823000Y-53848000D01*
X108049000Y-58909000D02*
X108049000Y-54074000D01*
%TO.N,Net-(J2-PadA7)*%
X105549000Y-57900000D02*
X105918000Y-57531000D01*
X105549000Y-58909000D02*
X105549000Y-57900000D01*
X106096000Y-57531000D02*
X105918000Y-57531000D01*
X106549000Y-57984000D02*
X106096000Y-57531000D01*
X106549000Y-58909000D02*
X106549000Y-57984000D01*
%TO.N,Net-(J2-PadA5)*%
X105049000Y-53995000D02*
X105029000Y-53975000D01*
X105049000Y-58909000D02*
X105049000Y-53995000D01*
%TD*%
D16*
%TO.N,GND*%
X113392000Y-61830000D02*
X110509647Y-61830000D01*
X110490000Y-61828065D01*
X110470354Y-61830000D01*
X110470353Y-61830000D01*
X110411586Y-61835788D01*
X110336186Y-61858660D01*
X110266697Y-61895803D01*
X110205789Y-61945789D01*
X110155803Y-62006697D01*
X110118660Y-62076186D01*
X110095788Y-62151586D01*
X110088065Y-62230000D01*
X110090001Y-62249657D01*
X110090000Y-73514000D01*
X102254000Y-73514000D01*
X102254000Y-71779367D01*
X102647000Y-71779367D01*
X102647000Y-71892633D01*
X102669097Y-72003721D01*
X102712442Y-72108365D01*
X102775368Y-72202541D01*
X102855459Y-72282632D01*
X102949635Y-72345558D01*
X103054279Y-72388903D01*
X103165367Y-72411000D01*
X103278633Y-72411000D01*
X103389721Y-72388903D01*
X103494365Y-72345558D01*
X103546085Y-72311000D01*
X108797915Y-72311000D01*
X108849635Y-72345558D01*
X108954279Y-72388903D01*
X109065367Y-72411000D01*
X109178633Y-72411000D01*
X109289721Y-72388903D01*
X109394365Y-72345558D01*
X109488541Y-72282632D01*
X109568632Y-72202541D01*
X109631558Y-72108365D01*
X109674903Y-72003721D01*
X109697000Y-71892633D01*
X109697000Y-71779367D01*
X109674903Y-71668279D01*
X109631558Y-71563635D01*
X109568632Y-71469459D01*
X109488541Y-71389368D01*
X109394365Y-71326442D01*
X109289721Y-71283097D01*
X109178633Y-71261000D01*
X109065367Y-71261000D01*
X108954279Y-71283097D01*
X108849635Y-71326442D01*
X108797915Y-71361000D01*
X103546085Y-71361000D01*
X103494365Y-71326442D01*
X103389721Y-71283097D01*
X103278633Y-71261000D01*
X103165367Y-71261000D01*
X103054279Y-71283097D01*
X102949635Y-71326442D01*
X102855459Y-71389368D01*
X102775368Y-71469459D01*
X102712442Y-71563635D01*
X102669097Y-71668279D01*
X102647000Y-71779367D01*
X102254000Y-71779367D01*
X102254000Y-66746311D01*
X104585600Y-66746311D01*
X104585600Y-67073689D01*
X104649468Y-67394775D01*
X104774749Y-67697232D01*
X104956630Y-67969436D01*
X105188121Y-68200927D01*
X105460325Y-68382808D01*
X105762782Y-68508089D01*
X106083868Y-68571957D01*
X106411246Y-68571957D01*
X106732332Y-68508089D01*
X107034789Y-68382808D01*
X107306993Y-68200927D01*
X107538484Y-67969436D01*
X107720365Y-67697232D01*
X107845646Y-67394775D01*
X107909514Y-67073689D01*
X107909514Y-66746311D01*
X107845646Y-66425225D01*
X107720365Y-66122768D01*
X107538484Y-65850564D01*
X107306993Y-65619073D01*
X107034789Y-65437192D01*
X106732332Y-65311911D01*
X106411246Y-65248043D01*
X106083868Y-65248043D01*
X105762782Y-65311911D01*
X105460325Y-65437192D01*
X105188121Y-65619073D01*
X104956630Y-65850564D01*
X104774749Y-66122768D01*
X104649468Y-66425225D01*
X104585600Y-66746311D01*
X102254000Y-66746311D01*
X102254000Y-62249646D01*
X102255935Y-62230000D01*
X102248212Y-62151586D01*
X102225340Y-62076186D01*
X102188197Y-62006697D01*
X102138211Y-61945789D01*
X102077303Y-61895803D01*
X102007814Y-61858660D01*
X101932414Y-61835788D01*
X101873647Y-61830000D01*
X101873646Y-61830000D01*
X101854000Y-61828065D01*
X101834353Y-61830000D01*
X96158000Y-61830000D01*
X96158000Y-59331368D01*
X99565867Y-59331368D01*
X99565867Y-59444634D01*
X99587964Y-59555722D01*
X99631309Y-59660366D01*
X99694235Y-59754542D01*
X99774326Y-59834633D01*
X99868502Y-59897559D01*
X99973146Y-59940904D01*
X100048219Y-59955837D01*
X100063115Y-60030722D01*
X100106460Y-60135366D01*
X100169386Y-60229542D01*
X100249477Y-60309633D01*
X100343653Y-60372559D01*
X100448297Y-60415904D01*
X100559385Y-60438001D01*
X100672651Y-60438001D01*
X100783739Y-60415904D01*
X100860400Y-60384150D01*
X103447962Y-62971714D01*
X103460097Y-63032721D01*
X103503442Y-63137365D01*
X103566368Y-63231541D01*
X103646459Y-63311632D01*
X103740635Y-63374558D01*
X103845279Y-63417903D01*
X103956367Y-63440000D01*
X104069633Y-63440000D01*
X104180721Y-63417903D01*
X104285365Y-63374558D01*
X104379541Y-63311632D01*
X104459632Y-63231541D01*
X104522558Y-63137365D01*
X104565903Y-63032721D01*
X104588000Y-62921633D01*
X104588000Y-62808367D01*
X104565903Y-62697279D01*
X104522558Y-62592635D01*
X104459632Y-62498459D01*
X104379541Y-62418368D01*
X104285365Y-62355442D01*
X104180721Y-62312097D01*
X104119714Y-62299962D01*
X103992452Y-62172700D01*
X103998541Y-62168632D01*
X104078632Y-62088541D01*
X104141558Y-61994365D01*
X104184903Y-61889721D01*
X104207000Y-61778633D01*
X104207000Y-61665367D01*
X104184903Y-61554279D01*
X104141558Y-61449635D01*
X104078632Y-61355459D01*
X103998541Y-61275368D01*
X103904365Y-61212442D01*
X103799721Y-61169097D01*
X103738712Y-61156962D01*
X101650385Y-59068635D01*
X101635502Y-59050500D01*
X101563174Y-58991142D01*
X101480655Y-58947035D01*
X101391117Y-58919874D01*
X101321333Y-58913001D01*
X101298001Y-58910703D01*
X101274669Y-58913001D01*
X100464952Y-58913001D01*
X100413232Y-58878443D01*
X100308588Y-58835098D01*
X100197500Y-58813001D01*
X100084234Y-58813001D01*
X99973146Y-58835098D01*
X99868502Y-58878443D01*
X99774326Y-58941369D01*
X99694235Y-59021460D01*
X99631309Y-59115636D01*
X99587964Y-59220280D01*
X99565867Y-59331368D01*
X96158000Y-59331368D01*
X96158000Y-57395056D01*
X102709000Y-57395056D01*
X102709000Y-57532944D01*
X102735901Y-57668182D01*
X102788668Y-57795574D01*
X102865274Y-57910224D01*
X102962776Y-58007726D01*
X103077426Y-58084332D01*
X103177903Y-58125951D01*
X103172186Y-58184000D01*
X103172186Y-59634000D01*
X103179426Y-59707513D01*
X103200869Y-59778200D01*
X103235691Y-59843347D01*
X103282552Y-59900448D01*
X103339653Y-59947309D01*
X103404800Y-59982131D01*
X103475487Y-60003574D01*
X103549000Y-60010814D01*
X104149000Y-60010814D01*
X104222513Y-60003574D01*
X104274000Y-59987955D01*
X104325487Y-60003574D01*
X104399000Y-60010814D01*
X104699000Y-60010814D01*
X104772513Y-60003574D01*
X104799000Y-59995539D01*
X104825487Y-60003574D01*
X104899000Y-60010814D01*
X105199000Y-60010814D01*
X105272513Y-60003574D01*
X105299000Y-59995539D01*
X105325487Y-60003574D01*
X105399000Y-60010814D01*
X105634310Y-60010814D01*
X105652142Y-60044175D01*
X105711500Y-60116503D01*
X105729629Y-60131381D01*
X105826615Y-60228367D01*
X105841498Y-60246502D01*
X105913826Y-60305860D01*
X105996345Y-60349967D01*
X106065043Y-60370806D01*
X106085882Y-60377128D01*
X106178998Y-60386299D01*
X106202330Y-60384001D01*
X106950667Y-60384001D01*
X106973999Y-60386299D01*
X106997331Y-60384001D01*
X107067115Y-60377128D01*
X107156653Y-60349967D01*
X107239172Y-60305860D01*
X107311500Y-60246502D01*
X107326383Y-60228367D01*
X107368366Y-60186384D01*
X107386501Y-60171501D01*
X107445859Y-60099173D01*
X107489966Y-60016654D01*
X107491738Y-60010814D01*
X107699000Y-60010814D01*
X107772513Y-60003574D01*
X107799000Y-59995539D01*
X107825487Y-60003574D01*
X107899000Y-60010814D01*
X108199000Y-60010814D01*
X108272513Y-60003574D01*
X108324000Y-59987955D01*
X108375487Y-60003574D01*
X108449000Y-60010814D01*
X109049000Y-60010814D01*
X109122513Y-60003574D01*
X109193200Y-59982131D01*
X109258347Y-59947309D01*
X109315448Y-59900448D01*
X109362309Y-59843347D01*
X109397131Y-59778200D01*
X109418574Y-59707513D01*
X109425814Y-59634000D01*
X109425814Y-58184000D01*
X109420097Y-58125951D01*
X109520574Y-58084332D01*
X109635224Y-58007726D01*
X109732726Y-57910224D01*
X109809332Y-57795574D01*
X109862099Y-57668182D01*
X109889000Y-57532944D01*
X109889000Y-57395056D01*
X109862099Y-57259818D01*
X109809332Y-57132426D01*
X109732726Y-57017776D01*
X109635224Y-56920274D01*
X109520574Y-56843668D01*
X109393182Y-56790901D01*
X109257944Y-56764000D01*
X109120056Y-56764000D01*
X108984818Y-56790901D01*
X108857426Y-56843668D01*
X108742776Y-56920274D01*
X108645274Y-57017776D01*
X108568668Y-57132426D01*
X108524000Y-57240265D01*
X108524000Y-54097331D01*
X108526298Y-54073999D01*
X108517127Y-53980883D01*
X108508888Y-53953722D01*
X108489966Y-53891346D01*
X108445859Y-53808827D01*
X108387273Y-53737440D01*
X108375903Y-53680279D01*
X108332558Y-53575635D01*
X108269632Y-53481459D01*
X108189541Y-53401368D01*
X108095365Y-53338442D01*
X107990721Y-53295097D01*
X107879633Y-53273000D01*
X107766367Y-53273000D01*
X107655279Y-53295097D01*
X107550635Y-53338442D01*
X107456459Y-53401368D01*
X107376368Y-53481459D01*
X107313442Y-53575635D01*
X107270097Y-53680279D01*
X107248000Y-53791367D01*
X107248000Y-53904633D01*
X107270097Y-54015721D01*
X107313442Y-54120365D01*
X107376368Y-54214541D01*
X107456459Y-54294632D01*
X107550635Y-54357558D01*
X107574001Y-54367236D01*
X107574000Y-57807186D01*
X107524000Y-57807186D01*
X107524000Y-55891332D01*
X107526298Y-55868000D01*
X107517127Y-55774883D01*
X107491795Y-55691377D01*
X107489966Y-55685346D01*
X107445859Y-55602827D01*
X107386501Y-55530499D01*
X107368371Y-55515620D01*
X107118039Y-55265288D01*
X107105903Y-55204279D01*
X107062558Y-55099635D01*
X106999632Y-55005459D01*
X106919541Y-54925368D01*
X106825365Y-54862442D01*
X106720721Y-54819097D01*
X106609633Y-54797000D01*
X106496367Y-54797000D01*
X106385279Y-54819097D01*
X106280635Y-54862442D01*
X106186459Y-54925368D01*
X106106368Y-55005459D01*
X106043442Y-55099635D01*
X106000097Y-55204279D01*
X105978000Y-55315367D01*
X105978000Y-55428633D01*
X106000097Y-55539721D01*
X106043442Y-55644365D01*
X106106368Y-55738541D01*
X106186459Y-55818632D01*
X106280635Y-55881558D01*
X106385279Y-55924903D01*
X106446288Y-55937039D01*
X106574001Y-56064752D01*
X106574001Y-57337250D01*
X106448383Y-57211633D01*
X106433501Y-57193499D01*
X106361173Y-57134141D01*
X106303473Y-57103300D01*
X106284541Y-57084368D01*
X106190365Y-57021442D01*
X106085721Y-56978097D01*
X105974633Y-56956000D01*
X105861367Y-56956000D01*
X105750279Y-56978097D01*
X105645635Y-57021442D01*
X105551459Y-57084368D01*
X105524000Y-57111827D01*
X105524000Y-54269153D01*
X105538558Y-54247365D01*
X105581903Y-54142721D01*
X105604000Y-54031633D01*
X105604000Y-53918367D01*
X105581903Y-53807279D01*
X105538558Y-53702635D01*
X105475632Y-53608459D01*
X105395541Y-53528368D01*
X105301365Y-53465442D01*
X105196721Y-53422097D01*
X105085633Y-53400000D01*
X104972367Y-53400000D01*
X104861279Y-53422097D01*
X104756635Y-53465442D01*
X104662459Y-53528368D01*
X104582368Y-53608459D01*
X104519442Y-53702635D01*
X104476097Y-53807279D01*
X104454000Y-53918367D01*
X104454000Y-54031633D01*
X104476097Y-54142721D01*
X104519442Y-54247365D01*
X104574001Y-54329019D01*
X104574000Y-57807186D01*
X104399000Y-57807186D01*
X104325487Y-57814426D01*
X104274000Y-57830045D01*
X104222513Y-57814426D01*
X104149000Y-57807186D01*
X104021573Y-57807186D01*
X104029332Y-57795574D01*
X104082099Y-57668182D01*
X104109000Y-57532944D01*
X104109000Y-57395056D01*
X104082099Y-57259818D01*
X104029332Y-57132426D01*
X103952726Y-57017776D01*
X103855224Y-56920274D01*
X103740574Y-56843668D01*
X103613182Y-56790901D01*
X103477944Y-56764000D01*
X103340056Y-56764000D01*
X103204818Y-56790901D01*
X103077426Y-56843668D01*
X102962776Y-56920274D01*
X102865274Y-57017776D01*
X102788668Y-57132426D01*
X102735901Y-57259818D01*
X102709000Y-57395056D01*
X96158000Y-57395056D01*
X96158000Y-52724000D01*
X113392001Y-52724000D01*
X113392000Y-61830000D01*
%TA.AperFunction,Conductor*%
D17*
G36*
X113392000Y-61830000D02*
G01*
X110509647Y-61830000D01*
X110490000Y-61828065D01*
X110470354Y-61830000D01*
X110470353Y-61830000D01*
X110411586Y-61835788D01*
X110336186Y-61858660D01*
X110266697Y-61895803D01*
X110205789Y-61945789D01*
X110155803Y-62006697D01*
X110118660Y-62076186D01*
X110095788Y-62151586D01*
X110088065Y-62230000D01*
X110090001Y-62249657D01*
X110090000Y-73514000D01*
X102254000Y-73514000D01*
X102254000Y-71779367D01*
X102647000Y-71779367D01*
X102647000Y-71892633D01*
X102669097Y-72003721D01*
X102712442Y-72108365D01*
X102775368Y-72202541D01*
X102855459Y-72282632D01*
X102949635Y-72345558D01*
X103054279Y-72388903D01*
X103165367Y-72411000D01*
X103278633Y-72411000D01*
X103389721Y-72388903D01*
X103494365Y-72345558D01*
X103546085Y-72311000D01*
X108797915Y-72311000D01*
X108849635Y-72345558D01*
X108954279Y-72388903D01*
X109065367Y-72411000D01*
X109178633Y-72411000D01*
X109289721Y-72388903D01*
X109394365Y-72345558D01*
X109488541Y-72282632D01*
X109568632Y-72202541D01*
X109631558Y-72108365D01*
X109674903Y-72003721D01*
X109697000Y-71892633D01*
X109697000Y-71779367D01*
X109674903Y-71668279D01*
X109631558Y-71563635D01*
X109568632Y-71469459D01*
X109488541Y-71389368D01*
X109394365Y-71326442D01*
X109289721Y-71283097D01*
X109178633Y-71261000D01*
X109065367Y-71261000D01*
X108954279Y-71283097D01*
X108849635Y-71326442D01*
X108797915Y-71361000D01*
X103546085Y-71361000D01*
X103494365Y-71326442D01*
X103389721Y-71283097D01*
X103278633Y-71261000D01*
X103165367Y-71261000D01*
X103054279Y-71283097D01*
X102949635Y-71326442D01*
X102855459Y-71389368D01*
X102775368Y-71469459D01*
X102712442Y-71563635D01*
X102669097Y-71668279D01*
X102647000Y-71779367D01*
X102254000Y-71779367D01*
X102254000Y-66746311D01*
X104585600Y-66746311D01*
X104585600Y-67073689D01*
X104649468Y-67394775D01*
X104774749Y-67697232D01*
X104956630Y-67969436D01*
X105188121Y-68200927D01*
X105460325Y-68382808D01*
X105762782Y-68508089D01*
X106083868Y-68571957D01*
X106411246Y-68571957D01*
X106732332Y-68508089D01*
X107034789Y-68382808D01*
X107306993Y-68200927D01*
X107538484Y-67969436D01*
X107720365Y-67697232D01*
X107845646Y-67394775D01*
X107909514Y-67073689D01*
X107909514Y-66746311D01*
X107845646Y-66425225D01*
X107720365Y-66122768D01*
X107538484Y-65850564D01*
X107306993Y-65619073D01*
X107034789Y-65437192D01*
X106732332Y-65311911D01*
X106411246Y-65248043D01*
X106083868Y-65248043D01*
X105762782Y-65311911D01*
X105460325Y-65437192D01*
X105188121Y-65619073D01*
X104956630Y-65850564D01*
X104774749Y-66122768D01*
X104649468Y-66425225D01*
X104585600Y-66746311D01*
X102254000Y-66746311D01*
X102254000Y-62249646D01*
X102255935Y-62230000D01*
X102248212Y-62151586D01*
X102225340Y-62076186D01*
X102188197Y-62006697D01*
X102138211Y-61945789D01*
X102077303Y-61895803D01*
X102007814Y-61858660D01*
X101932414Y-61835788D01*
X101873647Y-61830000D01*
X101873646Y-61830000D01*
X101854000Y-61828065D01*
X101834353Y-61830000D01*
X96158000Y-61830000D01*
X96158000Y-59331368D01*
X99565867Y-59331368D01*
X99565867Y-59444634D01*
X99587964Y-59555722D01*
X99631309Y-59660366D01*
X99694235Y-59754542D01*
X99774326Y-59834633D01*
X99868502Y-59897559D01*
X99973146Y-59940904D01*
X100048219Y-59955837D01*
X100063115Y-60030722D01*
X100106460Y-60135366D01*
X100169386Y-60229542D01*
X100249477Y-60309633D01*
X100343653Y-60372559D01*
X100448297Y-60415904D01*
X100559385Y-60438001D01*
X100672651Y-60438001D01*
X100783739Y-60415904D01*
X100860400Y-60384150D01*
X103447962Y-62971714D01*
X103460097Y-63032721D01*
X103503442Y-63137365D01*
X103566368Y-63231541D01*
X103646459Y-63311632D01*
X103740635Y-63374558D01*
X103845279Y-63417903D01*
X103956367Y-63440000D01*
X104069633Y-63440000D01*
X104180721Y-63417903D01*
X104285365Y-63374558D01*
X104379541Y-63311632D01*
X104459632Y-63231541D01*
X104522558Y-63137365D01*
X104565903Y-63032721D01*
X104588000Y-62921633D01*
X104588000Y-62808367D01*
X104565903Y-62697279D01*
X104522558Y-62592635D01*
X104459632Y-62498459D01*
X104379541Y-62418368D01*
X104285365Y-62355442D01*
X104180721Y-62312097D01*
X104119714Y-62299962D01*
X103992452Y-62172700D01*
X103998541Y-62168632D01*
X104078632Y-62088541D01*
X104141558Y-61994365D01*
X104184903Y-61889721D01*
X104207000Y-61778633D01*
X104207000Y-61665367D01*
X104184903Y-61554279D01*
X104141558Y-61449635D01*
X104078632Y-61355459D01*
X103998541Y-61275368D01*
X103904365Y-61212442D01*
X103799721Y-61169097D01*
X103738712Y-61156962D01*
X101650385Y-59068635D01*
X101635502Y-59050500D01*
X101563174Y-58991142D01*
X101480655Y-58947035D01*
X101391117Y-58919874D01*
X101321333Y-58913001D01*
X101298001Y-58910703D01*
X101274669Y-58913001D01*
X100464952Y-58913001D01*
X100413232Y-58878443D01*
X100308588Y-58835098D01*
X100197500Y-58813001D01*
X100084234Y-58813001D01*
X99973146Y-58835098D01*
X99868502Y-58878443D01*
X99774326Y-58941369D01*
X99694235Y-59021460D01*
X99631309Y-59115636D01*
X99587964Y-59220280D01*
X99565867Y-59331368D01*
X96158000Y-59331368D01*
X96158000Y-57395056D01*
X102709000Y-57395056D01*
X102709000Y-57532944D01*
X102735901Y-57668182D01*
X102788668Y-57795574D01*
X102865274Y-57910224D01*
X102962776Y-58007726D01*
X103077426Y-58084332D01*
X103177903Y-58125951D01*
X103172186Y-58184000D01*
X103172186Y-59634000D01*
X103179426Y-59707513D01*
X103200869Y-59778200D01*
X103235691Y-59843347D01*
X103282552Y-59900448D01*
X103339653Y-59947309D01*
X103404800Y-59982131D01*
X103475487Y-60003574D01*
X103549000Y-60010814D01*
X104149000Y-60010814D01*
X104222513Y-60003574D01*
X104274000Y-59987955D01*
X104325487Y-60003574D01*
X104399000Y-60010814D01*
X104699000Y-60010814D01*
X104772513Y-60003574D01*
X104799000Y-59995539D01*
X104825487Y-60003574D01*
X104899000Y-60010814D01*
X105199000Y-60010814D01*
X105272513Y-60003574D01*
X105299000Y-59995539D01*
X105325487Y-60003574D01*
X105399000Y-60010814D01*
X105634310Y-60010814D01*
X105652142Y-60044175D01*
X105711500Y-60116503D01*
X105729629Y-60131381D01*
X105826615Y-60228367D01*
X105841498Y-60246502D01*
X105913826Y-60305860D01*
X105996345Y-60349967D01*
X106065043Y-60370806D01*
X106085882Y-60377128D01*
X106178998Y-60386299D01*
X106202330Y-60384001D01*
X106950667Y-60384001D01*
X106973999Y-60386299D01*
X106997331Y-60384001D01*
X107067115Y-60377128D01*
X107156653Y-60349967D01*
X107239172Y-60305860D01*
X107311500Y-60246502D01*
X107326383Y-60228367D01*
X107368366Y-60186384D01*
X107386501Y-60171501D01*
X107445859Y-60099173D01*
X107489966Y-60016654D01*
X107491738Y-60010814D01*
X107699000Y-60010814D01*
X107772513Y-60003574D01*
X107799000Y-59995539D01*
X107825487Y-60003574D01*
X107899000Y-60010814D01*
X108199000Y-60010814D01*
X108272513Y-60003574D01*
X108324000Y-59987955D01*
X108375487Y-60003574D01*
X108449000Y-60010814D01*
X109049000Y-60010814D01*
X109122513Y-60003574D01*
X109193200Y-59982131D01*
X109258347Y-59947309D01*
X109315448Y-59900448D01*
X109362309Y-59843347D01*
X109397131Y-59778200D01*
X109418574Y-59707513D01*
X109425814Y-59634000D01*
X109425814Y-58184000D01*
X109420097Y-58125951D01*
X109520574Y-58084332D01*
X109635224Y-58007726D01*
X109732726Y-57910224D01*
X109809332Y-57795574D01*
X109862099Y-57668182D01*
X109889000Y-57532944D01*
X109889000Y-57395056D01*
X109862099Y-57259818D01*
X109809332Y-57132426D01*
X109732726Y-57017776D01*
X109635224Y-56920274D01*
X109520574Y-56843668D01*
X109393182Y-56790901D01*
X109257944Y-56764000D01*
X109120056Y-56764000D01*
X108984818Y-56790901D01*
X108857426Y-56843668D01*
X108742776Y-56920274D01*
X108645274Y-57017776D01*
X108568668Y-57132426D01*
X108524000Y-57240265D01*
X108524000Y-54097331D01*
X108526298Y-54073999D01*
X108517127Y-53980883D01*
X108508888Y-53953722D01*
X108489966Y-53891346D01*
X108445859Y-53808827D01*
X108387273Y-53737440D01*
X108375903Y-53680279D01*
X108332558Y-53575635D01*
X108269632Y-53481459D01*
X108189541Y-53401368D01*
X108095365Y-53338442D01*
X107990721Y-53295097D01*
X107879633Y-53273000D01*
X107766367Y-53273000D01*
X107655279Y-53295097D01*
X107550635Y-53338442D01*
X107456459Y-53401368D01*
X107376368Y-53481459D01*
X107313442Y-53575635D01*
X107270097Y-53680279D01*
X107248000Y-53791367D01*
X107248000Y-53904633D01*
X107270097Y-54015721D01*
X107313442Y-54120365D01*
X107376368Y-54214541D01*
X107456459Y-54294632D01*
X107550635Y-54357558D01*
X107574001Y-54367236D01*
X107574000Y-57807186D01*
X107524000Y-57807186D01*
X107524000Y-55891332D01*
X107526298Y-55868000D01*
X107517127Y-55774883D01*
X107491795Y-55691377D01*
X107489966Y-55685346D01*
X107445859Y-55602827D01*
X107386501Y-55530499D01*
X107368371Y-55515620D01*
X107118039Y-55265288D01*
X107105903Y-55204279D01*
X107062558Y-55099635D01*
X106999632Y-55005459D01*
X106919541Y-54925368D01*
X106825365Y-54862442D01*
X106720721Y-54819097D01*
X106609633Y-54797000D01*
X106496367Y-54797000D01*
X106385279Y-54819097D01*
X106280635Y-54862442D01*
X106186459Y-54925368D01*
X106106368Y-55005459D01*
X106043442Y-55099635D01*
X106000097Y-55204279D01*
X105978000Y-55315367D01*
X105978000Y-55428633D01*
X106000097Y-55539721D01*
X106043442Y-55644365D01*
X106106368Y-55738541D01*
X106186459Y-55818632D01*
X106280635Y-55881558D01*
X106385279Y-55924903D01*
X106446288Y-55937039D01*
X106574001Y-56064752D01*
X106574001Y-57337250D01*
X106448383Y-57211633D01*
X106433501Y-57193499D01*
X106361173Y-57134141D01*
X106303473Y-57103300D01*
X106284541Y-57084368D01*
X106190365Y-57021442D01*
X106085721Y-56978097D01*
X105974633Y-56956000D01*
X105861367Y-56956000D01*
X105750279Y-56978097D01*
X105645635Y-57021442D01*
X105551459Y-57084368D01*
X105524000Y-57111827D01*
X105524000Y-54269153D01*
X105538558Y-54247365D01*
X105581903Y-54142721D01*
X105604000Y-54031633D01*
X105604000Y-53918367D01*
X105581903Y-53807279D01*
X105538558Y-53702635D01*
X105475632Y-53608459D01*
X105395541Y-53528368D01*
X105301365Y-53465442D01*
X105196721Y-53422097D01*
X105085633Y-53400000D01*
X104972367Y-53400000D01*
X104861279Y-53422097D01*
X104756635Y-53465442D01*
X104662459Y-53528368D01*
X104582368Y-53608459D01*
X104519442Y-53702635D01*
X104476097Y-53807279D01*
X104454000Y-53918367D01*
X104454000Y-54031633D01*
X104476097Y-54142721D01*
X104519442Y-54247365D01*
X104574001Y-54329019D01*
X104574000Y-57807186D01*
X104399000Y-57807186D01*
X104325487Y-57814426D01*
X104274000Y-57830045D01*
X104222513Y-57814426D01*
X104149000Y-57807186D01*
X104021573Y-57807186D01*
X104029332Y-57795574D01*
X104082099Y-57668182D01*
X104109000Y-57532944D01*
X104109000Y-57395056D01*
X104082099Y-57259818D01*
X104029332Y-57132426D01*
X103952726Y-57017776D01*
X103855224Y-56920274D01*
X103740574Y-56843668D01*
X103613182Y-56790901D01*
X103477944Y-56764000D01*
X103340056Y-56764000D01*
X103204818Y-56790901D01*
X103077426Y-56843668D01*
X102962776Y-56920274D01*
X102865274Y-57017776D01*
X102788668Y-57132426D01*
X102735901Y-57259818D01*
X102709000Y-57395056D01*
X96158000Y-57395056D01*
X96158000Y-52724000D01*
X113392001Y-52724000D01*
X113392000Y-61830000D01*
G37*
%TD.AperFunction*%
%TD*%
M02*
