%TF.GenerationSoftware,KiCad,Pcbnew,(5.1.10)-1*%
%TF.CreationDate,2022-03-29T20:59:08-04:00*%
%TF.ProjectId,030,3033302e-6b69-4636-9164-5f7063625858,rev?*%
%TF.SameCoordinates,Original*%
%TF.FileFunction,Soldermask,Top*%
%TF.FilePolarity,Negative*%
%FSLAX46Y46*%
G04 Gerber Fmt 4.6, Leading zero omitted, Abs format (unit mm)*
G04 Created by KiCad (PCBNEW (5.1.10)-1) date 2022-03-29 20:59:08*
%MOMM*%
%LPD*%
G01*
G04 APERTURE LIST*
%ADD10O,1.000000X1.600000*%
%ADD11C,0.650000*%
%ADD12O,1.000000X2.100000*%
%ADD13R,0.762000X0.355600*%
%ADD14R,1.041400X0.355600*%
%ADD15R,1.060000X1.580000*%
%ADD16R,0.600000X2.180000*%
G04 APERTURE END LIST*
D10*
%TO.C,USB*%
X110619000Y-53814000D03*
D11*
X109189000Y-57464000D03*
D10*
X101979000Y-53814000D03*
D11*
X103409000Y-57464000D03*
D12*
X101979000Y-57994000D03*
X110619000Y-57994000D03*
%TD*%
D13*
%TO.C,J1*%
X99568000Y-54388001D03*
X99568000Y-54888000D03*
X99568000Y-55388002D03*
X99568000Y-55888001D03*
X99568000Y-56388000D03*
X99568000Y-56888001D03*
X99568000Y-57388001D03*
X99568000Y-57888002D03*
X99568000Y-58388001D03*
X99568000Y-58888000D03*
X99568000Y-59388002D03*
X99568000Y-59888001D03*
D14*
X96918000Y-53598000D03*
X96918000Y-60678002D03*
%TD*%
D15*
%TO.C,D1*%
X103222000Y-71836000D03*
D16*
X104372000Y-72136000D03*
X105272000Y-72136000D03*
X106172000Y-72136000D03*
X107072000Y-72136000D03*
X107972000Y-72136000D03*
D15*
X109122000Y-71836000D03*
%TD*%
%TO.C,R3*%
G36*
G01*
X106278500Y-55007500D02*
X106278500Y-55482500D01*
G75*
G02*
X106041000Y-55720000I-237500J0D01*
G01*
X105541000Y-55720000D01*
G75*
G02*
X105303500Y-55482500I0J237500D01*
G01*
X105303500Y-55007500D01*
G75*
G02*
X105541000Y-54770000I237500J0D01*
G01*
X106041000Y-54770000D01*
G75*
G02*
X106278500Y-55007500I0J-237500D01*
G01*
G37*
G36*
G01*
X104453500Y-55007500D02*
X104453500Y-55482500D01*
G75*
G02*
X104216000Y-55720000I-237500J0D01*
G01*
X103716000Y-55720000D01*
G75*
G02*
X103478500Y-55482500I0J237500D01*
G01*
X103478500Y-55007500D01*
G75*
G02*
X103716000Y-54770000I237500J0D01*
G01*
X104216000Y-54770000D01*
G75*
G02*
X104453500Y-55007500I0J-237500D01*
G01*
G37*
%TD*%
%TO.C,R4*%
G36*
G01*
X104453500Y-56531500D02*
X104453500Y-57006500D01*
G75*
G02*
X104216000Y-57244000I-237500J0D01*
G01*
X103716000Y-57244000D01*
G75*
G02*
X103478500Y-57006500I0J237500D01*
G01*
X103478500Y-56531500D01*
G75*
G02*
X103716000Y-56294000I237500J0D01*
G01*
X104216000Y-56294000D01*
G75*
G02*
X104453500Y-56531500I0J-237500D01*
G01*
G37*
G36*
G01*
X106278500Y-56531500D02*
X106278500Y-57006500D01*
G75*
G02*
X106041000Y-57244000I-237500J0D01*
G01*
X105541000Y-57244000D01*
G75*
G02*
X105303500Y-57006500I0J237500D01*
G01*
X105303500Y-56531500D01*
G75*
G02*
X105541000Y-56294000I237500J0D01*
G01*
X106041000Y-56294000D01*
G75*
G02*
X106278500Y-56531500I0J-237500D01*
G01*
G37*
%TD*%
%TO.C,R1*%
G36*
G01*
X106954500Y-53577500D02*
X106954500Y-53102500D01*
G75*
G02*
X107192000Y-52865000I237500J0D01*
G01*
X107692000Y-52865000D01*
G75*
G02*
X107929500Y-53102500I0J-237500D01*
G01*
X107929500Y-53577500D01*
G75*
G02*
X107692000Y-53815000I-237500J0D01*
G01*
X107192000Y-53815000D01*
G75*
G02*
X106954500Y-53577500I0J237500D01*
G01*
G37*
G36*
G01*
X108779500Y-53577500D02*
X108779500Y-53102500D01*
G75*
G02*
X109017000Y-52865000I237500J0D01*
G01*
X109517000Y-52865000D01*
G75*
G02*
X109754500Y-53102500I0J-237500D01*
G01*
X109754500Y-53577500D01*
G75*
G02*
X109517000Y-53815000I-237500J0D01*
G01*
X109017000Y-53815000D01*
G75*
G02*
X108779500Y-53577500I0J237500D01*
G01*
G37*
%TD*%
%TO.C,R2*%
G36*
G01*
X104692000Y-53577500D02*
X104692000Y-53102500D01*
G75*
G02*
X104929500Y-52865000I237500J0D01*
G01*
X105429500Y-52865000D01*
G75*
G02*
X105667000Y-53102500I0J-237500D01*
G01*
X105667000Y-53577500D01*
G75*
G02*
X105429500Y-53815000I-237500J0D01*
G01*
X104929500Y-53815000D01*
G75*
G02*
X104692000Y-53577500I0J237500D01*
G01*
G37*
G36*
G01*
X102867000Y-53577500D02*
X102867000Y-53102500D01*
G75*
G02*
X103104500Y-52865000I237500J0D01*
G01*
X103604500Y-52865000D01*
G75*
G02*
X103842000Y-53102500I0J-237500D01*
G01*
X103842000Y-53577500D01*
G75*
G02*
X103604500Y-53815000I-237500J0D01*
G01*
X103104500Y-53815000D01*
G75*
G02*
X102867000Y-53577500I0J237500D01*
G01*
G37*
%TD*%
M02*
