%TF.GenerationSoftware,KiCad,Pcbnew,(5.1.10)-1*%
%TF.CreationDate,2022-04-16T22:58:20-04:00*%
%TF.ProjectId,030,3033302e-6b69-4636-9164-5f7063625858,rev?*%
%TF.SameCoordinates,Original*%
%TF.FileFunction,Soldermask,Top*%
%TF.FilePolarity,Negative*%
%FSLAX46Y46*%
G04 Gerber Fmt 4.6, Leading zero omitted, Abs format (unit mm)*
G04 Created by KiCad (PCBNEW (5.1.10)-1) date 2022-04-16 22:58:20*
%MOMM*%
%LPD*%
G01*
G04 APERTURE LIST*
%ADD10O,1.000000X1.600000*%
%ADD11C,0.650000*%
%ADD12O,1.000000X2.100000*%
%ADD13R,0.762000X0.355600*%
%ADD14R,1.041400X0.355600*%
%ADD15R,1.060000X1.580000*%
%ADD16R,0.600000X2.180000*%
G04 APERTURE END LIST*
%TO.C,R2*%
G36*
G01*
X104946000Y-53958500D02*
X104946000Y-53483500D01*
G75*
G02*
X105183500Y-53246000I237500J0D01*
G01*
X105683500Y-53246000D01*
G75*
G02*
X105921000Y-53483500I0J-237500D01*
G01*
X105921000Y-53958500D01*
G75*
G02*
X105683500Y-54196000I-237500J0D01*
G01*
X105183500Y-54196000D01*
G75*
G02*
X104946000Y-53958500I0J237500D01*
G01*
G37*
G36*
G01*
X103121000Y-53958500D02*
X103121000Y-53483500D01*
G75*
G02*
X103358500Y-53246000I237500J0D01*
G01*
X103858500Y-53246000D01*
G75*
G02*
X104096000Y-53483500I0J-237500D01*
G01*
X104096000Y-53958500D01*
G75*
G02*
X103858500Y-54196000I-237500J0D01*
G01*
X103358500Y-54196000D01*
G75*
G02*
X103121000Y-53958500I0J237500D01*
G01*
G37*
%TD*%
D10*
%TO.C,USB*%
X110619000Y-53814000D03*
D11*
X109189000Y-57464000D03*
D10*
X101979000Y-53814000D03*
D11*
X103409000Y-57464000D03*
D12*
X101979000Y-57994000D03*
X110619000Y-57994000D03*
%TD*%
D13*
%TO.C,J1*%
X99568000Y-54388001D03*
X99568000Y-54888000D03*
X99568000Y-55388002D03*
X99568000Y-55888001D03*
X99568000Y-56388000D03*
X99568000Y-56888001D03*
X99568000Y-57388001D03*
X99568000Y-57888002D03*
X99568000Y-58388001D03*
X99568000Y-58888000D03*
X99568000Y-59388002D03*
X99568000Y-59888001D03*
D14*
X96918000Y-53598000D03*
X96918000Y-60678002D03*
%TD*%
D15*
%TO.C,D1*%
X109110000Y-72240000D03*
D16*
X107960000Y-71940000D03*
X107060000Y-71940000D03*
X106160000Y-71940000D03*
X105260000Y-71940000D03*
X104360000Y-71940000D03*
D15*
X103210000Y-72240000D03*
%TD*%
%TO.C,R1*%
G36*
G01*
X106677000Y-53958500D02*
X106677000Y-53483500D01*
G75*
G02*
X106914500Y-53246000I237500J0D01*
G01*
X107414500Y-53246000D01*
G75*
G02*
X107652000Y-53483500I0J-237500D01*
G01*
X107652000Y-53958500D01*
G75*
G02*
X107414500Y-54196000I-237500J0D01*
G01*
X106914500Y-54196000D01*
G75*
G02*
X106677000Y-53958500I0J237500D01*
G01*
G37*
G36*
G01*
X108502000Y-53958500D02*
X108502000Y-53483500D01*
G75*
G02*
X108739500Y-53246000I237500J0D01*
G01*
X109239500Y-53246000D01*
G75*
G02*
X109477000Y-53483500I0J-237500D01*
G01*
X109477000Y-53958500D01*
G75*
G02*
X109239500Y-54196000I-237500J0D01*
G01*
X108739500Y-54196000D01*
G75*
G02*
X108502000Y-53958500I0J237500D01*
G01*
G37*
%TD*%
M02*
