%TF.GenerationSoftware,KiCad,Pcbnew,(5.1.10)-1*%
%TF.CreationDate,2022-03-29T20:59:08-04:00*%
%TF.ProjectId,030,3033302e-6b69-4636-9164-5f7063625858,rev?*%
%TF.SameCoordinates,Original*%
%TF.FileFunction,Legend,Top*%
%TF.FilePolarity,Positive*%
%FSLAX46Y46*%
G04 Gerber Fmt 4.6, Leading zero omitted, Abs format (unit mm)*
G04 Created by KiCad (PCBNEW (5.1.10)-1) date 2022-03-29 20:59:08*
%MOMM*%
%LPD*%
G01*
G04 APERTURE LIST*
%ADD10C,0.100000*%
%ADD11C,0.120000*%
%ADD12C,0.150000*%
G04 APERTURE END LIST*
D10*
X111950190Y-61594476D02*
X111950190Y-61308761D01*
X112450190Y-61451619D02*
X111950190Y-61451619D01*
X112450190Y-61142095D02*
X111950190Y-61142095D01*
X112450190Y-60927809D02*
X112188285Y-60927809D01*
X112140666Y-60951619D01*
X112116857Y-60999238D01*
X112116857Y-61070666D01*
X112140666Y-61118285D01*
X112164476Y-61142095D01*
X112450190Y-60475428D02*
X112188285Y-60475428D01*
X112140666Y-60499238D01*
X112116857Y-60546857D01*
X112116857Y-60642095D01*
X112140666Y-60689714D01*
X112426380Y-60475428D02*
X112450190Y-60523047D01*
X112450190Y-60642095D01*
X112426380Y-60689714D01*
X112378761Y-60713523D01*
X112331142Y-60713523D01*
X112283523Y-60689714D01*
X112259714Y-60642095D01*
X112259714Y-60523047D01*
X112235904Y-60475428D01*
X112116857Y-60237333D02*
X112450190Y-60237333D01*
X112164476Y-60237333D02*
X112140666Y-60213523D01*
X112116857Y-60165904D01*
X112116857Y-60094476D01*
X112140666Y-60046857D01*
X112188285Y-60023047D01*
X112450190Y-60023047D01*
X112450190Y-59784952D02*
X111950190Y-59784952D01*
X112259714Y-59737333D02*
X112450190Y-59594476D01*
X112116857Y-59594476D02*
X112307333Y-59784952D01*
X112426380Y-59404000D02*
X112450190Y-59356380D01*
X112450190Y-59261142D01*
X112426380Y-59213523D01*
X112378761Y-59189714D01*
X112354952Y-59189714D01*
X112307333Y-59213523D01*
X112283523Y-59261142D01*
X112283523Y-59332571D01*
X112259714Y-59380190D01*
X112212095Y-59404000D01*
X112188285Y-59404000D01*
X112140666Y-59380190D01*
X112116857Y-59332571D01*
X112116857Y-59261142D01*
X112140666Y-59213523D01*
X112116857Y-58665904D02*
X112116857Y-58475428D01*
X111950190Y-58594476D02*
X112378761Y-58594476D01*
X112426380Y-58570666D01*
X112450190Y-58523047D01*
X112450190Y-58475428D01*
X112450190Y-58237333D02*
X112426380Y-58284952D01*
X112402571Y-58308761D01*
X112354952Y-58332571D01*
X112212095Y-58332571D01*
X112164476Y-58308761D01*
X112140666Y-58284952D01*
X112116857Y-58237333D01*
X112116857Y-58165904D01*
X112140666Y-58118285D01*
X112164476Y-58094476D01*
X112212095Y-58070666D01*
X112354952Y-58070666D01*
X112402571Y-58094476D01*
X112426380Y-58118285D01*
X112450190Y-58165904D01*
X112450190Y-58237333D01*
X112450190Y-57213523D02*
X112450190Y-57499238D01*
X112450190Y-57356380D02*
X111950190Y-57356380D01*
X112021619Y-57404000D01*
X112069238Y-57451619D01*
X112093047Y-57499238D01*
X111997809Y-57023047D02*
X111974000Y-56999238D01*
X111950190Y-56951619D01*
X111950190Y-56832571D01*
X111974000Y-56784952D01*
X111997809Y-56761142D01*
X112045428Y-56737333D01*
X112093047Y-56737333D01*
X112164476Y-56761142D01*
X112450190Y-57046857D01*
X112450190Y-56737333D01*
X112450190Y-56523047D02*
X111950190Y-56523047D01*
X112140666Y-56523047D02*
X112116857Y-56475428D01*
X112116857Y-56380190D01*
X112140666Y-56332571D01*
X112164476Y-56308761D01*
X112212095Y-56284952D01*
X112354952Y-56284952D01*
X112402571Y-56308761D01*
X112426380Y-56332571D01*
X112450190Y-56380190D01*
X112450190Y-56475428D01*
X112426380Y-56523047D01*
X112450190Y-56070666D02*
X112116857Y-56070666D01*
X112212095Y-56070666D02*
X112164476Y-56046857D01*
X112140666Y-56023047D01*
X112116857Y-55975428D01*
X112116857Y-55927809D01*
X112426380Y-55570666D02*
X112450190Y-55618285D01*
X112450190Y-55713523D01*
X112426380Y-55761142D01*
X112378761Y-55784952D01*
X112188285Y-55784952D01*
X112140666Y-55761142D01*
X112116857Y-55713523D01*
X112116857Y-55618285D01*
X112140666Y-55570666D01*
X112188285Y-55546857D01*
X112235904Y-55546857D01*
X112283523Y-55784952D01*
X112116857Y-55332571D02*
X112450190Y-55332571D01*
X112164476Y-55332571D02*
X112140666Y-55308761D01*
X112116857Y-55261142D01*
X112116857Y-55189714D01*
X112140666Y-55142095D01*
X112188285Y-55118285D01*
X112450190Y-55118285D01*
X112450190Y-54665904D02*
X111950190Y-54665904D01*
X112426380Y-54665904D02*
X112450190Y-54713523D01*
X112450190Y-54808761D01*
X112426380Y-54856380D01*
X112402571Y-54880190D01*
X112354952Y-54904000D01*
X112212095Y-54904000D01*
X112164476Y-54880190D01*
X112140666Y-54856380D01*
X112116857Y-54808761D01*
X112116857Y-54713523D01*
X112140666Y-54665904D01*
X112450190Y-54213523D02*
X112188285Y-54213523D01*
X112140666Y-54237333D01*
X112116857Y-54284952D01*
X112116857Y-54380190D01*
X112140666Y-54427809D01*
X112426380Y-54213523D02*
X112450190Y-54261142D01*
X112450190Y-54380190D01*
X112426380Y-54427809D01*
X112378761Y-54451619D01*
X112331142Y-54451619D01*
X112283523Y-54427809D01*
X112259714Y-54380190D01*
X112259714Y-54261142D01*
X112235904Y-54213523D01*
X112116857Y-53975428D02*
X112450190Y-53975428D01*
X112164476Y-53975428D02*
X112140666Y-53951619D01*
X112116857Y-53904000D01*
X112116857Y-53832571D01*
X112140666Y-53784952D01*
X112188285Y-53761142D01*
X112450190Y-53761142D01*
X111950190Y-53570666D02*
X111950190Y-53261142D01*
X112140666Y-53427809D01*
X112140666Y-53356380D01*
X112164476Y-53308761D01*
X112188285Y-53284952D01*
X112235904Y-53261142D01*
X112354952Y-53261142D01*
X112402571Y-53284952D01*
X112426380Y-53308761D01*
X112450190Y-53356380D01*
X112450190Y-53499238D01*
X112426380Y-53546857D01*
X112402571Y-53570666D01*
X112966857Y-60737333D02*
X112966857Y-60546857D01*
X113300190Y-60665904D02*
X112871619Y-60665904D01*
X112824000Y-60642095D01*
X112800190Y-60594476D01*
X112800190Y-60546857D01*
X113300190Y-60308761D02*
X113276380Y-60356380D01*
X113252571Y-60380190D01*
X113204952Y-60404000D01*
X113062095Y-60404000D01*
X113014476Y-60380190D01*
X112990666Y-60356380D01*
X112966857Y-60308761D01*
X112966857Y-60237333D01*
X112990666Y-60189714D01*
X113014476Y-60165904D01*
X113062095Y-60142095D01*
X113204952Y-60142095D01*
X113252571Y-60165904D01*
X113276380Y-60189714D01*
X113300190Y-60237333D01*
X113300190Y-60308761D01*
X113300190Y-59927809D02*
X112966857Y-59927809D01*
X113062095Y-59927809D02*
X113014476Y-59904000D01*
X112990666Y-59880190D01*
X112966857Y-59832571D01*
X112966857Y-59784952D01*
X112966857Y-59308761D02*
X112966857Y-59118285D01*
X112800190Y-59237333D02*
X113228761Y-59237333D01*
X113276380Y-59213523D01*
X113300190Y-59165904D01*
X113300190Y-59118285D01*
X113300190Y-58951619D02*
X112800190Y-58951619D01*
X113300190Y-58737333D02*
X113038285Y-58737333D01*
X112990666Y-58761142D01*
X112966857Y-58808761D01*
X112966857Y-58880190D01*
X112990666Y-58927809D01*
X113014476Y-58951619D01*
X113276380Y-58308761D02*
X113300190Y-58356380D01*
X113300190Y-58451619D01*
X113276380Y-58499238D01*
X113228761Y-58523047D01*
X113038285Y-58523047D01*
X112990666Y-58499238D01*
X112966857Y-58451619D01*
X112966857Y-58356380D01*
X112990666Y-58308761D01*
X113038285Y-58284952D01*
X113085904Y-58284952D01*
X113133523Y-58523047D01*
X113276380Y-57713523D02*
X113300190Y-57665904D01*
X113300190Y-57570666D01*
X113276380Y-57523047D01*
X113228761Y-57499238D01*
X113204952Y-57499238D01*
X113157333Y-57523047D01*
X113133523Y-57570666D01*
X113133523Y-57642095D01*
X113109714Y-57689714D01*
X113062095Y-57713523D01*
X113038285Y-57713523D01*
X112990666Y-57689714D01*
X112966857Y-57642095D01*
X112966857Y-57570666D01*
X112990666Y-57523047D01*
X113276380Y-57070666D02*
X113300190Y-57118285D01*
X113300190Y-57213523D01*
X113276380Y-57261142D01*
X113252571Y-57284952D01*
X113204952Y-57308761D01*
X113062095Y-57308761D01*
X113014476Y-57284952D01*
X112990666Y-57261142D01*
X112966857Y-57213523D01*
X112966857Y-57118285D01*
X112990666Y-57070666D01*
X113300190Y-56856380D02*
X112800190Y-56856380D01*
X113300190Y-56642095D02*
X113038285Y-56642095D01*
X112990666Y-56665904D01*
X112966857Y-56713523D01*
X112966857Y-56784952D01*
X112990666Y-56832571D01*
X113014476Y-56856380D01*
X113276380Y-56213523D02*
X113300190Y-56261142D01*
X113300190Y-56356380D01*
X113276380Y-56404000D01*
X113228761Y-56427809D01*
X113038285Y-56427809D01*
X112990666Y-56404000D01*
X112966857Y-56356380D01*
X112966857Y-56261142D01*
X112990666Y-56213523D01*
X113038285Y-56189714D01*
X113085904Y-56189714D01*
X113133523Y-56427809D01*
X113300190Y-55975428D02*
X112966857Y-55975428D01*
X113014476Y-55975428D02*
X112990666Y-55951619D01*
X112966857Y-55904000D01*
X112966857Y-55832571D01*
X112990666Y-55784952D01*
X113038285Y-55761142D01*
X113300190Y-55761142D01*
X113038285Y-55761142D02*
X112990666Y-55737333D01*
X112966857Y-55689714D01*
X112966857Y-55618285D01*
X112990666Y-55570666D01*
X113038285Y-55546857D01*
X113300190Y-55546857D01*
X113300190Y-55094476D02*
X113038285Y-55094476D01*
X112990666Y-55118285D01*
X112966857Y-55165904D01*
X112966857Y-55261142D01*
X112990666Y-55308761D01*
X113276380Y-55094476D02*
X113300190Y-55142095D01*
X113300190Y-55261142D01*
X113276380Y-55308761D01*
X113228761Y-55332571D01*
X113181142Y-55332571D01*
X113133523Y-55308761D01*
X113109714Y-55261142D01*
X113109714Y-55142095D01*
X113085904Y-55094476D01*
X112966857Y-54927809D02*
X112966857Y-54737333D01*
X112800190Y-54856380D02*
X113228761Y-54856380D01*
X113276380Y-54832571D01*
X113300190Y-54784952D01*
X113300190Y-54737333D01*
X113300190Y-54570666D02*
X112966857Y-54570666D01*
X112800190Y-54570666D02*
X112824000Y-54594476D01*
X112847809Y-54570666D01*
X112824000Y-54546857D01*
X112800190Y-54570666D01*
X112847809Y-54570666D01*
X113276380Y-54118285D02*
X113300190Y-54165904D01*
X113300190Y-54261142D01*
X113276380Y-54308761D01*
X113252571Y-54332571D01*
X113204952Y-54356380D01*
X113062095Y-54356380D01*
X113014476Y-54332571D01*
X112990666Y-54308761D01*
X112966857Y-54261142D01*
X112966857Y-54165904D01*
X112990666Y-54118285D01*
D11*
%TO.C,J1*%
X96134200Y-53979501D02*
X96134200Y-60296501D01*
X97649681Y-61113101D02*
X99995000Y-61113101D01*
X99995000Y-61113101D02*
X99995000Y-60395346D01*
X99995000Y-53162901D02*
X97649681Y-53162901D01*
X99995000Y-53880656D02*
X99995000Y-53162901D01*
%TO.C,D1*%
X109872000Y-72636000D02*
X109872000Y-71036000D01*
X109872000Y-71036000D02*
X110072000Y-71236000D01*
X102472000Y-72636000D02*
X102472000Y-71036000D01*
X102472000Y-71036000D02*
X102272000Y-71236000D01*
%TO.C,R3*%
X105133224Y-55767500D02*
X104623776Y-55767500D01*
X105133224Y-54722500D02*
X104623776Y-54722500D01*
%TO.C,R4*%
X105133224Y-56246500D02*
X104623776Y-56246500D01*
X105133224Y-57291500D02*
X104623776Y-57291500D01*
%TO.C,R1*%
X108099776Y-52817500D02*
X108609224Y-52817500D01*
X108099776Y-53862500D02*
X108609224Y-53862500D01*
%TO.C,R2*%
X104012276Y-53862500D02*
X104521724Y-53862500D01*
X104012276Y-52817500D02*
X104521724Y-52817500D01*
%TO.C,J1*%
D12*
X97496380Y-58150000D02*
X97496380Y-58054761D01*
X97544000Y-57959523D01*
X97591619Y-57911904D01*
X97686857Y-57864285D01*
X97877333Y-57816666D01*
X98115428Y-57816666D01*
X98305904Y-57864285D01*
X98401142Y-57911904D01*
X98448761Y-57959523D01*
X98496380Y-58054761D01*
X98496380Y-58150000D01*
X98448761Y-58245238D01*
X98401142Y-58292857D01*
X98305904Y-58340476D01*
X98115428Y-58388095D01*
X97877333Y-58388095D01*
X97686857Y-58340476D01*
X97591619Y-58292857D01*
X97544000Y-58245238D01*
X97496380Y-58150000D01*
X97496380Y-57483333D02*
X97496380Y-56864285D01*
X97877333Y-57197619D01*
X97877333Y-57054761D01*
X97924952Y-56959523D01*
X97972571Y-56911904D01*
X98067809Y-56864285D01*
X98305904Y-56864285D01*
X98401142Y-56911904D01*
X98448761Y-56959523D01*
X98496380Y-57054761D01*
X98496380Y-57340476D01*
X98448761Y-57435714D01*
X98401142Y-57483333D01*
X97496380Y-56245238D02*
X97496380Y-56150000D01*
X97544000Y-56054761D01*
X97591619Y-56007142D01*
X97686857Y-55959523D01*
X97877333Y-55911904D01*
X98115428Y-55911904D01*
X98305904Y-55959523D01*
X98401142Y-56007142D01*
X98448761Y-56054761D01*
X98496380Y-56150000D01*
X98496380Y-56245238D01*
X98448761Y-56340476D01*
X98401142Y-56388095D01*
X98305904Y-56435714D01*
X98115428Y-56483333D01*
X97877333Y-56483333D01*
X97686857Y-56435714D01*
X97591619Y-56388095D01*
X97544000Y-56340476D01*
X97496380Y-56245238D01*
%TO.C,D1*%
X105656142Y-70556380D02*
X105179952Y-70556380D01*
X105179952Y-69556380D01*
X105989476Y-70032571D02*
X106322809Y-70032571D01*
X106465666Y-70556380D02*
X105989476Y-70556380D01*
X105989476Y-69556380D01*
X106465666Y-69556380D01*
X106894238Y-70556380D02*
X106894238Y-69556380D01*
X107132333Y-69556380D01*
X107275190Y-69604000D01*
X107370428Y-69699238D01*
X107418047Y-69794476D01*
X107465666Y-69984952D01*
X107465666Y-70127809D01*
X107418047Y-70318285D01*
X107370428Y-70413523D01*
X107275190Y-70508761D01*
X107132333Y-70556380D01*
X106894238Y-70556380D01*
%TO.C,R3*%
X107148333Y-55824380D02*
X106815000Y-55348190D01*
X106576904Y-55824380D02*
X106576904Y-54824380D01*
X106957857Y-54824380D01*
X107053095Y-54872000D01*
X107100714Y-54919619D01*
X107148333Y-55014857D01*
X107148333Y-55157714D01*
X107100714Y-55252952D01*
X107053095Y-55300571D01*
X106957857Y-55348190D01*
X106576904Y-55348190D01*
X107481666Y-54824380D02*
X108100714Y-54824380D01*
X107767380Y-55205333D01*
X107910238Y-55205333D01*
X108005476Y-55252952D01*
X108053095Y-55300571D01*
X108100714Y-55395809D01*
X108100714Y-55633904D01*
X108053095Y-55729142D01*
X108005476Y-55776761D01*
X107910238Y-55824380D01*
X107624523Y-55824380D01*
X107529285Y-55776761D01*
X107481666Y-55729142D01*
%TO.C,R4*%
X107148333Y-57348380D02*
X106815000Y-56872190D01*
X106576904Y-57348380D02*
X106576904Y-56348380D01*
X106957857Y-56348380D01*
X107053095Y-56396000D01*
X107100714Y-56443619D01*
X107148333Y-56538857D01*
X107148333Y-56681714D01*
X107100714Y-56776952D01*
X107053095Y-56824571D01*
X106957857Y-56872190D01*
X106576904Y-56872190D01*
X108005476Y-56681714D02*
X108005476Y-57348380D01*
X107767380Y-56300761D02*
X107529285Y-57015047D01*
X108148333Y-57015047D01*
%TO.C,R1*%
X109053333Y-55316380D02*
X108720000Y-54840190D01*
X108481904Y-55316380D02*
X108481904Y-54316380D01*
X108862857Y-54316380D01*
X108958095Y-54364000D01*
X109005714Y-54411619D01*
X109053333Y-54506857D01*
X109053333Y-54649714D01*
X109005714Y-54744952D01*
X108958095Y-54792571D01*
X108862857Y-54840190D01*
X108481904Y-54840190D01*
X110005714Y-55316380D02*
X109434285Y-55316380D01*
X109720000Y-55316380D02*
X109720000Y-54316380D01*
X109624761Y-54459238D01*
X109529523Y-54554476D01*
X109434285Y-54602095D01*
%TO.C,R2*%
X101290380Y-53887666D02*
X100814190Y-54221000D01*
X101290380Y-54459095D02*
X100290380Y-54459095D01*
X100290380Y-54078142D01*
X100338000Y-53982904D01*
X100385619Y-53935285D01*
X100480857Y-53887666D01*
X100623714Y-53887666D01*
X100718952Y-53935285D01*
X100766571Y-53982904D01*
X100814190Y-54078142D01*
X100814190Y-54459095D01*
X100385619Y-53506714D02*
X100338000Y-53459095D01*
X100290380Y-53363857D01*
X100290380Y-53125761D01*
X100338000Y-53030523D01*
X100385619Y-52982904D01*
X100480857Y-52935285D01*
X100576095Y-52935285D01*
X100718952Y-52982904D01*
X101290380Y-53554333D01*
X101290380Y-52935285D01*
%TD*%
M02*
