M48
; DRILL file {KiCad (5.1.10)-1} date 04/16/22 22:56:05
; FORMAT={-:-/ absolute / inch / decimal}
; #@! TF.CreationDate,2022-04-16T22:56:05-04:00
; #@! TF.GenerationSoftware,Kicad,Pcbnew,(5.1.10)-1
; #@! TF.FileFunction,Plated,1,2,PTH
FMAT,2
INCH
T1C0.0079
T2C0.0236
%
G90
G05
T1
X3.8803Y-2.2003
X3.8806Y-2.2594
X3.895Y-2.3575
X3.95Y-2.2
X3.955Y-2.23
X3.97Y-2.2875
X4.03Y-2.51
X4.03Y-2.65
X4.035Y-2.755
X4.0634Y-2.8441
X4.07Y-2.38
X4.075Y-2.145
X4.0862Y-2.7657
X4.12Y-2.56
X4.125Y-2.46
X4.15Y-2.145
X4.185Y-2.4
X4.186Y-2.234
X4.204Y-2.216
X4.22Y-2.145
X4.261Y-2.7484
X4.2957Y-2.8441
X4.3Y-2.38
X4.305Y-2.2
X4.31Y-2.155
X4.41Y-2.12
T2
G00X4.0149Y-2.1069
M15
G01X4.0149Y-2.1305
M16
G05
G00X4.0149Y-2.2616
M15
G01X4.0149Y-2.3049
M16
G05
G00X4.3551Y-2.1069
M15
G01X4.3551Y-2.1305
M16
G05
G00X4.3551Y-2.2616
M15
G01X4.3551Y-2.3049
M16
G05
T0
M30
