%TF.GenerationSoftware,KiCad,Pcbnew,(5.1.10)-1*%
%TF.CreationDate,2022-04-16T22:58:20-04:00*%
%TF.ProjectId,030,3033302e-6b69-4636-9164-5f7063625858,rev?*%
%TF.SameCoordinates,Original*%
%TF.FileFunction,Copper,L1,Top*%
%TF.FilePolarity,Positive*%
%FSLAX46Y46*%
G04 Gerber Fmt 4.6, Leading zero omitted, Abs format (unit mm)*
G04 Created by KiCad (PCBNEW (5.1.10)-1) date 2022-04-16 22:58:20*
%MOMM*%
%LPD*%
G01*
G04 APERTURE LIST*
%TA.AperFunction,ComponentPad*%
%ADD10O,1.000000X1.600000*%
%TD*%
%TA.AperFunction,ComponentPad*%
%ADD11O,1.000000X2.100000*%
%TD*%
%TA.AperFunction,SMDPad,CuDef*%
%ADD12R,0.762000X0.355600*%
%TD*%
%TA.AperFunction,SMDPad,CuDef*%
%ADD13R,1.041400X0.355600*%
%TD*%
%TA.AperFunction,SMDPad,CuDef*%
%ADD14R,1.060000X1.580000*%
%TD*%
%TA.AperFunction,SMDPad,CuDef*%
%ADD15R,0.600000X2.180000*%
%TD*%
%TA.AperFunction,ViaPad*%
%ADD16C,0.400000*%
%TD*%
%TA.AperFunction,Conductor*%
%ADD17C,0.200000*%
%TD*%
%TA.AperFunction,Conductor*%
%ADD18C,0.250000*%
%TD*%
%TA.AperFunction,Conductor*%
%ADD19C,0.100000*%
%TD*%
G04 APERTURE END LIST*
%TO.P,R2,2*%
%TO.N,Net-(J2-PadA5)*%
%TA.AperFunction,SMDPad,CuDef*%
G36*
G01*
X104946000Y-53958500D02*
X104946000Y-53483500D01*
G75*
G02*
X105183500Y-53246000I237500J0D01*
G01*
X105683500Y-53246000D01*
G75*
G02*
X105921000Y-53483500I0J-237500D01*
G01*
X105921000Y-53958500D01*
G75*
G02*
X105683500Y-54196000I-237500J0D01*
G01*
X105183500Y-54196000D01*
G75*
G02*
X104946000Y-53958500I0J237500D01*
G01*
G37*
%TD.AperFunction*%
%TO.P,R2,1*%
%TO.N,GND*%
%TA.AperFunction,SMDPad,CuDef*%
G36*
G01*
X103121000Y-53958500D02*
X103121000Y-53483500D01*
G75*
G02*
X103358500Y-53246000I237500J0D01*
G01*
X103858500Y-53246000D01*
G75*
G02*
X104096000Y-53483500I0J-237500D01*
G01*
X104096000Y-53958500D01*
G75*
G02*
X103858500Y-54196000I-237500J0D01*
G01*
X103358500Y-54196000D01*
G75*
G02*
X103121000Y-53958500I0J237500D01*
G01*
G37*
%TD.AperFunction*%
%TD*%
D10*
%TO.P,USB,S1*%
%TO.N,GND*%
X110619000Y-53814000D03*
X101979000Y-53814000D03*
D11*
X101979000Y-57994000D03*
X110619000Y-57994000D03*
%TD*%
D12*
%TO.P,J1,1*%
%TO.N,GND*%
X99568000Y-54388001D03*
%TO.P,J1,2*%
%TO.N,/D+*%
X99568000Y-54888000D03*
%TO.P,J1,3*%
%TO.N,/D-*%
X99568000Y-55388002D03*
%TO.P,J1,4*%
%TO.N,GND*%
X99568000Y-55888001D03*
%TO.P,J1,5*%
%TO.N,+5V*%
X99568000Y-56388000D03*
%TO.P,J1,6*%
X99568000Y-56888001D03*
%TO.P,J1,7*%
%TO.N,GND*%
X99568000Y-57388001D03*
%TO.P,J1,8*%
%TO.N,/Annode*%
X99568000Y-57888002D03*
%TO.P,J1,9*%
%TO.N,/G*%
X99568000Y-58388001D03*
%TO.P,J1,10*%
%TO.N,/R*%
X99568000Y-58888000D03*
%TO.P,J1,11*%
%TO.N,/B*%
X99568000Y-59388002D03*
%TO.P,J1,12*%
%TO.N,GND*%
X99568000Y-59888001D03*
D13*
%TO.P,J1,13*%
%TO.N,N/C*%
X96918000Y-53598000D03*
%TO.P,J1,14*%
X96918000Y-60678002D03*
%TD*%
D14*
%TO.P,D1,1*%
%TO.N,/Annode*%
X109110000Y-72240000D03*
D15*
%TO.P,D1,2*%
X107960000Y-71940000D03*
%TO.P,D1,3*%
%TO.N,/G*%
X107060000Y-71940000D03*
%TO.P,D1,4*%
%TO.N,/R*%
X106160000Y-71940000D03*
%TO.P,D1,5*%
%TO.N,/B*%
X105260000Y-71940000D03*
%TO.P,D1,6*%
%TO.N,/Annode*%
X104360000Y-71940000D03*
D14*
%TO.P,D1,7*%
X103210000Y-72240000D03*
%TD*%
%TO.P,R1,1*%
%TO.N,Net-(J2-PadB5)*%
%TA.AperFunction,SMDPad,CuDef*%
G36*
G01*
X106677000Y-53958500D02*
X106677000Y-53483500D01*
G75*
G02*
X106914500Y-53246000I237500J0D01*
G01*
X107414500Y-53246000D01*
G75*
G02*
X107652000Y-53483500I0J-237500D01*
G01*
X107652000Y-53958500D01*
G75*
G02*
X107414500Y-54196000I-237500J0D01*
G01*
X106914500Y-54196000D01*
G75*
G02*
X106677000Y-53958500I0J237500D01*
G01*
G37*
%TD.AperFunction*%
%TO.P,R1,2*%
%TO.N,GND*%
%TA.AperFunction,SMDPad,CuDef*%
G36*
G01*
X108502000Y-53958500D02*
X108502000Y-53483500D01*
G75*
G02*
X108739500Y-53246000I237500J0D01*
G01*
X109239500Y-53246000D01*
G75*
G02*
X109477000Y-53483500I0J-237500D01*
G01*
X109477000Y-53958500D01*
G75*
G02*
X109239500Y-54196000I-237500J0D01*
G01*
X108739500Y-54196000D01*
G75*
G02*
X108502000Y-53958500I0J237500D01*
G01*
G37*
%TD.AperFunction*%
%TD*%
D16*
%TO.N,+5V*%
X100457000Y-56642000D03*
%TO.N,GND*%
X98560001Y-55888001D03*
X98567999Y-57388001D03*
X98933000Y-59880500D03*
X100330000Y-55880000D03*
X102362000Y-63754000D03*
X102362000Y-67310000D03*
X102489000Y-69977000D03*
X103790000Y-70250000D03*
X108230000Y-69810000D03*
X104648000Y-65024000D03*
X104775000Y-62484000D03*
X109220000Y-60452000D03*
X109347000Y-55880000D03*
X109474000Y-54737000D03*
X103505000Y-54483000D03*
X112014000Y-53848000D03*
X103378000Y-60452000D03*
X106299000Y-60960000D03*
%TO.N,/D+*%
X106782810Y-56285190D03*
%TO.N,/D-*%
X106323190Y-56744810D03*
%TO.N,Net-(J2-PadB5)*%
X107188000Y-54483000D03*
%TO.N,Net-(J2-PadA5)*%
X105410000Y-54483000D03*
%TO.N,/Annode*%
X100838000Y-58102500D03*
X103210000Y-72240000D03*
X109110000Y-72240000D03*
%TD*%
D17*
%TO.N,+5V*%
X99568000Y-56642000D02*
X100457000Y-56642000D01*
X99568000Y-56388000D02*
X99568000Y-56642000D01*
X99568000Y-56642000D02*
X99568000Y-56888001D01*
%TO.N,/G*%
X100209687Y-58388001D02*
X103759000Y-61937314D01*
X99568000Y-58388001D02*
X100209687Y-58388001D01*
X107072000Y-70846000D02*
X107072000Y-72136000D01*
X103759000Y-67533000D02*
X107072000Y-70846000D01*
X103759000Y-61937314D02*
X103759000Y-67533000D01*
%TO.N,/R*%
X100179342Y-58888000D02*
X103314500Y-62023158D01*
X99568000Y-58888000D02*
X100179342Y-58888000D01*
X106172000Y-70846000D02*
X106172000Y-72136000D01*
X103314500Y-67988500D02*
X106172000Y-70846000D01*
X103314500Y-62023158D02*
X103314500Y-67988500D01*
%TO.N,/B*%
X99568001Y-59388001D02*
X99568000Y-59388002D01*
X100149000Y-59388002D02*
X102870000Y-62109002D01*
X99568000Y-59388002D02*
X100149000Y-59388002D01*
X105272000Y-70846000D02*
X105272000Y-72136000D01*
X102870000Y-68444000D02*
X105272000Y-70846000D01*
X102870000Y-62109002D02*
X102870000Y-68444000D01*
%TO.N,GND*%
X99568000Y-55888001D02*
X98560001Y-55888001D01*
X99568000Y-57388001D02*
X98567999Y-57388001D01*
X99568000Y-54388001D02*
X99568000Y-54356000D01*
X98560001Y-55888001D02*
X98560001Y-55888001D01*
X98567999Y-57388001D02*
X98567999Y-57388001D01*
X98940501Y-59888001D02*
X98933000Y-59880500D01*
X99568000Y-59888001D02*
X98940501Y-59888001D01*
X100321999Y-55888001D02*
X100330000Y-55880000D01*
X99568000Y-55888001D02*
X100321999Y-55888001D01*
X99568000Y-54388001D02*
X99568000Y-54102000D01*
%TO.N,/D+*%
X99615201Y-54935201D02*
X99568000Y-54888000D01*
X106641389Y-56285190D02*
X106782810Y-56285190D01*
X100139501Y-54888000D02*
X100164502Y-54913001D01*
X99568000Y-54888000D02*
X100139501Y-54888000D01*
X100164502Y-54913001D02*
X100760701Y-54913001D01*
X100760701Y-54913001D02*
X101502700Y-55655000D01*
X101502700Y-55655000D02*
X106011199Y-55655000D01*
X106011199Y-55655000D02*
X106641389Y-56285190D01*
%TO.N,/D-*%
X106323190Y-56603389D02*
X106323190Y-56744810D01*
X105824801Y-56105000D02*
X106323190Y-56603389D01*
X101316300Y-56105000D02*
X105824801Y-56105000D01*
X100574301Y-55363001D02*
X101316300Y-56105000D01*
X100164502Y-55363001D02*
X100574301Y-55363001D01*
X99568000Y-55388002D02*
X100139501Y-55388002D01*
X100139501Y-55388002D02*
X100164502Y-55363001D01*
%TO.N,Net-(J2-PadB5)*%
X107188000Y-53744500D02*
X107164500Y-53721000D01*
X107188000Y-54483000D02*
X107188000Y-53744500D01*
%TO.N,Net-(J2-PadA5)*%
X105029000Y-53490500D02*
X105179500Y-53340000D01*
X105410000Y-53744500D02*
X105433500Y-53721000D01*
X105410000Y-54483000D02*
X105410000Y-53744500D01*
%TO.N,/Annode*%
X100623502Y-57888002D02*
X100838000Y-58102500D01*
X99568000Y-57888002D02*
X100623502Y-57888002D01*
X104060000Y-72240000D02*
X104360000Y-71940000D01*
X103210000Y-72240000D02*
X103210000Y-72240000D01*
X108260000Y-72240000D02*
X107960000Y-71940000D01*
X109110000Y-72240000D02*
X109110000Y-72240000D01*
X103210000Y-72240000D02*
X104060000Y-72240000D01*
X109110000Y-72240000D02*
X108260000Y-72240000D01*
%TD*%
D18*
%TO.N,GND*%
X113392000Y-61830000D02*
X110509647Y-61830000D01*
X110490000Y-61828065D01*
X110470354Y-61830000D01*
X110470353Y-61830000D01*
X110411586Y-61835788D01*
X110336186Y-61858660D01*
X110266697Y-61895803D01*
X110205789Y-61945789D01*
X110155803Y-62006697D01*
X110118660Y-62076186D01*
X110095788Y-62151586D01*
X110088065Y-62230000D01*
X110090001Y-62249657D01*
X110090000Y-73514000D01*
X102254000Y-73514000D01*
X102254000Y-62249646D01*
X102255935Y-62230000D01*
X102249018Y-62159771D01*
X102395000Y-62305753D01*
X102395001Y-68420658D01*
X102392702Y-68444000D01*
X102401873Y-68537116D01*
X102429035Y-68626654D01*
X102473142Y-68709173D01*
X102532500Y-68781501D01*
X102550629Y-68796379D01*
X104227435Y-70473186D01*
X104060000Y-70473186D01*
X103986487Y-70480426D01*
X103915800Y-70501869D01*
X103850653Y-70536691D01*
X103793552Y-70583552D01*
X103746691Y-70640653D01*
X103711869Y-70705800D01*
X103690426Y-70776487D01*
X103683186Y-70850000D01*
X103683186Y-71073186D01*
X102680000Y-71073186D01*
X102606487Y-71080426D01*
X102535800Y-71101869D01*
X102470653Y-71136691D01*
X102413552Y-71183552D01*
X102366691Y-71240653D01*
X102331869Y-71305800D01*
X102310426Y-71376487D01*
X102303186Y-71450000D01*
X102303186Y-73030000D01*
X102310426Y-73103513D01*
X102331869Y-73174200D01*
X102366691Y-73239347D01*
X102413552Y-73296448D01*
X102470653Y-73343309D01*
X102535800Y-73378131D01*
X102606487Y-73399574D01*
X102680000Y-73406814D01*
X103740000Y-73406814D01*
X103813513Y-73399574D01*
X103884200Y-73378131D01*
X103900000Y-73369686D01*
X103915800Y-73378131D01*
X103986487Y-73399574D01*
X104060000Y-73406814D01*
X104660000Y-73406814D01*
X104733513Y-73399574D01*
X104804200Y-73378131D01*
X104810000Y-73375031D01*
X104815800Y-73378131D01*
X104886487Y-73399574D01*
X104960000Y-73406814D01*
X105560000Y-73406814D01*
X105633513Y-73399574D01*
X105704200Y-73378131D01*
X105710000Y-73375031D01*
X105715800Y-73378131D01*
X105786487Y-73399574D01*
X105860000Y-73406814D01*
X106460000Y-73406814D01*
X106533513Y-73399574D01*
X106604200Y-73378131D01*
X106610000Y-73375031D01*
X106615800Y-73378131D01*
X106686487Y-73399574D01*
X106760000Y-73406814D01*
X107360000Y-73406814D01*
X107433513Y-73399574D01*
X107504200Y-73378131D01*
X107510000Y-73375031D01*
X107515800Y-73378131D01*
X107586487Y-73399574D01*
X107660000Y-73406814D01*
X108260000Y-73406814D01*
X108333513Y-73399574D01*
X108404200Y-73378131D01*
X108420000Y-73369686D01*
X108435800Y-73378131D01*
X108506487Y-73399574D01*
X108580000Y-73406814D01*
X109640000Y-73406814D01*
X109713513Y-73399574D01*
X109784200Y-73378131D01*
X109849347Y-73343309D01*
X109906448Y-73296448D01*
X109953309Y-73239347D01*
X109988131Y-73174200D01*
X110009574Y-73103513D01*
X110016814Y-73030000D01*
X110016814Y-71450000D01*
X110009574Y-71376487D01*
X109988131Y-71305800D01*
X109953309Y-71240653D01*
X109906448Y-71183552D01*
X109849347Y-71136691D01*
X109784200Y-71101869D01*
X109713513Y-71080426D01*
X109640000Y-71073186D01*
X108636814Y-71073186D01*
X108636814Y-70850000D01*
X108629574Y-70776487D01*
X108608131Y-70705800D01*
X108573309Y-70640653D01*
X108526448Y-70583552D01*
X108469347Y-70536691D01*
X108404200Y-70501869D01*
X108333513Y-70480426D01*
X108260000Y-70473186D01*
X107660000Y-70473186D01*
X107586487Y-70480426D01*
X107515800Y-70501869D01*
X107510000Y-70504969D01*
X107504200Y-70501869D01*
X107433513Y-70480426D01*
X107372133Y-70474381D01*
X104234000Y-67336250D01*
X104234000Y-66746311D01*
X104585600Y-66746311D01*
X104585600Y-67073689D01*
X104649468Y-67394775D01*
X104774749Y-67697232D01*
X104956630Y-67969436D01*
X105188121Y-68200927D01*
X105460325Y-68382808D01*
X105762782Y-68508089D01*
X106083868Y-68571957D01*
X106411246Y-68571957D01*
X106732332Y-68508089D01*
X107034789Y-68382808D01*
X107306993Y-68200927D01*
X107538484Y-67969436D01*
X107720365Y-67697232D01*
X107845646Y-67394775D01*
X107909514Y-67073689D01*
X107909514Y-66746311D01*
X107845646Y-66425225D01*
X107720365Y-66122768D01*
X107538484Y-65850564D01*
X107306993Y-65619073D01*
X107034789Y-65437192D01*
X106732332Y-65311911D01*
X106411246Y-65248043D01*
X106083868Y-65248043D01*
X105762782Y-65311911D01*
X105460325Y-65437192D01*
X105188121Y-65619073D01*
X104956630Y-65850564D01*
X104774749Y-66122768D01*
X104649468Y-66425225D01*
X104585600Y-66746311D01*
X104234000Y-66746311D01*
X104234000Y-61960646D01*
X104236298Y-61937314D01*
X104227127Y-61844198D01*
X104199966Y-61754660D01*
X104155859Y-61672141D01*
X104111374Y-61617936D01*
X104096501Y-61599813D01*
X104078377Y-61584939D01*
X101106921Y-58613485D01*
X101110365Y-58612058D01*
X101204541Y-58549132D01*
X101284632Y-58469041D01*
X101347558Y-58374865D01*
X101390903Y-58270221D01*
X101413000Y-58159133D01*
X101413000Y-58045867D01*
X101390903Y-57934779D01*
X101347558Y-57830135D01*
X101284632Y-57735959D01*
X101204541Y-57655868D01*
X101110365Y-57592942D01*
X101005721Y-57549597D01*
X100945243Y-57537567D01*
X100888675Y-57491143D01*
X100806156Y-57447036D01*
X100716618Y-57419875D01*
X100646834Y-57413002D01*
X100623502Y-57410704D01*
X100600170Y-57413002D01*
X100177976Y-57413002D01*
X100158347Y-57396893D01*
X100154910Y-57395056D01*
X102709000Y-57395056D01*
X102709000Y-57532944D01*
X102735901Y-57668182D01*
X102788668Y-57795574D01*
X102865274Y-57910224D01*
X102962776Y-58007726D01*
X103077426Y-58084332D01*
X103204818Y-58137099D01*
X103340056Y-58164000D01*
X103477944Y-58164000D01*
X103613182Y-58137099D01*
X103740574Y-58084332D01*
X103855224Y-58007726D01*
X103952726Y-57910224D01*
X104029332Y-57795574D01*
X104082099Y-57668182D01*
X104109000Y-57532944D01*
X104109000Y-57395056D01*
X108489000Y-57395056D01*
X108489000Y-57532944D01*
X108515901Y-57668182D01*
X108568668Y-57795574D01*
X108645274Y-57910224D01*
X108742776Y-58007726D01*
X108857426Y-58084332D01*
X108984818Y-58137099D01*
X109120056Y-58164000D01*
X109257944Y-58164000D01*
X109393182Y-58137099D01*
X109520574Y-58084332D01*
X109635224Y-58007726D01*
X109732726Y-57910224D01*
X109809332Y-57795574D01*
X109862099Y-57668182D01*
X109889000Y-57532944D01*
X109889000Y-57395056D01*
X109862099Y-57259818D01*
X109809332Y-57132426D01*
X109732726Y-57017776D01*
X109635224Y-56920274D01*
X109520574Y-56843668D01*
X109393182Y-56790901D01*
X109257944Y-56764000D01*
X109120056Y-56764000D01*
X108984818Y-56790901D01*
X108857426Y-56843668D01*
X108742776Y-56920274D01*
X108645274Y-57017776D01*
X108568668Y-57132426D01*
X108515901Y-57259818D01*
X108489000Y-57395056D01*
X104109000Y-57395056D01*
X104082099Y-57259818D01*
X104029332Y-57132426D01*
X103952726Y-57017776D01*
X103855224Y-56920274D01*
X103740574Y-56843668D01*
X103613182Y-56790901D01*
X103477944Y-56764000D01*
X103340056Y-56764000D01*
X103204818Y-56790901D01*
X103077426Y-56843668D01*
X102962776Y-56920274D01*
X102865274Y-57017776D01*
X102788668Y-57132426D01*
X102735901Y-57259818D01*
X102709000Y-57395056D01*
X100154910Y-57395056D01*
X100141712Y-57388002D01*
X100158347Y-57379110D01*
X100215448Y-57332249D01*
X100262309Y-57275148D01*
X100297131Y-57210001D01*
X100301004Y-57197235D01*
X100400367Y-57217000D01*
X100513633Y-57217000D01*
X100624721Y-57194903D01*
X100729365Y-57151558D01*
X100823541Y-57088632D01*
X100903632Y-57008541D01*
X100966558Y-56914365D01*
X101009903Y-56809721D01*
X101032000Y-56698633D01*
X101032000Y-56585367D01*
X101009903Y-56474279D01*
X101005980Y-56464808D01*
X101051127Y-56501859D01*
X101133646Y-56545966D01*
X101196022Y-56564888D01*
X101223183Y-56573127D01*
X101316299Y-56582298D01*
X101339632Y-56580000D01*
X105628051Y-56580000D01*
X105748190Y-56700140D01*
X105748190Y-56801443D01*
X105770287Y-56912531D01*
X105813632Y-57017175D01*
X105876558Y-57111351D01*
X105956649Y-57191442D01*
X106050825Y-57254368D01*
X106155469Y-57297713D01*
X106266557Y-57319810D01*
X106379823Y-57319810D01*
X106490911Y-57297713D01*
X106595555Y-57254368D01*
X106689731Y-57191442D01*
X106769822Y-57111351D01*
X106832748Y-57017175D01*
X106876093Y-56912531D01*
X106888443Y-56850443D01*
X106950531Y-56838093D01*
X107055175Y-56794748D01*
X107149351Y-56731822D01*
X107229442Y-56651731D01*
X107292368Y-56557555D01*
X107335713Y-56452911D01*
X107357810Y-56341823D01*
X107357810Y-56228557D01*
X107335713Y-56117469D01*
X107292368Y-56012825D01*
X107229442Y-55918649D01*
X107149351Y-55838558D01*
X107055175Y-55775632D01*
X106950531Y-55732287D01*
X106839443Y-55710190D01*
X106738140Y-55710190D01*
X106363583Y-55335634D01*
X106348700Y-55317499D01*
X106276372Y-55258141D01*
X106193853Y-55214034D01*
X106104315Y-55186873D01*
X106011199Y-55177702D01*
X105987867Y-55180000D01*
X101699451Y-55180000D01*
X101113085Y-54593635D01*
X101098202Y-54575500D01*
X101025874Y-54516142D01*
X100943355Y-54472035D01*
X100853817Y-54444874D01*
X100784033Y-54438001D01*
X100760701Y-54435703D01*
X100737369Y-54438001D01*
X100292377Y-54438001D01*
X100232617Y-54419873D01*
X100180041Y-54414695D01*
X100158347Y-54396891D01*
X100093200Y-54362069D01*
X100022513Y-54340626D01*
X99949000Y-54333386D01*
X99187000Y-54333386D01*
X99113487Y-54340626D01*
X99042800Y-54362069D01*
X98977653Y-54396891D01*
X98920552Y-54443752D01*
X98873691Y-54500853D01*
X98838869Y-54566000D01*
X98817426Y-54636687D01*
X98810186Y-54710200D01*
X98810186Y-55065800D01*
X98817297Y-55138001D01*
X98810186Y-55210202D01*
X98810186Y-55565802D01*
X98817426Y-55639315D01*
X98838869Y-55710002D01*
X98873691Y-55775149D01*
X98920552Y-55832250D01*
X98977653Y-55879111D01*
X98994285Y-55888001D01*
X98977653Y-55896891D01*
X98920552Y-55943752D01*
X98873691Y-56000853D01*
X98838869Y-56066000D01*
X98817426Y-56136687D01*
X98810186Y-56210200D01*
X98810186Y-56565800D01*
X98817297Y-56638001D01*
X98810186Y-56710201D01*
X98810186Y-57065801D01*
X98817426Y-57139314D01*
X98838869Y-57210001D01*
X98873691Y-57275148D01*
X98920552Y-57332249D01*
X98977653Y-57379110D01*
X98994288Y-57388002D01*
X98977653Y-57396893D01*
X98920552Y-57443754D01*
X98873691Y-57500855D01*
X98838869Y-57566002D01*
X98817426Y-57636689D01*
X98810186Y-57710202D01*
X98810186Y-58065802D01*
X98817297Y-58138002D01*
X98810186Y-58210201D01*
X98810186Y-58565801D01*
X98817297Y-58638000D01*
X98810186Y-58710200D01*
X98810186Y-59065800D01*
X98817297Y-59138001D01*
X98810186Y-59210202D01*
X98810186Y-59565802D01*
X98817426Y-59639315D01*
X98838869Y-59710002D01*
X98873691Y-59775149D01*
X98920552Y-59832250D01*
X98977653Y-59879111D01*
X99042800Y-59913933D01*
X99113487Y-59935376D01*
X99187000Y-59942616D01*
X99949000Y-59942616D01*
X100022513Y-59935376D01*
X100024133Y-59934885D01*
X101924229Y-61834982D01*
X101873647Y-61830000D01*
X101873646Y-61830000D01*
X101854000Y-61828065D01*
X101834353Y-61830000D01*
X96158000Y-61830000D01*
X96158000Y-61144530D01*
X96187953Y-61169111D01*
X96253100Y-61203933D01*
X96323787Y-61225376D01*
X96397300Y-61232616D01*
X97438700Y-61232616D01*
X97512213Y-61225376D01*
X97582900Y-61203933D01*
X97648047Y-61169111D01*
X97705148Y-61122250D01*
X97752009Y-61065149D01*
X97786831Y-61000002D01*
X97808274Y-60929315D01*
X97815514Y-60855802D01*
X97815514Y-60500202D01*
X97808274Y-60426689D01*
X97786831Y-60356002D01*
X97752009Y-60290855D01*
X97705148Y-60233754D01*
X97648047Y-60186893D01*
X97582900Y-60152071D01*
X97512213Y-60130628D01*
X97438700Y-60123388D01*
X96397300Y-60123388D01*
X96323787Y-60130628D01*
X96253100Y-60152071D01*
X96187953Y-60186893D01*
X96158000Y-60211474D01*
X96158000Y-54064528D01*
X96187953Y-54089109D01*
X96253100Y-54123931D01*
X96323787Y-54145374D01*
X96397300Y-54152614D01*
X97438700Y-54152614D01*
X97512213Y-54145374D01*
X97582900Y-54123931D01*
X97648047Y-54089109D01*
X97705148Y-54042248D01*
X97752009Y-53985147D01*
X97786831Y-53920000D01*
X97808274Y-53849313D01*
X97815514Y-53775800D01*
X97815514Y-53490500D01*
X104551702Y-53490500D01*
X104560873Y-53583616D01*
X104569186Y-53611019D01*
X104569186Y-53958500D01*
X104580990Y-54078347D01*
X104615948Y-54193588D01*
X104672717Y-54299795D01*
X104749114Y-54392886D01*
X104835000Y-54463370D01*
X104835000Y-54539633D01*
X104857097Y-54650721D01*
X104900442Y-54755365D01*
X104963368Y-54849541D01*
X105043459Y-54929632D01*
X105137635Y-54992558D01*
X105242279Y-55035903D01*
X105353367Y-55058000D01*
X105466633Y-55058000D01*
X105577721Y-55035903D01*
X105682365Y-54992558D01*
X105776541Y-54929632D01*
X105856632Y-54849541D01*
X105919558Y-54755365D01*
X105962903Y-54650721D01*
X105985000Y-54539633D01*
X105985000Y-54490554D01*
X106024795Y-54469283D01*
X106117886Y-54392886D01*
X106194283Y-54299795D01*
X106251052Y-54193588D01*
X106286010Y-54078347D01*
X106297814Y-53958500D01*
X106297814Y-53483500D01*
X106300186Y-53483500D01*
X106300186Y-53958500D01*
X106311990Y-54078347D01*
X106346948Y-54193588D01*
X106403717Y-54299795D01*
X106480114Y-54392886D01*
X106573205Y-54469283D01*
X106613000Y-54490554D01*
X106613000Y-54539633D01*
X106635097Y-54650721D01*
X106678442Y-54755365D01*
X106741368Y-54849541D01*
X106821459Y-54929632D01*
X106915635Y-54992558D01*
X107020279Y-55035903D01*
X107131367Y-55058000D01*
X107244633Y-55058000D01*
X107355721Y-55035903D01*
X107460365Y-54992558D01*
X107554541Y-54929632D01*
X107634632Y-54849541D01*
X107697558Y-54755365D01*
X107740903Y-54650721D01*
X107763000Y-54539633D01*
X107763000Y-54463370D01*
X107848886Y-54392886D01*
X107925283Y-54299795D01*
X107982052Y-54193588D01*
X108017010Y-54078347D01*
X108028814Y-53958500D01*
X108028814Y-53483500D01*
X108017010Y-53363653D01*
X107982052Y-53248412D01*
X107925283Y-53142205D01*
X107848886Y-53049114D01*
X107755795Y-52972717D01*
X107649588Y-52915948D01*
X107534347Y-52880990D01*
X107414500Y-52869186D01*
X106914500Y-52869186D01*
X106794653Y-52880990D01*
X106679412Y-52915948D01*
X106573205Y-52972717D01*
X106480114Y-53049114D01*
X106403717Y-53142205D01*
X106346948Y-53248412D01*
X106311990Y-53363653D01*
X106300186Y-53483500D01*
X106297814Y-53483500D01*
X106286010Y-53363653D01*
X106251052Y-53248412D01*
X106194283Y-53142205D01*
X106117886Y-53049114D01*
X106024795Y-52972717D01*
X105918588Y-52915948D01*
X105803347Y-52880990D01*
X105683500Y-52869186D01*
X105245333Y-52869186D01*
X105179499Y-52862702D01*
X105086383Y-52871873D01*
X104996846Y-52899035D01*
X104987240Y-52904170D01*
X104948412Y-52915948D01*
X104842205Y-52972717D01*
X104749114Y-53049114D01*
X104672717Y-53142205D01*
X104615948Y-53248412D01*
X104610889Y-53265090D01*
X104588035Y-53307846D01*
X104560873Y-53397384D01*
X104551702Y-53490500D01*
X97815514Y-53490500D01*
X97815514Y-53420200D01*
X97808274Y-53346687D01*
X97786831Y-53276000D01*
X97752009Y-53210853D01*
X97705148Y-53153752D01*
X97648047Y-53106891D01*
X97582900Y-53072069D01*
X97512213Y-53050626D01*
X97438700Y-53043386D01*
X96397300Y-53043386D01*
X96323787Y-53050626D01*
X96253100Y-53072069D01*
X96187953Y-53106891D01*
X96158000Y-53131472D01*
X96158000Y-52724000D01*
X113392001Y-52724000D01*
X113392000Y-61830000D01*
%TA.AperFunction,Conductor*%
D19*
G36*
X113392000Y-61830000D02*
G01*
X110509647Y-61830000D01*
X110490000Y-61828065D01*
X110470354Y-61830000D01*
X110470353Y-61830000D01*
X110411586Y-61835788D01*
X110336186Y-61858660D01*
X110266697Y-61895803D01*
X110205789Y-61945789D01*
X110155803Y-62006697D01*
X110118660Y-62076186D01*
X110095788Y-62151586D01*
X110088065Y-62230000D01*
X110090001Y-62249657D01*
X110090000Y-73514000D01*
X102254000Y-73514000D01*
X102254000Y-62249646D01*
X102255935Y-62230000D01*
X102249018Y-62159771D01*
X102395000Y-62305753D01*
X102395001Y-68420658D01*
X102392702Y-68444000D01*
X102401873Y-68537116D01*
X102429035Y-68626654D01*
X102473142Y-68709173D01*
X102532500Y-68781501D01*
X102550629Y-68796379D01*
X104227435Y-70473186D01*
X104060000Y-70473186D01*
X103986487Y-70480426D01*
X103915800Y-70501869D01*
X103850653Y-70536691D01*
X103793552Y-70583552D01*
X103746691Y-70640653D01*
X103711869Y-70705800D01*
X103690426Y-70776487D01*
X103683186Y-70850000D01*
X103683186Y-71073186D01*
X102680000Y-71073186D01*
X102606487Y-71080426D01*
X102535800Y-71101869D01*
X102470653Y-71136691D01*
X102413552Y-71183552D01*
X102366691Y-71240653D01*
X102331869Y-71305800D01*
X102310426Y-71376487D01*
X102303186Y-71450000D01*
X102303186Y-73030000D01*
X102310426Y-73103513D01*
X102331869Y-73174200D01*
X102366691Y-73239347D01*
X102413552Y-73296448D01*
X102470653Y-73343309D01*
X102535800Y-73378131D01*
X102606487Y-73399574D01*
X102680000Y-73406814D01*
X103740000Y-73406814D01*
X103813513Y-73399574D01*
X103884200Y-73378131D01*
X103900000Y-73369686D01*
X103915800Y-73378131D01*
X103986487Y-73399574D01*
X104060000Y-73406814D01*
X104660000Y-73406814D01*
X104733513Y-73399574D01*
X104804200Y-73378131D01*
X104810000Y-73375031D01*
X104815800Y-73378131D01*
X104886487Y-73399574D01*
X104960000Y-73406814D01*
X105560000Y-73406814D01*
X105633513Y-73399574D01*
X105704200Y-73378131D01*
X105710000Y-73375031D01*
X105715800Y-73378131D01*
X105786487Y-73399574D01*
X105860000Y-73406814D01*
X106460000Y-73406814D01*
X106533513Y-73399574D01*
X106604200Y-73378131D01*
X106610000Y-73375031D01*
X106615800Y-73378131D01*
X106686487Y-73399574D01*
X106760000Y-73406814D01*
X107360000Y-73406814D01*
X107433513Y-73399574D01*
X107504200Y-73378131D01*
X107510000Y-73375031D01*
X107515800Y-73378131D01*
X107586487Y-73399574D01*
X107660000Y-73406814D01*
X108260000Y-73406814D01*
X108333513Y-73399574D01*
X108404200Y-73378131D01*
X108420000Y-73369686D01*
X108435800Y-73378131D01*
X108506487Y-73399574D01*
X108580000Y-73406814D01*
X109640000Y-73406814D01*
X109713513Y-73399574D01*
X109784200Y-73378131D01*
X109849347Y-73343309D01*
X109906448Y-73296448D01*
X109953309Y-73239347D01*
X109988131Y-73174200D01*
X110009574Y-73103513D01*
X110016814Y-73030000D01*
X110016814Y-71450000D01*
X110009574Y-71376487D01*
X109988131Y-71305800D01*
X109953309Y-71240653D01*
X109906448Y-71183552D01*
X109849347Y-71136691D01*
X109784200Y-71101869D01*
X109713513Y-71080426D01*
X109640000Y-71073186D01*
X108636814Y-71073186D01*
X108636814Y-70850000D01*
X108629574Y-70776487D01*
X108608131Y-70705800D01*
X108573309Y-70640653D01*
X108526448Y-70583552D01*
X108469347Y-70536691D01*
X108404200Y-70501869D01*
X108333513Y-70480426D01*
X108260000Y-70473186D01*
X107660000Y-70473186D01*
X107586487Y-70480426D01*
X107515800Y-70501869D01*
X107510000Y-70504969D01*
X107504200Y-70501869D01*
X107433513Y-70480426D01*
X107372133Y-70474381D01*
X104234000Y-67336250D01*
X104234000Y-66746311D01*
X104585600Y-66746311D01*
X104585600Y-67073689D01*
X104649468Y-67394775D01*
X104774749Y-67697232D01*
X104956630Y-67969436D01*
X105188121Y-68200927D01*
X105460325Y-68382808D01*
X105762782Y-68508089D01*
X106083868Y-68571957D01*
X106411246Y-68571957D01*
X106732332Y-68508089D01*
X107034789Y-68382808D01*
X107306993Y-68200927D01*
X107538484Y-67969436D01*
X107720365Y-67697232D01*
X107845646Y-67394775D01*
X107909514Y-67073689D01*
X107909514Y-66746311D01*
X107845646Y-66425225D01*
X107720365Y-66122768D01*
X107538484Y-65850564D01*
X107306993Y-65619073D01*
X107034789Y-65437192D01*
X106732332Y-65311911D01*
X106411246Y-65248043D01*
X106083868Y-65248043D01*
X105762782Y-65311911D01*
X105460325Y-65437192D01*
X105188121Y-65619073D01*
X104956630Y-65850564D01*
X104774749Y-66122768D01*
X104649468Y-66425225D01*
X104585600Y-66746311D01*
X104234000Y-66746311D01*
X104234000Y-61960646D01*
X104236298Y-61937314D01*
X104227127Y-61844198D01*
X104199966Y-61754660D01*
X104155859Y-61672141D01*
X104111374Y-61617936D01*
X104096501Y-61599813D01*
X104078377Y-61584939D01*
X101106921Y-58613485D01*
X101110365Y-58612058D01*
X101204541Y-58549132D01*
X101284632Y-58469041D01*
X101347558Y-58374865D01*
X101390903Y-58270221D01*
X101413000Y-58159133D01*
X101413000Y-58045867D01*
X101390903Y-57934779D01*
X101347558Y-57830135D01*
X101284632Y-57735959D01*
X101204541Y-57655868D01*
X101110365Y-57592942D01*
X101005721Y-57549597D01*
X100945243Y-57537567D01*
X100888675Y-57491143D01*
X100806156Y-57447036D01*
X100716618Y-57419875D01*
X100646834Y-57413002D01*
X100623502Y-57410704D01*
X100600170Y-57413002D01*
X100177976Y-57413002D01*
X100158347Y-57396893D01*
X100154910Y-57395056D01*
X102709000Y-57395056D01*
X102709000Y-57532944D01*
X102735901Y-57668182D01*
X102788668Y-57795574D01*
X102865274Y-57910224D01*
X102962776Y-58007726D01*
X103077426Y-58084332D01*
X103204818Y-58137099D01*
X103340056Y-58164000D01*
X103477944Y-58164000D01*
X103613182Y-58137099D01*
X103740574Y-58084332D01*
X103855224Y-58007726D01*
X103952726Y-57910224D01*
X104029332Y-57795574D01*
X104082099Y-57668182D01*
X104109000Y-57532944D01*
X104109000Y-57395056D01*
X108489000Y-57395056D01*
X108489000Y-57532944D01*
X108515901Y-57668182D01*
X108568668Y-57795574D01*
X108645274Y-57910224D01*
X108742776Y-58007726D01*
X108857426Y-58084332D01*
X108984818Y-58137099D01*
X109120056Y-58164000D01*
X109257944Y-58164000D01*
X109393182Y-58137099D01*
X109520574Y-58084332D01*
X109635224Y-58007726D01*
X109732726Y-57910224D01*
X109809332Y-57795574D01*
X109862099Y-57668182D01*
X109889000Y-57532944D01*
X109889000Y-57395056D01*
X109862099Y-57259818D01*
X109809332Y-57132426D01*
X109732726Y-57017776D01*
X109635224Y-56920274D01*
X109520574Y-56843668D01*
X109393182Y-56790901D01*
X109257944Y-56764000D01*
X109120056Y-56764000D01*
X108984818Y-56790901D01*
X108857426Y-56843668D01*
X108742776Y-56920274D01*
X108645274Y-57017776D01*
X108568668Y-57132426D01*
X108515901Y-57259818D01*
X108489000Y-57395056D01*
X104109000Y-57395056D01*
X104082099Y-57259818D01*
X104029332Y-57132426D01*
X103952726Y-57017776D01*
X103855224Y-56920274D01*
X103740574Y-56843668D01*
X103613182Y-56790901D01*
X103477944Y-56764000D01*
X103340056Y-56764000D01*
X103204818Y-56790901D01*
X103077426Y-56843668D01*
X102962776Y-56920274D01*
X102865274Y-57017776D01*
X102788668Y-57132426D01*
X102735901Y-57259818D01*
X102709000Y-57395056D01*
X100154910Y-57395056D01*
X100141712Y-57388002D01*
X100158347Y-57379110D01*
X100215448Y-57332249D01*
X100262309Y-57275148D01*
X100297131Y-57210001D01*
X100301004Y-57197235D01*
X100400367Y-57217000D01*
X100513633Y-57217000D01*
X100624721Y-57194903D01*
X100729365Y-57151558D01*
X100823541Y-57088632D01*
X100903632Y-57008541D01*
X100966558Y-56914365D01*
X101009903Y-56809721D01*
X101032000Y-56698633D01*
X101032000Y-56585367D01*
X101009903Y-56474279D01*
X101005980Y-56464808D01*
X101051127Y-56501859D01*
X101133646Y-56545966D01*
X101196022Y-56564888D01*
X101223183Y-56573127D01*
X101316299Y-56582298D01*
X101339632Y-56580000D01*
X105628051Y-56580000D01*
X105748190Y-56700140D01*
X105748190Y-56801443D01*
X105770287Y-56912531D01*
X105813632Y-57017175D01*
X105876558Y-57111351D01*
X105956649Y-57191442D01*
X106050825Y-57254368D01*
X106155469Y-57297713D01*
X106266557Y-57319810D01*
X106379823Y-57319810D01*
X106490911Y-57297713D01*
X106595555Y-57254368D01*
X106689731Y-57191442D01*
X106769822Y-57111351D01*
X106832748Y-57017175D01*
X106876093Y-56912531D01*
X106888443Y-56850443D01*
X106950531Y-56838093D01*
X107055175Y-56794748D01*
X107149351Y-56731822D01*
X107229442Y-56651731D01*
X107292368Y-56557555D01*
X107335713Y-56452911D01*
X107357810Y-56341823D01*
X107357810Y-56228557D01*
X107335713Y-56117469D01*
X107292368Y-56012825D01*
X107229442Y-55918649D01*
X107149351Y-55838558D01*
X107055175Y-55775632D01*
X106950531Y-55732287D01*
X106839443Y-55710190D01*
X106738140Y-55710190D01*
X106363583Y-55335634D01*
X106348700Y-55317499D01*
X106276372Y-55258141D01*
X106193853Y-55214034D01*
X106104315Y-55186873D01*
X106011199Y-55177702D01*
X105987867Y-55180000D01*
X101699451Y-55180000D01*
X101113085Y-54593635D01*
X101098202Y-54575500D01*
X101025874Y-54516142D01*
X100943355Y-54472035D01*
X100853817Y-54444874D01*
X100784033Y-54438001D01*
X100760701Y-54435703D01*
X100737369Y-54438001D01*
X100292377Y-54438001D01*
X100232617Y-54419873D01*
X100180041Y-54414695D01*
X100158347Y-54396891D01*
X100093200Y-54362069D01*
X100022513Y-54340626D01*
X99949000Y-54333386D01*
X99187000Y-54333386D01*
X99113487Y-54340626D01*
X99042800Y-54362069D01*
X98977653Y-54396891D01*
X98920552Y-54443752D01*
X98873691Y-54500853D01*
X98838869Y-54566000D01*
X98817426Y-54636687D01*
X98810186Y-54710200D01*
X98810186Y-55065800D01*
X98817297Y-55138001D01*
X98810186Y-55210202D01*
X98810186Y-55565802D01*
X98817426Y-55639315D01*
X98838869Y-55710002D01*
X98873691Y-55775149D01*
X98920552Y-55832250D01*
X98977653Y-55879111D01*
X98994285Y-55888001D01*
X98977653Y-55896891D01*
X98920552Y-55943752D01*
X98873691Y-56000853D01*
X98838869Y-56066000D01*
X98817426Y-56136687D01*
X98810186Y-56210200D01*
X98810186Y-56565800D01*
X98817297Y-56638001D01*
X98810186Y-56710201D01*
X98810186Y-57065801D01*
X98817426Y-57139314D01*
X98838869Y-57210001D01*
X98873691Y-57275148D01*
X98920552Y-57332249D01*
X98977653Y-57379110D01*
X98994288Y-57388002D01*
X98977653Y-57396893D01*
X98920552Y-57443754D01*
X98873691Y-57500855D01*
X98838869Y-57566002D01*
X98817426Y-57636689D01*
X98810186Y-57710202D01*
X98810186Y-58065802D01*
X98817297Y-58138002D01*
X98810186Y-58210201D01*
X98810186Y-58565801D01*
X98817297Y-58638000D01*
X98810186Y-58710200D01*
X98810186Y-59065800D01*
X98817297Y-59138001D01*
X98810186Y-59210202D01*
X98810186Y-59565802D01*
X98817426Y-59639315D01*
X98838869Y-59710002D01*
X98873691Y-59775149D01*
X98920552Y-59832250D01*
X98977653Y-59879111D01*
X99042800Y-59913933D01*
X99113487Y-59935376D01*
X99187000Y-59942616D01*
X99949000Y-59942616D01*
X100022513Y-59935376D01*
X100024133Y-59934885D01*
X101924229Y-61834982D01*
X101873647Y-61830000D01*
X101873646Y-61830000D01*
X101854000Y-61828065D01*
X101834353Y-61830000D01*
X96158000Y-61830000D01*
X96158000Y-61144530D01*
X96187953Y-61169111D01*
X96253100Y-61203933D01*
X96323787Y-61225376D01*
X96397300Y-61232616D01*
X97438700Y-61232616D01*
X97512213Y-61225376D01*
X97582900Y-61203933D01*
X97648047Y-61169111D01*
X97705148Y-61122250D01*
X97752009Y-61065149D01*
X97786831Y-61000002D01*
X97808274Y-60929315D01*
X97815514Y-60855802D01*
X97815514Y-60500202D01*
X97808274Y-60426689D01*
X97786831Y-60356002D01*
X97752009Y-60290855D01*
X97705148Y-60233754D01*
X97648047Y-60186893D01*
X97582900Y-60152071D01*
X97512213Y-60130628D01*
X97438700Y-60123388D01*
X96397300Y-60123388D01*
X96323787Y-60130628D01*
X96253100Y-60152071D01*
X96187953Y-60186893D01*
X96158000Y-60211474D01*
X96158000Y-54064528D01*
X96187953Y-54089109D01*
X96253100Y-54123931D01*
X96323787Y-54145374D01*
X96397300Y-54152614D01*
X97438700Y-54152614D01*
X97512213Y-54145374D01*
X97582900Y-54123931D01*
X97648047Y-54089109D01*
X97705148Y-54042248D01*
X97752009Y-53985147D01*
X97786831Y-53920000D01*
X97808274Y-53849313D01*
X97815514Y-53775800D01*
X97815514Y-53490500D01*
X104551702Y-53490500D01*
X104560873Y-53583616D01*
X104569186Y-53611019D01*
X104569186Y-53958500D01*
X104580990Y-54078347D01*
X104615948Y-54193588D01*
X104672717Y-54299795D01*
X104749114Y-54392886D01*
X104835000Y-54463370D01*
X104835000Y-54539633D01*
X104857097Y-54650721D01*
X104900442Y-54755365D01*
X104963368Y-54849541D01*
X105043459Y-54929632D01*
X105137635Y-54992558D01*
X105242279Y-55035903D01*
X105353367Y-55058000D01*
X105466633Y-55058000D01*
X105577721Y-55035903D01*
X105682365Y-54992558D01*
X105776541Y-54929632D01*
X105856632Y-54849541D01*
X105919558Y-54755365D01*
X105962903Y-54650721D01*
X105985000Y-54539633D01*
X105985000Y-54490554D01*
X106024795Y-54469283D01*
X106117886Y-54392886D01*
X106194283Y-54299795D01*
X106251052Y-54193588D01*
X106286010Y-54078347D01*
X106297814Y-53958500D01*
X106297814Y-53483500D01*
X106300186Y-53483500D01*
X106300186Y-53958500D01*
X106311990Y-54078347D01*
X106346948Y-54193588D01*
X106403717Y-54299795D01*
X106480114Y-54392886D01*
X106573205Y-54469283D01*
X106613000Y-54490554D01*
X106613000Y-54539633D01*
X106635097Y-54650721D01*
X106678442Y-54755365D01*
X106741368Y-54849541D01*
X106821459Y-54929632D01*
X106915635Y-54992558D01*
X107020279Y-55035903D01*
X107131367Y-55058000D01*
X107244633Y-55058000D01*
X107355721Y-55035903D01*
X107460365Y-54992558D01*
X107554541Y-54929632D01*
X107634632Y-54849541D01*
X107697558Y-54755365D01*
X107740903Y-54650721D01*
X107763000Y-54539633D01*
X107763000Y-54463370D01*
X107848886Y-54392886D01*
X107925283Y-54299795D01*
X107982052Y-54193588D01*
X108017010Y-54078347D01*
X108028814Y-53958500D01*
X108028814Y-53483500D01*
X108017010Y-53363653D01*
X107982052Y-53248412D01*
X107925283Y-53142205D01*
X107848886Y-53049114D01*
X107755795Y-52972717D01*
X107649588Y-52915948D01*
X107534347Y-52880990D01*
X107414500Y-52869186D01*
X106914500Y-52869186D01*
X106794653Y-52880990D01*
X106679412Y-52915948D01*
X106573205Y-52972717D01*
X106480114Y-53049114D01*
X106403717Y-53142205D01*
X106346948Y-53248412D01*
X106311990Y-53363653D01*
X106300186Y-53483500D01*
X106297814Y-53483500D01*
X106286010Y-53363653D01*
X106251052Y-53248412D01*
X106194283Y-53142205D01*
X106117886Y-53049114D01*
X106024795Y-52972717D01*
X105918588Y-52915948D01*
X105803347Y-52880990D01*
X105683500Y-52869186D01*
X105245333Y-52869186D01*
X105179499Y-52862702D01*
X105086383Y-52871873D01*
X104996846Y-52899035D01*
X104987240Y-52904170D01*
X104948412Y-52915948D01*
X104842205Y-52972717D01*
X104749114Y-53049114D01*
X104672717Y-53142205D01*
X104615948Y-53248412D01*
X104610889Y-53265090D01*
X104588035Y-53307846D01*
X104560873Y-53397384D01*
X104551702Y-53490500D01*
X97815514Y-53490500D01*
X97815514Y-53420200D01*
X97808274Y-53346687D01*
X97786831Y-53276000D01*
X97752009Y-53210853D01*
X97705148Y-53153752D01*
X97648047Y-53106891D01*
X97582900Y-53072069D01*
X97512213Y-53050626D01*
X97438700Y-53043386D01*
X96397300Y-53043386D01*
X96323787Y-53050626D01*
X96253100Y-53072069D01*
X96187953Y-53106891D01*
X96158000Y-53131472D01*
X96158000Y-52724000D01*
X113392001Y-52724000D01*
X113392000Y-61830000D01*
G37*
%TD.AperFunction*%
D18*
X100631422Y-56091873D02*
X100624721Y-56089097D01*
X100513633Y-56067000D01*
X100400367Y-56067000D01*
X100303292Y-56086310D01*
X100297131Y-56066000D01*
X100262309Y-56000853D01*
X100215448Y-55943752D01*
X100158347Y-55896891D01*
X100141715Y-55888001D01*
X100158347Y-55879111D01*
X100180041Y-55861307D01*
X100232617Y-55856129D01*
X100292377Y-55838001D01*
X100377551Y-55838001D01*
X100631422Y-56091873D01*
%TA.AperFunction,Conductor*%
D19*
G36*
X100631422Y-56091873D02*
G01*
X100624721Y-56089097D01*
X100513633Y-56067000D01*
X100400367Y-56067000D01*
X100303292Y-56086310D01*
X100297131Y-56066000D01*
X100262309Y-56000853D01*
X100215448Y-55943752D01*
X100158347Y-55896891D01*
X100141715Y-55888001D01*
X100158347Y-55879111D01*
X100180041Y-55861307D01*
X100232617Y-55856129D01*
X100292377Y-55838001D01*
X100377551Y-55838001D01*
X100631422Y-56091873D01*
G37*
%TD.AperFunction*%
%TD*%
M02*
