  0
SECTION
  2
HEADER
  9
$ANGBASE
  50
0.0
  9
$ANGDIR
  70
1
  9
$MEASUREMENT
  70
0
  0
ENDSEC
  0
SECTION
  2
TABLES
  0
TABLE
  2
LTYPE
  70
4
  0
LTYPE
  5
40F
  2
CONTINUOUS
  70
0
  3
Solid line
  72
65
  73
0
  40
0.0
  0
LTYPE
  5
410
  2
DASHDOT
 70
0
  3
Dash Dot ____ _ ____ _
 72
65
 73
4
 40
2.0
 49
1.25
 49
-0.25
 49
0.25
 49
-0.25
  0
LTYPE
  5
411
  2
DASHED
 70
0
  3
Dashed __ __ __ __ __
 72
65
 73
2
 40
0.75
 49
0.5
 49
-0.25
  0
LTYPE
  5
43B
  2
DOTTED
 70
0
  3
Dotted .  .  .  .
 72
65
 73
2
 40
0.2
 49
0.0
 49
-0.2
  0
ENDTAB
  0
TABLE
  2
STYLE
  70
4
  0
STYLE
  2
KICAD
  70
0
  40
0
  41
1
  42
1
  50
0
  71
0
  3
isocp.shx
  0
STYLE
  2
KICADB
  70
0
  40
0
  41
1
  42
1
  50
0
  71
0
  3
isocp.shx
  0
STYLE
  2
KICADI
  70
0
  40
0
  41
1
  42
1
  50
15
  71
0
  3
isocp.shx
  0
STYLE
  2
KICADBI
  70
0
  40
0
  41
1
  42
1
  50
15
  71
0
  3
isocp.shx
  0
ENDTAB
  0
TABLE
  2
LAYER
  70
1
  0
LAYER
  2
BLACK
  70
0
  62
7
  6
CONTINUOUS
  0
ENDTAB
  0
ENDSEC
  0
SECTION
  2
ENTITIES
0
LINE
8
BLACK
6
CONTINUOUS
10
5.09505
20
-2.09902
11
5.09519
21
-2.09903
0
LINE
8
BLACK
6
CONTINUOUS
10
5.09519
20
-2.09903
11
5.09538
21
-2.09909
0
LINE
8
BLACK
6
CONTINUOUS
10
5.09538
20
-2.09909
11
5.09555
21
-2.09918
0
LINE
8
BLACK
6
CONTINUOUS
10
5.09555
20
-2.09918
11
5.0957
21
-2.0993
0
LINE
8
BLACK
6
CONTINUOUS
10
5.0957
20
-2.0993
11
5.09582
21
-2.09945
0
LINE
8
BLACK
6
CONTINUOUS
10
5.09582
20
-2.09945
11
5.09591
21
-2.09962
0
LINE
8
BLACK
6
CONTINUOUS
10
5.09591
20
-2.09962
11
5.09597
21
-2.09981
0
LINE
8
BLACK
6
CONTINUOUS
10
5.09597
20
-2.09981
11
5.09599
21
-2.1
0
LINE
8
BLACK
6
CONTINUOUS
10
5.09599
20
-2.1
11
5.09598
21
-2.10005
0
LINE
8
BLACK
6
CONTINUOUS
10
5.09598
20
-2.10005
11
5.09598
21
-2.53494
0
LINE
8
BLACK
6
CONTINUOUS
10
5.09598
20
-2.53494
11
5.09599
21
-2.53498
0
LINE
8
BLACK
6
CONTINUOUS
10
5.09599
20
-2.53498
11
5.09598
21
-2.53504
0
LINE
8
BLACK
6
CONTINUOUS
10
5.09598
20
-2.53504
11
5.09598
21
-2.53505
0
LINE
8
BLACK
6
CONTINUOUS
10
5.09598
20
-2.53505
11
5.09598
21
-2.53508
0
LINE
8
BLACK
6
CONTINUOUS
10
5.09598
20
-2.53508
11
5.09597
21
-2.53517
0
LINE
8
BLACK
6
CONTINUOUS
10
5.09597
20
-2.53517
11
5.09597
21
-2.53518
0
LINE
8
BLACK
6
CONTINUOUS
10
5.09597
20
-2.53518
11
5.09597
21
-2.53519
0
LINE
8
BLACK
6
CONTINUOUS
10
5.09597
20
-2.53519
11
5.09595
21
-2.53527
0
LINE
8
BLACK
6
CONTINUOUS
10
5.09595
20
-2.53527
11
5.09592
21
-2.53536
0
LINE
8
BLACK
6
CONTINUOUS
10
5.09592
20
-2.53536
11
5.09592
21
-2.53537
0
LINE
8
BLACK
6
CONTINUOUS
10
5.09592
20
-2.53537
11
5.09591
21
-2.53538
0
LINE
8
BLACK
6
CONTINUOUS
10
5.09591
20
-2.53538
11
5.09587
21
-2.53545
0
LINE
8
BLACK
6
CONTINUOUS
10
5.09587
20
-2.53545
11
5.09584
21
-2.53553
0
LINE
8
BLACK
6
CONTINUOUS
10
5.09584
20
-2.53553
11
5.09583
21
-2.53554
0
LINE
8
BLACK
6
CONTINUOUS
10
5.09583
20
-2.53554
11
5.09582
21
-2.53555
0
LINE
8
BLACK
6
CONTINUOUS
10
5.09582
20
-2.53555
11
5.09577
21
-2.53562
0
LINE
8
BLACK
6
CONTINUOUS
10
5.09577
20
-2.53562
11
5.09575
21
-2.53564
0
LINE
8
BLACK
6
CONTINUOUS
10
5.09575
20
-2.53564
11
5.09574
21
-2.53565
0
LINE
8
BLACK
6
CONTINUOUS
10
5.09574
20
-2.53565
11
5.0957
21
-2.5357
0
LINE
8
BLACK
6
CONTINUOUS
10
5.0957
20
-2.5357
11
5.09567
21
-2.53572
0
LINE
8
BLACK
6
CONTINUOUS
10
5.09567
20
-2.53572
11
4.89098
21
-2.75038
0
LINE
8
BLACK
6
CONTINUOUS
10
4.89098
20
-2.75038
11
4.89098
21
-2.96745
0
LINE
8
BLACK
6
CONTINUOUS
10
4.89098
20
-2.96745
11
4.89099
21
-2.9675
0
LINE
8
BLACK
6
CONTINUOUS
10
4.89099
20
-2.9675
11
4.89097
21
-2.96769
0
LINE
8
BLACK
6
CONTINUOUS
10
4.89097
20
-2.96769
11
4.89091
21
-2.96788
0
LINE
8
BLACK
6
CONTINUOUS
10
4.89091
20
-2.96788
11
4.89082
21
-2.96805
0
LINE
8
BLACK
6
CONTINUOUS
10
4.89082
20
-2.96805
11
4.8907
21
-2.9682
0
LINE
8
BLACK
6
CONTINUOUS
10
4.8907
20
-2.9682
11
4.89055
21
-2.96832
0
LINE
8
BLACK
6
CONTINUOUS
10
4.89055
20
-2.96832
11
4.89038
21
-2.96841
0
LINE
8
BLACK
6
CONTINUOUS
10
4.89038
20
-2.96841
11
4.89019
21
-2.96847
0
LINE
8
BLACK
6
CONTINUOUS
10
4.89019
20
-2.96847
11
4.89005
21
-2.96848
0
LINE
8
BLACK
6
CONTINUOUS
10
4.89005
20
-2.96848
11
4.89005
21
-2.96848
0
LINE
8
BLACK
6
CONTINUOUS
10
4.89005
20
-2.96848
11
4.89
21
-2.96849
0
LINE
8
BLACK
6
CONTINUOUS
10
4.89
20
-2.96849
11
4.88995
21
-2.96848
0
LINE
8
BLACK
6
CONTINUOUS
10
4.88995
20
-2.96848
11
4.55255
21
-2.96848
0
LINE
8
BLACK
6
CONTINUOUS
10
4.55255
20
-2.96848
11
4.5525
21
-2.96849
0
LINE
8
BLACK
6
CONTINUOUS
10
4.5525
20
-2.96849
11
4.55231
21
-2.96847
0
LINE
8
BLACK
6
CONTINUOUS
10
4.55231
20
-2.96847
11
4.55212
21
-2.96841
0
LINE
8
BLACK
6
CONTINUOUS
10
4.55212
20
-2.96841
11
4.55195
21
-2.96832
0
LINE
8
BLACK
6
CONTINUOUS
10
4.55195
20
-2.96832
11
4.5518
21
-2.9682
0
LINE
8
BLACK
6
CONTINUOUS
10
4.5518
20
-2.9682
11
4.55168
21
-2.96805
0
LINE
8
BLACK
6
CONTINUOUS
10
4.55168
20
-2.96805
11
4.55159
21
-2.96788
0
LINE
8
BLACK
6
CONTINUOUS
10
4.55159
20
-2.96788
11
4.55153
21
-2.96769
0
LINE
8
BLACK
6
CONTINUOUS
10
4.55153
20
-2.96769
11
4.55151
21
-2.9675
0
LINE
8
BLACK
6
CONTINUOUS
10
4.55151
20
-2.9675
11
4.55152
21
-2.96745
0
LINE
8
BLACK
6
CONTINUOUS
10
4.55152
20
-2.96745
11
4.55152
21
-2.75039
0
LINE
8
BLACK
6
CONTINUOUS
10
4.55152
20
-2.75039
11
4.34708
21
-2.53348
0
LINE
8
BLACK
6
CONTINUOUS
10
4.34708
20
-2.53348
11
4.10005
21
-2.53348
0
LINE
8
BLACK
6
CONTINUOUS
10
4.10005
20
-2.53348
11
4.1
21
-2.53349
0
LINE
8
BLACK
6
CONTINUOUS
10
4.1
20
-2.53349
11
4.09995
21
-2.53348
0
LINE
8
BLACK
6
CONTINUOUS
10
4.09995
20
-2.53348
11
4.09995
21
-2.53348
0
LINE
8
BLACK
6
CONTINUOUS
10
4.09995
20
-2.53348
11
4.09981
21
-2.53347
0
LINE
8
BLACK
6
CONTINUOUS
10
4.09981
20
-2.53347
11
4.09962
21
-2.53341
0
LINE
8
BLACK
6
CONTINUOUS
10
4.09962
20
-2.53341
11
4.09945
21
-2.53332
0
LINE
8
BLACK
6
CONTINUOUS
10
4.09945
20
-2.53332
11
4.0993
21
-2.5332
0
LINE
8
BLACK
6
CONTINUOUS
10
4.0993
20
-2.5332
11
4.09918
21
-2.53305
0
LINE
8
BLACK
6
CONTINUOUS
10
4.09918
20
-2.53305
11
4.09909
21
-2.53288
0
LINE
8
BLACK
6
CONTINUOUS
10
4.09909
20
-2.53288
11
4.09903
21
-2.53269
0
LINE
8
BLACK
6
CONTINUOUS
10
4.09903
20
-2.53269
11
4.09901
21
-2.5325
0
LINE
8
BLACK
6
CONTINUOUS
10
4.09901
20
-2.5325
11
4.09902
21
-2.53245
0
LINE
8
BLACK
6
CONTINUOUS
10
4.09902
20
-2.53245
11
4.09902
21
-2.10005
0
LINE
8
BLACK
6
CONTINUOUS
10
4.09902
20
-2.10005
11
4.09901
21
-2.1
0
LINE
8
BLACK
6
CONTINUOUS
10
4.09901
20
-2.1
11
4.09903
21
-2.09981
0
LINE
8
BLACK
6
CONTINUOUS
10
4.09903
20
-2.09981
11
4.09909
21
-2.09962
0
LINE
8
BLACK
6
CONTINUOUS
10
4.09909
20
-2.09962
11
4.09918
21
-2.09945
0
LINE
8
BLACK
6
CONTINUOUS
10
4.09918
20
-2.09945
11
4.0993
21
-2.0993
0
LINE
8
BLACK
6
CONTINUOUS
10
4.0993
20
-2.0993
11
4.09945
21
-2.09918
0
LINE
8
BLACK
6
CONTINUOUS
10
4.09945
20
-2.09918
11
4.09962
21
-2.09909
0
LINE
8
BLACK
6
CONTINUOUS
10
4.09962
20
-2.09909
11
4.09981
21
-2.09903
0
LINE
8
BLACK
6
CONTINUOUS
10
4.09981
20
-2.09903
11
4.09995
21
-2.09902
0
LINE
8
BLACK
6
CONTINUOUS
10
4.09995
20
-2.09902
11
4.1
21
-2.09901
0
LINE
8
BLACK
6
CONTINUOUS
10
4.1
20
-2.09901
11
4.10005
21
-2.09902
0
LINE
8
BLACK
6
CONTINUOUS
10
4.10005
20
-2.09902
11
5.09495
21
-2.09902
0
LINE
8
BLACK
6
CONTINUOUS
10
5.09495
20
-2.09902
11
5.095
21
-2.09901
0
LINE
8
BLACK
6
CONTINUOUS
10
5.095
20
-2.09901
11
5.09505
21
-2.09902
0
LINE
8
BLACK
6
CONTINUOUS
10
4.10098
20
-2.10098
11
4.10098
21
-2.53152
0
LINE
8
BLACK
6
CONTINUOUS
10
4.10098
20
-2.53152
11
4.34747
21
-2.53152
0
LINE
8
BLACK
6
CONTINUOUS
10
4.34747
20
-2.53152
11
4.34753
21
-2.53151
0
LINE
8
BLACK
6
CONTINUOUS
10
4.34753
20
-2.53151
11
4.34761
21
-2.53152
0
LINE
8
BLACK
6
CONTINUOUS
10
4.34761
20
-2.53152
11
4.34769
21
-2.53153
0
LINE
8
BLACK
6
CONTINUOUS
10
4.34769
20
-2.53153
11
4.34771
21
-2.53153
0
LINE
8
BLACK
6
CONTINUOUS
10
4.34771
20
-2.53153
11
4.34772
21
-2.53154
0
LINE
8
BLACK
6
CONTINUOUS
10
4.34772
20
-2.53154
11
4.3478
21
-2.53156
0
LINE
8
BLACK
6
CONTINUOUS
10
4.3478
20
-2.53156
11
4.34788
21
-2.53159
0
LINE
8
BLACK
6
CONTINUOUS
10
4.34788
20
-2.53159
11
4.34789
21
-2.53159
0
LINE
8
BLACK
6
CONTINUOUS
10
4.34789
20
-2.53159
11
4.34791
21
-2.5316
0
LINE
8
BLACK
6
CONTINUOUS
10
4.34791
20
-2.5316
11
4.34798
21
-2.53164
0
LINE
8
BLACK
6
CONTINUOUS
10
4.34798
20
-2.53164
11
4.34805
21
-2.53168
0
LINE
8
BLACK
6
CONTINUOUS
10
4.34805
20
-2.53168
11
4.34806
21
-2.53169
0
LINE
8
BLACK
6
CONTINUOUS
10
4.34806
20
-2.53169
11
4.34807
21
-2.53169
0
LINE
8
BLACK
6
CONTINUOUS
10
4.34807
20
-2.53169
11
4.34813
21
-2.53175
0
LINE
8
BLACK
6
CONTINUOUS
10
4.34813
20
-2.53175
11
4.3482
21
-2.5318
0
LINE
8
BLACK
6
CONTINUOUS
10
4.3482
20
-2.5318
11
4.34824
21
-2.53185
0
LINE
8
BLACK
6
CONTINUOUS
10
4.34824
20
-2.53185
11
4.55317
21
-2.74928
0
LINE
8
BLACK
6
CONTINUOUS
10
4.55317
20
-2.74928
11
4.5532
21
-2.7493
0
LINE
8
BLACK
6
CONTINUOUS
10
4.5532
20
-2.7493
11
4.55324
21
-2.74935
0
LINE
8
BLACK
6
CONTINUOUS
10
4.55324
20
-2.74935
11
4.55325
21
-2.74936
0
LINE
8
BLACK
6
CONTINUOUS
10
4.55325
20
-2.74936
11
4.55327
21
-2.74939
0
LINE
8
BLACK
6
CONTINUOUS
10
4.55327
20
-2.74939
11
4.55332
21
-2.74945
0
LINE
8
BLACK
6
CONTINUOUS
10
4.55332
20
-2.74945
11
4.55333
21
-2.74946
0
LINE
8
BLACK
6
CONTINUOUS
10
4.55333
20
-2.74946
11
4.55334
21
-2.74948
0
LINE
8
BLACK
6
CONTINUOUS
10
4.55334
20
-2.74948
11
4.55337
21
-2.74955
0
LINE
8
BLACK
6
CONTINUOUS
10
4.55337
20
-2.74955
11
4.55341
21
-2.74962
0
LINE
8
BLACK
6
CONTINUOUS
10
4.55341
20
-2.74962
11
4.55342
21
-2.74964
0
LINE
8
BLACK
6
CONTINUOUS
10
4.55342
20
-2.74964
11
4.55342
21
-2.74965
0
LINE
8
BLACK
6
CONTINUOUS
10
4.55342
20
-2.74965
11
4.55345
21
-2.74973
0
LINE
8
BLACK
6
CONTINUOUS
10
4.55345
20
-2.74973
11
4.55347
21
-2.74981
0
LINE
8
BLACK
6
CONTINUOUS
10
4.55347
20
-2.74981
11
4.55347
21
-2.74982
0
LINE
8
BLACK
6
CONTINUOUS
10
4.55347
20
-2.74982
11
4.55348
21
-2.74984
0
LINE
8
BLACK
6
CONTINUOUS
10
4.55348
20
-2.74984
11
4.55348
21
-2.74992
0
LINE
8
BLACK
6
CONTINUOUS
10
4.55348
20
-2.74992
11
4.55348
21
-2.74995
0
LINE
8
BLACK
6
CONTINUOUS
10
4.55348
20
-2.74995
11
4.55348
21
-2.74997
0
LINE
8
BLACK
6
CONTINUOUS
10
4.55348
20
-2.74997
11
4.55349
21
-2.75003
0
LINE
8
BLACK
6
CONTINUOUS
10
4.55349
20
-2.75003
11
4.55348
21
-2.75006
0
LINE
8
BLACK
6
CONTINUOUS
10
4.55348
20
-2.75006
11
4.55348
21
-2.96652
0
LINE
8
BLACK
6
CONTINUOUS
10
4.55348
20
-2.96652
11
4.88902
21
-2.96652
0
LINE
8
BLACK
6
CONTINUOUS
10
4.88902
20
-2.96652
11
4.88902
21
-2.75005
0
LINE
8
BLACK
6
CONTINUOUS
10
4.88902
20
-2.75005
11
4.88901
21
-2.75001
0
LINE
8
BLACK
6
CONTINUOUS
10
4.88901
20
-2.75001
11
4.88902
21
-2.74995
0
LINE
8
BLACK
6
CONTINUOUS
10
4.88902
20
-2.74995
11
4.88902
21
-2.74994
0
LINE
8
BLACK
6
CONTINUOUS
10
4.88902
20
-2.74994
11
4.88902
21
-2.7499
0
LINE
8
BLACK
6
CONTINUOUS
10
4.88902
20
-2.7499
11
4.88903
21
-2.74982
0
LINE
8
BLACK
6
CONTINUOUS
10
4.88903
20
-2.74982
11
4.88903
21
-2.7498
0
LINE
8
BLACK
6
CONTINUOUS
10
4.88903
20
-2.7498
11
4.88903
21
-2.74979
0
LINE
8
BLACK
6
CONTINUOUS
10
4.88903
20
-2.74979
11
4.88905
21
-2.74971
0
LINE
8
BLACK
6
CONTINUOUS
10
4.88905
20
-2.74971
11
4.88908
21
-2.74963
0
LINE
8
BLACK
6
CONTINUOUS
10
4.88908
20
-2.74963
11
4.88908
21
-2.74962
0
LINE
8
BLACK
6
CONTINUOUS
10
4.88908
20
-2.74962
11
4.88909
21
-2.74961
0
LINE
8
BLACK
6
CONTINUOUS
10
4.88909
20
-2.74961
11
4.88913
21
-2.74953
0
LINE
8
BLACK
6
CONTINUOUS
10
4.88913
20
-2.74953
11
4.88916
21
-2.74946
0
LINE
8
BLACK
6
CONTINUOUS
10
4.88916
20
-2.74946
11
4.88917
21
-2.74945
0
LINE
8
BLACK
6
CONTINUOUS
10
4.88917
20
-2.74945
11
4.88918
21
-2.74944
0
LINE
8
BLACK
6
CONTINUOUS
10
4.88918
20
-2.74944
11
4.88923
21
-2.74937
0
LINE
8
BLACK
6
CONTINUOUS
10
4.88923
20
-2.74937
11
4.88925
21
-2.74934
0
LINE
8
BLACK
6
CONTINUOUS
10
4.88925
20
-2.74934
11
4.88926
21
-2.74933
0
LINE
8
BLACK
6
CONTINUOUS
10
4.88926
20
-2.74933
11
4.8893
21
-2.74929
0
LINE
8
BLACK
6
CONTINUOUS
10
4.8893
20
-2.74929
11
4.88933
21
-2.74926
0
LINE
8
BLACK
6
CONTINUOUS
10
4.88933
20
-2.74926
11
5.09402
21
-2.53461
0
LINE
8
BLACK
6
CONTINUOUS
10
5.09402
20
-2.53461
11
5.09402
21
-2.10098
0
LINE
8
BLACK
6
CONTINUOUS
10
5.09402
20
-2.10098
11
4.10098
21
-2.10098
0
LINE
8
BLACK
6
CONTINUOUS
10
5.02609
20
-2.4116
11
5.02617
21
-2.41163
0
LINE
8
BLACK
6
CONTINUOUS
10
5.02617
20
-2.41163
11
5.02625
21
-2.41167
0
LINE
8
BLACK
6
CONTINUOUS
10
5.02625
20
-2.41167
11
5.03337
21
-2.41546
0
LINE
8
BLACK
6
CONTINUOUS
10
5.03337
20
-2.41546
11
5.03339
21
-2.41546
0
LINE
8
BLACK
6
CONTINUOUS
10
5.03339
20
-2.41546
11
5.03346
21
-2.41551
0
LINE
8
BLACK
6
CONTINUOUS
10
5.03346
20
-2.41551
11
5.03353
21
-2.41556
0
LINE
8
BLACK
6
CONTINUOUS
10
5.03353
20
-2.41556
11
5.03979
21
-2.42066
0
LINE
8
BLACK
6
CONTINUOUS
10
5.03979
20
-2.42066
11
5.0398
21
-2.42067
0
LINE
8
BLACK
6
CONTINUOUS
10
5.0398
20
-2.42067
11
5.03986
21
-2.42073
0
LINE
8
BLACK
6
CONTINUOUS
10
5.03986
20
-2.42073
11
5.03992
21
-2.4208
0
LINE
8
BLACK
6
CONTINUOUS
10
5.03992
20
-2.4208
11
5.04507
21
-2.42701
0
LINE
8
BLACK
6
CONTINUOUS
10
5.04507
20
-2.42701
11
5.04507
21
-2.42702
0
LINE
8
BLACK
6
CONTINUOUS
10
5.04507
20
-2.42702
11
5.04512
21
-2.4271
0
LINE
8
BLACK
6
CONTINUOUS
10
5.04512
20
-2.4271
11
5.04517
21
-2.42717
0
LINE
8
BLACK
6
CONTINUOUS
10
5.04517
20
-2.42717
11
5.04901
21
-2.43427
0
LINE
8
BLACK
6
CONTINUOUS
10
5.04901
20
-2.43427
11
5.04901
21
-2.43427
0
LINE
8
BLACK
6
CONTINUOUS
10
5.04901
20
-2.43427
11
5.04901
21
-2.43427
0
LINE
8
BLACK
6
CONTINUOUS
10
5.04901
20
-2.43427
11
5.04902
21
-2.43428
0
LINE
8
BLACK
6
CONTINUOUS
10
5.04902
20
-2.43428
11
5.04905
21
-2.43437
0
LINE
8
BLACK
6
CONTINUOUS
10
5.04905
20
-2.43437
11
5.04908
21
-2.43445
0
LINE
8
BLACK
6
CONTINUOUS
10
5.04908
20
-2.43445
11
5.05147
21
-2.44215
0
LINE
8
BLACK
6
CONTINUOUS
10
5.05147
20
-2.44215
11
5.05147
21
-2.44217
0
LINE
8
BLACK
6
CONTINUOUS
10
5.05147
20
-2.44217
11
5.05149
21
-2.44226
0
LINE
8
BLACK
6
CONTINUOUS
10
5.05149
20
-2.44226
11
5.05151
21
-2.44234
0
LINE
8
BLACK
6
CONTINUOUS
10
5.05151
20
-2.44234
11
5.05235
21
-2.45037
0
LINE
8
BLACK
6
CONTINUOUS
10
5.05235
20
-2.45037
11
5.05235
21
-2.45038
0
LINE
8
BLACK
6
CONTINUOUS
10
5.05235
20
-2.45038
11
5.05235
21
-2.45047
0
LINE
8
BLACK
6
CONTINUOUS
10
5.05235
20
-2.45047
11
5.05235
21
-2.45056
0
LINE
8
BLACK
6
CONTINUOUS
10
5.05235
20
-2.45056
11
5.05162
21
-2.45859
0
LINE
8
BLACK
6
CONTINUOUS
10
5.05162
20
-2.45859
11
5.05162
21
-2.45861
0
LINE
8
BLACK
6
CONTINUOUS
10
5.05162
20
-2.45861
11
5.0516
21
-2.45869
0
LINE
8
BLACK
6
CONTINUOUS
10
5.0516
20
-2.45869
11
5.05159
21
-2.45878
0
LINE
8
BLACK
6
CONTINUOUS
10
5.05159
20
-2.45878
11
5.04931
21
-2.46652
0
LINE
8
BLACK
6
CONTINUOUS
10
5.04931
20
-2.46652
11
5.0493
21
-2.46653
0
LINE
8
BLACK
6
CONTINUOUS
10
5.0493
20
-2.46653
11
5.04927
21
-2.46662
0
LINE
8
BLACK
6
CONTINUOUS
10
5.04927
20
-2.46662
11
5.04924
21
-2.4667
0
LINE
8
BLACK
6
CONTINUOUS
10
5.04924
20
-2.4667
11
5.0455
21
-2.47385
0
LINE
8
BLACK
6
CONTINUOUS
10
5.0455
20
-2.47385
11
5.0455
21
-2.47385
0
LINE
8
BLACK
6
CONTINUOUS
10
5.0455
20
-2.47385
11
5.0455
21
-2.47385
0
LINE
8
BLACK
6
CONTINUOUS
10
5.0455
20
-2.47385
11
5.04549
21
-2.47386
0
LINE
8
BLACK
6
CONTINUOUS
10
5.04549
20
-2.47386
11
5.04544
21
-2.47394
0
LINE
8
BLACK
6
CONTINUOUS
10
5.04544
20
-2.47394
11
5.04539
21
-2.47401
0
LINE
8
BLACK
6
CONTINUOUS
10
5.04539
20
-2.47401
11
5.04034
21
-2.4803
0
LINE
8
BLACK
6
CONTINUOUS
10
5.04034
20
-2.4803
11
5.04034
21
-2.4803
0
LINE
8
BLACK
6
CONTINUOUS
10
5.04034
20
-2.4803
11
5.04034
21
-2.4803
0
LINE
8
BLACK
6
CONTINUOUS
10
5.04034
20
-2.4803
11
5.04033
21
-2.48031
0
LINE
8
BLACK
6
CONTINUOUS
10
5.04033
20
-2.48031
11
5.04027
21
-2.48037
0
LINE
8
BLACK
6
CONTINUOUS
10
5.04027
20
-2.48037
11
5.0402
21
-2.48043
0
LINE
8
BLACK
6
CONTINUOUS
10
5.0402
20
-2.48043
11
5.03402
21
-2.48562
0
LINE
8
BLACK
6
CONTINUOUS
10
5.03402
20
-2.48562
11
5.03401
21
-2.48563
0
LINE
8
BLACK
6
CONTINUOUS
10
5.03401
20
-2.48563
11
5.03394
21
-2.48568
0
LINE
8
BLACK
6
CONTINUOUS
10
5.03394
20
-2.48568
11
5.03386
21
-2.48573
0
LINE
8
BLACK
6
CONTINUOUS
10
5.03386
20
-2.48573
11
5.02679
21
-2.48961
0
LINE
8
BLACK
6
CONTINUOUS
10
5.02679
20
-2.48961
11
5.02678
21
-2.48962
0
LINE
8
BLACK
6
CONTINUOUS
10
5.02678
20
-2.48962
11
5.0267
21
-2.48966
0
LINE
8
BLACK
6
CONTINUOUS
10
5.0267
20
-2.48966
11
5.02662
21
-2.48969
0
LINE
8
BLACK
6
CONTINUOUS
10
5.02662
20
-2.48969
11
5.01893
21
-2.49213
0
LINE
8
BLACK
6
CONTINUOUS
10
5.01893
20
-2.49213
11
5.01891
21
-2.49213
0
LINE
8
BLACK
6
CONTINUOUS
10
5.01891
20
-2.49213
11
5.01883
21
-2.49215
0
LINE
8
BLACK
6
CONTINUOUS
10
5.01883
20
-2.49215
11
5.01874
21
-2.49217
0
LINE
8
BLACK
6
CONTINUOUS
10
5.01874
20
-2.49217
11
5.01072
21
-2.49307
0
LINE
8
BLACK
6
CONTINUOUS
10
5.01072
20
-2.49307
11
5.01071
21
-2.49307
0
LINE
8
BLACK
6
CONTINUOUS
10
5.01071
20
-2.49307
11
5.01066
21
-2.49307
0
LINE
8
BLACK
6
CONTINUOUS
10
5.01066
20
-2.49307
11
5.01062
21
-2.49308
0
LINE
8
BLACK
6
CONTINUOUS
10
5.01062
20
-2.49308
11
5.01009
21
-2.49308
0
LINE
8
BLACK
6
CONTINUOUS
10
5.01009
20
-2.49308
11
5.01008
21
-2.49308
0
LINE
8
BLACK
6
CONTINUOUS
10
5.01008
20
-2.49308
11
4.96274
21
-2.49308
0
LINE
8
BLACK
6
CONTINUOUS
10
4.96274
20
-2.49308
11
4.9627
21
-2.49307
0
LINE
8
BLACK
6
CONTINUOUS
10
4.9627
20
-2.49307
11
4.9627
21
-2.49307
0
LINE
8
BLACK
6
CONTINUOUS
10
4.9627
20
-2.49307
11
4.95467
21
-2.49229
0
LINE
8
BLACK
6
CONTINUOUS
10
4.95467
20
-2.49229
11
4.95465
21
-2.49229
0
LINE
8
BLACK
6
CONTINUOUS
10
4.95465
20
-2.49229
11
4.95456
21
-2.49227
0
LINE
8
BLACK
6
CONTINUOUS
10
4.95456
20
-2.49227
11
4.95448
21
-2.49225
0
LINE
8
BLACK
6
CONTINUOUS
10
4.95448
20
-2.49225
11
4.94675
21
-2.48992
0
LINE
8
BLACK
6
CONTINUOUS
10
4.94675
20
-2.48992
11
4.94674
21
-2.48991
0
LINE
8
BLACK
6
CONTINUOUS
10
4.94674
20
-2.48991
11
4.94666
21
-2.48988
0
LINE
8
BLACK
6
CONTINUOUS
10
4.94666
20
-2.48988
11
4.94658
21
-2.48985
0
LINE
8
BLACK
6
CONTINUOUS
10
4.94658
20
-2.48985
11
4.93945
21
-2.48606
0
LINE
8
BLACK
6
CONTINUOUS
10
4.93945
20
-2.48606
11
4.93944
21
-2.48605
0
LINE
8
BLACK
6
CONTINUOUS
10
4.93944
20
-2.48605
11
4.93937
21
-2.486
0
LINE
8
BLACK
6
CONTINUOUS
10
4.93937
20
-2.486
11
4.93929
21
-2.48595
0
LINE
8
BLACK
6
CONTINUOUS
10
4.93929
20
-2.48595
11
4.93304
21
-2.48085
0
LINE
8
BLACK
6
CONTINUOUS
10
4.93304
20
-2.48085
11
4.93303
21
-2.48084
0
LINE
8
BLACK
6
CONTINUOUS
10
4.93303
20
-2.48084
11
4.93297
21
-2.48078
0
LINE
8
BLACK
6
CONTINUOUS
10
4.93297
20
-2.48078
11
4.9329
21
-2.48072
0
LINE
8
BLACK
6
CONTINUOUS
10
4.9329
20
-2.48072
11
4.92776
21
-2.4745
0
LINE
8
BLACK
6
CONTINUOUS
10
4.92776
20
-2.4745
11
4.92775
21
-2.47449
0
LINE
8
BLACK
6
CONTINUOUS
10
4.92775
20
-2.47449
11
4.9277
21
-2.47442
0
LINE
8
BLACK
6
CONTINUOUS
10
4.9277
20
-2.47442
11
4.92765
21
-2.47434
0
LINE
8
BLACK
6
CONTINUOUS
10
4.92765
20
-2.47434
11
4.92382
21
-2.46724
0
LINE
8
BLACK
6
CONTINUOUS
10
4.92382
20
-2.46724
11
4.92381
21
-2.46723
0
LINE
8
BLACK
6
CONTINUOUS
10
4.92381
20
-2.46723
11
4.92378
21
-2.46715
0
LINE
8
BLACK
6
CONTINUOUS
10
4.92378
20
-2.46715
11
4.92374
21
-2.46707
0
LINE
8
BLACK
6
CONTINUOUS
10
4.92374
20
-2.46707
11
4.92136
21
-2.45936
0
LINE
8
BLACK
6
CONTINUOUS
10
4.92136
20
-2.45936
11
4.92135
21
-2.45935
0
LINE
8
BLACK
6
CONTINUOUS
10
4.92135
20
-2.45935
11
4.92134
21
-2.45926
0
LINE
8
BLACK
6
CONTINUOUS
10
4.92134
20
-2.45926
11
4.92132
21
-2.45917
0
LINE
8
BLACK
6
CONTINUOUS
10
4.92132
20
-2.45917
11
4.92047
21
-2.45115
0
LINE
8
BLACK
6
CONTINUOUS
10
4.92047
20
-2.45115
11
4.92047
21
-2.45113
0
LINE
8
BLACK
6
CONTINUOUS
10
4.92047
20
-2.45113
11
4.92047
21
-2.45104
0
LINE
8
BLACK
6
CONTINUOUS
10
4.92047
20
-2.45104
11
4.92047
21
-2.45096
0
LINE
8
BLACK
6
CONTINUOUS
10
4.92047
20
-2.45096
11
4.9212
21
-2.44292
0
LINE
8
BLACK
6
CONTINUOUS
10
4.9212
20
-2.44292
11
4.92121
21
-2.44291
0
LINE
8
BLACK
6
CONTINUOUS
10
4.92121
20
-2.44291
11
4.92122
21
-2.44282
0
LINE
8
BLACK
6
CONTINUOUS
10
4.92122
20
-2.44282
11
4.92124
21
-2.44273
0
LINE
8
BLACK
6
CONTINUOUS
10
4.92124
20
-2.44273
11
4.92352
21
-2.43499
0
LINE
8
BLACK
6
CONTINUOUS
10
4.92352
20
-2.43499
11
4.92352
21
-2.43498
0
LINE
8
BLACK
6
CONTINUOUS
10
4.92352
20
-2.43498
11
4.92356
21
-2.4349
0
LINE
8
BLACK
6
CONTINUOUS
10
4.92356
20
-2.4349
11
4.92359
21
-2.43481
0
LINE
8
BLACK
6
CONTINUOUS
10
4.92359
20
-2.43481
11
4.92733
21
-2.42767
0
LINE
8
BLACK
6
CONTINUOUS
10
4.92733
20
-2.42767
11
4.92733
21
-2.42765
0
LINE
8
BLACK
6
CONTINUOUS
10
4.92733
20
-2.42765
11
4.92739
21
-2.42758
0
LINE
8
BLACK
6
CONTINUOUS
10
4.92739
20
-2.42758
11
4.92743
21
-2.4275
0
LINE
8
BLACK
6
CONTINUOUS
10
4.92743
20
-2.4275
11
4.93249
21
-2.42122
0
LINE
8
BLACK
6
CONTINUOUS
10
4.93249
20
-2.42122
11
4.9325
21
-2.42121
0
LINE
8
BLACK
6
CONTINUOUS
10
4.9325
20
-2.42121
11
4.93256
21
-2.42114
0
LINE
8
BLACK
6
CONTINUOUS
10
4.93256
20
-2.42114
11
4.93262
21
-2.42108
0
LINE
8
BLACK
6
CONTINUOUS
10
4.93262
20
-2.42108
11
4.9388
21
-2.41589
0
LINE
8
BLACK
6
CONTINUOUS
10
4.9388
20
-2.41589
11
4.9388
21
-2.41589
0
LINE
8
BLACK
6
CONTINUOUS
10
4.9388
20
-2.41589
11
4.9388
21
-2.41589
0
LINE
8
BLACK
6
CONTINUOUS
10
4.9388
20
-2.41589
11
4.93881
21
-2.41588
0
LINE
8
BLACK
6
CONTINUOUS
10
4.93881
20
-2.41588
11
4.93889
21
-2.41584
0
LINE
8
BLACK
6
CONTINUOUS
10
4.93889
20
-2.41584
11
4.93896
21
-2.41579
0
LINE
8
BLACK
6
CONTINUOUS
10
4.93896
20
-2.41579
11
4.94603
21
-2.4119
0
LINE
8
BLACK
6
CONTINUOUS
10
4.94603
20
-2.4119
11
4.94604
21
-2.41189
0
LINE
8
BLACK
6
CONTINUOUS
10
4.94604
20
-2.41189
11
4.94613
21
-2.41186
0
LINE
8
BLACK
6
CONTINUOUS
10
4.94613
20
-2.41186
11
4.94621
21
-2.41182
0
LINE
8
BLACK
6
CONTINUOUS
10
4.94621
20
-2.41182
11
4.9539
21
-2.40938
0
LINE
8
BLACK
6
CONTINUOUS
10
4.9539
20
-2.40938
11
4.95391
21
-2.40938
0
LINE
8
BLACK
6
CONTINUOUS
10
4.95391
20
-2.40938
11
4.954
21
-2.40936
0
LINE
8
BLACK
6
CONTINUOUS
10
4.954
20
-2.40936
11
4.95409
21
-2.40934
0
LINE
8
BLACK
6
CONTINUOUS
10
4.95409
20
-2.40934
11
4.9621
21
-2.40844
0
LINE
8
BLACK
6
CONTINUOUS
10
4.9621
20
-2.40844
11
4.96212
21
-2.40844
0
LINE
8
BLACK
6
CONTINUOUS
10
4.96212
20
-2.40844
11
4.96216
21
-2.40844
0
LINE
8
BLACK
6
CONTINUOUS
10
4.96216
20
-2.40844
11
4.96221
21
-2.40844
0
LINE
8
BLACK
6
CONTINUOUS
10
4.96221
20
-2.40844
11
4.96274
21
-2.40843
0
LINE
8
BLACK
6
CONTINUOUS
10
4.96274
20
-2.40843
11
4.96274
21
-2.40843
0
LINE
8
BLACK
6
CONTINUOUS
10
4.96274
20
-2.40843
11
5.01008
21
-2.40843
0
LINE
8
BLACK
6
CONTINUOUS
10
5.01008
20
-2.40843
11
5.01013
21
-2.40844
0
LINE
8
BLACK
6
CONTINUOUS
10
5.01013
20
-2.40844
11
5.01013
21
-2.40844
0
LINE
8
BLACK
6
CONTINUOUS
10
5.01013
20
-2.40844
11
5.01816
21
-2.40923
0
LINE
8
BLACK
6
CONTINUOUS
10
5.01816
20
-2.40923
11
5.01817
21
-2.40923
0
LINE
8
BLACK
6
CONTINUOUS
10
5.01817
20
-2.40923
11
5.01826
21
-2.40925
0
LINE
8
BLACK
6
CONTINUOUS
10
5.01826
20
-2.40925
11
5.01835
21
-2.40926
0
LINE
8
BLACK
6
CONTINUOUS
10
5.01835
20
-2.40926
11
5.02607
21
-2.4116
0
LINE
8
BLACK
6
CONTINUOUS
10
5.02607
20
-2.4116
11
5.02607
21
-2.4116
0
LINE
8
BLACK
6
CONTINUOUS
10
5.02607
20
-2.4116
11
5.02609
21
-2.4116
0
LINE
8
BLACK
6
CONTINUOUS
10
4.96279
20
-2.4104
11
4.96227
21
-2.41041
0
LINE
8
BLACK
6
CONTINUOUS
10
4.96227
20
-2.41041
11
4.9544
21
-2.41129
0
LINE
8
BLACK
6
CONTINUOUS
10
4.9544
20
-2.41129
11
4.9469
21
-2.41367
0
LINE
8
BLACK
6
CONTINUOUS
10
4.9469
20
-2.41367
11
4.94
21
-2.41746
0
LINE
8
BLACK
6
CONTINUOUS
10
4.94
20
-2.41746
11
4.93396
21
-2.42253
0
LINE
8
BLACK
6
CONTINUOUS
10
4.93396
20
-2.42253
11
4.92903
21
-2.42866
0
LINE
8
BLACK
6
CONTINUOUS
10
4.92903
20
-2.42866
11
4.92538
21
-2.43564
0
LINE
8
BLACK
6
CONTINUOUS
10
4.92538
20
-2.43564
11
4.92316
21
-2.4432
0
LINE
8
BLACK
6
CONTINUOUS
10
4.92316
20
-2.4432
11
4.92244
21
-2.45104
0
LINE
8
BLACK
6
CONTINUOUS
10
4.92244
20
-2.45104
11
4.92327
21
-2.45887
0
LINE
8
BLACK
6
CONTINUOUS
10
4.92327
20
-2.45887
11
4.92559
21
-2.46639
0
LINE
8
BLACK
6
CONTINUOUS
10
4.92559
20
-2.46639
11
4.92934
21
-2.47332
0
LINE
8
BLACK
6
CONTINUOUS
10
4.92934
20
-2.47332
11
4.93436
21
-2.47939
0
LINE
8
BLACK
6
CONTINUOUS
10
4.93436
20
-2.47939
11
4.94046
21
-2.48436
0
LINE
8
BLACK
6
CONTINUOUS
10
4.94046
20
-2.48436
11
4.94742
21
-2.48806
0
LINE
8
BLACK
6
CONTINUOUS
10
4.94742
20
-2.48806
11
4.95495
21
-2.49034
0
LINE
8
BLACK
6
CONTINUOUS
10
4.95495
20
-2.49034
11
4.96284
21
-2.49111
0
LINE
8
BLACK
6
CONTINUOUS
10
4.96284
20
-2.49111
11
5.01003
21
-2.49111
0
LINE
8
BLACK
6
CONTINUOUS
10
5.01003
20
-2.49111
11
5.01055
21
-2.49111
0
LINE
8
BLACK
6
CONTINUOUS
10
5.01055
20
-2.49111
11
5.01842
21
-2.49022
0
LINE
8
BLACK
6
CONTINUOUS
10
5.01842
20
-2.49022
11
5.02593
21
-2.48784
0
LINE
8
BLACK
6
CONTINUOUS
10
5.02593
20
-2.48784
11
5.03283
21
-2.48405
0
LINE
8
BLACK
6
CONTINUOUS
10
5.03283
20
-2.48405
11
5.03886
21
-2.47899
0
LINE
8
BLACK
6
CONTINUOUS
10
5.03886
20
-2.47899
11
5.0438
21
-2.47285
0
LINE
8
BLACK
6
CONTINUOUS
10
5.0438
20
-2.47285
11
5.04745
21
-2.46587
0
LINE
8
BLACK
6
CONTINUOUS
10
5.04745
20
-2.46587
11
5.04967
21
-2.45832
0
LINE
8
BLACK
6
CONTINUOUS
10
5.04967
20
-2.45832
11
5.05038
21
-2.45048
0
LINE
8
BLACK
6
CONTINUOUS
10
5.05038
20
-2.45048
11
5.04956
21
-2.44264
0
LINE
8
BLACK
6
CONTINUOUS
10
5.04956
20
-2.44264
11
5.04723
21
-2.43512
0
LINE
8
BLACK
6
CONTINUOUS
10
5.04723
20
-2.43512
11
5.04349
21
-2.42819
0
LINE
8
BLACK
6
CONTINUOUS
10
5.04349
20
-2.42819
11
5.03847
21
-2.42213
0
LINE
8
BLACK
6
CONTINUOUS
10
5.03847
20
-2.42213
11
5.03236
21
-2.41715
0
LINE
8
BLACK
6
CONTINUOUS
10
5.03236
20
-2.41715
11
5.02541
21
-2.41345
0
LINE
8
BLACK
6
CONTINUOUS
10
5.02541
20
-2.41345
11
5.01787
21
-2.41118
0
LINE
8
BLACK
6
CONTINUOUS
10
5.01787
20
-2.41118
11
5.00999
21
-2.4104
0
LINE
8
BLACK
6
CONTINUOUS
10
5.00999
20
-2.4104
11
4.96279
21
-2.4104
0
LINE
8
BLACK
6
CONTINUOUS
10
4.40382
20
-2.43824
11
4.40705
21
-2.43043
0
LINE
8
BLACK
6
CONTINUOUS
10
4.40705
20
-2.43043
11
4.41175
21
-2.42341
0
LINE
8
BLACK
6
CONTINUOUS
10
4.41175
20
-2.42341
11
4.41773
21
-2.41743
0
LINE
8
BLACK
6
CONTINUOUS
10
4.41773
20
-2.41743
11
4.42475
21
-2.41274
0
LINE
8
BLACK
6
CONTINUOUS
10
4.42475
20
-2.41274
11
4.43256
21
-2.4095
0
LINE
8
BLACK
6
CONTINUOUS
10
4.43256
20
-2.4095
11
4.44085
21
-2.40785
0
LINE
8
BLACK
6
CONTINUOUS
10
4.44085
20
-2.40785
11
4.4493
21
-2.40785
0
LINE
8
BLACK
6
CONTINUOUS
10
4.4493
20
-2.40785
11
4.45759
21
-2.4095
0
LINE
8
BLACK
6
CONTINUOUS
10
4.45759
20
-2.4095
11
4.4654
21
-2.41274
0
LINE
8
BLACK
6
CONTINUOUS
10
4.4654
20
-2.41274
11
4.47242
21
-2.41743
0
LINE
8
BLACK
6
CONTINUOUS
10
4.47242
20
-2.41743
11
4.4784
21
-2.42341
0
LINE
8
BLACK
6
CONTINUOUS
10
4.4784
20
-2.42341
11
4.48309
21
-2.43043
0
LINE
8
BLACK
6
CONTINUOUS
10
4.48309
20
-2.43043
11
4.48633
21
-2.43824
0
LINE
8
BLACK
6
CONTINUOUS
10
4.48633
20
-2.43824
11
4.48798
21
-2.44653
0
LINE
8
BLACK
6
CONTINUOUS
10
4.48798
20
-2.44653
11
4.48798
21
-2.45498
0
LINE
8
BLACK
6
CONTINUOUS
10
4.48798
20
-2.45498
11
4.48633
21
-2.46327
0
LINE
8
BLACK
6
CONTINUOUS
10
4.48633
20
-2.46327
11
4.48309
21
-2.47108
0
LINE
8
BLACK
6
CONTINUOUS
10
4.48309
20
-2.47108
11
4.4784
21
-2.47811
0
LINE
8
BLACK
6
CONTINUOUS
10
4.4784
20
-2.47811
11
4.47242
21
-2.48408
0
LINE
8
BLACK
6
CONTINUOUS
10
4.47242
20
-2.48408
11
4.4654
21
-2.48878
0
LINE
8
BLACK
6
CONTINUOUS
10
4.4654
20
-2.48878
11
4.45759
21
-2.49201
0
LINE
8
BLACK
6
CONTINUOUS
10
4.45759
20
-2.49201
11
4.4493
21
-2.49366
0
LINE
8
BLACK
6
CONTINUOUS
10
4.4493
20
-2.49366
11
4.44085
21
-2.49366
0
LINE
8
BLACK
6
CONTINUOUS
10
4.44085
20
-2.49366
11
4.43256
21
-2.49201
0
LINE
8
BLACK
6
CONTINUOUS
10
4.43256
20
-2.49201
11
4.42475
21
-2.48878
0
LINE
8
BLACK
6
CONTINUOUS
10
4.42475
20
-2.48878
11
4.41773
21
-2.48408
0
LINE
8
BLACK
6
CONTINUOUS
10
4.41773
20
-2.48408
11
4.41175
21
-2.47811
0
LINE
8
BLACK
6
CONTINUOUS
10
4.41175
20
-2.47811
11
4.40705
21
-2.47108
0
LINE
8
BLACK
6
CONTINUOUS
10
4.40705
20
-2.47108
11
4.40382
21
-2.46327
0
LINE
8
BLACK
6
CONTINUOUS
10
4.40382
20
-2.46327
11
4.40217
21
-2.45498
0
LINE
8
BLACK
6
CONTINUOUS
10
4.40217
20
-2.45498
11
4.40217
21
-2.44653
0
LINE
8
BLACK
6
CONTINUOUS
10
4.40217
20
-2.44653
11
4.40382
21
-2.43824
0
LINE
8
BLACK
6
CONTINUOUS
10
4.40646
20
-2.46247
11
4.40949
21
-2.46978
0
LINE
8
BLACK
6
CONTINUOUS
10
4.40949
20
-2.46978
11
4.41388
21
-2.47636
0
LINE
8
BLACK
6
CONTINUOUS
10
4.41388
20
-2.47636
11
4.41947
21
-2.48195
0
LINE
8
BLACK
6
CONTINUOUS
10
4.41947
20
-2.48195
11
4.42605
21
-2.48635
0
LINE
8
BLACK
6
CONTINUOUS
10
4.42605
20
-2.48635
11
4.43336
21
-2.48937
0
LINE
8
BLACK
6
CONTINUOUS
10
4.43336
20
-2.48937
11
4.44112
21
-2.49092
0
LINE
8
BLACK
6
CONTINUOUS
10
4.44112
20
-2.49092
11
4.44903
21
-2.49092
0
LINE
8
BLACK
6
CONTINUOUS
10
4.44903
20
-2.49092
11
4.45679
21
-2.48937
0
LINE
8
BLACK
6
CONTINUOUS
10
4.45679
20
-2.48937
11
4.4641
21
-2.48635
0
LINE
8
BLACK
6
CONTINUOUS
10
4.4641
20
-2.48635
11
4.47068
21
-2.48195
0
LINE
8
BLACK
6
CONTINUOUS
10
4.47068
20
-2.48195
11
4.47627
21
-2.47636
0
LINE
8
BLACK
6
CONTINUOUS
10
4.47627
20
-2.47636
11
4.48066
21
-2.46978
0
LINE
8
BLACK
6
CONTINUOUS
10
4.48066
20
-2.46978
11
4.48369
21
-2.46247
0
LINE
8
BLACK
6
CONTINUOUS
10
4.48369
20
-2.46247
11
4.48523
21
-2.45471
0
LINE
8
BLACK
6
CONTINUOUS
10
4.48523
20
-2.45471
11
4.48523
21
-2.4468
0
LINE
8
BLACK
6
CONTINUOUS
10
4.48523
20
-2.4468
11
4.48369
21
-2.43904
0
LINE
8
BLACK
6
CONTINUOUS
10
4.48369
20
-2.43904
11
4.48066
21
-2.43173
0
LINE
8
BLACK
6
CONTINUOUS
10
4.48066
20
-2.43173
11
4.47627
21
-2.42516
0
LINE
8
BLACK
6
CONTINUOUS
10
4.47627
20
-2.42516
11
4.47068
21
-2.41956
0
LINE
8
BLACK
6
CONTINUOUS
10
4.47068
20
-2.41956
11
4.4641
21
-2.41517
0
LINE
8
BLACK
6
CONTINUOUS
10
4.4641
20
-2.41517
11
4.45679
21
-2.41214
0
LINE
8
BLACK
6
CONTINUOUS
10
4.45679
20
-2.41214
11
4.44903
21
-2.4106
0
LINE
8
BLACK
6
CONTINUOUS
10
4.44903
20
-2.4106
11
4.44112
21
-2.4106
0
LINE
8
BLACK
6
CONTINUOUS
10
4.44112
20
-2.4106
11
4.43336
21
-2.41214
0
LINE
8
BLACK
6
CONTINUOUS
10
4.43336
20
-2.41214
11
4.42605
21
-2.41517
0
LINE
8
BLACK
6
CONTINUOUS
10
4.42605
20
-2.41517
11
4.41947
21
-2.41956
0
LINE
8
BLACK
6
CONTINUOUS
10
4.41947
20
-2.41956
11
4.41388
21
-2.42516
0
LINE
8
BLACK
6
CONTINUOUS
10
4.41388
20
-2.42516
11
4.40949
21
-2.43173
0
LINE
8
BLACK
6
CONTINUOUS
10
4.40949
20
-2.43173
11
4.40646
21
-2.43904
0
LINE
8
BLACK
6
CONTINUOUS
10
4.40646
20
-2.43904
11
4.40491
21
-2.4468
0
LINE
8
BLACK
6
CONTINUOUS
10
4.40491
20
-2.4468
11
4.40491
21
-2.45471
0
LINE
8
BLACK
6
CONTINUOUS
10
4.40491
20
-2.45471
11
4.40646
21
-2.46247
0
LINE
8
BLACK
6
CONTINUOUS
10
4.97269
20
-2.22507
11
4.97608
21
-2.21691
0
LINE
8
BLACK
6
CONTINUOUS
10
4.97608
20
-2.21691
11
4.98099
21
-2.20956
0
LINE
8
BLACK
6
CONTINUOUS
10
4.98099
20
-2.20956
11
4.98723
21
-2.20331
0
LINE
8
BLACK
6
CONTINUOUS
10
4.98723
20
-2.20331
11
4.99458
21
-2.1984
0
LINE
8
BLACK
6
CONTINUOUS
10
4.99458
20
-2.1984
11
5.00275
21
-2.19502
0
LINE
8
BLACK
6
CONTINUOUS
10
5.00275
20
-2.19502
11
5.01141
21
-2.1933
0
LINE
8
BLACK
6
CONTINUOUS
10
5.01141
20
-2.1933
11
5.02025
21
-2.1933
0
LINE
8
BLACK
6
CONTINUOUS
10
5.02025
20
-2.1933
11
5.02892
21
-2.19502
0
LINE
8
BLACK
6
CONTINUOUS
10
5.02892
20
-2.19502
11
5.03708
21
-2.1984
0
LINE
8
BLACK
6
CONTINUOUS
10
5.03708
20
-2.1984
11
5.04443
21
-2.20331
0
LINE
8
BLACK
6
CONTINUOUS
10
5.04443
20
-2.20331
11
5.05068
21
-2.20956
0
LINE
8
BLACK
6
CONTINUOUS
10
5.05068
20
-2.20956
11
5.05559
21
-2.21691
0
LINE
8
BLACK
6
CONTINUOUS
10
5.05559
20
-2.21691
11
5.05897
21
-2.22507
0
LINE
8
BLACK
6
CONTINUOUS
10
5.05897
20
-2.22507
11
5.06069
21
-2.23374
0
LINE
8
BLACK
6
CONTINUOUS
10
5.06069
20
-2.23374
11
5.06069
21
-2.24258
0
LINE
8
BLACK
6
CONTINUOUS
10
5.06069
20
-2.24258
11
5.05897
21
-2.25124
0
LINE
8
BLACK
6
CONTINUOUS
10
5.05897
20
-2.25124
11
5.05559
21
-2.25941
0
LINE
8
BLACK
6
CONTINUOUS
10
5.05559
20
-2.25941
11
5.05068
21
-2.26676
0
LINE
8
BLACK
6
CONTINUOUS
10
5.05068
20
-2.26676
11
5.04443
21
-2.273
0
LINE
8
BLACK
6
CONTINUOUS
10
5.04443
20
-2.273
11
5.03708
21
-2.27791
0
LINE
8
BLACK
6
CONTINUOUS
10
5.03708
20
-2.27791
11
5.02892
21
-2.2813
0
LINE
8
BLACK
6
CONTINUOUS
10
5.02892
20
-2.2813
11
5.02025
21
-2.28302
0
LINE
8
BLACK
6
CONTINUOUS
10
5.02025
20
-2.28302
11
5.01141
21
-2.28302
0
LINE
8
BLACK
6
CONTINUOUS
10
5.01141
20
-2.28302
11
5.00275
21
-2.2813
0
LINE
8
BLACK
6
CONTINUOUS
10
5.00275
20
-2.2813
11
4.99458
21
-2.27791
0
LINE
8
BLACK
6
CONTINUOUS
10
4.99458
20
-2.27791
11
4.98723
21
-2.273
0
LINE
8
BLACK
6
CONTINUOUS
10
4.98723
20
-2.273
11
4.98099
21
-2.26676
0
LINE
8
BLACK
6
CONTINUOUS
10
4.98099
20
-2.26676
11
4.97608
21
-2.25941
0
LINE
8
BLACK
6
CONTINUOUS
10
4.97608
20
-2.25941
11
4.97269
21
-2.25124
0
LINE
8
BLACK
6
CONTINUOUS
10
4.97269
20
-2.25124
11
4.97097
21
-2.24258
0
LINE
8
BLACK
6
CONTINUOUS
10
4.97097
20
-2.24258
11
4.97097
21
-2.23374
0
LINE
8
BLACK
6
CONTINUOUS
10
4.97097
20
-2.23374
11
4.97269
21
-2.22507
0
LINE
8
BLACK
6
CONTINUOUS
10
4.97533
20
-2.25044
11
4.97851
21
-2.25811
0
LINE
8
BLACK
6
CONTINUOUS
10
4.97851
20
-2.25811
11
4.98312
21
-2.26501
0
LINE
8
BLACK
6
CONTINUOUS
10
4.98312
20
-2.26501
11
4.98898
21
-2.27087
0
LINE
8
BLACK
6
CONTINUOUS
10
4.98898
20
-2.27087
11
4.99588
21
-2.27548
0
LINE
8
BLACK
6
CONTINUOUS
10
4.99588
20
-2.27548
11
5.00355
21
-2.27866
0
LINE
8
BLACK
6
CONTINUOUS
10
5.00355
20
-2.27866
11
5.01168
21
-2.28028
0
LINE
8
BLACK
6
CONTINUOUS
10
5.01168
20
-2.28028
11
5.01998
21
-2.28028
0
LINE
8
BLACK
6
CONTINUOUS
10
5.01998
20
-2.28028
11
5.02812
21
-2.27866
0
LINE
8
BLACK
6
CONTINUOUS
10
5.02812
20
-2.27866
11
5.03578
21
-2.27548
0
LINE
8
BLACK
6
CONTINUOUS
10
5.03578
20
-2.27548
11
5.04268
21
-2.27087
0
LINE
8
BLACK
6
CONTINUOUS
10
5.04268
20
-2.27087
11
5.04855
21
-2.26501
0
LINE
8
BLACK
6
CONTINUOUS
10
5.04855
20
-2.26501
11
5.05316
21
-2.25811
0
LINE
8
BLACK
6
CONTINUOUS
10
5.05316
20
-2.25811
11
5.05633
21
-2.25044
0
LINE
8
BLACK
6
CONTINUOUS
10
5.05633
20
-2.25044
11
5.05795
21
-2.24231
0
LINE
8
BLACK
6
CONTINUOUS
10
5.05795
20
-2.24231
11
5.05795
21
-2.23401
0
LINE
8
BLACK
6
CONTINUOUS
10
5.05795
20
-2.23401
11
5.05633
21
-2.22587
0
LINE
8
BLACK
6
CONTINUOUS
10
5.05633
20
-2.22587
11
5.05316
21
-2.21821
0
LINE
8
BLACK
6
CONTINUOUS
10
5.05316
20
-2.21821
11
5.04855
21
-2.21131
0
LINE
8
BLACK
6
CONTINUOUS
10
5.04855
20
-2.21131
11
5.04268
21
-2.20544
0
LINE
8
BLACK
6
CONTINUOUS
10
5.04268
20
-2.20544
11
5.03578
21
-2.20083
0
LINE
8
BLACK
6
CONTINUOUS
10
5.03578
20
-2.20083
11
5.02812
21
-2.19766
0
LINE
8
BLACK
6
CONTINUOUS
10
5.02812
20
-2.19766
11
5.01998
21
-2.19604
0
LINE
8
BLACK
6
CONTINUOUS
10
5.01998
20
-2.19604
11
5.01168
21
-2.19604
0
LINE
8
BLACK
6
CONTINUOUS
10
5.01168
20
-2.19604
11
5.00355
21
-2.19766
0
LINE
8
BLACK
6
CONTINUOUS
10
5.00355
20
-2.19766
11
4.99588
21
-2.20083
0
LINE
8
BLACK
6
CONTINUOUS
10
4.99588
20
-2.20083
11
4.98898
21
-2.20544
0
LINE
8
BLACK
6
CONTINUOUS
10
4.98898
20
-2.20544
11
4.98312
21
-2.21131
0
LINE
8
BLACK
6
CONTINUOUS
10
4.98312
20
-2.21131
11
4.97851
21
-2.21821
0
LINE
8
BLACK
6
CONTINUOUS
10
4.97851
20
-2.21821
11
4.97533
21
-2.22587
0
LINE
8
BLACK
6
CONTINUOUS
10
4.97533
20
-2.22587
11
4.97371
21
-2.23401
0
LINE
8
BLACK
6
CONTINUOUS
10
4.97371
20
-2.23401
11
4.97371
21
-2.24231
0
LINE
8
BLACK
6
CONTINUOUS
10
4.97371
20
-2.24231
11
4.97533
21
-2.25044
0
LINE
8
BLACK
6
CONTINUOUS
10
4.38214
20
-2.22507
11
4.38552
21
-2.21691
0
LINE
8
BLACK
6
CONTINUOUS
10
4.38552
20
-2.21691
11
4.39043
21
-2.20956
0
LINE
8
BLACK
6
CONTINUOUS
10
4.39043
20
-2.20956
11
4.39668
21
-2.20331
0
LINE
8
BLACK
6
CONTINUOUS
10
4.39668
20
-2.20331
11
4.40403
21
-2.1984
0
LINE
8
BLACK
6
CONTINUOUS
10
4.40403
20
-2.1984
11
4.41219
21
-2.19502
0
LINE
8
BLACK
6
CONTINUOUS
10
4.41219
20
-2.19502
11
4.42086
21
-2.1933
0
LINE
8
BLACK
6
CONTINUOUS
10
4.42086
20
-2.1933
11
4.4297
21
-2.1933
0
LINE
8
BLACK
6
CONTINUOUS
10
4.4297
20
-2.1933
11
4.43837
21
-2.19502
0
LINE
8
BLACK
6
CONTINUOUS
10
4.43837
20
-2.19502
11
4.44653
21
-2.1984
0
LINE
8
BLACK
6
CONTINUOUS
10
4.44653
20
-2.1984
11
4.45388
21
-2.20331
0
LINE
8
BLACK
6
CONTINUOUS
10
4.45388
20
-2.20331
11
4.46013
21
-2.20956
0
LINE
8
BLACK
6
CONTINUOUS
10
4.46013
20
-2.20956
11
4.46504
21
-2.21691
0
LINE
8
BLACK
6
CONTINUOUS
10
4.46504
20
-2.21691
11
4.46842
21
-2.22507
0
LINE
8
BLACK
6
CONTINUOUS
10
4.46842
20
-2.22507
11
4.47014
21
-2.23374
0
LINE
8
BLACK
6
CONTINUOUS
10
4.47014
20
-2.23374
11
4.47014
21
-2.24258
0
LINE
8
BLACK
6
CONTINUOUS
10
4.47014
20
-2.24258
11
4.46842
21
-2.25124
0
LINE
8
BLACK
6
CONTINUOUS
10
4.46842
20
-2.25124
11
4.46504
21
-2.25941
0
LINE
8
BLACK
6
CONTINUOUS
10
4.46504
20
-2.25941
11
4.46013
21
-2.26676
0
LINE
8
BLACK
6
CONTINUOUS
10
4.46013
20
-2.26676
11
4.45388
21
-2.273
0
LINE
8
BLACK
6
CONTINUOUS
10
4.45388
20
-2.273
11
4.44653
21
-2.27791
0
LINE
8
BLACK
6
CONTINUOUS
10
4.44653
20
-2.27791
11
4.43837
21
-2.2813
0
LINE
8
BLACK
6
CONTINUOUS
10
4.43837
20
-2.2813
11
4.4297
21
-2.28302
0
LINE
8
BLACK
6
CONTINUOUS
10
4.4297
20
-2.28302
11
4.42086
21
-2.28302
0
LINE
8
BLACK
6
CONTINUOUS
10
4.42086
20
-2.28302
11
4.41219
21
-2.2813
0
LINE
8
BLACK
6
CONTINUOUS
10
4.41219
20
-2.2813
11
4.40403
21
-2.27791
0
LINE
8
BLACK
6
CONTINUOUS
10
4.40403
20
-2.27791
11
4.39668
21
-2.273
0
LINE
8
BLACK
6
CONTINUOUS
10
4.39668
20
-2.273
11
4.39043
21
-2.26676
0
LINE
8
BLACK
6
CONTINUOUS
10
4.39043
20
-2.26676
11
4.38552
21
-2.25941
0
LINE
8
BLACK
6
CONTINUOUS
10
4.38552
20
-2.25941
11
4.38214
21
-2.25124
0
LINE
8
BLACK
6
CONTINUOUS
10
4.38214
20
-2.25124
11
4.38042
21
-2.24258
0
LINE
8
BLACK
6
CONTINUOUS
10
4.38042
20
-2.24258
11
4.38042
21
-2.23374
0
LINE
8
BLACK
6
CONTINUOUS
10
4.38042
20
-2.23374
11
4.38214
21
-2.22507
0
LINE
8
BLACK
6
CONTINUOUS
10
4.38478
20
-2.25044
11
4.38795
21
-2.25811
0
LINE
8
BLACK
6
CONTINUOUS
10
4.38795
20
-2.25811
11
4.39256
21
-2.26501
0
LINE
8
BLACK
6
CONTINUOUS
10
4.39256
20
-2.26501
11
4.39843
21
-2.27087
0
LINE
8
BLACK
6
CONTINUOUS
10
4.39843
20
-2.27087
11
4.40533
21
-2.27548
0
LINE
8
BLACK
6
CONTINUOUS
10
4.40533
20
-2.27548
11
4.41299
21
-2.27866
0
LINE
8
BLACK
6
CONTINUOUS
10
4.41299
20
-2.27866
11
4.42113
21
-2.28028
0
LINE
8
BLACK
6
CONTINUOUS
10
4.42113
20
-2.28028
11
4.42943
21
-2.28028
0
LINE
8
BLACK
6
CONTINUOUS
10
4.42943
20
-2.28028
11
4.43757
21
-2.27866
0
LINE
8
BLACK
6
CONTINUOUS
10
4.43757
20
-2.27866
11
4.44523
21
-2.27548
0
LINE
8
BLACK
6
CONTINUOUS
10
4.44523
20
-2.27548
11
4.45213
21
-2.27087
0
LINE
8
BLACK
6
CONTINUOUS
10
4.45213
20
-2.27087
11
4.458
21
-2.26501
0
LINE
8
BLACK
6
CONTINUOUS
10
4.458
20
-2.26501
11
4.46261
21
-2.25811
0
LINE
8
BLACK
6
CONTINUOUS
10
4.46261
20
-2.25811
11
4.46578
21
-2.25044
0
LINE
8
BLACK
6
CONTINUOUS
10
4.46578
20
-2.25044
11
4.4674
21
-2.24231
0
LINE
8
BLACK
6
CONTINUOUS
10
4.4674
20
-2.24231
11
4.4674
21
-2.23401
0
LINE
8
BLACK
6
CONTINUOUS
10
4.4674
20
-2.23401
11
4.46578
21
-2.22587
0
LINE
8
BLACK
6
CONTINUOUS
10
4.46578
20
-2.22587
11
4.46261
21
-2.21821
0
LINE
8
BLACK
6
CONTINUOUS
10
4.46261
20
-2.21821
11
4.458
21
-2.21131
0
LINE
8
BLACK
6
CONTINUOUS
10
4.458
20
-2.21131
11
4.45213
21
-2.20544
0
LINE
8
BLACK
6
CONTINUOUS
10
4.45213
20
-2.20544
11
4.44523
21
-2.20083
0
LINE
8
BLACK
6
CONTINUOUS
10
4.44523
20
-2.20083
11
4.43757
21
-2.19766
0
LINE
8
BLACK
6
CONTINUOUS
10
4.43757
20
-2.19766
11
4.42943
21
-2.19604
0
LINE
8
BLACK
6
CONTINUOUS
10
4.42943
20
-2.19604
11
4.42113
21
-2.19604
0
LINE
8
BLACK
6
CONTINUOUS
10
4.42113
20
-2.19604
11
4.41299
21
-2.19766
0
LINE
8
BLACK
6
CONTINUOUS
10
4.41299
20
-2.19766
11
4.40533
21
-2.20083
0
LINE
8
BLACK
6
CONTINUOUS
10
4.40533
20
-2.20083
11
4.39843
21
-2.20544
0
LINE
8
BLACK
6
CONTINUOUS
10
4.39843
20
-2.20544
11
4.39256
21
-2.21131
0
LINE
8
BLACK
6
CONTINUOUS
10
4.39256
20
-2.21131
11
4.38795
21
-2.21821
0
LINE
8
BLACK
6
CONTINUOUS
10
4.38795
20
-2.21821
11
4.38478
21
-2.22587
0
LINE
8
BLACK
6
CONTINUOUS
10
4.38478
20
-2.22587
11
4.38316
21
-2.23401
0
LINE
8
BLACK
6
CONTINUOUS
10
4.38316
20
-2.23401
11
4.38316
21
-2.24231
0
LINE
8
BLACK
6
CONTINUOUS
10
4.38316
20
-2.24231
11
4.38478
21
-2.25044
  0
ENDSEC
  0
EOF
