%TF.GenerationSoftware,KiCad,Pcbnew,(5.1.10)-1*%
%TF.CreationDate,2022-03-08T18:55:03-05:00*%
%TF.ProjectId,001,3030312e-6b69-4636-9164-5f7063625858,rev?*%
%TF.SameCoordinates,Original*%
%TF.FileFunction,Soldermask,Top*%
%TF.FilePolarity,Negative*%
%FSLAX46Y46*%
G04 Gerber Fmt 4.6, Leading zero omitted, Abs format (unit mm)*
G04 Created by KiCad (PCBNEW (5.1.10)-1) date 2022-03-08 18:55:03*
%MOMM*%
%LPD*%
G01*
G04 APERTURE LIST*
%ADD10O,1.000000X2.100000*%
%ADD11C,0.650000*%
%ADD12O,1.000000X1.600000*%
%ADD13R,1.060000X1.580000*%
%ADD14R,0.600000X2.180000*%
%ADD15R,1.041400X0.355600*%
%ADD16R,0.762000X0.355600*%
G04 APERTURE END LIST*
%TO.C,R2*%
G36*
G01*
X121479900Y-54183400D02*
X121479900Y-54658400D01*
G75*
G02*
X121242400Y-54895900I-237500J0D01*
G01*
X120742400Y-54895900D01*
G75*
G02*
X120504900Y-54658400I0J237500D01*
G01*
X120504900Y-54183400D01*
G75*
G02*
X120742400Y-53945900I237500J0D01*
G01*
X121242400Y-53945900D01*
G75*
G02*
X121479900Y-54183400I0J-237500D01*
G01*
G37*
G36*
G01*
X123304900Y-54183400D02*
X123304900Y-54658400D01*
G75*
G02*
X123067400Y-54895900I-237500J0D01*
G01*
X122567400Y-54895900D01*
G75*
G02*
X122329900Y-54658400I0J237500D01*
G01*
X122329900Y-54183400D01*
G75*
G02*
X122567400Y-53945900I237500J0D01*
G01*
X123067400Y-53945900D01*
G75*
G02*
X123304900Y-54183400I0J-237500D01*
G01*
G37*
%TD*%
%TO.C,R3*%
G36*
G01*
X116117400Y-61358400D02*
X116117400Y-60883400D01*
G75*
G02*
X116354900Y-60645900I237500J0D01*
G01*
X116854900Y-60645900D01*
G75*
G02*
X117092400Y-60883400I0J-237500D01*
G01*
X117092400Y-61358400D01*
G75*
G02*
X116854900Y-61595900I-237500J0D01*
G01*
X116354900Y-61595900D01*
G75*
G02*
X116117400Y-61358400I0J237500D01*
G01*
G37*
G36*
G01*
X117942400Y-61358400D02*
X117942400Y-60883400D01*
G75*
G02*
X118179900Y-60645900I237500J0D01*
G01*
X118679900Y-60645900D01*
G75*
G02*
X118917400Y-60883400I0J-237500D01*
G01*
X118917400Y-61358400D01*
G75*
G02*
X118679900Y-61595900I-237500J0D01*
G01*
X118179900Y-61595900D01*
G75*
G02*
X117942400Y-61358400I0J237500D01*
G01*
G37*
%TD*%
%TO.C,R4*%
G36*
G01*
X117817400Y-57058400D02*
X117817400Y-56583400D01*
G75*
G02*
X118054900Y-56345900I237500J0D01*
G01*
X118554900Y-56345900D01*
G75*
G02*
X118792400Y-56583400I0J-237500D01*
G01*
X118792400Y-57058400D01*
G75*
G02*
X118554900Y-57295900I-237500J0D01*
G01*
X118054900Y-57295900D01*
G75*
G02*
X117817400Y-57058400I0J237500D01*
G01*
G37*
G36*
G01*
X115992400Y-57058400D02*
X115992400Y-56583400D01*
G75*
G02*
X116229900Y-56345900I237500J0D01*
G01*
X116729900Y-56345900D01*
G75*
G02*
X116967400Y-56583400I0J-237500D01*
G01*
X116967400Y-57058400D01*
G75*
G02*
X116729900Y-57295900I-237500J0D01*
G01*
X116229900Y-57295900D01*
G75*
G02*
X115992400Y-57058400I0J237500D01*
G01*
G37*
%TD*%
%TO.C,R1*%
G36*
G01*
X116492400Y-54708400D02*
X116492400Y-54233400D01*
G75*
G02*
X116729900Y-53995900I237500J0D01*
G01*
X117229900Y-53995900D01*
G75*
G02*
X117467400Y-54233400I0J-237500D01*
G01*
X117467400Y-54708400D01*
G75*
G02*
X117229900Y-54945900I-237500J0D01*
G01*
X116729900Y-54945900D01*
G75*
G02*
X116492400Y-54708400I0J237500D01*
G01*
G37*
G36*
G01*
X118317400Y-54708400D02*
X118317400Y-54233400D01*
G75*
G02*
X118554900Y-53995900I237500J0D01*
G01*
X119054900Y-53995900D01*
G75*
G02*
X119292400Y-54233400I0J-237500D01*
G01*
X119292400Y-54708400D01*
G75*
G02*
X119054900Y-54945900I-237500J0D01*
G01*
X118554900Y-54945900D01*
G75*
G02*
X118317400Y-54708400I0J237500D01*
G01*
G37*
%TD*%
D10*
%TO.C,USB*%
X124224900Y-58600900D03*
X115584900Y-58600900D03*
D11*
X117014900Y-58070900D03*
D12*
X115584900Y-54420900D03*
D11*
X122794900Y-58070900D03*
D12*
X124224900Y-54420900D03*
%TD*%
D13*
%TO.C,D1*%
X122854900Y-72620900D03*
D14*
X121704900Y-72920900D03*
X120804900Y-72920900D03*
X119904900Y-72920900D03*
X119004900Y-72920900D03*
X118104900Y-72920900D03*
D13*
X116954900Y-72620900D03*
%TD*%
D15*
%TO.C,J2*%
X106358300Y-62920900D03*
X106358300Y-54830899D03*
D16*
X109008300Y-61120900D03*
X109008300Y-60620901D03*
X109008300Y-60120899D03*
X109008300Y-59620900D03*
X109008300Y-59120901D03*
X109008300Y-58620900D03*
X109008300Y-58120900D03*
X109008300Y-57620899D03*
X109008300Y-57120900D03*
X109008300Y-56620901D03*
X109008300Y-56120899D03*
X109008300Y-55620900D03*
X109008300Y-61620900D03*
X108998300Y-62120900D03*
%TD*%
D15*
%TO.C,011*%
X104995200Y-62414600D03*
X104995200Y-55334598D03*
D16*
X107645200Y-61624599D03*
X107645200Y-61124600D03*
X107645200Y-60624598D03*
X107645200Y-60124599D03*
X107645200Y-59624600D03*
X107645200Y-59124599D03*
X107645200Y-58624599D03*
X107645200Y-58124598D03*
X107645200Y-57624599D03*
X107645200Y-57124600D03*
X107645200Y-56624598D03*
X107645200Y-56124599D03*
%TD*%
M02*
