M48
; DRILL file {KiCad (5.1.10)-1} date 04/16/22 23:25:49
; FORMAT={-:-/ absolute / inch / decimal}
; #@! TF.CreationDate,2022-04-16T23:25:49-04:00
; #@! TF.GenerationSoftware,Kicad,Pcbnew,(5.1.10)-1
; #@! TF.FileFunction,Plated,1,2,PTH
FMAT,2
INCH
T1C0.0118
T2C0.0236
%
G90
G05
T1
X4.1382Y-2.4984
X4.2Y-2.225
X4.205Y-2.325
X4.2137Y-2.3868
X4.2291Y-2.5024
X4.295Y-2.475
X4.316Y-2.4063
X4.33Y-2.2
X4.33Y-2.31
X4.34Y-2.255
X4.36Y-2.34
X4.365Y-2.215
X4.385Y-2.415
X4.42Y-2.36
X4.47Y-2.515
X4.475Y-2.34
X4.49Y-2.22
X4.505Y-2.31
X4.5097Y-2.3929
X4.51Y-2.195
X4.53Y-2.425
X4.545Y-2.59
X4.585Y-2.255
X4.6045Y-2.8839
X4.605Y-2.44
X4.61Y-2.655
X4.615Y-2.185
X4.65Y-2.255
X4.67Y-2.4
X4.685Y-2.175
X4.695Y-2.45
X4.7Y-2.275
X4.711Y-2.244
X4.715Y-2.715
X4.72Y-2.185
X4.725Y-2.405
X4.729Y-2.226
X4.755Y-2.175
X4.76Y-2.47
X4.765Y-2.23
X4.7652Y-2.425
X4.77Y-2.285
X4.79Y-2.785
X4.8Y-2.69
X4.805Y-2.185
X4.805Y-2.51
X4.805Y-2.625
X4.82Y-2.235
X4.8368Y-2.8839
X4.865Y-2.785
X4.875Y-2.475
X4.875Y-2.645
T2
G00X4.5506Y-2.1307
M15
G01X4.5506Y-2.1544
M16
G05
G00X4.5506Y-2.2855
M15
G01X4.5506Y-2.3288
M16
G05
G00X4.8907Y-2.1307
M15
G01X4.8907Y-2.1544
M16
G05
G00X4.8907Y-2.2855
M15
G01X4.8907Y-2.3288
M16
G05
T0
M30
