%TF.GenerationSoftware,KiCad,Pcbnew,(5.1.10)-1*%
%TF.CreationDate,2022-03-08T18:55:03-05:00*%
%TF.ProjectId,001,3030312e-6b69-4636-9164-5f7063625858,rev?*%
%TF.SameCoordinates,Original*%
%TF.FileFunction,Legend,Bot*%
%TF.FilePolarity,Positive*%
%FSLAX46Y46*%
G04 Gerber Fmt 4.6, Leading zero omitted, Abs format (unit mm)*
G04 Created by KiCad (PCBNEW (5.1.10)-1) date 2022-03-08 18:55:03*
%MOMM*%
%LPD*%
G01*
G04 APERTURE LIST*
%ADD10C,0.150000*%
%ADD11C,0.120000*%
G04 APERTURE END LIST*
D10*
X127792761Y-64084904D02*
X127335619Y-64084904D01*
X127564190Y-64884904D02*
X127564190Y-64084904D01*
X127068952Y-64884904D02*
X127068952Y-64084904D01*
X126726095Y-64884904D02*
X126726095Y-64465857D01*
X126764190Y-64389666D01*
X126840380Y-64351571D01*
X126954666Y-64351571D01*
X127030857Y-64389666D01*
X127068952Y-64427761D01*
X126002285Y-64884904D02*
X126002285Y-64465857D01*
X126040380Y-64389666D01*
X126116571Y-64351571D01*
X126268952Y-64351571D01*
X126345142Y-64389666D01*
X126002285Y-64846809D02*
X126078476Y-64884904D01*
X126268952Y-64884904D01*
X126345142Y-64846809D01*
X126383238Y-64770619D01*
X126383238Y-64694428D01*
X126345142Y-64618238D01*
X126268952Y-64580142D01*
X126078476Y-64580142D01*
X126002285Y-64542047D01*
X125621333Y-64351571D02*
X125621333Y-64884904D01*
X125621333Y-64427761D02*
X125583238Y-64389666D01*
X125507047Y-64351571D01*
X125392761Y-64351571D01*
X125316571Y-64389666D01*
X125278476Y-64465857D01*
X125278476Y-64884904D01*
X124897523Y-64884904D02*
X124897523Y-64084904D01*
X124821333Y-64580142D02*
X124592761Y-64884904D01*
X124592761Y-64351571D02*
X124897523Y-64656333D01*
X124288000Y-64846809D02*
X124211809Y-64884904D01*
X124059428Y-64884904D01*
X123983238Y-64846809D01*
X123945142Y-64770619D01*
X123945142Y-64732523D01*
X123983238Y-64656333D01*
X124059428Y-64618238D01*
X124173714Y-64618238D01*
X124249904Y-64580142D01*
X124288000Y-64503952D01*
X124288000Y-64465857D01*
X124249904Y-64389666D01*
X124173714Y-64351571D01*
X124059428Y-64351571D01*
X123983238Y-64389666D01*
X123107047Y-64351571D02*
X122802285Y-64351571D01*
X122992761Y-64084904D02*
X122992761Y-64770619D01*
X122954666Y-64846809D01*
X122878476Y-64884904D01*
X122802285Y-64884904D01*
X122421333Y-64884904D02*
X122497523Y-64846809D01*
X122535619Y-64808714D01*
X122573714Y-64732523D01*
X122573714Y-64503952D01*
X122535619Y-64427761D01*
X122497523Y-64389666D01*
X122421333Y-64351571D01*
X122307047Y-64351571D01*
X122230857Y-64389666D01*
X122192761Y-64427761D01*
X122154666Y-64503952D01*
X122154666Y-64732523D01*
X122192761Y-64808714D01*
X122230857Y-64846809D01*
X122307047Y-64884904D01*
X122421333Y-64884904D01*
X121202285Y-64884904D02*
X121202285Y-64084904D01*
X120935619Y-64656333D01*
X120668952Y-64084904D01*
X120668952Y-64884904D01*
X119945142Y-64884904D02*
X119945142Y-64465857D01*
X119983238Y-64389666D01*
X120059428Y-64351571D01*
X120211809Y-64351571D01*
X120288000Y-64389666D01*
X119945142Y-64846809D02*
X120021333Y-64884904D01*
X120211809Y-64884904D01*
X120288000Y-64846809D01*
X120326095Y-64770619D01*
X120326095Y-64694428D01*
X120288000Y-64618238D01*
X120211809Y-64580142D01*
X120021333Y-64580142D01*
X119945142Y-64542047D01*
X119564190Y-64884904D02*
X119564190Y-64351571D01*
X119564190Y-64503952D02*
X119526095Y-64427761D01*
X119488000Y-64389666D01*
X119411809Y-64351571D01*
X119335619Y-64351571D01*
X119183238Y-64351571D02*
X118878476Y-64351571D01*
X119068952Y-64084904D02*
X119068952Y-64770619D01*
X119030857Y-64846809D01*
X118954666Y-64884904D01*
X118878476Y-64884904D01*
X118268952Y-64884904D02*
X118268952Y-64465857D01*
X118307047Y-64389666D01*
X118383238Y-64351571D01*
X118535619Y-64351571D01*
X118611809Y-64389666D01*
X118268952Y-64846809D02*
X118345142Y-64884904D01*
X118535619Y-64884904D01*
X118611809Y-64846809D01*
X118649904Y-64770619D01*
X118649904Y-64694428D01*
X118611809Y-64618238D01*
X118535619Y-64580142D01*
X118345142Y-64580142D01*
X118268952Y-64542047D01*
X117888000Y-64884904D02*
X117888000Y-64351571D01*
X117888000Y-64084904D02*
X117926095Y-64123000D01*
X117888000Y-64161095D01*
X117849904Y-64123000D01*
X117888000Y-64084904D01*
X117888000Y-64161095D01*
X117507047Y-64351571D02*
X117507047Y-64884904D01*
X117507047Y-64427761D02*
X117468952Y-64389666D01*
X117392761Y-64351571D01*
X117278476Y-64351571D01*
X117202285Y-64389666D01*
X117164190Y-64465857D01*
X117164190Y-64884904D01*
X115716571Y-64884904D02*
X115983238Y-64503952D01*
X116173714Y-64884904D02*
X116173714Y-64084904D01*
X115868952Y-64084904D01*
X115792761Y-64123000D01*
X115754666Y-64161095D01*
X115716571Y-64237285D01*
X115716571Y-64351571D01*
X115754666Y-64427761D01*
X115792761Y-64465857D01*
X115868952Y-64503952D01*
X116173714Y-64503952D01*
X115068952Y-64846809D02*
X115145142Y-64884904D01*
X115297523Y-64884904D01*
X115373714Y-64846809D01*
X115411809Y-64770619D01*
X115411809Y-64465857D01*
X115373714Y-64389666D01*
X115297523Y-64351571D01*
X115145142Y-64351571D01*
X115068952Y-64389666D01*
X115030857Y-64465857D01*
X115030857Y-64542047D01*
X115411809Y-64618238D01*
X114802285Y-64351571D02*
X114497523Y-64351571D01*
X114688000Y-64884904D02*
X114688000Y-64199190D01*
X114649904Y-64123000D01*
X114573714Y-64084904D01*
X114497523Y-64084904D01*
X114268952Y-64846809D02*
X114192761Y-64884904D01*
X114040380Y-64884904D01*
X113964190Y-64846809D01*
X113926095Y-64770619D01*
X113926095Y-64732523D01*
X113964190Y-64656333D01*
X114040380Y-64618238D01*
X114154666Y-64618238D01*
X114230857Y-64580142D01*
X114268952Y-64503952D01*
X114268952Y-64465857D01*
X114230857Y-64389666D01*
X114154666Y-64351571D01*
X114040380Y-64351571D01*
X113964190Y-64389666D01*
X113278476Y-64846809D02*
X113354666Y-64884904D01*
X113507047Y-64884904D01*
X113583238Y-64846809D01*
X113621333Y-64770619D01*
X113621333Y-64465857D01*
X113583238Y-64389666D01*
X113507047Y-64351571D01*
X113354666Y-64351571D01*
X113278476Y-64389666D01*
X113240380Y-64465857D01*
X113240380Y-64542047D01*
X113621333Y-64618238D01*
X113011809Y-64351571D02*
X112707047Y-64351571D01*
X112897523Y-64084904D02*
X112897523Y-64770619D01*
X112859428Y-64846809D01*
X112783238Y-64884904D01*
X112707047Y-64884904D01*
X112440380Y-64884904D02*
X112440380Y-64084904D01*
X112097523Y-64884904D02*
X112097523Y-64465857D01*
X112135619Y-64389666D01*
X112211809Y-64351571D01*
X112326095Y-64351571D01*
X112402285Y-64389666D01*
X112440380Y-64427761D01*
X123526095Y-66234904D02*
X123526095Y-65815857D01*
X123564190Y-65739666D01*
X123640380Y-65701571D01*
X123792761Y-65701571D01*
X123868952Y-65739666D01*
X123526095Y-66196809D02*
X123602285Y-66234904D01*
X123792761Y-66234904D01*
X123868952Y-66196809D01*
X123907047Y-66120619D01*
X123907047Y-66044428D01*
X123868952Y-65968238D01*
X123792761Y-65930142D01*
X123602285Y-65930142D01*
X123526095Y-65892047D01*
X123145142Y-65701571D02*
X123145142Y-66234904D01*
X123145142Y-65777761D02*
X123107047Y-65739666D01*
X123030857Y-65701571D01*
X122916571Y-65701571D01*
X122840380Y-65739666D01*
X122802285Y-65815857D01*
X122802285Y-66234904D01*
X122078476Y-66234904D02*
X122078476Y-65434904D01*
X122078476Y-66196809D02*
X122154666Y-66234904D01*
X122307047Y-66234904D01*
X122383238Y-66196809D01*
X122421333Y-66158714D01*
X122459428Y-66082523D01*
X122459428Y-65853952D01*
X122421333Y-65777761D01*
X122383238Y-65739666D01*
X122307047Y-65701571D01*
X122154666Y-65701571D01*
X122078476Y-65739666D01*
X121088000Y-66234904D02*
X121088000Y-65434904D01*
X120364190Y-66196809D02*
X120440380Y-66234904D01*
X120592761Y-66234904D01*
X120668952Y-66196809D01*
X120707047Y-66158714D01*
X120745142Y-66082523D01*
X120745142Y-65853952D01*
X120707047Y-65777761D01*
X120668952Y-65739666D01*
X120592761Y-65701571D01*
X120440380Y-65701571D01*
X120364190Y-65739666D01*
X120021333Y-66234904D02*
X120021333Y-65701571D01*
X120021333Y-65434904D02*
X120059428Y-65473000D01*
X120021333Y-65511095D01*
X119983238Y-65473000D01*
X120021333Y-65434904D01*
X120021333Y-65511095D01*
X119297523Y-66196809D02*
X119373714Y-66234904D01*
X119526095Y-66234904D01*
X119602285Y-66196809D01*
X119640380Y-66158714D01*
X119678476Y-66082523D01*
X119678476Y-65853952D01*
X119640380Y-65777761D01*
X119602285Y-65739666D01*
X119526095Y-65701571D01*
X119373714Y-65701571D01*
X119297523Y-65739666D01*
X118611809Y-66234904D02*
X118611809Y-65815857D01*
X118649904Y-65739666D01*
X118726095Y-65701571D01*
X118878476Y-65701571D01*
X118954666Y-65739666D01*
X118611809Y-66196809D02*
X118688000Y-66234904D01*
X118878476Y-66234904D01*
X118954666Y-66196809D01*
X118992761Y-66120619D01*
X118992761Y-66044428D01*
X118954666Y-65968238D01*
X118878476Y-65930142D01*
X118688000Y-65930142D01*
X118611809Y-65892047D01*
X118268952Y-66196809D02*
X118154666Y-66234904D01*
X117964190Y-66234904D01*
X117888000Y-66196809D01*
X117849904Y-66158714D01*
X117811809Y-66082523D01*
X117811809Y-66006333D01*
X117849904Y-65930142D01*
X117888000Y-65892047D01*
X117964190Y-65853952D01*
X118116571Y-65815857D01*
X118192761Y-65777761D01*
X118230857Y-65739666D01*
X118268952Y-65663476D01*
X118268952Y-65587285D01*
X118230857Y-65511095D01*
X118192761Y-65473000D01*
X118116571Y-65434904D01*
X117926095Y-65434904D01*
X117811809Y-65473000D01*
X117354666Y-66234904D02*
X117430857Y-66196809D01*
X117468952Y-66158714D01*
X117507047Y-66082523D01*
X117507047Y-65853952D01*
X117468952Y-65777761D01*
X117430857Y-65739666D01*
X117354666Y-65701571D01*
X117240380Y-65701571D01*
X117164190Y-65739666D01*
X117126095Y-65777761D01*
X117088000Y-65853952D01*
X117088000Y-66082523D01*
X117126095Y-66158714D01*
X117164190Y-66196809D01*
X117240380Y-66234904D01*
X117354666Y-66234904D01*
X116745142Y-66234904D02*
X116745142Y-65701571D01*
X116745142Y-65853952D02*
X116707047Y-65777761D01*
X116668952Y-65739666D01*
X116592761Y-65701571D01*
X116516571Y-65701571D01*
X115907047Y-66234904D02*
X115907047Y-65815857D01*
X115945142Y-65739666D01*
X116021333Y-65701571D01*
X116173714Y-65701571D01*
X116249904Y-65739666D01*
X115907047Y-66196809D02*
X115983238Y-66234904D01*
X116173714Y-66234904D01*
X116249904Y-66196809D01*
X116288000Y-66120619D01*
X116288000Y-66044428D01*
X116249904Y-65968238D01*
X116173714Y-65930142D01*
X115983238Y-65930142D01*
X115907047Y-65892047D01*
X125221333Y-67051571D02*
X124916571Y-67051571D01*
X125107047Y-67584904D02*
X125107047Y-66899190D01*
X125068952Y-66823000D01*
X124992761Y-66784904D01*
X124916571Y-66784904D01*
X124535619Y-67584904D02*
X124611809Y-67546809D01*
X124649904Y-67508714D01*
X124688000Y-67432523D01*
X124688000Y-67203952D01*
X124649904Y-67127761D01*
X124611809Y-67089666D01*
X124535619Y-67051571D01*
X124421333Y-67051571D01*
X124345142Y-67089666D01*
X124307047Y-67127761D01*
X124268952Y-67203952D01*
X124268952Y-67432523D01*
X124307047Y-67508714D01*
X124345142Y-67546809D01*
X124421333Y-67584904D01*
X124535619Y-67584904D01*
X123926095Y-67584904D02*
X123926095Y-67051571D01*
X123926095Y-67203952D02*
X123888000Y-67127761D01*
X123849904Y-67089666D01*
X123773714Y-67051571D01*
X123697523Y-67051571D01*
X122935619Y-67051571D02*
X122630857Y-67051571D01*
X122821333Y-66784904D02*
X122821333Y-67470619D01*
X122783238Y-67546809D01*
X122707047Y-67584904D01*
X122630857Y-67584904D01*
X122364190Y-67584904D02*
X122364190Y-66784904D01*
X122021333Y-67584904D02*
X122021333Y-67165857D01*
X122059428Y-67089666D01*
X122135619Y-67051571D01*
X122249904Y-67051571D01*
X122326095Y-67089666D01*
X122364190Y-67127761D01*
X121335619Y-67546809D02*
X121411809Y-67584904D01*
X121564190Y-67584904D01*
X121640380Y-67546809D01*
X121678476Y-67470619D01*
X121678476Y-67165857D01*
X121640380Y-67089666D01*
X121564190Y-67051571D01*
X121411809Y-67051571D01*
X121335619Y-67089666D01*
X121297523Y-67165857D01*
X121297523Y-67242047D01*
X121678476Y-67318238D01*
X120383238Y-67546809D02*
X120307047Y-67584904D01*
X120154666Y-67584904D01*
X120078476Y-67546809D01*
X120040380Y-67470619D01*
X120040380Y-67432523D01*
X120078476Y-67356333D01*
X120154666Y-67318238D01*
X120268952Y-67318238D01*
X120345142Y-67280142D01*
X120383238Y-67203952D01*
X120383238Y-67165857D01*
X120345142Y-67089666D01*
X120268952Y-67051571D01*
X120154666Y-67051571D01*
X120078476Y-67089666D01*
X119354666Y-67546809D02*
X119430857Y-67584904D01*
X119583238Y-67584904D01*
X119659428Y-67546809D01*
X119697523Y-67508714D01*
X119735619Y-67432523D01*
X119735619Y-67203952D01*
X119697523Y-67127761D01*
X119659428Y-67089666D01*
X119583238Y-67051571D01*
X119430857Y-67051571D01*
X119354666Y-67089666D01*
X119011809Y-67584904D02*
X119011809Y-66784904D01*
X118668952Y-67584904D02*
X118668952Y-67165857D01*
X118707047Y-67089666D01*
X118783238Y-67051571D01*
X118897523Y-67051571D01*
X118973714Y-67089666D01*
X119011809Y-67127761D01*
X117983238Y-67546809D02*
X118059428Y-67584904D01*
X118211809Y-67584904D01*
X118288000Y-67546809D01*
X118326095Y-67470619D01*
X118326095Y-67165857D01*
X118288000Y-67089666D01*
X118211809Y-67051571D01*
X118059428Y-67051571D01*
X117983238Y-67089666D01*
X117945142Y-67165857D01*
X117945142Y-67242047D01*
X118326095Y-67318238D01*
X117602285Y-67584904D02*
X117602285Y-67051571D01*
X117602285Y-67127761D02*
X117564190Y-67089666D01*
X117488000Y-67051571D01*
X117373714Y-67051571D01*
X117297523Y-67089666D01*
X117259428Y-67165857D01*
X117259428Y-67584904D01*
X117259428Y-67165857D02*
X117221333Y-67089666D01*
X117145142Y-67051571D01*
X117030857Y-67051571D01*
X116954666Y-67089666D01*
X116916571Y-67165857D01*
X116916571Y-67584904D01*
X116192761Y-67584904D02*
X116192761Y-67165857D01*
X116230857Y-67089666D01*
X116307047Y-67051571D01*
X116459428Y-67051571D01*
X116535619Y-67089666D01*
X116192761Y-67546809D02*
X116268952Y-67584904D01*
X116459428Y-67584904D01*
X116535619Y-67546809D01*
X116573714Y-67470619D01*
X116573714Y-67394428D01*
X116535619Y-67318238D01*
X116459428Y-67280142D01*
X116268952Y-67280142D01*
X116192761Y-67242047D01*
X115926095Y-67051571D02*
X115621333Y-67051571D01*
X115811809Y-66784904D02*
X115811809Y-67470619D01*
X115773714Y-67546809D01*
X115697523Y-67584904D01*
X115621333Y-67584904D01*
X115354666Y-67584904D02*
X115354666Y-67051571D01*
X115354666Y-66784904D02*
X115392761Y-66823000D01*
X115354666Y-66861095D01*
X115316571Y-66823000D01*
X115354666Y-66784904D01*
X115354666Y-66861095D01*
X114630857Y-67546809D02*
X114707047Y-67584904D01*
X114859428Y-67584904D01*
X114935619Y-67546809D01*
X114973714Y-67508714D01*
X115011809Y-67432523D01*
X115011809Y-67203952D01*
X114973714Y-67127761D01*
X114935619Y-67089666D01*
X114859428Y-67051571D01*
X114707047Y-67051571D01*
X114630857Y-67089666D01*
X124097523Y-68934904D02*
X124097523Y-68515857D01*
X124135619Y-68439666D01*
X124211809Y-68401571D01*
X124364190Y-68401571D01*
X124440380Y-68439666D01*
X124097523Y-68896809D02*
X124173714Y-68934904D01*
X124364190Y-68934904D01*
X124440380Y-68896809D01*
X124478476Y-68820619D01*
X124478476Y-68744428D01*
X124440380Y-68668238D01*
X124364190Y-68630142D01*
X124173714Y-68630142D01*
X124097523Y-68592047D01*
X123716571Y-68401571D02*
X123716571Y-68934904D01*
X123716571Y-68477761D02*
X123678476Y-68439666D01*
X123602285Y-68401571D01*
X123488000Y-68401571D01*
X123411809Y-68439666D01*
X123373714Y-68515857D01*
X123373714Y-68934904D01*
X122649904Y-68934904D02*
X122649904Y-68134904D01*
X122649904Y-68896809D02*
X122726095Y-68934904D01*
X122878476Y-68934904D01*
X122954666Y-68896809D01*
X122992761Y-68858714D01*
X123030857Y-68782523D01*
X123030857Y-68553952D01*
X122992761Y-68477761D01*
X122954666Y-68439666D01*
X122878476Y-68401571D01*
X122726095Y-68401571D01*
X122649904Y-68439666D01*
X121316571Y-68934904D02*
X121316571Y-68134904D01*
X121316571Y-68896809D02*
X121392761Y-68934904D01*
X121545142Y-68934904D01*
X121621333Y-68896809D01*
X121659428Y-68858714D01*
X121697523Y-68782523D01*
X121697523Y-68553952D01*
X121659428Y-68477761D01*
X121621333Y-68439666D01*
X121545142Y-68401571D01*
X121392761Y-68401571D01*
X121316571Y-68439666D01*
X120935619Y-68934904D02*
X120935619Y-68401571D01*
X120935619Y-68134904D02*
X120973714Y-68173000D01*
X120935619Y-68211095D01*
X120897523Y-68173000D01*
X120935619Y-68134904D01*
X120935619Y-68211095D01*
X120554666Y-68934904D02*
X120554666Y-68401571D01*
X120554666Y-68477761D02*
X120516571Y-68439666D01*
X120440380Y-68401571D01*
X120326095Y-68401571D01*
X120249904Y-68439666D01*
X120211809Y-68515857D01*
X120211809Y-68934904D01*
X120211809Y-68515857D02*
X120173714Y-68439666D01*
X120097523Y-68401571D01*
X119983238Y-68401571D01*
X119907047Y-68439666D01*
X119868952Y-68515857D01*
X119868952Y-68934904D01*
X119183238Y-68896809D02*
X119259428Y-68934904D01*
X119411809Y-68934904D01*
X119488000Y-68896809D01*
X119526095Y-68820619D01*
X119526095Y-68515857D01*
X119488000Y-68439666D01*
X119411809Y-68401571D01*
X119259428Y-68401571D01*
X119183238Y-68439666D01*
X119145142Y-68515857D01*
X119145142Y-68592047D01*
X119526095Y-68668238D01*
X118802285Y-68401571D02*
X118802285Y-68934904D01*
X118802285Y-68477761D02*
X118764190Y-68439666D01*
X118688000Y-68401571D01*
X118573714Y-68401571D01*
X118497523Y-68439666D01*
X118459428Y-68515857D01*
X118459428Y-68934904D01*
X118116571Y-68896809D02*
X118040380Y-68934904D01*
X117888000Y-68934904D01*
X117811809Y-68896809D01*
X117773714Y-68820619D01*
X117773714Y-68782523D01*
X117811809Y-68706333D01*
X117888000Y-68668238D01*
X118002285Y-68668238D01*
X118078476Y-68630142D01*
X118116571Y-68553952D01*
X118116571Y-68515857D01*
X118078476Y-68439666D01*
X118002285Y-68401571D01*
X117888000Y-68401571D01*
X117811809Y-68439666D01*
X117430857Y-68934904D02*
X117430857Y-68401571D01*
X117430857Y-68134904D02*
X117468952Y-68173000D01*
X117430857Y-68211095D01*
X117392761Y-68173000D01*
X117430857Y-68134904D01*
X117430857Y-68211095D01*
X116935619Y-68934904D02*
X117011809Y-68896809D01*
X117049904Y-68858714D01*
X117088000Y-68782523D01*
X117088000Y-68553952D01*
X117049904Y-68477761D01*
X117011809Y-68439666D01*
X116935619Y-68401571D01*
X116821333Y-68401571D01*
X116745142Y-68439666D01*
X116707047Y-68477761D01*
X116668952Y-68553952D01*
X116668952Y-68782523D01*
X116707047Y-68858714D01*
X116745142Y-68896809D01*
X116821333Y-68934904D01*
X116935619Y-68934904D01*
X116326095Y-68401571D02*
X116326095Y-68934904D01*
X116326095Y-68477761D02*
X116288000Y-68439666D01*
X116211809Y-68401571D01*
X116097523Y-68401571D01*
X116021333Y-68439666D01*
X115983238Y-68515857D01*
X115983238Y-68934904D01*
X115640380Y-68896809D02*
X115564190Y-68934904D01*
X115411809Y-68934904D01*
X115335619Y-68896809D01*
X115297523Y-68820619D01*
X115297523Y-68782523D01*
X115335619Y-68706333D01*
X115411809Y-68668238D01*
X115526095Y-68668238D01*
X115602285Y-68630142D01*
X115640380Y-68553952D01*
X115640380Y-68515857D01*
X115602285Y-68439666D01*
X115526095Y-68401571D01*
X115411809Y-68401571D01*
X115335619Y-68439666D01*
D11*
%TO.C,USB*%
X115204900Y-57370900D02*
X115204900Y-55370900D01*
X124604900Y-57370900D02*
X124604900Y-55370900D01*
D10*
X121162604Y-55014880D02*
X121162604Y-55824404D01*
X121114985Y-55919642D01*
X121067366Y-55967261D01*
X120972128Y-56014880D01*
X120781652Y-56014880D01*
X120686414Y-55967261D01*
X120638795Y-55919642D01*
X120591176Y-55824404D01*
X120591176Y-55014880D01*
X120162604Y-55967261D02*
X120019747Y-56014880D01*
X119781652Y-56014880D01*
X119686414Y-55967261D01*
X119638795Y-55919642D01*
X119591176Y-55824404D01*
X119591176Y-55729166D01*
X119638795Y-55633928D01*
X119686414Y-55586309D01*
X119781652Y-55538690D01*
X119972128Y-55491071D01*
X120067366Y-55443452D01*
X120114985Y-55395833D01*
X120162604Y-55300595D01*
X120162604Y-55205357D01*
X120114985Y-55110119D01*
X120067366Y-55062500D01*
X119972128Y-55014880D01*
X119734033Y-55014880D01*
X119591176Y-55062500D01*
X118829271Y-55491071D02*
X118686414Y-55538690D01*
X118638795Y-55586309D01*
X118591176Y-55681547D01*
X118591176Y-55824404D01*
X118638795Y-55919642D01*
X118686414Y-55967261D01*
X118781652Y-56014880D01*
X119162604Y-56014880D01*
X119162604Y-55014880D01*
X118829271Y-55014880D01*
X118734033Y-55062500D01*
X118686414Y-55110119D01*
X118638795Y-55205357D01*
X118638795Y-55300595D01*
X118686414Y-55395833D01*
X118734033Y-55443452D01*
X118829271Y-55491071D01*
X119162604Y-55491071D01*
%TD*%
M02*
