%TF.GenerationSoftware,KiCad,Pcbnew,(5.1.10)-1*%
%TF.CreationDate,2022-03-08T18:55:03-05:00*%
%TF.ProjectId,001,3030312e-6b69-4636-9164-5f7063625858,rev?*%
%TF.SameCoordinates,Original*%
%TF.FileFunction,Copper,L1,Top*%
%TF.FilePolarity,Positive*%
%FSLAX46Y46*%
G04 Gerber Fmt 4.6, Leading zero omitted, Abs format (unit mm)*
G04 Created by KiCad (PCBNEW (5.1.10)-1) date 2022-03-08 18:55:03*
%MOMM*%
%LPD*%
G01*
G04 APERTURE LIST*
%TA.AperFunction,ComponentPad*%
%ADD10O,1.000000X2.100000*%
%TD*%
%TA.AperFunction,ComponentPad*%
%ADD11O,1.000000X1.600000*%
%TD*%
%TA.AperFunction,SMDPad,CuDef*%
%ADD12R,1.060000X1.580000*%
%TD*%
%TA.AperFunction,SMDPad,CuDef*%
%ADD13R,0.600000X2.180000*%
%TD*%
%TA.AperFunction,SMDPad,CuDef*%
%ADD14R,1.041400X0.355600*%
%TD*%
%TA.AperFunction,SMDPad,CuDef*%
%ADD15R,0.762000X0.355600*%
%TD*%
%TA.AperFunction,ViaPad*%
%ADD16C,0.400000*%
%TD*%
%TA.AperFunction,Conductor*%
%ADD17C,0.200000*%
%TD*%
%TA.AperFunction,Conductor*%
%ADD18C,0.250000*%
%TD*%
%TA.AperFunction,Conductor*%
%ADD19C,0.100000*%
%TD*%
G04 APERTURE END LIST*
%TO.P,R2,2*%
%TO.N,Net-(J1-PadB5)*%
%TA.AperFunction,SMDPad,CuDef*%
G36*
G01*
X121479900Y-54183400D02*
X121479900Y-54658400D01*
G75*
G02*
X121242400Y-54895900I-237500J0D01*
G01*
X120742400Y-54895900D01*
G75*
G02*
X120504900Y-54658400I0J237500D01*
G01*
X120504900Y-54183400D01*
G75*
G02*
X120742400Y-53945900I237500J0D01*
G01*
X121242400Y-53945900D01*
G75*
G02*
X121479900Y-54183400I0J-237500D01*
G01*
G37*
%TD.AperFunction*%
%TO.P,R2,1*%
%TO.N,GND*%
%TA.AperFunction,SMDPad,CuDef*%
G36*
G01*
X123304900Y-54183400D02*
X123304900Y-54658400D01*
G75*
G02*
X123067400Y-54895900I-237500J0D01*
G01*
X122567400Y-54895900D01*
G75*
G02*
X122329900Y-54658400I0J237500D01*
G01*
X122329900Y-54183400D01*
G75*
G02*
X122567400Y-53945900I237500J0D01*
G01*
X123067400Y-53945900D01*
G75*
G02*
X123304900Y-54183400I0J-237500D01*
G01*
G37*
%TD.AperFunction*%
%TD*%
%TO.P,R3,1*%
%TO.N,/d-*%
%TA.AperFunction,SMDPad,CuDef*%
G36*
G01*
X116117400Y-61358400D02*
X116117400Y-60883400D01*
G75*
G02*
X116354900Y-60645900I237500J0D01*
G01*
X116854900Y-60645900D01*
G75*
G02*
X117092400Y-60883400I0J-237500D01*
G01*
X117092400Y-61358400D01*
G75*
G02*
X116854900Y-61595900I-237500J0D01*
G01*
X116354900Y-61595900D01*
G75*
G02*
X116117400Y-61358400I0J237500D01*
G01*
G37*
%TD.AperFunction*%
%TO.P,R3,2*%
%TO.N,Net-(J1-PadA7)*%
%TA.AperFunction,SMDPad,CuDef*%
G36*
G01*
X117942400Y-61358400D02*
X117942400Y-60883400D01*
G75*
G02*
X118179900Y-60645900I237500J0D01*
G01*
X118679900Y-60645900D01*
G75*
G02*
X118917400Y-60883400I0J-237500D01*
G01*
X118917400Y-61358400D01*
G75*
G02*
X118679900Y-61595900I-237500J0D01*
G01*
X118179900Y-61595900D01*
G75*
G02*
X117942400Y-61358400I0J237500D01*
G01*
G37*
%TD.AperFunction*%
%TD*%
%TO.P,R4,2*%
%TO.N,Net-(J1-PadA6)*%
%TA.AperFunction,SMDPad,CuDef*%
G36*
G01*
X117817400Y-57058400D02*
X117817400Y-56583400D01*
G75*
G02*
X118054900Y-56345900I237500J0D01*
G01*
X118554900Y-56345900D01*
G75*
G02*
X118792400Y-56583400I0J-237500D01*
G01*
X118792400Y-57058400D01*
G75*
G02*
X118554900Y-57295900I-237500J0D01*
G01*
X118054900Y-57295900D01*
G75*
G02*
X117817400Y-57058400I0J237500D01*
G01*
G37*
%TD.AperFunction*%
%TO.P,R4,1*%
%TO.N,/d+*%
%TA.AperFunction,SMDPad,CuDef*%
G36*
G01*
X115992400Y-57058400D02*
X115992400Y-56583400D01*
G75*
G02*
X116229900Y-56345900I237500J0D01*
G01*
X116729900Y-56345900D01*
G75*
G02*
X116967400Y-56583400I0J-237500D01*
G01*
X116967400Y-57058400D01*
G75*
G02*
X116729900Y-57295900I-237500J0D01*
G01*
X116229900Y-57295900D01*
G75*
G02*
X115992400Y-57058400I0J237500D01*
G01*
G37*
%TD.AperFunction*%
%TD*%
%TO.P,R1,1*%
%TO.N,GND*%
%TA.AperFunction,SMDPad,CuDef*%
G36*
G01*
X116492400Y-54708400D02*
X116492400Y-54233400D01*
G75*
G02*
X116729900Y-53995900I237500J0D01*
G01*
X117229900Y-53995900D01*
G75*
G02*
X117467400Y-54233400I0J-237500D01*
G01*
X117467400Y-54708400D01*
G75*
G02*
X117229900Y-54945900I-237500J0D01*
G01*
X116729900Y-54945900D01*
G75*
G02*
X116492400Y-54708400I0J237500D01*
G01*
G37*
%TD.AperFunction*%
%TO.P,R1,2*%
%TO.N,Net-(J1-PadA5)*%
%TA.AperFunction,SMDPad,CuDef*%
G36*
G01*
X118317400Y-54708400D02*
X118317400Y-54233400D01*
G75*
G02*
X118554900Y-53995900I237500J0D01*
G01*
X119054900Y-53995900D01*
G75*
G02*
X119292400Y-54233400I0J-237500D01*
G01*
X119292400Y-54708400D01*
G75*
G02*
X119054900Y-54945900I-237500J0D01*
G01*
X118554900Y-54945900D01*
G75*
G02*
X118317400Y-54708400I0J237500D01*
G01*
G37*
%TD.AperFunction*%
%TD*%
D10*
%TO.P,USB,S1*%
%TO.N,GND*%
X124224900Y-58600900D03*
X115584900Y-58600900D03*
D11*
X115584900Y-54420900D03*
X124224900Y-54420900D03*
%TD*%
D12*
%TO.P,D1,7*%
%TO.N,VCC*%
X122854900Y-72620900D03*
D13*
%TO.P,D1,6*%
X121704900Y-72920900D03*
%TO.P,D1,5*%
%TO.N,/B*%
X120804900Y-72920900D03*
%TO.P,D1,4*%
%TO.N,/R*%
X119904900Y-72920900D03*
%TO.P,D1,3*%
%TO.N,/G*%
X119004900Y-72920900D03*
%TO.P,D1,2*%
%TO.N,VCC*%
X118104900Y-72920900D03*
D12*
%TO.P,D1,1*%
X116954900Y-72620900D03*
%TD*%
D14*
%TO.P,J2,16*%
%TO.N,N/C*%
X106358300Y-62920900D03*
%TO.P,J2,15*%
X106358300Y-54830899D03*
D15*
%TO.P,J2,12*%
%TO.N,/R*%
X109008300Y-61120900D03*
%TO.P,J2,11*%
%TO.N,/G*%
X109008300Y-60620901D03*
%TO.P,J2,10*%
%TO.N,GND*%
X109008300Y-60120899D03*
%TO.P,J2,9*%
%TO.N,VCC*%
X109008300Y-59620900D03*
%TO.P,J2,8*%
X109008300Y-59120901D03*
%TO.P,J2,7*%
X109008300Y-58620900D03*
%TO.P,J2,6*%
%TO.N,GND*%
X109008300Y-58120900D03*
%TO.P,J2,5*%
%TO.N,/d-*%
X109008300Y-57620899D03*
%TO.P,J2,4*%
%TO.N,GND*%
X109008300Y-57120900D03*
%TO.P,J2,3*%
%TO.N,/d+*%
X109008300Y-56620901D03*
%TO.P,J2,2*%
%TO.N,GND*%
X109008300Y-56120899D03*
%TO.P,J2,1*%
X109008300Y-55620900D03*
%TO.P,J2,13*%
%TO.N,/B*%
X109008300Y-61620900D03*
%TO.P,J2,14*%
%TO.N,GND*%
X108998300Y-62120900D03*
%TD*%
D14*
%TO.P,011,14*%
%TO.N,N/C*%
X104995200Y-62414600D03*
%TO.P,011,13*%
X104995200Y-55334598D03*
D15*
%TO.P,011,12*%
%TO.N,GND*%
X107645200Y-61624599D03*
%TO.P,011,11*%
%TO.N,/B*%
X107645200Y-61124600D03*
%TO.P,011,10*%
%TO.N,/R*%
X107645200Y-60624598D03*
%TO.P,011,9*%
%TO.N,/G*%
X107645200Y-60124599D03*
%TO.P,011,8*%
%TO.N,VCC*%
X107645200Y-59624600D03*
%TO.P,011,7*%
%TO.N,GND*%
X107645200Y-59124599D03*
%TO.P,011,6*%
%TO.N,Net-(J3-Pad5)*%
X107645200Y-58624599D03*
%TO.P,011,5*%
X107645200Y-58124598D03*
%TO.P,011,4*%
%TO.N,GND*%
X107645200Y-57624599D03*
%TO.P,011,3*%
%TO.N,/d-*%
X107645200Y-57124600D03*
%TO.P,011,2*%
%TO.N,/d+*%
X107645200Y-56624598D03*
%TO.P,011,1*%
%TO.N,GND*%
X107645200Y-56124599D03*
%TD*%
D16*
%TO.N,GND*%
X114465100Y-56540400D03*
X110159800Y-58788300D03*
X110350300Y-57124600D03*
X112306100Y-54254400D03*
X106527600Y-57569100D03*
X119507000Y-68986400D03*
X116382800Y-70878700D03*
X112052100Y-59893200D03*
X112953800Y-58864500D03*
X109791500Y-59969400D03*
X106464100Y-56146700D03*
X121742200Y-70624700D03*
X106553000Y-59029600D03*
X110151346Y-62124454D03*
%TO.N,Net-(J1-PadA6)*%
X119204900Y-56620900D03*
%TO.N,Net-(J1-PadB5)*%
X121004900Y-55420900D03*
%TO.N,Net-(J1-PadA7)*%
X119604900Y-61070900D03*
%TO.N,Net-(J1-PadA5)*%
X118754900Y-55370900D03*
%TO.N,VCC*%
X114546168Y-60779632D03*
X121034901Y-61595901D03*
%TO.N,/R*%
X106857800Y-60629800D03*
X111027496Y-63000604D03*
X109778800Y-61120900D03*
%TO.N,/G*%
X111298071Y-63873029D03*
X110015139Y-60569406D03*
%TD*%
D17*
%TO.N,GND*%
X108998300Y-62120900D02*
X110147792Y-62120900D01*
X110147792Y-62120900D02*
X110151346Y-62124454D01*
%TO.N,Net-(J1-PadA6)*%
X119204900Y-56620900D02*
X118504900Y-56620900D01*
X118504900Y-56620900D02*
X118304900Y-56820900D01*
D18*
%TO.N,Net-(J1-PadB5)*%
X121004900Y-54433400D02*
X120992400Y-54420900D01*
X121004900Y-55420900D02*
X121004900Y-54433400D01*
D17*
%TO.N,Net-(J1-PadA7)*%
X118429900Y-61120900D02*
X119554900Y-61120900D01*
X119554900Y-61120900D02*
X119604900Y-61070900D01*
D18*
%TO.N,Net-(J1-PadA5)*%
X118754900Y-55370900D02*
X118754900Y-54520900D01*
X118754900Y-54520900D02*
X118804900Y-54470900D01*
D17*
%TO.N,/d-*%
X108326201Y-57206798D02*
X108244003Y-57124600D01*
X108326201Y-57537603D02*
X108326201Y-57206798D01*
X108244003Y-57124600D02*
X107645200Y-57124600D01*
X109008300Y-57620899D02*
X108409497Y-57620899D01*
X108409497Y-57620899D02*
X108326201Y-57537603D01*
X116604900Y-61120900D02*
X116117400Y-61120900D01*
X116117400Y-61120900D02*
X113279264Y-58282764D01*
X113279264Y-58282764D02*
X110268966Y-58282764D01*
X110268966Y-58282764D02*
X109607101Y-57620899D01*
X109607101Y-57620899D02*
X109008300Y-57620899D01*
%TO.N,/d+*%
X107645200Y-56624598D02*
X109004603Y-56624598D01*
X109004603Y-56624598D02*
X109008300Y-56620901D01*
X116479900Y-56820900D02*
X115080214Y-55421214D01*
X115080214Y-55421214D02*
X110806787Y-55421214D01*
X110806787Y-55421214D02*
X109607100Y-56620901D01*
X109607100Y-56620901D02*
X109008300Y-56620901D01*
%TO.N,VCC*%
X109008300Y-59620900D02*
X107648900Y-59620900D01*
X107648900Y-59620900D02*
X107645200Y-59624600D01*
D18*
X122854900Y-72620900D02*
X122854900Y-63415900D01*
X122854900Y-63415900D02*
X121034901Y-61595901D01*
X109008300Y-59120901D02*
X109639300Y-59120901D01*
X116954900Y-72620900D02*
X116954900Y-73660900D01*
X109008300Y-59120901D02*
X109008300Y-58623701D01*
X122854900Y-72620900D02*
X122004900Y-72620900D01*
X122854900Y-73660900D02*
X122854900Y-72620900D01*
X109008300Y-59120901D02*
X109008300Y-59618098D01*
X117629901Y-74335901D02*
X122179899Y-74335901D01*
X122179899Y-74335901D02*
X122854900Y-73660900D01*
X116954900Y-72620900D02*
X117804900Y-72620900D01*
X109639300Y-59120901D02*
X111298031Y-60779632D01*
X116954900Y-73660900D02*
X117629901Y-74335901D01*
X117804900Y-72620900D02*
X118104900Y-72920900D01*
X111298031Y-60779632D02*
X114546168Y-60779632D01*
X122004900Y-72620900D02*
X121704900Y-72920900D01*
D17*
%TO.N,/B*%
X108409498Y-61620900D02*
X108326201Y-61537603D01*
X109008300Y-61620900D02*
X108409498Y-61620900D01*
X108326201Y-61537603D02*
X108326201Y-61206798D01*
X108326201Y-61206798D02*
X108244003Y-61124600D01*
X108244003Y-61124600D02*
X107645200Y-61124600D01*
X110354899Y-61620900D02*
X109008300Y-61620900D01*
X111908630Y-63210782D02*
X111797127Y-63063128D01*
X120804900Y-72920900D02*
X120804900Y-71630900D01*
X120804900Y-71630900D02*
X120404890Y-71230890D01*
X120404890Y-71230890D02*
X119928738Y-71230890D01*
X119928738Y-71230890D02*
X111908630Y-63210782D01*
X120804900Y-72920900D02*
X120804900Y-72120900D01*
X111797127Y-63063128D02*
X110354899Y-61620900D01*
%TO.N,/R*%
X107639998Y-60629800D02*
X107645200Y-60624598D01*
X106857800Y-60629800D02*
X107639998Y-60629800D01*
X111103975Y-62971825D02*
X111056275Y-62971825D01*
X111056275Y-62971825D02*
X111027496Y-63000604D01*
X109778800Y-61120900D02*
X109008300Y-61120900D01*
X119904900Y-71772750D02*
X119904900Y-72920900D01*
X111103975Y-62971825D02*
X119904900Y-71772750D01*
%TO.N,/G*%
X109008300Y-60620901D02*
X108409500Y-60620901D01*
X108326201Y-60537602D02*
X108326201Y-60206797D01*
X108326201Y-60206797D02*
X108244003Y-60124599D01*
X108409500Y-60620901D02*
X108326201Y-60537602D01*
X108244003Y-60124599D02*
X107645200Y-60124599D01*
X119004900Y-71579858D02*
X111298071Y-63873029D01*
X110015139Y-60569406D02*
X109590292Y-60569406D01*
X109590292Y-60569406D02*
X109538797Y-60620901D01*
X109538797Y-60620901D02*
X109008300Y-60620901D01*
X119004900Y-71630900D02*
X119004900Y-71579858D01*
X119004900Y-71630900D02*
X119004900Y-72920900D01*
X119004900Y-71890898D02*
X119004900Y-72920900D01*
%TO.N,Net-(J3-Pad5)*%
X107645200Y-58624599D02*
X107645200Y-58124598D01*
%TD*%
%TO.N,GND*%
X120536152Y-53685474D02*
X120442975Y-53735279D01*
X120361304Y-53802304D01*
X120294279Y-53883975D01*
X120244474Y-53977152D01*
X120213805Y-54078256D01*
X120203449Y-54183400D01*
X120203449Y-54658400D01*
X120213805Y-54763544D01*
X120244474Y-54864648D01*
X120294279Y-54957825D01*
X120361304Y-55039496D01*
X120442975Y-55106521D01*
X120536152Y-55156326D01*
X120572891Y-55167471D01*
X120561806Y-55184061D01*
X120524115Y-55275055D01*
X120504900Y-55371654D01*
X120504900Y-55470146D01*
X120524115Y-55566745D01*
X120561806Y-55657739D01*
X120616525Y-55739631D01*
X120686169Y-55809275D01*
X120768061Y-55863994D01*
X120859055Y-55901685D01*
X120955654Y-55920900D01*
X121054146Y-55920900D01*
X121150745Y-55901685D01*
X121241739Y-55863994D01*
X121323631Y-55809275D01*
X121393275Y-55739631D01*
X121447994Y-55657739D01*
X121485685Y-55566745D01*
X121504900Y-55470146D01*
X121504900Y-55371654D01*
X121485685Y-55275055D01*
X121447994Y-55184061D01*
X121432695Y-55161165D01*
X121448648Y-55156326D01*
X121541825Y-55106521D01*
X121623496Y-55039496D01*
X121690521Y-54957825D01*
X121740326Y-54864648D01*
X121770995Y-54763544D01*
X121781351Y-54658400D01*
X121781351Y-54183400D01*
X121770995Y-54078256D01*
X121740326Y-53977152D01*
X121690521Y-53883975D01*
X121623496Y-53802304D01*
X121541825Y-53735279D01*
X121448648Y-53685474D01*
X121381153Y-53665000D01*
X129088001Y-53665000D01*
X129088000Y-64258884D01*
X123984482Y-69610983D01*
X123975080Y-69618699D01*
X123962452Y-69634085D01*
X123959779Y-69636889D01*
X123952322Y-69646429D01*
X123934466Y-69668186D01*
X123932629Y-69671623D01*
X123930230Y-69674692D01*
X123917555Y-69699824D01*
X123904288Y-69724646D01*
X123903157Y-69728374D01*
X123901402Y-69731854D01*
X123893866Y-69759002D01*
X123885704Y-69785909D01*
X123885323Y-69789780D01*
X123884279Y-69793540D01*
X123882185Y-69821642D01*
X123881001Y-69833659D01*
X123881001Y-69837523D01*
X123879521Y-69857381D01*
X123881001Y-69869458D01*
X123881000Y-75049500D01*
X115958500Y-75049500D01*
X115958500Y-69870776D01*
X115959928Y-69859657D01*
X115958500Y-69838868D01*
X115958500Y-69834039D01*
X115957404Y-69822911D01*
X115955541Y-69795789D01*
X115954272Y-69791112D01*
X115953797Y-69786289D01*
X115945901Y-69760260D01*
X115938777Y-69734003D01*
X115936619Y-69729663D01*
X115935213Y-69725026D01*
X115922388Y-69701031D01*
X115910281Y-69676675D01*
X115907321Y-69672842D01*
X115905035Y-69668566D01*
X115887765Y-69647524D01*
X115880952Y-69638702D01*
X115877653Y-69635202D01*
X115864421Y-69619079D01*
X115855748Y-69611961D01*
X110670654Y-64110702D01*
X110657421Y-64094579D01*
X110636379Y-64077310D01*
X110615884Y-64059450D01*
X110611684Y-64057043D01*
X110607934Y-64053965D01*
X110583918Y-64041129D01*
X110560341Y-64027615D01*
X110555750Y-64026073D01*
X110551474Y-64023787D01*
X110525438Y-64015889D01*
X110499655Y-64007227D01*
X110494848Y-64006610D01*
X110490211Y-64005203D01*
X110463117Y-64002534D01*
X110436157Y-63999072D01*
X110415368Y-64000500D01*
X104465000Y-64000500D01*
X104465000Y-62892915D01*
X104474500Y-62893851D01*
X105515900Y-62893851D01*
X105536149Y-62891857D01*
X105536149Y-63098700D01*
X105541941Y-63157510D01*
X105559096Y-63214060D01*
X105586953Y-63266177D01*
X105624442Y-63311858D01*
X105670123Y-63349347D01*
X105722240Y-63377204D01*
X105778790Y-63394359D01*
X105837600Y-63400151D01*
X106879000Y-63400151D01*
X106937810Y-63394359D01*
X106994360Y-63377204D01*
X107046477Y-63349347D01*
X107092158Y-63311858D01*
X107129647Y-63266177D01*
X107157504Y-63214060D01*
X107174659Y-63157510D01*
X107180451Y-63098700D01*
X107180451Y-62743100D01*
X107174659Y-62684290D01*
X107157504Y-62627740D01*
X107129647Y-62575623D01*
X107092158Y-62529942D01*
X107046477Y-62492453D01*
X106994360Y-62464596D01*
X106937810Y-62447441D01*
X106879000Y-62441649D01*
X105837600Y-62441649D01*
X105817351Y-62443643D01*
X105817351Y-62236800D01*
X105811559Y-62177990D01*
X105794404Y-62121440D01*
X105766547Y-62069323D01*
X105729058Y-62023642D01*
X105683377Y-61986153D01*
X105631260Y-61958296D01*
X105574710Y-61941141D01*
X105515900Y-61935349D01*
X104474500Y-61935349D01*
X104465000Y-61936285D01*
X104465000Y-60580554D01*
X106357800Y-60580554D01*
X106357800Y-60679046D01*
X106377015Y-60775645D01*
X106414706Y-60866639D01*
X106469425Y-60948531D01*
X106539069Y-61018175D01*
X106620961Y-61072894D01*
X106711955Y-61110585D01*
X106808554Y-61129800D01*
X106907046Y-61129800D01*
X106962749Y-61118720D01*
X106962749Y-61302400D01*
X106968541Y-61361210D01*
X106985696Y-61417760D01*
X107013553Y-61469877D01*
X107051042Y-61515558D01*
X107096723Y-61553047D01*
X107148840Y-61580904D01*
X107205390Y-61598059D01*
X107264200Y-61603851D01*
X107930791Y-61603851D01*
X107931989Y-61616016D01*
X107954861Y-61691416D01*
X107992004Y-61760905D01*
X108041990Y-61821814D01*
X108057253Y-61834340D01*
X108112761Y-61889848D01*
X108125287Y-61905111D01*
X108186195Y-61955097D01*
X108255684Y-61992240D01*
X108320357Y-62011858D01*
X108331084Y-62015112D01*
X108409498Y-62022835D01*
X108425587Y-62021250D01*
X108459823Y-62049347D01*
X108511940Y-62077204D01*
X108568490Y-62094359D01*
X108627300Y-62100151D01*
X109389300Y-62100151D01*
X109448110Y-62094359D01*
X109504660Y-62077204D01*
X109556777Y-62049347D01*
X109591440Y-62020900D01*
X110189214Y-62020900D01*
X110751793Y-62583479D01*
X110708765Y-62612229D01*
X110639121Y-62681873D01*
X110584402Y-62763765D01*
X110546711Y-62854759D01*
X110527496Y-62951358D01*
X110527496Y-63049850D01*
X110546711Y-63146449D01*
X110584402Y-63237443D01*
X110639121Y-63319335D01*
X110708765Y-63388979D01*
X110790657Y-63443698D01*
X110881651Y-63481389D01*
X110965855Y-63498139D01*
X110909696Y-63554298D01*
X110854977Y-63636190D01*
X110817286Y-63727184D01*
X110798071Y-63823783D01*
X110798071Y-63922275D01*
X110817286Y-64018874D01*
X110854977Y-64109868D01*
X110909696Y-64191760D01*
X110979340Y-64261404D01*
X111061232Y-64316123D01*
X111152226Y-64353814D01*
X111228304Y-64368947D01*
X118388805Y-71529449D01*
X117804900Y-71529449D01*
X117746090Y-71535241D01*
X117689540Y-71552396D01*
X117644900Y-71576256D01*
X117600260Y-71552396D01*
X117543710Y-71535241D01*
X117484900Y-71529449D01*
X116424900Y-71529449D01*
X116366090Y-71535241D01*
X116309540Y-71552396D01*
X116257423Y-71580253D01*
X116211742Y-71617742D01*
X116174253Y-71663423D01*
X116146396Y-71715540D01*
X116129241Y-71772090D01*
X116123449Y-71830900D01*
X116123449Y-73410900D01*
X116129241Y-73469710D01*
X116146396Y-73526260D01*
X116174253Y-73578377D01*
X116211742Y-73624058D01*
X116257423Y-73661547D01*
X116309540Y-73689404D01*
X116366090Y-73706559D01*
X116424900Y-73712351D01*
X116532912Y-73712351D01*
X116536050Y-73744214D01*
X116560353Y-73824326D01*
X116560353Y-73824327D01*
X116599817Y-73898160D01*
X116652927Y-73962874D01*
X116669139Y-73976179D01*
X117314617Y-74621657D01*
X117327927Y-74637875D01*
X117392641Y-74690985D01*
X117466472Y-74730448D01*
X117466474Y-74730449D01*
X117546587Y-74754751D01*
X117629901Y-74762957D01*
X117650775Y-74760901D01*
X122159032Y-74760901D01*
X122179899Y-74762956D01*
X122200766Y-74760901D01*
X122200773Y-74760901D01*
X122263213Y-74754751D01*
X122343326Y-74730449D01*
X122417159Y-74690985D01*
X122481873Y-74637875D01*
X122495183Y-74621657D01*
X123140658Y-73976182D01*
X123156874Y-73962874D01*
X123209984Y-73898160D01*
X123249448Y-73824327D01*
X123273750Y-73744214D01*
X123276888Y-73712351D01*
X123384900Y-73712351D01*
X123443710Y-73706559D01*
X123500260Y-73689404D01*
X123552377Y-73661547D01*
X123598058Y-73624058D01*
X123635547Y-73578377D01*
X123663404Y-73526260D01*
X123680559Y-73469710D01*
X123686351Y-73410900D01*
X123686351Y-71830900D01*
X123680559Y-71772090D01*
X123663404Y-71715540D01*
X123635547Y-71663423D01*
X123598058Y-71617742D01*
X123552377Y-71580253D01*
X123500260Y-71552396D01*
X123443710Y-71535241D01*
X123384900Y-71529449D01*
X123279900Y-71529449D01*
X123279900Y-63436766D01*
X123281955Y-63415899D01*
X123279900Y-63395032D01*
X123279900Y-63395026D01*
X123273750Y-63332586D01*
X123273254Y-63330949D01*
X123265502Y-63305397D01*
X123249448Y-63252473D01*
X123209984Y-63178640D01*
X123156874Y-63113926D01*
X123140662Y-63100621D01*
X122267137Y-62227096D01*
X124681263Y-62227096D01*
X124681469Y-62256556D01*
X124681264Y-62286005D01*
X124681706Y-62290521D01*
X124703126Y-62494323D01*
X124709049Y-62523178D01*
X124714569Y-62552113D01*
X124715881Y-62556458D01*
X124776479Y-62752217D01*
X124787898Y-62779381D01*
X124798928Y-62806681D01*
X124801058Y-62810689D01*
X124898525Y-62990951D01*
X124914992Y-63015363D01*
X124931126Y-63040019D01*
X124933994Y-63043536D01*
X125064617Y-63201432D01*
X125085511Y-63222180D01*
X125106128Y-63243233D01*
X125109625Y-63246126D01*
X125268429Y-63375644D01*
X125292974Y-63391951D01*
X125317269Y-63408586D01*
X125321261Y-63410745D01*
X125502198Y-63506951D01*
X125529412Y-63518167D01*
X125556505Y-63529779D01*
X125560840Y-63531122D01*
X125757018Y-63590352D01*
X125785916Y-63596074D01*
X125814726Y-63602197D01*
X125819240Y-63602672D01*
X126023186Y-63622669D01*
X126023192Y-63622669D01*
X126038939Y-63624220D01*
X127270861Y-63624220D01*
X127287644Y-63622567D01*
X127301275Y-63622567D01*
X127305788Y-63622093D01*
X127509435Y-63599250D01*
X127538225Y-63593130D01*
X127567142Y-63587404D01*
X127571477Y-63586062D01*
X127766809Y-63524099D01*
X127793841Y-63512512D01*
X127821117Y-63501270D01*
X127825109Y-63499111D01*
X128004685Y-63400388D01*
X128028992Y-63383745D01*
X128053523Y-63367446D01*
X128057020Y-63364554D01*
X128214002Y-63232832D01*
X128234607Y-63211790D01*
X128255512Y-63191030D01*
X128258381Y-63187513D01*
X128386788Y-63027808D01*
X128402924Y-63003149D01*
X128419389Y-62978739D01*
X128421519Y-62974732D01*
X128516459Y-62793128D01*
X128527476Y-62765859D01*
X128538908Y-62738663D01*
X128540220Y-62734318D01*
X128598079Y-62537731D01*
X128603600Y-62508790D01*
X128609521Y-62479941D01*
X128609965Y-62475424D01*
X128628537Y-62271345D01*
X128628331Y-62241885D01*
X128628536Y-62212436D01*
X128628094Y-62207919D01*
X128606674Y-62004117D01*
X128600751Y-61975263D01*
X128595231Y-61946327D01*
X128593919Y-61941983D01*
X128533321Y-61746223D01*
X128521907Y-61719071D01*
X128510872Y-61691759D01*
X128508742Y-61687752D01*
X128411275Y-61507489D01*
X128394808Y-61483077D01*
X128378674Y-61458421D01*
X128375806Y-61454904D01*
X128245183Y-61297008D01*
X128224272Y-61276243D01*
X128203672Y-61255207D01*
X128200175Y-61252314D01*
X128041370Y-61122796D01*
X128016821Y-61106485D01*
X127992531Y-61089854D01*
X127988539Y-61087695D01*
X127807602Y-60991489D01*
X127780420Y-60980286D01*
X127753295Y-60968660D01*
X127748960Y-60967318D01*
X127552782Y-60908088D01*
X127523884Y-60902366D01*
X127495074Y-60896243D01*
X127490560Y-60895768D01*
X127286614Y-60875771D01*
X127286608Y-60875771D01*
X127270861Y-60874220D01*
X126038939Y-60874220D01*
X126022156Y-60875873D01*
X126008525Y-60875873D01*
X126004012Y-60876347D01*
X125800365Y-60899190D01*
X125771538Y-60905318D01*
X125742658Y-60911037D01*
X125738322Y-60912378D01*
X125542991Y-60974341D01*
X125515947Y-60985933D01*
X125488683Y-60997170D01*
X125484691Y-60999328D01*
X125305115Y-61098052D01*
X125280834Y-61114677D01*
X125256277Y-61130993D01*
X125252780Y-61133886D01*
X125095799Y-61265608D01*
X125075196Y-61286647D01*
X125054288Y-61307410D01*
X125051419Y-61310927D01*
X124923012Y-61470633D01*
X124906876Y-61495292D01*
X124890411Y-61519702D01*
X124888280Y-61523709D01*
X124793341Y-61705312D01*
X124782312Y-61732610D01*
X124770892Y-61759777D01*
X124769580Y-61764121D01*
X124711721Y-61960709D01*
X124706199Y-61989656D01*
X124700279Y-62018499D01*
X124699835Y-62023016D01*
X124681263Y-62227096D01*
X122267137Y-62227096D01*
X121522040Y-61482000D01*
X121515686Y-61450056D01*
X121477995Y-61359062D01*
X121423276Y-61277170D01*
X121353632Y-61207526D01*
X121271740Y-61152807D01*
X121180746Y-61115116D01*
X121084147Y-61095901D01*
X120985655Y-61095901D01*
X120889056Y-61115116D01*
X120798062Y-61152807D01*
X120716170Y-61207526D01*
X120646526Y-61277170D01*
X120591807Y-61359062D01*
X120554116Y-61450056D01*
X120534901Y-61546655D01*
X120534901Y-61645147D01*
X120554116Y-61741746D01*
X120591807Y-61832740D01*
X120646526Y-61914632D01*
X120716170Y-61984276D01*
X120798062Y-62038995D01*
X120889056Y-62076686D01*
X120921000Y-62083040D01*
X122429901Y-63591942D01*
X122429900Y-71529449D01*
X122324900Y-71529449D01*
X122266090Y-71535241D01*
X122209540Y-71552396D01*
X122164900Y-71576256D01*
X122120260Y-71552396D01*
X122063710Y-71535241D01*
X122004900Y-71529449D01*
X121404900Y-71529449D01*
X121346090Y-71535241D01*
X121289540Y-71552396D01*
X121254900Y-71570911D01*
X121220260Y-71552396D01*
X121196939Y-71545321D01*
X121176240Y-71477086D01*
X121139097Y-71407597D01*
X121115249Y-71378538D01*
X121089111Y-71346689D01*
X121073848Y-71334163D01*
X120701625Y-70961940D01*
X120689101Y-70946679D01*
X120628193Y-70896693D01*
X120558704Y-70859550D01*
X120483304Y-70836678D01*
X120424537Y-70830890D01*
X120424536Y-70830890D01*
X120404890Y-70828955D01*
X120385244Y-70830890D01*
X120094423Y-70830890D01*
X112901036Y-63637503D01*
X113041634Y-63637503D01*
X113309847Y-63584152D01*
X113562498Y-63479500D01*
X113789879Y-63327570D01*
X113983250Y-63134199D01*
X114135180Y-62906818D01*
X114239832Y-62654167D01*
X114293183Y-62385954D01*
X114293183Y-62112486D01*
X114239832Y-61844273D01*
X114135180Y-61591622D01*
X113983250Y-61364241D01*
X113823641Y-61204632D01*
X114282250Y-61204632D01*
X114309329Y-61222726D01*
X114400323Y-61260417D01*
X114496922Y-61279632D01*
X114595414Y-61279632D01*
X114692013Y-61260417D01*
X114783007Y-61222726D01*
X114864899Y-61168007D01*
X114934543Y-61098363D01*
X114989262Y-61016471D01*
X115026953Y-60925477D01*
X115046168Y-60828878D01*
X115046168Y-60730386D01*
X115026953Y-60633787D01*
X115000331Y-60569516D01*
X115818870Y-61388055D01*
X115826305Y-61463544D01*
X115856974Y-61564648D01*
X115906779Y-61657825D01*
X115973804Y-61739496D01*
X116055475Y-61806521D01*
X116148652Y-61856326D01*
X116249756Y-61886995D01*
X116354900Y-61897351D01*
X116854900Y-61897351D01*
X116960044Y-61886995D01*
X117061148Y-61856326D01*
X117154325Y-61806521D01*
X117235996Y-61739496D01*
X117303021Y-61657825D01*
X117352826Y-61564648D01*
X117383495Y-61463544D01*
X117393851Y-61358400D01*
X117393851Y-60883400D01*
X117640949Y-60883400D01*
X117640949Y-61358400D01*
X117651305Y-61463544D01*
X117681974Y-61564648D01*
X117731779Y-61657825D01*
X117798804Y-61739496D01*
X117880475Y-61806521D01*
X117973652Y-61856326D01*
X118074756Y-61886995D01*
X118179900Y-61897351D01*
X118679900Y-61897351D01*
X118785044Y-61886995D01*
X118886148Y-61856326D01*
X118979325Y-61806521D01*
X119060996Y-61739496D01*
X119128021Y-61657825D01*
X119177826Y-61564648D01*
X119191097Y-61520900D01*
X119384734Y-61520900D01*
X119459055Y-61551685D01*
X119555654Y-61570900D01*
X119654146Y-61570900D01*
X119750745Y-61551685D01*
X119841739Y-61513994D01*
X119923631Y-61459275D01*
X119993275Y-61389631D01*
X120047994Y-61307739D01*
X120085685Y-61216745D01*
X120104900Y-61120146D01*
X120104900Y-61021654D01*
X120085685Y-60925055D01*
X120047994Y-60834061D01*
X119993275Y-60752169D01*
X119923631Y-60682525D01*
X119841739Y-60627806D01*
X119750745Y-60590115D01*
X119654146Y-60570900D01*
X119555654Y-60570900D01*
X119459055Y-60590115D01*
X119368061Y-60627806D01*
X119286169Y-60682525D01*
X119247794Y-60720900D01*
X119191097Y-60720900D01*
X119177826Y-60677152D01*
X119128021Y-60583975D01*
X119060996Y-60502304D01*
X118979325Y-60435279D01*
X118886148Y-60385474D01*
X118785044Y-60354805D01*
X118679900Y-60344449D01*
X118179900Y-60344449D01*
X118074756Y-60354805D01*
X117973652Y-60385474D01*
X117880475Y-60435279D01*
X117798804Y-60502304D01*
X117731779Y-60583975D01*
X117681974Y-60677152D01*
X117651305Y-60778256D01*
X117640949Y-60883400D01*
X117393851Y-60883400D01*
X117383495Y-60778256D01*
X117352826Y-60677152D01*
X117303021Y-60583975D01*
X117235996Y-60502304D01*
X117154325Y-60435279D01*
X117061148Y-60385474D01*
X116960044Y-60354805D01*
X116854900Y-60344449D01*
X116354900Y-60344449D01*
X116249756Y-60354805D01*
X116148652Y-60385474D01*
X116055475Y-60435279D01*
X116023613Y-60461428D01*
X113576001Y-58013816D01*
X113563475Y-57998553D01*
X113502567Y-57948567D01*
X113433078Y-57911424D01*
X113387454Y-57897584D01*
X113519120Y-57765918D01*
X113676496Y-57530388D01*
X113784899Y-57268681D01*
X113840162Y-56990855D01*
X113840162Y-56707585D01*
X113784899Y-56429759D01*
X113676496Y-56168052D01*
X113519120Y-55932522D01*
X113407812Y-55821214D01*
X114914529Y-55821214D01*
X115690949Y-56597635D01*
X115690949Y-57058400D01*
X115701305Y-57163544D01*
X115731974Y-57264648D01*
X115781779Y-57357825D01*
X115848804Y-57439496D01*
X115930475Y-57506521D01*
X116023652Y-57556326D01*
X116124756Y-57586995D01*
X116229900Y-57597351D01*
X116604566Y-57597351D01*
X116529431Y-57672486D01*
X116461032Y-57774852D01*
X116413919Y-57888594D01*
X116389900Y-58009343D01*
X116389900Y-58132457D01*
X116413919Y-58253206D01*
X116461032Y-58366948D01*
X116529431Y-58469314D01*
X116616486Y-58556369D01*
X116718852Y-58624768D01*
X116832594Y-58671881D01*
X116953343Y-58695900D01*
X117076457Y-58695900D01*
X117197206Y-58671881D01*
X117310948Y-58624768D01*
X117413314Y-58556369D01*
X117500369Y-58469314D01*
X117568768Y-58366948D01*
X117615881Y-58253206D01*
X117639900Y-58132457D01*
X117639900Y-58009343D01*
X122169900Y-58009343D01*
X122169900Y-58132457D01*
X122193919Y-58253206D01*
X122241032Y-58366948D01*
X122309431Y-58469314D01*
X122396486Y-58556369D01*
X122498852Y-58624768D01*
X122612594Y-58671881D01*
X122733343Y-58695900D01*
X122856457Y-58695900D01*
X122977206Y-58671881D01*
X123090948Y-58624768D01*
X123193314Y-58556369D01*
X123280369Y-58469314D01*
X123348768Y-58366948D01*
X123395881Y-58253206D01*
X123419900Y-58132457D01*
X123419900Y-58009343D01*
X123395881Y-57888594D01*
X123348768Y-57774852D01*
X123280369Y-57672486D01*
X123193314Y-57585431D01*
X123090948Y-57517032D01*
X122977206Y-57469919D01*
X122856457Y-57445900D01*
X122733343Y-57445900D01*
X122612594Y-57469919D01*
X122498852Y-57517032D01*
X122396486Y-57585431D01*
X122309431Y-57672486D01*
X122241032Y-57774852D01*
X122193919Y-57888594D01*
X122169900Y-58009343D01*
X117639900Y-58009343D01*
X117615881Y-57888594D01*
X117568768Y-57774852D01*
X117500369Y-57672486D01*
X117413314Y-57585431D01*
X117310948Y-57517032D01*
X117197206Y-57469919D01*
X117097977Y-57450181D01*
X117110996Y-57439496D01*
X117178021Y-57357825D01*
X117227826Y-57264648D01*
X117258495Y-57163544D01*
X117268851Y-57058400D01*
X117268851Y-56583400D01*
X117515949Y-56583400D01*
X117515949Y-57058400D01*
X117526305Y-57163544D01*
X117556974Y-57264648D01*
X117606779Y-57357825D01*
X117673804Y-57439496D01*
X117755475Y-57506521D01*
X117848652Y-57556326D01*
X117949756Y-57586995D01*
X118054900Y-57597351D01*
X118554900Y-57597351D01*
X118660044Y-57586995D01*
X118761148Y-57556326D01*
X118854325Y-57506521D01*
X118935996Y-57439496D01*
X119003021Y-57357825D01*
X119052826Y-57264648D01*
X119083495Y-57163544D01*
X119089001Y-57107642D01*
X119155654Y-57120900D01*
X119254146Y-57120900D01*
X119350745Y-57101685D01*
X119441739Y-57063994D01*
X119523631Y-57009275D01*
X119593275Y-56939631D01*
X119647994Y-56857739D01*
X119685685Y-56766745D01*
X119697452Y-56707585D01*
X125964078Y-56707585D01*
X125964078Y-56990855D01*
X126019341Y-57268681D01*
X126127744Y-57530388D01*
X126285120Y-57765918D01*
X126485422Y-57966220D01*
X126720952Y-58123596D01*
X126982659Y-58231999D01*
X127260485Y-58287262D01*
X127543755Y-58287262D01*
X127821581Y-58231999D01*
X128083288Y-58123596D01*
X128318818Y-57966220D01*
X128519120Y-57765918D01*
X128676496Y-57530388D01*
X128784899Y-57268681D01*
X128840162Y-56990855D01*
X128840162Y-56707585D01*
X128784899Y-56429759D01*
X128676496Y-56168052D01*
X128519120Y-55932522D01*
X128318818Y-55732220D01*
X128083288Y-55574844D01*
X127821581Y-55466441D01*
X127543755Y-55411178D01*
X127260485Y-55411178D01*
X126982659Y-55466441D01*
X126720952Y-55574844D01*
X126485422Y-55732220D01*
X126285120Y-55932522D01*
X126127744Y-56168052D01*
X126019341Y-56429759D01*
X125964078Y-56707585D01*
X119697452Y-56707585D01*
X119704900Y-56670146D01*
X119704900Y-56571654D01*
X119685685Y-56475055D01*
X119647994Y-56384061D01*
X119593275Y-56302169D01*
X119523631Y-56232525D01*
X119441739Y-56177806D01*
X119350745Y-56140115D01*
X119254146Y-56120900D01*
X119155654Y-56120900D01*
X119059055Y-56140115D01*
X118968061Y-56177806D01*
X118933932Y-56200610D01*
X118854325Y-56135279D01*
X118761148Y-56085474D01*
X118660044Y-56054805D01*
X118554900Y-56044449D01*
X118054900Y-56044449D01*
X117949756Y-56054805D01*
X117848652Y-56085474D01*
X117755475Y-56135279D01*
X117673804Y-56202304D01*
X117606779Y-56283975D01*
X117556974Y-56377152D01*
X117526305Y-56478256D01*
X117515949Y-56583400D01*
X117268851Y-56583400D01*
X117258495Y-56478256D01*
X117227826Y-56377152D01*
X117178021Y-56283975D01*
X117110996Y-56202304D01*
X117029325Y-56135279D01*
X116936148Y-56085474D01*
X116835044Y-56054805D01*
X116729900Y-56044449D01*
X116269135Y-56044449D01*
X115376951Y-55152266D01*
X115364425Y-55137003D01*
X115303517Y-55087017D01*
X115234028Y-55049874D01*
X115158628Y-55027002D01*
X115099861Y-55021214D01*
X115099860Y-55021214D01*
X115080214Y-55019279D01*
X115060568Y-55021214D01*
X110826434Y-55021214D01*
X110806787Y-55019279D01*
X110787140Y-55021214D01*
X110728373Y-55027002D01*
X110652973Y-55049874D01*
X110583484Y-55087017D01*
X110522576Y-55137003D01*
X110510050Y-55152266D01*
X109499335Y-56162981D01*
X109448110Y-56147442D01*
X109389300Y-56141650D01*
X108627300Y-56141650D01*
X108568490Y-56147442D01*
X108511940Y-56164597D01*
X108459823Y-56192454D01*
X108420655Y-56224598D01*
X108228340Y-56224598D01*
X108193677Y-56196151D01*
X108141560Y-56168294D01*
X108085010Y-56151139D01*
X108026200Y-56145347D01*
X107264200Y-56145347D01*
X107205390Y-56151139D01*
X107148840Y-56168294D01*
X107096723Y-56196151D01*
X107051042Y-56233640D01*
X107013553Y-56279321D01*
X106985696Y-56331438D01*
X106968541Y-56387988D01*
X106962749Y-56446798D01*
X106962749Y-56802398D01*
X106968541Y-56861208D01*
X106972603Y-56874599D01*
X106968541Y-56887990D01*
X106962749Y-56946800D01*
X106962749Y-57302400D01*
X106968541Y-57361210D01*
X106985696Y-57417760D01*
X107013553Y-57469877D01*
X107051042Y-57515558D01*
X107096723Y-57553047D01*
X107148840Y-57580904D01*
X107205390Y-57598059D01*
X107264200Y-57603851D01*
X107930791Y-57603851D01*
X107931989Y-57616016D01*
X107940886Y-57645347D01*
X107264200Y-57645347D01*
X107205390Y-57651139D01*
X107148840Y-57668294D01*
X107096723Y-57696151D01*
X107051042Y-57733640D01*
X107013553Y-57779321D01*
X106985696Y-57831438D01*
X106968541Y-57887988D01*
X106962749Y-57946798D01*
X106962749Y-58302398D01*
X106968541Y-58361208D01*
X106972603Y-58374599D01*
X106968541Y-58387989D01*
X106962749Y-58446799D01*
X106962749Y-58802399D01*
X106968541Y-58861209D01*
X106985696Y-58917759D01*
X107013553Y-58969876D01*
X107051042Y-59015557D01*
X107096723Y-59053046D01*
X107148840Y-59080903D01*
X107205390Y-59098058D01*
X107264200Y-59103850D01*
X108026200Y-59103850D01*
X108085010Y-59098058D01*
X108141560Y-59080903D01*
X108193677Y-59053046D01*
X108239358Y-59015557D01*
X108276847Y-58969876D01*
X108304704Y-58917759D01*
X108321859Y-58861209D01*
X108326932Y-58809698D01*
X108331641Y-58857510D01*
X108335703Y-58870900D01*
X108331641Y-58884291D01*
X108325849Y-58943101D01*
X108325849Y-59220900D01*
X108223832Y-59220900D01*
X108193677Y-59196153D01*
X108141560Y-59168296D01*
X108085010Y-59151141D01*
X108026200Y-59145349D01*
X107264200Y-59145349D01*
X107205390Y-59151141D01*
X107148840Y-59168296D01*
X107096723Y-59196153D01*
X107051042Y-59233642D01*
X107013553Y-59279323D01*
X106985696Y-59331440D01*
X106968541Y-59387990D01*
X106962749Y-59446800D01*
X106962749Y-59802400D01*
X106968541Y-59861210D01*
X106972603Y-59874600D01*
X106968541Y-59887989D01*
X106962749Y-59946799D01*
X106962749Y-60140880D01*
X106907046Y-60129800D01*
X106808554Y-60129800D01*
X106711955Y-60149015D01*
X106620961Y-60186706D01*
X106539069Y-60241425D01*
X106469425Y-60311069D01*
X106414706Y-60392961D01*
X106377015Y-60483955D01*
X106357800Y-60580554D01*
X104465000Y-60580554D01*
X104465000Y-55812913D01*
X104474500Y-55813849D01*
X105515900Y-55813849D01*
X105574710Y-55808057D01*
X105631260Y-55790902D01*
X105683377Y-55763045D01*
X105729058Y-55725556D01*
X105766547Y-55679875D01*
X105794404Y-55627758D01*
X105811559Y-55571208D01*
X105817351Y-55512398D01*
X105817351Y-55308156D01*
X105837600Y-55310150D01*
X106879000Y-55310150D01*
X106937810Y-55304358D01*
X106994360Y-55287203D01*
X107046477Y-55259346D01*
X107092158Y-55221857D01*
X107129647Y-55176176D01*
X107157504Y-55124059D01*
X107174659Y-55067509D01*
X107180451Y-55008699D01*
X107180451Y-54653099D01*
X107174659Y-54594289D01*
X107157504Y-54537739D01*
X107129647Y-54485622D01*
X107092158Y-54439941D01*
X107046477Y-54402452D01*
X106994360Y-54374595D01*
X106937810Y-54357440D01*
X106879000Y-54351648D01*
X105837600Y-54351648D01*
X105778790Y-54357440D01*
X105722240Y-54374595D01*
X105670123Y-54402452D01*
X105624442Y-54439941D01*
X105586953Y-54485622D01*
X105559096Y-54537739D01*
X105541941Y-54594289D01*
X105536149Y-54653099D01*
X105536149Y-54857341D01*
X105515900Y-54855347D01*
X104474500Y-54855347D01*
X104465000Y-54856283D01*
X104465000Y-54233400D01*
X118015949Y-54233400D01*
X118015949Y-54708400D01*
X118026305Y-54813544D01*
X118056974Y-54914648D01*
X118106779Y-55007825D01*
X118173804Y-55089496D01*
X118255475Y-55156521D01*
X118293978Y-55177102D01*
X118274115Y-55225055D01*
X118254900Y-55321654D01*
X118254900Y-55420146D01*
X118274115Y-55516745D01*
X118311806Y-55607739D01*
X118366525Y-55689631D01*
X118436169Y-55759275D01*
X118518061Y-55813994D01*
X118609055Y-55851685D01*
X118705654Y-55870900D01*
X118804146Y-55870900D01*
X118900745Y-55851685D01*
X118991739Y-55813994D01*
X119073631Y-55759275D01*
X119143275Y-55689631D01*
X119197994Y-55607739D01*
X119235685Y-55516745D01*
X119254900Y-55420146D01*
X119254900Y-55321654D01*
X119235685Y-55225055D01*
X119231635Y-55215278D01*
X119261148Y-55206326D01*
X119354325Y-55156521D01*
X119435996Y-55089496D01*
X119503021Y-55007825D01*
X119552826Y-54914648D01*
X119583495Y-54813544D01*
X119593851Y-54708400D01*
X119593851Y-54233400D01*
X119583495Y-54128256D01*
X119552826Y-54027152D01*
X119503021Y-53933975D01*
X119435996Y-53852304D01*
X119354325Y-53785279D01*
X119261148Y-53735474D01*
X119160044Y-53704805D01*
X119054900Y-53694449D01*
X118554900Y-53694449D01*
X118449756Y-53704805D01*
X118348652Y-53735474D01*
X118255475Y-53785279D01*
X118173804Y-53852304D01*
X118106779Y-53933975D01*
X118056974Y-54027152D01*
X118026305Y-54128256D01*
X118015949Y-54233400D01*
X104465000Y-54233400D01*
X104465000Y-53665000D01*
X120603647Y-53665000D01*
X120536152Y-53685474D01*
%TA.AperFunction,Conductor*%
D19*
G36*
X120536152Y-53685474D02*
G01*
X120442975Y-53735279D01*
X120361304Y-53802304D01*
X120294279Y-53883975D01*
X120244474Y-53977152D01*
X120213805Y-54078256D01*
X120203449Y-54183400D01*
X120203449Y-54658400D01*
X120213805Y-54763544D01*
X120244474Y-54864648D01*
X120294279Y-54957825D01*
X120361304Y-55039496D01*
X120442975Y-55106521D01*
X120536152Y-55156326D01*
X120572891Y-55167471D01*
X120561806Y-55184061D01*
X120524115Y-55275055D01*
X120504900Y-55371654D01*
X120504900Y-55470146D01*
X120524115Y-55566745D01*
X120561806Y-55657739D01*
X120616525Y-55739631D01*
X120686169Y-55809275D01*
X120768061Y-55863994D01*
X120859055Y-55901685D01*
X120955654Y-55920900D01*
X121054146Y-55920900D01*
X121150745Y-55901685D01*
X121241739Y-55863994D01*
X121323631Y-55809275D01*
X121393275Y-55739631D01*
X121447994Y-55657739D01*
X121485685Y-55566745D01*
X121504900Y-55470146D01*
X121504900Y-55371654D01*
X121485685Y-55275055D01*
X121447994Y-55184061D01*
X121432695Y-55161165D01*
X121448648Y-55156326D01*
X121541825Y-55106521D01*
X121623496Y-55039496D01*
X121690521Y-54957825D01*
X121740326Y-54864648D01*
X121770995Y-54763544D01*
X121781351Y-54658400D01*
X121781351Y-54183400D01*
X121770995Y-54078256D01*
X121740326Y-53977152D01*
X121690521Y-53883975D01*
X121623496Y-53802304D01*
X121541825Y-53735279D01*
X121448648Y-53685474D01*
X121381153Y-53665000D01*
X129088001Y-53665000D01*
X129088000Y-64258884D01*
X123984482Y-69610983D01*
X123975080Y-69618699D01*
X123962452Y-69634085D01*
X123959779Y-69636889D01*
X123952322Y-69646429D01*
X123934466Y-69668186D01*
X123932629Y-69671623D01*
X123930230Y-69674692D01*
X123917555Y-69699824D01*
X123904288Y-69724646D01*
X123903157Y-69728374D01*
X123901402Y-69731854D01*
X123893866Y-69759002D01*
X123885704Y-69785909D01*
X123885323Y-69789780D01*
X123884279Y-69793540D01*
X123882185Y-69821642D01*
X123881001Y-69833659D01*
X123881001Y-69837523D01*
X123879521Y-69857381D01*
X123881001Y-69869458D01*
X123881000Y-75049500D01*
X115958500Y-75049500D01*
X115958500Y-69870776D01*
X115959928Y-69859657D01*
X115958500Y-69838868D01*
X115958500Y-69834039D01*
X115957404Y-69822911D01*
X115955541Y-69795789D01*
X115954272Y-69791112D01*
X115953797Y-69786289D01*
X115945901Y-69760260D01*
X115938777Y-69734003D01*
X115936619Y-69729663D01*
X115935213Y-69725026D01*
X115922388Y-69701031D01*
X115910281Y-69676675D01*
X115907321Y-69672842D01*
X115905035Y-69668566D01*
X115887765Y-69647524D01*
X115880952Y-69638702D01*
X115877653Y-69635202D01*
X115864421Y-69619079D01*
X115855748Y-69611961D01*
X110670654Y-64110702D01*
X110657421Y-64094579D01*
X110636379Y-64077310D01*
X110615884Y-64059450D01*
X110611684Y-64057043D01*
X110607934Y-64053965D01*
X110583918Y-64041129D01*
X110560341Y-64027615D01*
X110555750Y-64026073D01*
X110551474Y-64023787D01*
X110525438Y-64015889D01*
X110499655Y-64007227D01*
X110494848Y-64006610D01*
X110490211Y-64005203D01*
X110463117Y-64002534D01*
X110436157Y-63999072D01*
X110415368Y-64000500D01*
X104465000Y-64000500D01*
X104465000Y-62892915D01*
X104474500Y-62893851D01*
X105515900Y-62893851D01*
X105536149Y-62891857D01*
X105536149Y-63098700D01*
X105541941Y-63157510D01*
X105559096Y-63214060D01*
X105586953Y-63266177D01*
X105624442Y-63311858D01*
X105670123Y-63349347D01*
X105722240Y-63377204D01*
X105778790Y-63394359D01*
X105837600Y-63400151D01*
X106879000Y-63400151D01*
X106937810Y-63394359D01*
X106994360Y-63377204D01*
X107046477Y-63349347D01*
X107092158Y-63311858D01*
X107129647Y-63266177D01*
X107157504Y-63214060D01*
X107174659Y-63157510D01*
X107180451Y-63098700D01*
X107180451Y-62743100D01*
X107174659Y-62684290D01*
X107157504Y-62627740D01*
X107129647Y-62575623D01*
X107092158Y-62529942D01*
X107046477Y-62492453D01*
X106994360Y-62464596D01*
X106937810Y-62447441D01*
X106879000Y-62441649D01*
X105837600Y-62441649D01*
X105817351Y-62443643D01*
X105817351Y-62236800D01*
X105811559Y-62177990D01*
X105794404Y-62121440D01*
X105766547Y-62069323D01*
X105729058Y-62023642D01*
X105683377Y-61986153D01*
X105631260Y-61958296D01*
X105574710Y-61941141D01*
X105515900Y-61935349D01*
X104474500Y-61935349D01*
X104465000Y-61936285D01*
X104465000Y-60580554D01*
X106357800Y-60580554D01*
X106357800Y-60679046D01*
X106377015Y-60775645D01*
X106414706Y-60866639D01*
X106469425Y-60948531D01*
X106539069Y-61018175D01*
X106620961Y-61072894D01*
X106711955Y-61110585D01*
X106808554Y-61129800D01*
X106907046Y-61129800D01*
X106962749Y-61118720D01*
X106962749Y-61302400D01*
X106968541Y-61361210D01*
X106985696Y-61417760D01*
X107013553Y-61469877D01*
X107051042Y-61515558D01*
X107096723Y-61553047D01*
X107148840Y-61580904D01*
X107205390Y-61598059D01*
X107264200Y-61603851D01*
X107930791Y-61603851D01*
X107931989Y-61616016D01*
X107954861Y-61691416D01*
X107992004Y-61760905D01*
X108041990Y-61821814D01*
X108057253Y-61834340D01*
X108112761Y-61889848D01*
X108125287Y-61905111D01*
X108186195Y-61955097D01*
X108255684Y-61992240D01*
X108320357Y-62011858D01*
X108331084Y-62015112D01*
X108409498Y-62022835D01*
X108425587Y-62021250D01*
X108459823Y-62049347D01*
X108511940Y-62077204D01*
X108568490Y-62094359D01*
X108627300Y-62100151D01*
X109389300Y-62100151D01*
X109448110Y-62094359D01*
X109504660Y-62077204D01*
X109556777Y-62049347D01*
X109591440Y-62020900D01*
X110189214Y-62020900D01*
X110751793Y-62583479D01*
X110708765Y-62612229D01*
X110639121Y-62681873D01*
X110584402Y-62763765D01*
X110546711Y-62854759D01*
X110527496Y-62951358D01*
X110527496Y-63049850D01*
X110546711Y-63146449D01*
X110584402Y-63237443D01*
X110639121Y-63319335D01*
X110708765Y-63388979D01*
X110790657Y-63443698D01*
X110881651Y-63481389D01*
X110965855Y-63498139D01*
X110909696Y-63554298D01*
X110854977Y-63636190D01*
X110817286Y-63727184D01*
X110798071Y-63823783D01*
X110798071Y-63922275D01*
X110817286Y-64018874D01*
X110854977Y-64109868D01*
X110909696Y-64191760D01*
X110979340Y-64261404D01*
X111061232Y-64316123D01*
X111152226Y-64353814D01*
X111228304Y-64368947D01*
X118388805Y-71529449D01*
X117804900Y-71529449D01*
X117746090Y-71535241D01*
X117689540Y-71552396D01*
X117644900Y-71576256D01*
X117600260Y-71552396D01*
X117543710Y-71535241D01*
X117484900Y-71529449D01*
X116424900Y-71529449D01*
X116366090Y-71535241D01*
X116309540Y-71552396D01*
X116257423Y-71580253D01*
X116211742Y-71617742D01*
X116174253Y-71663423D01*
X116146396Y-71715540D01*
X116129241Y-71772090D01*
X116123449Y-71830900D01*
X116123449Y-73410900D01*
X116129241Y-73469710D01*
X116146396Y-73526260D01*
X116174253Y-73578377D01*
X116211742Y-73624058D01*
X116257423Y-73661547D01*
X116309540Y-73689404D01*
X116366090Y-73706559D01*
X116424900Y-73712351D01*
X116532912Y-73712351D01*
X116536050Y-73744214D01*
X116560353Y-73824326D01*
X116560353Y-73824327D01*
X116599817Y-73898160D01*
X116652927Y-73962874D01*
X116669139Y-73976179D01*
X117314617Y-74621657D01*
X117327927Y-74637875D01*
X117392641Y-74690985D01*
X117466472Y-74730448D01*
X117466474Y-74730449D01*
X117546587Y-74754751D01*
X117629901Y-74762957D01*
X117650775Y-74760901D01*
X122159032Y-74760901D01*
X122179899Y-74762956D01*
X122200766Y-74760901D01*
X122200773Y-74760901D01*
X122263213Y-74754751D01*
X122343326Y-74730449D01*
X122417159Y-74690985D01*
X122481873Y-74637875D01*
X122495183Y-74621657D01*
X123140658Y-73976182D01*
X123156874Y-73962874D01*
X123209984Y-73898160D01*
X123249448Y-73824327D01*
X123273750Y-73744214D01*
X123276888Y-73712351D01*
X123384900Y-73712351D01*
X123443710Y-73706559D01*
X123500260Y-73689404D01*
X123552377Y-73661547D01*
X123598058Y-73624058D01*
X123635547Y-73578377D01*
X123663404Y-73526260D01*
X123680559Y-73469710D01*
X123686351Y-73410900D01*
X123686351Y-71830900D01*
X123680559Y-71772090D01*
X123663404Y-71715540D01*
X123635547Y-71663423D01*
X123598058Y-71617742D01*
X123552377Y-71580253D01*
X123500260Y-71552396D01*
X123443710Y-71535241D01*
X123384900Y-71529449D01*
X123279900Y-71529449D01*
X123279900Y-63436766D01*
X123281955Y-63415899D01*
X123279900Y-63395032D01*
X123279900Y-63395026D01*
X123273750Y-63332586D01*
X123273254Y-63330949D01*
X123265502Y-63305397D01*
X123249448Y-63252473D01*
X123209984Y-63178640D01*
X123156874Y-63113926D01*
X123140662Y-63100621D01*
X122267137Y-62227096D01*
X124681263Y-62227096D01*
X124681469Y-62256556D01*
X124681264Y-62286005D01*
X124681706Y-62290521D01*
X124703126Y-62494323D01*
X124709049Y-62523178D01*
X124714569Y-62552113D01*
X124715881Y-62556458D01*
X124776479Y-62752217D01*
X124787898Y-62779381D01*
X124798928Y-62806681D01*
X124801058Y-62810689D01*
X124898525Y-62990951D01*
X124914992Y-63015363D01*
X124931126Y-63040019D01*
X124933994Y-63043536D01*
X125064617Y-63201432D01*
X125085511Y-63222180D01*
X125106128Y-63243233D01*
X125109625Y-63246126D01*
X125268429Y-63375644D01*
X125292974Y-63391951D01*
X125317269Y-63408586D01*
X125321261Y-63410745D01*
X125502198Y-63506951D01*
X125529412Y-63518167D01*
X125556505Y-63529779D01*
X125560840Y-63531122D01*
X125757018Y-63590352D01*
X125785916Y-63596074D01*
X125814726Y-63602197D01*
X125819240Y-63602672D01*
X126023186Y-63622669D01*
X126023192Y-63622669D01*
X126038939Y-63624220D01*
X127270861Y-63624220D01*
X127287644Y-63622567D01*
X127301275Y-63622567D01*
X127305788Y-63622093D01*
X127509435Y-63599250D01*
X127538225Y-63593130D01*
X127567142Y-63587404D01*
X127571477Y-63586062D01*
X127766809Y-63524099D01*
X127793841Y-63512512D01*
X127821117Y-63501270D01*
X127825109Y-63499111D01*
X128004685Y-63400388D01*
X128028992Y-63383745D01*
X128053523Y-63367446D01*
X128057020Y-63364554D01*
X128214002Y-63232832D01*
X128234607Y-63211790D01*
X128255512Y-63191030D01*
X128258381Y-63187513D01*
X128386788Y-63027808D01*
X128402924Y-63003149D01*
X128419389Y-62978739D01*
X128421519Y-62974732D01*
X128516459Y-62793128D01*
X128527476Y-62765859D01*
X128538908Y-62738663D01*
X128540220Y-62734318D01*
X128598079Y-62537731D01*
X128603600Y-62508790D01*
X128609521Y-62479941D01*
X128609965Y-62475424D01*
X128628537Y-62271345D01*
X128628331Y-62241885D01*
X128628536Y-62212436D01*
X128628094Y-62207919D01*
X128606674Y-62004117D01*
X128600751Y-61975263D01*
X128595231Y-61946327D01*
X128593919Y-61941983D01*
X128533321Y-61746223D01*
X128521907Y-61719071D01*
X128510872Y-61691759D01*
X128508742Y-61687752D01*
X128411275Y-61507489D01*
X128394808Y-61483077D01*
X128378674Y-61458421D01*
X128375806Y-61454904D01*
X128245183Y-61297008D01*
X128224272Y-61276243D01*
X128203672Y-61255207D01*
X128200175Y-61252314D01*
X128041370Y-61122796D01*
X128016821Y-61106485D01*
X127992531Y-61089854D01*
X127988539Y-61087695D01*
X127807602Y-60991489D01*
X127780420Y-60980286D01*
X127753295Y-60968660D01*
X127748960Y-60967318D01*
X127552782Y-60908088D01*
X127523884Y-60902366D01*
X127495074Y-60896243D01*
X127490560Y-60895768D01*
X127286614Y-60875771D01*
X127286608Y-60875771D01*
X127270861Y-60874220D01*
X126038939Y-60874220D01*
X126022156Y-60875873D01*
X126008525Y-60875873D01*
X126004012Y-60876347D01*
X125800365Y-60899190D01*
X125771538Y-60905318D01*
X125742658Y-60911037D01*
X125738322Y-60912378D01*
X125542991Y-60974341D01*
X125515947Y-60985933D01*
X125488683Y-60997170D01*
X125484691Y-60999328D01*
X125305115Y-61098052D01*
X125280834Y-61114677D01*
X125256277Y-61130993D01*
X125252780Y-61133886D01*
X125095799Y-61265608D01*
X125075196Y-61286647D01*
X125054288Y-61307410D01*
X125051419Y-61310927D01*
X124923012Y-61470633D01*
X124906876Y-61495292D01*
X124890411Y-61519702D01*
X124888280Y-61523709D01*
X124793341Y-61705312D01*
X124782312Y-61732610D01*
X124770892Y-61759777D01*
X124769580Y-61764121D01*
X124711721Y-61960709D01*
X124706199Y-61989656D01*
X124700279Y-62018499D01*
X124699835Y-62023016D01*
X124681263Y-62227096D01*
X122267137Y-62227096D01*
X121522040Y-61482000D01*
X121515686Y-61450056D01*
X121477995Y-61359062D01*
X121423276Y-61277170D01*
X121353632Y-61207526D01*
X121271740Y-61152807D01*
X121180746Y-61115116D01*
X121084147Y-61095901D01*
X120985655Y-61095901D01*
X120889056Y-61115116D01*
X120798062Y-61152807D01*
X120716170Y-61207526D01*
X120646526Y-61277170D01*
X120591807Y-61359062D01*
X120554116Y-61450056D01*
X120534901Y-61546655D01*
X120534901Y-61645147D01*
X120554116Y-61741746D01*
X120591807Y-61832740D01*
X120646526Y-61914632D01*
X120716170Y-61984276D01*
X120798062Y-62038995D01*
X120889056Y-62076686D01*
X120921000Y-62083040D01*
X122429901Y-63591942D01*
X122429900Y-71529449D01*
X122324900Y-71529449D01*
X122266090Y-71535241D01*
X122209540Y-71552396D01*
X122164900Y-71576256D01*
X122120260Y-71552396D01*
X122063710Y-71535241D01*
X122004900Y-71529449D01*
X121404900Y-71529449D01*
X121346090Y-71535241D01*
X121289540Y-71552396D01*
X121254900Y-71570911D01*
X121220260Y-71552396D01*
X121196939Y-71545321D01*
X121176240Y-71477086D01*
X121139097Y-71407597D01*
X121115249Y-71378538D01*
X121089111Y-71346689D01*
X121073848Y-71334163D01*
X120701625Y-70961940D01*
X120689101Y-70946679D01*
X120628193Y-70896693D01*
X120558704Y-70859550D01*
X120483304Y-70836678D01*
X120424537Y-70830890D01*
X120424536Y-70830890D01*
X120404890Y-70828955D01*
X120385244Y-70830890D01*
X120094423Y-70830890D01*
X112901036Y-63637503D01*
X113041634Y-63637503D01*
X113309847Y-63584152D01*
X113562498Y-63479500D01*
X113789879Y-63327570D01*
X113983250Y-63134199D01*
X114135180Y-62906818D01*
X114239832Y-62654167D01*
X114293183Y-62385954D01*
X114293183Y-62112486D01*
X114239832Y-61844273D01*
X114135180Y-61591622D01*
X113983250Y-61364241D01*
X113823641Y-61204632D01*
X114282250Y-61204632D01*
X114309329Y-61222726D01*
X114400323Y-61260417D01*
X114496922Y-61279632D01*
X114595414Y-61279632D01*
X114692013Y-61260417D01*
X114783007Y-61222726D01*
X114864899Y-61168007D01*
X114934543Y-61098363D01*
X114989262Y-61016471D01*
X115026953Y-60925477D01*
X115046168Y-60828878D01*
X115046168Y-60730386D01*
X115026953Y-60633787D01*
X115000331Y-60569516D01*
X115818870Y-61388055D01*
X115826305Y-61463544D01*
X115856974Y-61564648D01*
X115906779Y-61657825D01*
X115973804Y-61739496D01*
X116055475Y-61806521D01*
X116148652Y-61856326D01*
X116249756Y-61886995D01*
X116354900Y-61897351D01*
X116854900Y-61897351D01*
X116960044Y-61886995D01*
X117061148Y-61856326D01*
X117154325Y-61806521D01*
X117235996Y-61739496D01*
X117303021Y-61657825D01*
X117352826Y-61564648D01*
X117383495Y-61463544D01*
X117393851Y-61358400D01*
X117393851Y-60883400D01*
X117640949Y-60883400D01*
X117640949Y-61358400D01*
X117651305Y-61463544D01*
X117681974Y-61564648D01*
X117731779Y-61657825D01*
X117798804Y-61739496D01*
X117880475Y-61806521D01*
X117973652Y-61856326D01*
X118074756Y-61886995D01*
X118179900Y-61897351D01*
X118679900Y-61897351D01*
X118785044Y-61886995D01*
X118886148Y-61856326D01*
X118979325Y-61806521D01*
X119060996Y-61739496D01*
X119128021Y-61657825D01*
X119177826Y-61564648D01*
X119191097Y-61520900D01*
X119384734Y-61520900D01*
X119459055Y-61551685D01*
X119555654Y-61570900D01*
X119654146Y-61570900D01*
X119750745Y-61551685D01*
X119841739Y-61513994D01*
X119923631Y-61459275D01*
X119993275Y-61389631D01*
X120047994Y-61307739D01*
X120085685Y-61216745D01*
X120104900Y-61120146D01*
X120104900Y-61021654D01*
X120085685Y-60925055D01*
X120047994Y-60834061D01*
X119993275Y-60752169D01*
X119923631Y-60682525D01*
X119841739Y-60627806D01*
X119750745Y-60590115D01*
X119654146Y-60570900D01*
X119555654Y-60570900D01*
X119459055Y-60590115D01*
X119368061Y-60627806D01*
X119286169Y-60682525D01*
X119247794Y-60720900D01*
X119191097Y-60720900D01*
X119177826Y-60677152D01*
X119128021Y-60583975D01*
X119060996Y-60502304D01*
X118979325Y-60435279D01*
X118886148Y-60385474D01*
X118785044Y-60354805D01*
X118679900Y-60344449D01*
X118179900Y-60344449D01*
X118074756Y-60354805D01*
X117973652Y-60385474D01*
X117880475Y-60435279D01*
X117798804Y-60502304D01*
X117731779Y-60583975D01*
X117681974Y-60677152D01*
X117651305Y-60778256D01*
X117640949Y-60883400D01*
X117393851Y-60883400D01*
X117383495Y-60778256D01*
X117352826Y-60677152D01*
X117303021Y-60583975D01*
X117235996Y-60502304D01*
X117154325Y-60435279D01*
X117061148Y-60385474D01*
X116960044Y-60354805D01*
X116854900Y-60344449D01*
X116354900Y-60344449D01*
X116249756Y-60354805D01*
X116148652Y-60385474D01*
X116055475Y-60435279D01*
X116023613Y-60461428D01*
X113576001Y-58013816D01*
X113563475Y-57998553D01*
X113502567Y-57948567D01*
X113433078Y-57911424D01*
X113387454Y-57897584D01*
X113519120Y-57765918D01*
X113676496Y-57530388D01*
X113784899Y-57268681D01*
X113840162Y-56990855D01*
X113840162Y-56707585D01*
X113784899Y-56429759D01*
X113676496Y-56168052D01*
X113519120Y-55932522D01*
X113407812Y-55821214D01*
X114914529Y-55821214D01*
X115690949Y-56597635D01*
X115690949Y-57058400D01*
X115701305Y-57163544D01*
X115731974Y-57264648D01*
X115781779Y-57357825D01*
X115848804Y-57439496D01*
X115930475Y-57506521D01*
X116023652Y-57556326D01*
X116124756Y-57586995D01*
X116229900Y-57597351D01*
X116604566Y-57597351D01*
X116529431Y-57672486D01*
X116461032Y-57774852D01*
X116413919Y-57888594D01*
X116389900Y-58009343D01*
X116389900Y-58132457D01*
X116413919Y-58253206D01*
X116461032Y-58366948D01*
X116529431Y-58469314D01*
X116616486Y-58556369D01*
X116718852Y-58624768D01*
X116832594Y-58671881D01*
X116953343Y-58695900D01*
X117076457Y-58695900D01*
X117197206Y-58671881D01*
X117310948Y-58624768D01*
X117413314Y-58556369D01*
X117500369Y-58469314D01*
X117568768Y-58366948D01*
X117615881Y-58253206D01*
X117639900Y-58132457D01*
X117639900Y-58009343D01*
X122169900Y-58009343D01*
X122169900Y-58132457D01*
X122193919Y-58253206D01*
X122241032Y-58366948D01*
X122309431Y-58469314D01*
X122396486Y-58556369D01*
X122498852Y-58624768D01*
X122612594Y-58671881D01*
X122733343Y-58695900D01*
X122856457Y-58695900D01*
X122977206Y-58671881D01*
X123090948Y-58624768D01*
X123193314Y-58556369D01*
X123280369Y-58469314D01*
X123348768Y-58366948D01*
X123395881Y-58253206D01*
X123419900Y-58132457D01*
X123419900Y-58009343D01*
X123395881Y-57888594D01*
X123348768Y-57774852D01*
X123280369Y-57672486D01*
X123193314Y-57585431D01*
X123090948Y-57517032D01*
X122977206Y-57469919D01*
X122856457Y-57445900D01*
X122733343Y-57445900D01*
X122612594Y-57469919D01*
X122498852Y-57517032D01*
X122396486Y-57585431D01*
X122309431Y-57672486D01*
X122241032Y-57774852D01*
X122193919Y-57888594D01*
X122169900Y-58009343D01*
X117639900Y-58009343D01*
X117615881Y-57888594D01*
X117568768Y-57774852D01*
X117500369Y-57672486D01*
X117413314Y-57585431D01*
X117310948Y-57517032D01*
X117197206Y-57469919D01*
X117097977Y-57450181D01*
X117110996Y-57439496D01*
X117178021Y-57357825D01*
X117227826Y-57264648D01*
X117258495Y-57163544D01*
X117268851Y-57058400D01*
X117268851Y-56583400D01*
X117515949Y-56583400D01*
X117515949Y-57058400D01*
X117526305Y-57163544D01*
X117556974Y-57264648D01*
X117606779Y-57357825D01*
X117673804Y-57439496D01*
X117755475Y-57506521D01*
X117848652Y-57556326D01*
X117949756Y-57586995D01*
X118054900Y-57597351D01*
X118554900Y-57597351D01*
X118660044Y-57586995D01*
X118761148Y-57556326D01*
X118854325Y-57506521D01*
X118935996Y-57439496D01*
X119003021Y-57357825D01*
X119052826Y-57264648D01*
X119083495Y-57163544D01*
X119089001Y-57107642D01*
X119155654Y-57120900D01*
X119254146Y-57120900D01*
X119350745Y-57101685D01*
X119441739Y-57063994D01*
X119523631Y-57009275D01*
X119593275Y-56939631D01*
X119647994Y-56857739D01*
X119685685Y-56766745D01*
X119697452Y-56707585D01*
X125964078Y-56707585D01*
X125964078Y-56990855D01*
X126019341Y-57268681D01*
X126127744Y-57530388D01*
X126285120Y-57765918D01*
X126485422Y-57966220D01*
X126720952Y-58123596D01*
X126982659Y-58231999D01*
X127260485Y-58287262D01*
X127543755Y-58287262D01*
X127821581Y-58231999D01*
X128083288Y-58123596D01*
X128318818Y-57966220D01*
X128519120Y-57765918D01*
X128676496Y-57530388D01*
X128784899Y-57268681D01*
X128840162Y-56990855D01*
X128840162Y-56707585D01*
X128784899Y-56429759D01*
X128676496Y-56168052D01*
X128519120Y-55932522D01*
X128318818Y-55732220D01*
X128083288Y-55574844D01*
X127821581Y-55466441D01*
X127543755Y-55411178D01*
X127260485Y-55411178D01*
X126982659Y-55466441D01*
X126720952Y-55574844D01*
X126485422Y-55732220D01*
X126285120Y-55932522D01*
X126127744Y-56168052D01*
X126019341Y-56429759D01*
X125964078Y-56707585D01*
X119697452Y-56707585D01*
X119704900Y-56670146D01*
X119704900Y-56571654D01*
X119685685Y-56475055D01*
X119647994Y-56384061D01*
X119593275Y-56302169D01*
X119523631Y-56232525D01*
X119441739Y-56177806D01*
X119350745Y-56140115D01*
X119254146Y-56120900D01*
X119155654Y-56120900D01*
X119059055Y-56140115D01*
X118968061Y-56177806D01*
X118933932Y-56200610D01*
X118854325Y-56135279D01*
X118761148Y-56085474D01*
X118660044Y-56054805D01*
X118554900Y-56044449D01*
X118054900Y-56044449D01*
X117949756Y-56054805D01*
X117848652Y-56085474D01*
X117755475Y-56135279D01*
X117673804Y-56202304D01*
X117606779Y-56283975D01*
X117556974Y-56377152D01*
X117526305Y-56478256D01*
X117515949Y-56583400D01*
X117268851Y-56583400D01*
X117258495Y-56478256D01*
X117227826Y-56377152D01*
X117178021Y-56283975D01*
X117110996Y-56202304D01*
X117029325Y-56135279D01*
X116936148Y-56085474D01*
X116835044Y-56054805D01*
X116729900Y-56044449D01*
X116269135Y-56044449D01*
X115376951Y-55152266D01*
X115364425Y-55137003D01*
X115303517Y-55087017D01*
X115234028Y-55049874D01*
X115158628Y-55027002D01*
X115099861Y-55021214D01*
X115099860Y-55021214D01*
X115080214Y-55019279D01*
X115060568Y-55021214D01*
X110826434Y-55021214D01*
X110806787Y-55019279D01*
X110787140Y-55021214D01*
X110728373Y-55027002D01*
X110652973Y-55049874D01*
X110583484Y-55087017D01*
X110522576Y-55137003D01*
X110510050Y-55152266D01*
X109499335Y-56162981D01*
X109448110Y-56147442D01*
X109389300Y-56141650D01*
X108627300Y-56141650D01*
X108568490Y-56147442D01*
X108511940Y-56164597D01*
X108459823Y-56192454D01*
X108420655Y-56224598D01*
X108228340Y-56224598D01*
X108193677Y-56196151D01*
X108141560Y-56168294D01*
X108085010Y-56151139D01*
X108026200Y-56145347D01*
X107264200Y-56145347D01*
X107205390Y-56151139D01*
X107148840Y-56168294D01*
X107096723Y-56196151D01*
X107051042Y-56233640D01*
X107013553Y-56279321D01*
X106985696Y-56331438D01*
X106968541Y-56387988D01*
X106962749Y-56446798D01*
X106962749Y-56802398D01*
X106968541Y-56861208D01*
X106972603Y-56874599D01*
X106968541Y-56887990D01*
X106962749Y-56946800D01*
X106962749Y-57302400D01*
X106968541Y-57361210D01*
X106985696Y-57417760D01*
X107013553Y-57469877D01*
X107051042Y-57515558D01*
X107096723Y-57553047D01*
X107148840Y-57580904D01*
X107205390Y-57598059D01*
X107264200Y-57603851D01*
X107930791Y-57603851D01*
X107931989Y-57616016D01*
X107940886Y-57645347D01*
X107264200Y-57645347D01*
X107205390Y-57651139D01*
X107148840Y-57668294D01*
X107096723Y-57696151D01*
X107051042Y-57733640D01*
X107013553Y-57779321D01*
X106985696Y-57831438D01*
X106968541Y-57887988D01*
X106962749Y-57946798D01*
X106962749Y-58302398D01*
X106968541Y-58361208D01*
X106972603Y-58374599D01*
X106968541Y-58387989D01*
X106962749Y-58446799D01*
X106962749Y-58802399D01*
X106968541Y-58861209D01*
X106985696Y-58917759D01*
X107013553Y-58969876D01*
X107051042Y-59015557D01*
X107096723Y-59053046D01*
X107148840Y-59080903D01*
X107205390Y-59098058D01*
X107264200Y-59103850D01*
X108026200Y-59103850D01*
X108085010Y-59098058D01*
X108141560Y-59080903D01*
X108193677Y-59053046D01*
X108239358Y-59015557D01*
X108276847Y-58969876D01*
X108304704Y-58917759D01*
X108321859Y-58861209D01*
X108326932Y-58809698D01*
X108331641Y-58857510D01*
X108335703Y-58870900D01*
X108331641Y-58884291D01*
X108325849Y-58943101D01*
X108325849Y-59220900D01*
X108223832Y-59220900D01*
X108193677Y-59196153D01*
X108141560Y-59168296D01*
X108085010Y-59151141D01*
X108026200Y-59145349D01*
X107264200Y-59145349D01*
X107205390Y-59151141D01*
X107148840Y-59168296D01*
X107096723Y-59196153D01*
X107051042Y-59233642D01*
X107013553Y-59279323D01*
X106985696Y-59331440D01*
X106968541Y-59387990D01*
X106962749Y-59446800D01*
X106962749Y-59802400D01*
X106968541Y-59861210D01*
X106972603Y-59874600D01*
X106968541Y-59887989D01*
X106962749Y-59946799D01*
X106962749Y-60140880D01*
X106907046Y-60129800D01*
X106808554Y-60129800D01*
X106711955Y-60149015D01*
X106620961Y-60186706D01*
X106539069Y-60241425D01*
X106469425Y-60311069D01*
X106414706Y-60392961D01*
X106377015Y-60483955D01*
X106357800Y-60580554D01*
X104465000Y-60580554D01*
X104465000Y-55812913D01*
X104474500Y-55813849D01*
X105515900Y-55813849D01*
X105574710Y-55808057D01*
X105631260Y-55790902D01*
X105683377Y-55763045D01*
X105729058Y-55725556D01*
X105766547Y-55679875D01*
X105794404Y-55627758D01*
X105811559Y-55571208D01*
X105817351Y-55512398D01*
X105817351Y-55308156D01*
X105837600Y-55310150D01*
X106879000Y-55310150D01*
X106937810Y-55304358D01*
X106994360Y-55287203D01*
X107046477Y-55259346D01*
X107092158Y-55221857D01*
X107129647Y-55176176D01*
X107157504Y-55124059D01*
X107174659Y-55067509D01*
X107180451Y-55008699D01*
X107180451Y-54653099D01*
X107174659Y-54594289D01*
X107157504Y-54537739D01*
X107129647Y-54485622D01*
X107092158Y-54439941D01*
X107046477Y-54402452D01*
X106994360Y-54374595D01*
X106937810Y-54357440D01*
X106879000Y-54351648D01*
X105837600Y-54351648D01*
X105778790Y-54357440D01*
X105722240Y-54374595D01*
X105670123Y-54402452D01*
X105624442Y-54439941D01*
X105586953Y-54485622D01*
X105559096Y-54537739D01*
X105541941Y-54594289D01*
X105536149Y-54653099D01*
X105536149Y-54857341D01*
X105515900Y-54855347D01*
X104474500Y-54855347D01*
X104465000Y-54856283D01*
X104465000Y-54233400D01*
X118015949Y-54233400D01*
X118015949Y-54708400D01*
X118026305Y-54813544D01*
X118056974Y-54914648D01*
X118106779Y-55007825D01*
X118173804Y-55089496D01*
X118255475Y-55156521D01*
X118293978Y-55177102D01*
X118274115Y-55225055D01*
X118254900Y-55321654D01*
X118254900Y-55420146D01*
X118274115Y-55516745D01*
X118311806Y-55607739D01*
X118366525Y-55689631D01*
X118436169Y-55759275D01*
X118518061Y-55813994D01*
X118609055Y-55851685D01*
X118705654Y-55870900D01*
X118804146Y-55870900D01*
X118900745Y-55851685D01*
X118991739Y-55813994D01*
X119073631Y-55759275D01*
X119143275Y-55689631D01*
X119197994Y-55607739D01*
X119235685Y-55516745D01*
X119254900Y-55420146D01*
X119254900Y-55321654D01*
X119235685Y-55225055D01*
X119231635Y-55215278D01*
X119261148Y-55206326D01*
X119354325Y-55156521D01*
X119435996Y-55089496D01*
X119503021Y-55007825D01*
X119552826Y-54914648D01*
X119583495Y-54813544D01*
X119593851Y-54708400D01*
X119593851Y-54233400D01*
X119583495Y-54128256D01*
X119552826Y-54027152D01*
X119503021Y-53933975D01*
X119435996Y-53852304D01*
X119354325Y-53785279D01*
X119261148Y-53735474D01*
X119160044Y-53704805D01*
X119054900Y-53694449D01*
X118554900Y-53694449D01*
X118449756Y-53704805D01*
X118348652Y-53735474D01*
X118255475Y-53785279D01*
X118173804Y-53852304D01*
X118106779Y-53933975D01*
X118056974Y-54027152D01*
X118026305Y-54128256D01*
X118015949Y-54233400D01*
X104465000Y-54233400D01*
X104465000Y-53665000D01*
X120603647Y-53665000D01*
X120536152Y-53685474D01*
G37*
%TD.AperFunction*%
D17*
X108331083Y-58015111D02*
X108389850Y-58020899D01*
X108389860Y-58020899D01*
X108409496Y-58022833D01*
X108425586Y-58021248D01*
X108459823Y-58049346D01*
X108511940Y-58077203D01*
X108568490Y-58094358D01*
X108627300Y-58100150D01*
X109389300Y-58100150D01*
X109448110Y-58094358D01*
X109499335Y-58078818D01*
X109972229Y-58551712D01*
X109984755Y-58566975D01*
X110045663Y-58616961D01*
X110115152Y-58654104D01*
X110190552Y-58676976D01*
X110249319Y-58682764D01*
X110249329Y-58682764D01*
X110268965Y-58684698D01*
X110288601Y-58682764D01*
X113113579Y-58682764D01*
X114756284Y-60325469D01*
X114692013Y-60298847D01*
X114595414Y-60279632D01*
X114496922Y-60279632D01*
X114400323Y-60298847D01*
X114309329Y-60336538D01*
X114282250Y-60354632D01*
X111474072Y-60354632D01*
X109954583Y-58835144D01*
X109941274Y-58818927D01*
X109876560Y-58765817D01*
X109802727Y-58726353D01*
X109722614Y-58702051D01*
X109690751Y-58698913D01*
X109690751Y-58443100D01*
X109684959Y-58384290D01*
X109667804Y-58327740D01*
X109639947Y-58275623D01*
X109602458Y-58229942D01*
X109556777Y-58192453D01*
X109504660Y-58164596D01*
X109448110Y-58147441D01*
X109389300Y-58141649D01*
X108627300Y-58141649D01*
X108568490Y-58147441D01*
X108511940Y-58164596D01*
X108459823Y-58192453D01*
X108414142Y-58229942D01*
X108376653Y-58275623D01*
X108348796Y-58327740D01*
X108331641Y-58384290D01*
X108326568Y-58435801D01*
X108321859Y-58387989D01*
X108317797Y-58374599D01*
X108321859Y-58361208D01*
X108327651Y-58302398D01*
X108327651Y-58014070D01*
X108331083Y-58015111D01*
%TA.AperFunction,Conductor*%
D19*
G36*
X108331083Y-58015111D02*
G01*
X108389850Y-58020899D01*
X108389860Y-58020899D01*
X108409496Y-58022833D01*
X108425586Y-58021248D01*
X108459823Y-58049346D01*
X108511940Y-58077203D01*
X108568490Y-58094358D01*
X108627300Y-58100150D01*
X109389300Y-58100150D01*
X109448110Y-58094358D01*
X109499335Y-58078818D01*
X109972229Y-58551712D01*
X109984755Y-58566975D01*
X110045663Y-58616961D01*
X110115152Y-58654104D01*
X110190552Y-58676976D01*
X110249319Y-58682764D01*
X110249329Y-58682764D01*
X110268965Y-58684698D01*
X110288601Y-58682764D01*
X113113579Y-58682764D01*
X114756284Y-60325469D01*
X114692013Y-60298847D01*
X114595414Y-60279632D01*
X114496922Y-60279632D01*
X114400323Y-60298847D01*
X114309329Y-60336538D01*
X114282250Y-60354632D01*
X111474072Y-60354632D01*
X109954583Y-58835144D01*
X109941274Y-58818927D01*
X109876560Y-58765817D01*
X109802727Y-58726353D01*
X109722614Y-58702051D01*
X109690751Y-58698913D01*
X109690751Y-58443100D01*
X109684959Y-58384290D01*
X109667804Y-58327740D01*
X109639947Y-58275623D01*
X109602458Y-58229942D01*
X109556777Y-58192453D01*
X109504660Y-58164596D01*
X109448110Y-58147441D01*
X109389300Y-58141649D01*
X108627300Y-58141649D01*
X108568490Y-58147441D01*
X108511940Y-58164596D01*
X108459823Y-58192453D01*
X108414142Y-58229942D01*
X108376653Y-58275623D01*
X108348796Y-58327740D01*
X108331641Y-58384290D01*
X108326568Y-58435801D01*
X108321859Y-58387989D01*
X108317797Y-58374599D01*
X108321859Y-58361208D01*
X108327651Y-58302398D01*
X108327651Y-58014070D01*
X108331083Y-58015111D01*
G37*
%TD.AperFunction*%
D17*
X109986765Y-60069406D02*
X109965893Y-60069406D01*
X109869294Y-60088621D01*
X109778300Y-60126312D01*
X109713806Y-60169406D01*
X109609938Y-60169406D01*
X109590292Y-60167471D01*
X109570646Y-60169406D01*
X109570645Y-60169406D01*
X109522524Y-60174145D01*
X109504660Y-60164597D01*
X109448110Y-60147442D01*
X109389300Y-60141650D01*
X108721720Y-60141650D01*
X108720413Y-60128383D01*
X108711849Y-60100151D01*
X109389300Y-60100151D01*
X109448110Y-60094359D01*
X109504660Y-60077204D01*
X109556777Y-60049347D01*
X109602458Y-60011858D01*
X109639947Y-59966177D01*
X109667804Y-59914060D01*
X109684959Y-59857510D01*
X109690751Y-59798700D01*
X109690751Y-59773392D01*
X109986765Y-60069406D01*
%TA.AperFunction,Conductor*%
D19*
G36*
X109986765Y-60069406D02*
G01*
X109965893Y-60069406D01*
X109869294Y-60088621D01*
X109778300Y-60126312D01*
X109713806Y-60169406D01*
X109609938Y-60169406D01*
X109590292Y-60167471D01*
X109570646Y-60169406D01*
X109570645Y-60169406D01*
X109522524Y-60174145D01*
X109504660Y-60164597D01*
X109448110Y-60147442D01*
X109389300Y-60141650D01*
X108721720Y-60141650D01*
X108720413Y-60128383D01*
X108711849Y-60100151D01*
X109389300Y-60100151D01*
X109448110Y-60094359D01*
X109504660Y-60077204D01*
X109556777Y-60049347D01*
X109602458Y-60011858D01*
X109639947Y-59966177D01*
X109667804Y-59914060D01*
X109684959Y-59857510D01*
X109690751Y-59798700D01*
X109690751Y-59773392D01*
X109986765Y-60069406D01*
G37*
%TD.AperFunction*%
D17*
X111285120Y-55932522D02*
X111127744Y-56168052D01*
X111019341Y-56429759D01*
X110964078Y-56707585D01*
X110964078Y-56990855D01*
X111019341Y-57268681D01*
X111127744Y-57530388D01*
X111285120Y-57765918D01*
X111401966Y-57882764D01*
X110434651Y-57882764D01*
X109903836Y-57351949D01*
X109891312Y-57336688D01*
X109830404Y-57286702D01*
X109760915Y-57249559D01*
X109685515Y-57226687D01*
X109626748Y-57220899D01*
X109626747Y-57220899D01*
X109607101Y-57218964D01*
X109591013Y-57220549D01*
X109556777Y-57192452D01*
X109504660Y-57164595D01*
X109448110Y-57147440D01*
X109389300Y-57141648D01*
X108721719Y-57141648D01*
X108720413Y-57128384D01*
X108711849Y-57100152D01*
X109389300Y-57100152D01*
X109448110Y-57094360D01*
X109504660Y-57077205D01*
X109556777Y-57049348D01*
X109591013Y-57021252D01*
X109607100Y-57022836D01*
X109626746Y-57020901D01*
X109626747Y-57020901D01*
X109685514Y-57015113D01*
X109760914Y-56992241D01*
X109830403Y-56955098D01*
X109891311Y-56905112D01*
X109903837Y-56889849D01*
X110972472Y-55821214D01*
X111396428Y-55821214D01*
X111285120Y-55932522D01*
%TA.AperFunction,Conductor*%
D19*
G36*
X111285120Y-55932522D02*
G01*
X111127744Y-56168052D01*
X111019341Y-56429759D01*
X110964078Y-56707585D01*
X110964078Y-56990855D01*
X111019341Y-57268681D01*
X111127744Y-57530388D01*
X111285120Y-57765918D01*
X111401966Y-57882764D01*
X110434651Y-57882764D01*
X109903836Y-57351949D01*
X109891312Y-57336688D01*
X109830404Y-57286702D01*
X109760915Y-57249559D01*
X109685515Y-57226687D01*
X109626748Y-57220899D01*
X109626747Y-57220899D01*
X109607101Y-57218964D01*
X109591013Y-57220549D01*
X109556777Y-57192452D01*
X109504660Y-57164595D01*
X109448110Y-57147440D01*
X109389300Y-57141648D01*
X108721719Y-57141648D01*
X108720413Y-57128384D01*
X108711849Y-57100152D01*
X109389300Y-57100152D01*
X109448110Y-57094360D01*
X109504660Y-57077205D01*
X109556777Y-57049348D01*
X109591013Y-57021252D01*
X109607100Y-57022836D01*
X109626746Y-57020901D01*
X109626747Y-57020901D01*
X109685514Y-57015113D01*
X109760914Y-56992241D01*
X109830403Y-56955098D01*
X109891311Y-56905112D01*
X109903837Y-56889849D01*
X110972472Y-55821214D01*
X111396428Y-55821214D01*
X111285120Y-55932522D01*
G37*
%TD.AperFunction*%
%TD*%
M02*
