<?xml version="1.0" standalone="no"?>
 <!DOCTYPE svg PUBLIC "-//W3C//DTD SVG 1.1//EN" 
 "http://www.w3.org/Graphics/SVG/1.1/DTD/svg11.dtd"> 
<svg
  xmlns:svg="http://www.w3.org/2000/svg"
  xmlns="http://www.w3.org/2000/svg"
  xmlns:xlink="http://www.w3.org/1999/xlink"
  version="1.1"
  width="29.700220cm" height="21.000720cm" viewBox="0 0 116930 82680">
<title>SVG Picture created as 001-Edge_Cuts.svg date 2022/03/21 12:05:37 </title>
  <desc>Picture generated by PCBNEW </desc>
<g style="fill:#000000; fill-opacity:1;stroke:#000000; stroke-opacity:1;
stroke-linecap:round; stroke-linejoin:round;"
 transform="translate(0 0) scale(1 1)">
</g>
<g style="fill:#000000; fill-opacity:0.0; 
stroke:#000000; stroke-width:-0.000393701; stroke-opacity:1; 
stroke-linecap:round; stroke-linejoin:round;">
</g>
<g style="fill:#000000; fill-opacity:0.0; 
stroke:#000000; stroke-width:19.685; stroke-opacity:1; 
stroke-linecap:round; stroke-linejoin:round;">
<path d="M45525 29675
L48900 29675
" />
<path d="M41000 25325
L43475 25325
" />
<path d="M50950 25350
L50950 21000
" />
<path d="M48900 29675
L48900 27499
" />
<path d="M49627.9 24094.2 A413.386 413.386 0.0 0 0 49627.9 24921" />
<circle cx="44450.7" cy="24507.6" r="413.386" /> 
<path d="M45525 27500
L43475 25325
" />
<path d="M50950 21000
L41000 21000
" />
<path d="M49627 24094
L50100 24094
" />
<path d="M48900 27499
L50950 25350
" />
<path d="M50100 24920
L49627 24920
" />
<circle cx="44252.8" cy="22381.6" r="433.071" /> 
<path d="M45525 29675
L45525 27500
" />
<path d="M50100.4 24921 A413.386 413.386 0.0 0 0 50100.4 24094.2" />
<path d="M41000 21000
L41000 25325
" />
<circle cx="50158.3" cy="22381.6" r="433.071" /> 
<g >
</g>
<g >
</g>
<g >
</g>
<g >
</g>
<g >
</g>
<g >
</g>
<g >
</g>
<g >
</g>
<g >
</g>
<g >
</g>
</g> 
</svg>
