M48
; DRILL file {KiCad (5.1.10)-1} date 03/08/22 18:55:05
; FORMAT={-:-/ absolute / inch / decimal}
; #@! TF.CreationDate,2022-03-08T18:55:05-05:00
; #@! TF.GenerationSoftware,Kicad,Pcbnew,(5.1.10)-1
; #@! TF.FileFunction,Plated,1,2,PTH
FMAT,2
INCH
T1C0.0118
T2C0.0236
%
G90
G05
T1
X4.1915Y-2.2105
X4.194Y-2.2665
X4.195Y-2.324
X4.207Y-2.387
X4.322Y-2.4063
X4.3225Y-2.361
X4.3313Y-2.3846
X4.3367Y-2.4458
X4.337Y-2.3145
X4.3445Y-2.249
X4.3712Y-2.4803
X4.3818Y-2.5147
X4.4115Y-2.358
X4.4215Y-2.136
X4.447Y-2.3175
X4.5065Y-2.226
X4.5097Y-2.3929
X4.582Y-2.7905
X4.6754Y-2.18
X4.6931Y-2.2292
X4.705Y-2.716
X4.7089Y-2.4044
X4.764Y-2.1819
X4.7652Y-2.425
X4.793Y-2.7805
T2
G00X4.5506Y-2.1307
M15
G01X4.5506Y-2.1544
M16
G05
G00X4.5506Y-2.2855
M15
G01X4.5506Y-2.3288
M16
G05
G00X4.8907Y-2.1307
M15
G01X4.8907Y-2.1544
M16
G05
G00X4.8907Y-2.2855
M15
G01X4.8907Y-2.3288
M16
G05
T0
M30
