%TF.GenerationSoftware,KiCad,Pcbnew,(5.1.10)-1*%
%TF.CreationDate,2022-04-16T23:27:38-04:00*%
%TF.ProjectId,001,3030312e-6b69-4636-9164-5f7063625858,rev?*%
%TF.SameCoordinates,Original*%
%TF.FileFunction,Copper,L1,Top*%
%TF.FilePolarity,Positive*%
%FSLAX46Y46*%
G04 Gerber Fmt 4.6, Leading zero omitted, Abs format (unit mm)*
G04 Created by KiCad (PCBNEW (5.1.10)-1) date 2022-04-16 23:27:38*
%MOMM*%
%LPD*%
G01*
G04 APERTURE LIST*
%TA.AperFunction,ComponentPad*%
%ADD10O,1.000000X2.100000*%
%TD*%
%TA.AperFunction,ComponentPad*%
%ADD11O,1.000000X1.600000*%
%TD*%
%TA.AperFunction,SMDPad,CuDef*%
%ADD12R,1.060000X1.580000*%
%TD*%
%TA.AperFunction,SMDPad,CuDef*%
%ADD13R,0.600000X2.180000*%
%TD*%
%TA.AperFunction,SMDPad,CuDef*%
%ADD14R,1.041400X0.355600*%
%TD*%
%TA.AperFunction,SMDPad,CuDef*%
%ADD15R,0.762000X0.355600*%
%TD*%
%TA.AperFunction,ViaPad*%
%ADD16C,0.400000*%
%TD*%
%TA.AperFunction,Conductor*%
%ADD17C,0.200000*%
%TD*%
%TA.AperFunction,Conductor*%
%ADD18C,0.250000*%
%TD*%
%TA.AperFunction,Conductor*%
%ADD19C,0.100000*%
%TD*%
G04 APERTURE END LIST*
%TO.P,R2,2*%
%TO.N,Net-(J1-PadB5)*%
%TA.AperFunction,SMDPad,CuDef*%
G36*
G01*
X121241000Y-54242500D02*
X121241000Y-54717500D01*
G75*
G02*
X121003500Y-54955000I-237500J0D01*
G01*
X120503500Y-54955000D01*
G75*
G02*
X120266000Y-54717500I0J237500D01*
G01*
X120266000Y-54242500D01*
G75*
G02*
X120503500Y-54005000I237500J0D01*
G01*
X121003500Y-54005000D01*
G75*
G02*
X121241000Y-54242500I0J-237500D01*
G01*
G37*
%TD.AperFunction*%
%TO.P,R2,1*%
%TO.N,GND*%
%TA.AperFunction,SMDPad,CuDef*%
G36*
G01*
X123066000Y-54242500D02*
X123066000Y-54717500D01*
G75*
G02*
X122828500Y-54955000I-237500J0D01*
G01*
X122328500Y-54955000D01*
G75*
G02*
X122091000Y-54717500I0J237500D01*
G01*
X122091000Y-54242500D01*
G75*
G02*
X122328500Y-54005000I237500J0D01*
G01*
X122828500Y-54005000D01*
G75*
G02*
X123066000Y-54242500I0J-237500D01*
G01*
G37*
%TD.AperFunction*%
%TD*%
%TO.P,R1,1*%
%TO.N,GND*%
%TA.AperFunction,SMDPad,CuDef*%
G36*
G01*
X116710000Y-54708400D02*
X116710000Y-54233400D01*
G75*
G02*
X116947500Y-53995900I237500J0D01*
G01*
X117447500Y-53995900D01*
G75*
G02*
X117685000Y-54233400I0J-237500D01*
G01*
X117685000Y-54708400D01*
G75*
G02*
X117447500Y-54945900I-237500J0D01*
G01*
X116947500Y-54945900D01*
G75*
G02*
X116710000Y-54708400I0J237500D01*
G01*
G37*
%TD.AperFunction*%
%TO.P,R1,2*%
%TO.N,Net-(J1-PadA5)*%
%TA.AperFunction,SMDPad,CuDef*%
G36*
G01*
X118535000Y-54708400D02*
X118535000Y-54233400D01*
G75*
G02*
X118772500Y-53995900I237500J0D01*
G01*
X119272500Y-53995900D01*
G75*
G02*
X119510000Y-54233400I0J-237500D01*
G01*
X119510000Y-54708400D01*
G75*
G02*
X119272500Y-54945900I-237500J0D01*
G01*
X118772500Y-54945900D01*
G75*
G02*
X118535000Y-54708400I0J237500D01*
G01*
G37*
%TD.AperFunction*%
%TD*%
D10*
%TO.P,J1,S1*%
%TO.N,GND*%
X124224900Y-58600900D03*
X115584900Y-58600900D03*
D11*
X115584900Y-54420900D03*
X124224900Y-54420900D03*
%TD*%
D12*
%TO.P,D1,7*%
%TO.N,/Annode*%
X116954900Y-73250000D03*
D13*
%TO.P,D1,6*%
X118104900Y-72950000D03*
%TO.P,D1,5*%
%TO.N,/B*%
X119004900Y-72950000D03*
%TO.P,D1,4*%
%TO.N,/R*%
X119904900Y-72950000D03*
%TO.P,D1,3*%
%TO.N,/G*%
X120804900Y-72950000D03*
%TO.P,D1,2*%
%TO.N,/Annode*%
X121704900Y-72950000D03*
D12*
%TO.P,D1,1*%
X122854900Y-73250000D03*
%TD*%
D14*
%TO.P,J2,16*%
%TO.N,N/C*%
X106358300Y-62920900D03*
%TO.P,J2,15*%
X106358300Y-54830899D03*
D15*
%TO.P,J2,12*%
%TO.N,/R*%
X109008300Y-61120900D03*
%TO.P,J2,11*%
%TO.N,/G*%
X109008300Y-60620901D03*
%TO.P,J2,10*%
%TO.N,GND*%
X109008300Y-60120899D03*
%TO.P,J2,9*%
%TO.N,VCC*%
X109008300Y-59620900D03*
%TO.P,J2,8*%
X109008300Y-59120901D03*
%TO.P,J2,7*%
X109008300Y-58620900D03*
%TO.P,J2,6*%
%TO.N,GND*%
X109008300Y-58120900D03*
%TO.P,J2,5*%
%TO.N,/d-*%
X109008300Y-57620899D03*
%TO.P,J2,4*%
%TO.N,GND*%
X109008300Y-57120900D03*
%TO.P,J2,3*%
%TO.N,/d+*%
X109008300Y-56620901D03*
%TO.P,J2,2*%
%TO.N,GND*%
X109008300Y-56120899D03*
%TO.P,J2,1*%
X109008300Y-55620900D03*
%TO.P,J2,13*%
%TO.N,/B*%
X109008300Y-61620900D03*
%TO.P,J2,14*%
%TO.N,GND*%
X108998300Y-62120900D03*
%TD*%
D14*
%TO.P,J3,14*%
%TO.N,N/C*%
X104995200Y-62414600D03*
%TO.P,J3,13*%
X104995200Y-55334598D03*
D15*
%TO.P,J3,12*%
%TO.N,GND*%
X107645200Y-61624599D03*
%TO.P,J3,11*%
%TO.N,/B*%
X107645200Y-61124600D03*
%TO.P,J3,10*%
%TO.N,/R*%
X107645200Y-60624598D03*
%TO.P,J3,9*%
%TO.N,/G*%
X107645200Y-60124599D03*
%TO.P,J3,8*%
%TO.N,/Annode*%
X107645200Y-59624600D03*
%TO.P,J3,7*%
%TO.N,GND*%
X107645200Y-59124599D03*
%TO.P,J3,6*%
%TO.N,VCC*%
X107645200Y-58624599D03*
%TO.P,J3,5*%
X107645200Y-58124598D03*
%TO.P,J3,4*%
%TO.N,GND*%
X107645200Y-57624599D03*
%TO.P,J3,3*%
%TO.N,/d-*%
X107645200Y-57124600D03*
%TO.P,J3,2*%
%TO.N,/d+*%
X107645200Y-56624598D03*
%TO.P,J3,1*%
%TO.N,GND*%
X107645200Y-56124599D03*
%TD*%
%TO.P,R5,2*%
%TO.N,VCC*%
%TA.AperFunction,SMDPad,CuDef*%
G36*
G01*
X122909000Y-68109000D02*
X122709000Y-68109000D01*
G75*
G02*
X122609000Y-68009000I0J100000D01*
G01*
X122609000Y-67749000D01*
G75*
G02*
X122709000Y-67649000I100000J0D01*
G01*
X122909000Y-67649000D01*
G75*
G02*
X123009000Y-67749000I0J-100000D01*
G01*
X123009000Y-68009000D01*
G75*
G02*
X122909000Y-68109000I-100000J0D01*
G01*
G37*
%TD.AperFunction*%
%TO.P,R5,1*%
%TO.N,/Annode*%
%TA.AperFunction,SMDPad,CuDef*%
G36*
G01*
X122909000Y-68749000D02*
X122709000Y-68749000D01*
G75*
G02*
X122609000Y-68649000I0J100000D01*
G01*
X122609000Y-68389000D01*
G75*
G02*
X122709000Y-68289000I100000J0D01*
G01*
X122909000Y-68289000D01*
G75*
G02*
X123009000Y-68389000I0J-100000D01*
G01*
X123009000Y-68649000D01*
G75*
G02*
X122909000Y-68749000I-100000J0D01*
G01*
G37*
%TD.AperFunction*%
%TD*%
D16*
%TO.N,GND*%
X106807000Y-59055000D03*
X106680000Y-56515000D03*
X109982000Y-58674000D03*
X110744000Y-59436000D03*
X112268000Y-59944000D03*
X113665000Y-59436000D03*
X114427000Y-58674000D03*
X116459000Y-57277000D03*
X118110000Y-57277000D03*
X119380000Y-57785000D03*
X121158000Y-58039000D03*
X121031000Y-56642000D03*
X119888000Y-55499000D03*
X120015000Y-61087000D03*
X118618000Y-60960000D03*
X113538000Y-63881000D03*
X115443000Y-65786000D03*
X117094000Y-67437000D03*
X123571000Y-70739000D03*
X123825000Y-67183000D03*
X123825000Y-62865000D03*
X115062000Y-61595000D03*
X116967000Y-61976000D03*
X119253000Y-62230000D03*
X122428000Y-56769000D03*
X122047000Y-55499000D03*
X117221000Y-55499000D03*
X114554000Y-55753000D03*
X114046000Y-56388000D03*
X110871000Y-56261000D03*
X109982000Y-55880000D03*
X109093000Y-62865000D03*
X111379000Y-61341000D03*
X110236000Y-57277000D03*
X121666000Y-70739000D03*
X121920000Y-68326000D03*
X119761000Y-68961000D03*
X122047000Y-66675000D03*
X122047000Y-63754000D03*
X120904000Y-62738000D03*
X105110000Y-63460000D03*
X107420000Y-63560000D03*
%TO.N,Net-(J1-PadB5)*%
X120777000Y-55245000D03*
%TO.N,Net-(J1-PadA5)*%
X118999000Y-55245000D03*
%TO.N,/d-*%
X119658190Y-56998810D03*
%TO.N,/d+*%
X120117810Y-56539190D03*
%TO.N,VCC*%
X114546168Y-60779632D03*
X121034901Y-61595901D03*
%TO.N,/R*%
X107027160Y-60624599D03*
X109626341Y-61120901D03*
%TO.N,/Annode*%
X116954900Y-73250000D03*
X122854900Y-73250000D03*
%TD*%
D17*
%TO.N,GND*%
X110079900Y-57120900D02*
X110236000Y-57277000D01*
X109008300Y-57120900D02*
X110079900Y-57120900D01*
D18*
%TO.N,Net-(J1-PadB5)*%
X121004900Y-54433400D02*
X120992400Y-54420900D01*
D17*
X120777000Y-54444400D02*
X120753500Y-54420900D01*
X120777000Y-55245000D02*
X120777000Y-54444400D01*
D18*
%TO.N,Net-(J1-PadA5)*%
X118754900Y-54520900D02*
X118804900Y-54470900D01*
D17*
X118999000Y-54494400D02*
X119022500Y-54470900D01*
X118999000Y-55245000D02*
X118999000Y-54494400D01*
%TO.N,/d-*%
X108326201Y-57206798D02*
X108244003Y-57124600D01*
X108326201Y-57537603D02*
X108326201Y-57206798D01*
X108244003Y-57124600D02*
X107645200Y-57124600D01*
X109008300Y-57620899D02*
X108409497Y-57620899D01*
X108409497Y-57620899D02*
X108326201Y-57537603D01*
X109668901Y-57620899D02*
X109008300Y-57620899D01*
X111201002Y-59153000D02*
X109668901Y-57620899D01*
X112869200Y-59153000D02*
X111201002Y-59153000D01*
X115409200Y-56613000D02*
X112869200Y-59153000D01*
X119413801Y-56613000D02*
X115409200Y-56613000D01*
X119658190Y-56857389D02*
X119413801Y-56613000D01*
X119658190Y-56998810D02*
X119658190Y-56857389D01*
%TO.N,/d+*%
X107645200Y-56624598D02*
X109004603Y-56624598D01*
X109004603Y-56624598D02*
X109008300Y-56620901D01*
X110871000Y-57150000D02*
X110341901Y-56620901D01*
X110871000Y-58039000D02*
X110871000Y-57150000D01*
X111535000Y-58703000D02*
X110871000Y-58039000D01*
X112682800Y-58703000D02*
X111535000Y-58703000D01*
X110341901Y-56620901D02*
X109008300Y-56620901D01*
X115222800Y-56163000D02*
X112682800Y-58703000D01*
X119600199Y-56163000D02*
X115222800Y-56163000D01*
X119976389Y-56539190D02*
X119600199Y-56163000D01*
X120117810Y-56539190D02*
X119976389Y-56539190D01*
D18*
%TO.N,VCC*%
X109008300Y-59120901D02*
X109639300Y-59120901D01*
X109008300Y-59120901D02*
X109008300Y-59618098D01*
X109639300Y-59120901D02*
X111298031Y-60779632D01*
X111298031Y-60779632D02*
X114546168Y-60779632D01*
X122854900Y-67833100D02*
X122809000Y-67879000D01*
X122809000Y-63370000D02*
X121034901Y-61595901D01*
X122809000Y-67879000D02*
X122809000Y-63370000D01*
D17*
X107645200Y-58624599D02*
X107645200Y-58124598D01*
D18*
X109008300Y-59120901D02*
X109008300Y-58623701D01*
D17*
X107648899Y-58620900D02*
X107645200Y-58624599D01*
X109008300Y-58620900D02*
X107648899Y-58620900D01*
%TO.N,/B*%
X108326201Y-61206798D02*
X108244003Y-61124600D01*
X108326201Y-61537603D02*
X108326201Y-61206798D01*
X108244003Y-61124600D02*
X107645200Y-61124600D01*
X108409498Y-61620900D02*
X108326201Y-61537603D01*
X109008300Y-61620900D02*
X108409498Y-61620900D01*
X109597102Y-61620900D02*
X110236000Y-62259798D01*
X109008300Y-61620900D02*
X109597102Y-61620900D01*
X110236000Y-62259798D02*
X110236000Y-62958502D01*
X117240902Y-69596000D02*
X116873498Y-69596000D01*
X119004900Y-71359998D02*
X117240902Y-69596000D01*
X119004900Y-72390000D02*
X119004900Y-71359998D01*
X116873498Y-69596000D02*
X110236000Y-62958502D01*
%TO.N,/R*%
X107639998Y-60629800D02*
X107645200Y-60624598D01*
X107645199Y-60624599D02*
X107645200Y-60624598D01*
X107027160Y-60624599D02*
X107645199Y-60624599D01*
X109626340Y-61120900D02*
X109626341Y-61120901D01*
X109008300Y-61120900D02*
X109626340Y-61120900D01*
X110636010Y-62094110D02*
X110636010Y-62792814D01*
X109662802Y-61120901D02*
X110636010Y-62094110D01*
X109626341Y-61120901D02*
X109662802Y-61120901D01*
X119904900Y-71100000D02*
X119904900Y-72390000D01*
X117039186Y-69195990D02*
X118000890Y-69195990D01*
X118000890Y-69195990D02*
X119904900Y-71100000D01*
X110636010Y-62792814D02*
X117039186Y-69195990D01*
%TO.N,/G*%
X120804900Y-72920900D02*
X120804900Y-72120900D01*
X108244003Y-60124599D02*
X107645200Y-60124599D01*
X108327299Y-60538700D02*
X108327299Y-60207895D01*
X108409500Y-60620901D02*
X108327299Y-60538700D01*
X108327299Y-60207895D02*
X108244003Y-60124599D01*
X109008300Y-60620901D02*
X108409500Y-60620901D01*
X109866342Y-60620900D02*
X111036020Y-61790578D01*
X109008300Y-60620901D02*
X109866342Y-60620900D01*
X111036020Y-61790578D02*
X111036020Y-62627126D01*
X120804900Y-71100000D02*
X120804900Y-72390000D01*
X118500880Y-68795980D02*
X120804900Y-71100000D01*
X117204874Y-68795980D02*
X118500880Y-68795980D01*
X111036020Y-62627126D02*
X117204874Y-68795980D01*
%TO.N,/Annode*%
X107648900Y-59620900D02*
X107645200Y-59624600D01*
D18*
X122854900Y-73180900D02*
X122004900Y-73180900D01*
X116954900Y-72620900D02*
X117804900Y-72620900D01*
X117804900Y-72620900D02*
X118104900Y-72920900D01*
X122004900Y-73180900D02*
X121704900Y-73480900D01*
X122854900Y-68564900D02*
X122809000Y-68519000D01*
X122809000Y-72575000D02*
X122854900Y-72620900D01*
D17*
X106745400Y-59624600D02*
X107645200Y-59624600D01*
X106299000Y-60071000D02*
X106745400Y-59624600D01*
X108675799Y-63754000D02*
X106299000Y-61377201D01*
X106299000Y-61377201D02*
X106299000Y-60071000D01*
X110465800Y-63754000D02*
X108675799Y-63754000D01*
X116954900Y-70243100D02*
X110465800Y-63754000D01*
X116954900Y-72690000D02*
X116954900Y-70243100D01*
X122809000Y-72644100D02*
X122854900Y-72690000D01*
X122809000Y-68519000D02*
X122809000Y-72644100D01*
%TD*%
%TO.N,GND*%
X129088000Y-64258884D02*
X123984482Y-69610983D01*
X123975080Y-69618699D01*
X123962452Y-69634085D01*
X123959779Y-69636889D01*
X123952322Y-69646429D01*
X123934466Y-69668186D01*
X123932629Y-69671623D01*
X123930230Y-69674692D01*
X123917555Y-69699824D01*
X123904288Y-69724646D01*
X123903157Y-69728374D01*
X123901402Y-69731854D01*
X123893866Y-69759002D01*
X123885704Y-69785909D01*
X123885323Y-69789780D01*
X123884279Y-69793540D01*
X123882185Y-69821642D01*
X123881001Y-69833659D01*
X123881001Y-69837523D01*
X123879521Y-69857381D01*
X123881001Y-69869458D01*
X123881000Y-75049500D01*
X115958500Y-75049500D01*
X115958500Y-69870776D01*
X115959928Y-69859657D01*
X115958500Y-69838868D01*
X115958500Y-69834039D01*
X115957404Y-69822911D01*
X115956547Y-69810433D01*
X116554901Y-70408787D01*
X116554900Y-72158549D01*
X116424900Y-72158549D01*
X116366090Y-72164341D01*
X116309540Y-72181496D01*
X116257423Y-72209353D01*
X116211742Y-72246842D01*
X116174253Y-72292523D01*
X116146396Y-72344640D01*
X116129241Y-72401190D01*
X116123449Y-72460000D01*
X116123449Y-74040000D01*
X116129241Y-74098810D01*
X116146396Y-74155360D01*
X116174253Y-74207477D01*
X116211742Y-74253158D01*
X116257423Y-74290647D01*
X116309540Y-74318504D01*
X116366090Y-74335659D01*
X116424900Y-74341451D01*
X117484900Y-74341451D01*
X117543710Y-74335659D01*
X117600260Y-74318504D01*
X117644900Y-74294644D01*
X117689540Y-74318504D01*
X117746090Y-74335659D01*
X117804900Y-74341451D01*
X118404900Y-74341451D01*
X118463710Y-74335659D01*
X118520260Y-74318504D01*
X118554900Y-74299989D01*
X118589540Y-74318504D01*
X118646090Y-74335659D01*
X118704900Y-74341451D01*
X119304900Y-74341451D01*
X119363710Y-74335659D01*
X119420260Y-74318504D01*
X119454900Y-74299989D01*
X119489540Y-74318504D01*
X119546090Y-74335659D01*
X119604900Y-74341451D01*
X120204900Y-74341451D01*
X120263710Y-74335659D01*
X120320260Y-74318504D01*
X120354900Y-74299989D01*
X120389540Y-74318504D01*
X120446090Y-74335659D01*
X120504900Y-74341451D01*
X121104900Y-74341451D01*
X121163710Y-74335659D01*
X121220260Y-74318504D01*
X121254900Y-74299989D01*
X121289540Y-74318504D01*
X121346090Y-74335659D01*
X121404900Y-74341451D01*
X122004900Y-74341451D01*
X122063710Y-74335659D01*
X122120260Y-74318504D01*
X122164900Y-74294644D01*
X122209540Y-74318504D01*
X122266090Y-74335659D01*
X122324900Y-74341451D01*
X123384900Y-74341451D01*
X123443710Y-74335659D01*
X123500260Y-74318504D01*
X123552377Y-74290647D01*
X123598058Y-74253158D01*
X123635547Y-74207477D01*
X123663404Y-74155360D01*
X123680559Y-74098810D01*
X123686351Y-74040000D01*
X123686351Y-72460000D01*
X123680559Y-72401190D01*
X123663404Y-72344640D01*
X123635547Y-72292523D01*
X123598058Y-72246842D01*
X123552377Y-72209353D01*
X123500260Y-72181496D01*
X123443710Y-72164341D01*
X123384900Y-72158549D01*
X123209000Y-72158549D01*
X123209000Y-68913213D01*
X123242794Y-68872034D01*
X123279892Y-68802629D01*
X123302737Y-68727319D01*
X123310451Y-68649000D01*
X123310451Y-68389000D01*
X123302737Y-68310681D01*
X123279892Y-68235371D01*
X123260451Y-68199000D01*
X123279892Y-68162629D01*
X123302737Y-68087319D01*
X123310451Y-68009000D01*
X123310451Y-67749000D01*
X123302737Y-67670681D01*
X123279892Y-67595371D01*
X123242794Y-67525966D01*
X123234000Y-67515250D01*
X123234000Y-63390867D01*
X123236055Y-63370000D01*
X123234000Y-63349133D01*
X123234000Y-63349126D01*
X123227850Y-63286686D01*
X123225326Y-63278364D01*
X123203548Y-63206572D01*
X123177456Y-63157758D01*
X123164084Y-63132740D01*
X123110974Y-63068026D01*
X123094762Y-63054721D01*
X122267137Y-62227096D01*
X124681263Y-62227096D01*
X124681469Y-62256556D01*
X124681264Y-62286005D01*
X124681706Y-62290521D01*
X124703126Y-62494323D01*
X124709049Y-62523178D01*
X124714569Y-62552113D01*
X124715881Y-62556458D01*
X124776479Y-62752217D01*
X124787898Y-62779381D01*
X124798928Y-62806681D01*
X124801058Y-62810689D01*
X124898525Y-62990951D01*
X124914992Y-63015363D01*
X124931126Y-63040019D01*
X124933994Y-63043536D01*
X125064617Y-63201432D01*
X125085511Y-63222180D01*
X125106128Y-63243233D01*
X125109625Y-63246126D01*
X125268429Y-63375644D01*
X125292974Y-63391951D01*
X125317269Y-63408586D01*
X125321261Y-63410745D01*
X125502198Y-63506951D01*
X125529412Y-63518167D01*
X125556505Y-63529779D01*
X125560840Y-63531122D01*
X125757018Y-63590352D01*
X125785916Y-63596074D01*
X125814726Y-63602197D01*
X125819240Y-63602672D01*
X126023186Y-63622669D01*
X126023192Y-63622669D01*
X126038939Y-63624220D01*
X127270861Y-63624220D01*
X127287644Y-63622567D01*
X127301275Y-63622567D01*
X127305788Y-63622093D01*
X127509435Y-63599250D01*
X127538225Y-63593130D01*
X127567142Y-63587404D01*
X127571477Y-63586062D01*
X127766809Y-63524099D01*
X127793841Y-63512512D01*
X127821117Y-63501270D01*
X127825109Y-63499111D01*
X128004685Y-63400388D01*
X128028992Y-63383745D01*
X128053523Y-63367446D01*
X128057020Y-63364554D01*
X128214002Y-63232832D01*
X128234607Y-63211790D01*
X128255512Y-63191030D01*
X128258381Y-63187513D01*
X128386788Y-63027808D01*
X128402924Y-63003149D01*
X128419389Y-62978739D01*
X128421519Y-62974732D01*
X128516459Y-62793128D01*
X128527476Y-62765859D01*
X128538908Y-62738663D01*
X128540220Y-62734318D01*
X128598079Y-62537731D01*
X128603600Y-62508790D01*
X128609521Y-62479941D01*
X128609965Y-62475424D01*
X128628537Y-62271345D01*
X128628331Y-62241885D01*
X128628536Y-62212436D01*
X128628094Y-62207919D01*
X128606674Y-62004117D01*
X128600751Y-61975263D01*
X128595231Y-61946327D01*
X128593919Y-61941983D01*
X128533321Y-61746223D01*
X128521907Y-61719071D01*
X128510872Y-61691759D01*
X128508742Y-61687752D01*
X128411275Y-61507489D01*
X128394808Y-61483077D01*
X128378674Y-61458421D01*
X128375806Y-61454904D01*
X128245183Y-61297008D01*
X128224272Y-61276243D01*
X128203672Y-61255207D01*
X128200175Y-61252314D01*
X128041370Y-61122796D01*
X128016821Y-61106485D01*
X127992531Y-61089854D01*
X127988539Y-61087695D01*
X127807602Y-60991489D01*
X127780420Y-60980286D01*
X127753295Y-60968660D01*
X127748960Y-60967318D01*
X127552782Y-60908088D01*
X127523884Y-60902366D01*
X127495074Y-60896243D01*
X127490560Y-60895768D01*
X127286614Y-60875771D01*
X127286608Y-60875771D01*
X127270861Y-60874220D01*
X126038939Y-60874220D01*
X126022156Y-60875873D01*
X126008525Y-60875873D01*
X126004012Y-60876347D01*
X125800365Y-60899190D01*
X125771538Y-60905318D01*
X125742658Y-60911037D01*
X125738322Y-60912378D01*
X125542991Y-60974341D01*
X125515947Y-60985933D01*
X125488683Y-60997170D01*
X125484691Y-60999328D01*
X125305115Y-61098052D01*
X125280834Y-61114677D01*
X125256277Y-61130993D01*
X125252780Y-61133886D01*
X125095799Y-61265608D01*
X125075196Y-61286647D01*
X125054288Y-61307410D01*
X125051419Y-61310927D01*
X124923012Y-61470633D01*
X124906876Y-61495292D01*
X124890411Y-61519702D01*
X124888280Y-61523709D01*
X124793341Y-61705312D01*
X124782312Y-61732610D01*
X124770892Y-61759777D01*
X124769580Y-61764121D01*
X124711721Y-61960709D01*
X124706199Y-61989656D01*
X124700279Y-62018499D01*
X124699835Y-62023016D01*
X124681263Y-62227096D01*
X122267137Y-62227096D01*
X121522040Y-61482000D01*
X121515686Y-61450056D01*
X121477995Y-61359062D01*
X121423276Y-61277170D01*
X121353632Y-61207526D01*
X121271740Y-61152807D01*
X121180746Y-61115116D01*
X121084147Y-61095901D01*
X120985655Y-61095901D01*
X120889056Y-61115116D01*
X120798062Y-61152807D01*
X120716170Y-61207526D01*
X120646526Y-61277170D01*
X120591807Y-61359062D01*
X120554116Y-61450056D01*
X120534901Y-61546655D01*
X120534901Y-61645147D01*
X120554116Y-61741746D01*
X120591807Y-61832740D01*
X120646526Y-61914632D01*
X120716170Y-61984276D01*
X120798062Y-62038995D01*
X120889056Y-62076686D01*
X120921000Y-62083040D01*
X122384001Y-63546042D01*
X122384000Y-67515250D01*
X122375206Y-67525966D01*
X122338108Y-67595371D01*
X122315263Y-67670681D01*
X122307549Y-67749000D01*
X122307549Y-68009000D01*
X122315263Y-68087319D01*
X122338108Y-68162629D01*
X122357549Y-68199000D01*
X122338108Y-68235371D01*
X122315263Y-68310681D01*
X122307549Y-68389000D01*
X122307549Y-68649000D01*
X122315263Y-68727319D01*
X122338108Y-68802629D01*
X122375206Y-68872034D01*
X122409000Y-68913213D01*
X122409001Y-72158549D01*
X122324900Y-72158549D01*
X122306351Y-72160376D01*
X122306351Y-71860000D01*
X122300559Y-71801190D01*
X122283404Y-71744640D01*
X122255547Y-71692523D01*
X122218058Y-71646842D01*
X122172377Y-71609353D01*
X122120260Y-71581496D01*
X122063710Y-71564341D01*
X122004900Y-71558549D01*
X121404900Y-71558549D01*
X121346090Y-71564341D01*
X121289540Y-71581496D01*
X121254900Y-71600011D01*
X121220260Y-71581496D01*
X121204900Y-71576836D01*
X121204900Y-71119635D01*
X121206834Y-71099999D01*
X121204900Y-71080363D01*
X121204900Y-71080353D01*
X121199112Y-71021586D01*
X121176240Y-70946186D01*
X121139097Y-70876697D01*
X121089111Y-70815789D01*
X121073854Y-70803268D01*
X118797617Y-68527032D01*
X118785091Y-68511769D01*
X118724183Y-68461783D01*
X118654694Y-68424640D01*
X118579294Y-68401768D01*
X118520527Y-68395980D01*
X118520526Y-68395980D01*
X118500880Y-68394045D01*
X118481234Y-68395980D01*
X117370560Y-68395980D01*
X112573326Y-63598747D01*
X112768166Y-63637503D01*
X113041634Y-63637503D01*
X113309847Y-63584152D01*
X113562498Y-63479500D01*
X113789879Y-63327570D01*
X113983250Y-63134199D01*
X114135180Y-62906818D01*
X114239832Y-62654167D01*
X114293183Y-62385954D01*
X114293183Y-62112486D01*
X114239832Y-61844273D01*
X114135180Y-61591622D01*
X113983250Y-61364241D01*
X113823641Y-61204632D01*
X114282250Y-61204632D01*
X114309329Y-61222726D01*
X114400323Y-61260417D01*
X114496922Y-61279632D01*
X114595414Y-61279632D01*
X114692013Y-61260417D01*
X114783007Y-61222726D01*
X114864899Y-61168007D01*
X114934543Y-61098363D01*
X114989262Y-61016471D01*
X115026953Y-60925477D01*
X115046168Y-60828878D01*
X115046168Y-60730386D01*
X115026953Y-60633787D01*
X114989262Y-60542793D01*
X114934543Y-60460901D01*
X114864899Y-60391257D01*
X114783007Y-60336538D01*
X114692013Y-60298847D01*
X114595414Y-60279632D01*
X114496922Y-60279632D01*
X114400323Y-60298847D01*
X114309329Y-60336538D01*
X114282250Y-60354632D01*
X111474072Y-60354632D01*
X109954583Y-58835144D01*
X109941274Y-58818927D01*
X109876560Y-58765817D01*
X109802727Y-58726353D01*
X109722614Y-58702051D01*
X109690751Y-58698913D01*
X109690751Y-58443100D01*
X109684959Y-58384290D01*
X109667804Y-58327740D01*
X109639947Y-58275623D01*
X109602458Y-58229942D01*
X109556777Y-58192453D01*
X109504660Y-58164596D01*
X109448110Y-58147441D01*
X109389300Y-58141649D01*
X108627300Y-58141649D01*
X108568490Y-58147441D01*
X108511940Y-58164596D01*
X108459823Y-58192453D01*
X108425160Y-58220900D01*
X108327651Y-58220900D01*
X108327651Y-58014070D01*
X108331083Y-58015111D01*
X108389850Y-58020899D01*
X108389860Y-58020899D01*
X108409496Y-58022833D01*
X108425586Y-58021248D01*
X108459823Y-58049346D01*
X108511940Y-58077203D01*
X108568490Y-58094358D01*
X108627300Y-58100150D01*
X109389300Y-58100150D01*
X109448110Y-58094358D01*
X109504660Y-58077203D01*
X109540411Y-58058094D01*
X110904269Y-59421953D01*
X110916791Y-59437211D01*
X110932049Y-59449733D01*
X110932051Y-59449735D01*
X110957702Y-59470786D01*
X110977699Y-59487197D01*
X111047188Y-59524340D01*
X111118266Y-59545901D01*
X111122588Y-59547212D01*
X111201001Y-59554935D01*
X111220648Y-59553000D01*
X112849554Y-59553000D01*
X112869200Y-59554935D01*
X112888846Y-59553000D01*
X112888847Y-59553000D01*
X112947614Y-59547212D01*
X113023014Y-59524340D01*
X113092503Y-59487197D01*
X113153411Y-59437211D01*
X113165937Y-59421948D01*
X114578542Y-58009343D01*
X116389900Y-58009343D01*
X116389900Y-58132457D01*
X116413919Y-58253206D01*
X116461032Y-58366948D01*
X116529431Y-58469314D01*
X116616486Y-58556369D01*
X116718852Y-58624768D01*
X116832594Y-58671881D01*
X116953343Y-58695900D01*
X117076457Y-58695900D01*
X117197206Y-58671881D01*
X117310948Y-58624768D01*
X117413314Y-58556369D01*
X117500369Y-58469314D01*
X117568768Y-58366948D01*
X117615881Y-58253206D01*
X117639900Y-58132457D01*
X117639900Y-58009343D01*
X122169900Y-58009343D01*
X122169900Y-58132457D01*
X122193919Y-58253206D01*
X122241032Y-58366948D01*
X122309431Y-58469314D01*
X122396486Y-58556369D01*
X122498852Y-58624768D01*
X122612594Y-58671881D01*
X122733343Y-58695900D01*
X122856457Y-58695900D01*
X122977206Y-58671881D01*
X123090948Y-58624768D01*
X123193314Y-58556369D01*
X123280369Y-58469314D01*
X123348768Y-58366948D01*
X123395881Y-58253206D01*
X123419900Y-58132457D01*
X123419900Y-58009343D01*
X123395881Y-57888594D01*
X123348768Y-57774852D01*
X123280369Y-57672486D01*
X123193314Y-57585431D01*
X123090948Y-57517032D01*
X122977206Y-57469919D01*
X122856457Y-57445900D01*
X122733343Y-57445900D01*
X122612594Y-57469919D01*
X122498852Y-57517032D01*
X122396486Y-57585431D01*
X122309431Y-57672486D01*
X122241032Y-57774852D01*
X122193919Y-57888594D01*
X122169900Y-58009343D01*
X117639900Y-58009343D01*
X117615881Y-57888594D01*
X117568768Y-57774852D01*
X117500369Y-57672486D01*
X117413314Y-57585431D01*
X117310948Y-57517032D01*
X117197206Y-57469919D01*
X117076457Y-57445900D01*
X116953343Y-57445900D01*
X116832594Y-57469919D01*
X116718852Y-57517032D01*
X116616486Y-57585431D01*
X116529431Y-57672486D01*
X116461032Y-57774852D01*
X116413919Y-57888594D01*
X116389900Y-58009343D01*
X114578542Y-58009343D01*
X115574885Y-57013000D01*
X119158190Y-57013000D01*
X119158190Y-57048056D01*
X119177405Y-57144655D01*
X119215096Y-57235649D01*
X119269815Y-57317541D01*
X119339459Y-57387185D01*
X119421351Y-57441904D01*
X119512345Y-57479595D01*
X119608944Y-57498810D01*
X119707436Y-57498810D01*
X119804035Y-57479595D01*
X119895029Y-57441904D01*
X119976921Y-57387185D01*
X120046565Y-57317541D01*
X120101284Y-57235649D01*
X120138975Y-57144655D01*
X120158190Y-57048056D01*
X120158190Y-57039190D01*
X120167056Y-57039190D01*
X120263655Y-57019975D01*
X120354649Y-56982284D01*
X120436541Y-56927565D01*
X120506185Y-56857921D01*
X120560904Y-56776029D01*
X120589254Y-56707585D01*
X125964078Y-56707585D01*
X125964078Y-56990855D01*
X126019341Y-57268681D01*
X126127744Y-57530388D01*
X126285120Y-57765918D01*
X126485422Y-57966220D01*
X126720952Y-58123596D01*
X126982659Y-58231999D01*
X127260485Y-58287262D01*
X127543755Y-58287262D01*
X127821581Y-58231999D01*
X128083288Y-58123596D01*
X128318818Y-57966220D01*
X128519120Y-57765918D01*
X128676496Y-57530388D01*
X128784899Y-57268681D01*
X128840162Y-56990855D01*
X128840162Y-56707585D01*
X128784899Y-56429759D01*
X128676496Y-56168052D01*
X128519120Y-55932522D01*
X128318818Y-55732220D01*
X128083288Y-55574844D01*
X127821581Y-55466441D01*
X127543755Y-55411178D01*
X127260485Y-55411178D01*
X126982659Y-55466441D01*
X126720952Y-55574844D01*
X126485422Y-55732220D01*
X126285120Y-55932522D01*
X126127744Y-56168052D01*
X126019341Y-56429759D01*
X125964078Y-56707585D01*
X120589254Y-56707585D01*
X120598595Y-56685035D01*
X120617810Y-56588436D01*
X120617810Y-56489944D01*
X120598595Y-56393345D01*
X120560904Y-56302351D01*
X120506185Y-56220459D01*
X120436541Y-56150815D01*
X120354649Y-56096096D01*
X120263655Y-56058405D01*
X120167056Y-56039190D01*
X120068564Y-56039190D01*
X120046469Y-56043585D01*
X119896936Y-55894052D01*
X119884410Y-55878789D01*
X119823502Y-55828803D01*
X119754013Y-55791660D01*
X119678613Y-55768788D01*
X119619846Y-55763000D01*
X119619845Y-55763000D01*
X119600199Y-55761065D01*
X119580553Y-55763000D01*
X115242435Y-55763000D01*
X115222799Y-55761066D01*
X115203163Y-55763000D01*
X115203153Y-55763000D01*
X115144386Y-55768788D01*
X115068986Y-55791660D01*
X114999497Y-55828803D01*
X114938589Y-55878789D01*
X114926063Y-55894052D01*
X113840162Y-56979953D01*
X113840162Y-56707585D01*
X113784899Y-56429759D01*
X113676496Y-56168052D01*
X113519120Y-55932522D01*
X113318818Y-55732220D01*
X113083288Y-55574844D01*
X112821581Y-55466441D01*
X112543755Y-55411178D01*
X112260485Y-55411178D01*
X111982659Y-55466441D01*
X111720952Y-55574844D01*
X111485422Y-55732220D01*
X111285120Y-55932522D01*
X111127744Y-56168052D01*
X111019341Y-56429759D01*
X110969087Y-56682402D01*
X110638638Y-56351953D01*
X110626112Y-56336690D01*
X110565204Y-56286704D01*
X110495715Y-56249561D01*
X110420315Y-56226689D01*
X110361548Y-56220901D01*
X110361547Y-56220901D01*
X110341901Y-56218966D01*
X110322255Y-56220901D01*
X109591440Y-56220901D01*
X109556777Y-56192454D01*
X109504660Y-56164597D01*
X109448110Y-56147442D01*
X109389300Y-56141650D01*
X108627300Y-56141650D01*
X108568490Y-56147442D01*
X108511940Y-56164597D01*
X108459823Y-56192454D01*
X108420655Y-56224598D01*
X108228340Y-56224598D01*
X108193677Y-56196151D01*
X108141560Y-56168294D01*
X108085010Y-56151139D01*
X108026200Y-56145347D01*
X107264200Y-56145347D01*
X107205390Y-56151139D01*
X107148840Y-56168294D01*
X107096723Y-56196151D01*
X107051042Y-56233640D01*
X107013553Y-56279321D01*
X106985696Y-56331438D01*
X106968541Y-56387988D01*
X106962749Y-56446798D01*
X106962749Y-56802398D01*
X106968541Y-56861208D01*
X106972603Y-56874599D01*
X106968541Y-56887990D01*
X106962749Y-56946800D01*
X106962749Y-57302400D01*
X106968541Y-57361210D01*
X106985696Y-57417760D01*
X107013553Y-57469877D01*
X107051042Y-57515558D01*
X107096723Y-57553047D01*
X107148840Y-57580904D01*
X107205390Y-57598059D01*
X107264200Y-57603851D01*
X107930791Y-57603851D01*
X107931989Y-57616016D01*
X107940886Y-57645347D01*
X107264200Y-57645347D01*
X107205390Y-57651139D01*
X107148840Y-57668294D01*
X107096723Y-57696151D01*
X107051042Y-57733640D01*
X107013553Y-57779321D01*
X106985696Y-57831438D01*
X106968541Y-57887988D01*
X106962749Y-57946798D01*
X106962749Y-58302398D01*
X106968541Y-58361208D01*
X106972603Y-58374599D01*
X106968541Y-58387989D01*
X106962749Y-58446799D01*
X106962749Y-58802399D01*
X106968541Y-58861209D01*
X106985696Y-58917759D01*
X107013553Y-58969876D01*
X107051042Y-59015557D01*
X107096723Y-59053046D01*
X107148840Y-59080903D01*
X107205390Y-59098058D01*
X107264200Y-59103850D01*
X108026200Y-59103850D01*
X108085010Y-59098058D01*
X108141560Y-59080903D01*
X108193677Y-59053046D01*
X108232847Y-59020900D01*
X108325849Y-59020900D01*
X108325849Y-59298701D01*
X108331641Y-59357511D01*
X108335703Y-59370900D01*
X108331641Y-59384290D01*
X108326568Y-59435802D01*
X108321859Y-59387990D01*
X108304704Y-59331440D01*
X108276847Y-59279323D01*
X108239358Y-59233642D01*
X108193677Y-59196153D01*
X108141560Y-59168296D01*
X108085010Y-59151141D01*
X108026200Y-59145349D01*
X107264200Y-59145349D01*
X107205390Y-59151141D01*
X107148840Y-59168296D01*
X107096723Y-59196153D01*
X107062060Y-59224600D01*
X106765046Y-59224600D01*
X106745400Y-59222665D01*
X106666986Y-59230388D01*
X106591585Y-59253260D01*
X106522097Y-59290403D01*
X106476449Y-59327865D01*
X106476447Y-59327867D01*
X106461189Y-59340389D01*
X106448667Y-59355647D01*
X106030047Y-59774268D01*
X106014790Y-59786789D01*
X106002268Y-59802047D01*
X106002265Y-59802050D01*
X105964803Y-59847698D01*
X105927661Y-59917186D01*
X105904788Y-59992587D01*
X105897065Y-60071000D01*
X105899001Y-60090656D01*
X105899000Y-61357554D01*
X105897065Y-61377201D01*
X105899000Y-61396847D01*
X105904788Y-61455614D01*
X105927660Y-61531014D01*
X105964803Y-61600503D01*
X106014789Y-61661412D01*
X106030052Y-61673938D01*
X106797763Y-62441649D01*
X105837600Y-62441649D01*
X105817351Y-62443643D01*
X105817351Y-62236800D01*
X105811559Y-62177990D01*
X105794404Y-62121440D01*
X105766547Y-62069323D01*
X105729058Y-62023642D01*
X105683377Y-61986153D01*
X105631260Y-61958296D01*
X105574710Y-61941141D01*
X105515900Y-61935349D01*
X104474500Y-61935349D01*
X104465000Y-61936285D01*
X104465000Y-55812913D01*
X104474500Y-55813849D01*
X105515900Y-55813849D01*
X105574710Y-55808057D01*
X105631260Y-55790902D01*
X105683377Y-55763045D01*
X105729058Y-55725556D01*
X105766547Y-55679875D01*
X105794404Y-55627758D01*
X105811559Y-55571208D01*
X105817351Y-55512398D01*
X105817351Y-55308156D01*
X105837600Y-55310150D01*
X106879000Y-55310150D01*
X106937810Y-55304358D01*
X106994360Y-55287203D01*
X107046477Y-55259346D01*
X107092158Y-55221857D01*
X107129647Y-55176176D01*
X107157504Y-55124059D01*
X107174659Y-55067509D01*
X107180451Y-55008699D01*
X107180451Y-54653099D01*
X107174659Y-54594289D01*
X107157504Y-54537739D01*
X107129647Y-54485622D01*
X107092158Y-54439941D01*
X107046477Y-54402452D01*
X106994360Y-54374595D01*
X106937810Y-54357440D01*
X106879000Y-54351648D01*
X105837600Y-54351648D01*
X105778790Y-54357440D01*
X105722240Y-54374595D01*
X105670123Y-54402452D01*
X105624442Y-54439941D01*
X105586953Y-54485622D01*
X105559096Y-54537739D01*
X105541941Y-54594289D01*
X105536149Y-54653099D01*
X105536149Y-54857341D01*
X105515900Y-54855347D01*
X104474500Y-54855347D01*
X104465000Y-54856283D01*
X104465000Y-54233400D01*
X118233549Y-54233400D01*
X118233549Y-54708400D01*
X118243905Y-54813544D01*
X118274574Y-54914648D01*
X118324379Y-55007825D01*
X118391404Y-55089496D01*
X118473075Y-55156521D01*
X118503562Y-55172817D01*
X118499000Y-55195754D01*
X118499000Y-55294246D01*
X118518215Y-55390845D01*
X118555906Y-55481839D01*
X118610625Y-55563731D01*
X118680269Y-55633375D01*
X118762161Y-55688094D01*
X118853155Y-55725785D01*
X118949754Y-55745000D01*
X119048246Y-55745000D01*
X119144845Y-55725785D01*
X119235839Y-55688094D01*
X119317731Y-55633375D01*
X119387375Y-55563731D01*
X119442094Y-55481839D01*
X119479785Y-55390845D01*
X119499000Y-55294246D01*
X119499000Y-55195754D01*
X119498954Y-55195525D01*
X119571925Y-55156521D01*
X119653596Y-55089496D01*
X119720621Y-55007825D01*
X119770426Y-54914648D01*
X119801095Y-54813544D01*
X119811451Y-54708400D01*
X119811451Y-54242500D01*
X119964549Y-54242500D01*
X119964549Y-54717500D01*
X119974905Y-54822644D01*
X120005574Y-54923748D01*
X120055379Y-55016925D01*
X120122404Y-55098596D01*
X120204075Y-55165621D01*
X120277000Y-55204601D01*
X120277000Y-55294246D01*
X120296215Y-55390845D01*
X120333906Y-55481839D01*
X120388625Y-55563731D01*
X120458269Y-55633375D01*
X120540161Y-55688094D01*
X120631155Y-55725785D01*
X120727754Y-55745000D01*
X120826246Y-55745000D01*
X120922845Y-55725785D01*
X121013839Y-55688094D01*
X121095731Y-55633375D01*
X121165375Y-55563731D01*
X121220094Y-55481839D01*
X121257785Y-55390845D01*
X121277000Y-55294246D01*
X121277000Y-55195754D01*
X121274074Y-55181043D01*
X121302925Y-55165621D01*
X121384596Y-55098596D01*
X121451621Y-55016925D01*
X121501426Y-54923748D01*
X121532095Y-54822644D01*
X121542451Y-54717500D01*
X121542451Y-54242500D01*
X121532095Y-54137356D01*
X121501426Y-54036252D01*
X121451621Y-53943075D01*
X121384596Y-53861404D01*
X121302925Y-53794379D01*
X121209748Y-53744574D01*
X121108644Y-53713905D01*
X121003500Y-53703549D01*
X120503500Y-53703549D01*
X120398356Y-53713905D01*
X120297252Y-53744574D01*
X120204075Y-53794379D01*
X120122404Y-53861404D01*
X120055379Y-53943075D01*
X120005574Y-54036252D01*
X119974905Y-54137356D01*
X119964549Y-54242500D01*
X119811451Y-54242500D01*
X119811451Y-54233400D01*
X119801095Y-54128256D01*
X119770426Y-54027152D01*
X119720621Y-53933975D01*
X119653596Y-53852304D01*
X119571925Y-53785279D01*
X119478748Y-53735474D01*
X119377644Y-53704805D01*
X119272500Y-53694449D01*
X118772500Y-53694449D01*
X118667356Y-53704805D01*
X118566252Y-53735474D01*
X118473075Y-53785279D01*
X118391404Y-53852304D01*
X118324379Y-53933975D01*
X118274574Y-54027152D01*
X118243905Y-54128256D01*
X118233549Y-54233400D01*
X104465000Y-54233400D01*
X104465000Y-53665000D01*
X129088001Y-53665000D01*
X129088000Y-64258884D01*
%TA.AperFunction,Conductor*%
D19*
G36*
X129088000Y-64258884D02*
G01*
X123984482Y-69610983D01*
X123975080Y-69618699D01*
X123962452Y-69634085D01*
X123959779Y-69636889D01*
X123952322Y-69646429D01*
X123934466Y-69668186D01*
X123932629Y-69671623D01*
X123930230Y-69674692D01*
X123917555Y-69699824D01*
X123904288Y-69724646D01*
X123903157Y-69728374D01*
X123901402Y-69731854D01*
X123893866Y-69759002D01*
X123885704Y-69785909D01*
X123885323Y-69789780D01*
X123884279Y-69793540D01*
X123882185Y-69821642D01*
X123881001Y-69833659D01*
X123881001Y-69837523D01*
X123879521Y-69857381D01*
X123881001Y-69869458D01*
X123881000Y-75049500D01*
X115958500Y-75049500D01*
X115958500Y-69870776D01*
X115959928Y-69859657D01*
X115958500Y-69838868D01*
X115958500Y-69834039D01*
X115957404Y-69822911D01*
X115956547Y-69810433D01*
X116554901Y-70408787D01*
X116554900Y-72158549D01*
X116424900Y-72158549D01*
X116366090Y-72164341D01*
X116309540Y-72181496D01*
X116257423Y-72209353D01*
X116211742Y-72246842D01*
X116174253Y-72292523D01*
X116146396Y-72344640D01*
X116129241Y-72401190D01*
X116123449Y-72460000D01*
X116123449Y-74040000D01*
X116129241Y-74098810D01*
X116146396Y-74155360D01*
X116174253Y-74207477D01*
X116211742Y-74253158D01*
X116257423Y-74290647D01*
X116309540Y-74318504D01*
X116366090Y-74335659D01*
X116424900Y-74341451D01*
X117484900Y-74341451D01*
X117543710Y-74335659D01*
X117600260Y-74318504D01*
X117644900Y-74294644D01*
X117689540Y-74318504D01*
X117746090Y-74335659D01*
X117804900Y-74341451D01*
X118404900Y-74341451D01*
X118463710Y-74335659D01*
X118520260Y-74318504D01*
X118554900Y-74299989D01*
X118589540Y-74318504D01*
X118646090Y-74335659D01*
X118704900Y-74341451D01*
X119304900Y-74341451D01*
X119363710Y-74335659D01*
X119420260Y-74318504D01*
X119454900Y-74299989D01*
X119489540Y-74318504D01*
X119546090Y-74335659D01*
X119604900Y-74341451D01*
X120204900Y-74341451D01*
X120263710Y-74335659D01*
X120320260Y-74318504D01*
X120354900Y-74299989D01*
X120389540Y-74318504D01*
X120446090Y-74335659D01*
X120504900Y-74341451D01*
X121104900Y-74341451D01*
X121163710Y-74335659D01*
X121220260Y-74318504D01*
X121254900Y-74299989D01*
X121289540Y-74318504D01*
X121346090Y-74335659D01*
X121404900Y-74341451D01*
X122004900Y-74341451D01*
X122063710Y-74335659D01*
X122120260Y-74318504D01*
X122164900Y-74294644D01*
X122209540Y-74318504D01*
X122266090Y-74335659D01*
X122324900Y-74341451D01*
X123384900Y-74341451D01*
X123443710Y-74335659D01*
X123500260Y-74318504D01*
X123552377Y-74290647D01*
X123598058Y-74253158D01*
X123635547Y-74207477D01*
X123663404Y-74155360D01*
X123680559Y-74098810D01*
X123686351Y-74040000D01*
X123686351Y-72460000D01*
X123680559Y-72401190D01*
X123663404Y-72344640D01*
X123635547Y-72292523D01*
X123598058Y-72246842D01*
X123552377Y-72209353D01*
X123500260Y-72181496D01*
X123443710Y-72164341D01*
X123384900Y-72158549D01*
X123209000Y-72158549D01*
X123209000Y-68913213D01*
X123242794Y-68872034D01*
X123279892Y-68802629D01*
X123302737Y-68727319D01*
X123310451Y-68649000D01*
X123310451Y-68389000D01*
X123302737Y-68310681D01*
X123279892Y-68235371D01*
X123260451Y-68199000D01*
X123279892Y-68162629D01*
X123302737Y-68087319D01*
X123310451Y-68009000D01*
X123310451Y-67749000D01*
X123302737Y-67670681D01*
X123279892Y-67595371D01*
X123242794Y-67525966D01*
X123234000Y-67515250D01*
X123234000Y-63390867D01*
X123236055Y-63370000D01*
X123234000Y-63349133D01*
X123234000Y-63349126D01*
X123227850Y-63286686D01*
X123225326Y-63278364D01*
X123203548Y-63206572D01*
X123177456Y-63157758D01*
X123164084Y-63132740D01*
X123110974Y-63068026D01*
X123094762Y-63054721D01*
X122267137Y-62227096D01*
X124681263Y-62227096D01*
X124681469Y-62256556D01*
X124681264Y-62286005D01*
X124681706Y-62290521D01*
X124703126Y-62494323D01*
X124709049Y-62523178D01*
X124714569Y-62552113D01*
X124715881Y-62556458D01*
X124776479Y-62752217D01*
X124787898Y-62779381D01*
X124798928Y-62806681D01*
X124801058Y-62810689D01*
X124898525Y-62990951D01*
X124914992Y-63015363D01*
X124931126Y-63040019D01*
X124933994Y-63043536D01*
X125064617Y-63201432D01*
X125085511Y-63222180D01*
X125106128Y-63243233D01*
X125109625Y-63246126D01*
X125268429Y-63375644D01*
X125292974Y-63391951D01*
X125317269Y-63408586D01*
X125321261Y-63410745D01*
X125502198Y-63506951D01*
X125529412Y-63518167D01*
X125556505Y-63529779D01*
X125560840Y-63531122D01*
X125757018Y-63590352D01*
X125785916Y-63596074D01*
X125814726Y-63602197D01*
X125819240Y-63602672D01*
X126023186Y-63622669D01*
X126023192Y-63622669D01*
X126038939Y-63624220D01*
X127270861Y-63624220D01*
X127287644Y-63622567D01*
X127301275Y-63622567D01*
X127305788Y-63622093D01*
X127509435Y-63599250D01*
X127538225Y-63593130D01*
X127567142Y-63587404D01*
X127571477Y-63586062D01*
X127766809Y-63524099D01*
X127793841Y-63512512D01*
X127821117Y-63501270D01*
X127825109Y-63499111D01*
X128004685Y-63400388D01*
X128028992Y-63383745D01*
X128053523Y-63367446D01*
X128057020Y-63364554D01*
X128214002Y-63232832D01*
X128234607Y-63211790D01*
X128255512Y-63191030D01*
X128258381Y-63187513D01*
X128386788Y-63027808D01*
X128402924Y-63003149D01*
X128419389Y-62978739D01*
X128421519Y-62974732D01*
X128516459Y-62793128D01*
X128527476Y-62765859D01*
X128538908Y-62738663D01*
X128540220Y-62734318D01*
X128598079Y-62537731D01*
X128603600Y-62508790D01*
X128609521Y-62479941D01*
X128609965Y-62475424D01*
X128628537Y-62271345D01*
X128628331Y-62241885D01*
X128628536Y-62212436D01*
X128628094Y-62207919D01*
X128606674Y-62004117D01*
X128600751Y-61975263D01*
X128595231Y-61946327D01*
X128593919Y-61941983D01*
X128533321Y-61746223D01*
X128521907Y-61719071D01*
X128510872Y-61691759D01*
X128508742Y-61687752D01*
X128411275Y-61507489D01*
X128394808Y-61483077D01*
X128378674Y-61458421D01*
X128375806Y-61454904D01*
X128245183Y-61297008D01*
X128224272Y-61276243D01*
X128203672Y-61255207D01*
X128200175Y-61252314D01*
X128041370Y-61122796D01*
X128016821Y-61106485D01*
X127992531Y-61089854D01*
X127988539Y-61087695D01*
X127807602Y-60991489D01*
X127780420Y-60980286D01*
X127753295Y-60968660D01*
X127748960Y-60967318D01*
X127552782Y-60908088D01*
X127523884Y-60902366D01*
X127495074Y-60896243D01*
X127490560Y-60895768D01*
X127286614Y-60875771D01*
X127286608Y-60875771D01*
X127270861Y-60874220D01*
X126038939Y-60874220D01*
X126022156Y-60875873D01*
X126008525Y-60875873D01*
X126004012Y-60876347D01*
X125800365Y-60899190D01*
X125771538Y-60905318D01*
X125742658Y-60911037D01*
X125738322Y-60912378D01*
X125542991Y-60974341D01*
X125515947Y-60985933D01*
X125488683Y-60997170D01*
X125484691Y-60999328D01*
X125305115Y-61098052D01*
X125280834Y-61114677D01*
X125256277Y-61130993D01*
X125252780Y-61133886D01*
X125095799Y-61265608D01*
X125075196Y-61286647D01*
X125054288Y-61307410D01*
X125051419Y-61310927D01*
X124923012Y-61470633D01*
X124906876Y-61495292D01*
X124890411Y-61519702D01*
X124888280Y-61523709D01*
X124793341Y-61705312D01*
X124782312Y-61732610D01*
X124770892Y-61759777D01*
X124769580Y-61764121D01*
X124711721Y-61960709D01*
X124706199Y-61989656D01*
X124700279Y-62018499D01*
X124699835Y-62023016D01*
X124681263Y-62227096D01*
X122267137Y-62227096D01*
X121522040Y-61482000D01*
X121515686Y-61450056D01*
X121477995Y-61359062D01*
X121423276Y-61277170D01*
X121353632Y-61207526D01*
X121271740Y-61152807D01*
X121180746Y-61115116D01*
X121084147Y-61095901D01*
X120985655Y-61095901D01*
X120889056Y-61115116D01*
X120798062Y-61152807D01*
X120716170Y-61207526D01*
X120646526Y-61277170D01*
X120591807Y-61359062D01*
X120554116Y-61450056D01*
X120534901Y-61546655D01*
X120534901Y-61645147D01*
X120554116Y-61741746D01*
X120591807Y-61832740D01*
X120646526Y-61914632D01*
X120716170Y-61984276D01*
X120798062Y-62038995D01*
X120889056Y-62076686D01*
X120921000Y-62083040D01*
X122384001Y-63546042D01*
X122384000Y-67515250D01*
X122375206Y-67525966D01*
X122338108Y-67595371D01*
X122315263Y-67670681D01*
X122307549Y-67749000D01*
X122307549Y-68009000D01*
X122315263Y-68087319D01*
X122338108Y-68162629D01*
X122357549Y-68199000D01*
X122338108Y-68235371D01*
X122315263Y-68310681D01*
X122307549Y-68389000D01*
X122307549Y-68649000D01*
X122315263Y-68727319D01*
X122338108Y-68802629D01*
X122375206Y-68872034D01*
X122409000Y-68913213D01*
X122409001Y-72158549D01*
X122324900Y-72158549D01*
X122306351Y-72160376D01*
X122306351Y-71860000D01*
X122300559Y-71801190D01*
X122283404Y-71744640D01*
X122255547Y-71692523D01*
X122218058Y-71646842D01*
X122172377Y-71609353D01*
X122120260Y-71581496D01*
X122063710Y-71564341D01*
X122004900Y-71558549D01*
X121404900Y-71558549D01*
X121346090Y-71564341D01*
X121289540Y-71581496D01*
X121254900Y-71600011D01*
X121220260Y-71581496D01*
X121204900Y-71576836D01*
X121204900Y-71119635D01*
X121206834Y-71099999D01*
X121204900Y-71080363D01*
X121204900Y-71080353D01*
X121199112Y-71021586D01*
X121176240Y-70946186D01*
X121139097Y-70876697D01*
X121089111Y-70815789D01*
X121073854Y-70803268D01*
X118797617Y-68527032D01*
X118785091Y-68511769D01*
X118724183Y-68461783D01*
X118654694Y-68424640D01*
X118579294Y-68401768D01*
X118520527Y-68395980D01*
X118520526Y-68395980D01*
X118500880Y-68394045D01*
X118481234Y-68395980D01*
X117370560Y-68395980D01*
X112573326Y-63598747D01*
X112768166Y-63637503D01*
X113041634Y-63637503D01*
X113309847Y-63584152D01*
X113562498Y-63479500D01*
X113789879Y-63327570D01*
X113983250Y-63134199D01*
X114135180Y-62906818D01*
X114239832Y-62654167D01*
X114293183Y-62385954D01*
X114293183Y-62112486D01*
X114239832Y-61844273D01*
X114135180Y-61591622D01*
X113983250Y-61364241D01*
X113823641Y-61204632D01*
X114282250Y-61204632D01*
X114309329Y-61222726D01*
X114400323Y-61260417D01*
X114496922Y-61279632D01*
X114595414Y-61279632D01*
X114692013Y-61260417D01*
X114783007Y-61222726D01*
X114864899Y-61168007D01*
X114934543Y-61098363D01*
X114989262Y-61016471D01*
X115026953Y-60925477D01*
X115046168Y-60828878D01*
X115046168Y-60730386D01*
X115026953Y-60633787D01*
X114989262Y-60542793D01*
X114934543Y-60460901D01*
X114864899Y-60391257D01*
X114783007Y-60336538D01*
X114692013Y-60298847D01*
X114595414Y-60279632D01*
X114496922Y-60279632D01*
X114400323Y-60298847D01*
X114309329Y-60336538D01*
X114282250Y-60354632D01*
X111474072Y-60354632D01*
X109954583Y-58835144D01*
X109941274Y-58818927D01*
X109876560Y-58765817D01*
X109802727Y-58726353D01*
X109722614Y-58702051D01*
X109690751Y-58698913D01*
X109690751Y-58443100D01*
X109684959Y-58384290D01*
X109667804Y-58327740D01*
X109639947Y-58275623D01*
X109602458Y-58229942D01*
X109556777Y-58192453D01*
X109504660Y-58164596D01*
X109448110Y-58147441D01*
X109389300Y-58141649D01*
X108627300Y-58141649D01*
X108568490Y-58147441D01*
X108511940Y-58164596D01*
X108459823Y-58192453D01*
X108425160Y-58220900D01*
X108327651Y-58220900D01*
X108327651Y-58014070D01*
X108331083Y-58015111D01*
X108389850Y-58020899D01*
X108389860Y-58020899D01*
X108409496Y-58022833D01*
X108425586Y-58021248D01*
X108459823Y-58049346D01*
X108511940Y-58077203D01*
X108568490Y-58094358D01*
X108627300Y-58100150D01*
X109389300Y-58100150D01*
X109448110Y-58094358D01*
X109504660Y-58077203D01*
X109540411Y-58058094D01*
X110904269Y-59421953D01*
X110916791Y-59437211D01*
X110932049Y-59449733D01*
X110932051Y-59449735D01*
X110957702Y-59470786D01*
X110977699Y-59487197D01*
X111047188Y-59524340D01*
X111118266Y-59545901D01*
X111122588Y-59547212D01*
X111201001Y-59554935D01*
X111220648Y-59553000D01*
X112849554Y-59553000D01*
X112869200Y-59554935D01*
X112888846Y-59553000D01*
X112888847Y-59553000D01*
X112947614Y-59547212D01*
X113023014Y-59524340D01*
X113092503Y-59487197D01*
X113153411Y-59437211D01*
X113165937Y-59421948D01*
X114578542Y-58009343D01*
X116389900Y-58009343D01*
X116389900Y-58132457D01*
X116413919Y-58253206D01*
X116461032Y-58366948D01*
X116529431Y-58469314D01*
X116616486Y-58556369D01*
X116718852Y-58624768D01*
X116832594Y-58671881D01*
X116953343Y-58695900D01*
X117076457Y-58695900D01*
X117197206Y-58671881D01*
X117310948Y-58624768D01*
X117413314Y-58556369D01*
X117500369Y-58469314D01*
X117568768Y-58366948D01*
X117615881Y-58253206D01*
X117639900Y-58132457D01*
X117639900Y-58009343D01*
X122169900Y-58009343D01*
X122169900Y-58132457D01*
X122193919Y-58253206D01*
X122241032Y-58366948D01*
X122309431Y-58469314D01*
X122396486Y-58556369D01*
X122498852Y-58624768D01*
X122612594Y-58671881D01*
X122733343Y-58695900D01*
X122856457Y-58695900D01*
X122977206Y-58671881D01*
X123090948Y-58624768D01*
X123193314Y-58556369D01*
X123280369Y-58469314D01*
X123348768Y-58366948D01*
X123395881Y-58253206D01*
X123419900Y-58132457D01*
X123419900Y-58009343D01*
X123395881Y-57888594D01*
X123348768Y-57774852D01*
X123280369Y-57672486D01*
X123193314Y-57585431D01*
X123090948Y-57517032D01*
X122977206Y-57469919D01*
X122856457Y-57445900D01*
X122733343Y-57445900D01*
X122612594Y-57469919D01*
X122498852Y-57517032D01*
X122396486Y-57585431D01*
X122309431Y-57672486D01*
X122241032Y-57774852D01*
X122193919Y-57888594D01*
X122169900Y-58009343D01*
X117639900Y-58009343D01*
X117615881Y-57888594D01*
X117568768Y-57774852D01*
X117500369Y-57672486D01*
X117413314Y-57585431D01*
X117310948Y-57517032D01*
X117197206Y-57469919D01*
X117076457Y-57445900D01*
X116953343Y-57445900D01*
X116832594Y-57469919D01*
X116718852Y-57517032D01*
X116616486Y-57585431D01*
X116529431Y-57672486D01*
X116461032Y-57774852D01*
X116413919Y-57888594D01*
X116389900Y-58009343D01*
X114578542Y-58009343D01*
X115574885Y-57013000D01*
X119158190Y-57013000D01*
X119158190Y-57048056D01*
X119177405Y-57144655D01*
X119215096Y-57235649D01*
X119269815Y-57317541D01*
X119339459Y-57387185D01*
X119421351Y-57441904D01*
X119512345Y-57479595D01*
X119608944Y-57498810D01*
X119707436Y-57498810D01*
X119804035Y-57479595D01*
X119895029Y-57441904D01*
X119976921Y-57387185D01*
X120046565Y-57317541D01*
X120101284Y-57235649D01*
X120138975Y-57144655D01*
X120158190Y-57048056D01*
X120158190Y-57039190D01*
X120167056Y-57039190D01*
X120263655Y-57019975D01*
X120354649Y-56982284D01*
X120436541Y-56927565D01*
X120506185Y-56857921D01*
X120560904Y-56776029D01*
X120589254Y-56707585D01*
X125964078Y-56707585D01*
X125964078Y-56990855D01*
X126019341Y-57268681D01*
X126127744Y-57530388D01*
X126285120Y-57765918D01*
X126485422Y-57966220D01*
X126720952Y-58123596D01*
X126982659Y-58231999D01*
X127260485Y-58287262D01*
X127543755Y-58287262D01*
X127821581Y-58231999D01*
X128083288Y-58123596D01*
X128318818Y-57966220D01*
X128519120Y-57765918D01*
X128676496Y-57530388D01*
X128784899Y-57268681D01*
X128840162Y-56990855D01*
X128840162Y-56707585D01*
X128784899Y-56429759D01*
X128676496Y-56168052D01*
X128519120Y-55932522D01*
X128318818Y-55732220D01*
X128083288Y-55574844D01*
X127821581Y-55466441D01*
X127543755Y-55411178D01*
X127260485Y-55411178D01*
X126982659Y-55466441D01*
X126720952Y-55574844D01*
X126485422Y-55732220D01*
X126285120Y-55932522D01*
X126127744Y-56168052D01*
X126019341Y-56429759D01*
X125964078Y-56707585D01*
X120589254Y-56707585D01*
X120598595Y-56685035D01*
X120617810Y-56588436D01*
X120617810Y-56489944D01*
X120598595Y-56393345D01*
X120560904Y-56302351D01*
X120506185Y-56220459D01*
X120436541Y-56150815D01*
X120354649Y-56096096D01*
X120263655Y-56058405D01*
X120167056Y-56039190D01*
X120068564Y-56039190D01*
X120046469Y-56043585D01*
X119896936Y-55894052D01*
X119884410Y-55878789D01*
X119823502Y-55828803D01*
X119754013Y-55791660D01*
X119678613Y-55768788D01*
X119619846Y-55763000D01*
X119619845Y-55763000D01*
X119600199Y-55761065D01*
X119580553Y-55763000D01*
X115242435Y-55763000D01*
X115222799Y-55761066D01*
X115203163Y-55763000D01*
X115203153Y-55763000D01*
X115144386Y-55768788D01*
X115068986Y-55791660D01*
X114999497Y-55828803D01*
X114938589Y-55878789D01*
X114926063Y-55894052D01*
X113840162Y-56979953D01*
X113840162Y-56707585D01*
X113784899Y-56429759D01*
X113676496Y-56168052D01*
X113519120Y-55932522D01*
X113318818Y-55732220D01*
X113083288Y-55574844D01*
X112821581Y-55466441D01*
X112543755Y-55411178D01*
X112260485Y-55411178D01*
X111982659Y-55466441D01*
X111720952Y-55574844D01*
X111485422Y-55732220D01*
X111285120Y-55932522D01*
X111127744Y-56168052D01*
X111019341Y-56429759D01*
X110969087Y-56682402D01*
X110638638Y-56351953D01*
X110626112Y-56336690D01*
X110565204Y-56286704D01*
X110495715Y-56249561D01*
X110420315Y-56226689D01*
X110361548Y-56220901D01*
X110361547Y-56220901D01*
X110341901Y-56218966D01*
X110322255Y-56220901D01*
X109591440Y-56220901D01*
X109556777Y-56192454D01*
X109504660Y-56164597D01*
X109448110Y-56147442D01*
X109389300Y-56141650D01*
X108627300Y-56141650D01*
X108568490Y-56147442D01*
X108511940Y-56164597D01*
X108459823Y-56192454D01*
X108420655Y-56224598D01*
X108228340Y-56224598D01*
X108193677Y-56196151D01*
X108141560Y-56168294D01*
X108085010Y-56151139D01*
X108026200Y-56145347D01*
X107264200Y-56145347D01*
X107205390Y-56151139D01*
X107148840Y-56168294D01*
X107096723Y-56196151D01*
X107051042Y-56233640D01*
X107013553Y-56279321D01*
X106985696Y-56331438D01*
X106968541Y-56387988D01*
X106962749Y-56446798D01*
X106962749Y-56802398D01*
X106968541Y-56861208D01*
X106972603Y-56874599D01*
X106968541Y-56887990D01*
X106962749Y-56946800D01*
X106962749Y-57302400D01*
X106968541Y-57361210D01*
X106985696Y-57417760D01*
X107013553Y-57469877D01*
X107051042Y-57515558D01*
X107096723Y-57553047D01*
X107148840Y-57580904D01*
X107205390Y-57598059D01*
X107264200Y-57603851D01*
X107930791Y-57603851D01*
X107931989Y-57616016D01*
X107940886Y-57645347D01*
X107264200Y-57645347D01*
X107205390Y-57651139D01*
X107148840Y-57668294D01*
X107096723Y-57696151D01*
X107051042Y-57733640D01*
X107013553Y-57779321D01*
X106985696Y-57831438D01*
X106968541Y-57887988D01*
X106962749Y-57946798D01*
X106962749Y-58302398D01*
X106968541Y-58361208D01*
X106972603Y-58374599D01*
X106968541Y-58387989D01*
X106962749Y-58446799D01*
X106962749Y-58802399D01*
X106968541Y-58861209D01*
X106985696Y-58917759D01*
X107013553Y-58969876D01*
X107051042Y-59015557D01*
X107096723Y-59053046D01*
X107148840Y-59080903D01*
X107205390Y-59098058D01*
X107264200Y-59103850D01*
X108026200Y-59103850D01*
X108085010Y-59098058D01*
X108141560Y-59080903D01*
X108193677Y-59053046D01*
X108232847Y-59020900D01*
X108325849Y-59020900D01*
X108325849Y-59298701D01*
X108331641Y-59357511D01*
X108335703Y-59370900D01*
X108331641Y-59384290D01*
X108326568Y-59435802D01*
X108321859Y-59387990D01*
X108304704Y-59331440D01*
X108276847Y-59279323D01*
X108239358Y-59233642D01*
X108193677Y-59196153D01*
X108141560Y-59168296D01*
X108085010Y-59151141D01*
X108026200Y-59145349D01*
X107264200Y-59145349D01*
X107205390Y-59151141D01*
X107148840Y-59168296D01*
X107096723Y-59196153D01*
X107062060Y-59224600D01*
X106765046Y-59224600D01*
X106745400Y-59222665D01*
X106666986Y-59230388D01*
X106591585Y-59253260D01*
X106522097Y-59290403D01*
X106476449Y-59327865D01*
X106476447Y-59327867D01*
X106461189Y-59340389D01*
X106448667Y-59355647D01*
X106030047Y-59774268D01*
X106014790Y-59786789D01*
X106002268Y-59802047D01*
X106002265Y-59802050D01*
X105964803Y-59847698D01*
X105927661Y-59917186D01*
X105904788Y-59992587D01*
X105897065Y-60071000D01*
X105899001Y-60090656D01*
X105899000Y-61357554D01*
X105897065Y-61377201D01*
X105899000Y-61396847D01*
X105904788Y-61455614D01*
X105927660Y-61531014D01*
X105964803Y-61600503D01*
X106014789Y-61661412D01*
X106030052Y-61673938D01*
X106797763Y-62441649D01*
X105837600Y-62441649D01*
X105817351Y-62443643D01*
X105817351Y-62236800D01*
X105811559Y-62177990D01*
X105794404Y-62121440D01*
X105766547Y-62069323D01*
X105729058Y-62023642D01*
X105683377Y-61986153D01*
X105631260Y-61958296D01*
X105574710Y-61941141D01*
X105515900Y-61935349D01*
X104474500Y-61935349D01*
X104465000Y-61936285D01*
X104465000Y-55812913D01*
X104474500Y-55813849D01*
X105515900Y-55813849D01*
X105574710Y-55808057D01*
X105631260Y-55790902D01*
X105683377Y-55763045D01*
X105729058Y-55725556D01*
X105766547Y-55679875D01*
X105794404Y-55627758D01*
X105811559Y-55571208D01*
X105817351Y-55512398D01*
X105817351Y-55308156D01*
X105837600Y-55310150D01*
X106879000Y-55310150D01*
X106937810Y-55304358D01*
X106994360Y-55287203D01*
X107046477Y-55259346D01*
X107092158Y-55221857D01*
X107129647Y-55176176D01*
X107157504Y-55124059D01*
X107174659Y-55067509D01*
X107180451Y-55008699D01*
X107180451Y-54653099D01*
X107174659Y-54594289D01*
X107157504Y-54537739D01*
X107129647Y-54485622D01*
X107092158Y-54439941D01*
X107046477Y-54402452D01*
X106994360Y-54374595D01*
X106937810Y-54357440D01*
X106879000Y-54351648D01*
X105837600Y-54351648D01*
X105778790Y-54357440D01*
X105722240Y-54374595D01*
X105670123Y-54402452D01*
X105624442Y-54439941D01*
X105586953Y-54485622D01*
X105559096Y-54537739D01*
X105541941Y-54594289D01*
X105536149Y-54653099D01*
X105536149Y-54857341D01*
X105515900Y-54855347D01*
X104474500Y-54855347D01*
X104465000Y-54856283D01*
X104465000Y-54233400D01*
X118233549Y-54233400D01*
X118233549Y-54708400D01*
X118243905Y-54813544D01*
X118274574Y-54914648D01*
X118324379Y-55007825D01*
X118391404Y-55089496D01*
X118473075Y-55156521D01*
X118503562Y-55172817D01*
X118499000Y-55195754D01*
X118499000Y-55294246D01*
X118518215Y-55390845D01*
X118555906Y-55481839D01*
X118610625Y-55563731D01*
X118680269Y-55633375D01*
X118762161Y-55688094D01*
X118853155Y-55725785D01*
X118949754Y-55745000D01*
X119048246Y-55745000D01*
X119144845Y-55725785D01*
X119235839Y-55688094D01*
X119317731Y-55633375D01*
X119387375Y-55563731D01*
X119442094Y-55481839D01*
X119479785Y-55390845D01*
X119499000Y-55294246D01*
X119499000Y-55195754D01*
X119498954Y-55195525D01*
X119571925Y-55156521D01*
X119653596Y-55089496D01*
X119720621Y-55007825D01*
X119770426Y-54914648D01*
X119801095Y-54813544D01*
X119811451Y-54708400D01*
X119811451Y-54242500D01*
X119964549Y-54242500D01*
X119964549Y-54717500D01*
X119974905Y-54822644D01*
X120005574Y-54923748D01*
X120055379Y-55016925D01*
X120122404Y-55098596D01*
X120204075Y-55165621D01*
X120277000Y-55204601D01*
X120277000Y-55294246D01*
X120296215Y-55390845D01*
X120333906Y-55481839D01*
X120388625Y-55563731D01*
X120458269Y-55633375D01*
X120540161Y-55688094D01*
X120631155Y-55725785D01*
X120727754Y-55745000D01*
X120826246Y-55745000D01*
X120922845Y-55725785D01*
X121013839Y-55688094D01*
X121095731Y-55633375D01*
X121165375Y-55563731D01*
X121220094Y-55481839D01*
X121257785Y-55390845D01*
X121277000Y-55294246D01*
X121277000Y-55195754D01*
X121274074Y-55181043D01*
X121302925Y-55165621D01*
X121384596Y-55098596D01*
X121451621Y-55016925D01*
X121501426Y-54923748D01*
X121532095Y-54822644D01*
X121542451Y-54717500D01*
X121542451Y-54242500D01*
X121532095Y-54137356D01*
X121501426Y-54036252D01*
X121451621Y-53943075D01*
X121384596Y-53861404D01*
X121302925Y-53794379D01*
X121209748Y-53744574D01*
X121108644Y-53713905D01*
X121003500Y-53703549D01*
X120503500Y-53703549D01*
X120398356Y-53713905D01*
X120297252Y-53744574D01*
X120204075Y-53794379D01*
X120122404Y-53861404D01*
X120055379Y-53943075D01*
X120005574Y-54036252D01*
X119974905Y-54137356D01*
X119964549Y-54242500D01*
X119811451Y-54242500D01*
X119811451Y-54233400D01*
X119801095Y-54128256D01*
X119770426Y-54027152D01*
X119720621Y-53933975D01*
X119653596Y-53852304D01*
X119571925Y-53785279D01*
X119478748Y-53735474D01*
X119377644Y-53704805D01*
X119272500Y-53694449D01*
X118772500Y-53694449D01*
X118667356Y-53704805D01*
X118566252Y-53735474D01*
X118473075Y-53785279D01*
X118391404Y-53852304D01*
X118324379Y-53933975D01*
X118274574Y-54027152D01*
X118243905Y-54128256D01*
X118233549Y-54233400D01*
X104465000Y-54233400D01*
X104465000Y-53665000D01*
X129088001Y-53665000D01*
X129088000Y-64258884D01*
G37*
%TD.AperFunction*%
D17*
X108356614Y-64000500D02*
X104465000Y-64000500D01*
X104465000Y-62892915D01*
X104474500Y-62893851D01*
X105515900Y-62893851D01*
X105536149Y-62891857D01*
X105536149Y-63098700D01*
X105541941Y-63157510D01*
X105559096Y-63214060D01*
X105586953Y-63266177D01*
X105624442Y-63311858D01*
X105670123Y-63349347D01*
X105722240Y-63377204D01*
X105778790Y-63394359D01*
X105837600Y-63400151D01*
X106879000Y-63400151D01*
X106937810Y-63394359D01*
X106994360Y-63377204D01*
X107046477Y-63349347D01*
X107092158Y-63311858D01*
X107129647Y-63266177D01*
X107157504Y-63214060D01*
X107174659Y-63157510D01*
X107180451Y-63098700D01*
X107180451Y-62824337D01*
X108356614Y-64000500D01*
%TA.AperFunction,Conductor*%
D19*
G36*
X108356614Y-64000500D02*
G01*
X104465000Y-64000500D01*
X104465000Y-62892915D01*
X104474500Y-62893851D01*
X105515900Y-62893851D01*
X105536149Y-62891857D01*
X105536149Y-63098700D01*
X105541941Y-63157510D01*
X105559096Y-63214060D01*
X105586953Y-63266177D01*
X105624442Y-63311858D01*
X105670123Y-63349347D01*
X105722240Y-63377204D01*
X105778790Y-63394359D01*
X105837600Y-63400151D01*
X106879000Y-63400151D01*
X106937810Y-63394359D01*
X106994360Y-63377204D01*
X107046477Y-63349347D01*
X107092158Y-63311858D01*
X107129647Y-63266177D01*
X107157504Y-63214060D01*
X107174659Y-63157510D01*
X107180451Y-63098700D01*
X107180451Y-62824337D01*
X108356614Y-64000500D01*
G37*
%TD.AperFunction*%
D17*
X106708429Y-61012974D02*
X106790321Y-61067693D01*
X106881315Y-61105384D01*
X106962749Y-61121582D01*
X106962749Y-61302400D01*
X106968541Y-61361210D01*
X106985696Y-61417760D01*
X107013553Y-61469877D01*
X107051042Y-61515558D01*
X107096723Y-61553047D01*
X107148840Y-61580904D01*
X107205390Y-61598059D01*
X107264200Y-61603851D01*
X107930791Y-61603851D01*
X107931989Y-61616016D01*
X107954861Y-61691416D01*
X107992004Y-61760905D01*
X108041990Y-61821814D01*
X108057253Y-61834340D01*
X108112761Y-61889848D01*
X108125287Y-61905111D01*
X108186195Y-61955097D01*
X108255684Y-61992240D01*
X108331084Y-62015112D01*
X108337014Y-62015696D01*
X108409498Y-62022835D01*
X108425587Y-62021250D01*
X108459823Y-62049347D01*
X108511940Y-62077204D01*
X108568490Y-62094359D01*
X108627300Y-62100151D01*
X109389300Y-62100151D01*
X109448110Y-62094359D01*
X109491663Y-62081147D01*
X109836000Y-62425484D01*
X109836001Y-62938846D01*
X109834065Y-62958502D01*
X109841788Y-63036915D01*
X109864661Y-63112316D01*
X109901803Y-63181804D01*
X109939265Y-63227452D01*
X109939268Y-63227455D01*
X109951790Y-63242713D01*
X109967048Y-63255235D01*
X110065813Y-63354000D01*
X108841484Y-63354000D01*
X106699000Y-61211516D01*
X106699000Y-61003545D01*
X106708429Y-61012974D01*
%TA.AperFunction,Conductor*%
D19*
G36*
X106708429Y-61012974D02*
G01*
X106790321Y-61067693D01*
X106881315Y-61105384D01*
X106962749Y-61121582D01*
X106962749Y-61302400D01*
X106968541Y-61361210D01*
X106985696Y-61417760D01*
X107013553Y-61469877D01*
X107051042Y-61515558D01*
X107096723Y-61553047D01*
X107148840Y-61580904D01*
X107205390Y-61598059D01*
X107264200Y-61603851D01*
X107930791Y-61603851D01*
X107931989Y-61616016D01*
X107954861Y-61691416D01*
X107992004Y-61760905D01*
X108041990Y-61821814D01*
X108057253Y-61834340D01*
X108112761Y-61889848D01*
X108125287Y-61905111D01*
X108186195Y-61955097D01*
X108255684Y-61992240D01*
X108331084Y-62015112D01*
X108337014Y-62015696D01*
X108409498Y-62022835D01*
X108425587Y-62021250D01*
X108459823Y-62049347D01*
X108511940Y-62077204D01*
X108568490Y-62094359D01*
X108627300Y-62100151D01*
X109389300Y-62100151D01*
X109448110Y-62094359D01*
X109491663Y-62081147D01*
X109836000Y-62425484D01*
X109836001Y-62938846D01*
X109834065Y-62958502D01*
X109841788Y-63036915D01*
X109864661Y-63112316D01*
X109901803Y-63181804D01*
X109939265Y-63227452D01*
X109939268Y-63227455D01*
X109951790Y-63242713D01*
X109967048Y-63255235D01*
X110065813Y-63354000D01*
X108841484Y-63354000D01*
X106699000Y-61211516D01*
X106699000Y-61003545D01*
X106708429Y-61012974D01*
G37*
%TD.AperFunction*%
D17*
X110982752Y-61065394D02*
X110996057Y-61081606D01*
X111012269Y-61094911D01*
X111012270Y-61094912D01*
X111013475Y-61095901D01*
X111060771Y-61134716D01*
X111134604Y-61174180D01*
X111175831Y-61186686D01*
X111214716Y-61198482D01*
X111222210Y-61199220D01*
X111277157Y-61204632D01*
X111277164Y-61204632D01*
X111298031Y-61206687D01*
X111318898Y-61204632D01*
X111986159Y-61204632D01*
X111826550Y-61364241D01*
X111674620Y-61591622D01*
X111569968Y-61844273D01*
X111516617Y-62112486D01*
X111516617Y-62385954D01*
X111555373Y-62580794D01*
X111436020Y-62461441D01*
X111436020Y-61810213D01*
X111437954Y-61790577D01*
X111436020Y-61770941D01*
X111436020Y-61770931D01*
X111430232Y-61712164D01*
X111407360Y-61636764D01*
X111370217Y-61567275D01*
X111320231Y-61506367D01*
X111304969Y-61493842D01*
X110163074Y-60351947D01*
X110150552Y-60336689D01*
X110135294Y-60324167D01*
X110135292Y-60324165D01*
X110089644Y-60286703D01*
X110075833Y-60279321D01*
X110020155Y-60249560D01*
X109944755Y-60226688D01*
X109923545Y-60224599D01*
X109866342Y-60218965D01*
X109846695Y-60220900D01*
X109591440Y-60220901D01*
X109556777Y-60192454D01*
X109504660Y-60164597D01*
X109448110Y-60147442D01*
X109389300Y-60141650D01*
X108722710Y-60141650D01*
X108721511Y-60129481D01*
X108712614Y-60100151D01*
X109389300Y-60100151D01*
X109448110Y-60094359D01*
X109504660Y-60077204D01*
X109556777Y-60049347D01*
X109602458Y-60011858D01*
X109639947Y-59966177D01*
X109667804Y-59914060D01*
X109684959Y-59857510D01*
X109690751Y-59798700D01*
X109690751Y-59773392D01*
X110982752Y-61065394D01*
%TA.AperFunction,Conductor*%
D19*
G36*
X110982752Y-61065394D02*
G01*
X110996057Y-61081606D01*
X111012269Y-61094911D01*
X111012270Y-61094912D01*
X111013475Y-61095901D01*
X111060771Y-61134716D01*
X111134604Y-61174180D01*
X111175831Y-61186686D01*
X111214716Y-61198482D01*
X111222210Y-61199220D01*
X111277157Y-61204632D01*
X111277164Y-61204632D01*
X111298031Y-61206687D01*
X111318898Y-61204632D01*
X111986159Y-61204632D01*
X111826550Y-61364241D01*
X111674620Y-61591622D01*
X111569968Y-61844273D01*
X111516617Y-62112486D01*
X111516617Y-62385954D01*
X111555373Y-62580794D01*
X111436020Y-62461441D01*
X111436020Y-61810213D01*
X111437954Y-61790577D01*
X111436020Y-61770941D01*
X111436020Y-61770931D01*
X111430232Y-61712164D01*
X111407360Y-61636764D01*
X111370217Y-61567275D01*
X111320231Y-61506367D01*
X111304969Y-61493842D01*
X110163074Y-60351947D01*
X110150552Y-60336689D01*
X110135294Y-60324167D01*
X110135292Y-60324165D01*
X110089644Y-60286703D01*
X110075833Y-60279321D01*
X110020155Y-60249560D01*
X109944755Y-60226688D01*
X109923545Y-60224599D01*
X109866342Y-60218965D01*
X109846695Y-60220900D01*
X109591440Y-60220901D01*
X109556777Y-60192454D01*
X109504660Y-60164597D01*
X109448110Y-60147442D01*
X109389300Y-60141650D01*
X108722710Y-60141650D01*
X108721511Y-60129481D01*
X108712614Y-60100151D01*
X109389300Y-60100151D01*
X109448110Y-60094359D01*
X109504660Y-60077204D01*
X109556777Y-60049347D01*
X109602458Y-60011858D01*
X109639947Y-59966177D01*
X109667804Y-59914060D01*
X109684959Y-59857510D01*
X109690751Y-59798700D01*
X109690751Y-59773392D01*
X110982752Y-61065394D01*
G37*
%TD.AperFunction*%
D17*
X110471001Y-57315687D02*
X110471000Y-57857313D01*
X109965636Y-57351949D01*
X109953112Y-57336688D01*
X109892204Y-57286702D01*
X109822715Y-57249559D01*
X109747315Y-57226687D01*
X109688548Y-57220899D01*
X109688547Y-57220899D01*
X109668901Y-57218964D01*
X109649255Y-57220899D01*
X109591440Y-57220899D01*
X109556777Y-57192452D01*
X109504660Y-57164595D01*
X109448110Y-57147440D01*
X109389300Y-57141648D01*
X108721719Y-57141648D01*
X108720413Y-57128384D01*
X108711849Y-57100152D01*
X109389300Y-57100152D01*
X109448110Y-57094360D01*
X109504660Y-57077205D01*
X109556777Y-57049348D01*
X109591440Y-57020901D01*
X110176216Y-57020901D01*
X110471001Y-57315687D01*
%TA.AperFunction,Conductor*%
D19*
G36*
X110471001Y-57315687D02*
G01*
X110471000Y-57857313D01*
X109965636Y-57351949D01*
X109953112Y-57336688D01*
X109892204Y-57286702D01*
X109822715Y-57249559D01*
X109747315Y-57226687D01*
X109688548Y-57220899D01*
X109688547Y-57220899D01*
X109668901Y-57218964D01*
X109649255Y-57220899D01*
X109591440Y-57220899D01*
X109556777Y-57192452D01*
X109504660Y-57164595D01*
X109448110Y-57147440D01*
X109389300Y-57141648D01*
X108721719Y-57141648D01*
X108720413Y-57128384D01*
X108711849Y-57100152D01*
X109389300Y-57100152D01*
X109448110Y-57094360D01*
X109504660Y-57077205D01*
X109556777Y-57049348D01*
X109591440Y-57020901D01*
X110176216Y-57020901D01*
X110471001Y-57315687D01*
G37*
%TD.AperFunction*%
%TD*%
M02*
