%TF.GenerationSoftware,KiCad,Pcbnew,8.0.1*%
%TF.CreationDate,2024-03-21T19:57:27-04:00*%
%TF.ProjectId,030-011-v2,3033302d-3031-4312-9d76-322e6b696361,rev?*%
%TF.SameCoordinates,Original*%
%TF.FileFunction,Legend,Top*%
%TF.FilePolarity,Positive*%
%FSLAX46Y46*%
G04 Gerber Fmt 4.6, Leading zero omitted, Abs format (unit mm)*
G04 Created by KiCad (PCBNEW 8.0.1) date 2024-03-21 19:57:27*
%MOMM*%
%LPD*%
G01*
G04 APERTURE LIST*
%ADD10C,0.150000*%
%ADD11C,0.100000*%
%ADD12C,0.120000*%
G04 APERTURE END LIST*
D10*
X107216580Y-48621792D02*
X107264200Y-48669411D01*
X107264200Y-48669411D02*
X107311819Y-48812268D01*
X107311819Y-48812268D02*
X107311819Y-48907506D01*
X107311819Y-48907506D02*
X107264200Y-49050363D01*
X107264200Y-49050363D02*
X107168961Y-49145601D01*
X107168961Y-49145601D02*
X107073723Y-49193220D01*
X107073723Y-49193220D02*
X106883247Y-49240839D01*
X106883247Y-49240839D02*
X106740390Y-49240839D01*
X106740390Y-49240839D02*
X106549914Y-49193220D01*
X106549914Y-49193220D02*
X106454676Y-49145601D01*
X106454676Y-49145601D02*
X106359438Y-49050363D01*
X106359438Y-49050363D02*
X106311819Y-48907506D01*
X106311819Y-48907506D02*
X106311819Y-48812268D01*
X106311819Y-48812268D02*
X106359438Y-48669411D01*
X106359438Y-48669411D02*
X106407057Y-48621792D01*
X107311819Y-47764649D02*
X106788009Y-47764649D01*
X106788009Y-47764649D02*
X106692771Y-47812268D01*
X106692771Y-47812268D02*
X106645152Y-47907506D01*
X106645152Y-47907506D02*
X106645152Y-48097982D01*
X106645152Y-48097982D02*
X106692771Y-48193220D01*
X107264200Y-47764649D02*
X107311819Y-47859887D01*
X107311819Y-47859887D02*
X107311819Y-48097982D01*
X107311819Y-48097982D02*
X107264200Y-48193220D01*
X107264200Y-48193220D02*
X107168961Y-48240839D01*
X107168961Y-48240839D02*
X107073723Y-48240839D01*
X107073723Y-48240839D02*
X106978485Y-48193220D01*
X106978485Y-48193220D02*
X106930866Y-48097982D01*
X106930866Y-48097982D02*
X106930866Y-47859887D01*
X106930866Y-47859887D02*
X106883247Y-47764649D01*
X107264200Y-47336077D02*
X107311819Y-47240839D01*
X107311819Y-47240839D02*
X107311819Y-47050363D01*
X107311819Y-47050363D02*
X107264200Y-46955125D01*
X107264200Y-46955125D02*
X107168961Y-46907506D01*
X107168961Y-46907506D02*
X107121342Y-46907506D01*
X107121342Y-46907506D02*
X107026104Y-46955125D01*
X107026104Y-46955125D02*
X106978485Y-47050363D01*
X106978485Y-47050363D02*
X106978485Y-47193220D01*
X106978485Y-47193220D02*
X106930866Y-47288458D01*
X106930866Y-47288458D02*
X106835628Y-47336077D01*
X106835628Y-47336077D02*
X106788009Y-47336077D01*
X106788009Y-47336077D02*
X106692771Y-47288458D01*
X106692771Y-47288458D02*
X106645152Y-47193220D01*
X106645152Y-47193220D02*
X106645152Y-47050363D01*
X106645152Y-47050363D02*
X106692771Y-46955125D01*
X106645152Y-46050363D02*
X107311819Y-46050363D01*
X106645152Y-46478934D02*
X107168961Y-46478934D01*
X107168961Y-46478934D02*
X107264200Y-46431315D01*
X107264200Y-46431315D02*
X107311819Y-46336077D01*
X107311819Y-46336077D02*
X107311819Y-46193220D01*
X107311819Y-46193220D02*
X107264200Y-46097982D01*
X107264200Y-46097982D02*
X107216580Y-46050363D01*
X107311819Y-45145601D02*
X106788009Y-45145601D01*
X106788009Y-45145601D02*
X106692771Y-45193220D01*
X106692771Y-45193220D02*
X106645152Y-45288458D01*
X106645152Y-45288458D02*
X106645152Y-45478934D01*
X106645152Y-45478934D02*
X106692771Y-45574172D01*
X107264200Y-45145601D02*
X107311819Y-45240839D01*
X107311819Y-45240839D02*
X107311819Y-45478934D01*
X107311819Y-45478934D02*
X107264200Y-45574172D01*
X107264200Y-45574172D02*
X107168961Y-45621791D01*
X107168961Y-45621791D02*
X107073723Y-45621791D01*
X107073723Y-45621791D02*
X106978485Y-45574172D01*
X106978485Y-45574172D02*
X106930866Y-45478934D01*
X106930866Y-45478934D02*
X106930866Y-45240839D01*
X106930866Y-45240839D02*
X106883247Y-45145601D01*
X107311819Y-44526553D02*
X107264200Y-44621791D01*
X107264200Y-44621791D02*
X107168961Y-44669410D01*
X107168961Y-44669410D02*
X106311819Y-44669410D01*
X107216580Y-43574172D02*
X107264200Y-43621791D01*
X107264200Y-43621791D02*
X107311819Y-43764648D01*
X107311819Y-43764648D02*
X107311819Y-43859886D01*
X107311819Y-43859886D02*
X107264200Y-44002743D01*
X107264200Y-44002743D02*
X107168961Y-44097981D01*
X107168961Y-44097981D02*
X107073723Y-44145600D01*
X107073723Y-44145600D02*
X106883247Y-44193219D01*
X106883247Y-44193219D02*
X106740390Y-44193219D01*
X106740390Y-44193219D02*
X106549914Y-44145600D01*
X106549914Y-44145600D02*
X106454676Y-44097981D01*
X106454676Y-44097981D02*
X106359438Y-44002743D01*
X106359438Y-44002743D02*
X106311819Y-43859886D01*
X106311819Y-43859886D02*
X106311819Y-43764648D01*
X106311819Y-43764648D02*
X106359438Y-43621791D01*
X106359438Y-43621791D02*
X106407057Y-43574172D01*
X107311819Y-43002743D02*
X107264200Y-43097981D01*
X107264200Y-43097981D02*
X107216580Y-43145600D01*
X107216580Y-43145600D02*
X107121342Y-43193219D01*
X107121342Y-43193219D02*
X106835628Y-43193219D01*
X106835628Y-43193219D02*
X106740390Y-43145600D01*
X106740390Y-43145600D02*
X106692771Y-43097981D01*
X106692771Y-43097981D02*
X106645152Y-43002743D01*
X106645152Y-43002743D02*
X106645152Y-42859886D01*
X106645152Y-42859886D02*
X106692771Y-42764648D01*
X106692771Y-42764648D02*
X106740390Y-42717029D01*
X106740390Y-42717029D02*
X106835628Y-42669410D01*
X106835628Y-42669410D02*
X107121342Y-42669410D01*
X107121342Y-42669410D02*
X107216580Y-42717029D01*
X107216580Y-42717029D02*
X107264200Y-42764648D01*
X107264200Y-42764648D02*
X107311819Y-42859886D01*
X107311819Y-42859886D02*
X107311819Y-43002743D01*
X107311819Y-41812267D02*
X106311819Y-41812267D01*
X107264200Y-41812267D02*
X107311819Y-41907505D01*
X107311819Y-41907505D02*
X107311819Y-42097981D01*
X107311819Y-42097981D02*
X107264200Y-42193219D01*
X107264200Y-42193219D02*
X107216580Y-42240838D01*
X107216580Y-42240838D02*
X107121342Y-42288457D01*
X107121342Y-42288457D02*
X106835628Y-42288457D01*
X106835628Y-42288457D02*
X106740390Y-42240838D01*
X106740390Y-42240838D02*
X106692771Y-42193219D01*
X106692771Y-42193219D02*
X106645152Y-42097981D01*
X106645152Y-42097981D02*
X106645152Y-41907505D01*
X106645152Y-41907505D02*
X106692771Y-41812267D01*
X107264200Y-40955124D02*
X107311819Y-41050362D01*
X107311819Y-41050362D02*
X107311819Y-41240838D01*
X107311819Y-41240838D02*
X107264200Y-41336076D01*
X107264200Y-41336076D02*
X107168961Y-41383695D01*
X107168961Y-41383695D02*
X106788009Y-41383695D01*
X106788009Y-41383695D02*
X106692771Y-41336076D01*
X106692771Y-41336076D02*
X106645152Y-41240838D01*
X106645152Y-41240838D02*
X106645152Y-41050362D01*
X106645152Y-41050362D02*
X106692771Y-40955124D01*
X106692771Y-40955124D02*
X106788009Y-40907505D01*
X106788009Y-40907505D02*
X106883247Y-40907505D01*
X106883247Y-40907505D02*
X106978485Y-41383695D01*
X107311819Y-40478933D02*
X106645152Y-40478933D01*
X106835628Y-40478933D02*
X106740390Y-40431314D01*
X106740390Y-40431314D02*
X106692771Y-40383695D01*
X106692771Y-40383695D02*
X106645152Y-40288457D01*
X106645152Y-40288457D02*
X106645152Y-40193219D01*
X107264200Y-39907504D02*
X107311819Y-39812266D01*
X107311819Y-39812266D02*
X107311819Y-39621790D01*
X107311819Y-39621790D02*
X107264200Y-39526552D01*
X107264200Y-39526552D02*
X107168961Y-39478933D01*
X107168961Y-39478933D02*
X107121342Y-39478933D01*
X107121342Y-39478933D02*
X107026104Y-39526552D01*
X107026104Y-39526552D02*
X106978485Y-39621790D01*
X106978485Y-39621790D02*
X106978485Y-39764647D01*
X106978485Y-39764647D02*
X106930866Y-39859885D01*
X106930866Y-39859885D02*
X106835628Y-39907504D01*
X106835628Y-39907504D02*
X106788009Y-39907504D01*
X106788009Y-39907504D02*
X106692771Y-39859885D01*
X106692771Y-39859885D02*
X106645152Y-39764647D01*
X106645152Y-39764647D02*
X106645152Y-39621790D01*
X106645152Y-39621790D02*
X106692771Y-39526552D01*
X107216580Y-39050361D02*
X107264200Y-39002742D01*
X107264200Y-39002742D02*
X107311819Y-39050361D01*
X107311819Y-39050361D02*
X107264200Y-39097980D01*
X107264200Y-39097980D02*
X107216580Y-39050361D01*
X107216580Y-39050361D02*
X107311819Y-39050361D01*
X107311819Y-38145600D02*
X106311819Y-38145600D01*
X107264200Y-38145600D02*
X107311819Y-38240838D01*
X107311819Y-38240838D02*
X107311819Y-38431314D01*
X107311819Y-38431314D02*
X107264200Y-38526552D01*
X107264200Y-38526552D02*
X107216580Y-38574171D01*
X107216580Y-38574171D02*
X107121342Y-38621790D01*
X107121342Y-38621790D02*
X106835628Y-38621790D01*
X106835628Y-38621790D02*
X106740390Y-38574171D01*
X106740390Y-38574171D02*
X106692771Y-38526552D01*
X106692771Y-38526552D02*
X106645152Y-38431314D01*
X106645152Y-38431314D02*
X106645152Y-38240838D01*
X106645152Y-38240838D02*
X106692771Y-38145600D01*
X107264200Y-37288457D02*
X107311819Y-37383695D01*
X107311819Y-37383695D02*
X107311819Y-37574171D01*
X107311819Y-37574171D02*
X107264200Y-37669409D01*
X107264200Y-37669409D02*
X107168961Y-37717028D01*
X107168961Y-37717028D02*
X106788009Y-37717028D01*
X106788009Y-37717028D02*
X106692771Y-37669409D01*
X106692771Y-37669409D02*
X106645152Y-37574171D01*
X106645152Y-37574171D02*
X106645152Y-37383695D01*
X106645152Y-37383695D02*
X106692771Y-37288457D01*
X106692771Y-37288457D02*
X106788009Y-37240838D01*
X106788009Y-37240838D02*
X106883247Y-37240838D01*
X106883247Y-37240838D02*
X106978485Y-37717028D01*
X106645152Y-36907504D02*
X107311819Y-36669409D01*
X107311819Y-36669409D02*
X106645152Y-36431314D01*
X112661819Y-48907506D02*
X113376104Y-48907506D01*
X113376104Y-48907506D02*
X113518961Y-48955125D01*
X113518961Y-48955125D02*
X113614200Y-49050363D01*
X113614200Y-49050363D02*
X113661819Y-49193220D01*
X113661819Y-49193220D02*
X113661819Y-49288458D01*
X113661819Y-48431315D02*
X112661819Y-48431315D01*
X112661819Y-48431315D02*
X112661819Y-48193220D01*
X112661819Y-48193220D02*
X112709438Y-48050363D01*
X112709438Y-48050363D02*
X112804676Y-47955125D01*
X112804676Y-47955125D02*
X112899914Y-47907506D01*
X112899914Y-47907506D02*
X113090390Y-47859887D01*
X113090390Y-47859887D02*
X113233247Y-47859887D01*
X113233247Y-47859887D02*
X113423723Y-47907506D01*
X113423723Y-47907506D02*
X113518961Y-47955125D01*
X113518961Y-47955125D02*
X113614200Y-48050363D01*
X113614200Y-48050363D02*
X113661819Y-48193220D01*
X113661819Y-48193220D02*
X113661819Y-48431315D01*
X113614200Y-47478934D02*
X113661819Y-47336077D01*
X113661819Y-47336077D02*
X113661819Y-47097982D01*
X113661819Y-47097982D02*
X113614200Y-47002744D01*
X113614200Y-47002744D02*
X113566580Y-46955125D01*
X113566580Y-46955125D02*
X113471342Y-46907506D01*
X113471342Y-46907506D02*
X113376104Y-46907506D01*
X113376104Y-46907506D02*
X113280866Y-46955125D01*
X113280866Y-46955125D02*
X113233247Y-47002744D01*
X113233247Y-47002744D02*
X113185628Y-47097982D01*
X113185628Y-47097982D02*
X113138009Y-47288458D01*
X113138009Y-47288458D02*
X113090390Y-47383696D01*
X113090390Y-47383696D02*
X113042771Y-47431315D01*
X113042771Y-47431315D02*
X112947533Y-47478934D01*
X112947533Y-47478934D02*
X112852295Y-47478934D01*
X112852295Y-47478934D02*
X112757057Y-47431315D01*
X112757057Y-47431315D02*
X112709438Y-47383696D01*
X112709438Y-47383696D02*
X112661819Y-47288458D01*
X112661819Y-47288458D02*
X112661819Y-47050363D01*
X112661819Y-47050363D02*
X112709438Y-46907506D01*
X113280866Y-46478934D02*
X113280866Y-45717030D01*
X112661819Y-45050363D02*
X112661819Y-44955125D01*
X112661819Y-44955125D02*
X112709438Y-44859887D01*
X112709438Y-44859887D02*
X112757057Y-44812268D01*
X112757057Y-44812268D02*
X112852295Y-44764649D01*
X112852295Y-44764649D02*
X113042771Y-44717030D01*
X113042771Y-44717030D02*
X113280866Y-44717030D01*
X113280866Y-44717030D02*
X113471342Y-44764649D01*
X113471342Y-44764649D02*
X113566580Y-44812268D01*
X113566580Y-44812268D02*
X113614200Y-44859887D01*
X113614200Y-44859887D02*
X113661819Y-44955125D01*
X113661819Y-44955125D02*
X113661819Y-45050363D01*
X113661819Y-45050363D02*
X113614200Y-45145601D01*
X113614200Y-45145601D02*
X113566580Y-45193220D01*
X113566580Y-45193220D02*
X113471342Y-45240839D01*
X113471342Y-45240839D02*
X113280866Y-45288458D01*
X113280866Y-45288458D02*
X113042771Y-45288458D01*
X113042771Y-45288458D02*
X112852295Y-45240839D01*
X112852295Y-45240839D02*
X112757057Y-45193220D01*
X112757057Y-45193220D02*
X112709438Y-45145601D01*
X112709438Y-45145601D02*
X112661819Y-45050363D01*
X112661819Y-44383696D02*
X112661819Y-43764649D01*
X112661819Y-43764649D02*
X113042771Y-44097982D01*
X113042771Y-44097982D02*
X113042771Y-43955125D01*
X113042771Y-43955125D02*
X113090390Y-43859887D01*
X113090390Y-43859887D02*
X113138009Y-43812268D01*
X113138009Y-43812268D02*
X113233247Y-43764649D01*
X113233247Y-43764649D02*
X113471342Y-43764649D01*
X113471342Y-43764649D02*
X113566580Y-43812268D01*
X113566580Y-43812268D02*
X113614200Y-43859887D01*
X113614200Y-43859887D02*
X113661819Y-43955125D01*
X113661819Y-43955125D02*
X113661819Y-44240839D01*
X113661819Y-44240839D02*
X113614200Y-44336077D01*
X113614200Y-44336077D02*
X113566580Y-44383696D01*
X112661819Y-43145601D02*
X112661819Y-43050363D01*
X112661819Y-43050363D02*
X112709438Y-42955125D01*
X112709438Y-42955125D02*
X112757057Y-42907506D01*
X112757057Y-42907506D02*
X112852295Y-42859887D01*
X112852295Y-42859887D02*
X113042771Y-42812268D01*
X113042771Y-42812268D02*
X113280866Y-42812268D01*
X113280866Y-42812268D02*
X113471342Y-42859887D01*
X113471342Y-42859887D02*
X113566580Y-42907506D01*
X113566580Y-42907506D02*
X113614200Y-42955125D01*
X113614200Y-42955125D02*
X113661819Y-43050363D01*
X113661819Y-43050363D02*
X113661819Y-43145601D01*
X113661819Y-43145601D02*
X113614200Y-43240839D01*
X113614200Y-43240839D02*
X113566580Y-43288458D01*
X113566580Y-43288458D02*
X113471342Y-43336077D01*
X113471342Y-43336077D02*
X113280866Y-43383696D01*
X113280866Y-43383696D02*
X113042771Y-43383696D01*
X113042771Y-43383696D02*
X112852295Y-43336077D01*
X112852295Y-43336077D02*
X112757057Y-43288458D01*
X112757057Y-43288458D02*
X112709438Y-43240839D01*
X112709438Y-43240839D02*
X112661819Y-43145601D01*
X112614200Y-41669411D02*
X113899914Y-42526553D01*
X112661819Y-41145601D02*
X112661819Y-41050363D01*
X112661819Y-41050363D02*
X112709438Y-40955125D01*
X112709438Y-40955125D02*
X112757057Y-40907506D01*
X112757057Y-40907506D02*
X112852295Y-40859887D01*
X112852295Y-40859887D02*
X113042771Y-40812268D01*
X113042771Y-40812268D02*
X113280866Y-40812268D01*
X113280866Y-40812268D02*
X113471342Y-40859887D01*
X113471342Y-40859887D02*
X113566580Y-40907506D01*
X113566580Y-40907506D02*
X113614200Y-40955125D01*
X113614200Y-40955125D02*
X113661819Y-41050363D01*
X113661819Y-41050363D02*
X113661819Y-41145601D01*
X113661819Y-41145601D02*
X113614200Y-41240839D01*
X113614200Y-41240839D02*
X113566580Y-41288458D01*
X113566580Y-41288458D02*
X113471342Y-41336077D01*
X113471342Y-41336077D02*
X113280866Y-41383696D01*
X113280866Y-41383696D02*
X113042771Y-41383696D01*
X113042771Y-41383696D02*
X112852295Y-41336077D01*
X112852295Y-41336077D02*
X112757057Y-41288458D01*
X112757057Y-41288458D02*
X112709438Y-41240839D01*
X112709438Y-41240839D02*
X112661819Y-41145601D01*
X113661819Y-39859887D02*
X113661819Y-40431315D01*
X113661819Y-40145601D02*
X112661819Y-40145601D01*
X112661819Y-40145601D02*
X112804676Y-40240839D01*
X112804676Y-40240839D02*
X112899914Y-40336077D01*
X112899914Y-40336077D02*
X112947533Y-40431315D01*
X113661819Y-38907506D02*
X113661819Y-39478934D01*
X113661819Y-39193220D02*
X112661819Y-39193220D01*
X112661819Y-39193220D02*
X112804676Y-39288458D01*
X112804676Y-39288458D02*
X112899914Y-39383696D01*
X112899914Y-39383696D02*
X112947533Y-39478934D01*
X112661819Y-37859886D02*
X113661819Y-37526553D01*
X113661819Y-37526553D02*
X112661819Y-37193220D01*
X112757057Y-36907505D02*
X112709438Y-36859886D01*
X112709438Y-36859886D02*
X112661819Y-36764648D01*
X112661819Y-36764648D02*
X112661819Y-36526553D01*
X112661819Y-36526553D02*
X112709438Y-36431315D01*
X112709438Y-36431315D02*
X112757057Y-36383696D01*
X112757057Y-36383696D02*
X112852295Y-36336077D01*
X112852295Y-36336077D02*
X112947533Y-36336077D01*
X112947533Y-36336077D02*
X113090390Y-36383696D01*
X113090390Y-36383696D02*
X113661819Y-36955124D01*
X113661819Y-36955124D02*
X113661819Y-36336077D01*
X113566580Y-35907505D02*
X113614200Y-35859886D01*
X113614200Y-35859886D02*
X113661819Y-35907505D01*
X113661819Y-35907505D02*
X113614200Y-35955124D01*
X113614200Y-35955124D02*
X113566580Y-35907505D01*
X113566580Y-35907505D02*
X113661819Y-35907505D01*
X112661819Y-35240839D02*
X112661819Y-35145601D01*
X112661819Y-35145601D02*
X112709438Y-35050363D01*
X112709438Y-35050363D02*
X112757057Y-35002744D01*
X112757057Y-35002744D02*
X112852295Y-34955125D01*
X112852295Y-34955125D02*
X113042771Y-34907506D01*
X113042771Y-34907506D02*
X113280866Y-34907506D01*
X113280866Y-34907506D02*
X113471342Y-34955125D01*
X113471342Y-34955125D02*
X113566580Y-35002744D01*
X113566580Y-35002744D02*
X113614200Y-35050363D01*
X113614200Y-35050363D02*
X113661819Y-35145601D01*
X113661819Y-35145601D02*
X113661819Y-35240839D01*
X113661819Y-35240839D02*
X113614200Y-35336077D01*
X113614200Y-35336077D02*
X113566580Y-35383696D01*
X113566580Y-35383696D02*
X113471342Y-35431315D01*
X113471342Y-35431315D02*
X113280866Y-35478934D01*
X113280866Y-35478934D02*
X113042771Y-35478934D01*
X113042771Y-35478934D02*
X112852295Y-35431315D01*
X112852295Y-35431315D02*
X112757057Y-35383696D01*
X112757057Y-35383696D02*
X112709438Y-35336077D01*
X112709438Y-35336077D02*
X112661819Y-35240839D01*
D11*
%TO.C,J3*%
X97133000Y-29909000D02*
X99133000Y-29909000D01*
X97133000Y-37909000D02*
X99133000Y-37909000D01*
X99133000Y-29909000D02*
X99133000Y-30709000D01*
X99133000Y-37909000D02*
X99133000Y-37109000D01*
D12*
%TO.C,R4*%
X108712724Y-29957500D02*
X108203276Y-29957500D01*
X108712724Y-31002500D02*
X108203276Y-31002500D01*
%TO.C,D1*%
X108306000Y-48278000D02*
X108156000Y-48478000D01*
X108306000Y-48928000D02*
X108306000Y-48278000D01*
X112036000Y-48278000D02*
X112186000Y-48478000D01*
X112036000Y-48928000D02*
X112036000Y-48278000D01*
X108786000Y-49078000D02*
G75*
G02*
X108686000Y-49078000I-50000J0D01*
G01*
X108686000Y-49078000D02*
G75*
G02*
X108786000Y-49078000I50000J0D01*
G01*
%TO.C,R3*%
X112268724Y-29957500D02*
X111759276Y-29957500D01*
X112268724Y-31002500D02*
X111759276Y-31002500D01*
%TD*%
M02*
