M48
; DRILL file {KiCad 8.0.1} date 2024-03-21T19:57:25-0400
; FORMAT={-:-/ absolute / inch / decimal}
; #@! TF.CreationDate,2024-03-21T19:57:25-04:00
; #@! TF.GenerationSoftware,Kicad,Pcbnew,8.0.1
; #@! TF.FileFunction,Plated,1,2,PTH
FMAT,2
INCH
; #@! TA.AperFunction,Plated,PTH,ViaDrill
T1C0.0118
; #@! TA.AperFunction,Plated,PTH,ComponentDrill
T2C0.0236
%
G90
G05
T1
X3.83Y-1.25
X3.84Y-1.4
X3.856Y-1.316
X3.95Y-1.22
X3.9898Y-1.3493
X3.9898Y-1.3807
X4.18Y-1.59
X4.21Y-1.96
X4.24Y-1.26
X4.274Y-1.79
X4.279Y-1.871
X4.282Y-1.338
X4.36Y-1.29
X4.374Y-1.238
X4.4Y-1.86
X4.45Y-1.28
X4.53Y-1.53
X4.58Y-1.36
T2
G00X4.1699Y-1.1777
M15
G01X4.1699Y-1.225
M16
G05
G00X4.1699Y-1.3431
M15
G01X4.1699Y-1.3746
M16
G05
G00X4.5101Y-1.1777
M15
G01X4.5101Y-1.225
M16
G05
G00X4.5101Y-1.3431
M15
G01X4.5101Y-1.3746
M16
G05
M30
