M48
; DRILL file {KiCad (6.0.4)} date Mon May 23 19:11:52 2022
; FORMAT={-:-/ absolute / inch / decimal}
; #@! TF.CreationDate,2022-05-23T19:11:52-04:00
; #@! TF.GenerationSoftware,Kicad,Pcbnew,(6.0.4)
; #@! TF.FileFunction,Plated,1,2,PTH
FMAT,2
INCH
; #@! TA.AperFunction,Plated,PTH,ViaDrill
T1C0.0079
; #@! TA.AperFunction,Plated,PTH,ViaDrill
T2C0.0118
; #@! TA.AperFunction,Plated,PTH,ComponentDrill
T3C0.0236
%
G90
G05
T1
X3.1493Y-2.6803
X3.1496Y-2.7394
X3.164Y-2.8375
X3.219Y-2.68
X3.219Y-4.2616
X3.224Y-2.71
X3.239Y-2.7675
X3.299Y-2.99
X3.299Y-3.13
X3.304Y-3.235
X3.319Y-4.2266
X3.324Y-4.1816
X3.329Y-4.0016
X3.3324Y-3.3241
X3.339Y-2.86
X3.344Y-2.625
X3.366Y-3.272
X3.368Y-3.6331
X3.369Y-3.22
X3.389Y-3.04
X3.391Y-3.5106
X3.3916Y-3.5894
X3.394Y-2.94
X3.409Y-4.2366
X3.419Y-2.625
X3.425Y-4.1656
X3.427Y-3.247
X3.429Y-3.5066
X3.443Y-4.1475
X3.444Y-3.9816
X3.454Y-2.88
X3.455Y-2.714
X3.469Y-3.355
X3.471Y-3.6146
X3.473Y-2.696
X3.479Y-4.2366
X3.489Y-2.625
X3.504Y-3.9216
X3.5064Y-3.2721
X3.507Y-3.351
X3.509Y-3.8216
X3.529Y-3.6416
X3.53Y-3.2284
X3.532Y-3.5896
X3.554Y-4.2366
X3.559Y-4.0016
X3.5656Y-3.5375
X3.569Y-2.86
X3.574Y-2.68
X3.579Y-2.635
X3.594Y-3.6266
X3.599Y-3.7316
X3.599Y-3.8716
X3.659Y-4.0941
X3.674Y-4.1516
X3.679Y-2.6
X3.679Y-4.1816
X3.734Y-4.0241
X3.7484Y-4.1222
X3.7487Y-4.1812
T2
X3.9841Y-4.2906
X4.0466Y-4.1806
X4.0641Y-4.0356
X4.075Y-2.78
X4.0841Y-4.2981
X4.0999Y-4.1188
X4.1175Y-2.8725
X4.1413Y-4.2015
X4.1511Y-4.2586
X4.1575Y-2.625
X4.1591Y-3.9756
X4.1666Y-4.1706
X4.175Y-2.7025
X4.1767Y-4.2074
X4.1941Y-4.2931
X4.1975Y-2.9125
X4.2058Y-2.8589
X4.2091Y-4.2156
X4.21Y-2.625
X4.215Y-2.7025
X4.2775Y-3.365
X4.28Y-3.16
X4.2825Y-2.7
X4.285Y-2.625
X4.2916Y-3.8256
X4.3041Y-4.2406
X4.3091Y-4.0256
X4.3168Y-2.994
X4.3345Y-2.9625
X4.335Y-2.6275
X4.34Y-2.7025
X4.3516Y-3.5131
X4.3566Y-3.7056
X4.3575Y-3.29
X4.36Y-3.2225
X4.3716Y-3.9706
X4.3716Y-4.2349
X4.3732Y-2.9789
X4.3734Y-2.6323
X4.375Y-2.9025
X4.3982Y-2.7068
X4.405Y-3.04
X4.409Y-4.2195
X4.4097Y-4.1899
X4.4116Y-3.5981
X4.42Y-3.275
X4.4218Y-2.6832
X4.4225Y-2.6536
X4.4266Y-3.8331
X4.4334Y-4.1663
X4.4566Y-3.9706
X4.4582Y-4.2408
X4.4584Y-3.8942
X4.46Y-2.6382
X4.46Y-2.9025
X4.4716Y-3.6506
X4.4741Y-3.5831
X4.475Y-3.1675
X4.48Y-3.36
X4.4916Y-4.1706
X4.4966Y-4.2456
X4.4971Y-3.9106
X4.5148Y-3.8791
X4.5225Y-2.8475
X4.5275Y-2.6325
X4.54Y-3.0475
X4.5466Y-4.2481
X4.5491Y-4.1731
X4.5516Y-3.7131
X4.5541Y-3.5081
X4.6166Y-4.1706
X4.6216Y-4.2481
X4.6225Y-2.6575
X4.6258Y-4.0142
X4.6341Y-3.9606
X4.6375Y-2.58
X4.6549Y-2.6657
X4.6566Y-4.1706
X4.665Y-2.7025
X4.6725Y-2.8975
X4.6741Y-4.2481
X4.6805Y-2.6145
X4.6903Y-2.6716
X4.7141Y-4.0006
X4.7317Y-2.7543
X4.7475Y-2.575
X4.7566Y-4.0931
X4.7675Y-2.8375
X4.785Y-2.6925
X4.8475Y-2.5825
X5.0133Y-4.2891
X5.0758Y-4.1791
X5.0933Y-4.0341
X5.1042Y-2.7784
X5.1133Y-4.2966
X5.1291Y-4.1172
X5.1467Y-2.8709
X5.1705Y-4.1999
X5.1803Y-4.257
X5.1867Y-2.6234
X5.1883Y-3.9741
X5.1958Y-4.1691
X5.2042Y-2.7009
X5.2059Y-4.2058
X5.2233Y-4.2916
X5.2267Y-2.9109
X5.235Y-2.8574
X5.2383Y-4.2141
X5.2392Y-2.6234
X5.2442Y-2.7009
X5.3067Y-3.3634
X5.3092Y-3.1584
X5.3117Y-2.6984
X5.3142Y-2.6234
X5.3208Y-3.8241
X5.3333Y-4.2391
X5.3383Y-4.0241
X5.346Y-2.9924
X5.3637Y-2.9609
X5.3642Y-2.6259
X5.3692Y-2.7009
X5.3808Y-3.5116
X5.3858Y-3.7041
X5.3867Y-3.2884
X5.3892Y-3.2209
X5.4008Y-3.9691
X5.4008Y-4.2334
X5.4024Y-2.9773
X5.4026Y-2.6307
X5.4042Y-2.9009
X5.4274Y-2.7053
X5.4342Y-3.0384
X5.4383Y-4.2179
X5.439Y-4.1884
X5.4408Y-3.5966
X5.4492Y-3.2734
X5.451Y-2.6816
X5.4517Y-2.6521
X5.4558Y-3.8316
X5.4626Y-4.1647
X5.4858Y-3.9691
X5.4874Y-4.2393
X5.4876Y-3.8927
X5.4892Y-2.6366
X5.4892Y-2.9009
X5.5008Y-3.6491
X5.5033Y-3.5816
X5.5042Y-3.1659
X5.5092Y-3.3584
X5.5208Y-4.1691
X5.5258Y-4.2441
X5.5263Y-3.9091
X5.544Y-3.8776
X5.5517Y-2.8459
X5.5567Y-2.6309
X5.5692Y-3.0459
X5.5758Y-4.2466
X5.5783Y-4.1716
X5.5808Y-3.7116
X5.5833Y-3.5066
X5.6458Y-4.1691
X5.6508Y-4.2466
X5.6517Y-2.6559
X5.655Y-4.0126
X5.6633Y-3.9591
X5.6667Y-2.5784
X5.6841Y-2.6642
X5.6858Y-4.1691
X5.6942Y-2.7009
X5.7017Y-2.8959
X5.7033Y-4.2466
X5.7097Y-2.613
X5.7195Y-2.6701
X5.7433Y-3.9991
X5.7609Y-2.7528
X5.7767Y-2.5734
X5.7858Y-4.0916
X5.7967Y-2.8359
X5.8142Y-2.6909
X5.8767Y-2.5809
T3
G00X3.2739Y-4.12
M15
G01X3.2739Y-4.0767
M16
G05
G00X3.2739Y-4.2747
M15
G01X3.2739Y-4.2511
M16
G05
G00X3.2839Y-2.5869
M15
G01X3.2839Y-2.6105
M16
G05
G00X3.2839Y-2.7416
M15
G01X3.2839Y-2.7849
M16
G05
G00X3.6141Y-4.12
M15
G01X3.6141Y-4.0767
M16
G05
G00X3.6141Y-4.2747
M15
G01X3.6141Y-4.2511
M16
G05
G00X3.6241Y-2.5869
M15
G01X3.6241Y-2.6105
M16
G05
G00X3.6241Y-2.7416
M15
G01X3.6241Y-2.7849
M16
G05
G00X4.2448Y-4.1393
M15
G01X4.2448Y-4.096
M16
G05
G00X4.2448Y-4.294
M15
G01X4.2448Y-4.2704
M16
G05
G00X4.2466Y-2.5791
M15
G01X4.2466Y-2.6027
M16
G05
G00X4.2466Y-2.7338
M15
G01X4.2466Y-2.7771
M16
G05
G00X4.585Y-4.1393
M15
G01X4.585Y-4.096
M16
G05
G00X4.585Y-4.294
M15
G01X4.585Y-4.2704
M16
G05
G00X4.5868Y-2.5791
M15
G01X4.5868Y-2.6027
M16
G05
G00X4.5868Y-2.7338
M15
G01X4.5868Y-2.7771
M16
G05
G00X5.274Y-4.1377
M15
G01X5.274Y-4.0944
M16
G05
G00X5.274Y-4.2924
M15
G01X5.274Y-4.2688
M16
G05
G00X5.2758Y-2.5776
M15
G01X5.2758Y-2.6012
M16
G05
G00X5.2758Y-2.7323
M15
G01X5.2758Y-2.7756
M16
G05
G00X5.6142Y-4.1377
M15
G01X5.6142Y-4.0944
M16
G05
G00X5.6142Y-4.2924
M15
G01X5.6142Y-4.2688
M16
G05
G00X5.616Y-2.5776
M15
G01X5.616Y-2.6012
M16
G05
G00X5.616Y-2.7323
M15
G01X5.616Y-2.7756
M16
G05
T0
M30
