M48
; DRILL file {KiCad (6.0.4)} date Mon May 23 19:11:52 2022
; FORMAT={-:-/ absolute / inch / decimal}
; #@! TF.CreationDate,2022-05-23T19:11:52-04:00
; #@! TF.GenerationSoftware,Kicad,Pcbnew,(6.0.4)
; #@! TF.FileFunction,NonPlated,1,2,NPTH
FMAT,2
INCH
; #@! TA.AperFunction,NonPlated,NPTH,ComponentDrill
T1C0.0197
; #@! TA.AperFunction,NonPlated,NPTH,ComponentDrill
T2C0.0256
%
G90
G05
T1
X3.3722Y-3.4015
X3.3722Y-3.4605
X3.4017Y-3.4015
X3.4017Y-3.4605
X3.4312Y-3.4015
X3.4312Y-3.4605
X3.4607Y-3.4015
X3.4607Y-3.4605
X3.4903Y-3.4015
X3.4903Y-3.4605
X3.5198Y-3.4015
X3.5198Y-3.4605
X3.8705Y-2.7055
X3.8705Y-2.735
X3.8705Y-2.7645
X3.8705Y-2.7941
X3.8705Y-2.8236
X3.8705Y-2.8531
X3.8705Y-4.0142
X3.8705Y-4.0437
X3.8705Y-4.0732
X3.8705Y-4.1027
X3.8705Y-4.1323
X3.8705Y-4.1618
X3.9295Y-2.7055
X3.9295Y-2.735
X3.9295Y-2.7645
X3.9295Y-2.7941
X3.9295Y-2.8236
X3.9295Y-2.8531
X3.9295Y-4.0142
X3.9295Y-4.0437
X3.9295Y-4.0732
X3.9295Y-4.1027
X3.9295Y-4.1323
X3.9295Y-4.1618
X4.3463Y-3.407
X4.3463Y-3.4661
X4.3758Y-3.407
X4.3758Y-3.4661
X4.4053Y-3.407
X4.4053Y-3.4661
X4.4348Y-3.407
X4.4348Y-3.4661
X4.4644Y-3.407
X4.4644Y-3.4661
X4.4939Y-3.407
X4.4939Y-3.4661
X4.9005Y-2.7055
X4.9005Y-2.735
X4.9005Y-2.7645
X4.9005Y-2.7941
X4.9005Y-2.8236
X4.9005Y-2.8531
X4.9013Y-4.0184
X4.9013Y-4.048
X4.9013Y-4.0775
X4.9013Y-4.107
X4.9013Y-4.1366
X4.9013Y-4.1661
X4.9595Y-2.7055
X4.9595Y-2.735
X4.9595Y-2.7645
X4.9595Y-2.7941
X4.9595Y-2.8236
X4.9595Y-2.8531
X4.9603Y-4.0184
X4.9603Y-4.048
X4.9603Y-4.0775
X4.9603Y-4.107
X4.9603Y-4.1366
X4.9603Y-4.1661
X5.3669Y-3.4055
X5.3669Y-3.4645
X5.3964Y-3.4055
X5.3964Y-3.4645
X5.4259Y-3.4055
X5.4259Y-3.4645
X5.4555Y-3.4055
X5.4555Y-3.4645
X5.485Y-3.4055
X5.485Y-3.4645
X5.5145Y-3.4055
X5.5145Y-3.4645
T2
X3.3302Y-4.1192
X3.3402Y-2.7424
X3.5578Y-4.1192
X3.5678Y-2.7424
X4.3011Y-4.1385
X4.3029Y-2.7346
X4.5287Y-4.1385
X4.5305Y-2.7346
X5.3303Y-4.1369
X5.3321Y-2.7331
X5.5579Y-4.1369
X5.5597Y-2.7331
T0
M30
