%TF.GenerationSoftware,KiCad,Pcbnew,(6.0.4)*%
%TF.CreationDate,2022-05-23T19:11:52-04:00*%
%TF.ProjectId,wierd mousebites,77696572-6420-46d6-9f75-736562697465,rev?*%
%TF.SameCoordinates,Original*%
%TF.FileFunction,Soldermask,Bot*%
%TF.FilePolarity,Negative*%
%FSLAX46Y46*%
G04 Gerber Fmt 4.6, Leading zero omitted, Abs format (unit mm)*
G04 Created by KiCad (PCBNEW (6.0.4)) date 2022-05-23 19:11:52*
%MOMM*%
%LPD*%
G01*
G04 APERTURE LIST*
%ADD10C,0.500000*%
%ADD11C,0.650000*%
%ADD12R,0.600000X1.450000*%
%ADD13R,0.300000X1.450000*%
%ADD14O,1.000000X2.100000*%
%ADD15O,1.000000X1.600000*%
G04 APERTURE END LIST*
D10*
%TO.C,mouse-bite-2mm-slot*%
X85653000Y-86397400D03*
X87153000Y-86397400D03*
X88653000Y-87897400D03*
X89403000Y-86397400D03*
X88653000Y-86397400D03*
X87903000Y-86397400D03*
X85653000Y-87897400D03*
X87153000Y-87897400D03*
X86403000Y-86397400D03*
X87903000Y-87897400D03*
X86403000Y-87897400D03*
X89403000Y-87897400D03*
%TD*%
%TO.C,mouse-bite-2mm-slot*%
X99810000Y-101959800D03*
X99810000Y-103459800D03*
X98310000Y-104959800D03*
X99810000Y-105709800D03*
X99810000Y-104959800D03*
X99810000Y-104209800D03*
X98310000Y-101959800D03*
X98310000Y-103459800D03*
X99810000Y-102709800D03*
X98310000Y-104209800D03*
X98310000Y-102709800D03*
X98310000Y-105709800D03*
%TD*%
%TO.C,mouse-bite-2mm-slot*%
X98310000Y-69469000D03*
X99810000Y-69469000D03*
X98310000Y-68719000D03*
X98310000Y-70219000D03*
X99810000Y-70219000D03*
X99810000Y-68719000D03*
X99810000Y-71719000D03*
X98310000Y-70969000D03*
X98310000Y-71719000D03*
X99810000Y-72469000D03*
X98310000Y-72469000D03*
X99810000Y-70969000D03*
%TD*%
D11*
%TO.C,J1*%
X115028000Y-105117500D03*
X109248000Y-105117500D03*
D12*
X115388000Y-103672500D03*
X114588000Y-103672500D03*
D13*
X113388000Y-103672500D03*
X112388000Y-103672500D03*
X111888000Y-103672500D03*
X110888000Y-103672500D03*
D12*
X109688000Y-103672500D03*
X108888000Y-103672500D03*
X108888000Y-103672500D03*
X109688000Y-103672500D03*
D13*
X110388000Y-103672500D03*
X111388000Y-103672500D03*
X112888000Y-103672500D03*
X113888000Y-103672500D03*
D12*
X114588000Y-103672500D03*
X115388000Y-103672500D03*
D14*
X116458000Y-104587500D03*
D15*
X107818000Y-108767500D03*
D14*
X107818000Y-104587500D03*
D15*
X116458000Y-108767500D03*
%TD*%
D11*
%TO.C,J1*%
X141170000Y-105078000D03*
X135390000Y-105078000D03*
D12*
X141530000Y-103633000D03*
X140730000Y-103633000D03*
D13*
X139530000Y-103633000D03*
X138530000Y-103633000D03*
X138030000Y-103633000D03*
X137030000Y-103633000D03*
D12*
X135830000Y-103633000D03*
X135030000Y-103633000D03*
X135030000Y-103633000D03*
X135830000Y-103633000D03*
D13*
X136530000Y-103633000D03*
X137530000Y-103633000D03*
X139030000Y-103633000D03*
X140030000Y-103633000D03*
D12*
X140730000Y-103633000D03*
X141530000Y-103633000D03*
D14*
X142600000Y-104548000D03*
D15*
X133960000Y-108728000D03*
D14*
X133960000Y-104548000D03*
D15*
X142600000Y-108728000D03*
%TD*%
D10*
%TO.C,mouse-bite-2mm-slot*%
X113395000Y-86538500D03*
X112645000Y-86538500D03*
X111895000Y-86538500D03*
X111145000Y-86538500D03*
X114145000Y-88038500D03*
X112645000Y-88038500D03*
X110395000Y-88038500D03*
X111895000Y-88038500D03*
X111145000Y-88038500D03*
X113395000Y-88038500D03*
X110395000Y-86538500D03*
X114145000Y-86538500D03*
%TD*%
%TO.C,mouse-bite-2mm-slot*%
X124492000Y-103568500D03*
X124492000Y-105068500D03*
X124492000Y-105818500D03*
X125992000Y-102818500D03*
X125992000Y-105068500D03*
X124492000Y-104318500D03*
X125992000Y-103568500D03*
X125992000Y-104318500D03*
X125992000Y-105818500D03*
X125992000Y-102068500D03*
X124492000Y-102818500D03*
X124492000Y-102068500D03*
%TD*%
D11*
%TO.C,J1*%
X109294000Y-69459500D03*
X115074000Y-69459500D03*
D12*
X108934000Y-70904500D03*
X109734000Y-70904500D03*
D13*
X110934000Y-70904500D03*
X111934000Y-70904500D03*
X112434000Y-70904500D03*
X113434000Y-70904500D03*
D12*
X114634000Y-70904500D03*
X115434000Y-70904500D03*
X115434000Y-70904500D03*
X114634000Y-70904500D03*
D13*
X113934000Y-70904500D03*
X112934000Y-70904500D03*
X111434000Y-70904500D03*
X110434000Y-70904500D03*
D12*
X109734000Y-70904500D03*
X108934000Y-70904500D03*
D14*
X107864000Y-69989500D03*
D15*
X116504000Y-65809500D03*
D14*
X116504000Y-69989500D03*
D15*
X107864000Y-65809500D03*
%TD*%
D10*
%TO.C,mouse-bite-2mm-slot*%
X124472000Y-69469000D03*
X125972000Y-69469000D03*
X124472000Y-68719000D03*
X124472000Y-70219000D03*
X125972000Y-70219000D03*
X125972000Y-68719000D03*
X125972000Y-71719000D03*
X124472000Y-70969000D03*
X124472000Y-71719000D03*
X125972000Y-72469000D03*
X124472000Y-72469000D03*
X125972000Y-70969000D03*
%TD*%
%TO.C,mouse-bite-2mm-slot*%
X139319000Y-86499000D03*
X139319000Y-87999000D03*
X140069000Y-86499000D03*
X138569000Y-86499000D03*
X138569000Y-87999000D03*
X140069000Y-87999000D03*
X137069000Y-87999000D03*
X137819000Y-86499000D03*
X137069000Y-86499000D03*
X136319000Y-87999000D03*
X136319000Y-86499000D03*
X137819000Y-87999000D03*
%TD*%
D11*
%TO.C,J1*%
X135436000Y-69420000D03*
X141216000Y-69420000D03*
D12*
X135076000Y-70865000D03*
X135876000Y-70865000D03*
D13*
X137076000Y-70865000D03*
X138076000Y-70865000D03*
X138576000Y-70865000D03*
X139576000Y-70865000D03*
D12*
X140776000Y-70865000D03*
X141576000Y-70865000D03*
X141576000Y-70865000D03*
X140776000Y-70865000D03*
D13*
X140076000Y-70865000D03*
X139076000Y-70865000D03*
X137576000Y-70865000D03*
X136576000Y-70865000D03*
D12*
X135876000Y-70865000D03*
X135076000Y-70865000D03*
D14*
X134006000Y-69950000D03*
D15*
X142646000Y-65770000D03*
D14*
X142646000Y-69950000D03*
D15*
X134006000Y-65770000D03*
%TD*%
%TO.C,USB1*%
X83157600Y-108277501D03*
D11*
X84587600Y-104627501D03*
D15*
X91797600Y-108277501D03*
D11*
X90367600Y-104627501D03*
D14*
X91797600Y-104097501D03*
X83157600Y-104097501D03*
D13*
X87727600Y-103182501D03*
X85727600Y-103182501D03*
X86227600Y-103182501D03*
X86727600Y-103182501D03*
X87227600Y-103182501D03*
X88227600Y-103182501D03*
X88727600Y-103182501D03*
X89227600Y-103182501D03*
D12*
X84227600Y-103182501D03*
X85027600Y-103182501D03*
X89927600Y-103182501D03*
X90727600Y-103182501D03*
X90727600Y-103182501D03*
X89927600Y-103182501D03*
X85027600Y-103182501D03*
X84227600Y-103182501D03*
%TD*%
D15*
%TO.C,USB1*%
X92051600Y-66006000D03*
D11*
X90621600Y-69656000D03*
D15*
X83411600Y-66006000D03*
D11*
X84841600Y-69656000D03*
D14*
X83411600Y-70186000D03*
X92051600Y-70186000D03*
D13*
X87481600Y-71101000D03*
X89481600Y-71101000D03*
X88981600Y-71101000D03*
X88481600Y-71101000D03*
X87981600Y-71101000D03*
X86981600Y-71101000D03*
X86481600Y-71101000D03*
X85981600Y-71101000D03*
D12*
X90981600Y-71101000D03*
X90181600Y-71101000D03*
X85281600Y-71101000D03*
X84481600Y-71101000D03*
X84481600Y-71101000D03*
X85281600Y-71101000D03*
X90181600Y-71101000D03*
X90981600Y-71101000D03*
%TD*%
M02*
