%TF.GenerationSoftware,KiCad,Pcbnew,(6.0.4)*%
%TF.CreationDate,2022-05-23T19:11:52-04:00*%
%TF.ProjectId,wierd mousebites,77696572-6420-46d6-9f75-736562697465,rev?*%
%TF.SameCoordinates,Original*%
%TF.FileFunction,Paste,Bot*%
%TF.FilePolarity,Positive*%
%FSLAX46Y46*%
G04 Gerber Fmt 4.6, Leading zero omitted, Abs format (unit mm)*
G04 Created by KiCad (PCBNEW (6.0.4)) date 2022-05-23 19:11:52*
%MOMM*%
%LPD*%
G01*
G04 APERTURE LIST*
%ADD10R,0.600000X1.450000*%
%ADD11R,0.300000X1.450000*%
G04 APERTURE END LIST*
D10*
%TO.C,J1*%
X115388000Y-103672500D03*
X114588000Y-103672500D03*
D11*
X113388000Y-103672500D03*
X112388000Y-103672500D03*
X111888000Y-103672500D03*
X110888000Y-103672500D03*
D10*
X109688000Y-103672500D03*
X108888000Y-103672500D03*
X108888000Y-103672500D03*
X109688000Y-103672500D03*
D11*
X110388000Y-103672500D03*
X111388000Y-103672500D03*
X112888000Y-103672500D03*
X113888000Y-103672500D03*
D10*
X114588000Y-103672500D03*
X115388000Y-103672500D03*
%TD*%
%TO.C,J1*%
X141530000Y-103633000D03*
X140730000Y-103633000D03*
D11*
X139530000Y-103633000D03*
X138530000Y-103633000D03*
X138030000Y-103633000D03*
X137030000Y-103633000D03*
D10*
X135830000Y-103633000D03*
X135030000Y-103633000D03*
X135030000Y-103633000D03*
X135830000Y-103633000D03*
D11*
X136530000Y-103633000D03*
X137530000Y-103633000D03*
X139030000Y-103633000D03*
X140030000Y-103633000D03*
D10*
X140730000Y-103633000D03*
X141530000Y-103633000D03*
%TD*%
%TO.C,J1*%
X108934000Y-70904500D03*
X109734000Y-70904500D03*
D11*
X110934000Y-70904500D03*
X111934000Y-70904500D03*
X112434000Y-70904500D03*
X113434000Y-70904500D03*
D10*
X114634000Y-70904500D03*
X115434000Y-70904500D03*
X115434000Y-70904500D03*
X114634000Y-70904500D03*
D11*
X113934000Y-70904500D03*
X112934000Y-70904500D03*
X111434000Y-70904500D03*
X110434000Y-70904500D03*
D10*
X109734000Y-70904500D03*
X108934000Y-70904500D03*
%TD*%
%TO.C,J1*%
X135076000Y-70865000D03*
X135876000Y-70865000D03*
D11*
X137076000Y-70865000D03*
X138076000Y-70865000D03*
X138576000Y-70865000D03*
X139576000Y-70865000D03*
D10*
X140776000Y-70865000D03*
X141576000Y-70865000D03*
X141576000Y-70865000D03*
X140776000Y-70865000D03*
D11*
X140076000Y-70865000D03*
X139076000Y-70865000D03*
X137576000Y-70865000D03*
X136576000Y-70865000D03*
D10*
X135876000Y-70865000D03*
X135076000Y-70865000D03*
%TD*%
D11*
%TO.C,USB1*%
X87727600Y-103182501D03*
X85727600Y-103182501D03*
X86227600Y-103182501D03*
X86727600Y-103182501D03*
X87227600Y-103182501D03*
X88227600Y-103182501D03*
X88727600Y-103182501D03*
X89227600Y-103182501D03*
D10*
X84227600Y-103182501D03*
X85027600Y-103182501D03*
X89927600Y-103182501D03*
X90727600Y-103182501D03*
X90727600Y-103182501D03*
X89927600Y-103182501D03*
X85027600Y-103182501D03*
X84227600Y-103182501D03*
%TD*%
D11*
%TO.C,USB1*%
X87481600Y-71101000D03*
X89481600Y-71101000D03*
X88981600Y-71101000D03*
X88481600Y-71101000D03*
X87981600Y-71101000D03*
X86981600Y-71101000D03*
X86481600Y-71101000D03*
X85981600Y-71101000D03*
D10*
X90981600Y-71101000D03*
X90181600Y-71101000D03*
X85281600Y-71101000D03*
X84481600Y-71101000D03*
X84481600Y-71101000D03*
X85281600Y-71101000D03*
X90181600Y-71101000D03*
X90981600Y-71101000D03*
%TD*%
M02*
