%TF.GenerationSoftware,KiCad,Pcbnew,(5.1.10)-1*%
%TF.CreationDate,2022-02-26T10:37:02-05:00*%
%TF.ProjectId,001,3030312e-6b69-4636-9164-5f7063625858,rev?*%
%TF.SameCoordinates,Original*%
%TF.FileFunction,Copper,L2,Bot*%
%TF.FilePolarity,Positive*%
%FSLAX46Y46*%
G04 Gerber Fmt 4.6, Leading zero omitted, Abs format (unit mm)*
G04 Created by KiCad (PCBNEW (5.1.10)-1) date 2022-02-26 10:37:02*
%MOMM*%
%LPD*%
G01*
G04 APERTURE LIST*
%TA.AperFunction,ComponentPad*%
%ADD10O,1.000000X1.600000*%
%TD*%
%TA.AperFunction,ComponentPad*%
%ADD11O,1.000000X2.100000*%
%TD*%
%TA.AperFunction,SMDPad,CuDef*%
%ADD12R,0.300000X1.450000*%
%TD*%
%TA.AperFunction,SMDPad,CuDef*%
%ADD13R,0.600000X1.450000*%
%TD*%
%TA.AperFunction,ViaPad*%
%ADD14C,0.400000*%
%TD*%
%TA.AperFunction,Conductor*%
%ADD15C,0.250000*%
%TD*%
%TA.AperFunction,Conductor*%
%ADD16C,0.200000*%
%TD*%
%TA.AperFunction,Conductor*%
%ADD17C,0.100000*%
%TD*%
G04 APERTURE END LIST*
D10*
%TO.P,J1,S1*%
%TO.N,GND*%
X123120000Y-71350000D03*
X114480000Y-71350000D03*
D11*
X114480000Y-75530000D03*
X123120000Y-75530000D03*
D12*
%TO.P,J1,A6*%
%TO.N,Net-(J1-PadA6)*%
X118550000Y-76445000D03*
%TO.P,J1,B5*%
%TO.N,Net-(J1-PadB5)*%
X120550000Y-76445000D03*
%TO.P,J1,A8*%
%TO.N,Net-(J1-PadA8)*%
X120050000Y-76445000D03*
%TO.P,J1,B6*%
%TO.N,Net-(J1-PadA6)*%
X119550000Y-76445000D03*
%TO.P,J1,A7*%
%TO.N,Net-(J1-PadA7)*%
X119050000Y-76445000D03*
%TO.P,J1,B7*%
X118050000Y-76445000D03*
%TO.P,J1,A5*%
%TO.N,Net-(J1-PadA5)*%
X117550000Y-76445000D03*
%TO.P,J1,B8*%
%TO.N,Net-(J1-PadB8)*%
X117050000Y-76445000D03*
D13*
%TO.P,J1,A12*%
%TO.N,GND*%
X122050000Y-76445000D03*
%TO.P,J1,B4*%
%TO.N,/vcc*%
X121250000Y-76445000D03*
%TO.P,J1,A4*%
X116350000Y-76445000D03*
%TO.P,J1,A1*%
%TO.N,GND*%
X115550000Y-76445000D03*
%TO.P,J1,B12*%
X115550000Y-76445000D03*
%TO.P,J1,B9*%
%TO.N,/vcc*%
X116350000Y-76445000D03*
%TO.P,J1,A9*%
X121250000Y-76445000D03*
%TO.P,J1,B1*%
%TO.N,GND*%
X122050000Y-76445000D03*
%TD*%
D14*
%TO.N,/vcc*%
X113441268Y-77708732D03*
X119930001Y-78525001D03*
%TO.N,GND*%
X109046446Y-79053554D03*
%TO.N,Net-(J1-PadA6)*%
X118100000Y-73550000D03*
%TO.N,Net-(J1-PadB5)*%
X119900000Y-72350000D03*
%TO.N,Net-(J1-PadA7)*%
X118500000Y-78000000D03*
%TO.N,Net-(J1-PadA5)*%
X117650000Y-72300000D03*
%TD*%
D15*
%TO.N,/vcc*%
X116350000Y-77255002D02*
X116350000Y-76445000D01*
X115896270Y-77708732D02*
X116350000Y-77255002D01*
X113441268Y-77708732D02*
X115896270Y-77708732D01*
X116712539Y-78525001D02*
X115896270Y-77708732D01*
X119930001Y-78525001D02*
X116712539Y-78525001D01*
X121250000Y-77205002D02*
X119930001Y-78525001D01*
X121250000Y-76445000D02*
X121250000Y-77205002D01*
%TO.N,Net-(J1-PadA6)*%
X118550000Y-74000000D02*
X118100000Y-73550000D01*
X118550000Y-76445000D02*
X118550000Y-74000000D01*
X118550000Y-75484998D02*
X118550000Y-76445000D01*
X118639999Y-75394999D02*
X118550000Y-75484998D01*
X119474999Y-75394999D02*
X118639999Y-75394999D01*
X119550000Y-75470000D02*
X119474999Y-75394999D01*
X119550000Y-76445000D02*
X119550000Y-75470000D01*
%TO.N,Net-(J1-PadB5)*%
X120550000Y-73000000D02*
X119900000Y-72350000D01*
X120550000Y-76445000D02*
X120550000Y-73000000D01*
%TO.N,Net-(J1-PadA7)*%
X118050000Y-77550000D02*
X118050000Y-76445000D01*
X118500000Y-78000000D02*
X118050000Y-77550000D01*
X119050000Y-77450000D02*
X118500000Y-78000000D01*
X119050000Y-76445000D02*
X119050000Y-77450000D01*
%TO.N,Net-(J1-PadA5)*%
X117550000Y-72400000D02*
X117650000Y-72300000D01*
X117550000Y-76445000D02*
X117550000Y-72400000D01*
%TD*%
D16*
%TO.N,GND*%
X127975000Y-81148309D02*
X122828544Y-86540032D01*
X122819080Y-86547799D01*
X122806506Y-86563120D01*
X122803885Y-86565866D01*
X122796371Y-86575470D01*
X122778466Y-86597286D01*
X122776667Y-86600652D01*
X122774318Y-86603654D01*
X122761596Y-86628849D01*
X122748288Y-86653746D01*
X122747181Y-86657394D01*
X122745461Y-86660801D01*
X122737888Y-86688030D01*
X122729704Y-86715009D01*
X122729331Y-86718798D01*
X122728307Y-86722479D01*
X122726192Y-86750666D01*
X122725001Y-86762759D01*
X122725001Y-86766540D01*
X122723517Y-86786318D01*
X122725001Y-86798479D01*
X122725000Y-91953720D01*
X114875000Y-91953720D01*
X114875000Y-86798470D01*
X114876483Y-86786318D01*
X114875000Y-86766553D01*
X114875000Y-86762759D01*
X114873805Y-86750625D01*
X114871693Y-86722478D01*
X114870671Y-86718802D01*
X114870297Y-86715009D01*
X114862104Y-86688001D01*
X114854539Y-86660800D01*
X114852820Y-86657397D01*
X114851713Y-86653746D01*
X114838396Y-86628832D01*
X114825682Y-86603653D01*
X114823335Y-86600653D01*
X114821535Y-86597286D01*
X114803626Y-86575464D01*
X114796115Y-86565865D01*
X114793495Y-86563121D01*
X114780921Y-86547799D01*
X114771457Y-86540032D01*
X109543498Y-81062924D01*
X109530921Y-81047599D01*
X109509088Y-81029681D01*
X109487702Y-81011281D01*
X109484388Y-81009409D01*
X109481434Y-81006985D01*
X109456494Y-80993654D01*
X109431959Y-80979797D01*
X109428342Y-80978607D01*
X109424974Y-80976807D01*
X109397946Y-80968608D01*
X109371146Y-80959792D01*
X109367360Y-80959330D01*
X109363711Y-80958223D01*
X109335604Y-80955455D01*
X109307598Y-80952037D01*
X109287833Y-80953520D01*
X104125000Y-80953520D01*
X104125000Y-79041586D01*
X110411717Y-79041586D01*
X110411717Y-79315054D01*
X110465068Y-79583267D01*
X110569720Y-79835918D01*
X110721650Y-80063299D01*
X110915021Y-80256670D01*
X111142402Y-80408600D01*
X111395053Y-80513252D01*
X111663266Y-80566603D01*
X111936734Y-80566603D01*
X112204947Y-80513252D01*
X112457598Y-80408600D01*
X112684979Y-80256670D01*
X112878350Y-80063299D01*
X113030280Y-79835918D01*
X113134932Y-79583267D01*
X113188283Y-79315054D01*
X113188283Y-79156196D01*
X123576363Y-79156196D01*
X123576569Y-79185656D01*
X123576364Y-79215105D01*
X123576806Y-79219621D01*
X123598226Y-79423423D01*
X123604149Y-79452278D01*
X123609669Y-79481213D01*
X123610981Y-79485558D01*
X123671579Y-79681317D01*
X123682998Y-79708481D01*
X123694028Y-79735781D01*
X123696158Y-79739789D01*
X123793625Y-79920051D01*
X123810092Y-79944463D01*
X123826226Y-79969119D01*
X123829094Y-79972636D01*
X123959717Y-80130532D01*
X123980611Y-80151280D01*
X124001228Y-80172333D01*
X124004725Y-80175226D01*
X124163529Y-80304744D01*
X124188074Y-80321051D01*
X124212369Y-80337686D01*
X124216361Y-80339845D01*
X124397298Y-80436051D01*
X124424512Y-80447267D01*
X124451605Y-80458879D01*
X124455940Y-80460222D01*
X124652118Y-80519452D01*
X124681016Y-80525174D01*
X124709826Y-80531297D01*
X124714340Y-80531772D01*
X124918286Y-80551769D01*
X124918292Y-80551769D01*
X124934039Y-80553320D01*
X126165961Y-80553320D01*
X126182744Y-80551667D01*
X126196375Y-80551667D01*
X126200888Y-80551193D01*
X126404535Y-80528350D01*
X126433325Y-80522230D01*
X126462242Y-80516504D01*
X126466577Y-80515162D01*
X126661909Y-80453199D01*
X126688941Y-80441612D01*
X126716217Y-80430370D01*
X126720209Y-80428211D01*
X126899785Y-80329488D01*
X126924092Y-80312845D01*
X126948623Y-80296546D01*
X126952120Y-80293654D01*
X127109102Y-80161932D01*
X127129707Y-80140890D01*
X127150612Y-80120130D01*
X127153481Y-80116613D01*
X127281888Y-79956908D01*
X127298024Y-79932249D01*
X127314489Y-79907839D01*
X127316619Y-79903832D01*
X127411559Y-79722228D01*
X127422576Y-79694959D01*
X127434008Y-79667763D01*
X127435320Y-79663418D01*
X127493179Y-79466831D01*
X127498700Y-79437890D01*
X127504621Y-79409041D01*
X127505065Y-79404524D01*
X127523637Y-79200445D01*
X127523431Y-79170985D01*
X127523636Y-79141536D01*
X127523194Y-79137019D01*
X127501774Y-78933217D01*
X127495851Y-78904363D01*
X127490331Y-78875427D01*
X127489019Y-78871083D01*
X127428421Y-78675323D01*
X127417007Y-78648171D01*
X127405972Y-78620859D01*
X127403842Y-78616852D01*
X127306375Y-78436589D01*
X127289908Y-78412177D01*
X127273774Y-78387521D01*
X127270906Y-78384004D01*
X127140283Y-78226108D01*
X127119372Y-78205343D01*
X127098772Y-78184307D01*
X127095275Y-78181414D01*
X126936470Y-78051896D01*
X126911921Y-78035585D01*
X126887631Y-78018954D01*
X126883639Y-78016795D01*
X126702702Y-77920589D01*
X126675520Y-77909386D01*
X126648395Y-77897760D01*
X126644060Y-77896418D01*
X126447882Y-77837188D01*
X126418984Y-77831466D01*
X126390174Y-77825343D01*
X126385660Y-77824868D01*
X126181714Y-77804871D01*
X126181708Y-77804871D01*
X126165961Y-77803320D01*
X124934039Y-77803320D01*
X124917256Y-77804973D01*
X124903625Y-77804973D01*
X124899112Y-77805447D01*
X124695465Y-77828290D01*
X124666638Y-77834418D01*
X124637758Y-77840137D01*
X124633422Y-77841478D01*
X124438091Y-77903441D01*
X124411047Y-77915033D01*
X124383783Y-77926270D01*
X124379791Y-77928428D01*
X124200215Y-78027152D01*
X124175934Y-78043777D01*
X124151377Y-78060093D01*
X124147880Y-78062986D01*
X123990899Y-78194708D01*
X123970296Y-78215747D01*
X123949388Y-78236510D01*
X123946519Y-78240027D01*
X123818112Y-78399733D01*
X123801976Y-78424392D01*
X123785511Y-78448802D01*
X123783380Y-78452809D01*
X123688441Y-78634412D01*
X123677412Y-78661710D01*
X123665992Y-78688877D01*
X123664680Y-78693221D01*
X123606821Y-78889809D01*
X123601299Y-78918756D01*
X123595379Y-78947599D01*
X123594935Y-78952116D01*
X123576363Y-79156196D01*
X113188283Y-79156196D01*
X113188283Y-79041586D01*
X113134932Y-78773373D01*
X113030280Y-78520722D01*
X112878350Y-78293341D01*
X112684979Y-78099970D01*
X112457598Y-77948040D01*
X112204947Y-77843388D01*
X111936734Y-77790037D01*
X111663266Y-77790037D01*
X111395053Y-77843388D01*
X111142402Y-77948040D01*
X110915021Y-78099970D01*
X110721650Y-78293341D01*
X110569720Y-78520722D01*
X110465068Y-78773373D01*
X110411717Y-79041586D01*
X104125000Y-79041586D01*
X104125000Y-77659486D01*
X112941268Y-77659486D01*
X112941268Y-77757978D01*
X112960483Y-77854577D01*
X112998174Y-77945571D01*
X113052893Y-78027463D01*
X113122537Y-78097107D01*
X113204429Y-78151826D01*
X113295423Y-78189517D01*
X113392022Y-78208732D01*
X113490514Y-78208732D01*
X113587113Y-78189517D01*
X113678107Y-78151826D01*
X113705186Y-78133732D01*
X115720230Y-78133732D01*
X116397260Y-78810763D01*
X116410565Y-78826975D01*
X116426777Y-78840280D01*
X116426778Y-78840281D01*
X116430983Y-78843732D01*
X116475279Y-78880085D01*
X116523394Y-78905802D01*
X116549111Y-78919549D01*
X116594166Y-78933216D01*
X116629225Y-78943851D01*
X116691665Y-78950001D01*
X116691672Y-78950001D01*
X116712539Y-78952056D01*
X116733406Y-78950001D01*
X119666083Y-78950001D01*
X119693162Y-78968095D01*
X119784156Y-79005786D01*
X119880755Y-79025001D01*
X119979247Y-79025001D01*
X120075846Y-79005786D01*
X120166840Y-78968095D01*
X120248732Y-78913376D01*
X120318376Y-78843732D01*
X120373095Y-78761840D01*
X120410786Y-78670846D01*
X120417140Y-78638902D01*
X121535762Y-77520281D01*
X121551974Y-77506976D01*
X121581603Y-77470874D01*
X121583866Y-77468116D01*
X121608810Y-77465659D01*
X121665360Y-77448504D01*
X121717477Y-77420647D01*
X121763158Y-77383158D01*
X121800647Y-77337477D01*
X121828504Y-77285360D01*
X121845659Y-77228810D01*
X121851451Y-77170000D01*
X121851451Y-75720000D01*
X121845659Y-75661190D01*
X121829950Y-75609406D01*
X121872306Y-75600981D01*
X121986048Y-75553868D01*
X122088414Y-75485469D01*
X122175469Y-75398414D01*
X122243868Y-75296048D01*
X122290981Y-75182306D01*
X122315000Y-75061557D01*
X122315000Y-74938443D01*
X122290981Y-74817694D01*
X122243868Y-74703952D01*
X122175469Y-74601586D01*
X122088414Y-74514531D01*
X121986048Y-74446132D01*
X121872306Y-74399019D01*
X121751557Y-74375000D01*
X121628443Y-74375000D01*
X121507694Y-74399019D01*
X121393952Y-74446132D01*
X121291586Y-74514531D01*
X121204531Y-74601586D01*
X121136132Y-74703952D01*
X121089019Y-74817694D01*
X121065000Y-74938443D01*
X121065000Y-75061557D01*
X121089019Y-75182306D01*
X121136132Y-75296048D01*
X121204531Y-75398414D01*
X121224666Y-75418549D01*
X120975000Y-75418549D01*
X120975000Y-73636685D01*
X124859178Y-73636685D01*
X124859178Y-73919955D01*
X124914441Y-74197781D01*
X125022844Y-74459488D01*
X125180220Y-74695018D01*
X125380522Y-74895320D01*
X125616052Y-75052696D01*
X125877759Y-75161099D01*
X126155585Y-75216362D01*
X126438855Y-75216362D01*
X126716681Y-75161099D01*
X126978388Y-75052696D01*
X127213918Y-74895320D01*
X127414220Y-74695018D01*
X127571596Y-74459488D01*
X127679999Y-74197781D01*
X127735262Y-73919955D01*
X127735262Y-73636685D01*
X127679999Y-73358859D01*
X127571596Y-73097152D01*
X127414220Y-72861622D01*
X127213918Y-72661320D01*
X126978388Y-72503944D01*
X126716681Y-72395541D01*
X126438855Y-72340278D01*
X126155585Y-72340278D01*
X125877759Y-72395541D01*
X125616052Y-72503944D01*
X125380522Y-72661320D01*
X125180220Y-72861622D01*
X125022844Y-73097152D01*
X124914441Y-73358859D01*
X124859178Y-73636685D01*
X120975000Y-73636685D01*
X120975000Y-73020867D01*
X120977055Y-73000000D01*
X120975000Y-72979133D01*
X120975000Y-72979126D01*
X120968850Y-72916686D01*
X120944548Y-72836573D01*
X120944548Y-72836572D01*
X120930801Y-72810855D01*
X120905084Y-72762740D01*
X120851974Y-72698026D01*
X120835762Y-72684721D01*
X120387139Y-72236099D01*
X120380785Y-72204155D01*
X120343094Y-72113161D01*
X120288375Y-72031269D01*
X120218731Y-71961625D01*
X120136839Y-71906906D01*
X120045845Y-71869215D01*
X119949246Y-71850000D01*
X119850754Y-71850000D01*
X119754155Y-71869215D01*
X119663161Y-71906906D01*
X119581269Y-71961625D01*
X119511625Y-72031269D01*
X119456906Y-72113161D01*
X119419215Y-72204155D01*
X119400000Y-72300754D01*
X119400000Y-72399246D01*
X119419215Y-72495845D01*
X119456906Y-72586839D01*
X119511625Y-72668731D01*
X119581269Y-72738375D01*
X119663161Y-72793094D01*
X119754155Y-72830785D01*
X119786099Y-72837139D01*
X120125001Y-73176042D01*
X120125000Y-75418549D01*
X119971988Y-75418549D01*
X119968850Y-75386686D01*
X119944548Y-75306573D01*
X119905084Y-75232740D01*
X119851974Y-75168026D01*
X119835756Y-75154716D01*
X119790283Y-75109243D01*
X119776973Y-75093025D01*
X119712259Y-75039915D01*
X119638426Y-75000451D01*
X119558313Y-74976149D01*
X119495873Y-74969999D01*
X119495866Y-74969999D01*
X119474999Y-74967944D01*
X119454132Y-74969999D01*
X118975000Y-74969999D01*
X118975000Y-74020866D01*
X118977055Y-73999999D01*
X118975000Y-73979132D01*
X118975000Y-73979126D01*
X118968850Y-73916686D01*
X118944548Y-73836573D01*
X118905084Y-73762740D01*
X118851974Y-73698026D01*
X118835762Y-73684721D01*
X118587139Y-73436099D01*
X118580785Y-73404155D01*
X118543094Y-73313161D01*
X118488375Y-73231269D01*
X118418731Y-73161625D01*
X118336839Y-73106906D01*
X118245845Y-73069215D01*
X118149246Y-73050000D01*
X118050754Y-73050000D01*
X117975000Y-73065069D01*
X117975000Y-72682106D01*
X118038375Y-72618731D01*
X118093094Y-72536839D01*
X118130785Y-72445845D01*
X118150000Y-72349246D01*
X118150000Y-72250754D01*
X118130785Y-72154155D01*
X118093094Y-72063161D01*
X118038375Y-71981269D01*
X117968731Y-71911625D01*
X117886839Y-71856906D01*
X117795845Y-71819215D01*
X117699246Y-71800000D01*
X117600754Y-71800000D01*
X117504155Y-71819215D01*
X117413161Y-71856906D01*
X117331269Y-71911625D01*
X117261625Y-71981269D01*
X117206906Y-72063161D01*
X117169215Y-72154155D01*
X117150000Y-72250754D01*
X117150000Y-72254548D01*
X117131150Y-72316686D01*
X117122945Y-72400000D01*
X117125001Y-72420877D01*
X117125000Y-75418549D01*
X116900000Y-75418549D01*
X116841190Y-75424341D01*
X116784640Y-75441496D01*
X116775000Y-75446649D01*
X116765360Y-75441496D01*
X116708810Y-75424341D01*
X116650000Y-75418549D01*
X116375334Y-75418549D01*
X116395469Y-75398414D01*
X116463868Y-75296048D01*
X116510981Y-75182306D01*
X116535000Y-75061557D01*
X116535000Y-74938443D01*
X116510981Y-74817694D01*
X116463868Y-74703952D01*
X116395469Y-74601586D01*
X116308414Y-74514531D01*
X116206048Y-74446132D01*
X116092306Y-74399019D01*
X115971557Y-74375000D01*
X115848443Y-74375000D01*
X115727694Y-74399019D01*
X115613952Y-74446132D01*
X115511586Y-74514531D01*
X115424531Y-74601586D01*
X115356132Y-74703952D01*
X115309019Y-74817694D01*
X115285000Y-74938443D01*
X115285000Y-75061557D01*
X115309019Y-75182306D01*
X115356132Y-75296048D01*
X115424531Y-75398414D01*
X115511586Y-75485469D01*
X115613952Y-75553868D01*
X115727694Y-75600981D01*
X115770050Y-75609406D01*
X115754341Y-75661190D01*
X115748549Y-75720000D01*
X115748549Y-77170000D01*
X115754341Y-77228810D01*
X115759185Y-77244777D01*
X115720230Y-77283732D01*
X113705186Y-77283732D01*
X113678107Y-77265638D01*
X113587113Y-77227947D01*
X113490514Y-77208732D01*
X113392022Y-77208732D01*
X113295423Y-77227947D01*
X113204429Y-77265638D01*
X113122537Y-77320357D01*
X113052893Y-77390001D01*
X112998174Y-77471893D01*
X112960483Y-77562887D01*
X112941268Y-77659486D01*
X104125000Y-77659486D01*
X104125000Y-73636685D01*
X109859178Y-73636685D01*
X109859178Y-73919955D01*
X109914441Y-74197781D01*
X110022844Y-74459488D01*
X110180220Y-74695018D01*
X110380522Y-74895320D01*
X110616052Y-75052696D01*
X110877759Y-75161099D01*
X111155585Y-75216362D01*
X111438855Y-75216362D01*
X111716681Y-75161099D01*
X111978388Y-75052696D01*
X112213918Y-74895320D01*
X112414220Y-74695018D01*
X112571596Y-74459488D01*
X112679999Y-74197781D01*
X112735262Y-73919955D01*
X112735262Y-73636685D01*
X112679999Y-73358859D01*
X112571596Y-73097152D01*
X112414220Y-72861622D01*
X112213918Y-72661320D01*
X111978388Y-72503944D01*
X111716681Y-72395541D01*
X111438855Y-72340278D01*
X111155585Y-72340278D01*
X110877759Y-72395541D01*
X110616052Y-72503944D01*
X110380522Y-72661320D01*
X110180220Y-72861622D01*
X110022844Y-73097152D01*
X109914441Y-73358859D01*
X109859178Y-73636685D01*
X104125000Y-73636685D01*
X104125000Y-70603320D01*
X127975001Y-70603320D01*
X127975000Y-81148309D01*
%TA.AperFunction,Conductor*%
D17*
G36*
X127975000Y-81148309D02*
G01*
X122828544Y-86540032D01*
X122819080Y-86547799D01*
X122806506Y-86563120D01*
X122803885Y-86565866D01*
X122796371Y-86575470D01*
X122778466Y-86597286D01*
X122776667Y-86600652D01*
X122774318Y-86603654D01*
X122761596Y-86628849D01*
X122748288Y-86653746D01*
X122747181Y-86657394D01*
X122745461Y-86660801D01*
X122737888Y-86688030D01*
X122729704Y-86715009D01*
X122729331Y-86718798D01*
X122728307Y-86722479D01*
X122726192Y-86750666D01*
X122725001Y-86762759D01*
X122725001Y-86766540D01*
X122723517Y-86786318D01*
X122725001Y-86798479D01*
X122725000Y-91953720D01*
X114875000Y-91953720D01*
X114875000Y-86798470D01*
X114876483Y-86786318D01*
X114875000Y-86766553D01*
X114875000Y-86762759D01*
X114873805Y-86750625D01*
X114871693Y-86722478D01*
X114870671Y-86718802D01*
X114870297Y-86715009D01*
X114862104Y-86688001D01*
X114854539Y-86660800D01*
X114852820Y-86657397D01*
X114851713Y-86653746D01*
X114838396Y-86628832D01*
X114825682Y-86603653D01*
X114823335Y-86600653D01*
X114821535Y-86597286D01*
X114803626Y-86575464D01*
X114796115Y-86565865D01*
X114793495Y-86563121D01*
X114780921Y-86547799D01*
X114771457Y-86540032D01*
X109543498Y-81062924D01*
X109530921Y-81047599D01*
X109509088Y-81029681D01*
X109487702Y-81011281D01*
X109484388Y-81009409D01*
X109481434Y-81006985D01*
X109456494Y-80993654D01*
X109431959Y-80979797D01*
X109428342Y-80978607D01*
X109424974Y-80976807D01*
X109397946Y-80968608D01*
X109371146Y-80959792D01*
X109367360Y-80959330D01*
X109363711Y-80958223D01*
X109335604Y-80955455D01*
X109307598Y-80952037D01*
X109287833Y-80953520D01*
X104125000Y-80953520D01*
X104125000Y-79041586D01*
X110411717Y-79041586D01*
X110411717Y-79315054D01*
X110465068Y-79583267D01*
X110569720Y-79835918D01*
X110721650Y-80063299D01*
X110915021Y-80256670D01*
X111142402Y-80408600D01*
X111395053Y-80513252D01*
X111663266Y-80566603D01*
X111936734Y-80566603D01*
X112204947Y-80513252D01*
X112457598Y-80408600D01*
X112684979Y-80256670D01*
X112878350Y-80063299D01*
X113030280Y-79835918D01*
X113134932Y-79583267D01*
X113188283Y-79315054D01*
X113188283Y-79156196D01*
X123576363Y-79156196D01*
X123576569Y-79185656D01*
X123576364Y-79215105D01*
X123576806Y-79219621D01*
X123598226Y-79423423D01*
X123604149Y-79452278D01*
X123609669Y-79481213D01*
X123610981Y-79485558D01*
X123671579Y-79681317D01*
X123682998Y-79708481D01*
X123694028Y-79735781D01*
X123696158Y-79739789D01*
X123793625Y-79920051D01*
X123810092Y-79944463D01*
X123826226Y-79969119D01*
X123829094Y-79972636D01*
X123959717Y-80130532D01*
X123980611Y-80151280D01*
X124001228Y-80172333D01*
X124004725Y-80175226D01*
X124163529Y-80304744D01*
X124188074Y-80321051D01*
X124212369Y-80337686D01*
X124216361Y-80339845D01*
X124397298Y-80436051D01*
X124424512Y-80447267D01*
X124451605Y-80458879D01*
X124455940Y-80460222D01*
X124652118Y-80519452D01*
X124681016Y-80525174D01*
X124709826Y-80531297D01*
X124714340Y-80531772D01*
X124918286Y-80551769D01*
X124918292Y-80551769D01*
X124934039Y-80553320D01*
X126165961Y-80553320D01*
X126182744Y-80551667D01*
X126196375Y-80551667D01*
X126200888Y-80551193D01*
X126404535Y-80528350D01*
X126433325Y-80522230D01*
X126462242Y-80516504D01*
X126466577Y-80515162D01*
X126661909Y-80453199D01*
X126688941Y-80441612D01*
X126716217Y-80430370D01*
X126720209Y-80428211D01*
X126899785Y-80329488D01*
X126924092Y-80312845D01*
X126948623Y-80296546D01*
X126952120Y-80293654D01*
X127109102Y-80161932D01*
X127129707Y-80140890D01*
X127150612Y-80120130D01*
X127153481Y-80116613D01*
X127281888Y-79956908D01*
X127298024Y-79932249D01*
X127314489Y-79907839D01*
X127316619Y-79903832D01*
X127411559Y-79722228D01*
X127422576Y-79694959D01*
X127434008Y-79667763D01*
X127435320Y-79663418D01*
X127493179Y-79466831D01*
X127498700Y-79437890D01*
X127504621Y-79409041D01*
X127505065Y-79404524D01*
X127523637Y-79200445D01*
X127523431Y-79170985D01*
X127523636Y-79141536D01*
X127523194Y-79137019D01*
X127501774Y-78933217D01*
X127495851Y-78904363D01*
X127490331Y-78875427D01*
X127489019Y-78871083D01*
X127428421Y-78675323D01*
X127417007Y-78648171D01*
X127405972Y-78620859D01*
X127403842Y-78616852D01*
X127306375Y-78436589D01*
X127289908Y-78412177D01*
X127273774Y-78387521D01*
X127270906Y-78384004D01*
X127140283Y-78226108D01*
X127119372Y-78205343D01*
X127098772Y-78184307D01*
X127095275Y-78181414D01*
X126936470Y-78051896D01*
X126911921Y-78035585D01*
X126887631Y-78018954D01*
X126883639Y-78016795D01*
X126702702Y-77920589D01*
X126675520Y-77909386D01*
X126648395Y-77897760D01*
X126644060Y-77896418D01*
X126447882Y-77837188D01*
X126418984Y-77831466D01*
X126390174Y-77825343D01*
X126385660Y-77824868D01*
X126181714Y-77804871D01*
X126181708Y-77804871D01*
X126165961Y-77803320D01*
X124934039Y-77803320D01*
X124917256Y-77804973D01*
X124903625Y-77804973D01*
X124899112Y-77805447D01*
X124695465Y-77828290D01*
X124666638Y-77834418D01*
X124637758Y-77840137D01*
X124633422Y-77841478D01*
X124438091Y-77903441D01*
X124411047Y-77915033D01*
X124383783Y-77926270D01*
X124379791Y-77928428D01*
X124200215Y-78027152D01*
X124175934Y-78043777D01*
X124151377Y-78060093D01*
X124147880Y-78062986D01*
X123990899Y-78194708D01*
X123970296Y-78215747D01*
X123949388Y-78236510D01*
X123946519Y-78240027D01*
X123818112Y-78399733D01*
X123801976Y-78424392D01*
X123785511Y-78448802D01*
X123783380Y-78452809D01*
X123688441Y-78634412D01*
X123677412Y-78661710D01*
X123665992Y-78688877D01*
X123664680Y-78693221D01*
X123606821Y-78889809D01*
X123601299Y-78918756D01*
X123595379Y-78947599D01*
X123594935Y-78952116D01*
X123576363Y-79156196D01*
X113188283Y-79156196D01*
X113188283Y-79041586D01*
X113134932Y-78773373D01*
X113030280Y-78520722D01*
X112878350Y-78293341D01*
X112684979Y-78099970D01*
X112457598Y-77948040D01*
X112204947Y-77843388D01*
X111936734Y-77790037D01*
X111663266Y-77790037D01*
X111395053Y-77843388D01*
X111142402Y-77948040D01*
X110915021Y-78099970D01*
X110721650Y-78293341D01*
X110569720Y-78520722D01*
X110465068Y-78773373D01*
X110411717Y-79041586D01*
X104125000Y-79041586D01*
X104125000Y-77659486D01*
X112941268Y-77659486D01*
X112941268Y-77757978D01*
X112960483Y-77854577D01*
X112998174Y-77945571D01*
X113052893Y-78027463D01*
X113122537Y-78097107D01*
X113204429Y-78151826D01*
X113295423Y-78189517D01*
X113392022Y-78208732D01*
X113490514Y-78208732D01*
X113587113Y-78189517D01*
X113678107Y-78151826D01*
X113705186Y-78133732D01*
X115720230Y-78133732D01*
X116397260Y-78810763D01*
X116410565Y-78826975D01*
X116426777Y-78840280D01*
X116426778Y-78840281D01*
X116430983Y-78843732D01*
X116475279Y-78880085D01*
X116523394Y-78905802D01*
X116549111Y-78919549D01*
X116594166Y-78933216D01*
X116629225Y-78943851D01*
X116691665Y-78950001D01*
X116691672Y-78950001D01*
X116712539Y-78952056D01*
X116733406Y-78950001D01*
X119666083Y-78950001D01*
X119693162Y-78968095D01*
X119784156Y-79005786D01*
X119880755Y-79025001D01*
X119979247Y-79025001D01*
X120075846Y-79005786D01*
X120166840Y-78968095D01*
X120248732Y-78913376D01*
X120318376Y-78843732D01*
X120373095Y-78761840D01*
X120410786Y-78670846D01*
X120417140Y-78638902D01*
X121535762Y-77520281D01*
X121551974Y-77506976D01*
X121581603Y-77470874D01*
X121583866Y-77468116D01*
X121608810Y-77465659D01*
X121665360Y-77448504D01*
X121717477Y-77420647D01*
X121763158Y-77383158D01*
X121800647Y-77337477D01*
X121828504Y-77285360D01*
X121845659Y-77228810D01*
X121851451Y-77170000D01*
X121851451Y-75720000D01*
X121845659Y-75661190D01*
X121829950Y-75609406D01*
X121872306Y-75600981D01*
X121986048Y-75553868D01*
X122088414Y-75485469D01*
X122175469Y-75398414D01*
X122243868Y-75296048D01*
X122290981Y-75182306D01*
X122315000Y-75061557D01*
X122315000Y-74938443D01*
X122290981Y-74817694D01*
X122243868Y-74703952D01*
X122175469Y-74601586D01*
X122088414Y-74514531D01*
X121986048Y-74446132D01*
X121872306Y-74399019D01*
X121751557Y-74375000D01*
X121628443Y-74375000D01*
X121507694Y-74399019D01*
X121393952Y-74446132D01*
X121291586Y-74514531D01*
X121204531Y-74601586D01*
X121136132Y-74703952D01*
X121089019Y-74817694D01*
X121065000Y-74938443D01*
X121065000Y-75061557D01*
X121089019Y-75182306D01*
X121136132Y-75296048D01*
X121204531Y-75398414D01*
X121224666Y-75418549D01*
X120975000Y-75418549D01*
X120975000Y-73636685D01*
X124859178Y-73636685D01*
X124859178Y-73919955D01*
X124914441Y-74197781D01*
X125022844Y-74459488D01*
X125180220Y-74695018D01*
X125380522Y-74895320D01*
X125616052Y-75052696D01*
X125877759Y-75161099D01*
X126155585Y-75216362D01*
X126438855Y-75216362D01*
X126716681Y-75161099D01*
X126978388Y-75052696D01*
X127213918Y-74895320D01*
X127414220Y-74695018D01*
X127571596Y-74459488D01*
X127679999Y-74197781D01*
X127735262Y-73919955D01*
X127735262Y-73636685D01*
X127679999Y-73358859D01*
X127571596Y-73097152D01*
X127414220Y-72861622D01*
X127213918Y-72661320D01*
X126978388Y-72503944D01*
X126716681Y-72395541D01*
X126438855Y-72340278D01*
X126155585Y-72340278D01*
X125877759Y-72395541D01*
X125616052Y-72503944D01*
X125380522Y-72661320D01*
X125180220Y-72861622D01*
X125022844Y-73097152D01*
X124914441Y-73358859D01*
X124859178Y-73636685D01*
X120975000Y-73636685D01*
X120975000Y-73020867D01*
X120977055Y-73000000D01*
X120975000Y-72979133D01*
X120975000Y-72979126D01*
X120968850Y-72916686D01*
X120944548Y-72836573D01*
X120944548Y-72836572D01*
X120930801Y-72810855D01*
X120905084Y-72762740D01*
X120851974Y-72698026D01*
X120835762Y-72684721D01*
X120387139Y-72236099D01*
X120380785Y-72204155D01*
X120343094Y-72113161D01*
X120288375Y-72031269D01*
X120218731Y-71961625D01*
X120136839Y-71906906D01*
X120045845Y-71869215D01*
X119949246Y-71850000D01*
X119850754Y-71850000D01*
X119754155Y-71869215D01*
X119663161Y-71906906D01*
X119581269Y-71961625D01*
X119511625Y-72031269D01*
X119456906Y-72113161D01*
X119419215Y-72204155D01*
X119400000Y-72300754D01*
X119400000Y-72399246D01*
X119419215Y-72495845D01*
X119456906Y-72586839D01*
X119511625Y-72668731D01*
X119581269Y-72738375D01*
X119663161Y-72793094D01*
X119754155Y-72830785D01*
X119786099Y-72837139D01*
X120125001Y-73176042D01*
X120125000Y-75418549D01*
X119971988Y-75418549D01*
X119968850Y-75386686D01*
X119944548Y-75306573D01*
X119905084Y-75232740D01*
X119851974Y-75168026D01*
X119835756Y-75154716D01*
X119790283Y-75109243D01*
X119776973Y-75093025D01*
X119712259Y-75039915D01*
X119638426Y-75000451D01*
X119558313Y-74976149D01*
X119495873Y-74969999D01*
X119495866Y-74969999D01*
X119474999Y-74967944D01*
X119454132Y-74969999D01*
X118975000Y-74969999D01*
X118975000Y-74020866D01*
X118977055Y-73999999D01*
X118975000Y-73979132D01*
X118975000Y-73979126D01*
X118968850Y-73916686D01*
X118944548Y-73836573D01*
X118905084Y-73762740D01*
X118851974Y-73698026D01*
X118835762Y-73684721D01*
X118587139Y-73436099D01*
X118580785Y-73404155D01*
X118543094Y-73313161D01*
X118488375Y-73231269D01*
X118418731Y-73161625D01*
X118336839Y-73106906D01*
X118245845Y-73069215D01*
X118149246Y-73050000D01*
X118050754Y-73050000D01*
X117975000Y-73065069D01*
X117975000Y-72682106D01*
X118038375Y-72618731D01*
X118093094Y-72536839D01*
X118130785Y-72445845D01*
X118150000Y-72349246D01*
X118150000Y-72250754D01*
X118130785Y-72154155D01*
X118093094Y-72063161D01*
X118038375Y-71981269D01*
X117968731Y-71911625D01*
X117886839Y-71856906D01*
X117795845Y-71819215D01*
X117699246Y-71800000D01*
X117600754Y-71800000D01*
X117504155Y-71819215D01*
X117413161Y-71856906D01*
X117331269Y-71911625D01*
X117261625Y-71981269D01*
X117206906Y-72063161D01*
X117169215Y-72154155D01*
X117150000Y-72250754D01*
X117150000Y-72254548D01*
X117131150Y-72316686D01*
X117122945Y-72400000D01*
X117125001Y-72420877D01*
X117125000Y-75418549D01*
X116900000Y-75418549D01*
X116841190Y-75424341D01*
X116784640Y-75441496D01*
X116775000Y-75446649D01*
X116765360Y-75441496D01*
X116708810Y-75424341D01*
X116650000Y-75418549D01*
X116375334Y-75418549D01*
X116395469Y-75398414D01*
X116463868Y-75296048D01*
X116510981Y-75182306D01*
X116535000Y-75061557D01*
X116535000Y-74938443D01*
X116510981Y-74817694D01*
X116463868Y-74703952D01*
X116395469Y-74601586D01*
X116308414Y-74514531D01*
X116206048Y-74446132D01*
X116092306Y-74399019D01*
X115971557Y-74375000D01*
X115848443Y-74375000D01*
X115727694Y-74399019D01*
X115613952Y-74446132D01*
X115511586Y-74514531D01*
X115424531Y-74601586D01*
X115356132Y-74703952D01*
X115309019Y-74817694D01*
X115285000Y-74938443D01*
X115285000Y-75061557D01*
X115309019Y-75182306D01*
X115356132Y-75296048D01*
X115424531Y-75398414D01*
X115511586Y-75485469D01*
X115613952Y-75553868D01*
X115727694Y-75600981D01*
X115770050Y-75609406D01*
X115754341Y-75661190D01*
X115748549Y-75720000D01*
X115748549Y-77170000D01*
X115754341Y-77228810D01*
X115759185Y-77244777D01*
X115720230Y-77283732D01*
X113705186Y-77283732D01*
X113678107Y-77265638D01*
X113587113Y-77227947D01*
X113490514Y-77208732D01*
X113392022Y-77208732D01*
X113295423Y-77227947D01*
X113204429Y-77265638D01*
X113122537Y-77320357D01*
X113052893Y-77390001D01*
X112998174Y-77471893D01*
X112960483Y-77562887D01*
X112941268Y-77659486D01*
X104125000Y-77659486D01*
X104125000Y-73636685D01*
X109859178Y-73636685D01*
X109859178Y-73919955D01*
X109914441Y-74197781D01*
X110022844Y-74459488D01*
X110180220Y-74695018D01*
X110380522Y-74895320D01*
X110616052Y-75052696D01*
X110877759Y-75161099D01*
X111155585Y-75216362D01*
X111438855Y-75216362D01*
X111716681Y-75161099D01*
X111978388Y-75052696D01*
X112213918Y-74895320D01*
X112414220Y-74695018D01*
X112571596Y-74459488D01*
X112679999Y-74197781D01*
X112735262Y-73919955D01*
X112735262Y-73636685D01*
X112679999Y-73358859D01*
X112571596Y-73097152D01*
X112414220Y-72861622D01*
X112213918Y-72661320D01*
X111978388Y-72503944D01*
X111716681Y-72395541D01*
X111438855Y-72340278D01*
X111155585Y-72340278D01*
X110877759Y-72395541D01*
X110616052Y-72503944D01*
X110380522Y-72661320D01*
X110180220Y-72861622D01*
X110022844Y-73097152D01*
X109914441Y-73358859D01*
X109859178Y-73636685D01*
X104125000Y-73636685D01*
X104125000Y-70603320D01*
X127975001Y-70603320D01*
X127975000Y-81148309D01*
G37*
%TD.AperFunction*%
%TD*%
M02*
