M48
; DRILL file {KiCad 8.0.1} date 2024-03-21T19:56:42-0400
; FORMAT={-:-/ absolute / inch / decimal}
; #@! TF.CreationDate,2024-03-21T19:56:42-04:00
; #@! TF.GenerationSoftware,Kicad,Pcbnew,8.0.1
; #@! TF.FileFunction,Plated,1,2,PTH
FMAT,2
INCH
; #@! TA.AperFunction,Plated,PTH,ViaDrill
T1C0.0118
; #@! TA.AperFunction,Plated,PTH,ComponentDrill
T2C0.0236
%
G90
G05
T1
X4.1Y-2.1
X4.11Y-2.29
X4.12Y-2.22
X4.2289Y-2.2111
X4.25Y-2.05
X4.2511Y-2.1889
X4.27Y-2.31
X4.46Y-2.44
X4.47Y-2.31
X4.49Y-2.81
X4.52Y-2.11
X4.53Y-2.7
X4.55Y-2.19
X4.56Y-2.62
X4.57Y-2.41
X4.57Y-2.5
X4.63Y-2.16
X4.6377Y-2.6523
X4.64Y-2.59
X4.68Y-2.72
X4.69Y-2.17
X4.72Y-2.12
X4.76Y-2.31
T2
G00X4.4499Y-2.0304
M15
G01X4.4499Y-2.0776
M16
G05
G00X4.4499Y-2.1957
M15
G01X4.4499Y-2.2272
M16
G05
G00X4.7901Y-2.0304
M15
G01X4.7901Y-2.0776
M16
G05
G00X4.7901Y-2.1957
M15
G01X4.7901Y-2.2272
M16
G05
M30
