%TF.GenerationSoftware,KiCad,Pcbnew,8.0.1*%
%TF.CreationDate,2024-03-21T19:56:43-04:00*%
%TF.ProjectId,001-v2,3030312d-7632-42e6-9b69-6361645f7063,rev?*%
%TF.SameCoordinates,Original*%
%TF.FileFunction,Copper,L2,Bot*%
%TF.FilePolarity,Positive*%
%FSLAX46Y46*%
G04 Gerber Fmt 4.6, Leading zero omitted, Abs format (unit mm)*
G04 Created by KiCad (PCBNEW 8.0.1) date 2024-03-21 19:56:43*
%MOMM*%
%LPD*%
G01*
G04 APERTURE LIST*
%TA.AperFunction,SMDPad,CuDef*%
%ADD10R,0.600000X1.140000*%
%TD*%
%TA.AperFunction,SMDPad,CuDef*%
%ADD11R,0.300000X1.140000*%
%TD*%
%TA.AperFunction,ComponentPad*%
%ADD12O,1.000000X2.200000*%
%TD*%
%TA.AperFunction,ComponentPad*%
%ADD13O,1.000000X1.800000*%
%TD*%
%TA.AperFunction,ViaPad*%
%ADD14C,0.600000*%
%TD*%
%TA.AperFunction,Conductor*%
%ADD15C,0.150000*%
%TD*%
%TA.AperFunction,Conductor*%
%ADD16C,0.500000*%
%TD*%
%TA.AperFunction,Conductor*%
%ADD17C,0.180000*%
%TD*%
G04 APERTURE END LIST*
D10*
%TO.P,J1,A1,GND*%
%TO.N,GND*%
X114098000Y-56741500D03*
%TO.P,J1,A4,VBUS*%
%TO.N,+5V*%
X114898000Y-56741500D03*
D11*
%TO.P,J1,A5,CC1*%
%TO.N,Net-(J1-CC1)*%
X116098000Y-56741500D03*
%TO.P,J1,A6,D+*%
%TO.N,USBD+*%
X117098000Y-56741500D03*
%TO.P,J1,A7,D-*%
%TO.N,USBD-*%
X117598000Y-56741500D03*
%TO.P,J1,A8,SBU1*%
%TO.N,unconnected-(J1-SBU1-PadA8)*%
X118598000Y-56741500D03*
D10*
%TO.P,J1,A9,VBUS*%
%TO.N,+5V*%
X119798000Y-56741500D03*
%TO.P,J1,A12,GND*%
%TO.N,GND*%
X120598000Y-56741500D03*
%TO.P,J1,B1,GND*%
X120598000Y-56741500D03*
%TO.P,J1,B4,VBUS*%
%TO.N,+5V*%
X119798000Y-56741500D03*
D11*
%TO.P,J1,B5,CC2*%
%TO.N,Net-(J1-CC2)*%
X119098000Y-56741500D03*
%TO.P,J1,B6,D+*%
%TO.N,USBD+*%
X118098000Y-56741500D03*
%TO.P,J1,B7,D-*%
%TO.N,USBD-*%
X116598000Y-56741500D03*
%TO.P,J1,B8,SBU2*%
%TO.N,unconnected-(J1-SBU2-PadB8)*%
X115598000Y-56741500D03*
D10*
%TO.P,J1,B9,VBUS*%
%TO.N,+5V*%
X114898000Y-56741500D03*
%TO.P,J1,B12,GND*%
%TO.N,GND*%
X114098000Y-56741500D03*
D12*
%TO.P,J1,S1,SHIELD*%
X113028000Y-52171500D03*
D13*
X113028000Y-56171500D03*
D12*
X121668000Y-52171500D03*
D13*
X121668000Y-56171500D03*
%TD*%
D14*
%TO.N,GND*%
X117602000Y-54864000D03*
X119888000Y-53848000D03*
X116078000Y-61214000D03*
X108458000Y-58674000D03*
X118872000Y-69088000D03*
X117856000Y-65786000D03*
X116078000Y-63500000D03*
X115062000Y-68580000D03*
X114046000Y-71374000D03*
X104394000Y-58166000D03*
X120904000Y-58674000D03*
X114808000Y-53594000D03*
X104140000Y-53340000D03*
X113538000Y-58674000D03*
X107950000Y-52070000D03*
X113284000Y-61976000D03*
%TO.N,Net-(J1-CC1)*%
X115570000Y-55626000D03*
%TO.N,Net-(J1-CC2)*%
X119126000Y-55118000D03*
%TO.N,+5V*%
X104648000Y-56388000D03*
%TO.N,USBD+*%
X107978843Y-55597157D03*
%TO.N,USBD-*%
X107413157Y-56162843D03*
%TO.N,GREEN*%
X115824000Y-66548000D03*
X117798000Y-67368000D03*
%TD*%
D15*
%TO.N,Net-(J1-CC1)*%
X116098000Y-56154000D02*
X115570000Y-55626000D01*
X116098000Y-56741500D02*
X116098000Y-56154000D01*
%TO.N,Net-(J1-CC2)*%
X119098000Y-55146000D02*
X119126000Y-55118000D01*
X119098000Y-56741500D02*
X119098000Y-55146000D01*
D16*
%TO.N,+5V*%
X114898000Y-57811500D02*
X114898000Y-56741500D01*
X106071500Y-57811500D02*
X104648000Y-56388000D01*
X119798000Y-56741500D02*
X119798000Y-58002000D01*
X119380000Y-58420000D02*
X115506500Y-58420000D01*
X114898000Y-57811500D02*
X106071500Y-57811500D01*
X115506500Y-58420000D02*
X114898000Y-57811500D01*
X119798000Y-58002000D02*
X119380000Y-58420000D01*
D17*
%TO.N,USBD+*%
X115902702Y-54420000D02*
X112697298Y-54420000D01*
X107978843Y-55894142D02*
X107978843Y-55597157D01*
X117098000Y-56741500D02*
X117098000Y-56041500D01*
X117038000Y-55555298D02*
X115902702Y-54420000D01*
X117098000Y-55886499D02*
X117038000Y-55826499D01*
X112697298Y-54420000D02*
X110919298Y-56198000D01*
X118038000Y-55931500D02*
X118098000Y-55991500D01*
X108282701Y-56198000D02*
X107978843Y-55894142D01*
X117098000Y-56741500D02*
X117098000Y-55886499D01*
X117208000Y-55931500D02*
X118038000Y-55931500D01*
X117038000Y-55826499D02*
X117038000Y-55555298D01*
X110919298Y-56198000D02*
X108282701Y-56198000D01*
X117098000Y-56041500D02*
X117208000Y-55931500D01*
X118098000Y-55991500D02*
X118098000Y-56741500D01*
%TO.N,USBD-*%
X117538000Y-57551500D02*
X117598000Y-57491500D01*
X116598000Y-56741500D02*
X116598000Y-55886499D01*
X116598000Y-57441500D02*
X116708000Y-57551500D01*
X117598000Y-57491500D02*
X117598000Y-56741500D01*
X116658000Y-55712702D02*
X115745298Y-54800000D01*
X111076702Y-56578000D02*
X108125299Y-56578000D01*
X116708000Y-57551500D02*
X117538000Y-57551500D01*
X115745298Y-54800000D02*
X112854702Y-54800000D01*
X116598000Y-56741500D02*
X116598000Y-57441500D01*
X112854702Y-54800000D02*
X111076702Y-56578000D01*
X116598000Y-55886499D02*
X116658000Y-55826499D01*
X108125299Y-56578000D02*
X107710142Y-56162843D01*
X116658000Y-55826499D02*
X116658000Y-55712702D01*
X107710142Y-56162843D02*
X107413157Y-56162843D01*
D15*
%TO.N,GREEN*%
X117798000Y-67368000D02*
X116978000Y-66548000D01*
X116978000Y-66548000D02*
X115824000Y-66548000D01*
%TD*%
%TA.AperFunction,Conductor*%
%TO.N,GND*%
G36*
X115167274Y-55110185D02*
G01*
X115213029Y-55162989D01*
X115222973Y-55232147D01*
X115193948Y-55295701D01*
X115176811Y-55315478D01*
X115144623Y-55352626D01*
X115144622Y-55352628D01*
X115084834Y-55483543D01*
X115064353Y-55626000D01*
X115084834Y-55768456D01*
X115097180Y-55795488D01*
X115107124Y-55864646D01*
X115078099Y-55928202D01*
X115019322Y-55965977D01*
X114984386Y-55971000D01*
X114934556Y-55971000D01*
X114867517Y-55951315D01*
X114835290Y-55921311D01*
X114755190Y-55814312D01*
X114755187Y-55814309D01*
X114640093Y-55728149D01*
X114640086Y-55728145D01*
X114505379Y-55677903D01*
X114505372Y-55677901D01*
X114445844Y-55671500D01*
X114348000Y-55671500D01*
X114348000Y-56867500D01*
X114328315Y-56934539D01*
X114275511Y-56980294D01*
X114224000Y-56991500D01*
X113379000Y-56991500D01*
X113311961Y-56971815D01*
X113266206Y-56919011D01*
X113255000Y-56867500D01*
X113255000Y-56768765D01*
X113268060Y-56755705D01*
X113307556Y-56687296D01*
X113328000Y-56610996D01*
X113328000Y-56502594D01*
X113379000Y-56491500D01*
X113848000Y-56491500D01*
X113848000Y-55752500D01*
X113867685Y-55685461D01*
X113920489Y-55639706D01*
X113972000Y-55628500D01*
X114019147Y-55628500D01*
X113989572Y-55479818D01*
X113989569Y-55479806D01*
X113914192Y-55297828D01*
X113914185Y-55297816D01*
X113904547Y-55283391D01*
X113883669Y-55216714D01*
X113902153Y-55149334D01*
X113954132Y-55102643D01*
X114007649Y-55090500D01*
X115100235Y-55090500D01*
X115167274Y-55110185D01*
G37*
%TD.AperFunction*%
%TA.AperFunction,Conductor*%
G36*
X112063583Y-51020185D02*
G01*
X112109338Y-51072989D01*
X112119282Y-51142147D01*
X112111105Y-51171952D01*
X112066430Y-51279806D01*
X112066427Y-51279818D01*
X112028000Y-51473004D01*
X112028000Y-51921500D01*
X112728000Y-51921500D01*
X112728000Y-52421500D01*
X112028000Y-52421500D01*
X112028000Y-52869995D01*
X112066427Y-53063181D01*
X112066430Y-53063193D01*
X112141807Y-53245171D01*
X112141814Y-53245184D01*
X112251248Y-53408962D01*
X112251251Y-53408966D01*
X112390533Y-53548248D01*
X112390537Y-53548251D01*
X112554315Y-53657685D01*
X112554328Y-53657692D01*
X112736308Y-53733069D01*
X112778000Y-53741362D01*
X112778000Y-52938488D01*
X112787940Y-52955705D01*
X112843795Y-53011560D01*
X112912204Y-53051056D01*
X112988504Y-53071500D01*
X113067496Y-53071500D01*
X113143796Y-53051056D01*
X113212205Y-53011560D01*
X113268060Y-52955705D01*
X113278000Y-52938488D01*
X113278000Y-53741362D01*
X113319690Y-53733069D01*
X113319692Y-53733069D01*
X113501671Y-53657692D01*
X113501684Y-53657685D01*
X113665462Y-53548251D01*
X113665466Y-53548248D01*
X113804748Y-53408966D01*
X113804751Y-53408962D01*
X113914185Y-53245184D01*
X113914192Y-53245171D01*
X113989569Y-53063193D01*
X113989572Y-53063181D01*
X114027999Y-52869995D01*
X114028000Y-52869992D01*
X114028000Y-52421500D01*
X113328000Y-52421500D01*
X113328000Y-51921500D01*
X114028000Y-51921500D01*
X114028000Y-51473008D01*
X114027999Y-51473004D01*
X113989572Y-51279818D01*
X113989569Y-51279806D01*
X113944895Y-51171952D01*
X113937426Y-51102483D01*
X113968701Y-51040004D01*
X114028790Y-51004352D01*
X114059456Y-51000500D01*
X120636544Y-51000500D01*
X120703583Y-51020185D01*
X120749338Y-51072989D01*
X120759282Y-51142147D01*
X120751105Y-51171952D01*
X120706430Y-51279806D01*
X120706427Y-51279818D01*
X120668000Y-51473004D01*
X120668000Y-51921500D01*
X121368000Y-51921500D01*
X121368000Y-52421500D01*
X120668000Y-52421500D01*
X120668000Y-52869995D01*
X120706427Y-53063181D01*
X120706430Y-53063193D01*
X120781807Y-53245171D01*
X120781814Y-53245184D01*
X120891248Y-53408962D01*
X120891251Y-53408966D01*
X121030533Y-53548248D01*
X121030537Y-53548251D01*
X121194315Y-53657685D01*
X121194328Y-53657692D01*
X121376308Y-53733069D01*
X121418000Y-53741362D01*
X121418000Y-52938488D01*
X121427940Y-52955705D01*
X121483795Y-53011560D01*
X121552204Y-53051056D01*
X121628504Y-53071500D01*
X121707496Y-53071500D01*
X121783796Y-53051056D01*
X121852205Y-53011560D01*
X121908060Y-52955705D01*
X121918000Y-52938488D01*
X121918000Y-53741362D01*
X121959690Y-53733069D01*
X121959692Y-53733069D01*
X122141671Y-53657692D01*
X122141684Y-53657685D01*
X122305462Y-53548251D01*
X122305466Y-53548248D01*
X122444748Y-53408966D01*
X122444751Y-53408962D01*
X122554185Y-53245184D01*
X122554192Y-53245171D01*
X122629569Y-53063193D01*
X122629572Y-53063181D01*
X122667999Y-52869995D01*
X122668000Y-52869992D01*
X122668000Y-52421500D01*
X121968000Y-52421500D01*
X121968000Y-51921500D01*
X122668000Y-51921500D01*
X122668000Y-51473008D01*
X122667999Y-51473004D01*
X122629572Y-51279818D01*
X122629569Y-51279806D01*
X122584895Y-51171952D01*
X122577426Y-51102483D01*
X122608701Y-51040004D01*
X122668790Y-51004352D01*
X122699456Y-51000500D01*
X126421500Y-51000500D01*
X126488539Y-51020185D01*
X126534294Y-51072989D01*
X126545500Y-51124500D01*
X126545500Y-61846192D01*
X126525815Y-61913231D01*
X126511290Y-61931712D01*
X121523552Y-67168463D01*
X121521446Y-67170622D01*
X121495826Y-67196243D01*
X121495452Y-67196834D01*
X121493803Y-67199368D01*
X121493409Y-67199957D01*
X121480368Y-67233741D01*
X121479251Y-67236534D01*
X121465393Y-67269992D01*
X121465269Y-67270710D01*
X121464719Y-67273661D01*
X121464580Y-67274355D01*
X121465463Y-67310557D01*
X121465500Y-67313578D01*
X121465500Y-71811500D01*
X121445815Y-71878539D01*
X121393011Y-71924294D01*
X121341500Y-71935500D01*
X113354500Y-71935500D01*
X113287461Y-71915815D01*
X113241706Y-71863011D01*
X113230500Y-71811500D01*
X113230500Y-67317726D01*
X113230640Y-67311830D01*
X113230701Y-67310557D01*
X113232170Y-67279700D01*
X113232169Y-67279696D01*
X113231869Y-67277690D01*
X113231765Y-67276296D01*
X113231271Y-67273461D01*
X113230894Y-67272103D01*
X113230500Y-67270121D01*
X113230500Y-67270118D01*
X113218183Y-67240384D01*
X113216067Y-67234907D01*
X113211666Y-67222664D01*
X113205186Y-67204639D01*
X113205184Y-67204637D01*
X113204143Y-67202904D01*
X113203512Y-67201652D01*
X113201964Y-67199212D01*
X113201096Y-67198102D01*
X113199977Y-67196427D01*
X113199596Y-67196046D01*
X113177226Y-67173676D01*
X113173174Y-67169426D01*
X112876591Y-66843185D01*
X112608241Y-66548000D01*
X115318353Y-66548000D01*
X115338834Y-66690456D01*
X115398622Y-66821371D01*
X115398623Y-66821373D01*
X115492872Y-66930143D01*
X115613947Y-67007953D01*
X115613950Y-67007954D01*
X115613949Y-67007954D01*
X115752036Y-67048499D01*
X115752038Y-67048500D01*
X115752039Y-67048500D01*
X115895962Y-67048500D01*
X115895962Y-67048499D01*
X116034053Y-67007953D01*
X116155128Y-66930143D01*
X116210451Y-66866296D01*
X116269228Y-66828523D01*
X116304163Y-66823500D01*
X116812523Y-66823500D01*
X116879562Y-66843185D01*
X116900204Y-66859819D01*
X117263048Y-67222664D01*
X117296533Y-67283987D01*
X117298105Y-67327991D01*
X117292353Y-67367999D01*
X117312834Y-67510456D01*
X117372622Y-67641371D01*
X117372623Y-67641373D01*
X117466872Y-67750143D01*
X117587947Y-67827953D01*
X117587950Y-67827954D01*
X117587949Y-67827954D01*
X117726036Y-67868499D01*
X117726038Y-67868500D01*
X117726039Y-67868500D01*
X117869962Y-67868500D01*
X117869962Y-67868499D01*
X118008053Y-67827953D01*
X118129128Y-67750143D01*
X118223377Y-67641373D01*
X118283165Y-67510457D01*
X118303647Y-67368000D01*
X118283165Y-67225543D01*
X118223377Y-67094627D01*
X118129128Y-66985857D01*
X118008053Y-66908047D01*
X118008051Y-66908046D01*
X118008049Y-66908045D01*
X118008050Y-66908045D01*
X117869963Y-66867500D01*
X117869961Y-66867500D01*
X117738478Y-66867500D01*
X117671439Y-66847815D01*
X117650797Y-66831181D01*
X117134059Y-66314444D01*
X117134058Y-66314443D01*
X117134056Y-66314442D01*
X117122505Y-66309657D01*
X117032800Y-66272500D01*
X116304163Y-66272500D01*
X116237124Y-66252815D01*
X116210450Y-66229703D01*
X116155128Y-66165857D01*
X116034053Y-66088047D01*
X116034051Y-66088046D01*
X116034049Y-66088045D01*
X116034050Y-66088045D01*
X115895963Y-66047500D01*
X115895961Y-66047500D01*
X115752039Y-66047500D01*
X115752036Y-66047500D01*
X115613949Y-66088045D01*
X115492873Y-66165856D01*
X115398623Y-66274626D01*
X115398622Y-66274628D01*
X115338834Y-66405543D01*
X115318353Y-66548000D01*
X112608241Y-66548000D01*
X108132453Y-61624635D01*
X108121098Y-61610106D01*
X108119975Y-61608425D01*
X108097211Y-61585661D01*
X108093160Y-61581412D01*
X108071531Y-61557620D01*
X108069902Y-61556416D01*
X108068826Y-61555489D01*
X108066492Y-61553848D01*
X108065270Y-61553157D01*
X108063576Y-61552025D01*
X108063574Y-61552024D01*
X108033840Y-61539707D01*
X108028468Y-61537330D01*
X107999375Y-61523624D01*
X107997413Y-61523136D01*
X107996080Y-61522696D01*
X107993269Y-61522067D01*
X107991882Y-61521897D01*
X107989886Y-61521500D01*
X107989882Y-61521500D01*
X107957728Y-61521500D01*
X107951830Y-61521360D01*
X107919698Y-61519829D01*
X107917697Y-61520130D01*
X107899315Y-61521500D01*
X102686500Y-61521500D01*
X102619461Y-61501815D01*
X102573706Y-61449011D01*
X102562500Y-61397500D01*
X102562500Y-56388000D01*
X104142353Y-56388000D01*
X104162834Y-56530456D01*
X104205005Y-56622796D01*
X104222623Y-56661373D01*
X104316872Y-56770143D01*
X104316874Y-56770144D01*
X104316876Y-56770146D01*
X104437941Y-56847950D01*
X104437944Y-56847952D01*
X104437946Y-56847952D01*
X104437947Y-56847953D01*
X104454158Y-56852712D01*
X104506906Y-56884009D01*
X105794886Y-58171989D01*
X105897613Y-58231299D01*
X105921821Y-58237784D01*
X105921824Y-58237786D01*
X105921825Y-58237786D01*
X105951947Y-58245857D01*
X106012191Y-58262000D01*
X109992560Y-58262000D01*
X110059599Y-58281685D01*
X110105354Y-58334489D01*
X110115298Y-58403647D01*
X110086273Y-58467203D01*
X110027495Y-58504977D01*
X110024653Y-58505775D01*
X109935577Y-58529642D01*
X109935568Y-58529646D01*
X109737261Y-58622118D01*
X109737257Y-58622120D01*
X109558021Y-58747622D01*
X109403302Y-58902341D01*
X109277800Y-59081577D01*
X109277798Y-59081581D01*
X109185326Y-59279888D01*
X109185322Y-59279897D01*
X109128693Y-59491240D01*
X109128693Y-59491244D01*
X109109623Y-59709217D01*
X109109623Y-59709222D01*
X109128693Y-59927195D01*
X109128693Y-59927199D01*
X109185322Y-60138542D01*
X109185324Y-60138546D01*
X109185325Y-60138550D01*
X109217964Y-60208544D01*
X109277797Y-60336858D01*
X109277798Y-60336859D01*
X109403302Y-60516097D01*
X109558023Y-60670818D01*
X109737261Y-60796322D01*
X109935570Y-60888795D01*
X110146923Y-60945427D01*
X110329826Y-60961428D01*
X110364898Y-60964497D01*
X110364900Y-60964497D01*
X110364902Y-60964497D01*
X110393154Y-60962025D01*
X110582877Y-60945427D01*
X110794230Y-60888795D01*
X110992539Y-60796322D01*
X111171777Y-60670818D01*
X111326498Y-60516097D01*
X111452002Y-60336859D01*
X111544475Y-60138550D01*
X111601107Y-59927197D01*
X111620177Y-59709220D01*
X111620175Y-59709205D01*
X122260094Y-59709205D01*
X122277207Y-59915730D01*
X122328082Y-60116633D01*
X122411331Y-60306423D01*
X122470166Y-60396476D01*
X122524682Y-60479918D01*
X122665043Y-60632391D01*
X122828586Y-60759682D01*
X122828589Y-60759684D01*
X122828591Y-60759685D01*
X122896291Y-60796322D01*
X123010850Y-60858318D01*
X123099621Y-60888793D01*
X123206859Y-60925608D01*
X123206861Y-60925608D01*
X123206863Y-60925609D01*
X123411279Y-60959720D01*
X123411280Y-60959720D01*
X124766740Y-60959720D01*
X124767148Y-60959680D01*
X124818517Y-60959680D01*
X124818518Y-60959680D01*
X125022927Y-60925570D01*
X125218934Y-60858281D01*
X125401192Y-60759648D01*
X125564730Y-60632361D01*
X125705087Y-60479893D01*
X125818434Y-60306403D01*
X125901679Y-60116622D01*
X125952553Y-59915728D01*
X125952554Y-59915720D01*
X125969666Y-59709206D01*
X125969666Y-59709193D01*
X125952554Y-59502679D01*
X125952553Y-59502676D01*
X125952553Y-59502672D01*
X125901679Y-59301778D01*
X125818434Y-59111997D01*
X125818420Y-59111976D01*
X125705088Y-58938509D01*
X125705087Y-58938507D01*
X125564730Y-58786039D01*
X125401192Y-58658752D01*
X125401191Y-58658751D01*
X125401188Y-58658749D01*
X125401186Y-58658748D01*
X125218940Y-58560122D01*
X125218937Y-58560120D01*
X125218934Y-58560119D01*
X125218931Y-58560118D01*
X125218929Y-58560117D01*
X125022930Y-58492830D01*
X124869354Y-58467203D01*
X124818518Y-58458720D01*
X124818517Y-58458720D01*
X123566302Y-58458720D01*
X123566166Y-58458680D01*
X123514900Y-58458680D01*
X123411279Y-58458680D01*
X123370395Y-58465502D01*
X123206859Y-58492791D01*
X123010854Y-58560080D01*
X123010843Y-58560085D01*
X122828591Y-58658714D01*
X122828582Y-58658721D01*
X122665049Y-58786003D01*
X122665046Y-58786006D01*
X122665043Y-58786008D01*
X122665043Y-58786009D01*
X122634057Y-58819668D01*
X122524683Y-58938480D01*
X122524680Y-58938484D01*
X122411331Y-59111976D01*
X122328082Y-59301766D01*
X122277207Y-59502669D01*
X122260094Y-59709194D01*
X122260094Y-59709205D01*
X111620175Y-59709205D01*
X111620175Y-59709200D01*
X111612407Y-59620405D01*
X111601107Y-59491243D01*
X111544475Y-59279890D01*
X111452002Y-59081582D01*
X111452000Y-59081579D01*
X111451999Y-59081577D01*
X111326499Y-58902344D01*
X111263953Y-58839798D01*
X111171777Y-58747622D01*
X110992539Y-58622118D01*
X110992540Y-58622118D01*
X110992538Y-58622117D01*
X110859588Y-58560122D01*
X110794230Y-58529645D01*
X110794226Y-58529644D01*
X110794222Y-58529642D01*
X110705147Y-58505775D01*
X110645486Y-58469410D01*
X110614957Y-58406563D01*
X110623252Y-58337187D01*
X110667737Y-58283310D01*
X110734289Y-58262035D01*
X110737240Y-58262000D01*
X114660035Y-58262000D01*
X114727074Y-58281685D01*
X114747716Y-58298319D01*
X115229886Y-58780489D01*
X115332613Y-58839799D01*
X115356821Y-58846284D01*
X115356824Y-58846286D01*
X115356825Y-58846286D01*
X115386947Y-58854357D01*
X115447191Y-58870500D01*
X115447193Y-58870500D01*
X119439308Y-58870500D01*
X119439309Y-58870500D01*
X119529673Y-58846286D01*
X119553887Y-58839799D01*
X119656614Y-58780489D01*
X120158489Y-58278614D01*
X120217798Y-58175887D01*
X120217799Y-58175886D01*
X120248500Y-58061309D01*
X120248500Y-57935500D01*
X120268185Y-57868461D01*
X120320989Y-57822706D01*
X120341188Y-57818311D01*
X120348000Y-57811500D01*
X120348000Y-56991500D01*
X120334819Y-56978319D01*
X120301334Y-56916996D01*
X120298500Y-56890638D01*
X120298500Y-56592362D01*
X120318185Y-56525323D01*
X120334819Y-56504681D01*
X120348000Y-56491500D01*
X120348000Y-55671500D01*
X120250155Y-55671500D01*
X120190627Y-55677901D01*
X120190620Y-55677903D01*
X120055913Y-55728145D01*
X120055906Y-55728149D01*
X119940812Y-55814309D01*
X119940809Y-55814312D01*
X119860710Y-55921311D01*
X119804777Y-55963182D01*
X119761444Y-55971000D01*
X119497500Y-55971000D01*
X119430461Y-55951315D01*
X119384706Y-55898511D01*
X119373500Y-55847000D01*
X119373500Y-55628500D01*
X120676853Y-55628500D01*
X120724000Y-55628500D01*
X120791039Y-55648185D01*
X120836794Y-55700989D01*
X120848000Y-55752500D01*
X120848000Y-57811500D01*
X120945828Y-57811500D01*
X120945844Y-57811499D01*
X121005372Y-57805098D01*
X121005379Y-57805096D01*
X121140086Y-57754854D01*
X121140093Y-57754850D01*
X121255186Y-57668690D01*
X121312428Y-57592227D01*
X121368362Y-57550356D01*
X121411249Y-57546904D01*
X121418000Y-57541363D01*
X121418000Y-56738488D01*
X121427940Y-56755705D01*
X121483795Y-56811560D01*
X121552204Y-56851056D01*
X121628504Y-56871500D01*
X121707496Y-56871500D01*
X121783796Y-56851056D01*
X121852205Y-56811560D01*
X121908060Y-56755705D01*
X121918000Y-56738488D01*
X121918000Y-57541362D01*
X121959690Y-57533069D01*
X121959692Y-57533069D01*
X122141671Y-57457692D01*
X122141684Y-57457685D01*
X122305462Y-57348251D01*
X122305466Y-57348248D01*
X122444748Y-57208966D01*
X122444751Y-57208962D01*
X122554185Y-57045184D01*
X122554192Y-57045171D01*
X122629569Y-56863193D01*
X122629572Y-56863181D01*
X122667999Y-56669995D01*
X122668000Y-56669992D01*
X122668000Y-56421500D01*
X121968000Y-56421500D01*
X121968000Y-55921500D01*
X122668000Y-55921500D01*
X122668000Y-55673008D01*
X122667999Y-55673004D01*
X122629572Y-55479818D01*
X122629569Y-55479806D01*
X122554192Y-55297828D01*
X122554185Y-55297815D01*
X122444751Y-55134037D01*
X122444748Y-55134033D01*
X122305466Y-54994751D01*
X122305462Y-54994748D01*
X122141684Y-54885314D01*
X122141671Y-54885307D01*
X121959691Y-54809929D01*
X121959683Y-54809927D01*
X121918000Y-54801635D01*
X121918000Y-55604511D01*
X121908060Y-55587295D01*
X121852205Y-55531440D01*
X121783796Y-55491944D01*
X121707496Y-55471500D01*
X121628504Y-55471500D01*
X121552204Y-55491944D01*
X121483795Y-55531440D01*
X121427940Y-55587295D01*
X121418000Y-55604511D01*
X121418000Y-54801636D01*
X121417999Y-54801635D01*
X121376316Y-54809927D01*
X121376308Y-54809929D01*
X121194328Y-54885307D01*
X121194315Y-54885314D01*
X121030537Y-54994748D01*
X121030533Y-54994751D01*
X120891251Y-55134033D01*
X120891248Y-55134037D01*
X120781814Y-55297815D01*
X120781807Y-55297828D01*
X120706430Y-55479806D01*
X120706427Y-55479818D01*
X120676853Y-55628500D01*
X119373500Y-55628500D01*
X119373500Y-55621596D01*
X119393185Y-55554557D01*
X119430462Y-55517280D01*
X119430815Y-55517053D01*
X119457128Y-55500143D01*
X119551377Y-55391373D01*
X119611165Y-55260457D01*
X119631647Y-55118000D01*
X119611165Y-54975543D01*
X119551377Y-54844627D01*
X119457128Y-54735857D01*
X119336053Y-54658047D01*
X119336051Y-54658046D01*
X119336049Y-54658045D01*
X119336050Y-54658045D01*
X119197963Y-54617500D01*
X119197961Y-54617500D01*
X119054039Y-54617500D01*
X119054036Y-54617500D01*
X118915949Y-54658045D01*
X118794873Y-54735856D01*
X118700623Y-54844626D01*
X118700622Y-54844628D01*
X118640834Y-54975543D01*
X118620353Y-55118000D01*
X118640834Y-55260456D01*
X118694024Y-55376924D01*
X118700623Y-55391373D01*
X118792214Y-55497075D01*
X118821238Y-55560629D01*
X118822500Y-55578276D01*
X118822500Y-55847000D01*
X118802815Y-55914039D01*
X118750011Y-55959794D01*
X118698500Y-55971000D01*
X118488403Y-55971000D01*
X118421364Y-55951315D01*
X118375609Y-55898511D01*
X118368889Y-55879821D01*
X118368703Y-55879371D01*
X118363974Y-55871181D01*
X118330458Y-55813129D01*
X118276371Y-55759042D01*
X118216371Y-55699042D01*
X118171272Y-55673004D01*
X118150130Y-55660797D01*
X118103060Y-55648185D01*
X118076245Y-55641000D01*
X118076244Y-55641000D01*
X117452500Y-55641000D01*
X117385461Y-55621315D01*
X117339706Y-55568511D01*
X117330245Y-55525022D01*
X117329561Y-55525113D01*
X117328500Y-55517060D01*
X117328500Y-55517053D01*
X117308703Y-55443169D01*
X117270458Y-55376927D01*
X117216371Y-55322840D01*
X116202752Y-54309221D01*
X123556652Y-54309221D01*
X123576484Y-54535906D01*
X123576486Y-54535917D01*
X123635378Y-54755708D01*
X123635381Y-54755717D01*
X123731551Y-54961952D01*
X123731552Y-54961954D01*
X123862074Y-55148361D01*
X124022978Y-55309265D01*
X124022981Y-55309267D01*
X124209386Y-55439788D01*
X124415624Y-55535959D01*
X124635428Y-55594855D01*
X124797350Y-55609021D01*
X124862118Y-55614688D01*
X124862120Y-55614688D01*
X124862122Y-55614688D01*
X124918793Y-55609729D01*
X125088812Y-55594855D01*
X125308616Y-55535959D01*
X125514854Y-55439788D01*
X125701259Y-55309267D01*
X125862167Y-55148359D01*
X125992688Y-54961954D01*
X126088859Y-54755716D01*
X126147755Y-54535912D01*
X126167588Y-54309220D01*
X126147755Y-54082528D01*
X126088859Y-53862724D01*
X125992688Y-53656486D01*
X125862167Y-53470081D01*
X125862165Y-53470078D01*
X125701261Y-53309174D01*
X125514854Y-53178652D01*
X125514852Y-53178651D01*
X125308617Y-53082481D01*
X125308608Y-53082478D01*
X125088817Y-53023586D01*
X125088813Y-53023585D01*
X125088812Y-53023585D01*
X125088811Y-53023584D01*
X125088806Y-53023584D01*
X124862122Y-53003752D01*
X124862118Y-53003752D01*
X124635433Y-53023584D01*
X124635422Y-53023586D01*
X124415631Y-53082478D01*
X124415622Y-53082481D01*
X124209387Y-53178651D01*
X124209385Y-53178652D01*
X124022978Y-53309174D01*
X123862074Y-53470078D01*
X123731552Y-53656485D01*
X123731551Y-53656487D01*
X123635381Y-53862722D01*
X123635378Y-53862731D01*
X123576486Y-54082522D01*
X123576484Y-54082533D01*
X123556652Y-54309218D01*
X123556652Y-54309221D01*
X116202752Y-54309221D01*
X116081073Y-54187542D01*
X116047952Y-54168419D01*
X116014832Y-54149297D01*
X115977889Y-54139398D01*
X115940947Y-54129500D01*
X112735543Y-54129500D01*
X112659053Y-54129500D01*
X112585167Y-54149297D01*
X112518927Y-54187542D01*
X112518924Y-54187544D01*
X110835288Y-55871181D01*
X110773965Y-55904666D01*
X110747607Y-55907500D01*
X108580285Y-55907500D01*
X108513246Y-55887815D01*
X108467491Y-55835011D01*
X108457547Y-55765853D01*
X108462648Y-55748455D01*
X108461510Y-55748121D01*
X108464008Y-55739614D01*
X108471794Y-55685461D01*
X108484490Y-55597157D01*
X108464008Y-55454700D01*
X108404220Y-55323784D01*
X108309971Y-55215014D01*
X108188896Y-55137204D01*
X108188894Y-55137203D01*
X108188892Y-55137202D01*
X108188893Y-55137202D01*
X108050806Y-55096657D01*
X108050804Y-55096657D01*
X107906882Y-55096657D01*
X107906879Y-55096657D01*
X107768792Y-55137202D01*
X107647716Y-55215013D01*
X107553466Y-55323783D01*
X107553465Y-55323785D01*
X107493677Y-55454700D01*
X107479115Y-55555990D01*
X107450090Y-55619545D01*
X107391312Y-55657320D01*
X107356377Y-55662343D01*
X107341193Y-55662343D01*
X107203106Y-55702888D01*
X107082030Y-55780699D01*
X106987780Y-55889469D01*
X106987779Y-55889471D01*
X106927991Y-56020386D01*
X106907510Y-56162843D01*
X106927991Y-56305299D01*
X106938380Y-56328047D01*
X106987780Y-56436216D01*
X107082029Y-56544986D01*
X107203104Y-56622796D01*
X107203107Y-56622797D01*
X107203106Y-56622797D01*
X107341193Y-56663342D01*
X107341195Y-56663343D01*
X107341196Y-56663343D01*
X107485119Y-56663343D01*
X107485119Y-56663342D01*
X107623210Y-56622796D01*
X107623211Y-56622794D01*
X107631275Y-56619113D01*
X107631979Y-56620655D01*
X107688998Y-56603905D01*
X107756040Y-56623581D01*
X107776694Y-56640224D01*
X107946928Y-56810458D01*
X108013170Y-56848703D01*
X108087054Y-56868500D01*
X108087056Y-56868500D01*
X111114945Y-56868500D01*
X111114947Y-56868500D01*
X111188831Y-56848703D01*
X111255073Y-56810458D01*
X111816319Y-56249212D01*
X111877642Y-56215727D01*
X111947334Y-56220711D01*
X112003267Y-56262583D01*
X112027684Y-56328047D01*
X112028000Y-56336893D01*
X112028000Y-56669995D01*
X112066427Y-56863181D01*
X112066430Y-56863193D01*
X112141807Y-57045171D01*
X112141814Y-57045184D01*
X112223951Y-57168109D01*
X112244829Y-57234786D01*
X112226345Y-57302166D01*
X112174366Y-57348857D01*
X112120849Y-57361000D01*
X106309465Y-57361000D01*
X106242426Y-57341315D01*
X106221784Y-57324681D01*
X105141014Y-56243911D01*
X105115901Y-56207741D01*
X105073379Y-56114630D01*
X105073376Y-56114626D01*
X105054870Y-56093269D01*
X104979128Y-56005857D01*
X104858053Y-55928047D01*
X104858051Y-55928046D01*
X104858049Y-55928045D01*
X104858050Y-55928045D01*
X104719963Y-55887500D01*
X104719961Y-55887500D01*
X104576039Y-55887500D01*
X104576036Y-55887500D01*
X104437949Y-55928045D01*
X104316873Y-56005856D01*
X104222623Y-56114626D01*
X104222622Y-56114628D01*
X104162834Y-56245543D01*
X104142353Y-56388000D01*
X102562500Y-56388000D01*
X102562500Y-54309221D01*
X108556652Y-54309221D01*
X108576484Y-54535906D01*
X108576486Y-54535917D01*
X108635378Y-54755708D01*
X108635381Y-54755717D01*
X108731551Y-54961952D01*
X108731552Y-54961954D01*
X108862074Y-55148361D01*
X109022978Y-55309265D01*
X109022981Y-55309267D01*
X109209386Y-55439788D01*
X109415624Y-55535959D01*
X109635428Y-55594855D01*
X109797350Y-55609021D01*
X109862118Y-55614688D01*
X109862120Y-55614688D01*
X109862122Y-55614688D01*
X109918793Y-55609729D01*
X110088812Y-55594855D01*
X110308616Y-55535959D01*
X110514854Y-55439788D01*
X110701259Y-55309267D01*
X110862167Y-55148359D01*
X110992688Y-54961954D01*
X111088859Y-54755716D01*
X111147755Y-54535912D01*
X111167588Y-54309220D01*
X111147755Y-54082528D01*
X111088859Y-53862724D01*
X110992688Y-53656486D01*
X110862167Y-53470081D01*
X110862165Y-53470078D01*
X110701261Y-53309174D01*
X110514854Y-53178652D01*
X110514852Y-53178651D01*
X110308617Y-53082481D01*
X110308608Y-53082478D01*
X110088817Y-53023586D01*
X110088813Y-53023585D01*
X110088812Y-53023585D01*
X110088811Y-53023584D01*
X110088806Y-53023584D01*
X109862122Y-53003752D01*
X109862118Y-53003752D01*
X109635433Y-53023584D01*
X109635422Y-53023586D01*
X109415631Y-53082478D01*
X109415622Y-53082481D01*
X109209387Y-53178651D01*
X109209385Y-53178652D01*
X109022978Y-53309174D01*
X108862074Y-53470078D01*
X108731552Y-53656485D01*
X108731551Y-53656487D01*
X108635381Y-53862722D01*
X108635378Y-53862731D01*
X108576486Y-54082522D01*
X108576484Y-54082533D01*
X108556652Y-54309218D01*
X108556652Y-54309221D01*
X102562500Y-54309221D01*
X102562500Y-51124500D01*
X102582185Y-51057461D01*
X102634989Y-51011706D01*
X102686500Y-51000500D01*
X111996544Y-51000500D01*
X112063583Y-51020185D01*
G37*
%TD.AperFunction*%
%TD*%
M02*
