%TF.GenerationSoftware,KiCad,Pcbnew,(5.1.10)-1*%
%TF.CreationDate,2022-02-26T10:37:03-05:00*%
%TF.ProjectId,001,3030312e-6b69-4636-9164-5f7063625858,rev?*%
%TF.SameCoordinates,Original*%
%TF.FileFunction,Legend,Top*%
%TF.FilePolarity,Positive*%
%FSLAX46Y46*%
G04 Gerber Fmt 4.6, Leading zero omitted, Abs format (unit mm)*
G04 Created by KiCad (PCBNEW (5.1.10)-1) date 2022-02-26 10:37:03*
%MOMM*%
%LPD*%
G01*
G04 APERTURE LIST*
%ADD10C,0.120000*%
%ADD11C,0.150000*%
G04 APERTURE END LIST*
D10*
%TO.C,J2*%
X108330400Y-72042655D02*
X108330400Y-71324900D01*
X108330400Y-71324900D02*
X105985081Y-71324900D01*
X108330400Y-80275000D02*
X108330400Y-79557245D01*
X105985081Y-80275000D02*
X108330400Y-80275000D01*
X104469600Y-72141500D02*
X104469600Y-78458500D01*
%TO.C,D1*%
X122500000Y-90350000D02*
X122500000Y-88750000D01*
X122500000Y-88750000D02*
X122700000Y-88950000D01*
X115100000Y-90350000D02*
X115100000Y-88750000D01*
X115100000Y-88750000D02*
X114900000Y-88950000D01*
%TO.C,R1*%
X116532776Y-70877500D02*
X117042224Y-70877500D01*
X116532776Y-71922500D02*
X117042224Y-71922500D01*
%TO.C,R2*%
X121054724Y-70827500D02*
X120545276Y-70827500D01*
X121054724Y-71872500D02*
X120545276Y-71872500D01*
%TO.C,R3*%
X116157776Y-77527500D02*
X116667224Y-77527500D01*
X116157776Y-78572500D02*
X116667224Y-78572500D01*
%TO.C,R4*%
X116032776Y-74272500D02*
X116542224Y-74272500D01*
X116032776Y-73227500D02*
X116542224Y-73227500D01*
%TO.C,J2*%
D11*
X105852380Y-76300000D02*
X105852380Y-76204761D01*
X105900000Y-76109523D01*
X105947619Y-76061904D01*
X106042857Y-76014285D01*
X106233333Y-75966666D01*
X106471428Y-75966666D01*
X106661904Y-76014285D01*
X106757142Y-76061904D01*
X106804761Y-76109523D01*
X106852380Y-76204761D01*
X106852380Y-76300000D01*
X106804761Y-76395238D01*
X106757142Y-76442857D01*
X106661904Y-76490476D01*
X106471428Y-76538095D01*
X106233333Y-76538095D01*
X106042857Y-76490476D01*
X105947619Y-76442857D01*
X105900000Y-76395238D01*
X105852380Y-76300000D01*
X105852380Y-75347619D02*
X105852380Y-75252380D01*
X105900000Y-75157142D01*
X105947619Y-75109523D01*
X106042857Y-75061904D01*
X106233333Y-75014285D01*
X106471428Y-75014285D01*
X106661904Y-75061904D01*
X106757142Y-75109523D01*
X106804761Y-75157142D01*
X106852380Y-75252380D01*
X106852380Y-75347619D01*
X106804761Y-75442857D01*
X106757142Y-75490476D01*
X106661904Y-75538095D01*
X106471428Y-75585714D01*
X106233333Y-75585714D01*
X106042857Y-75538095D01*
X105947619Y-75490476D01*
X105900000Y-75442857D01*
X105852380Y-75347619D01*
X106852380Y-74061904D02*
X106852380Y-74633333D01*
X106852380Y-74347619D02*
X105852380Y-74347619D01*
X105995238Y-74442857D01*
X106090476Y-74538095D01*
X106138095Y-74633333D01*
%TO.C,D1*%
X118157142Y-92102380D02*
X117680952Y-92102380D01*
X117680952Y-91102380D01*
X118490476Y-91578571D02*
X118823809Y-91578571D01*
X118966666Y-92102380D02*
X118490476Y-92102380D01*
X118490476Y-91102380D01*
X118966666Y-91102380D01*
X119395238Y-92102380D02*
X119395238Y-91102380D01*
X119633333Y-91102380D01*
X119776190Y-91150000D01*
X119871428Y-91245238D01*
X119919047Y-91340476D01*
X119966666Y-91530952D01*
X119966666Y-91673809D01*
X119919047Y-91864285D01*
X119871428Y-91959523D01*
X119776190Y-92054761D01*
X119633333Y-92102380D01*
X119395238Y-92102380D01*
%TO.C,R1*%
X116133333Y-73052380D02*
X115800000Y-72576190D01*
X115561904Y-73052380D02*
X115561904Y-72052380D01*
X115942857Y-72052380D01*
X116038095Y-72100000D01*
X116085714Y-72147619D01*
X116133333Y-72242857D01*
X116133333Y-72385714D01*
X116085714Y-72480952D01*
X116038095Y-72528571D01*
X115942857Y-72576190D01*
X115561904Y-72576190D01*
X117085714Y-73052380D02*
X116514285Y-73052380D01*
X116800000Y-73052380D02*
X116800000Y-72052380D01*
X116704761Y-72195238D01*
X116609523Y-72290476D01*
X116514285Y-72338095D01*
%TO.C,R2*%
X120633333Y-73152380D02*
X120300000Y-72676190D01*
X120061904Y-73152380D02*
X120061904Y-72152380D01*
X120442857Y-72152380D01*
X120538095Y-72200000D01*
X120585714Y-72247619D01*
X120633333Y-72342857D01*
X120633333Y-72485714D01*
X120585714Y-72580952D01*
X120538095Y-72628571D01*
X120442857Y-72676190D01*
X120061904Y-72676190D01*
X121014285Y-72247619D02*
X121061904Y-72200000D01*
X121157142Y-72152380D01*
X121395238Y-72152380D01*
X121490476Y-72200000D01*
X121538095Y-72247619D01*
X121585714Y-72342857D01*
X121585714Y-72438095D01*
X121538095Y-72580952D01*
X120966666Y-73152380D01*
X121585714Y-73152380D01*
%TO.C,R3*%
X116233333Y-79852380D02*
X115900000Y-79376190D01*
X115661904Y-79852380D02*
X115661904Y-78852380D01*
X116042857Y-78852380D01*
X116138095Y-78900000D01*
X116185714Y-78947619D01*
X116233333Y-79042857D01*
X116233333Y-79185714D01*
X116185714Y-79280952D01*
X116138095Y-79328571D01*
X116042857Y-79376190D01*
X115661904Y-79376190D01*
X116566666Y-78852380D02*
X117185714Y-78852380D01*
X116852380Y-79233333D01*
X116995238Y-79233333D01*
X117090476Y-79280952D01*
X117138095Y-79328571D01*
X117185714Y-79423809D01*
X117185714Y-79661904D01*
X117138095Y-79757142D01*
X117090476Y-79804761D01*
X116995238Y-79852380D01*
X116709523Y-79852380D01*
X116614285Y-79804761D01*
X116566666Y-79757142D01*
%TO.C,R4*%
X117333333Y-75352380D02*
X117000000Y-74876190D01*
X116761904Y-75352380D02*
X116761904Y-74352380D01*
X117142857Y-74352380D01*
X117238095Y-74400000D01*
X117285714Y-74447619D01*
X117333333Y-74542857D01*
X117333333Y-74685714D01*
X117285714Y-74780952D01*
X117238095Y-74828571D01*
X117142857Y-74876190D01*
X116761904Y-74876190D01*
X118190476Y-74685714D02*
X118190476Y-75352380D01*
X117952380Y-74304761D02*
X117714285Y-75019047D01*
X118333333Y-75019047D01*
%TD*%
M02*
