%TF.GenerationSoftware,KiCad,Pcbnew,(6.0.8)*%
%TF.CreationDate,2022-10-30T13:45:45+01:00*%
%TF.ProjectId,001,3030312e-6b69-4636-9164-5f7063625858,rev?*%
%TF.SameCoordinates,Original*%
%TF.FileFunction,Copper,L2,Bot*%
%TF.FilePolarity,Positive*%
%FSLAX46Y46*%
G04 Gerber Fmt 4.6, Leading zero omitted, Abs format (unit mm)*
G04 Created by KiCad (PCBNEW (6.0.8)) date 2022-10-30 13:45:45*
%MOMM*%
%LPD*%
G01*
G04 APERTURE LIST*
%TA.AperFunction,SMDPad,CuDef*%
%ADD10R,0.600000X1.450000*%
%TD*%
%TA.AperFunction,SMDPad,CuDef*%
%ADD11R,0.300000X1.450000*%
%TD*%
%TA.AperFunction,ComponentPad*%
%ADD12O,1.000000X2.100000*%
%TD*%
%TA.AperFunction,ComponentPad*%
%ADD13O,1.000000X1.600000*%
%TD*%
%TA.AperFunction,ViaPad*%
%ADD14C,0.400000*%
%TD*%
%TA.AperFunction,Conductor*%
%ADD15C,0.200000*%
%TD*%
%TA.AperFunction,Conductor*%
%ADD16C,0.250000*%
%TD*%
G04 APERTURE END LIST*
D10*
%TO.P,J1,A1,GND*%
%TO.N,GND*%
X116654900Y-59515900D03*
%TO.P,J1,A4,VBUS*%
%TO.N,VCC*%
X117454900Y-59515900D03*
D11*
%TO.P,J1,A5,CC1*%
%TO.N,Net-(J1-PadA5)*%
X118654900Y-59515900D03*
%TO.P,J1,A6,D+*%
%TO.N,/d+*%
X119654900Y-59515900D03*
%TO.P,J1,A7,D-*%
%TO.N,/d-*%
X120154900Y-59515900D03*
%TO.P,J1,A8,SBU1*%
%TO.N,unconnected-(J1-PadA8)*%
X121154900Y-59515900D03*
D10*
%TO.P,J1,A9,VBUS*%
%TO.N,VCC*%
X122354900Y-59515900D03*
%TO.P,J1,A12,GND*%
%TO.N,GND*%
X123154900Y-59515900D03*
%TO.P,J1,B1,GND*%
X123154900Y-59515900D03*
%TO.P,J1,B4,VBUS*%
%TO.N,VCC*%
X122354900Y-59515900D03*
D11*
%TO.P,J1,B5,CC2*%
%TO.N,Net-(J1-PadB5)*%
X121654900Y-59515900D03*
%TO.P,J1,B6,D+*%
%TO.N,/d+*%
X120654900Y-59515900D03*
%TO.P,J1,B7,D-*%
%TO.N,/d-*%
X119154900Y-59515900D03*
%TO.P,J1,B8,SBU2*%
%TO.N,unconnected-(J1-PadB8)*%
X118154900Y-59515900D03*
D10*
%TO.P,J1,B9,VBUS*%
%TO.N,VCC*%
X117454900Y-59515900D03*
%TO.P,J1,B12,GND*%
%TO.N,GND*%
X116654900Y-59515900D03*
D12*
%TO.P,J1,S1,SHIELD*%
X115584900Y-58600900D03*
D13*
X124224900Y-54420900D03*
X115584900Y-54420900D03*
D12*
X124224900Y-58600900D03*
%TD*%
D14*
%TO.N,GND*%
X119761000Y-68961000D03*
X106680000Y-56515000D03*
X122047000Y-63754000D03*
X113538000Y-63881000D03*
X107420000Y-63560000D03*
X120015000Y-61087000D03*
X112268000Y-59944000D03*
X114046000Y-56388000D03*
X122047000Y-66675000D03*
X114427000Y-58674000D03*
X114554000Y-55753000D03*
X118821200Y-73456800D03*
X120904000Y-62738000D03*
X113665000Y-59436000D03*
X116459000Y-57277000D03*
X117094000Y-67437000D03*
X111379000Y-61341000D03*
X108585000Y-61772800D03*
X121031000Y-56642000D03*
X123825000Y-67183000D03*
X121920000Y-68326000D03*
X119380000Y-57785000D03*
X108762800Y-56057800D03*
X110744000Y-59436000D03*
X118110000Y-57277000D03*
X118618000Y-60960000D03*
X123571000Y-70739000D03*
X119430000Y-71080000D03*
X109093000Y-62865000D03*
X121158000Y-58039000D03*
X115443000Y-65786000D03*
X105110000Y-63460000D03*
X119888000Y-55499000D03*
X106832400Y-60629800D03*
X122428000Y-56769000D03*
X115062000Y-61595000D03*
X106807000Y-59055000D03*
X108686600Y-59359800D03*
X122047000Y-55499000D03*
X117221000Y-55499000D03*
X108661200Y-57708800D03*
X121666000Y-70739000D03*
X110820200Y-57073800D03*
X119253000Y-62230000D03*
X123825000Y-62865000D03*
X116967000Y-61976000D03*
X117620000Y-72850000D03*
%TO.N,Net-(J1-PadB5)*%
X120777000Y-55245000D03*
%TO.N,Net-(J1-PadA5)*%
X118999000Y-55245000D03*
%TO.N,/d-*%
X119658190Y-56998810D03*
%TO.N,/d+*%
X120117810Y-56539190D03*
%TO.N,VCC*%
X114546168Y-60779632D03*
%TO.N,/B*%
X121370000Y-71840000D03*
X117750000Y-71840000D03*
%TD*%
D15*
%TO.N,Net-(J1-PadB5)*%
X121654900Y-56122900D02*
X120777000Y-55245000D01*
X121654900Y-59515900D02*
X121654900Y-56122900D01*
%TO.N,Net-(J1-PadA5)*%
X118654900Y-55589100D02*
X118999000Y-55245000D01*
X118654900Y-59515900D02*
X118654900Y-55589100D01*
%TO.N,/d-*%
X119154900Y-58590900D02*
X119254901Y-58490899D01*
X120154900Y-58600898D02*
X120154900Y-59515900D01*
X120044901Y-58490899D02*
X120154900Y-58600898D01*
X119799611Y-56998810D02*
X120046400Y-57245600D01*
X119658190Y-56998810D02*
X119799611Y-56998810D01*
X120154900Y-59515900D02*
X120154900Y-57354100D01*
X119254901Y-58490899D02*
X120044901Y-58490899D01*
X120154900Y-57354100D02*
X120046400Y-57245600D01*
X119154900Y-59515900D02*
X119154900Y-58590900D01*
%TO.N,/d+*%
X120629900Y-59490900D02*
X120654900Y-59515900D01*
X120117810Y-56680611D02*
X120629900Y-57192701D01*
X120629900Y-57192701D02*
X120629900Y-59490900D01*
X120117810Y-56539190D02*
X120117810Y-56680611D01*
X119654900Y-60430902D02*
X119654900Y-59515900D01*
X120654900Y-60440900D02*
X120554899Y-60540901D01*
X120554899Y-60540901D02*
X119764899Y-60540901D01*
X119764899Y-60540901D02*
X119654900Y-60430902D01*
X120654900Y-59515900D02*
X120654900Y-60440900D01*
D16*
%TO.N,VCC*%
X117454900Y-60325902D02*
X117454900Y-59515900D01*
X121034901Y-61595901D02*
X117817439Y-61595901D01*
X114546168Y-60779632D02*
X117001170Y-60779632D01*
X117001170Y-60779632D02*
X117454900Y-60325902D01*
X117817439Y-61595901D02*
X117001170Y-60779632D01*
X122354900Y-60275902D02*
X121034901Y-61595901D01*
X122354900Y-59515900D02*
X122354900Y-60275902D01*
D15*
%TO.N,/B*%
X117750000Y-71840000D02*
X121370000Y-71840000D01*
%TD*%
%TA.AperFunction,Conductor*%
%TO.N,GND*%
G36*
X129171691Y-53559407D02*
G01*
X129207655Y-53608907D01*
X129212500Y-53639500D01*
X129212500Y-64269093D01*
X129193593Y-64327284D01*
X129185148Y-64337413D01*
X124088600Y-69682201D01*
X124085444Y-69685086D01*
X124077976Y-69688672D01*
X124057507Y-69714267D01*
X124051857Y-69720733D01*
X124045297Y-69727613D01*
X124042455Y-69732383D01*
X124039090Y-69736814D01*
X124039087Y-69736812D01*
X124036559Y-69740460D01*
X124027806Y-69751406D01*
X124020844Y-69760112D01*
X124018346Y-69770974D01*
X124017003Y-69773753D01*
X124016049Y-69776701D01*
X124010341Y-69786280D01*
X124009352Y-69797386D01*
X124009352Y-69797387D01*
X124008111Y-69811331D01*
X124007357Y-69816079D01*
X124006755Y-69821383D01*
X124005500Y-69826839D01*
X124005500Y-69836248D01*
X124005110Y-69845028D01*
X124002228Y-69877395D01*
X124005197Y-69885288D01*
X124005500Y-69889757D01*
X124005500Y-75075000D01*
X123986593Y-75133191D01*
X123937093Y-75169155D01*
X123906500Y-75174000D01*
X115933000Y-75174000D01*
X115874809Y-75155093D01*
X115838845Y-75105593D01*
X115834000Y-75075000D01*
X115834000Y-71840000D01*
X117324258Y-71840000D01*
X117345095Y-71971562D01*
X117405567Y-72090245D01*
X117499755Y-72184433D01*
X117506692Y-72187968D01*
X117506694Y-72187969D01*
X117611498Y-72241369D01*
X117618438Y-72244905D01*
X117626131Y-72246124D01*
X117626133Y-72246124D01*
X117742303Y-72264523D01*
X117750000Y-72265742D01*
X117757697Y-72264523D01*
X117873867Y-72246124D01*
X117873869Y-72246124D01*
X117881562Y-72244905D01*
X117888502Y-72241369D01*
X117993306Y-72187969D01*
X117993308Y-72187968D01*
X118000245Y-72184433D01*
X118015182Y-72169496D01*
X118069699Y-72141719D01*
X118085186Y-72140500D01*
X121034814Y-72140500D01*
X121093005Y-72159407D01*
X121104818Y-72169496D01*
X121119755Y-72184433D01*
X121126692Y-72187968D01*
X121126694Y-72187969D01*
X121231498Y-72241369D01*
X121238438Y-72244905D01*
X121246131Y-72246124D01*
X121246133Y-72246124D01*
X121362303Y-72264523D01*
X121370000Y-72265742D01*
X121377697Y-72264523D01*
X121493867Y-72246124D01*
X121493869Y-72246124D01*
X121501562Y-72244905D01*
X121508502Y-72241369D01*
X121613306Y-72187969D01*
X121613308Y-72187968D01*
X121620245Y-72184433D01*
X121714433Y-72090245D01*
X121774905Y-71971562D01*
X121795742Y-71840000D01*
X121774905Y-71708438D01*
X121714433Y-71589755D01*
X121620245Y-71495567D01*
X121613308Y-71492032D01*
X121613306Y-71492031D01*
X121508502Y-71438631D01*
X121508501Y-71438631D01*
X121501562Y-71435095D01*
X121493869Y-71433876D01*
X121493867Y-71433876D01*
X121377697Y-71415477D01*
X121370000Y-71414258D01*
X121362303Y-71415477D01*
X121246133Y-71433876D01*
X121246131Y-71433876D01*
X121238438Y-71435095D01*
X121231499Y-71438631D01*
X121231498Y-71438631D01*
X121126694Y-71492031D01*
X121126692Y-71492032D01*
X121119755Y-71495567D01*
X121104818Y-71510504D01*
X121050301Y-71538281D01*
X121034814Y-71539500D01*
X118085186Y-71539500D01*
X118026995Y-71520593D01*
X118015182Y-71510504D01*
X118000245Y-71495567D01*
X117993308Y-71492032D01*
X117993306Y-71492031D01*
X117888502Y-71438631D01*
X117888501Y-71438631D01*
X117881562Y-71435095D01*
X117873869Y-71433876D01*
X117873867Y-71433876D01*
X117757697Y-71415477D01*
X117750000Y-71414258D01*
X117742303Y-71415477D01*
X117626133Y-71433876D01*
X117626131Y-71433876D01*
X117618438Y-71435095D01*
X117611499Y-71438631D01*
X117611498Y-71438631D01*
X117506694Y-71492031D01*
X117506692Y-71492032D01*
X117499755Y-71495567D01*
X117405567Y-71589755D01*
X117345095Y-71708438D01*
X117324258Y-71840000D01*
X115834000Y-71840000D01*
X115834000Y-69890230D01*
X115834262Y-69886575D01*
X115837056Y-69879313D01*
X115834327Y-69845799D01*
X115834000Y-69837764D01*
X115834000Y-69827397D01*
X115832764Y-69821981D01*
X115832142Y-69816455D01*
X115832235Y-69816445D01*
X115831602Y-69812336D01*
X115830537Y-69799251D01*
X115830536Y-69799249D01*
X115829632Y-69788140D01*
X115824000Y-69778522D01*
X115822891Y-69775007D01*
X115821291Y-69771684D01*
X115818812Y-69760815D01*
X115803675Y-69741819D01*
X115801280Y-69738328D01*
X115801218Y-69738374D01*
X115797862Y-69733892D01*
X115795031Y-69729058D01*
X115791191Y-69724984D01*
X115791189Y-69724981D01*
X115787981Y-69721578D01*
X115782601Y-69715373D01*
X115768754Y-69697996D01*
X115768753Y-69697995D01*
X115761805Y-69689276D01*
X115754660Y-69685830D01*
X115751833Y-69683226D01*
X110602929Y-64220364D01*
X110597492Y-64214088D01*
X110592275Y-64207529D01*
X110587448Y-64197476D01*
X110568149Y-64182042D01*
X110564988Y-64179128D01*
X110564955Y-64179167D01*
X110560715Y-64175576D01*
X110556903Y-64171531D01*
X110548597Y-64165961D01*
X110541909Y-64161058D01*
X110516008Y-64140344D01*
X110507465Y-64138379D01*
X110500182Y-64133496D01*
X110474606Y-64129836D01*
X110467349Y-64128797D01*
X110459192Y-64127279D01*
X110459041Y-64127244D01*
X110449281Y-64125000D01*
X110443685Y-64125000D01*
X110438117Y-64124368D01*
X110438124Y-64124307D01*
X110433842Y-64124002D01*
X110409630Y-64120537D01*
X110399002Y-64123899D01*
X110389689Y-64124666D01*
X110381566Y-64125000D01*
X104439500Y-64125000D01*
X104381309Y-64106093D01*
X104345345Y-64056593D01*
X104340500Y-64026000D01*
X104340500Y-62249220D01*
X111649623Y-62249220D01*
X111668693Y-62467197D01*
X111669812Y-62471372D01*
X111669812Y-62471374D01*
X111692819Y-62557237D01*
X111725325Y-62678550D01*
X111817798Y-62876858D01*
X111820279Y-62880401D01*
X111820280Y-62880403D01*
X111856332Y-62931890D01*
X111943302Y-63056097D01*
X112098023Y-63210818D01*
X112277261Y-63336322D01*
X112475570Y-63428795D01*
X112506266Y-63437020D01*
X112682746Y-63484308D01*
X112682748Y-63484308D01*
X112686923Y-63485427D01*
X112904900Y-63504497D01*
X113122877Y-63485427D01*
X113127052Y-63484308D01*
X113127054Y-63484308D01*
X113303534Y-63437020D01*
X113334230Y-63428795D01*
X113532539Y-63336322D01*
X113711777Y-63210818D01*
X113866498Y-63056097D01*
X113953468Y-62931890D01*
X113989520Y-62880403D01*
X113989521Y-62880401D01*
X113992002Y-62876858D01*
X114084475Y-62678550D01*
X114116981Y-62557237D01*
X114139988Y-62471374D01*
X114139988Y-62471372D01*
X114141107Y-62467197D01*
X114151113Y-62352821D01*
X124804380Y-62352821D01*
X124805054Y-62356858D01*
X124837817Y-62553195D01*
X124838491Y-62557237D01*
X124839819Y-62561105D01*
X124880138Y-62678550D01*
X124905782Y-62753250D01*
X125004418Y-62935514D01*
X125131709Y-63099057D01*
X125284182Y-63239418D01*
X125457678Y-63352769D01*
X125545988Y-63391505D01*
X125643723Y-63434376D01*
X125643727Y-63434377D01*
X125647465Y-63436017D01*
X125651427Y-63437020D01*
X125651426Y-63437020D01*
X125844070Y-63485804D01*
X125848366Y-63486892D01*
X125852441Y-63487230D01*
X125852443Y-63487230D01*
X126043589Y-63503069D01*
X126046731Y-63503380D01*
X126048720Y-63503609D01*
X126054182Y-63504875D01*
X126054900Y-63504876D01*
X126060352Y-63503632D01*
X126060355Y-63503632D01*
X126066634Y-63502200D01*
X126088652Y-63499720D01*
X127220619Y-63499720D01*
X127242974Y-63502277D01*
X127254182Y-63504875D01*
X127254900Y-63504876D01*
X127260346Y-63503634D01*
X127263008Y-63503336D01*
X127265840Y-63503060D01*
X127457350Y-63487191D01*
X127457351Y-63487191D01*
X127461428Y-63486853D01*
X127465571Y-63485804D01*
X127506391Y-63475467D01*
X127662322Y-63435979D01*
X127666060Y-63434339D01*
X127666064Y-63434338D01*
X127763934Y-63391408D01*
X127852103Y-63352734D01*
X128025593Y-63239387D01*
X128178061Y-63099030D01*
X128305348Y-62935492D01*
X128403981Y-62753234D01*
X128471270Y-62557227D01*
X128478865Y-62511716D01*
X128487013Y-62462886D01*
X128505380Y-62352818D01*
X128505380Y-62145582D01*
X128483059Y-62011819D01*
X128471943Y-61945205D01*
X128471942Y-61945203D01*
X128471270Y-61941173D01*
X128429634Y-61819890D01*
X128405311Y-61749039D01*
X128405309Y-61749035D01*
X128403981Y-61745166D01*
X128305348Y-61562908D01*
X128178061Y-61399370D01*
X128025593Y-61259013D01*
X127852103Y-61145666D01*
X127682959Y-61071473D01*
X127666064Y-61064062D01*
X127666060Y-61064061D01*
X127662322Y-61062421D01*
X127467217Y-61013013D01*
X127465393Y-61012551D01*
X127465392Y-61012551D01*
X127461428Y-61011547D01*
X127457351Y-61011209D01*
X127457350Y-61011209D01*
X127266212Y-60995371D01*
X127263069Y-60995060D01*
X127261080Y-60994831D01*
X127255618Y-60993565D01*
X127254900Y-60993564D01*
X127249448Y-60994808D01*
X127249445Y-60994808D01*
X127243166Y-60996240D01*
X127221148Y-60998720D01*
X126089181Y-60998720D01*
X126066826Y-60996163D01*
X126063409Y-60995371D01*
X126055618Y-60993565D01*
X126054900Y-60993564D01*
X126049458Y-60994806D01*
X126046712Y-60995073D01*
X125852444Y-61011170D01*
X125852443Y-61011170D01*
X125848366Y-61011508D01*
X125844402Y-61012512D01*
X125844401Y-61012512D01*
X125842423Y-61013013D01*
X125647465Y-61062383D01*
X125643727Y-61064023D01*
X125643723Y-61064024D01*
X125550007Y-61105132D01*
X125457678Y-61145631D01*
X125454244Y-61147874D01*
X125454245Y-61147874D01*
X125311086Y-61241405D01*
X125284182Y-61258982D01*
X125131709Y-61399343D01*
X125116998Y-61418244D01*
X125042833Y-61513531D01*
X125004418Y-61562886D01*
X124905782Y-61745150D01*
X124904454Y-61749019D01*
X124904452Y-61749023D01*
X124872375Y-61842461D01*
X124838491Y-61941163D01*
X124837819Y-61945193D01*
X124837818Y-61945195D01*
X124830895Y-61986684D01*
X124804380Y-62145579D01*
X124804380Y-62352821D01*
X114151113Y-62352821D01*
X114160177Y-62249220D01*
X114141107Y-62031243D01*
X114129168Y-61986684D01*
X114098086Y-61870688D01*
X114084475Y-61819890D01*
X113992002Y-61621582D01*
X113989437Y-61617918D01*
X113888077Y-61473161D01*
X113866498Y-61442343D01*
X113711777Y-61287622D01*
X113532539Y-61162118D01*
X113334230Y-61069645D01*
X113206363Y-61035383D01*
X113127054Y-61014132D01*
X113127052Y-61014132D01*
X113122877Y-61013013D01*
X112904900Y-60993943D01*
X112686923Y-61013013D01*
X112682748Y-61014132D01*
X112682746Y-61014132D01*
X112603437Y-61035383D01*
X112475570Y-61069645D01*
X112277262Y-61162118D01*
X112098023Y-61287622D01*
X111943302Y-61442343D01*
X111921723Y-61473161D01*
X111820364Y-61617918D01*
X111817798Y-61621582D01*
X111725325Y-61819890D01*
X111711714Y-61870688D01*
X111680633Y-61986684D01*
X111668693Y-62031243D01*
X111649623Y-62249220D01*
X104340500Y-62249220D01*
X104340500Y-60779632D01*
X114120426Y-60779632D01*
X114121645Y-60787329D01*
X114130976Y-60846241D01*
X114141263Y-60911194D01*
X114144799Y-60918133D01*
X114144799Y-60918134D01*
X114193713Y-61014132D01*
X114201735Y-61029877D01*
X114295923Y-61124065D01*
X114302860Y-61127600D01*
X114302862Y-61127601D01*
X114370606Y-61162118D01*
X114414606Y-61184537D01*
X114422299Y-61185756D01*
X114422301Y-61185756D01*
X114538471Y-61204155D01*
X114546168Y-61205374D01*
X114553865Y-61204155D01*
X114670035Y-61185756D01*
X114670037Y-61185756D01*
X114677730Y-61184537D01*
X114796413Y-61124065D01*
X114797432Y-61123046D01*
X114852566Y-61105132D01*
X116825336Y-61105132D01*
X116883527Y-61124039D01*
X116895340Y-61134128D01*
X117574170Y-61812958D01*
X117580004Y-61819325D01*
X117604984Y-61849095D01*
X117638644Y-61868528D01*
X117645928Y-61873169D01*
X117677755Y-61895455D01*
X117686123Y-61897697D01*
X117691410Y-61900163D01*
X117696895Y-61902159D01*
X117704394Y-61906489D01*
X117712920Y-61907992D01*
X117712922Y-61907993D01*
X117742655Y-61913235D01*
X117751089Y-61915105D01*
X117788632Y-61925165D01*
X117827347Y-61921778D01*
X117835976Y-61921401D01*
X121016367Y-61921401D01*
X121024996Y-61921778D01*
X121063708Y-61925165D01*
X121101251Y-61915105D01*
X121109685Y-61913235D01*
X121139418Y-61907993D01*
X121139420Y-61907992D01*
X121147946Y-61906489D01*
X121155445Y-61902159D01*
X121160930Y-61900163D01*
X121166217Y-61897697D01*
X121174585Y-61895455D01*
X121206412Y-61873169D01*
X121213696Y-61868528D01*
X121247356Y-61849095D01*
X121272332Y-61819330D01*
X121278166Y-61812962D01*
X122571969Y-60519160D01*
X122578324Y-60513337D01*
X122608094Y-60488357D01*
X122612424Y-60480857D01*
X122617396Y-60474932D01*
X122669285Y-60442510D01*
X122674683Y-60441576D01*
X122674648Y-60441400D01*
X122679414Y-60440452D01*
X122723566Y-60431670D01*
X122723568Y-60431669D01*
X122733131Y-60429767D01*
X122799452Y-60385452D01*
X122843767Y-60319131D01*
X122855400Y-60260648D01*
X122855400Y-58771152D01*
X122854453Y-58766389D01*
X122854452Y-58766383D01*
X122851259Y-58750333D01*
X122858449Y-58689572D01*
X122899981Y-58644641D01*
X122935437Y-58632864D01*
X122938699Y-58632435D01*
X122938703Y-58632434D01*
X122945136Y-58631587D01*
X122982175Y-58616245D01*
X123079140Y-58576081D01*
X123079144Y-58576079D01*
X123085133Y-58573598D01*
X123090275Y-58569652D01*
X123090279Y-58569650D01*
X123200202Y-58485302D01*
X123205351Y-58481351D01*
X123243885Y-58431133D01*
X123293650Y-58366279D01*
X123293652Y-58366275D01*
X123297598Y-58361133D01*
X123300079Y-58355144D01*
X123300081Y-58355140D01*
X123353103Y-58227133D01*
X123355587Y-58221136D01*
X123375366Y-58070900D01*
X123355587Y-57920664D01*
X123327040Y-57851746D01*
X123300081Y-57786660D01*
X123300079Y-57786656D01*
X123297598Y-57780667D01*
X123293652Y-57775525D01*
X123293650Y-57775521D01*
X123209302Y-57665598D01*
X123205351Y-57660449D01*
X123163337Y-57628210D01*
X123090279Y-57572150D01*
X123090275Y-57572148D01*
X123085133Y-57568202D01*
X123079144Y-57565721D01*
X123079140Y-57565719D01*
X122951133Y-57512697D01*
X122945136Y-57510213D01*
X122832620Y-57495400D01*
X122757180Y-57495400D01*
X122644664Y-57510213D01*
X122638667Y-57512697D01*
X122510660Y-57565719D01*
X122510656Y-57565721D01*
X122504667Y-57568202D01*
X122499525Y-57572148D01*
X122499521Y-57572150D01*
X122426463Y-57628210D01*
X122384449Y-57660449D01*
X122380498Y-57665598D01*
X122296150Y-57775521D01*
X122296148Y-57775525D01*
X122292202Y-57780667D01*
X122289721Y-57786656D01*
X122289719Y-57786660D01*
X122262760Y-57851746D01*
X122234213Y-57920664D01*
X122214434Y-58070900D01*
X122234213Y-58221136D01*
X122236697Y-58227133D01*
X122289719Y-58355140D01*
X122289721Y-58355144D01*
X122292202Y-58361133D01*
X122296151Y-58366279D01*
X122296153Y-58366283D01*
X122345914Y-58431133D01*
X122366338Y-58488809D01*
X122348960Y-58547474D01*
X122300419Y-58584722D01*
X122267372Y-58590400D01*
X122054400Y-58590400D01*
X121996209Y-58571493D01*
X121960245Y-58521993D01*
X121955400Y-58491400D01*
X121955400Y-56849220D01*
X126096652Y-56849220D01*
X126116485Y-57075912D01*
X126117604Y-57080087D01*
X126117604Y-57080089D01*
X126129770Y-57125493D01*
X126175381Y-57295716D01*
X126271552Y-57501954D01*
X126274033Y-57505497D01*
X126274034Y-57505499D01*
X126386136Y-57665598D01*
X126402073Y-57688359D01*
X126562981Y-57849267D01*
X126566519Y-57851744D01*
X126566521Y-57851746D01*
X126664947Y-57920664D01*
X126749386Y-57979788D01*
X126955624Y-58075959D01*
X126960756Y-58077334D01*
X127171251Y-58133736D01*
X127171253Y-58133736D01*
X127175428Y-58134855D01*
X127402120Y-58154688D01*
X127628812Y-58134855D01*
X127632987Y-58133736D01*
X127632989Y-58133736D01*
X127843484Y-58077334D01*
X127848616Y-58075959D01*
X128054854Y-57979788D01*
X128139293Y-57920664D01*
X128237719Y-57851746D01*
X128237721Y-57851744D01*
X128241259Y-57849267D01*
X128402167Y-57688359D01*
X128418105Y-57665598D01*
X128530206Y-57505499D01*
X128530207Y-57505497D01*
X128532688Y-57501954D01*
X128628859Y-57295716D01*
X128674470Y-57125493D01*
X128686636Y-57080089D01*
X128686636Y-57080087D01*
X128687755Y-57075912D01*
X128707588Y-56849220D01*
X128687755Y-56622528D01*
X128676211Y-56579443D01*
X128629977Y-56406897D01*
X128628859Y-56402724D01*
X128532688Y-56196486D01*
X128530206Y-56192941D01*
X128404646Y-56013621D01*
X128404644Y-56013619D01*
X128402167Y-56010081D01*
X128241259Y-55849173D01*
X128117051Y-55762202D01*
X128058399Y-55721134D01*
X128058397Y-55721133D01*
X128054854Y-55718652D01*
X127848616Y-55622481D01*
X127702099Y-55583222D01*
X127632989Y-55564704D01*
X127632987Y-55564704D01*
X127628812Y-55563585D01*
X127402120Y-55543752D01*
X127175428Y-55563585D01*
X127171253Y-55564704D01*
X127171251Y-55564704D01*
X127102141Y-55583222D01*
X126955624Y-55622481D01*
X126749386Y-55718652D01*
X126745843Y-55721133D01*
X126745841Y-55721134D01*
X126687190Y-55762202D01*
X126562981Y-55849173D01*
X126402073Y-56010081D01*
X126399596Y-56013619D01*
X126399594Y-56013621D01*
X126274034Y-56192941D01*
X126271552Y-56196486D01*
X126175381Y-56402724D01*
X126174263Y-56406897D01*
X126128030Y-56579443D01*
X126116485Y-56622528D01*
X126096652Y-56849220D01*
X121955400Y-56849220D01*
X121955400Y-56176408D01*
X121955703Y-56172283D01*
X121957325Y-56167558D01*
X121955470Y-56118139D01*
X121955400Y-56114426D01*
X121955400Y-56094952D01*
X121954575Y-56090522D01*
X121954238Y-56085317D01*
X121953469Y-56064825D01*
X121953126Y-56055692D01*
X121949520Y-56047298D01*
X121949519Y-56047295D01*
X121948583Y-56045117D01*
X121942217Y-56024166D01*
X121940109Y-56012847D01*
X121926132Y-55990171D01*
X121919448Y-55977304D01*
X121911695Y-55959258D01*
X121911694Y-55959257D01*
X121908936Y-55952837D01*
X121904922Y-55947951D01*
X121900558Y-55943587D01*
X121886287Y-55925532D01*
X121886164Y-55925333D01*
X121881368Y-55917552D01*
X121858131Y-55899882D01*
X121848061Y-55891090D01*
X121225632Y-55268661D01*
X121197855Y-55214144D01*
X121183124Y-55121133D01*
X121183124Y-55121131D01*
X121181905Y-55113438D01*
X121121433Y-54994755D01*
X121027245Y-54900567D01*
X121020308Y-54897032D01*
X121020306Y-54897031D01*
X120915502Y-54843631D01*
X120915501Y-54843631D01*
X120908562Y-54840095D01*
X120900869Y-54838876D01*
X120900867Y-54838876D01*
X120784697Y-54820477D01*
X120777000Y-54819258D01*
X120769303Y-54820477D01*
X120653133Y-54838876D01*
X120653131Y-54838876D01*
X120645438Y-54840095D01*
X120638499Y-54843631D01*
X120638498Y-54843631D01*
X120533694Y-54897031D01*
X120533692Y-54897032D01*
X120526755Y-54900567D01*
X120432567Y-54994755D01*
X120372095Y-55113438D01*
X120351258Y-55245000D01*
X120352477Y-55252697D01*
X120367612Y-55348254D01*
X120372095Y-55376562D01*
X120375631Y-55383501D01*
X120375631Y-55383502D01*
X120417282Y-55465246D01*
X120432567Y-55495245D01*
X120526755Y-55589433D01*
X120533692Y-55592968D01*
X120533694Y-55592969D01*
X120553552Y-55603087D01*
X120645438Y-55649905D01*
X120653131Y-55651124D01*
X120653133Y-55651124D01*
X120746144Y-55665855D01*
X120800661Y-55693632D01*
X121325404Y-56218375D01*
X121353181Y-56272892D01*
X121354400Y-56288379D01*
X121354400Y-58491400D01*
X121335493Y-58549591D01*
X121285993Y-58585555D01*
X121255400Y-58590400D01*
X121029400Y-58590400D01*
X120971209Y-58571493D01*
X120935245Y-58521993D01*
X120930400Y-58491400D01*
X120930400Y-57246215D01*
X120930703Y-57242086D01*
X120932326Y-57237359D01*
X120930470Y-57187924D01*
X120930400Y-57184210D01*
X120930400Y-57164753D01*
X120929575Y-57160323D01*
X120929239Y-57155137D01*
X120928469Y-57134626D01*
X120928469Y-57134625D01*
X120928126Y-57125493D01*
X120924520Y-57117099D01*
X120924519Y-57117096D01*
X120923583Y-57114918D01*
X120917217Y-57093967D01*
X120915109Y-57082648D01*
X120901130Y-57059970D01*
X120894450Y-57047110D01*
X120886692Y-57029053D01*
X120886691Y-57029052D01*
X120883936Y-57022639D01*
X120879923Y-57017752D01*
X120875557Y-57013386D01*
X120861285Y-56995330D01*
X120861164Y-56995133D01*
X120861163Y-56995132D01*
X120856368Y-56987353D01*
X120833143Y-56969693D01*
X120823064Y-56960893D01*
X120559779Y-56697608D01*
X120532002Y-56643091D01*
X120532002Y-56612118D01*
X120542333Y-56546887D01*
X120543552Y-56539190D01*
X120522715Y-56407628D01*
X120519179Y-56400688D01*
X120465779Y-56295884D01*
X120465778Y-56295882D01*
X120462243Y-56288945D01*
X120368055Y-56194757D01*
X120361118Y-56191222D01*
X120361116Y-56191221D01*
X120256312Y-56137821D01*
X120256311Y-56137821D01*
X120249372Y-56134285D01*
X120241679Y-56133066D01*
X120241677Y-56133066D01*
X120125507Y-56114667D01*
X120117810Y-56113448D01*
X120110113Y-56114667D01*
X119993943Y-56133066D01*
X119993941Y-56133066D01*
X119986248Y-56134285D01*
X119979309Y-56137821D01*
X119979308Y-56137821D01*
X119874504Y-56191221D01*
X119874502Y-56191222D01*
X119867565Y-56194757D01*
X119773377Y-56288945D01*
X119769842Y-56295882D01*
X119769841Y-56295884D01*
X119716441Y-56400688D01*
X119712905Y-56407628D01*
X119700911Y-56483360D01*
X119698688Y-56497393D01*
X119670911Y-56551910D01*
X119616393Y-56579688D01*
X119569923Y-56587048D01*
X119534324Y-56592686D01*
X119534323Y-56592686D01*
X119526628Y-56593905D01*
X119519689Y-56597441D01*
X119519688Y-56597441D01*
X119414884Y-56650841D01*
X119414882Y-56650842D01*
X119407945Y-56654377D01*
X119313757Y-56748565D01*
X119253285Y-56867248D01*
X119252066Y-56874941D01*
X119252066Y-56874943D01*
X119235139Y-56981820D01*
X119232448Y-56998810D01*
X119233667Y-57006507D01*
X119244660Y-57075912D01*
X119253285Y-57130372D01*
X119256821Y-57137311D01*
X119256821Y-57137312D01*
X119307798Y-57237359D01*
X119313757Y-57249055D01*
X119407945Y-57343243D01*
X119414882Y-57346778D01*
X119414884Y-57346779D01*
X119476028Y-57377933D01*
X119526628Y-57403715D01*
X119534321Y-57404934D01*
X119534323Y-57404934D01*
X119650493Y-57423333D01*
X119658190Y-57424552D01*
X119665887Y-57423333D01*
X119731118Y-57413002D01*
X119791550Y-57422574D01*
X119816608Y-57440779D01*
X119825404Y-57449575D01*
X119853181Y-57504092D01*
X119854400Y-57519579D01*
X119854400Y-58091399D01*
X119835493Y-58149590D01*
X119785993Y-58185554D01*
X119755400Y-58190399D01*
X119308409Y-58190399D01*
X119304284Y-58190096D01*
X119299559Y-58188474D01*
X119250140Y-58190329D01*
X119246427Y-58190399D01*
X119226953Y-58190399D01*
X119222523Y-58191224D01*
X119217330Y-58191560D01*
X119201299Y-58192162D01*
X119196826Y-58192330D01*
X119187693Y-58192673D01*
X119179299Y-58196279D01*
X119179296Y-58196280D01*
X119177118Y-58197216D01*
X119156167Y-58203582D01*
X119144848Y-58205690D01*
X119137065Y-58210487D01*
X119137066Y-58210487D01*
X119122173Y-58219667D01*
X119109305Y-58226351D01*
X119093480Y-58233150D01*
X119032551Y-58238749D01*
X118979968Y-58207465D01*
X118955815Y-58151249D01*
X118955400Y-58142190D01*
X118955400Y-55762202D01*
X118974307Y-55704011D01*
X119023807Y-55668047D01*
X119038913Y-55664421D01*
X119122867Y-55651124D01*
X119122869Y-55651124D01*
X119130562Y-55649905D01*
X119222448Y-55603087D01*
X119242306Y-55592969D01*
X119242308Y-55592968D01*
X119249245Y-55589433D01*
X119343433Y-55495245D01*
X119358719Y-55465246D01*
X119400369Y-55383502D01*
X119400369Y-55383501D01*
X119403905Y-55376562D01*
X119408389Y-55348254D01*
X119423523Y-55252697D01*
X119424742Y-55245000D01*
X119403905Y-55113438D01*
X119343433Y-54994755D01*
X119249245Y-54900567D01*
X119242308Y-54897032D01*
X119242306Y-54897031D01*
X119137502Y-54843631D01*
X119137501Y-54843631D01*
X119130562Y-54840095D01*
X119122869Y-54838876D01*
X119122867Y-54838876D01*
X119006697Y-54820477D01*
X118999000Y-54819258D01*
X118991303Y-54820477D01*
X118875133Y-54838876D01*
X118875131Y-54838876D01*
X118867438Y-54840095D01*
X118860499Y-54843631D01*
X118860498Y-54843631D01*
X118755694Y-54897031D01*
X118755692Y-54897032D01*
X118748755Y-54900567D01*
X118654567Y-54994755D01*
X118594095Y-55113438D01*
X118592876Y-55121131D01*
X118592876Y-55121133D01*
X118578145Y-55214144D01*
X118550368Y-55268661D01*
X118480249Y-55338780D01*
X118477120Y-55341480D01*
X118472631Y-55343675D01*
X118466413Y-55350378D01*
X118439007Y-55379922D01*
X118436431Y-55382598D01*
X118422652Y-55396377D01*
X118420107Y-55400087D01*
X118416671Y-55404000D01*
X118396499Y-55425746D01*
X118393112Y-55434234D01*
X118393112Y-55434235D01*
X118392234Y-55436436D01*
X118381920Y-55455752D01*
X118380579Y-55457707D01*
X118380578Y-55457710D01*
X118375408Y-55465246D01*
X118373298Y-55474138D01*
X118369259Y-55491158D01*
X118364886Y-55504984D01*
X118357606Y-55523232D01*
X118355017Y-55529722D01*
X118354400Y-55536015D01*
X118354400Y-55542184D01*
X118351725Y-55565043D01*
X118349560Y-55574166D01*
X118351638Y-55589433D01*
X118353496Y-55603087D01*
X118354400Y-55616437D01*
X118354400Y-58491400D01*
X118335493Y-58549591D01*
X118285993Y-58585555D01*
X118255400Y-58590400D01*
X117985152Y-58590400D01*
X117958752Y-58595651D01*
X117936229Y-58600131D01*
X117936227Y-58600132D01*
X117926669Y-58602033D01*
X117918566Y-58607448D01*
X117917785Y-58607771D01*
X117856788Y-58612571D01*
X117842015Y-58607771D01*
X117841234Y-58607448D01*
X117833131Y-58602033D01*
X117823573Y-58600132D01*
X117823571Y-58600131D01*
X117801048Y-58595651D01*
X117774648Y-58590400D01*
X117542428Y-58590400D01*
X117484237Y-58571493D01*
X117448273Y-58521993D01*
X117448273Y-58460807D01*
X117463886Y-58431133D01*
X117513647Y-58366283D01*
X117513649Y-58366279D01*
X117517598Y-58361133D01*
X117520079Y-58355144D01*
X117520081Y-58355140D01*
X117573103Y-58227133D01*
X117575587Y-58221136D01*
X117595366Y-58070900D01*
X117575587Y-57920664D01*
X117547040Y-57851746D01*
X117520081Y-57786660D01*
X117520079Y-57786656D01*
X117517598Y-57780667D01*
X117513652Y-57775525D01*
X117513650Y-57775521D01*
X117429302Y-57665598D01*
X117425351Y-57660449D01*
X117383337Y-57628210D01*
X117310279Y-57572150D01*
X117310275Y-57572148D01*
X117305133Y-57568202D01*
X117299144Y-57565721D01*
X117299140Y-57565719D01*
X117171133Y-57512697D01*
X117165136Y-57510213D01*
X117052620Y-57495400D01*
X116977180Y-57495400D01*
X116864664Y-57510213D01*
X116858667Y-57512697D01*
X116730660Y-57565719D01*
X116730656Y-57565721D01*
X116724667Y-57568202D01*
X116719525Y-57572148D01*
X116719521Y-57572150D01*
X116646463Y-57628210D01*
X116604449Y-57660449D01*
X116600498Y-57665598D01*
X116516150Y-57775521D01*
X116516148Y-57775525D01*
X116512202Y-57780667D01*
X116509721Y-57786656D01*
X116509719Y-57786660D01*
X116482760Y-57851746D01*
X116454213Y-57920664D01*
X116434434Y-58070900D01*
X116454213Y-58221136D01*
X116456697Y-58227133D01*
X116509719Y-58355140D01*
X116509721Y-58355144D01*
X116512202Y-58361133D01*
X116516148Y-58366275D01*
X116516150Y-58366279D01*
X116565915Y-58431133D01*
X116604449Y-58481351D01*
X116609598Y-58485302D01*
X116719521Y-58569650D01*
X116719525Y-58569652D01*
X116724667Y-58573598D01*
X116730656Y-58576079D01*
X116730660Y-58576081D01*
X116827625Y-58616245D01*
X116864664Y-58631587D01*
X116871097Y-58632434D01*
X116871101Y-58632435D01*
X116874363Y-58632864D01*
X116876491Y-58633879D01*
X116877365Y-58634113D01*
X116877322Y-58634275D01*
X116929589Y-58659203D01*
X116958786Y-58712973D01*
X116958541Y-58750333D01*
X116955348Y-58766383D01*
X116955347Y-58766389D01*
X116954400Y-58771152D01*
X116954400Y-60260648D01*
X116955348Y-60265412D01*
X116961568Y-60296684D01*
X116954376Y-60357445D01*
X116934474Y-60386002D01*
X116895340Y-60425136D01*
X116840823Y-60452913D01*
X116825336Y-60454132D01*
X114852566Y-60454132D01*
X114797432Y-60436218D01*
X114796413Y-60435199D01*
X114709414Y-60390871D01*
X114684670Y-60378263D01*
X114684669Y-60378263D01*
X114677730Y-60374727D01*
X114670037Y-60373508D01*
X114670035Y-60373508D01*
X114553865Y-60355109D01*
X114546168Y-60353890D01*
X114538471Y-60355109D01*
X114422301Y-60373508D01*
X114422299Y-60373508D01*
X114414606Y-60374727D01*
X114407667Y-60378263D01*
X114407666Y-60378263D01*
X114302862Y-60431663D01*
X114302860Y-60431664D01*
X114295923Y-60435199D01*
X114201735Y-60529387D01*
X114198200Y-60536324D01*
X114198199Y-60536326D01*
X114146984Y-60636842D01*
X114141263Y-60648070D01*
X114140044Y-60655763D01*
X114140044Y-60655765D01*
X114128837Y-60726528D01*
X114120426Y-60779632D01*
X104340500Y-60779632D01*
X104340500Y-56849220D01*
X111096652Y-56849220D01*
X111116485Y-57075912D01*
X111117604Y-57080087D01*
X111117604Y-57080089D01*
X111129770Y-57125493D01*
X111175381Y-57295716D01*
X111271552Y-57501954D01*
X111274033Y-57505497D01*
X111274034Y-57505499D01*
X111386136Y-57665598D01*
X111402073Y-57688359D01*
X111562981Y-57849267D01*
X111566519Y-57851744D01*
X111566521Y-57851746D01*
X111664947Y-57920664D01*
X111749386Y-57979788D01*
X111955624Y-58075959D01*
X111960756Y-58077334D01*
X112171251Y-58133736D01*
X112171253Y-58133736D01*
X112175428Y-58134855D01*
X112402120Y-58154688D01*
X112628812Y-58134855D01*
X112632987Y-58133736D01*
X112632989Y-58133736D01*
X112843484Y-58077334D01*
X112848616Y-58075959D01*
X113054854Y-57979788D01*
X113139293Y-57920664D01*
X113237719Y-57851746D01*
X113237721Y-57851744D01*
X113241259Y-57849267D01*
X113402167Y-57688359D01*
X113418105Y-57665598D01*
X113530206Y-57505499D01*
X113530207Y-57505497D01*
X113532688Y-57501954D01*
X113628859Y-57295716D01*
X113674470Y-57125493D01*
X113686636Y-57080089D01*
X113686636Y-57080087D01*
X113687755Y-57075912D01*
X113707588Y-56849220D01*
X113687755Y-56622528D01*
X113676211Y-56579443D01*
X113629977Y-56406897D01*
X113628859Y-56402724D01*
X113532688Y-56196486D01*
X113530206Y-56192941D01*
X113404646Y-56013621D01*
X113404644Y-56013619D01*
X113402167Y-56010081D01*
X113241259Y-55849173D01*
X113117051Y-55762202D01*
X113058399Y-55721134D01*
X113058397Y-55721133D01*
X113054854Y-55718652D01*
X112848616Y-55622481D01*
X112702099Y-55583222D01*
X112632989Y-55564704D01*
X112632987Y-55564704D01*
X112628812Y-55563585D01*
X112402120Y-55543752D01*
X112175428Y-55563585D01*
X112171253Y-55564704D01*
X112171251Y-55564704D01*
X112102141Y-55583222D01*
X111955624Y-55622481D01*
X111749386Y-55718652D01*
X111745843Y-55721133D01*
X111745841Y-55721134D01*
X111687190Y-55762202D01*
X111562981Y-55849173D01*
X111402073Y-56010081D01*
X111399596Y-56013619D01*
X111399594Y-56013621D01*
X111274034Y-56192941D01*
X111271552Y-56196486D01*
X111175381Y-56402724D01*
X111174263Y-56406897D01*
X111128030Y-56579443D01*
X111116485Y-56622528D01*
X111096652Y-56849220D01*
X104340500Y-56849220D01*
X104340500Y-53639500D01*
X104359407Y-53581309D01*
X104408907Y-53545345D01*
X104439500Y-53540500D01*
X129113500Y-53540500D01*
X129171691Y-53559407D01*
G37*
%TD.AperFunction*%
%TA.AperFunction,Conductor*%
G36*
X117917785Y-60424029D02*
G01*
X117918566Y-60424352D01*
X117926669Y-60429767D01*
X117936227Y-60431668D01*
X117936229Y-60431669D01*
X117957527Y-60435905D01*
X117985152Y-60441400D01*
X118324648Y-60441400D01*
X118383131Y-60429767D01*
X118383787Y-60433064D01*
X118426564Y-60429697D01*
X118426669Y-60429767D01*
X118485152Y-60441400D01*
X118824648Y-60441400D01*
X118883131Y-60429767D01*
X118883787Y-60433064D01*
X118926564Y-60429697D01*
X118926669Y-60429767D01*
X118985152Y-60441400D01*
X119267093Y-60441400D01*
X119325284Y-60460307D01*
X119358054Y-60501322D01*
X119361219Y-60508689D01*
X119367583Y-60529636D01*
X119369691Y-60540955D01*
X119383487Y-60563336D01*
X119383668Y-60563630D01*
X119390352Y-60576498D01*
X119393289Y-60583333D01*
X119400864Y-60600965D01*
X119404878Y-60605851D01*
X119409242Y-60610215D01*
X119423513Y-60628270D01*
X119428432Y-60636250D01*
X119451669Y-60653920D01*
X119461739Y-60662712D01*
X119514579Y-60715552D01*
X119517279Y-60718681D01*
X119519474Y-60723170D01*
X119526177Y-60729388D01*
X119555721Y-60756794D01*
X119558397Y-60759370D01*
X119572176Y-60773149D01*
X119575886Y-60775694D01*
X119579799Y-60779130D01*
X119601545Y-60799302D01*
X119610033Y-60802689D01*
X119610034Y-60802689D01*
X119612235Y-60803567D01*
X119631551Y-60813881D01*
X119633506Y-60815222D01*
X119633509Y-60815223D01*
X119641045Y-60820393D01*
X119666957Y-60826542D01*
X119680783Y-60830915D01*
X119699031Y-60838195D01*
X119699033Y-60838195D01*
X119705521Y-60840784D01*
X119711814Y-60841401D01*
X119717983Y-60841401D01*
X119740842Y-60844076D01*
X119741072Y-60844131D01*
X119741074Y-60844131D01*
X119749965Y-60846241D01*
X119778887Y-60842305D01*
X119792236Y-60841401D01*
X120501391Y-60841401D01*
X120505516Y-60841704D01*
X120510241Y-60843326D01*
X120559660Y-60841471D01*
X120563373Y-60841401D01*
X120582847Y-60841401D01*
X120587277Y-60840576D01*
X120592470Y-60840240D01*
X120608501Y-60839638D01*
X120612974Y-60839470D01*
X120622107Y-60839127D01*
X120630501Y-60835521D01*
X120630504Y-60835520D01*
X120632682Y-60834584D01*
X120653633Y-60828218D01*
X120664952Y-60826110D01*
X120687628Y-60812133D01*
X120700495Y-60805449D01*
X120718541Y-60797696D01*
X120718542Y-60797695D01*
X120724962Y-60794937D01*
X120729848Y-60790923D01*
X120734212Y-60786559D01*
X120752267Y-60772288D01*
X120760247Y-60767369D01*
X120777917Y-60744132D01*
X120786709Y-60734062D01*
X120829551Y-60691220D01*
X120832680Y-60688520D01*
X120837169Y-60686325D01*
X120870793Y-60650078D01*
X120873369Y-60647402D01*
X120887148Y-60633623D01*
X120889693Y-60629913D01*
X120893129Y-60626000D01*
X120907087Y-60610953D01*
X120913301Y-60604254D01*
X120916688Y-60595766D01*
X120917567Y-60593563D01*
X120927878Y-60574252D01*
X120929222Y-60572293D01*
X120929223Y-60572290D01*
X120934393Y-60564754D01*
X120940544Y-60538834D01*
X120944913Y-60525018D01*
X120953413Y-60503712D01*
X120992537Y-60456672D01*
X121045364Y-60441400D01*
X121324648Y-60441400D01*
X121383131Y-60429767D01*
X121383787Y-60433064D01*
X121426564Y-60429697D01*
X121426669Y-60429767D01*
X121485152Y-60441400D01*
X121490067Y-60441400D01*
X121490092Y-60441408D01*
X121494854Y-60441877D01*
X121494751Y-60442922D01*
X121548258Y-60460307D01*
X121584222Y-60509807D01*
X121584222Y-60570993D01*
X121560071Y-60610404D01*
X120929071Y-61241405D01*
X120874554Y-61269182D01*
X120859067Y-61270401D01*
X117993273Y-61270401D01*
X117935082Y-61251494D01*
X117923269Y-61241405D01*
X117531500Y-60849636D01*
X117503723Y-60795119D01*
X117513294Y-60734687D01*
X117531500Y-60709628D01*
X117671957Y-60569171D01*
X117678325Y-60563336D01*
X117708094Y-60538357D01*
X117727529Y-60504694D01*
X117732162Y-60497422D01*
X117748065Y-60474711D01*
X117796929Y-60437890D01*
X117809845Y-60434399D01*
X117823571Y-60431669D01*
X117823573Y-60431668D01*
X117833131Y-60429767D01*
X117841234Y-60424352D01*
X117842015Y-60424029D01*
X117903012Y-60419229D01*
X117917785Y-60424029D01*
G37*
%TD.AperFunction*%
%TD*%
M02*
